<?xml version="1.0" encoding="UTF-8" standalone="no"?>
<!DOCTYPE svg PUBLIC "-//W3C//DTD SVG 1.1//EN"
 "http://www.w3.org/Graphics/SVG/1.1/DTD/svg11.dtd">
<!-- Generated by graphviz version 2.38.0 (20140413.2041)
 -->
<!-- Title: IBM SAN Volume Controller Storwize Alert Definitions/SVC&#45;Virtual Pool/Pool Subscribed Capacity Pages: 1 -->
<svg width="766pt" height="586pt"
 viewBox="0.00 0.00 765.98 586.35" xmlns="http://www.w3.org/2000/svg" xmlns:xlink="http://www.w3.org/1999/xlink">
<g id="${uniqueid}" class="graph" transform="scale(1 1) rotate(0) translate(4 582.347)">
<title>IBM SAN Volume Controller Storwize Alert Definitions/SVC&#45;Virtual Pool/Pool Subscribed Capacity</title>
<polygon fill="white" stroke="none" points="-4,4 -4,-582.347 761.984,-582.347 761.984,4 -4,4"/>
<!-- %3 -->
<g id="${uniqueid}_node1" class="node"><title>%3</title>
<g id="a_${uniqueid}_node1"><a xlink:href="#272080641899211" xlink:title="com.watch4net.alerting.operation.FilteredEntryPoint">
<ellipse fill="#984ea3" stroke="black" cx="27" cy="-278.87" rx="27" ry="18"/>
<text text-anchor="middle" x="27" y="-275.17" font-family="Times,serif" font-size="14.00" fill="white">%3</text>
</a>
</g>
</g>
<!-- Round Value -->
<g id="${uniqueid}_node8" class="node"><title>Round Value</title>
<g id="a_${uniqueid}_node8"><a xlink:href="#272080641983123" xlink:title="com.watch4net.alerting.operation.math.ConstantMathOperation">
<polygon fill="#377eb8" stroke="black" points="189,-296.87 90,-296.87 90,-260.87 189,-260.87 189,-296.87"/>
<text text-anchor="middle" x="139.5" y="-275.17" font-family="Times,serif" font-size="14.00" fill="white">Round Value</text>
</a>
</g>
</g>
<!-- %3&#45;&gt;Round Value -->
<g id="${uniqueid}_edge1" class="edge"><title>%3:e&#45;&gt;Round Value:w</title>
<path fill="none" stroke="black" d="M54,-278.87C66,-278.87 71.25,-278.87 79.875,-278.87"/>
<polygon fill="black" stroke="black" points="80,-282.37 90,-278.87 80,-275.37 80,-282.37"/>
</g>
<!-- Capacity&#45;info&#45;
trap -->
<g id="${uniqueid}_node2" class="node"><title>Capacity&#45;info&#45;
trap</title>
<g id="a_${uniqueid}_node2"><a xlink:href="#1437054045816" xlink:title="com.watch4net.alerting.action.SNMPTrapAction">
<ellipse fill="#4daf4a" stroke="black" cx="666.767" cy="-314.87" rx="86.0347" ry="26.7407"/>
<text text-anchor="middle" x="666.767" y="-318.67" font-family="Times,serif" font-size="14.00" fill="white">Capacity&#45;info&#45;</text>
<text text-anchor="middle" x="666.767" y="-303.67" font-family="Times,serif" font-size="14.00" fill="white">trap</text>
</a>
</g>
</g>
<!-- CapacitySeverity -->
<g id="${uniqueid}_node3" class="node"><title>CapacitySeverity</title>
<g id="a_${uniqueid}_node3"><a xlink:href="#1437054307973" xlink:title="com.watch4net.alerting.operation.CaseOperation">
<polygon fill="#377eb8" stroke="black" points="362,-296.87 225,-296.87 225,-260.87 362,-260.87 362,-296.87"/>
<text text-anchor="middle" x="293.5" y="-275.17" font-family="Times,serif" font-size="14.00" fill="white">CapacitySeverity</text>
</a>
</g>
</g>
<!-- Critical -->
<g id="${uniqueid}_node4" class="node"><title>Critical</title>
<g id="a_${uniqueid}_node4"><a xlink:href="#1437053315615" xlink:title="com.watch4net.alerting.operation.comparator.ConstantComparatorOperation">
<polygon fill="#ff7f00" stroke="black" points="468.775,-490.87 398.224,-472.87 468.775,-454.87 539.326,-472.87 468.775,-490.87"/>
<text text-anchor="middle" x="468.775" y="-469.17" font-family="Times,serif" font-size="14.00" fill="white">Critical</text>
</a>
</g>
</g>
<!-- CapacitySeverity&#45;&gt;Critical -->
<g id="${uniqueid}_edge2" class="edge"><title>CapacitySeverity:e&#45;&gt;Critical:w</title>
<path fill="none" stroke="black" d="M362,-278.87C445.926,-278.87 321.865,-456.556 387.917,-471.826"/>
<polygon fill="black" stroke="black" points="387.693,-475.322 398,-472.87 388.414,-468.359 387.693,-475.322"/>
</g>
<!-- Info -->
<g id="${uniqueid}_node5" class="node"><title>Info</title>
<g id="a_${uniqueid}_node5"><a xlink:href="#1437054011635" xlink:title="com.watch4net.alerting.operation.comparator.ConstantComparatorOperation">
<polygon fill="#ff7f00" stroke="black" points="468.775,-345.87 425.373,-327.87 468.775,-309.87 512.177,-327.87 468.775,-345.87"/>
<text text-anchor="middle" x="468.775" y="-324.17" font-family="Times,serif" font-size="14.00" fill="white">Info</text>
</a>
</g>
</g>
<!-- CapacitySeverity&#45;&gt;Info -->
<g id="${uniqueid}_edge3" class="edge"><title>CapacitySeverity:e&#45;&gt;Info:w</title>
<path fill="none" stroke="black" d="M362,-278.87C393.211,-278.87 390.031,-317.737 413.719,-326.24"/>
<polygon fill="black" stroke="black" points="413.344,-329.725 423.775,-327.87 414.464,-322.815 413.344,-329.725"/>
</g>
<!-- Major -->
<g id="${uniqueid}_node6" class="node"><title>Major</title>
<g id="a_${uniqueid}_node6"><a xlink:href="#1437053564764" xlink:title="com.watch4net.alerting.operation.comparator.ConstantComparatorOperation">
<polygon fill="#ff7f00" stroke="black" points="468.775,-247.87 419.006,-229.87 468.775,-211.87 518.544,-229.87 468.775,-247.87"/>
<text text-anchor="middle" x="468.775" y="-226.17" font-family="Times,serif" font-size="14.00" fill="white">Major</text>
</a>
</g>
</g>
<!-- CapacitySeverity&#45;&gt;Major -->
<g id="${uniqueid}_edge4" class="edge"><title>CapacitySeverity:e&#45;&gt;Major:w</title>
<path fill="none" stroke="black" d="M362,-278.87C391.13,-278.87 386.58,-240.682 407.816,-231.731"/>
<polygon fill="black" stroke="black" points="408.588,-235.147 417.775,-229.87 407.302,-228.267 408.588,-235.147"/>
</g>
<!-- Minor -->
<g id="${uniqueid}_node7" class="node"><title>Minor</title>
<g id="a_${uniqueid}_node7"><a xlink:href="#1437053724167" xlink:title="com.watch4net.alerting.operation.comparator.ConstantComparatorOperation">
<polygon fill="#ff7f00" stroke="black" points="468.775,-103.87 419.006,-85.8701 468.775,-67.8701 518.544,-85.8701 468.775,-103.87"/>
<text text-anchor="middle" x="468.775" y="-82.1701" font-family="Times,serif" font-size="14.00" fill="white">Minor</text>
</a>
</g>
</g>
<!-- CapacitySeverity&#45;&gt;Minor -->
<g id="${uniqueid}_edge5" class="edge"><title>CapacitySeverity:e&#45;&gt;Minor:w</title>
<path fill="none" stroke="black" d="M362,-278.87C447.451,-278.87 338.649,-102.1 407.406,-86.9085"/>
<polygon fill="black" stroke="black" points="408.174,-90.3492 417.775,-85.8701 407.476,-83.3841 408.174,-90.3492"/>
</g>
<!-- capacity&#45;
critical&#45;clear&#45;
trap -->
<g id="${uniqueid}_node9" class="node"><title>capacity&#45;
critical&#45;clear&#45;
trap</title>
<g id="a_${uniqueid}_node9"><a xlink:href="#1437053463571" xlink:title="com.watch4net.alerting.action.SNMPTrapAction">
<ellipse fill="#4daf4a" stroke="black" cx="666.767" cy="-540.87" rx="91.4341" ry="37.4533"/>
<text text-anchor="middle" x="666.767" y="-552.17" font-family="Times,serif" font-size="14.00" fill="white">capacity&#45;</text>
<text text-anchor="middle" x="666.767" y="-537.17" font-family="Times,serif" font-size="14.00" fill="white">critical&#45;clear&#45;</text>
<text text-anchor="middle" x="666.767" y="-522.17" font-family="Times,serif" font-size="14.00" fill="white">trap</text>
</a>
</g>
</g>
<!-- Critical&#45;&gt;capacity&#45;
critical&#45;clear&#45;
trap -->
<g id="${uniqueid}_edge6" class="edge"><title>Critical:ne&#45;&gt;capacity&#45;
critical&#45;clear&#45;
trap:w</title>
<path fill="none" stroke="black" d="M481.775,-486.87C483.071,-488.166 481.651,-489.423 482.775,-490.87 509.331,-525.036 526.024,-538.748 565.344,-540.639"/>
<polygon fill="black" stroke="black" points="565.473,-544.142 575.55,-540.87 565.632,-537.144 565.473,-544.142"/>
<text text-anchor="middle" x="462.775" y="-490.67" font-family="Times,serif" font-size="14.00">false</text>
</g>
<!-- capacity&#45;
critical&#45;trap -->
<g id="${uniqueid}_node10" class="node"><title>capacity&#45;
critical&#45;trap</title>
<g id="a_${uniqueid}_node10"><a xlink:href="#1437053394175" xlink:title="com.watch4net.alerting.action.SNMPTrapAction">
<ellipse fill="#4daf4a" stroke="black" cx="666.767" cy="-458.87" rx="80.7205" ry="26.7407"/>
<text text-anchor="middle" x="666.767" y="-462.67" font-family="Times,serif" font-size="14.00" fill="white">capacity&#45;</text>
<text text-anchor="middle" x="666.767" y="-447.67" font-family="Times,serif" font-size="14.00" fill="white">critical&#45;trap</text>
</a>
</g>
</g>
<!-- Critical&#45;&gt;capacity&#45;
critical&#45;trap -->
<g id="${uniqueid}_edge7" class="edge"><title>Critical:se&#45;&gt;capacity&#45;
critical&#45;trap:w</title>
<path fill="none" stroke="black" d="M483.775,-458.87C513.034,-429.611 536.029,-454.298 574.609,-458.334"/>
<polygon fill="black" stroke="black" points="574.596,-461.838 584.767,-458.87 574.965,-454.848 574.596,-461.838"/>
<text text-anchor="middle" x="468.275" y="-447.67" font-family="Times,serif" font-size="14.00">true</text>
</g>
<!-- Info&#45;&gt;Capacity&#45;info&#45;
trap -->
<g id="${uniqueid}_edge9" class="edge"><title>Info:se&#45;&gt;Capacity&#45;info&#45;
trap:w</title>
<path fill="none" stroke="black" d="M482.775,-314.87C510.468,-287.177 532.257,-310.327 568.647,-314.311"/>
<polygon fill="black" stroke="black" points="568.589,-317.813 578.767,-314.87 568.975,-310.824 568.589,-317.813"/>
<text text-anchor="middle" x="498.275" y="-303.67" font-family="Times,serif" font-size="14.00">true</text>
</g>
<!-- capacity&#45;info&#45;
clear&#45;trap -->
<g id="${uniqueid}_node11" class="node"><title>capacity&#45;info&#45;
clear&#45;trap</title>
<g id="a_${uniqueid}_node11"><a xlink:href="#1437054072005" xlink:title="com.watch4net.alerting.action.SNMPTrapAction">
<ellipse fill="#4daf4a" stroke="black" cx="666.767" cy="-386.87" rx="86.0347" ry="26.7407"/>
<text text-anchor="middle" x="666.767" y="-390.67" font-family="Times,serif" font-size="14.00" fill="white">capacity&#45;info&#45;</text>
<text text-anchor="middle" x="666.767" y="-375.67" font-family="Times,serif" font-size="14.00" fill="white">clear&#45;trap</text>
</a>
</g>
</g>
<!-- Info&#45;&gt;capacity&#45;info&#45;
clear&#45;trap -->
<g id="${uniqueid}_edge8" class="edge"><title>Info:ne&#45;&gt;capacity&#45;info&#45;
clear&#45;trap:w</title>
<path fill="none" stroke="black" d="M480.775,-340.87C482.378,-342.473 480.343,-344.114 481.775,-345.87 509.158,-379.447 528.857,-385.994 568.765,-386.781"/>
<polygon fill="black" stroke="black" points="568.736,-390.281 578.767,-386.87 568.799,-383.281 568.736,-390.281"/>
<text text-anchor="middle" x="499.775" y="-344.67" font-family="Times,serif" font-size="14.00">false</text>
</g>
<!-- capacity&#45;major&#45;
clear&#45;trap -->
<g id="${uniqueid}_node12" class="node"><title>capacity&#45;major&#45;
clear&#45;trap</title>
<g id="a_${uniqueid}_node12"><a xlink:href="#1437053632866" xlink:title="com.watch4net.alerting.action.SNMPTrapAction">
<ellipse fill="#4daf4a" stroke="black" cx="666.767" cy="-242.87" rx="91.4341" ry="26.7407"/>
<text text-anchor="middle" x="666.767" y="-246.67" font-family="Times,serif" font-size="14.00" fill="white">capacity&#45;major&#45;</text>
<text text-anchor="middle" x="666.767" y="-231.67" font-family="Times,serif" font-size="14.00" fill="white">clear&#45;trap</text>
</a>
</g>
</g>
<!-- Major&#45;&gt;capacity&#45;major&#45;
clear&#45;trap -->
<g id="${uniqueid}_edge10" class="edge"><title>Major:ne&#45;&gt;capacity&#45;major&#45;
clear&#45;trap:w</title>
<path fill="none" stroke="black" d="M480.775,-242.87C482.378,-244.473 480.023,-246.433 481.775,-247.87 487.115,-252.248 540.634,-245.611 565.418,-243.488"/>
<polygon fill="black" stroke="black" points="565.782,-246.972 575.55,-242.87 565.356,-239.985 565.782,-246.972"/>
<text text-anchor="middle" x="461.775" y="-246.67" font-family="Times,serif" font-size="14.00">false</text>
</g>
<!-- capacity&#45;major&#45;
trap -->
<g id="${uniqueid}_node13" class="node"><title>capacity&#45;major&#45;
trap</title>
<g id="a_${uniqueid}_node13"><a xlink:href="#1437053592606" xlink:title="com.watch4net.alerting.action.SNMPTrapAction">
<ellipse fill="#4daf4a" stroke="black" cx="666.767" cy="-170.87" rx="91.4341" ry="26.7407"/>
<text text-anchor="middle" x="666.767" y="-174.67" font-family="Times,serif" font-size="14.00" fill="white">capacity&#45;major&#45;</text>
<text text-anchor="middle" x="666.767" y="-159.67" font-family="Times,serif" font-size="14.00" fill="white">trap</text>
</a>
</g>
</g>
<!-- Major&#45;&gt;capacity&#45;major&#45;
trap -->
<g id="${uniqueid}_edge11" class="edge"><title>Major:se&#45;&gt;capacity&#45;major&#45;
trap:w</title>
<path fill="none" stroke="black" d="M482.775,-216.87C512.776,-186.869 527.195,-173.089 565.322,-171.119"/>
<polygon fill="black" stroke="black" points="565.638,-174.613 575.55,-170.87 565.468,-167.615 565.638,-174.613"/>
<text text-anchor="middle" x="467.275" y="-205.67" font-family="Times,serif" font-size="14.00">true</text>
</g>
<!-- capacity&#45;minor&#45;
clear&#45;trap -->
<g id="${uniqueid}_node14" class="node"><title>capacity&#45;minor&#45;
clear&#45;trap</title>
<g id="a_${uniqueid}_node14"><a xlink:href="#1437053823295" xlink:title="com.watch4net.alerting.action.SNMPTrapAction">
<ellipse fill="#4daf4a" stroke="black" cx="666.767" cy="-98.8701" rx="91.4341" ry="26.7407"/>
<text text-anchor="middle" x="666.767" y="-102.67" font-family="Times,serif" font-size="14.00" fill="white">capacity&#45;minor&#45;</text>
<text text-anchor="middle" x="666.767" y="-87.6701" font-family="Times,serif" font-size="14.00" fill="white">clear&#45;trap</text>
</a>
</g>
</g>
<!-- Minor&#45;&gt;capacity&#45;minor&#45;
clear&#45;trap -->
<g id="${uniqueid}_edge12" class="edge"><title>Minor:ne&#45;&gt;capacity&#45;minor&#45;
clear&#45;trap:w</title>
<path fill="none" stroke="black" d="M480.775,-98.8701C482.378,-100.473 480.023,-102.433 481.775,-103.87 487.115,-108.248 540.634,-101.611 565.418,-99.4876"/>
<polygon fill="black" stroke="black" points="565.782,-102.972 575.55,-98.8701 565.356,-95.985 565.782,-102.972"/>
<text text-anchor="middle" x="461.775" y="-102.67" font-family="Times,serif" font-size="14.00">false</text>
</g>
<!-- capacity&#45;minor&#45;
trap -->
<g id="${uniqueid}_node15" class="node"><title>capacity&#45;minor&#45;
trap</title>
<g id="a_${uniqueid}_node15"><a xlink:href="#1437053783129" xlink:title="com.watch4net.alerting.action.SNMPTrapAction">
<ellipse fill="#4daf4a" stroke="black" cx="666.767" cy="-26.8701" rx="91.4341" ry="26.7407"/>
<text text-anchor="middle" x="666.767" y="-30.6701" font-family="Times,serif" font-size="14.00" fill="white">capacity&#45;minor&#45;</text>
<text text-anchor="middle" x="666.767" y="-15.6701" font-family="Times,serif" font-size="14.00" fill="white">trap</text>
</a>
</g>
</g>
<!-- Minor&#45;&gt;capacity&#45;minor&#45;
trap -->
<g id="${uniqueid}_edge13" class="edge"><title>Minor:se&#45;&gt;capacity&#45;minor&#45;
trap:w</title>
<path fill="none" stroke="black" d="M482.775,-72.8701C512.776,-42.869 527.195,-29.0891 565.322,-27.1191"/>
<polygon fill="black" stroke="black" points="565.638,-30.6126 575.55,-26.8701 565.468,-23.6146 565.638,-30.6126"/>
<text text-anchor="middle" x="467.275" y="-61.6701" font-family="Times,serif" font-size="14.00">true</text>
</g>
<!-- Round Value&#45;&gt;CapacitySeverity -->
<g id="${uniqueid}_edge14" class="edge"><title>Round Value:e&#45;&gt;CapacitySeverity:w</title>
<path fill="none" stroke="black" d="M189,-278.87C201,-278.87 206.25,-278.87 214.875,-278.87"/>
<polygon fill="black" stroke="black" points="215,-282.37 225,-278.87 215,-275.37 215,-282.37"/>
</g>
</g>
</svg>
