<?xml version="1.0" encoding="UTF-8" standalone="no"?>
<!DOCTYPE svg PUBLIC "-//W3C//DTD SVG 1.1//EN"
 "http://www.w3.org/Graphics/SVG/1.1/DTD/svg11.dtd">
<!-- Generated by graphviz version 2.38.0 (20140413.2041)
 -->
<!-- Title: EMC M&amp;R Health/Tasks Status Pages: 1 -->
<svg width="732pt" height="172pt"
 viewBox="0.00 0.00 731.95 171.87" xmlns="http://www.w3.org/2000/svg" xmlns:xlink="http://www.w3.org/1999/xlink">
<g id="${uniqueid}" class="graph" transform="scale(1 1) rotate(0) translate(4 167.87)">
<title>EMC M&amp;R Health/Tasks Status</title>
<polygon fill="white" stroke="none" points="-4,4 -4,-167.87 727.953,-167.87 727.953,4 -4,4"/>
<!-- Action
CLEARMajor -->
<g id="${uniqueid}_node1" class="node"><title>Action
CLEARMajor</title>
<g id="a_${uniqueid}_node1"><a xlink:href="#3863112897168975" xlink:title="com.watch4net.alerting.action.SNMPTrapAction">
<ellipse fill="#4daf4a" stroke="black" cx="632.953" cy="-137" rx="65.1077" ry="26.7407"/>
<text text-anchor="middle" x="632.953" y="-140.8" font-family="Times,serif" font-size="14.00" fill="white">Action</text>
<text text-anchor="middle" x="632.953" y="-125.8" font-family="Times,serif" font-size="14.00" fill="white">CLEARMajor</text>
</a>
</g>
</g>
<!-- Action SETMajor -->
<g id="${uniqueid}_node2" class="node"><title>Action SETMajor</title>
<g id="a_${uniqueid}_node2"><a xlink:href="#3863112897140975" xlink:title="com.watch4net.alerting.action.SNMPTrapAction">
<ellipse fill="#4daf4a" stroke="black" cx="632.953" cy="-18" rx="83.6854" ry="18"/>
<text text-anchor="middle" x="632.953" y="-14.3" font-family="Times,serif" font-size="14.00" fill="white">Action SETMajor</text>
</a>
</g>
</g>
<!-- Custom post&#45;
filter -->
<g id="${uniqueid}_node3" class="node"><title>Custom post&#45;
filter</title>
<g id="a_${uniqueid}_node3"><a xlink:href="#1436291142685" xlink:title="1435689668905">
<polygon fill="#e41a1c" stroke="black" points="686.453,-92 579.453,-92 579.453,-54 686.453,-54 686.453,-92"/>
<text text-anchor="middle" x="632.953" y="-76.8" font-family="Times,serif" font-size="14.00" fill="white">Custom post&#45;</text>
<text text-anchor="middle" x="632.953" y="-61.8" font-family="Times,serif" font-size="14.00" fill="white">filter</text>
</a>
</g>
</g>
<!-- Custom pre&#45;
filter -->
<g id="${uniqueid}_node4" class="node"><title>Custom pre&#45;
filter</title>
<g id="a_${uniqueid}_node4"><a xlink:href="#1436291134953" xlink:title="1435689654812">
<polygon fill="#e41a1c" stroke="black" points="224.692,-92 125.692,-92 125.692,-54 224.692,-54 224.692,-92"/>
<text text-anchor="middle" x="175.192" y="-76.8" font-family="Times,serif" font-size="14.00" fill="white">Custom pre&#45;</text>
<text text-anchor="middle" x="175.192" y="-61.8" font-family="Times,serif" font-size="14.00" fill="white">filter</text>
</a>
</g>
</g>
<!-- Refine -->
<g id="${uniqueid}_node6" class="node"><title>Refine</title>
<g id="a_${uniqueid}_node6"><a xlink:href="#1428418181243" xlink:title="com.watch4net.alerting.operation.RefineFilterOperation">
<polygon fill="#377eb8" stroke="black" points="322.692,-91 260.692,-91 260.692,-55 322.692,-55 322.692,-91"/>
<text text-anchor="middle" x="291.692" y="-69.3" font-family="Times,serif" font-size="14.00" fill="white">Refine</text>
</a>
</g>
</g>
<!-- Custom pre&#45;
filter&#45;&gt;Refine -->
<g id="${uniqueid}_edge1" class="edge"><title>Custom pre&#45;
filter:e&#45;&gt;Refine:w</title>
<path fill="none" stroke="black" d="M224.692,-73C236.692,-73 241.942,-73 250.567,-73"/>
<polygon fill="black" stroke="black" points="250.692,-76.5001 260.692,-73 250.692,-69.5001 250.692,-76.5001"/>
</g>
<!-- Filter1 -->
<g id="${uniqueid}_node5" class="node"><title>Filter1</title>
<g id="a_${uniqueid}_node5"><a xlink:href="#3863112896219975" xlink:title="com.watch4net.alerting.operation.FilteredEntryPoint">
<ellipse fill="#984ea3" stroke="black" cx="44.846" cy="-73" rx="44.6926" ry="18"/>
<text text-anchor="middle" x="44.846" y="-69.3" font-family="Times,serif" font-size="14.00" fill="white">Filter1</text>
</a>
</g>
</g>
<!-- Filter1&#45;&gt;Custom pre&#45;
filter -->
<g id="${uniqueid}_edge2" class="edge"><title>Filter1:e&#45;&gt;Custom pre&#45;
filter:w</title>
<path fill="none" stroke="black" d="M89.692,-73C101.692,-73 106.942,-73 115.567,-73"/>
<polygon fill="black" stroke="black" points="115.692,-76.5001 125.692,-73 115.692,-69.5001 115.692,-76.5001"/>
</g>
<!-- Threshold -->
<g id="${uniqueid}_node7" class="node"><title>Threshold</title>
<g id="a_${uniqueid}_node7"><a xlink:href="#3863112897093975" xlink:title="com.watch4net.alerting.operation.comparator.ConstantComparatorOperation">
<polygon fill="#ff7f00" stroke="black" points="435.901,-91 358.482,-73 435.901,-55 513.32,-73 435.901,-91"/>
<text text-anchor="middle" x="435.901" y="-69.3" font-family="Times,serif" font-size="14.00" fill="white">Threshold</text>
</a>
</g>
</g>
<!-- Refine&#45;&gt;Threshold -->
<g id="${uniqueid}_edge3" class="edge"><title>Refine:e&#45;&gt;Threshold:w</title>
<path fill="none" stroke="black" d="M322.692,-73C334.692,-73 339.942,-73 348.567,-73"/>
<polygon fill="black" stroke="black" points="348.692,-76.5001 358.692,-73 348.692,-69.5001 348.692,-76.5001"/>
</g>
<!-- Threshold&#45;&gt;Action
CLEARMajor -->
<g id="${uniqueid}_edge4" class="edge"><title>Threshold:ne&#45;&gt;Action
CLEARMajor:w</title>
<path fill="none" stroke="black" d="M449.901,-88C450.895,-88.9938 449.935,-89.9789 450.901,-91 486.644,-128.789 508.604,-136.153 556.925,-136.926"/>
<polygon fill="black" stroke="black" points="556.928,-140.426 566.953,-137 556.979,-133.426 556.928,-140.426"/>
<text text-anchor="middle" x="430.901" y="-91.8" font-family="Times,serif" font-size="14.00">false</text>
</g>
<!-- Threshold&#45;&gt;Action SETMajor -->
<g id="${uniqueid}_edge6" class="edge"><title>Threshold:se&#45;&gt;Action SETMajor:w</title>
<path fill="none" stroke="black" d="M451.901,-58C482.42,-27.4812 499.642,-19.2123 538.924,-18.1297"/>
<polygon fill="black" stroke="black" points="539.156,-21.6271 549.11,-18 539.067,-14.6277 539.156,-21.6271"/>
<text text-anchor="middle" x="436.401" y="-46.8" font-family="Times,serif" font-size="14.00">true</text>
</g>
<!-- Threshold&#45;&gt;Custom post&#45;
filter -->
<g id="${uniqueid}_edge5" class="edge"><title>Threshold:ne&#45;&gt;Custom post&#45;
filter:sw</title>
<path fill="none" stroke="black" d="M449.901,-88C450.895,-88.9938 449.761,-90.1782 450.901,-91 473.331,-107.166 486.352,-97.9574 513.11,-91 542.325,-83.4041 553.833,-41.8187 572.68,-48.347"/>
<polygon fill="black" stroke="black" points="570.722,-51.2483 580.953,-54 574.671,-45.4686 570.722,-51.2483"/>
<text text-anchor="middle" x="652.453" y="-42.8" font-family="Times,serif" font-size="14.00">1435689620024|entry</text>
</g>
<!-- Threshold&#45;&gt;Custom post&#45;
filter -->
<g id="${uniqueid}_edge7" class="edge"><title>Threshold:se&#45;&gt;Custom post&#45;
filter:nw</title>
<path fill="none" stroke="black" d="M451.901,-58C470.227,-39.6744 539.701,-96.8309 569.614,-95.6068"/>
<polygon fill="black" stroke="black" points="570.886,-98.8678 578.953,-92 568.364,-92.3379 570.886,-98.8678"/>
<text text-anchor="middle" x="650.453" y="-95.8" font-family="Times,serif" font-size="14.00">1435689616003|entry</text>
</g>
</g>
</svg>
