<?xml version="1.0" encoding="UTF-8" standalone="no"?>
<!DOCTYPE svg PUBLIC "-//W3C//DTD SVG 1.1//EN"
 "http://www.w3.org/Graphics/SVG/1.1/DTD/svg11.dtd">
<!-- Generated by graphviz version 2.38.0 (20140413.2041)
 -->
<!-- Title: EMC Centera Alert Definitions/Centera&#45;Node/ObjectCount Utilization Pages: 1 -->
<svg width="1286pt" height="586pt"
 viewBox="0.00 0.00 1285.61 585.74" xmlns="http://www.w3.org/2000/svg" xmlns:xlink="http://www.w3.org/1999/xlink">
<g id="${uniqueid}" class="graph" transform="scale(1 1) rotate(0) translate(4 581.74)">
<title>EMC Centera Alert Definitions/Centera&#45;Node/ObjectCount Utilization</title>
<polygon fill="white" stroke="none" points="-4,4 -4,-581.74 1281.61,-581.74 1281.61,4 -4,4"/>
<!-- NodeObjectCount_
CriticalClear
Trap -->
<g id="${uniqueid}_node1" class="node"><title>NodeObjectCount_
CriticalClear
Trap</title>
<g id="a_${uniqueid}_node1"><a xlink:href="#353175776954244" xlink:title="com.watch4net.alerting.action.SNMPTrapAction">
<ellipse fill="#4daf4a" stroke="black" cx="1169.42" cy="-252.87" rx="108.375" ry="37.4533"/>
<text text-anchor="middle" x="1169.42" y="-264.17" font-family="Times,serif" font-size="14.00" fill="white">NodeObjectCount_</text>
<text text-anchor="middle" x="1169.42" y="-249.17" font-family="Times,serif" font-size="14.00" fill="white">CriticalClear</text>
<text text-anchor="middle" x="1169.42" y="-234.17" font-family="Times,serif" font-size="14.00" fill="white">Trap</text>
</a>
</g>
</g>
<!-- NodeObjectCount_
CriticalTrap -->
<g id="${uniqueid}_node2" class="node"><title>NodeObjectCount_
CriticalTrap</title>
<g id="a_${uniqueid}_node2"><a xlink:href="#353175776940886" xlink:title="com.watch4net.alerting.action.SNMPTrapAction">
<ellipse fill="#4daf4a" stroke="black" cx="1169.42" cy="-170.87" rx="108.375" ry="26.7407"/>
<text text-anchor="middle" x="1169.42" y="-174.67" font-family="Times,serif" font-size="14.00" fill="white">NodeObjectCount_</text>
<text text-anchor="middle" x="1169.42" y="-159.67" font-family="Times,serif" font-size="14.00" fill="white">CriticalTrap</text>
</a>
</g>
</g>
<!-- NodeObjectCount_
INFOClearTrap -->
<g id="${uniqueid}_node3" class="node"><title>NodeObjectCount_
INFOClearTrap</title>
<g id="a_${uniqueid}_node3"><a xlink:href="#353175776844433" xlink:title="com.watch4net.alerting.action.SNMPTrapAction">
<ellipse fill="#4daf4a" stroke="black" cx="1169.42" cy="-550.87" rx="108.375" ry="26.7407"/>
<text text-anchor="middle" x="1169.42" y="-554.67" font-family="Times,serif" font-size="14.00" fill="white">NodeObjectCount_</text>
<text text-anchor="middle" x="1169.42" y="-539.67" font-family="Times,serif" font-size="14.00" fill="white">INFOClearTrap</text>
</a>
</g>
</g>
<!-- NodeObjectCount_
INFOTrap -->
<g id="${uniqueid}_node4" class="node"><title>NodeObjectCount_
INFOTrap</title>
<g id="a_${uniqueid}_node4"><a xlink:href="#353175776823242" xlink:title="com.watch4net.alerting.action.SNMPTrapAction">
<ellipse fill="#4daf4a" stroke="black" cx="1169.42" cy="-478.87" rx="108.375" ry="26.7407"/>
<text text-anchor="middle" x="1169.42" y="-482.67" font-family="Times,serif" font-size="14.00" fill="white">NodeObjectCount_</text>
<text text-anchor="middle" x="1169.42" y="-467.67" font-family="Times,serif" font-size="14.00" fill="white">INFOTrap</text>
</a>
</g>
</g>
<!-- NodeObjectCount_
MajorClearTrap -->
<g id="${uniqueid}_node5" class="node"><title>NodeObjectCount_
MajorClearTrap</title>
<g id="a_${uniqueid}_node5"><a xlink:href="#353175776995910" xlink:title="com.watch4net.alerting.action.SNMPTrapAction">
<ellipse fill="#4daf4a" stroke="black" cx="1169.42" cy="-98.8701" rx="108.375" ry="26.7407"/>
<text text-anchor="middle" x="1169.42" y="-102.67" font-family="Times,serif" font-size="14.00" fill="white">NodeObjectCount_</text>
<text text-anchor="middle" x="1169.42" y="-87.6701" font-family="Times,serif" font-size="14.00" fill="white">MajorClearTrap</text>
</a>
</g>
</g>
<!-- NodeObjectCount_
MajorTrap -->
<g id="${uniqueid}_node6" class="node"><title>NodeObjectCount_
MajorTrap</title>
<g id="a_${uniqueid}_node6"><a xlink:href="#353175776981653" xlink:title="com.watch4net.alerting.action.SNMPTrapAction">
<ellipse fill="#4daf4a" stroke="black" cx="1169.42" cy="-26.8701" rx="108.375" ry="26.7407"/>
<text text-anchor="middle" x="1169.42" y="-30.6701" font-family="Times,serif" font-size="14.00" fill="white">NodeObjectCount_</text>
<text text-anchor="middle" x="1169.42" y="-15.6701" font-family="Times,serif" font-size="14.00" fill="white">MajorTrap</text>
</a>
</g>
</g>
<!-- NodeObjectCount_
MinorClearTrap -->
<g id="${uniqueid}_node7" class="node"><title>NodeObjectCount_
MinorClearTrap</title>
<g id="a_${uniqueid}_node7"><a xlink:href="#353175776916128" xlink:title="com.watch4net.alerting.action.SNMPTrapAction">
<ellipse fill="#4daf4a" stroke="black" cx="1169.42" cy="-406.87" rx="108.375" ry="26.7407"/>
<text text-anchor="middle" x="1169.42" y="-410.67" font-family="Times,serif" font-size="14.00" fill="white">NodeObjectCount_</text>
<text text-anchor="middle" x="1169.42" y="-395.67" font-family="Times,serif" font-size="14.00" fill="white">MinorClearTrap</text>
</a>
</g>
</g>
<!-- NodeObjectCount_
MinorTrap -->
<g id="${uniqueid}_node8" class="node"><title>NodeObjectCount_
MinorTrap</title>
<g id="a_${uniqueid}_node8"><a xlink:href="#353175776901619" xlink:title="com.watch4net.alerting.action.SNMPTrapAction">
<ellipse fill="#4daf4a" stroke="black" cx="1169.42" cy="-334.87" rx="108.375" ry="26.7407"/>
<text text-anchor="middle" x="1169.42" y="-338.67" font-family="Times,serif" font-size="14.00" fill="white">NodeObjectCount_</text>
<text text-anchor="middle" x="1169.42" y="-323.67" font-family="Times,serif" font-size="14.00" fill="white">MinorTrap</text>
</a>
</g>
</g>
<!-- Percentage -->
<g id="${uniqueid}_node9" class="node"><title>Percentage</title>
<g id="a_${uniqueid}_node9"><a xlink:href="#353175776774282" xlink:title="com.watch4net.alerting.operation.arithmetic.ConstantArithmeticOperation">
<polygon fill="#377eb8" stroke="black" points="426.233,-311.87 328.233,-311.87 328.233,-275.87 426.233,-275.87 426.233,-311.87"/>
<text text-anchor="middle" x="377.233" y="-290.17" font-family="Times,serif" font-size="14.00" fill="white">Percentage</text>
</a>
</g>
</g>
<!-- Round -->
<g id="${uniqueid}_node11" class="node"><title>Round</title>
<g id="a_${uniqueid}_node11"><a xlink:href="#1441789928481" xlink:title="com.watch4net.alerting.operation.math.ConstantMathOperation">
<polygon fill="#377eb8" stroke="black" points="524.233,-311.87 462.233,-311.87 462.233,-275.87 524.233,-275.87 524.233,-311.87"/>
<text text-anchor="middle" x="493.233" y="-290.17" font-family="Times,serif" font-size="14.00" fill="white">Round</text>
</a>
</g>
</g>
<!-- Percentage&#45;&gt;Round -->
<g id="${uniqueid}_edge1" class="edge"><title>Percentage:e&#45;&gt;Round:w</title>
<path fill="none" stroke="black" d="M426.233,-293.87C438.233,-293.87 443.483,-293.87 452.108,-293.87"/>
<polygon fill="black" stroke="black" points="452.233,-297.37 462.233,-293.87 452.233,-290.37 452.233,-297.37"/>
</g>
<!-- Ratio -->
<g id="${uniqueid}_node10" class="node"><title>Ratio</title>
<g id="a_${uniqueid}_node10"><a xlink:href="#353175776753417" xlink:title="com.watch4net.alerting.operation.arithmetic.DataArithmeticOperation">
<polygon fill="#377eb8" stroke="black" points="292.233,-311.87 238.233,-311.87 238.233,-275.87 292.233,-275.87 292.233,-311.87"/>
<text text-anchor="middle" x="265.233" y="-290.17" font-family="Times,serif" font-size="14.00" fill="white">Ratio</text>
</a>
</g>
</g>
<!-- Ratio&#45;&gt;Percentage -->
<g id="${uniqueid}_edge2" class="edge"><title>Ratio:e&#45;&gt;Percentage:w</title>
<path fill="none" stroke="black" d="M292.233,-293.87C304.233,-293.87 309.483,-293.87 318.108,-293.87"/>
<polygon fill="black" stroke="black" points="318.233,-297.37 328.233,-293.87 318.233,-290.37 318.233,-297.37"/>
</g>
<!-- UsedObjectDetail
case -->
<g id="${uniqueid}_node17" class="node"><title>UsedObjectDetail
case</title>
<g id="a_${uniqueid}_node17"><a xlink:href="#353175776786849" xlink:title="com.watch4net.alerting.operation.CaseOperation">
<polygon fill="#377eb8" stroke="black" points="703.233,-312.87 560.233,-312.87 560.233,-274.87 703.233,-274.87 703.233,-312.87"/>
<text text-anchor="middle" x="631.733" y="-297.67" font-family="Times,serif" font-size="14.00" fill="white">UsedObjectDetail</text>
<text text-anchor="middle" x="631.733" y="-282.67" font-family="Times,serif" font-size="14.00" fill="white">case</text>
</a>
</g>
</g>
<!-- Round&#45;&gt;UsedObjectDetail
case -->
<g id="${uniqueid}_edge3" class="edge"><title>Round:e&#45;&gt;UsedObjectDetail
case:w</title>
<path fill="none" stroke="black" d="M524.233,-293.87C536.233,-293.87 541.483,-293.87 550.108,-293.87"/>
<polygon fill="black" stroke="black" points="550.233,-297.37 560.233,-293.87 550.233,-290.37 550.233,-297.37"/>
</g>
<!-- TotalObject
Detail entry -->
<g id="${uniqueid}_node12" class="node"><title>TotalObject
Detail entry</title>
<g id="a_${uniqueid}_node12"><a xlink:href="#353175777051753" xlink:title="com.watch4net.alerting.operation.FilteredEntryPoint">
<ellipse fill="#984ea3" stroke="black" cx="101.116" cy="-329.87" rx="72.25" ry="26.7407"/>
<text text-anchor="middle" x="101.116" y="-333.67" font-family="Times,serif" font-size="14.00" fill="white">TotalObject</text>
<text text-anchor="middle" x="101.116" y="-318.67" font-family="Times,serif" font-size="14.00" fill="white">Detail entry</text>
</a>
</g>
</g>
<!-- TotalObject
Detail entry&#45;&gt;Ratio -->
<g id="${uniqueid}_edge4" class="edge"><title>TotalObject
Detail entry:e&#45;&gt;Ratio:w</title>
<path fill="none" stroke="black" d="M174.116,-329.87C202.967,-329.87 205.378,-301.813 228.032,-295.237"/>
<polygon fill="black" stroke="black" points="228.786,-298.668 238.233,-293.87 227.856,-291.73 228.786,-298.668"/>
</g>
<!-- UsedObjectCount
Info check -->
<g id="${uniqueid}_node13" class="node"><title>UsedObjectCount
Info check</title>
<g id="a_${uniqueid}_node13"><a xlink:href="#353175776810265" xlink:title="com.watch4net.alerting.operation.comparator.ConstantComparatorOperation">
<polygon fill="#ff7f00" stroke="black" points="882.233,-546.87 739.233,-508.87 882.233,-470.87 1025.23,-508.87 882.233,-546.87"/>
<text text-anchor="middle" x="882.233" y="-512.67" font-family="Times,serif" font-size="14.00" fill="white">UsedObjectCount</text>
<text text-anchor="middle" x="882.233" y="-497.67" font-family="Times,serif" font-size="14.00" fill="white">Info check</text>
</a>
</g>
</g>
<!-- UsedObjectCount
Info check&#45;&gt;NodeObjectCount_
INFOClearTrap -->
<g id="${uniqueid}_edge5" class="edge"><title>UsedObjectCount
Info check:ne&#45;&gt;NodeObjectCount_
INFOClearTrap:w</title>
<path fill="none" stroke="black" d="M911.233,-538.87C913.766,-541.404 909.578,-544.463 912.233,-546.87 958.715,-589.027 991.391,-554.906 1051.02,-551.19"/>
<polygon fill="black" stroke="black" points="1051.35,-554.681 1061.23,-550.87 1051.13,-547.684 1051.35,-554.681"/>
<text text-anchor="middle" x="894.233" y="-542.67" font-family="Times,serif" font-size="14.00">false</text>
</g>
<!-- UsedObjectCount
Info check&#45;&gt;NodeObjectCount_
INFOTrap -->
<g id="${uniqueid}_edge6" class="edge"><title>UsedObjectCount
Info check:se&#45;&gt;NodeObjectCount_
INFOTrap:w</title>
<path fill="none" stroke="black" d="M913.233,-478.87C957.292,-434.811 991.658,-474.223 1051.07,-478.502"/>
<polygon fill="black" stroke="black" points="1051.11,-482.006 1061.23,-478.87 1051.37,-475.011 1051.11,-482.006"/>
<text text-anchor="middle" x="897.733" y="-467.67" font-family="Times,serif" font-size="14.00">true</text>
</g>
<!-- UsedObjectCount
Minor check -->
<g id="${uniqueid}_node14" class="node"><title>UsedObjectCount
Minor check</title>
<g id="a_${uniqueid}_node14"><a xlink:href="#353175776887342" xlink:title="com.watch4net.alerting.operation.comparator.ConstantComparatorOperation">
<polygon fill="#ff7f00" stroke="black" points="882.233,-402.87 739.233,-364.87 882.233,-326.87 1025.23,-364.87 882.233,-402.87"/>
<text text-anchor="middle" x="882.233" y="-368.67" font-family="Times,serif" font-size="14.00" fill="white">UsedObjectCount</text>
<text text-anchor="middle" x="882.233" y="-353.67" font-family="Times,serif" font-size="14.00" fill="white">Minor check</text>
</a>
</g>
</g>
<!-- UsedObjectCount
Minor check&#45;&gt;NodeObjectCount_
MinorClearTrap -->
<g id="${uniqueid}_edge7" class="edge"><title>UsedObjectCount
Minor check:ne&#45;&gt;NodeObjectCount_
MinorClearTrap:w</title>
<path fill="none" stroke="black" d="M911.233,-394.87C913.766,-397.404 909.578,-400.463 912.233,-402.87 958.715,-445.027 991.391,-410.906 1051.02,-407.19"/>
<polygon fill="black" stroke="black" points="1051.35,-410.681 1061.23,-406.87 1051.13,-403.684 1051.35,-410.681"/>
<text text-anchor="middle" x="894.233" y="-398.67" font-family="Times,serif" font-size="14.00">false</text>
</g>
<!-- UsedObjectCount
Minor check&#45;&gt;NodeObjectCount_
MinorTrap -->
<g id="${uniqueid}_edge8" class="edge"><title>UsedObjectCount
Minor check:se&#45;&gt;NodeObjectCount_
MinorTrap:w</title>
<path fill="none" stroke="black" d="M913.233,-334.87C957.292,-290.811 991.658,-330.223 1051.07,-334.502"/>
<polygon fill="black" stroke="black" points="1051.11,-338.006 1061.23,-334.87 1051.37,-331.011 1051.11,-338.006"/>
<text text-anchor="middle" x="897.733" y="-323.67" font-family="Times,serif" font-size="14.00">true</text>
</g>
<!-- UsedObjectCount
critical comp -->
<g id="${uniqueid}_node15" class="node"><title>UsedObjectCount
critical comp</title>
<g id="a_${uniqueid}_node15"><a xlink:href="#353175776928960" xlink:title="com.watch4net.alerting.operation.comparator.ConstantComparatorOperation">
<polygon fill="#ff7f00" stroke="black" points="882.233,-260.87 739.233,-222.87 882.233,-184.87 1025.23,-222.87 882.233,-260.87"/>
<text text-anchor="middle" x="882.233" y="-226.67" font-family="Times,serif" font-size="14.00" fill="white">UsedObjectCount</text>
<text text-anchor="middle" x="882.233" y="-211.67" font-family="Times,serif" font-size="14.00" fill="white">critical comp</text>
</a>
</g>
</g>
<!-- UsedObjectCount
critical comp&#45;&gt;NodeObjectCount_
CriticalClear
Trap -->
<g id="${uniqueid}_edge9" class="edge"><title>UsedObjectCount
critical comp:ne&#45;&gt;NodeObjectCount_
CriticalClear
Trap:w</title>
<path fill="none" stroke="black" d="M911.233,-252.87C913.766,-255.404 909.546,-258.499 912.233,-260.87 949.883,-294.107 975.31,-266.35 1025.23,-260.87 1037.58,-259.515 1042.47,-255.619 1051.25,-253.812"/>
<polygon fill="black" stroke="black" points="1051.61,-257.294 1061.23,-252.87 1050.95,-250.325 1051.61,-257.294"/>
<text text-anchor="middle" x="894.233" y="-256.67" font-family="Times,serif" font-size="14.00">false</text>
</g>
<!-- UsedObjectCount
critical comp&#45;&gt;NodeObjectCount_
CriticalTrap -->
<g id="${uniqueid}_edge10" class="edge"><title>UsedObjectCount
critical comp:se&#45;&gt;NodeObjectCount_
CriticalTrap:w</title>
<path fill="none" stroke="black" d="M913.233,-192.87C957.776,-148.327 991.061,-168.431 1050.97,-170.676"/>
<polygon fill="black" stroke="black" points="1051.17,-174.18 1061.23,-170.87 1051.3,-167.181 1051.17,-174.18"/>
<text text-anchor="middle" x="897.733" y="-181.67" font-family="Times,serif" font-size="14.00">true</text>
</g>
<!-- UsedObjectCount
major comp -->
<g id="${uniqueid}_node16" class="node"><title>UsedObjectCount
major comp</title>
<g id="a_${uniqueid}_node16"><a xlink:href="#353175776969917" xlink:title="com.watch4net.alerting.operation.comparator.ConstantComparatorOperation">
<polygon fill="#ff7f00" stroke="black" points="882.233,-106.87 739.233,-68.8701 882.233,-30.8701 1025.23,-68.8701 882.233,-106.87"/>
<text text-anchor="middle" x="882.233" y="-72.6701" font-family="Times,serif" font-size="14.00" fill="white">UsedObjectCount</text>
<text text-anchor="middle" x="882.233" y="-57.6701" font-family="Times,serif" font-size="14.00" fill="white">major comp</text>
</a>
</g>
</g>
<!-- UsedObjectCount
major comp&#45;&gt;NodeObjectCount_
MajorClearTrap -->
<g id="${uniqueid}_edge11" class="edge"><title>UsedObjectCount
major comp:ne&#45;&gt;NodeObjectCount_
MajorClearTrap:w</title>
<path fill="none" stroke="black" d="M911.233,-98.8701C913.766,-101.404 909.546,-104.499 912.233,-106.87 949.883,-140.107 975.31,-112.35 1025.23,-106.87 1037.58,-105.515 1042.47,-101.619 1051.25,-99.812"/>
<polygon fill="black" stroke="black" points="1051.61,-103.294 1061.23,-98.8701 1050.95,-96.3255 1051.61,-103.294"/>
<text text-anchor="middle" x="894.233" y="-102.67" font-family="Times,serif" font-size="14.00">false</text>
</g>
<!-- UsedObjectCount
major comp&#45;&gt;NodeObjectCount_
MajorTrap -->
<g id="${uniqueid}_edge12" class="edge"><title>UsedObjectCount
major comp:se&#45;&gt;NodeObjectCount_
MajorTrap:w</title>
<path fill="none" stroke="black" d="M913.233,-38.8701C957.436,5.33367 991.48,-23.4402 1051.04,-26.5979"/>
<polygon fill="black" stroke="black" points="1051.14,-30.1017 1061.23,-26.8701 1051.33,-23.1042 1051.14,-30.1017"/>
<text text-anchor="middle" x="897.733" y="-27.6701" font-family="Times,serif" font-size="14.00">true</text>
</g>
<!-- UsedObjectDetail
case&#45;&gt;UsedObjectCount
Info check -->
<g id="${uniqueid}_edge13" class="edge"><title>UsedObjectDetail
case:e&#45;&gt;UsedObjectCount
Info check:w</title>
<path fill="none" stroke="black" d="M703.233,-293.87C796.334,-293.87 654.284,-492.401 729.014,-507.911"/>
<polygon fill="black" stroke="black" points="728.949,-511.421 739.233,-508.87 729.603,-504.451 728.949,-511.421"/>
</g>
<!-- UsedObjectDetail
case&#45;&gt;UsedObjectCount
Minor check -->
<g id="${uniqueid}_edge14" class="edge"><title>UsedObjectDetail
case:e&#45;&gt;UsedObjectCount
Minor check:w</title>
<path fill="none" stroke="black" d="M703.233,-293.87C734.467,-293.87 711.036,-349.204 729.458,-362.173"/>
<polygon fill="black" stroke="black" points="728.662,-365.584 739.233,-364.87 730.524,-358.837 728.662,-365.584"/>
</g>
<!-- UsedObjectDetail
case&#45;&gt;UsedObjectCount
critical comp -->
<g id="${uniqueid}_edge15" class="edge"><title>UsedObjectDetail
case:e&#45;&gt;UsedObjectCount
critical comp:w</title>
<path fill="none" stroke="black" d="M703.233,-293.87C734.467,-293.87 711.036,-238.536 729.458,-225.567"/>
<polygon fill="black" stroke="black" points="730.524,-228.904 739.233,-222.87 728.662,-222.156 730.524,-228.904"/>
</g>
<!-- UsedObjectDetail
case&#45;&gt;UsedObjectCount
major comp -->
<g id="${uniqueid}_edge16" class="edge"><title>UsedObjectDetail
case:e&#45;&gt;UsedObjectCount
major comp:w</title>
<path fill="none" stroke="black" d="M703.233,-293.87C800.746,-293.87 649.952,-85.2594 729.037,-69.7766"/>
<polygon fill="black" stroke="black" points="729.582,-73.2421 739.233,-68.8701 728.962,-66.2696 729.582,-73.2421"/>
</g>
<!-- UsedObjectDetail
entry -->
<g id="${uniqueid}_node18" class="node"><title>UsedObjectDetail
entry</title>
<g id="a_${uniqueid}_node18"><a xlink:href="#353175776683611" xlink:title="com.watch4net.alerting.operation.FilteredEntryPoint">
<ellipse fill="#984ea3" stroke="black" cx="101.116" cy="-257.87" rx="101.233" ry="26.7407"/>
<text text-anchor="middle" x="101.116" y="-261.67" font-family="Times,serif" font-size="14.00" fill="white">UsedObjectDetail</text>
<text text-anchor="middle" x="101.116" y="-246.67" font-family="Times,serif" font-size="14.00" fill="white">entry</text>
</a>
</g>
</g>
<!-- UsedObjectDetail
entry&#45;&gt;Ratio -->
<g id="${uniqueid}_edge17" class="edge"><title>UsedObjectDetail
entry:e&#45;&gt;Ratio:w</title>
<path fill="none" stroke="black" d="M202.233,-257.87C220.617,-257.87 217.955,-281.636 228.447,-290.548"/>
<polygon fill="black" stroke="black" points="227.638,-293.969 238.233,-293.87 229.889,-287.341 227.638,-293.969"/>
</g>
</g>
</svg>
