<?xml version="1.0" encoding="UTF-8" standalone="no"?>
<!DOCTYPE svg PUBLIC "-//W3C//DTD SVG 1.1//EN"
 "http://www.w3.org/Graphics/SVG/1.1/DTD/svg11.dtd">
<!-- Generated by graphviz version 2.38.0 (20140413.2041)
 -->
<!-- Title: EMC VPLEX Alert Definitions/VPLEX&#45;Ports/Operational Status Pages: 1 -->
<svg width="698pt" height="424pt"
 viewBox="0.00 0.00 697.97 424.35" xmlns="http://www.w3.org/2000/svg" xmlns:xlink="http://www.w3.org/1999/xlink">
<g id="${uniqueid}" class="graph" transform="scale(1 1) rotate(0) translate(4 420.347)">
<title>EMC VPLEX Alert Definitions/VPLEX&#45;Ports/Operational Status</title>
<polygon fill="white" stroke="none" points="-4,4 -4,-420.347 693.971,-420.347 693.971,4 -4,4"/>
<!-- Alert Severity -->
<g id="${uniqueid}_node1" class="node"><title>Alert Severity</title>
<g id="a_${uniqueid}_node1"><a xlink:href="#487883100062200-80936061993861" xlink:title="com.watch4net.alerting.operation.CaseOperation">
<polygon fill="#377eb8" stroke="black" points="294.836,-240.477 178.836,-240.477 178.836,-204.477 294.836,-204.477 294.836,-240.477"/>
<text text-anchor="middle" x="236.836" y="-218.777" font-family="Times,serif" font-size="14.00" fill="white">Alert Severity</text>
</a>
</g>
</g>
<!-- critical -->
<g id="${uniqueid}_node6" class="node"><title>critical</title>
<g id="a_${uniqueid}_node6"><a xlink:href="#487883100076946-80936062080003" xlink:title="com.watch4net.alerting.operation.comparator.ConstantComparatorOperation">
<polygon fill="#ff7f00" stroke="black" points="399.772,-349.477 337.267,-331.477 399.772,-313.477 462.278,-331.477 399.772,-349.477"/>
<text text-anchor="middle" x="399.772" y="-327.777" font-family="Times,serif" font-size="14.00" fill="white">critical</text>
</a>
</g>
</g>
<!-- Alert Severity&#45;&gt;critical -->
<g id="${uniqueid}_edge1" class="edge"><title>Alert Severity:e&#45;&gt;critical:w</title>
<path fill="none" stroke="black" d="M294.836,-222.477C342.541,-222.477 293.101,-315.111 325.628,-329.585"/>
<polygon fill="black" stroke="black" points="325.3,-333.084 335.772,-331.477 326.584,-326.203 325.3,-333.084"/>
</g>
<!-- major -->
<g id="${uniqueid}_node8" class="node"><title>major</title>
<g id="a_${uniqueid}_node8"><a xlink:href="#487883100143546-80936062199795" xlink:title="com.watch4net.alerting.operation.comparator.ConstantComparatorOperation">
<polygon fill="#ff7f00" stroke="black" points="399.772,-240.477 346.649,-222.477 399.772,-204.477 452.895,-222.477 399.772,-240.477"/>
<text text-anchor="middle" x="399.772" y="-218.777" font-family="Times,serif" font-size="14.00" fill="white">major</text>
</a>
</g>
</g>
<!-- Alert Severity&#45;&gt;major -->
<g id="${uniqueid}_edge2" class="edge"><title>Alert Severity:e&#45;&gt;major:w</title>
<path fill="none" stroke="black" d="M294.836,-222.477C313.583,-222.477 320.687,-222.477 335.432,-222.477"/>
<polygon fill="black" stroke="black" points="335.772,-225.977 345.772,-222.477 335.772,-218.977 335.772,-225.977"/>
</g>
<!-- warning -->
<g id="${uniqueid}_node10" class="node"><title>warning</title>
<g id="a_${uniqueid}_node10"><a xlink:href="#487883100196770-80936062309081" xlink:title="com.watch4net.alerting.operation.comparator.ConstantComparatorOperation">
<polygon fill="#ff7f00" stroke="black" points="399.772,-123.477 330.899,-105.477 399.772,-87.4767 468.646,-105.477 399.772,-123.477"/>
<text text-anchor="middle" x="399.772" y="-101.777" font-family="Times,serif" font-size="14.00" fill="white">warning</text>
</a>
</g>
</g>
<!-- Alert Severity&#45;&gt;warning -->
<g id="${uniqueid}_edge3" class="edge"><title>Alert Severity:e&#45;&gt;warning:w</title>
<path fill="none" stroke="black" d="M294.836,-222.477C345.204,-222.477 286.537,-122.199 320.72,-107.314"/>
<polygon fill="black" stroke="black" points="321.622,-110.708 330.836,-105.477 320.371,-103.821 321.622,-110.708"/>
</g>
<!-- VPLEX&#45;
Availability&#45;
Filter -->
<g id="${uniqueid}_node2" class="node"><title>VPLEX&#45;
Availability&#45;
Filter</title>
<g id="a_${uniqueid}_node2"><a xlink:href="#487883100008977-80936057535840" xlink:title="com.watch4net.alerting.operation.FilteredEntryPoint">
<ellipse fill="#984ea3" stroke="black" cx="71.4178" cy="-222.477" rx="71.3357" ry="37.4533"/>
<text text-anchor="middle" x="71.4178" y="-233.777" font-family="Times,serif" font-size="14.00" fill="white">VPLEX&#45;</text>
<text text-anchor="middle" x="71.4178" y="-218.777" font-family="Times,serif" font-size="14.00" fill="white">Availability&#45;</text>
<text text-anchor="middle" x="71.4178" y="-203.777" font-family="Times,serif" font-size="14.00" fill="white">Filter</text>
</a>
</g>
</g>
<!-- VPLEX&#45;
Availability&#45;
Filter&#45;&gt;Alert Severity -->
<g id="${uniqueid}_edge4" class="edge"><title>VPLEX&#45;
Availability&#45;
Filter:e&#45;&gt;Alert Severity:w</title>
<path fill="none" stroke="black" d="M142.836,-222.477C154.836,-222.477 160.086,-222.477 168.711,-222.477"/>
<polygon fill="black" stroke="black" points="168.836,-225.977 178.836,-222.477 168.836,-218.977 168.836,-225.977"/>
</g>
<!-- availability&#45;
critical&#45;trap -->
<g id="${uniqueid}_node3" class="node"><title>availability&#45;
critical&#45;trap</title>
<g id="a_${uniqueid}_node3"><a xlink:href="#487883100127981-80936075070811" xlink:title="com.watch4net.alerting.action.SNMPTrapAction">
<ellipse fill="#4daf4a" stroke="black" cx="597.34" cy="-317.477" rx="72.25" ry="26.7407"/>
<text text-anchor="middle" x="597.34" y="-321.277" font-family="Times,serif" font-size="14.00" fill="white">availability&#45;</text>
<text text-anchor="middle" x="597.34" y="-306.277" font-family="Times,serif" font-size="14.00" fill="white">critical&#45;trap</text>
</a>
</g>
</g>
<!-- availability&#45;
major&#45;alert&#45;trap -->
<g id="${uniqueid}_node4" class="node"><title>availability&#45;
major&#45;alert&#45;trap</title>
<g id="a_${uniqueid}_node4"><a xlink:href="#487883100162313-80936075157412" xlink:title="com.watch4net.alerting.action.SNMPTrapAction">
<ellipse fill="#4daf4a" stroke="black" cx="597.34" cy="-191.477" rx="92.7622" ry="26.7407"/>
<text text-anchor="middle" x="597.34" y="-195.277" font-family="Times,serif" font-size="14.00" fill="white">availability&#45;</text>
<text text-anchor="middle" x="597.34" y="-180.277" font-family="Times,serif" font-size="14.00" fill="white">major&#45;alert&#45;trap</text>
</a>
</g>
</g>
<!-- availability&#45;
warning&#45;alert&#45;
trap -->
<g id="${uniqueid}_node5" class="node"><title>availability&#45;
warning&#45;alert&#45;
trap</title>
<g id="a_${uniqueid}_node5"><a xlink:href="#487883100215887-80936075289734" xlink:title="com.watch4net.alerting.action.SNMPTrapAction">
<ellipse fill="#4daf4a" stroke="black" cx="597.34" cy="-37.4767" rx="83.3772" ry="37.4533"/>
<text text-anchor="middle" x="597.34" y="-48.7767" font-family="Times,serif" font-size="14.00" fill="white">availability&#45;</text>
<text text-anchor="middle" x="597.34" y="-33.7767" font-family="Times,serif" font-size="14.00" fill="white">warning&#45;alert&#45;</text>
<text text-anchor="middle" x="597.34" y="-18.7767" font-family="Times,serif" font-size="14.00" fill="white">trap</text>
</a>
</g>
</g>
<!-- critical&#45;&gt;availability&#45;
critical&#45;trap -->
<g id="${uniqueid}_edge6" class="edge"><title>critical:se&#45;&gt;availability&#45;
critical&#45;trap:w</title>
<path fill="none" stroke="black" d="M414.772,-317.477C446.718,-285.531 471.781,-312.86 514.12,-316.976"/>
<polygon fill="black" stroke="black" points="514.181,-320.483 524.34,-317.477 514.523,-313.492 514.181,-320.483"/>
<text text-anchor="middle" x="399.272" y="-306.277" font-family="Times,serif" font-size="14.00">true</text>
</g>
<!-- critical&#45;clear&#45;
trap -->
<g id="${uniqueid}_node7" class="node"><title>critical&#45;clear&#45;
trap</title>
<g id="a_${uniqueid}_node7"><a xlink:href="#487883100103535-80936074829332" xlink:title="com.watch4net.alerting.action.SNMPTrapAction">
<ellipse fill="#4daf4a" stroke="black" cx="597.34" cy="-389.477" rx="79.8062" ry="26.7407"/>
<text text-anchor="middle" x="597.34" y="-393.277" font-family="Times,serif" font-size="14.00" fill="white">critical&#45;clear&#45;</text>
<text text-anchor="middle" x="597.34" y="-378.277" font-family="Times,serif" font-size="14.00" fill="white">trap</text>
</a>
</g>
</g>
<!-- critical&#45;&gt;critical&#45;clear&#45;
trap -->
<g id="${uniqueid}_edge5" class="edge"><title>critical:ne&#45;&gt;critical&#45;clear&#45;
trap:w</title>
<path fill="none" stroke="black" d="M412.772,-345.477C414.068,-346.772 412.561,-348.101 413.772,-349.477 443.771,-383.545 464.274,-388.828 506.151,-389.414"/>
<polygon fill="black" stroke="black" points="506.319,-392.915 516.34,-389.477 506.362,-385.915 506.319,-392.915"/>
<text text-anchor="middle" x="395.772" y="-349.277" font-family="Times,serif" font-size="14.00">false</text>
</g>
<!-- major&#45;&gt;availability&#45;
major&#45;alert&#45;trap -->
<g id="${uniqueid}_edge8" class="edge"><title>major:se&#45;&gt;availability&#45;
major&#45;alert&#45;trap:w</title>
<path fill="none" stroke="black" d="M414.772,-208.477C441.065,-182.184 460.446,-189.754 494.651,-191.249"/>
<polygon fill="black" stroke="black" points="494.633,-194.75 504.709,-191.477 494.791,-187.751 494.633,-194.75"/>
<text text-anchor="middle" x="399.272" y="-197.277" font-family="Times,serif" font-size="14.00">true</text>
</g>
<!-- major&#45;clear&#45;trap -->
<g id="${uniqueid}_node9" class="node"><title>major&#45;clear&#45;trap</title>
<g id="a_${uniqueid}_node9"><a xlink:href="#487883100180855-80936075217194" xlink:title="com.watch4net.alerting.action.SNMPTrapAction">
<ellipse fill="#4daf4a" stroke="black" cx="597.34" cy="-254.477" rx="86.3847" ry="18"/>
<text text-anchor="middle" x="597.34" y="-250.777" font-family="Times,serif" font-size="14.00" fill="white">major&#45;clear&#45;trap</text>
</a>
</g>
</g>
<!-- major&#45;&gt;major&#45;clear&#45;trap -->
<g id="${uniqueid}_edge7" class="edge"><title>major:ne&#45;&gt;major&#45;clear&#45;trap:w</title>
<path fill="none" stroke="black" d="M412.772,-236.477C414.068,-237.772 412.414,-239.247 413.772,-240.477 442.988,-266.921 462.923,-256.612 499.204,-254.743"/>
<polygon fill="black" stroke="black" points="499.436,-258.239 509.34,-254.477 499.252,-251.241 499.436,-258.239"/>
<text text-anchor="middle" x="395.772" y="-240.277" font-family="Times,serif" font-size="14.00">false</text>
</g>
<!-- warning&#45;&gt;availability&#45;
warning&#45;alert&#45;
trap -->
<g id="${uniqueid}_edge10" class="edge"><title>warning:se&#45;&gt;availability&#45;
warning&#45;alert&#45;
trap:w</title>
<path fill="none" stroke="black" d="M414.772,-91.4767C447.285,-58.9636 460.79,-40.3002 502.147,-37.7725"/>
<polygon fill="black" stroke="black" points="502.446,-41.2654 512.34,-37.4767 502.243,-34.2684 502.446,-41.2654"/>
<text text-anchor="middle" x="399.272" y="-80.2767" font-family="Times,serif" font-size="14.00">true</text>
</g>
<!-- warning&#45;clear&#45;
trap -->
<g id="${uniqueid}_node11" class="node"><title>warning&#45;clear&#45;
trap</title>
<g id="a_${uniqueid}_node11"><a xlink:href="#487883100235424-80936075350015" xlink:title="com.watch4net.alerting.action.SNMPTrapAction">
<ellipse fill="#4daf4a" stroke="black" cx="597.34" cy="-119.477" rx="84.7059" ry="26.7407"/>
<text text-anchor="middle" x="597.34" y="-123.277" font-family="Times,serif" font-size="14.00" fill="white">warning&#45;clear&#45;</text>
<text text-anchor="middle" x="597.34" y="-108.277" font-family="Times,serif" font-size="14.00" fill="white">trap</text>
</a>
</g>
</g>
<!-- warning&#45;&gt;warning&#45;clear&#45;
trap -->
<g id="${uniqueid}_edge9" class="edge"><title>warning:ne&#45;&gt;warning&#45;clear&#45;
trap:w</title>
<path fill="none" stroke="black" d="M412.772,-119.477C414.068,-120.772 412.328,-122.349 413.772,-123.477 433.017,-138.503 444.32,-124.618 468.709,-123.477 483.857,-122.768 489.85,-120.649 501.289,-119.817"/>
<polygon fill="black" stroke="black" points="501.464,-123.313 511.34,-119.477 501.227,-116.317 501.464,-123.313"/>
<text text-anchor="middle" x="395.772" y="-123.277" font-family="Times,serif" font-size="14.00">false</text>
</g>
</g>
</svg>
