<?xml version="1.0" encoding="UTF-8" standalone="no"?>
<!DOCTYPE svg PUBLIC "-//W3C//DTD SVG 1.1//EN"
 "http://www.w3.org/Graphics/SVG/1.1/DTD/svg11.dtd">
<!-- Generated by graphviz version 2.38.0 (20140413.2041)
 -->
<!-- Title: EMC Data Domain Alert Definitions/System/Memory Utilization Pages: 1 -->
<svg width="894pt" height="159pt"
 viewBox="0.00 0.00 893.57 158.61" xmlns="http://www.w3.org/2000/svg" xmlns:xlink="http://www.w3.org/1999/xlink">
<g id="${uniqueid}" class="graph" transform="scale(1 1) rotate(0) translate(4 154.611)">
<title>EMC Data Domain Alert Definitions/System/Memory Utilization</title>
<polygon fill="white" stroke="none" points="-4,4 -4,-154.611 889.571,-154.611 889.571,4 -4,4"/>
<!-- Action Clear
Major -->
<g id="${uniqueid}_node1" class="node"><title>Action Clear
Major</title>
<g id="a_${uniqueid}_node1"><a xlink:href="#79148821604692" xlink:title="com.watch4net.alerting.action.SNMPTrapAction">
<ellipse fill="#4daf4a" stroke="black" cx="795.229" cy="-114" rx="75.8212" ry="26.7407"/>
<text text-anchor="middle" x="795.229" y="-117.8" font-family="Times,serif" font-size="14.00" fill="white">Action Clear</text>
<text text-anchor="middle" x="795.229" y="-102.8" font-family="Times,serif" font-size="14.00" fill="white">Major</text>
</a>
</g>
</g>
<!-- Action SETMajor -->
<g id="${uniqueid}_node2" class="node"><title>Action SETMajor</title>
<g id="a_${uniqueid}_node2"><a xlink:href="#79148821591356" xlink:title="com.watch4net.alerting.action.SNMPTrapAction">
<ellipse fill="#4daf4a" stroke="black" cx="795.229" cy="-22" rx="90.1842" ry="18"/>
<text text-anchor="middle" x="795.229" y="-18.3" font-family="Times,serif" font-size="14.00" fill="white">Action SETMajor</text>
</a>
</g>
</g>
<!-- Memory
Utilization
Critical
Threshold check -->
<g id="${uniqueid}_node3" class="node"><title>Memory
Utilization
Critical
Threshold check</title>
<g id="a_${uniqueid}_node3"><a xlink:href="#79148821582423" xlink:title="com.watch4net.alerting.operation.comparator.ConstantComparatorOperation">
<polygon fill="#ff7f00" stroke="black" points="533.887,-136 398.887,-68 533.887,-1.42109e-14 668.887,-68 533.887,-136"/>
<text text-anchor="middle" x="533.887" y="-86.8" font-family="Times,serif" font-size="14.00" fill="white">Memory</text>
<text text-anchor="middle" x="533.887" y="-71.8" font-family="Times,serif" font-size="14.00" fill="white">Utilization</text>
<text text-anchor="middle" x="533.887" y="-56.8" font-family="Times,serif" font-size="14.00" fill="white">Critical</text>
<text text-anchor="middle" x="533.887" y="-41.8" font-family="Times,serif" font-size="14.00" fill="white">Threshold check</text>
</a>
</g>
</g>
<!-- Memory
Utilization
Critical
Threshold check&#45;&gt;Action Clear
Major -->
<g id="${uniqueid}_edge1" class="edge"><title>Memory
Utilization
Critical
Threshold check:ne&#45;&gt;Action Clear
Major:w</title>
<path fill="none" stroke="black" d="M578.887,-114C580.617,-115.73 578.118,-134.309 579.887,-136 608.485,-163.328 630.198,-144.234 668.887,-136 688.519,-131.822 693.03,-119.256 708.007,-115.245"/>
<polygon fill="black" stroke="black" points="708.725,-118.683 718.229,-114 707.879,-111.735 708.725,-118.683"/>
<text text-anchor="middle" x="561.887" y="-102.8" font-family="Times,serif" font-size="14.00">false</text>
</g>
<!-- Memory
Utilization
Critical
Threshold check&#45;&gt;Action SETMajor -->
<g id="${uniqueid}_edge2" class="edge"><title>Memory
Utilization
Critical
Threshold check:se&#45;&gt;Action SETMajor:w</title>
<path fill="none" stroke="black" d="M580.887,-22C617.421,14.5339 646.001,-17.4333 694.84,-21.5719"/>
<polygon fill="black" stroke="black" points="694.747,-25.071 704.887,-22 695.045,-18.0773 694.747,-25.071"/>
<text text-anchor="middle" x="596.387" y="-14.55" font-family="Times,serif" font-size="14.00">true</text>
</g>
<!-- Percent -->
<g id="${uniqueid}_node4" class="node"><title>Percent</title>
<g id="a_${uniqueid}_node4"><a xlink:href="#79148821568765" xlink:title="com.watch4net.alerting.operation.arithmetic.ConstantArithmeticOperation">
<polygon fill="#377eb8" stroke="black" points="362.887,-86 290.887,-86 290.887,-50 362.887,-50 362.887,-86"/>
<text text-anchor="middle" x="326.887" y="-64.3" font-family="Times,serif" font-size="14.00" fill="white">Percent</text>
</a>
</g>
</g>
<!-- Percent&#45;&gt;Memory
Utilization
Critical
Threshold check -->
<g id="${uniqueid}_edge3" class="edge"><title>Percent:e&#45;&gt;Memory
Utilization
Critical
Threshold check:w</title>
<path fill="none" stroke="black" d="M362.887,-68C374.887,-68 380.137,-68 388.762,-68"/>
<polygon fill="black" stroke="black" points="388.887,-71.5001 398.887,-68 388.887,-64.5001 388.887,-71.5001"/>
</g>
<!-- TotalMemory -->
<g id="${uniqueid}_node5" class="node"><title>TotalMemory</title>
<g id="a_${uniqueid}_node5"><a xlink:href="#79148821619071" xlink:title="com.watch4net.alerting.operation.FilteredEntryPoint">
<ellipse fill="#984ea3" stroke="black" cx="73.4435" cy="-95" rx="72.5877" ry="18"/>
<text text-anchor="middle" x="73.4435" y="-91.3" font-family="Times,serif" font-size="14.00" fill="white">TotalMemory</text>
</a>
</g>
</g>
<!-- division -->
<g id="${uniqueid}_node7" class="node"><title>division</title>
<g id="a_${uniqueid}_node7"><a xlink:href="#79148821470658" xlink:title="com.watch4net.alerting.operation.arithmetic.DataArithmeticOperation">
<polygon fill="#377eb8" stroke="black" points="254.887,-86 182.887,-86 182.887,-50 254.887,-50 254.887,-86"/>
<text text-anchor="middle" x="218.887" y="-64.3" font-family="Times,serif" font-size="14.00" fill="white">division</text>
</a>
</g>
</g>
<!-- TotalMemory&#45;&gt;division -->
<g id="${uniqueid}_edge4" class="edge"><title>TotalMemory:e&#45;&gt;division:w</title>
<path fill="none" stroke="black" d="M146.887,-95C162.824,-95 163.522,-77.8547 173.268,-70.8895"/>
<polygon fill="black" stroke="black" points="174.317,-74.229 182.887,-68 172.303,-67.5249 174.317,-74.229"/>
</g>
<!-- UsedMemory -->
<g id="${uniqueid}_node6" class="node"><title>UsedMemory</title>
<g id="a_${uniqueid}_node6"><a xlink:href="#79148821428028" xlink:title="com.watch4net.alerting.operation.FilteredEntryPoint">
<ellipse fill="#984ea3" stroke="black" cx="73.4435" cy="-41" rx="73.387" ry="18"/>
<text text-anchor="middle" x="73.4435" y="-37.3" font-family="Times,serif" font-size="14.00" fill="white">UsedMemory</text>
</a>
</g>
</g>
<!-- UsedMemory&#45;&gt;division -->
<g id="${uniqueid}_edge5" class="edge"><title>UsedMemory:e&#45;&gt;division:w</title>
<path fill="none" stroke="black" d="M146.887,-41C162.824,-41 163.522,-58.1453 173.268,-65.1105"/>
<polygon fill="black" stroke="black" points="172.303,-68.4751 182.887,-68 174.317,-61.771 172.303,-68.4751"/>
</g>
<!-- division&#45;&gt;Percent -->
<g id="${uniqueid}_edge6" class="edge"><title>division:e&#45;&gt;Percent:w</title>
<path fill="none" stroke="black" d="M254.887,-68C266.887,-68 272.137,-68 280.762,-68"/>
<polygon fill="black" stroke="black" points="280.887,-71.5001 290.887,-68 280.887,-64.5001 280.887,-71.5001"/>
</g>
</g>
</svg>
