<?xml version="1.0" encoding="UTF-8" standalone="no"?>
<!DOCTYPE svg PUBLIC "-//W3C//DTD SVG 1.1//EN"
 "http://www.w3.org/Graphics/SVG/1.1/DTD/svg11.dtd">
<!-- Generated by graphviz version 2.38.0 (20140413.2041)
 -->
<!-- Title: VMware vCenter Alert Definitions/Virtual Machines/Filesystem Low Free Space Pages: 1 -->
<svg width="881pt" height="368pt"
 viewBox="0.00 0.00 881.03 367.87" xmlns="http://www.w3.org/2000/svg" xmlns:xlink="http://www.w3.org/1999/xlink">
<g id="${uniqueid}" class="graph" transform="scale(1 1) rotate(0) translate(4 363.87)">
<title>VMware vCenter Alert Definitions/Virtual Machines/Filesystem Low Free Space</title>
<polygon fill="white" stroke="none" points="-4,4 -4,-363.87 877.035,-363.87 877.035,4 -4,4"/>
<!-- 200MB Threshold -->
<g id="${uniqueid}_node1" class="node"><title>200MB Threshold</title>
<g id="a_${uniqueid}_node1"><a xlink:href="#780499707625857" xlink:title="com.watch4net.alerting.operation.comparator.ConstantComparatorOperation">
<polygon fill="#ff7f00" stroke="black" points="505.767,-312.87 372.711,-294.87 505.767,-276.87 638.823,-294.87 505.767,-312.87"/>
<text text-anchor="middle" x="505.767" y="-291.17" font-family="Times,serif" font-size="14.00" fill="white">200MB Threshold</text>
</a>
</g>
</g>
<!-- Clear Minor -->
<g id="${uniqueid}_node7" class="node"><title>Clear Minor</title>
<g id="a_${uniqueid}_node7"><a xlink:href="#780499707654360" xlink:title="com.watch4net.alerting.action.SNMPTrapAction">
<ellipse fill="#4daf4a" stroke="black" cx="774.04" cy="-341.87" rx="67.6881" ry="18"/>
<text text-anchor="middle" x="774.04" y="-338.17" font-family="Times,serif" font-size="14.00" fill="white">Clear Minor</text>
</a>
</g>
</g>
<!-- 200MB Threshold&#45;&gt;Clear Minor -->
<g id="${uniqueid}_edge1" class="edge"><title>200MB Threshold:ne&#45;&gt;Clear Minor:w</title>
<path fill="none" stroke="black" d="M520.767,-310.87C521.47,-311.573 520.965,-312.283 521.767,-312.87 585.445,-359.498 619.567,-343.439 694.67,-341.972"/>
<polygon fill="black" stroke="black" points="695.075,-345.469 705.04,-341.87 695.006,-338.469 695.075,-345.469"/>
<text text-anchor="middle" x="503.767" y="-314.67" font-family="Times,serif" font-size="14.00">false</text>
</g>
<!-- Minor FreeSpace
Trap -->
<g id="${uniqueid}_node12" class="node"><title>Minor FreeSpace
Trap</title>
<g id="a_${uniqueid}_node12"><a xlink:href="#780499707669396" xlink:title="com.watch4net.alerting.action.SNMPTrapAction">
<ellipse fill="#4daf4a" stroke="black" cx="774.04" cy="-278.87" rx="98.9899" ry="26.7407"/>
<text text-anchor="middle" x="774.04" y="-282.67" font-family="Times,serif" font-size="14.00" fill="white">Minor FreeSpace</text>
<text text-anchor="middle" x="774.04" y="-267.67" font-family="Times,serif" font-size="14.00" fill="white">Trap</text>
</a>
</g>
</g>
<!-- 200MB Threshold&#45;&gt;Minor FreeSpace
Trap -->
<g id="${uniqueid}_edge2" class="edge"><title>200MB Threshold:se&#45;&gt;Minor FreeSpace
Trap:w</title>
<path fill="none" stroke="black" d="M522.767,-278.87C568.193,-233.444 603.605,-274.256 664.968,-278.519"/>
<polygon fill="black" stroke="black" points="664.929,-282.019 675.045,-278.87 665.173,-275.024 664.929,-282.019"/>
<text text-anchor="middle" x="507.267" y="-267.67" font-family="Times,serif" font-size="14.00">true</text>
</g>
<!-- 25MB Threshold -->
<g id="${uniqueid}_node2" class="node"><title>25MB Threshold</title>
<g id="a_${uniqueid}_node2"><a xlink:href="#780499707505178" xlink:title="com.watch4net.alerting.operation.comparator.ConstantComparatorOperation">
<polygon fill="#ff7f00" stroke="black" points="505.767,-201.87 380.756,-183.87 505.767,-165.87 630.778,-183.87 505.767,-201.87"/>
<text text-anchor="middle" x="505.767" y="-180.17" font-family="Times,serif" font-size="14.00" fill="white">25MB Threshold</text>
</a>
</g>
</g>
<!-- Clear Critical -->
<g id="${uniqueid}_node5" class="node"><title>Clear Critical</title>
<g id="a_${uniqueid}_node5"><a xlink:href="#780499707572115" xlink:title="com.watch4net.alerting.action.SNMPTrapAction">
<ellipse fill="#4daf4a" stroke="black" cx="774.04" cy="-215.87" rx="74.187" ry="18"/>
<text text-anchor="middle" x="774.04" y="-212.17" font-family="Times,serif" font-size="14.00" fill="white">Clear Critical</text>
</a>
</g>
</g>
<!-- 25MB Threshold&#45;&gt;Clear Critical -->
<g id="${uniqueid}_edge3" class="edge"><title>25MB Threshold:ne&#45;&gt;Clear Critical:w</title>
<path fill="none" stroke="black" d="M520.767,-199.87C521.47,-200.573 520.943,-201.315 521.767,-201.87 584.363,-244.053 617.002,-218.43 688.662,-216.043"/>
<polygon fill="black" stroke="black" points="689.099,-219.536 699.04,-215.87 688.983,-212.537 689.099,-219.536"/>
<text text-anchor="middle" x="503.767" y="-203.67" font-family="Times,serif" font-size="14.00">false</text>
</g>
<!-- Critical Free
Space Trap -->
<g id="${uniqueid}_node8" class="node"><title>Critical Free
Space Trap</title>
<g id="a_${uniqueid}_node8"><a xlink:href="#780499707516185" xlink:title="com.watch4net.alerting.action.SNMPTrapAction">
<ellipse fill="#4daf4a" stroke="black" cx="774.04" cy="-152.87" rx="76.2353" ry="26.7407"/>
<text text-anchor="middle" x="774.04" y="-156.67" font-family="Times,serif" font-size="14.00" fill="white">Critical Free</text>
<text text-anchor="middle" x="774.04" y="-141.67" font-family="Times,serif" font-size="14.00" fill="white">Space Trap</text>
</a>
</g>
</g>
<!-- 25MB Threshold&#45;&gt;Critical Free
Space Trap -->
<g id="${uniqueid}_edge4" class="edge"><title>25MB Threshold:se&#45;&gt;Critical Free
Space Trap:w</title>
<path fill="none" stroke="black" d="M522.767,-167.87C574.97,-115.667 615.003,-149.497 685.836,-152.642"/>
<polygon fill="black" stroke="black" points="685.964,-156.146 696.04,-152.87 686.12,-149.148 685.964,-156.146"/>
<text text-anchor="middle" x="507.267" y="-156.67" font-family="Times,serif" font-size="14.00">true</text>
</g>
<!-- 50MB Threshold -->
<g id="${uniqueid}_node3" class="node"><title>50MB Threshold</title>
<g id="a_${uniqueid}_node3"><a xlink:href="#780499707584583" xlink:title="com.watch4net.alerting.operation.comparator.ConstantComparatorOperation">
<polygon fill="#ff7f00" stroke="black" points="505.767,-91.8701 380.756,-73.8701 505.767,-55.8701 630.778,-73.8701 505.767,-91.8701"/>
<text text-anchor="middle" x="505.767" y="-70.1701" font-family="Times,serif" font-size="14.00" fill="white">50MB Threshold</text>
</a>
</g>
</g>
<!-- Clear Major -->
<g id="${uniqueid}_node6" class="node"><title>Clear Major</title>
<g id="a_${uniqueid}_node6"><a xlink:href="#780499707604072" xlink:title="com.watch4net.alerting.action.SNMPTrapAction">
<ellipse fill="#4daf4a" stroke="black" cx="774.04" cy="-89.8701" rx="66.8882" ry="18"/>
<text text-anchor="middle" x="774.04" y="-86.1701" font-family="Times,serif" font-size="14.00" fill="white">Clear Major</text>
</a>
</g>
</g>
<!-- 50MB Threshold&#45;&gt;Clear Major -->
<g id="${uniqueid}_edge5" class="edge"><title>50MB Threshold:ne&#45;&gt;Clear Major:w</title>
<path fill="none" stroke="black" d="M520.767,-89.8701C521.47,-90.5728 520.921,-91.3476 521.767,-91.8701 562.978,-117.34 582.33,-92.5136 630.772,-91.8701 660.573,-91.4742 670.45,-90.197 695.895,-89.9224"/>
<polygon fill="black" stroke="black" points="696.058,-93.4217 706.04,-89.8701 696.022,-86.4218 696.058,-93.4217"/>
<text text-anchor="middle" x="503.767" y="-93.6701" font-family="Times,serif" font-size="14.00">false</text>
</g>
<!-- Major FreeSpace
Trap -->
<g id="${uniqueid}_node11" class="node"><title>Major FreeSpace
Trap</title>
<g id="a_${uniqueid}_node11"><a xlink:href="#780499707594216" xlink:title="com.watch4net.alerting.action.SNMPTrapAction">
<ellipse fill="#4daf4a" stroke="black" cx="774.04" cy="-26.8701" rx="98.9899" ry="26.7407"/>
<text text-anchor="middle" x="774.04" y="-30.6701" font-family="Times,serif" font-size="14.00" fill="white">Major FreeSpace</text>
<text text-anchor="middle" x="774.04" y="-15.6701" font-family="Times,serif" font-size="14.00" fill="white">Trap</text>
</a>
</g>
</g>
<!-- 50MB Threshold&#45;&gt;Major FreeSpace
Trap -->
<g id="${uniqueid}_edge6" class="edge"><title>50MB Threshold:se&#45;&gt;Major FreeSpace
Trap:w</title>
<path fill="none" stroke="black" d="M522.767,-57.8701C569.125,-11.5122 602.449,-25.2303 664.785,-26.7431"/>
<polygon fill="black" stroke="black" points="665.002,-30.246 675.045,-26.8701 665.089,-23.2465 665.002,-30.246"/>
<text text-anchor="middle" x="507.267" y="-46.6701" font-family="Times,serif" font-size="14.00">true</text>
</g>
<!-- Case -->
<g id="${uniqueid}_node4" class="node"><title>Case</title>
<g id="a_${uniqueid}_node4"><a xlink:href="#780499707497660" xlink:title="com.watch4net.alerting.operation.CaseOperation">
<polygon fill="#377eb8" stroke="black" points="336.489,-201.87 282.489,-201.87 282.489,-165.87 336.489,-165.87 336.489,-201.87"/>
<text text-anchor="middle" x="309.489" y="-180.17" font-family="Times,serif" font-size="14.00" fill="white">Case</text>
</a>
</g>
</g>
<!-- Case&#45;&gt;200MB Threshold -->
<g id="${uniqueid}_edge7" class="edge"><title>Case:e&#45;&gt;200MB Threshold:w</title>
<path fill="none" stroke="black" d="M336.489,-183.87C384.3,-183.87 330.478,-278.204 362.409,-292.943"/>
<polygon fill="black" stroke="black" points="362.01,-296.43 372.489,-294.87 363.324,-289.555 362.01,-296.43"/>
</g>
<!-- Case&#45;&gt;25MB Threshold -->
<g id="${uniqueid}_edge8" class="edge"><title>Case:e&#45;&gt;25MB Threshold:w</title>
<path fill="none" stroke="black" d="M336.489,-183.87C351.817,-183.87 357.984,-183.87 369.59,-183.87"/>
<polygon fill="black" stroke="black" points="369.767,-187.37 379.767,-183.87 369.767,-180.37 369.767,-187.37"/>
</g>
<!-- Case&#45;&gt;50MB Threshold -->
<g id="${uniqueid}_edge9" class="edge"><title>Case:e&#45;&gt;50MB Threshold:w</title>
<path fill="none" stroke="black" d="M336.489,-183.87C385.126,-183.87 335.773,-89.5923 369.865,-75.5979"/>
<polygon fill="black" stroke="black" points="370.517,-79.0371 379.767,-73.8701 369.314,-72.1413 370.517,-79.0371"/>
</g>
<!-- Filesystem -->
<g id="${uniqueid}_node9" class="node"><title>Filesystem</title>
<g id="a_${uniqueid}_node9"><a xlink:href="#780499707187387" xlink:title="com.watch4net.alerting.operation.FilteredEntryPoint">
<ellipse fill="#984ea3" stroke="black" cx="61.7445" cy="-183.87" rx="61.99" ry="18"/>
<text text-anchor="middle" x="61.7445" y="-180.17" font-family="Times,serif" font-size="14.00" fill="white">Filesystem</text>
</a>
</g>
</g>
<!-- GB to MB -->
<g id="${uniqueid}_node10" class="node"><title>GB to MB</title>
<g id="a_${uniqueid}_node10"><a xlink:href="#780499707440018" xlink:title="com.watch4net.alerting.operation.arithmetic.ConstantArithmeticOperation">
<polygon fill="#377eb8" stroke="black" points="246.489,-201.87 159.489,-201.87 159.489,-165.87 246.489,-165.87 246.489,-201.87"/>
<text text-anchor="middle" x="202.989" y="-180.17" font-family="Times,serif" font-size="14.00" fill="white">GB to MB</text>
</a>
</g>
</g>
<!-- Filesystem&#45;&gt;GB to MB -->
<g id="${uniqueid}_edge10" class="edge"><title>Filesystem:e&#45;&gt;GB to MB:w</title>
<path fill="none" stroke="black" d="M123.489,-183.87C135.489,-183.87 140.739,-183.87 149.364,-183.87"/>
<polygon fill="black" stroke="black" points="149.489,-187.37 159.489,-183.87 149.489,-180.37 149.489,-187.37"/>
</g>
<!-- GB to MB&#45;&gt;Case -->
<g id="${uniqueid}_edge11" class="edge"><title>GB to MB:e&#45;&gt;Case:w</title>
<path fill="none" stroke="black" d="M246.489,-183.87C258.489,-183.87 263.739,-183.87 272.364,-183.87"/>
<polygon fill="black" stroke="black" points="272.489,-187.37 282.489,-183.87 272.489,-180.37 272.489,-187.37"/>
</g>
</g>
</svg>
