<?xml version="1.0" encoding="UTF-8" standalone="no"?>
<!DOCTYPE svg PUBLIC "-//W3C//DTD SVG 1.1//EN"
 "http://www.w3.org/Graphics/SVG/1.1/DTD/svg11.dtd">
<!-- Generated by graphviz version 2.38.0 (20140413.2041)
 -->
<!-- Title: EMC Centera Alert Definitions/Centera&#45;StoragePool/Utilization Pages: 1 -->
<svg width="1165pt" height="586pt"
 viewBox="0.00 0.00 1164.72 585.74" xmlns="http://www.w3.org/2000/svg" xmlns:xlink="http://www.w3.org/1999/xlink">
<g id="${uniqueid}" class="graph" transform="scale(1 1) rotate(0) translate(4 581.74)">
<title>EMC Centera Alert Definitions/Centera&#45;StoragePool/Utilization</title>
<polygon fill="white" stroke="none" points="-4,4 -4,-581.74 1160.72,-581.74 1160.72,4 -4,4"/>
<!-- Capacity entry -->
<g id="${uniqueid}_node1" class="node"><title>Capacity entry</title>
<g id="a_${uniqueid}_node1"><a xlink:href="#fd79b67d-e1e7-4bf5-9515-9d80f0d02910" xlink:title="com.watch4net.alerting.operation.FilteredEntryPoint">
<ellipse fill="#984ea3" stroke="black" cx="82.0244" cy="-325.87" rx="79.8859" ry="18"/>
<text text-anchor="middle" x="82.0244" y="-322.17" font-family="Times,serif" font-size="14.00" fill="white">Capacity entry</text>
</a>
</g>
</g>
<!-- Ratio -->
<g id="${uniqueid}_node3" class="node"><title>Ratio</title>
<g id="a_${uniqueid}_node3"><a xlink:href="#1a28bd71-ac61-442d-b288-71115fc62850" xlink:title="com.watch4net.alerting.operation.arithmetic.DataArithmeticOperation">
<polygon fill="#377eb8" stroke="black" points="254.049,-311.87 200.049,-311.87 200.049,-275.87 254.049,-275.87 254.049,-311.87"/>
<text text-anchor="middle" x="227.049" y="-290.17" font-family="Times,serif" font-size="14.00" fill="white">Ratio</text>
</a>
</g>
</g>
<!-- Capacity entry&#45;&gt;Ratio -->
<g id="${uniqueid}_edge1" class="edge"><title>Capacity entry:e&#45;&gt;Ratio:w</title>
<path fill="none" stroke="black" d="M163.024,-325.87C180.696,-325.87 179.735,-304.745 190.419,-296.823"/>
<polygon fill="black" stroke="black" points="191.514,-300.148 200.049,-293.87 189.462,-293.456 191.514,-300.148"/>
</g>
<!-- Percentage -->
<g id="${uniqueid}_node2" class="node"><title>Percentage</title>
<g id="a_${uniqueid}_node2"><a xlink:href="#5f6d183c-738e-4b58-b732-8ba6de01fb88" xlink:title="com.watch4net.alerting.operation.arithmetic.ConstantArithmeticOperation">
<polygon fill="#377eb8" stroke="black" points="388.049,-311.87 290.049,-311.87 290.049,-275.87 388.049,-275.87 388.049,-311.87"/>
<text text-anchor="middle" x="339.049" y="-290.17" font-family="Times,serif" font-size="14.00" fill="white">Percentage</text>
</a>
</g>
</g>
<!-- Round -->
<g id="${uniqueid}_node4" class="node"><title>Round</title>
<g id="a_${uniqueid}_node4"><a xlink:href="#1441779275794" xlink:title="com.watch4net.alerting.operation.math.ConstantMathOperation">
<polygon fill="#377eb8" stroke="black" points="486.049,-311.87 424.049,-311.87 424.049,-275.87 486.049,-275.87 486.049,-311.87"/>
<text text-anchor="middle" x="455.049" y="-290.17" font-family="Times,serif" font-size="14.00" fill="white">Round</text>
</a>
</g>
</g>
<!-- Percentage&#45;&gt;Round -->
<g id="${uniqueid}_edge2" class="edge"><title>Percentage:e&#45;&gt;Round:w</title>
<path fill="none" stroke="black" d="M388.049,-293.87C400.049,-293.87 405.299,-293.87 413.924,-293.87"/>
<polygon fill="black" stroke="black" points="414.049,-297.37 424.049,-293.87 414.049,-290.37 414.049,-297.37"/>
</g>
<!-- Ratio&#45;&gt;Percentage -->
<g id="${uniqueid}_edge3" class="edge"><title>Ratio:e&#45;&gt;Percentage:w</title>
<path fill="none" stroke="black" d="M254.049,-293.87C266.049,-293.87 271.299,-293.87 279.924,-293.87"/>
<polygon fill="black" stroke="black" points="280.049,-297.37 290.049,-293.87 280.049,-290.37 280.049,-297.37"/>
</g>
<!-- Utilization case -->
<g id="${uniqueid}_node10" class="node"><title>Utilization case</title>
<g id="a_${uniqueid}_node10"><a xlink:href="#c37a071c-baa3-4481-b16b-44c8b01aaa8d" xlink:title="com.watch4net.alerting.operation.CaseOperation">
<polygon fill="#377eb8" stroke="black" points="650.049,-311.87 522.049,-311.87 522.049,-275.87 650.049,-275.87 650.049,-311.87"/>
<text text-anchor="middle" x="586.049" y="-290.17" font-family="Times,serif" font-size="14.00" fill="white">Utilization case</text>
</a>
</g>
</g>
<!-- Round&#45;&gt;Utilization case -->
<g id="${uniqueid}_edge4" class="edge"><title>Round:e&#45;&gt;Utilization case:w</title>
<path fill="none" stroke="black" d="M486.049,-293.87C498.049,-293.87 503.299,-293.87 511.924,-293.87"/>
<polygon fill="black" stroke="black" points="512.049,-297.37 522.049,-293.87 512.049,-290.37 512.049,-297.37"/>
</g>
<!-- UsedCapacity
entry -->
<g id="${uniqueid}_node5" class="node"><title>UsedCapacity
entry</title>
<g id="a_${uniqueid}_node5"><a xlink:href="#822c451c-b24b-40e3-b821-4a9648b6a8f7" xlink:title="com.watch4net.alerting.operation.FilteredEntryPoint">
<ellipse fill="#984ea3" stroke="black" cx="82.0244" cy="-262.87" rx="82.0488" ry="26.7407"/>
<text text-anchor="middle" x="82.0244" y="-266.67" font-family="Times,serif" font-size="14.00" fill="white">UsedCapacity</text>
<text text-anchor="middle" x="82.0244" y="-251.67" font-family="Times,serif" font-size="14.00" fill="white">entry</text>
</a>
</g>
</g>
<!-- UsedCapacity
entry&#45;&gt;Ratio -->
<g id="${uniqueid}_edge5" class="edge"><title>UsedCapacity
entry:e&#45;&gt;Ratio:w</title>
<path fill="none" stroke="black" d="M164.049,-262.87C181.039,-262.87 180.324,-282.943 190.399,-290.784"/>
<polygon fill="black" stroke="black" points="189.458,-294.158 200.049,-293.87 191.59,-287.491 189.458,-294.158"/>
</g>
<!-- Utilization
Major check -->
<g id="${uniqueid}_node6" class="node"><title>Utilization
Major check</title>
<g id="a_${uniqueid}_node6"><a xlink:href="#82a075de-c2f6-4172-97ec-1590bc13b052" xlink:title="com.watch4net.alerting.operation.comparator.ConstantComparatorOperation">
<polygon fill="#ff7f00" stroke="black" points="810.049,-544.87 703.049,-506.87 810.049,-468.87 917.049,-506.87 810.049,-544.87"/>
<text text-anchor="middle" x="810.049" y="-510.67" font-family="Times,serif" font-size="14.00" fill="white">Utilization</text>
<text text-anchor="middle" x="810.049" y="-495.67" font-family="Times,serif" font-size="14.00" fill="white">Major check</text>
</a>
</g>
</g>
<!-- Utilization_
MajorClearTrap -->
<g id="${uniqueid}_node15" class="node"><title>Utilization_
MajorClearTrap</title>
<g id="a_${uniqueid}_node15"><a xlink:href="#cfa0d2d7-11a9-4536-bfb1-42a86e9412d5" xlink:title="com.watch4net.alerting.action.SNMPTrapAction">
<ellipse fill="#4daf4a" stroke="black" cx="1063.39" cy="-550.87" rx="92.7622" ry="26.7407"/>
<text text-anchor="middle" x="1063.39" y="-554.67" font-family="Times,serif" font-size="14.00" fill="white">Utilization_</text>
<text text-anchor="middle" x="1063.39" y="-539.67" font-family="Times,serif" font-size="14.00" fill="white">MajorClearTrap</text>
</a>
</g>
</g>
<!-- Utilization
Major check&#45;&gt;Utilization_
MajorClearTrap -->
<g id="${uniqueid}_edge6" class="edge"><title>Utilization
Major check:ne&#45;&gt;Utilization_
MajorClearTrap:w</title>
<path fill="none" stroke="black" d="M837.049,-534.87C838.628,-536.449 836.427,-543.334 838.049,-544.87 878.188,-582.889 907.69,-554.643 960.007,-551.202"/>
<polygon fill="black" stroke="black" points="960.17,-554.699 970.049,-550.87 959.938,-547.703 960.17,-554.699"/>
<text text-anchor="middle" x="820.049" y="-538.67" font-family="Times,serif" font-size="14.00">false</text>
</g>
<!-- Utilization_
MajorTrap -->
<g id="${uniqueid}_node16" class="node"><title>Utilization_
MajorTrap</title>
<g id="a_${uniqueid}_node16"><a xlink:href="#c5b9332d-6d50-4986-ae17-e57ebe9be76c" xlink:title="com.watch4net.alerting.action.SNMPTrapAction">
<ellipse fill="#4daf4a" stroke="black" cx="1063.39" cy="-478.87" rx="69.0935" ry="26.7407"/>
<text text-anchor="middle" x="1063.39" y="-482.67" font-family="Times,serif" font-size="14.00" fill="white">Utilization_</text>
<text text-anchor="middle" x="1063.39" y="-467.67" font-family="Times,serif" font-size="14.00" fill="white">MajorTrap</text>
</a>
</g>
</g>
<!-- Utilization
Major check&#45;&gt;Utilization_
MajorTrap -->
<g id="${uniqueid}_edge7" class="edge"><title>Utilization
Major check:se&#45;&gt;Utilization_
MajorTrap:w</title>
<path fill="none" stroke="black" d="M839.049,-478.87C884.791,-433.128 920.45,-474.224 982.24,-478.516"/>
<polygon fill="black" stroke="black" points="982.271,-482.019 992.387,-478.87 982.515,-475.024 982.271,-482.019"/>
<text text-anchor="middle" x="823.549" y="-467.67" font-family="Times,serif" font-size="14.00">true</text>
</g>
<!-- Utilization
Minor check -->
<g id="${uniqueid}_node7" class="node"><title>Utilization
Minor check</title>
<g id="a_${uniqueid}_node7"><a xlink:href="#88ef740f-0847-4b3d-b4f8-553f29428710" xlink:title="com.watch4net.alerting.operation.comparator.ConstantComparatorOperation">
<polygon fill="#ff7f00" stroke="black" points="810.049,-400.87 703.049,-362.87 810.049,-324.87 917.049,-362.87 810.049,-400.87"/>
<text text-anchor="middle" x="810.049" y="-366.67" font-family="Times,serif" font-size="14.00" fill="white">Utilization</text>
<text text-anchor="middle" x="810.049" y="-351.67" font-family="Times,serif" font-size="14.00" fill="white">Minor check</text>
</a>
</g>
</g>
<!-- Utilization_
MinorClearTrap -->
<g id="${uniqueid}_node17" class="node"><title>Utilization_
MinorClearTrap</title>
<g id="a_${uniqueid}_node17"><a xlink:href="#508b9b51-3aff-4277-b224-3359b2c4de63" xlink:title="com.watch4net.alerting.action.SNMPTrapAction">
<ellipse fill="#4daf4a" stroke="black" cx="1063.39" cy="-406.87" rx="93.1765" ry="26.7407"/>
<text text-anchor="middle" x="1063.39" y="-410.67" font-family="Times,serif" font-size="14.00" fill="white">Utilization_</text>
<text text-anchor="middle" x="1063.39" y="-395.67" font-family="Times,serif" font-size="14.00" fill="white">MinorClearTrap</text>
</a>
</g>
</g>
<!-- Utilization
Minor check&#45;&gt;Utilization_
MinorClearTrap -->
<g id="${uniqueid}_edge8" class="edge"><title>Utilization
Minor check:ne&#45;&gt;Utilization_
MinorClearTrap:w</title>
<path fill="none" stroke="black" d="M837.049,-390.87C838.628,-392.449 836.427,-399.334 838.049,-400.87 878.188,-438.889 907.69,-410.643 960.007,-407.202"/>
<polygon fill="black" stroke="black" points="960.17,-410.699 970.049,-406.87 959.938,-403.703 960.17,-410.699"/>
<text text-anchor="middle" x="820.049" y="-394.67" font-family="Times,serif" font-size="14.00">false</text>
</g>
<!-- Utilization_
MinorTrap -->
<g id="${uniqueid}_node18" class="node"><title>Utilization_
MinorTrap</title>
<g id="a_${uniqueid}_node18"><a xlink:href="#dad34bee-b22f-4454-b67a-157da9b2af02" xlink:title="com.watch4net.alerting.action.SNMPTrapAction">
<ellipse fill="#4daf4a" stroke="black" cx="1063.39" cy="-334.87" rx="69.0935" ry="26.7407"/>
<text text-anchor="middle" x="1063.39" y="-338.67" font-family="Times,serif" font-size="14.00" fill="white">Utilization_</text>
<text text-anchor="middle" x="1063.39" y="-323.67" font-family="Times,serif" font-size="14.00" fill="white">MinorTrap</text>
</a>
</g>
</g>
<!-- Utilization
Minor check&#45;&gt;Utilization_
MinorTrap -->
<g id="${uniqueid}_edge9" class="edge"><title>Utilization
Minor check:se&#45;&gt;Utilization_
MinorTrap:w</title>
<path fill="none" stroke="black" d="M839.049,-334.87C884.791,-289.128 920.45,-330.224 982.24,-334.516"/>
<polygon fill="black" stroke="black" points="982.271,-338.019 992.387,-334.87 982.515,-331.024 982.271,-338.019"/>
<text text-anchor="middle" x="823.549" y="-323.67" font-family="Times,serif" font-size="14.00">true</text>
</g>
<!-- Utilization
critical comp -->
<g id="${uniqueid}_node8" class="node"><title>Utilization
critical comp</title>
<g id="a_${uniqueid}_node8"><a xlink:href="#4ad59d63-c4bf-416e-b8d0-0e4ffb1c488b" xlink:title="com.watch4net.alerting.operation.comparator.ConstantComparatorOperation">
<polygon fill="#ff7f00" stroke="black" points="810.049,-262.87 699.049,-224.87 810.049,-186.87 921.049,-224.87 810.049,-262.87"/>
<text text-anchor="middle" x="810.049" y="-228.67" font-family="Times,serif" font-size="14.00" fill="white">Utilization</text>
<text text-anchor="middle" x="810.049" y="-213.67" font-family="Times,serif" font-size="14.00" fill="white">critical comp</text>
</a>
</g>
</g>
<!-- Utilization_
CriticalClear
Trap -->
<g id="${uniqueid}_node11" class="node"><title>Utilization_
CriticalClear
Trap</title>
<g id="a_${uniqueid}_node11"><a xlink:href="#aa4b1a3e-19a0-4e0a-bb8d-d4f000b0d5c0" xlink:title="com.watch4net.alerting.action.SNMPTrapAction">
<ellipse fill="#4daf4a" stroke="black" cx="1063.39" cy="-252.87" rx="77.5641" ry="37.4533"/>
<text text-anchor="middle" x="1063.39" y="-264.17" font-family="Times,serif" font-size="14.00" fill="white">Utilization_</text>
<text text-anchor="middle" x="1063.39" y="-249.17" font-family="Times,serif" font-size="14.00" fill="white">CriticalClear</text>
<text text-anchor="middle" x="1063.39" y="-234.17" font-family="Times,serif" font-size="14.00" fill="white">Trap</text>
</a>
</g>
</g>
<!-- Utilization
critical comp&#45;&gt;Utilization_
CriticalClear
Trap -->
<g id="${uniqueid}_edge10" class="edge"><title>Utilization
critical comp:ne&#45;&gt;Utilization_
CriticalClear
Trap:w</title>
<path fill="none" stroke="black" d="M837.049,-252.87C838.628,-254.449 836.393,-261.371 838.049,-262.87 865.4,-287.623 884.273,-265.755 921.049,-262.87 945.798,-260.928 953.866,-254.781 974.372,-253.229"/>
<polygon fill="black" stroke="black" points="974.519,-256.726 984.387,-252.87 974.268,-249.73 974.519,-256.726"/>
<text text-anchor="middle" x="820.049" y="-256.67" font-family="Times,serif" font-size="14.00">false</text>
</g>
<!-- Utilization_
CriticalTrap -->
<g id="${uniqueid}_node12" class="node"><title>Utilization_
CriticalTrap</title>
<g id="a_${uniqueid}_node12"><a xlink:href="#99b9f81b-e3d4-40d1-bc5e-c9e3da4fda92" xlink:title="com.watch4net.alerting.action.SNMPTrapAction">
<ellipse fill="#4daf4a" stroke="black" cx="1063.39" cy="-170.87" rx="73.5782" ry="26.7407"/>
<text text-anchor="middle" x="1063.39" y="-174.67" font-family="Times,serif" font-size="14.00" fill="white">Utilization_</text>
<text text-anchor="middle" x="1063.39" y="-159.67" font-family="Times,serif" font-size="14.00" fill="white">CriticalTrap</text>
</a>
</g>
</g>
<!-- Utilization
critical comp&#45;&gt;Utilization_
CriticalTrap -->
<g id="${uniqueid}_edge11" class="edge"><title>Utilization
critical comp:se&#45;&gt;Utilization_
CriticalTrap:w</title>
<path fill="none" stroke="black" d="M839.049,-196.87C884.268,-151.651 917.495,-168.851 978.373,-170.715"/>
<polygon fill="black" stroke="black" points="978.334,-174.214 988.387,-170.87 978.442,-167.215 978.334,-174.214"/>
<text text-anchor="middle" x="823.549" y="-185.67" font-family="Times,serif" font-size="14.00">true</text>
</g>
<!-- Utilization Info
check -->
<g id="${uniqueid}_node9" class="node"><title>Utilization Info
check</title>
<g id="a_${uniqueid}_node9"><a xlink:href="#2f476b89-3845-4d14-8f66-0b8759d279c3" xlink:title="com.watch4net.alerting.operation.comparator.ConstantComparatorOperation">
<polygon fill="#ff7f00" stroke="black" points="810.049,-107.87 686.049,-69.8701 810.049,-31.8701 934.049,-69.8701 810.049,-107.87"/>
<text text-anchor="middle" x="810.049" y="-73.6701" font-family="Times,serif" font-size="14.00" fill="white">Utilization Info</text>
<text text-anchor="middle" x="810.049" y="-58.6701" font-family="Times,serif" font-size="14.00" fill="white">check</text>
</a>
</g>
</g>
<!-- Utilization_
INFOClearTrap -->
<g id="${uniqueid}_node13" class="node"><title>Utilization_
INFOClearTrap</title>
<g id="a_${uniqueid}_node13"><a xlink:href="#276dcdf1-fce6-43a7-a2a9-afa0e2b2ad3c" xlink:title="com.watch4net.alerting.action.SNMPTrapAction">
<ellipse fill="#4daf4a" stroke="black" cx="1063.39" cy="-98.8701" rx="90.5193" ry="26.7407"/>
<text text-anchor="middle" x="1063.39" y="-102.67" font-family="Times,serif" font-size="14.00" fill="white">Utilization_</text>
<text text-anchor="middle" x="1063.39" y="-87.6701" font-family="Times,serif" font-size="14.00" fill="white">INFOClearTrap</text>
</a>
</g>
</g>
<!-- Utilization Info
check&#45;&gt;Utilization_
INFOClearTrap -->
<g id="${uniqueid}_edge12" class="edge"><title>Utilization Info
check:ne&#45;&gt;Utilization_
INFOClearTrap:w</title>
<path fill="none" stroke="black" d="M838.049,-98.8701C840.895,-101.716 836.05,-105.186 839.049,-107.87 870.51,-136.029 892.121,-112.852 934.049,-107.87 947.027,-106.328 952.013,-101.872 961.298,-99.8674"/>
<polygon fill="black" stroke="black" points="961.78,-103.337 971.387,-98.8701 961.091,-96.3709 961.78,-103.337"/>
<text text-anchor="middle" x="821.049" y="-102.67" font-family="Times,serif" font-size="14.00">false</text>
</g>
<!-- Utilization_
INFOTrap -->
<g id="${uniqueid}_node14" class="node"><title>Utilization_
INFOTrap</title>
<g id="a_${uniqueid}_node14"><a xlink:href="#8dbe7f00-44b3-4c0f-8d93-ecdde12c8320" xlink:title="com.watch4net.alerting.action.SNMPTrapAction">
<ellipse fill="#4daf4a" stroke="black" cx="1063.39" cy="-26.8701" rx="69.0935" ry="26.7407"/>
<text text-anchor="middle" x="1063.39" y="-30.6701" font-family="Times,serif" font-size="14.00" fill="white">Utilization_</text>
<text text-anchor="middle" x="1063.39" y="-15.6701" font-family="Times,serif" font-size="14.00" fill="white">INFOTrap</text>
</a>
</g>
</g>
<!-- Utilization Info
check&#45;&gt;Utilization_
INFOTrap -->
<g id="${uniqueid}_edge13" class="edge"><title>Utilization Info
check:se&#45;&gt;Utilization_
INFOTrap:w</title>
<path fill="none" stroke="black" d="M840.049,-40.8701C885.684,4.76552 920.682,-23.621 982.269,-26.6217"/>
<polygon fill="black" stroke="black" points="982.304,-30.1235 992.387,-26.8701 982.476,-23.1256 982.304,-30.1235"/>
<text text-anchor="middle" x="824.549" y="-29.6701" font-family="Times,serif" font-size="14.00">true</text>
</g>
<!-- Utilization case&#45;&gt;Utilization
Major check -->
<g id="${uniqueid}_edge14" class="edge"><title>Utilization case:e&#45;&gt;Utilization
Major check:w</title>
<path fill="none" stroke="black" d="M650.049,-293.87C743.689,-293.87 615.399,-490.554 691.701,-505.92"/>
<polygon fill="black" stroke="black" points="691.771,-509.441 702.049,-506.87 692.411,-502.471 691.771,-509.441"/>
</g>
<!-- Utilization case&#45;&gt;Utilization
Minor check -->
<g id="${uniqueid}_edge15" class="edge"><title>Utilization case:e&#45;&gt;Utilization
Minor check:w</title>
<path fill="none" stroke="black" d="M650.049,-293.87C684.549,-293.87 668.034,-349.566 692.172,-360.879"/>
<polygon fill="black" stroke="black" points="691.554,-364.325 702.049,-362.87 692.937,-357.463 691.554,-364.325"/>
</g>
<!-- Utilization case&#45;&gt;Utilization
critical comp -->
<g id="${uniqueid}_edge16" class="edge"><title>Utilization case:e&#45;&gt;Utilization
critical comp:w</title>
<path fill="none" stroke="black" d="M650.049,-293.87C683.466,-293.87 665.614,-238.657 688.217,-227.011"/>
<polygon fill="black" stroke="black" points="689.022,-230.417 698.049,-224.87 687.533,-223.578 689.022,-230.417"/>
</g>
<!-- Utilization case&#45;&gt;Utilization Info
check -->
<g id="${uniqueid}_edge17" class="edge"><title>Utilization case:e&#45;&gt;Utilization Info
check:w</title>
<path fill="none" stroke="black" d="M650.049,-293.87C747.14,-293.87 597.144,-86.1866 675.897,-70.7726"/>
<polygon fill="black" stroke="black" points="676.398,-74.2419 686.049,-69.8701 675.778,-67.2694 676.398,-74.2419"/>
</g>
</g>
</svg>
