<?xml version="1.0" encoding="UTF-8" standalone="no"?>
<!DOCTYPE svg PUBLIC "-//W3C//DTD SVG 1.1//EN"
 "http://www.w3.org/Graphics/SVG/1.1/DTD/svg11.dtd">
<!-- Generated by graphviz version 2.38.0 (20140413.2041)
 -->
<!-- Title: HP 3PAR Alert Definitions/3PAR&#45;Disks/High Read IO Rate Pages: 1 -->
<svg width="900pt" height="422pt"
 viewBox="0.00 0.00 900.31 421.74" xmlns="http://www.w3.org/2000/svg" xmlns:xlink="http://www.w3.org/1999/xlink">
<g id="${uniqueid}" class="graph" transform="scale(1 1) rotate(0) translate(4 417.74)">
<title>HP 3PAR Alert Definitions/3PAR&#45;Disks/High Read IO Rate</title>
<polygon fill="white" stroke="none" points="-4,4 -4,-417.74 896.306,-417.74 896.306,4 -4,4"/>
<!-- Case generator -->
<g id="${uniqueid}_node1" class="node"><title>Case generator</title>
<g id="a_${uniqueid}_node1"><a xlink:href="#374354367926659" xlink:title="com.watch4net.alerting.operation.CaseOperation">
<polygon fill="#377eb8" stroke="black" points="369.475,-224.87 242.475,-224.87 242.475,-188.87 369.475,-188.87 369.475,-224.87"/>
<text text-anchor="middle" x="305.975" y="-203.17" font-family="Times,serif" font-size="14.00" fill="white">Case generator</text>
</a>
</g>
</g>
<!-- Request_CRIT -->
<g id="${uniqueid}_node9" class="node"><title>Request_CRIT</title>
<g id="a_${uniqueid}_node9"><a xlink:href="#374354367933298" xlink:title="com.watch4net.alerting.operation.comparator.ConstantComparatorOperation">
<polygon fill="#ff7f00" stroke="black" points="521.289,-348.87 412.029,-330.87 521.289,-312.87 630.549,-330.87 521.289,-348.87"/>
<text text-anchor="middle" x="521.289" y="-327.17" font-family="Times,serif" font-size="14.00" fill="white">Request_CRIT</text>
</a>
</g>
</g>
<!-- Case generator&#45;&gt;Request_CRIT -->
<g id="${uniqueid}_edge1" class="edge"><title>Case generator:e&#45;&gt;Request_CRIT:w</title>
<path fill="none" stroke="black" d="M369.475,-206.87C423.773,-206.87 362.439,-314.948 401.38,-329.302"/>
<polygon fill="black" stroke="black" points="400.865,-332.764 411.289,-330.87 401.959,-325.85 400.865,-332.764"/>
</g>
<!-- Request_Major -->
<g id="${uniqueid}_node10" class="node"><title>Request_Major</title>
<g id="a_${uniqueid}_node10"><a xlink:href="#374354367972742" xlink:title="com.watch4net.alerting.operation.comparator.ConstantComparatorOperation">
<polygon fill="#ff7f00" stroke="black" points="521.289,-224.87 406.5,-206.87 521.289,-188.87 636.078,-206.87 521.289,-224.87"/>
<text text-anchor="middle" x="521.289" y="-203.17" font-family="Times,serif" font-size="14.00" fill="white">Request_Major</text>
</a>
</g>
</g>
<!-- Case generator&#45;&gt;Request_Major -->
<g id="${uniqueid}_edge2" class="edge"><title>Case generator:e&#45;&gt;Request_Major:w</title>
<path fill="none" stroke="black" d="M369.475,-206.87C381.475,-206.87 386.725,-206.87 395.35,-206.87"/>
<polygon fill="black" stroke="black" points="395.475,-210.37 405.475,-206.87 395.475,-203.37 395.475,-210.37"/>
</g>
<!-- Request_Minor -->
<g id="${uniqueid}_node11" class="node"><title>Request_Minor</title>
<g id="a_${uniqueid}_node11"><a xlink:href="#374354367999090" xlink:title="com.watch4net.alerting.operation.comparator.ConstantComparatorOperation">
<polygon fill="#ff7f00" stroke="black" points="521.289,-100.87 405.661,-82.8701 521.289,-64.8701 636.917,-82.8701 521.289,-100.87"/>
<text text-anchor="middle" x="521.289" y="-79.1701" font-family="Times,serif" font-size="14.00" fill="white">Request_Minor</text>
</a>
</g>
</g>
<!-- Case generator&#45;&gt;Request_Minor -->
<g id="${uniqueid}_edge3" class="edge"><title>Case generator:e&#45;&gt;Request_Minor:w</title>
<path fill="none" stroke="black" d="M369.475,-206.87C422.827,-206.87 358.493,-99.6945 395.295,-84.623"/>
<polygon fill="black" stroke="black" points="396.214,-88.0163 405.475,-82.8701 395.026,-81.1178 396.214,-88.0163"/>
</g>
<!-- HighReadRequest
Entry -->
<g id="${uniqueid}_node2" class="node"><title>HighReadRequest
Entry</title>
<g id="a_${uniqueid}_node2"><a xlink:href="#374354367877201" xlink:title="com.watch4net.alerting.operation.FilteredEntryPoint">
<ellipse fill="#984ea3" stroke="black" cx="103.238" cy="-206.87" rx="103.476" ry="26.7407"/>
<text text-anchor="middle" x="103.238" y="-210.67" font-family="Times,serif" font-size="14.00" fill="white">HighReadRequest</text>
<text text-anchor="middle" x="103.238" y="-195.67" font-family="Times,serif" font-size="14.00" fill="white">Entry</text>
</a>
</g>
</g>
<!-- HighReadRequest
Entry&#45;&gt;Case generator -->
<g id="${uniqueid}_edge4" class="edge"><title>HighReadRequest
Entry:e&#45;&gt;Case generator:w</title>
<path fill="none" stroke="black" d="M206.475,-206.87C218.475,-206.87 223.725,-206.87 232.35,-206.87"/>
<polygon fill="black" stroke="black" points="232.475,-210.37 242.475,-206.87 232.475,-203.37 232.475,-210.37"/>
</g>
<!-- ReadRequest_
Major trap -->
<g id="${uniqueid}_node3" class="node"><title>ReadRequest_
Major trap</title>
<g id="a_${uniqueid}_node3"><a xlink:href="#374354367988695" xlink:title="com.watch4net.alerting.action.SNMPTrapAction">
<ellipse fill="#4daf4a" stroke="black" cx="782.704" cy="-170.87" rx="84.2917" ry="26.7407"/>
<text text-anchor="middle" x="782.704" y="-174.67" font-family="Times,serif" font-size="14.00" fill="white">ReadRequest_</text>
<text text-anchor="middle" x="782.704" y="-159.67" font-family="Times,serif" font-size="14.00" fill="white">Major trap</text>
</a>
</g>
</g>
<!-- ReadRequest_
Minor clear trap -->
<g id="${uniqueid}_node4" class="node"><title>ReadRequest_
Minor clear trap</title>
<g id="a_${uniqueid}_node4"><a xlink:href="#374354368082963" xlink:title="com.watch4net.alerting.action.SNMPTrapAction">
<ellipse fill="#4daf4a" stroke="black" cx="782.704" cy="-98.8701" rx="95.4188" ry="26.7407"/>
<text text-anchor="middle" x="782.704" y="-102.67" font-family="Times,serif" font-size="14.00" fill="white">ReadRequest_</text>
<text text-anchor="middle" x="782.704" y="-87.6701" font-family="Times,serif" font-size="14.00" fill="white">Minor clear trap</text>
</a>
</g>
</g>
<!-- ReadRequest_
Minor trap -->
<g id="${uniqueid}_node5" class="node"><title>ReadRequest_
Minor trap</title>
<g id="a_${uniqueid}_node5"><a xlink:href="#374354368006369" xlink:title="com.watch4net.alerting.action.SNMPTrapAction">
<ellipse fill="#4daf4a" stroke="black" cx="782.704" cy="-26.8701" rx="84.2917" ry="26.7407"/>
<text text-anchor="middle" x="782.704" y="-30.6701" font-family="Times,serif" font-size="14.00" fill="white">ReadRequest_</text>
<text text-anchor="middle" x="782.704" y="-15.6701" font-family="Times,serif" font-size="14.00" fill="white">Minor trap</text>
</a>
</g>
</g>
<!-- ReadRequest_CRIT
clear trap -->
<g id="${uniqueid}_node6" class="node"><title>ReadRequest_CRIT
clear trap</title>
<g id="a_${uniqueid}_node6"><a xlink:href="#374354367964087" xlink:title="com.watch4net.alerting.action.SNMPTrapAction">
<ellipse fill="#4daf4a" stroke="black" cx="782.704" cy="-386.87" rx="109.703" ry="26.7407"/>
<text text-anchor="middle" x="782.704" y="-390.67" font-family="Times,serif" font-size="14.00" fill="white">ReadRequest_CRIT</text>
<text text-anchor="middle" x="782.704" y="-375.67" font-family="Times,serif" font-size="14.00" fill="white">clear trap</text>
</a>
</g>
</g>
<!-- ReadRequest_CRIT
trap -->
<g id="${uniqueid}_node7" class="node"><title>ReadRequest_CRIT
trap</title>
<g id="a_${uniqueid}_node7"><a xlink:href="#374354367946767" xlink:title="com.watch4net.alerting.action.SNMPTrapAction">
<ellipse fill="#4daf4a" stroke="black" cx="782.704" cy="-314.87" rx="109.703" ry="26.7407"/>
<text text-anchor="middle" x="782.704" y="-318.67" font-family="Times,serif" font-size="14.00" fill="white">ReadRequest_CRIT</text>
<text text-anchor="middle" x="782.704" y="-303.67" font-family="Times,serif" font-size="14.00" fill="white">trap</text>
</a>
</g>
</g>
<!-- RequestRequest_
Major clear trap -->
<g id="${uniqueid}_node8" class="node"><title>RequestRequest_
Major clear trap</title>
<g id="a_${uniqueid}_node8"><a xlink:href="#374354367979842" xlink:title="com.watch4net.alerting.action.SNMPTrapAction">
<ellipse fill="#4daf4a" stroke="black" cx="782.704" cy="-242.87" rx="99.9045" ry="26.7407"/>
<text text-anchor="middle" x="782.704" y="-246.67" font-family="Times,serif" font-size="14.00" fill="white">RequestRequest_</text>
<text text-anchor="middle" x="782.704" y="-231.67" font-family="Times,serif" font-size="14.00" fill="white">Major clear trap</text>
</a>
</g>
</g>
<!-- Request_CRIT&#45;&gt;ReadRequest_CRIT
clear trap -->
<g id="${uniqueid}_edge5" class="edge"><title>Request_CRIT:ne&#45;&gt;ReadRequest_CRIT
clear trap:w</title>
<path fill="none" stroke="black" d="M536.289,-346.87C536.992,-347.573 536.523,-348.237 537.289,-348.87 582.893,-386.508 607.539,-386.951 662.806,-386.88"/>
<polygon fill="black" stroke="black" points="663.106,-390.38 673.103,-386.87 663.099,-383.38 663.106,-390.38"/>
<text text-anchor="middle" x="519.289" y="-350.67" font-family="Times,serif" font-size="14.00">false</text>
</g>
<!-- Request_CRIT&#45;&gt;ReadRequest_CRIT
trap -->
<g id="${uniqueid}_edge6" class="edge"><title>Request_CRIT:se&#45;&gt;ReadRequest_CRIT
trap:w</title>
<path fill="none" stroke="black" d="M538.289,-314.87C578.174,-274.985 609.34,-310.196 662.845,-314.459"/>
<polygon fill="black" stroke="black" points="662.971,-317.967 673.103,-314.87 663.251,-310.973 662.971,-317.967"/>
<text text-anchor="middle" x="522.789" y="-303.67" font-family="Times,serif" font-size="14.00">true</text>
</g>
<!-- Request_Major&#45;&gt;ReadRequest_
Major trap -->
<g id="${uniqueid}_edge8" class="edge"><title>Request_Major:se&#45;&gt;ReadRequest_
Major trap:w</title>
<path fill="none" stroke="black" d="M538.289,-190.87C586.316,-142.843 622.603,-168.085 687.481,-170.665"/>
<polygon fill="black" stroke="black" points="687.636,-174.169 697.704,-170.87 687.777,-167.17 687.636,-174.169"/>
<text text-anchor="middle" x="522.789" y="-179.67" font-family="Times,serif" font-size="14.00">true</text>
</g>
<!-- Request_Major&#45;&gt;RequestRequest_
Major clear trap -->
<g id="${uniqueid}_edge7" class="edge"><title>Request_Major:ne&#45;&gt;RequestRequest_
Major clear trap:w</title>
<path fill="none" stroke="black" d="M536.289,-222.87C536.992,-223.573 536.478,-224.296 537.289,-224.87 587.209,-260.176 614.001,-244.817 671.421,-243.031"/>
<polygon fill="black" stroke="black" points="671.76,-246.526 681.704,-242.87 671.651,-239.527 671.76,-246.526"/>
<text text-anchor="middle" x="519.289" y="-226.67" font-family="Times,serif" font-size="14.00">false</text>
</g>
<!-- Request_Minor&#45;&gt;ReadRequest_
Minor clear trap -->
<g id="${uniqueid}_edge9" class="edge"><title>Request_Minor:ne&#45;&gt;ReadRequest_
Minor clear trap:w</title>
<path fill="none" stroke="black" d="M536.289,-98.8701C536.992,-99.5728 536.444,-100.348 537.289,-100.87 575.025,-124.192 592.75,-101.782 637.103,-100.87 654.833,-100.505 661.632,-99.3932 675.436,-99.0053"/>
<polygon fill="black" stroke="black" points="675.751,-102.502 685.704,-98.8701 675.659,-95.5021 675.751,-102.502"/>
<text text-anchor="middle" x="519.289" y="-102.67" font-family="Times,serif" font-size="14.00">false</text>
</g>
<!-- Request_Minor&#45;&gt;ReadRequest_
Minor trap -->
<g id="${uniqueid}_edge10" class="edge"><title>Request_Minor:se&#45;&gt;ReadRequest_
Minor trap:w</title>
<path fill="none" stroke="black" d="M538.289,-66.8701C587.52,-17.6388 621.365,-25.9167 687.679,-26.801"/>
<polygon fill="black" stroke="black" points="687.68,-30.301 697.704,-26.8701 687.729,-23.3011 687.68,-30.301"/>
<text text-anchor="middle" x="522.789" y="-55.6701" font-family="Times,serif" font-size="14.00">true</text>
</g>
</g>
</svg>
