<?xml version="1.0" encoding="UTF-8" standalone="no"?>
<!DOCTYPE svg PUBLIC "-//W3C//DTD SVG 1.1//EN"
 "http://www.w3.org/Graphics/SVG/1.1/DTD/svg11.dtd">
<!-- Generated by graphviz version 2.38.0 (20140413.2041)
 -->
<!-- Title: Brocade FC Switch Alert Definitions/Threshold/Brocade&#45;Switch&#45;Port/CreditLost&#45;Trigger Pages: 1 -->
<svg width="630pt" height="116pt"
 viewBox="0.00 0.00 629.63 115.87" xmlns="http://www.w3.org/2000/svg" xmlns:xlink="http://www.w3.org/1999/xlink">
<g id="${uniqueid}" class="graph" transform="scale(1 1) rotate(0) translate(4 111.87)">
<title>Brocade FC Switch Alert Definitions/Threshold/Brocade&#45;Switch&#45;Port/CreditLost&#45;Trigger</title>
<polygon fill="white" stroke="none" points="-4,4 -4,-111.87 625.629,-111.87 625.629,4 -4,4"/>
<!-- 10 mins Average
Calculator -->
<g id="${uniqueid}_node1" class="node"><title>10 mins Average
Calculator</title>
<g id="a_${uniqueid}_node1"><a xlink:href="#633084896093637" xlink:title="com.watch4net.alerting.operation.window.HistoryOperation">
<polygon fill="#377eb8" stroke="black" points="295.189,-76.8701 158.189,-76.8701 158.189,-38.8701 295.189,-38.8701 295.189,-76.8701"/>
<text text-anchor="middle" x="226.689" y="-61.6701" font-family="Times,serif" font-size="14.00" fill="white">10 mins Average</text>
<text text-anchor="middle" x="226.689" y="-46.6701" font-family="Times,serif" font-size="14.00" fill="white">Calculator</text>
</a>
</g>
</g>
<!-- &gt;0 -->
<g id="${uniqueid}_node2" class="node"><title>&gt;0</title>
<g id="a_${uniqueid}_node2"><a xlink:href="#633084896109002" xlink:title="com.watch4net.alerting.operation.comparator.ConstantComparatorOperation">
<polygon fill="#ff7f00" stroke="black" points="366.117,-75.8701 331.261,-57.8701 366.117,-39.8701 400.973,-57.8701 366.117,-75.8701"/>
<text text-anchor="middle" x="366.117" y="-54.1701" font-family="Times,serif" font-size="14.00" fill="white">&gt;0</text>
</a>
</g>
</g>
<!-- 10 mins Average
Calculator&#45;&gt;&gt;0 -->
<g id="${uniqueid}_edge1" class="edge"><title>10 mins Average
Calculator:e&#45;&gt;&gt;0:w</title>
<path fill="none" stroke="black" d="M295.189,-57.8701C307.189,-57.8701 312.439,-57.8701 321.064,-57.8701"/>
<polygon fill="black" stroke="black" points="321.189,-61.3702 331.189,-57.8701 321.189,-54.3702 321.189,-61.3702"/>
<text text-anchor="middle" x="319.189" y="-57.9201" font-family="Times,serif" font-size="14.00">output</text>
</g>
<!-- Clear_CreditLoss -->
<g id="${uniqueid}_node3" class="node"><title>Clear_CreditLoss</title>
<g id="a_${uniqueid}_node3"><a xlink:href="#1400656783860" xlink:title="com.watch4net.alerting.action.SNMPTrapAction">
<ellipse fill="#4daf4a" stroke="black" cx="529.337" cy="-89.8701" rx="92.0841" ry="18"/>
<text text-anchor="middle" x="529.337" y="-86.1701" font-family="Times,serif" font-size="14.00" fill="white">Clear_CreditLoss</text>
</a>
</g>
</g>
<!-- &gt;0&#45;&gt;Clear_CreditLoss -->
<g id="${uniqueid}_edge2" class="edge"><title>&gt;0:ne&#45;&gt;Clear_CreditLoss:w</title>
<path fill="none" stroke="black" d="M377.117,-69.8701C379.029,-71.7817 376.272,-73.8945 378.117,-75.8701 394.052,-92.9292 406.421,-90.9296 426.98,-90.0975"/>
<polygon fill="black" stroke="black" points="427.127,-93.5952 437.045,-89.8701 426.969,-86.597 427.127,-93.5952"/>
<text text-anchor="middle" x="394.117" y="-73.6701" font-family="Times,serif" font-size="14.00">false</text>
</g>
<!-- Notify_Credit
Loss -->
<g id="${uniqueid}_node5" class="node"><title>Notify_Credit
Loss</title>
<g id="a_${uniqueid}_node5"><a xlink:href="#1400656765454" xlink:title="com.watch4net.alerting.action.SNMPTrapAction">
<ellipse fill="#4daf4a" stroke="black" cx="529.337" cy="-26.8701" rx="81.135" ry="26.7407"/>
<text text-anchor="middle" x="529.337" y="-30.6701" font-family="Times,serif" font-size="14.00" fill="white">Notify_Credit</text>
<text text-anchor="middle" x="529.337" y="-15.6701" font-family="Times,serif" font-size="14.00" fill="white">Loss</text>
</a>
</g>
</g>
<!-- &gt;0&#45;&gt;Notify_Credit
Loss -->
<g id="${uniqueid}_edge3" class="edge"><title>&gt;0:se&#45;&gt;Notify_Credit
Loss:w</title>
<path fill="none" stroke="black" d="M379.117,-45.8701C398.497,-26.4898 411.852,-26.52 436.076,-26.7932"/>
<polygon fill="black" stroke="black" points="436.311,-30.295 446.337,-26.8701 436.363,-23.2952 436.311,-30.295"/>
<text text-anchor="middle" x="394.617" y="-34.6701" font-family="Times,serif" font-size="14.00">true</text>
</g>
<!-- CreditLost -->
<g id="${uniqueid}_node4" class="node"><title>CreditLost</title>
<g id="a_${uniqueid}_node4"><a xlink:href="#633084896057809" xlink:title="com.watch4net.alerting.operation.FilteredEntryPoint">
<ellipse fill="#984ea3" stroke="black" cx="61.0946" cy="-57.8701" rx="61.1893" ry="18"/>
<text text-anchor="middle" x="61.0946" y="-54.1701" font-family="Times,serif" font-size="14.00" fill="white">CreditLost</text>
</a>
</g>
</g>
<!-- CreditLost&#45;&gt;10 mins Average
Calculator -->
<g id="${uniqueid}_edge4" class="edge"><title>CreditLost:e&#45;&gt;10 mins Average
Calculator:w</title>
<path fill="none" stroke="black" d="M122.189,-57.8701C134.189,-57.8701 139.439,-57.8701 148.064,-57.8701"/>
<polygon fill="black" stroke="black" points="148.189,-61.3702 158.189,-57.8701 148.189,-54.3702 148.189,-61.3702"/>
</g>
</g>
</svg>
