<?xml version="1.0" encoding="UTF-8" standalone="no"?>
<!DOCTYPE svg PUBLIC "-//W3C//DTD SVG 1.1//EN"
 "http://www.w3.org/Graphics/SVG/1.1/DTD/svg11.dtd">
<!-- Generated by graphviz version 2.38.0 (20140413.2041)
 -->
<!-- Title: NetApp Filer Alert Definitions/NetApp&#45;LUN/Write IO Rate Pages: 1 -->
<svg width="972pt" height="272pt"
 viewBox="0.00 0.00 971.61 272.00" xmlns="http://www.w3.org/2000/svg" xmlns:xlink="http://www.w3.org/1999/xlink">
<g id="${uniqueid}" class="graph" transform="scale(1 1) rotate(0) translate(4 268)">
<title>NetApp Filer Alert Definitions/NetApp&#45;LUN/Write IO Rate</title>
<polygon fill="white" stroke="none" points="-4,4 -4,-268 967.607,-268 967.607,4 -4,4"/>
<!-- LUN Write IORate
case -->
<g id="${uniqueid}_node1" class="node"><title>LUN Write IORate
case</title>
<g id="a_${uniqueid}_node1"><a xlink:href="#202274863535033" xlink:title="com.watch4net.alerting.operation.CaseOperation">
<polygon fill="#377eb8" stroke="black" points="388.647,-151 239.647,-151 239.647,-113 388.647,-113 388.647,-151"/>
<text text-anchor="middle" x="314.147" y="-135.8" font-family="Times,serif" font-size="14.00" fill="white">LUN Write IORate</text>
<text text-anchor="middle" x="314.147" y="-120.8" font-family="Times,serif" font-size="14.00" fill="white">case</text>
</a>
</g>
</g>
<!-- LUN WriteIORate
CRIT check -->
<g id="${uniqueid}_node2" class="node"><title>LUN WriteIORate
CRIT check</title>
<g id="a_${uniqueid}_node2"><a xlink:href="#202274863544828" xlink:title="com.watch4net.alerting.operation.comparator.ConstantComparatorOperation">
<polygon fill="#ff7f00" stroke="black" points="568.647,-264 424.647,-226 568.647,-188 712.647,-226 568.647,-264"/>
<text text-anchor="middle" x="568.647" y="-229.8" font-family="Times,serif" font-size="14.00" fill="white">LUN WriteIORate</text>
<text text-anchor="middle" x="568.647" y="-214.8" font-family="Times,serif" font-size="14.00" fill="white">CRIT check</text>
</a>
</g>
</g>
<!-- LUN Write IORate
case&#45;&gt;LUN WriteIORate
CRIT check -->
<g id="${uniqueid}_edge1" class="edge"><title>LUN Write IORate
case:e&#45;&gt;LUN WriteIORate
CRIT check:w</title>
<path fill="none" stroke="black" d="M388.647,-132C429.364,-132 388.726,-209.868 414.825,-223.86"/>
<polygon fill="black" stroke="black" points="414.131,-227.291 424.647,-226 415.621,-220.451 414.131,-227.291"/>
</g>
<!-- LUN WriteIORate
MAJ check -->
<g id="${uniqueid}_node4" class="node"><title>LUN WriteIORate
MAJ check</title>
<g id="a_${uniqueid}_node4"><a xlink:href="#202274863578668" xlink:title="com.watch4net.alerting.operation.comparator.ConstantComparatorOperation">
<polygon fill="#ff7f00" stroke="black" points="568.647,-170 424.647,-132 568.647,-94 712.647,-132 568.647,-170"/>
<text text-anchor="middle" x="568.647" y="-135.8" font-family="Times,serif" font-size="14.00" fill="white">LUN WriteIORate</text>
<text text-anchor="middle" x="568.647" y="-120.8" font-family="Times,serif" font-size="14.00" fill="white">MAJ check</text>
</a>
</g>
</g>
<!-- LUN Write IORate
case&#45;&gt;LUN WriteIORate
MAJ check -->
<g id="${uniqueid}_edge2" class="edge"><title>LUN Write IORate
case:e&#45;&gt;LUN WriteIORate
MAJ check:w</title>
<path fill="none" stroke="black" d="M388.647,-132C400.647,-132 405.897,-132 414.522,-132"/>
<polygon fill="black" stroke="black" points="414.647,-135.5 424.647,-132 414.647,-128.5 414.647,-135.5"/>
</g>
<!-- LUN WriteIORate
MIN check -->
<g id="${uniqueid}_node5" class="node"><title>LUN WriteIORate
MIN check</title>
<g id="a_${uniqueid}_node5"><a xlink:href="#202274863593774" xlink:title="com.watch4net.alerting.operation.comparator.ConstantComparatorOperation">
<polygon fill="#ff7f00" stroke="black" points="568.647,-76 424.647,-38 568.647,-7.10543e-15 712.647,-38 568.647,-76"/>
<text text-anchor="middle" x="568.647" y="-41.8" font-family="Times,serif" font-size="14.00" fill="white">LUN WriteIORate</text>
<text text-anchor="middle" x="568.647" y="-26.8" font-family="Times,serif" font-size="14.00" fill="white">MIN check</text>
</a>
</g>
</g>
<!-- LUN Write IORate
case&#45;&gt;LUN WriteIORate
MIN check -->
<g id="${uniqueid}_edge3" class="edge"><title>LUN Write IORate
case:e&#45;&gt;LUN WriteIORate
MIN check:w</title>
<path fill="none" stroke="black" d="M388.647,-132C429.364,-132 388.726,-54.1319 414.825,-40.1399"/>
<polygon fill="black" stroke="black" points="415.621,-43.5486 424.647,-38 414.131,-36.709 415.621,-43.5486"/>
</g>
<!-- LUN WriteIORate_
CRIT trap -->
<g id="${uniqueid}_node6" class="node"><title>LUN WriteIORate_
CRIT trap</title>
<g id="a_${uniqueid}_node6"><a xlink:href="#202274863561342" xlink:title="com.watch4net.alerting.action.SNMPTrapAction">
<ellipse fill="#4daf4a" stroke="black" cx="856.127" cy="-226" rx="107.46" ry="26.7407"/>
<text text-anchor="middle" x="856.127" y="-229.8" font-family="Times,serif" font-size="14.00" fill="white">LUN WriteIORate_</text>
<text text-anchor="middle" x="856.127" y="-214.8" font-family="Times,serif" font-size="14.00" fill="white">CRIT trap</text>
</a>
</g>
</g>
<!-- LUN WriteIORate
CRIT check&#45;&gt;LUN WriteIORate_
CRIT trap -->
<g id="${uniqueid}_edge4" class="edge"><title>LUN WriteIORate
CRIT check:e&#45;&gt;LUN WriteIORate_
CRIT trap:w</title>
<path fill="none" stroke="black" d="M712.647,-226C724.647,-226 729.897,-226 738.522,-226"/>
<polygon fill="black" stroke="black" points="738.647,-229.5 748.647,-226 738.647,-222.5 738.647,-229.5"/>
<text text-anchor="middle" x="728.147" y="-214.8" font-family="Times,serif" font-size="14.00">true</text>
</g>
<!-- LUN WriteIORate
Entry -->
<g id="${uniqueid}_node3" class="node"><title>LUN WriteIORate
Entry</title>
<g id="a_${uniqueid}_node3"><a xlink:href="#202274863490708" xlink:title="com.watch4net.alerting.operation.FilteredEntryPoint">
<ellipse fill="#984ea3" stroke="black" cx="101.823" cy="-132" rx="101.647" ry="26.7407"/>
<text text-anchor="middle" x="101.823" y="-135.8" font-family="Times,serif" font-size="14.00" fill="white">LUN WriteIORate</text>
<text text-anchor="middle" x="101.823" y="-120.8" font-family="Times,serif" font-size="14.00" fill="white">Entry</text>
</a>
</g>
</g>
<!-- LUN WriteIORate
Entry&#45;&gt;LUN Write IORate
case -->
<g id="${uniqueid}_edge5" class="edge"><title>LUN WriteIORate
Entry:e&#45;&gt;LUN Write IORate
case:w</title>
<path fill="none" stroke="black" d="M203.647,-132C215.647,-132 220.897,-132 229.522,-132"/>
<polygon fill="black" stroke="black" points="229.647,-135.5 239.647,-132 229.647,-128.5 229.647,-135.5"/>
</g>
<!-- LUN WriteIORate_
Major trap -->
<g id="${uniqueid}_node7" class="node"><title>LUN WriteIORate_
Major trap</title>
<g id="a_${uniqueid}_node7"><a xlink:href="#202274863586286" xlink:title="com.watch4net.alerting.action.SNMPTrapAction">
<ellipse fill="#4daf4a" stroke="black" cx="856.127" cy="-132" rx="107.46" ry="26.7407"/>
<text text-anchor="middle" x="856.127" y="-135.8" font-family="Times,serif" font-size="14.00" fill="white">LUN WriteIORate_</text>
<text text-anchor="middle" x="856.127" y="-120.8" font-family="Times,serif" font-size="14.00" fill="white">Major trap</text>
</a>
</g>
</g>
<!-- LUN WriteIORate
MAJ check&#45;&gt;LUN WriteIORate_
Major trap -->
<g id="${uniqueid}_edge6" class="edge"><title>LUN WriteIORate
MAJ check:e&#45;&gt;LUN WriteIORate_
Major trap:w</title>
<path fill="none" stroke="black" d="M712.647,-132C724.647,-132 729.897,-132 738.522,-132"/>
<polygon fill="black" stroke="black" points="738.647,-135.5 748.647,-132 738.647,-128.5 738.647,-135.5"/>
<text text-anchor="middle" x="728.147" y="-120.8" font-family="Times,serif" font-size="14.00">true</text>
</g>
<!-- LUN WriteIORate_
Minor trap -->
<g id="${uniqueid}_node8" class="node"><title>LUN WriteIORate_
Minor trap</title>
<g id="a_${uniqueid}_node8"><a xlink:href="#202274863600416" xlink:title="com.watch4net.alerting.action.SNMPTrapAction">
<ellipse fill="#4daf4a" stroke="black" cx="856.127" cy="-38" rx="107.46" ry="26.7407"/>
<text text-anchor="middle" x="856.127" y="-41.8" font-family="Times,serif" font-size="14.00" fill="white">LUN WriteIORate_</text>
<text text-anchor="middle" x="856.127" y="-26.8" font-family="Times,serif" font-size="14.00" fill="white">Minor trap</text>
</a>
</g>
</g>
<!-- LUN WriteIORate
MIN check&#45;&gt;LUN WriteIORate_
Minor trap -->
<g id="${uniqueid}_edge7" class="edge"><title>LUN WriteIORate
MIN check:e&#45;&gt;LUN WriteIORate_
Minor trap:w</title>
<path fill="none" stroke="black" d="M712.647,-38C724.647,-38 729.897,-38 738.522,-38"/>
<polygon fill="black" stroke="black" points="738.647,-41.5001 748.647,-38 738.647,-34.5001 738.647,-41.5001"/>
<text text-anchor="middle" x="728.147" y="-26.8" font-family="Times,serif" font-size="14.00">true</text>
</g>
</g>
</svg>
