<?xml version="1.0" encoding="UTF-8" standalone="no"?>
<!DOCTYPE svg PUBLIC "-//W3C//DTD SVG 1.1//EN"
 "http://www.w3.org/Graphics/SVG/1.1/DTD/svg11.dtd">
<!-- Generated by graphviz version 2.38.0 (20140413.2041)
 -->
<!-- Title: IBMDS8k Alert Definitions/IBMDS8k&#45;Rank/Read Requests Pages: 1 -->
<svg width="993pt" height="422pt"
 viewBox="0.00 0.00 993.11 421.74" xmlns="http://www.w3.org/2000/svg" xmlns:xlink="http://www.w3.org/1999/xlink">
<g id="${uniqueid}" class="graph" transform="scale(1 1) rotate(0) translate(4 417.74)">
<title>IBMDS8k Alert Definitions/IBMDS8k&#45;Rank/Read Requests</title>
<polygon fill="white" stroke="none" points="-4,4 -4,-417.74 989.11,-417.74 989.11,4 -4,4"/>
<!-- Rank read req
entry -->
<g id="${uniqueid}_node1" class="node"><title>Rank read req
entry</title>
<g id="a_${uniqueid}_node1"><a xlink:href="#1284918492836705" xlink:title="com.watch4net.alerting.operation.FilteredEntryPoint">
<ellipse fill="#984ea3" stroke="black" cx="84.1457" cy="-206.87" rx="84.2917" ry="26.7407"/>
<text text-anchor="middle" x="84.1457" y="-210.67" font-family="Times,serif" font-size="14.00" fill="white">Rank read req</text>
<text text-anchor="middle" x="84.1457" y="-195.67" font-family="Times,serif" font-size="14.00" fill="white">entry</text>
</a>
</g>
</g>
<!-- Roundoff -->
<g id="${uniqueid}_node12" class="node"><title>Roundoff</title>
<g id="a_${uniqueid}_node12"><a xlink:href="#1441789826158" xlink:title="com.watch4net.alerting.operation.math.ConstantMathOperation">
<polygon fill="#377eb8" stroke="black" points="285.291,-224.87 204.291,-224.87 204.291,-188.87 285.291,-188.87 285.291,-224.87"/>
<text text-anchor="middle" x="244.791" y="-203.17" font-family="Times,serif" font-size="14.00" fill="white">Roundoff</text>
</a>
</g>
</g>
<!-- Rank read req
entry&#45;&gt;Roundoff -->
<g id="${uniqueid}_edge1" class="edge"><title>Rank read req
entry:e&#45;&gt;Roundoff:w</title>
<path fill="none" stroke="black" d="M168.291,-206.87C180.291,-206.87 185.541,-206.87 194.166,-206.87"/>
<polygon fill="black" stroke="black" points="194.291,-210.37 204.291,-206.87 194.291,-203.37 194.291,-210.37"/>
</g>
<!-- Read Req Case -->
<g id="${uniqueid}_node2" class="node"><title>Read Req Case</title>
<g id="a_${uniqueid}_node2"><a xlink:href="#1284918492880964" xlink:title="com.watch4net.alerting.operation.CaseOperation">
<polygon fill="#377eb8" stroke="black" points="446.291,-224.87 321.291,-224.87 321.291,-188.87 446.291,-188.87 446.291,-224.87"/>
<text text-anchor="middle" x="383.791" y="-203.17" font-family="Times,serif" font-size="14.00" fill="white">Read Req Case</text>
</a>
</g>
</g>
<!-- Read Req Maj
Comp -->
<g id="${uniqueid}_node3" class="node"><title>Read Req Maj
Comp</title>
<g id="a_${uniqueid}_node3"><a xlink:href="#1284918492927587" xlink:title="com.watch4net.alerting.operation.comparator.ConstantComparatorOperation">
<polygon fill="#ff7f00" stroke="black" points="615.291,-381.87 498.291,-343.87 615.291,-305.87 732.291,-343.87 615.291,-381.87"/>
<text text-anchor="middle" x="615.291" y="-347.67" font-family="Times,serif" font-size="14.00" fill="white">Read Req Maj</text>
<text text-anchor="middle" x="615.291" y="-332.67" font-family="Times,serif" font-size="14.00" fill="white">Comp</text>
</a>
</g>
</g>
<!-- Read Req Case&#45;&gt;Read Req Maj
Comp -->
<g id="${uniqueid}_edge2" class="edge"><title>Read Req Case:e&#45;&gt;Read Req Maj
Comp:w</title>
<path fill="none" stroke="black" d="M446.291,-206.87C507.456,-206.87 441.077,-328.286 487.295,-342.514"/>
<polygon fill="black" stroke="black" points="486.912,-345.994 497.291,-343.87 487.853,-339.058 486.912,-345.994"/>
</g>
<!-- Read Req Minor
Comp -->
<g id="${uniqueid}_node4" class="node"><title>Read Req Minor
Comp</title>
<g id="a_${uniqueid}_node4"><a xlink:href="#1284918492951711" xlink:title="com.watch4net.alerting.operation.comparator.ConstantComparatorOperation">
<polygon fill="#ff7f00" stroke="black" points="615.291,-244.87 482.291,-206.87 615.291,-168.87 748.291,-206.87 615.291,-244.87"/>
<text text-anchor="middle" x="615.291" y="-210.67" font-family="Times,serif" font-size="14.00" fill="white">Read Req Minor</text>
<text text-anchor="middle" x="615.291" y="-195.67" font-family="Times,serif" font-size="14.00" fill="white">Comp</text>
</a>
</g>
</g>
<!-- Read Req Case&#45;&gt;Read Req Minor
Comp -->
<g id="${uniqueid}_edge3" class="edge"><title>Read Req Case:e&#45;&gt;Read Req Minor
Comp:w</title>
<path fill="none" stroke="black" d="M446.291,-206.87C458.291,-206.87 463.541,-206.87 472.166,-206.87"/>
<polygon fill="black" stroke="black" points="472.291,-210.37 482.291,-206.87 472.291,-203.37 472.291,-210.37"/>
</g>
<!-- ReadReq Crit
comp -->
<g id="${uniqueid}_node5" class="node"><title>ReadReq Crit
comp</title>
<g id="a_${uniqueid}_node5"><a xlink:href="#1284918492891202" xlink:title="com.watch4net.alerting.operation.comparator.ConstantComparatorOperation">
<polygon fill="#ff7f00" stroke="black" points="615.291,-107.87 502.291,-69.8701 615.291,-31.8701 728.291,-69.8701 615.291,-107.87"/>
<text text-anchor="middle" x="615.291" y="-73.6701" font-family="Times,serif" font-size="14.00" fill="white">ReadReq Crit</text>
<text text-anchor="middle" x="615.291" y="-58.6701" font-family="Times,serif" font-size="14.00" fill="white">comp</text>
</a>
</g>
</g>
<!-- Read Req Case&#45;&gt;ReadReq Crit
comp -->
<g id="${uniqueid}_edge4" class="edge"><title>Read Req Case:e&#45;&gt;ReadReq Crit
comp:w</title>
<path fill="none" stroke="black" d="M446.291,-206.87C508.059,-206.87 444.125,-85.4544 491.162,-71.226"/>
<polygon fill="black" stroke="black" points="491.844,-74.666 501.291,-69.8701 490.915,-67.7278 491.844,-74.666"/>
</g>
<!-- ReadReq_Major
Trap -->
<g id="${uniqueid}_node8" class="node"><title>ReadReq_Major
Trap</title>
<g id="a_${uniqueid}_node8"><a xlink:href="#1284918492934196" xlink:title="com.watch4net.alerting.action.SNMPTrapAction">
<ellipse fill="#4daf4a" stroke="black" cx="884.701" cy="-314.87" rx="92.7622" ry="26.7407"/>
<text text-anchor="middle" x="884.701" y="-318.67" font-family="Times,serif" font-size="14.00" fill="white">ReadReq_Major</text>
<text text-anchor="middle" x="884.701" y="-303.67" font-family="Times,serif" font-size="14.00" fill="white">Trap</text>
</a>
</g>
</g>
<!-- Read Req Maj
Comp&#45;&gt;ReadReq_Major
Trap -->
<g id="${uniqueid}_edge6" class="edge"><title>Read Req Maj
Comp:se&#45;&gt;ReadReq_Major
Trap:w</title>
<path fill="none" stroke="black" d="M645.291,-314.87C688.49,-271.671 722.205,-310.145 780.356,-314.482"/>
<polygon fill="black" stroke="black" points="780.577,-317.993 790.701,-314.87 780.839,-310.998 780.577,-317.993"/>
<text text-anchor="middle" x="629.791" y="-303.67" font-family="Times,serif" font-size="14.00">true</text>
</g>
<!-- ReadReq_Major_
Clear -->
<g id="${uniqueid}_node9" class="node"><title>ReadReq_Major_
Clear</title>
<g id="a_${uniqueid}_node9"><a xlink:href="#1284918492942875" xlink:title="com.watch4net.alerting.action.SNMPTrapAction">
<ellipse fill="#4daf4a" stroke="black" cx="884.701" cy="-386.87" rx="97.6615" ry="26.7407"/>
<text text-anchor="middle" x="884.701" y="-390.67" font-family="Times,serif" font-size="14.00" fill="white">ReadReq_Major_</text>
<text text-anchor="middle" x="884.701" y="-375.67" font-family="Times,serif" font-size="14.00" fill="white">Clear</text>
</a>
</g>
</g>
<!-- Read Req Maj
Comp&#45;&gt;ReadReq_Major_
Clear -->
<g id="${uniqueid}_edge5" class="edge"><title>Read Req Maj
Comp:ne&#45;&gt;ReadReq_Major_
Clear:w</title>
<path fill="none" stroke="black" d="M643.291,-372.87C646.137,-375.716 641.34,-379.133 644.291,-381.87 687.881,-422.294 719.227,-390.76 775.649,-387.19"/>
<polygon fill="black" stroke="black" points="775.817,-390.686 785.701,-386.87 775.594,-383.69 775.817,-390.686"/>
<text text-anchor="middle" x="626.291" y="-376.67" font-family="Times,serif" font-size="14.00">false</text>
</g>
<!-- ReadReq_Minor
Trap -->
<g id="${uniqueid}_node10" class="node"><title>ReadReq_Minor
Trap</title>
<g id="a_${uniqueid}_node10"><a xlink:href="#1284918492958725" xlink:title="com.watch4net.alerting.action.SNMPTrapAction">
<ellipse fill="#4daf4a" stroke="black" cx="884.701" cy="-170.87" rx="92.7622" ry="26.7407"/>
<text text-anchor="middle" x="884.701" y="-174.67" font-family="Times,serif" font-size="14.00" fill="white">ReadReq_Minor</text>
<text text-anchor="middle" x="884.701" y="-159.67" font-family="Times,serif" font-size="14.00" fill="white">Trap</text>
</a>
</g>
</g>
<!-- Read Req Minor
Comp&#45;&gt;ReadReq_Minor
Trap -->
<g id="${uniqueid}_edge8" class="edge"><title>Read Req Minor
Comp:se&#45;&gt;ReadReq_Minor
Trap:w</title>
<path fill="none" stroke="black" d="M646.291,-176.87C689.23,-133.932 722.631,-166.812 780.42,-170.537"/>
<polygon fill="black" stroke="black" points="780.592,-174.044 790.701,-170.87 780.819,-167.048 780.592,-174.044"/>
<text text-anchor="middle" x="630.791" y="-165.67" font-family="Times,serif" font-size="14.00">true</text>
</g>
<!-- ReadReq_Minor_
Clear -->
<g id="${uniqueid}_node11" class="node"><title>ReadReq_Minor_
Clear</title>
<g id="a_${uniqueid}_node11"><a xlink:href="#1284918492967387" xlink:title="com.watch4net.alerting.action.SNMPTrapAction">
<ellipse fill="#4daf4a" stroke="black" cx="884.701" cy="-242.87" rx="98.0761" ry="26.7407"/>
<text text-anchor="middle" x="884.701" y="-246.67" font-family="Times,serif" font-size="14.00" fill="white">ReadReq_Minor_</text>
<text text-anchor="middle" x="884.701" y="-231.67" font-family="Times,serif" font-size="14.00" fill="white">Clear</text>
</a>
</g>
</g>
<!-- Read Req Minor
Comp&#45;&gt;ReadReq_Minor_
Clear -->
<g id="${uniqueid}_edge7" class="edge"><title>Read Req Minor
Comp:ne&#45;&gt;ReadReq_Minor_
Clear:w</title>
<path fill="none" stroke="black" d="M644.291,-236.87C646.825,-239.404 642.605,-242.499 645.291,-244.87 679.61,-275.166 702.53,-246.092 748.291,-244.87 760.905,-244.533 766.322,-243.558 775.453,-243.106"/>
<polygon fill="black" stroke="black" points="775.784,-246.599 785.701,-242.87 775.623,-239.601 775.784,-246.599"/>
<text text-anchor="middle" x="627.291" y="-240.67" font-family="Times,serif" font-size="14.00">false</text>
</g>
<!-- ReadReq_
Critical_Clear -->
<g id="${uniqueid}_node6" class="node"><title>ReadReq_
Critical_Clear</title>
<g id="a_${uniqueid}_node6"><a xlink:href="#1284918492918157" xlink:title="com.watch4net.alerting.action.SNMPTrapAction">
<ellipse fill="#4daf4a" stroke="black" cx="884.701" cy="-98.8701" rx="82.9636" ry="26.7407"/>
<text text-anchor="middle" x="884.701" y="-102.67" font-family="Times,serif" font-size="14.00" fill="white">ReadReq_</text>
<text text-anchor="middle" x="884.701" y="-87.6701" font-family="Times,serif" font-size="14.00" fill="white">Critical_Clear</text>
</a>
</g>
</g>
<!-- ReadReq Crit
comp&#45;&gt;ReadReq_
Critical_Clear -->
<g id="${uniqueid}_edge9" class="edge"><title>ReadReq Crit
comp:ne&#45;&gt;ReadReq_
Critical_Clear:w</title>
<path fill="none" stroke="black" d="M643.291,-98.8701C646.137,-101.716 641.293,-105.186 644.291,-107.87 693.54,-151.95 727.483,-104.238 790.355,-99.2783"/>
<polygon fill="black" stroke="black" points="790.846,-102.762 800.701,-98.8701 790.57,-95.7672 790.846,-102.762"/>
<text text-anchor="middle" x="626.291" y="-102.67" font-family="Times,serif" font-size="14.00">false</text>
</g>
<!-- ReadReq_Critical
Trap -->
<g id="${uniqueid}_node7" class="node"><title>ReadReq_Critical
Trap</title>
<g id="a_${uniqueid}_node7"><a xlink:href="#1284918492903952" xlink:title="com.watch4net.alerting.action.SNMPTrapAction">
<ellipse fill="#4daf4a" stroke="black" cx="884.701" cy="-26.8701" rx="100.318" ry="26.7407"/>
<text text-anchor="middle" x="884.701" y="-30.6701" font-family="Times,serif" font-size="14.00" fill="white">ReadReq_Critical</text>
<text text-anchor="middle" x="884.701" y="-15.6701" font-family="Times,serif" font-size="14.00" fill="white">Trap</text>
</a>
</g>
</g>
<!-- ReadReq Crit
comp&#45;&gt;ReadReq_Critical
Trap -->
<g id="${uniqueid}_edge10" class="edge"><title>ReadReq Crit
comp:se&#45;&gt;ReadReq_Critical
Trap:w</title>
<path fill="none" stroke="black" d="M645.291,-40.8701C686.709,0.547662 718.427,-23.7192 774.014,-26.6011"/>
<polygon fill="black" stroke="black" points="774.203,-30.1072 784.291,-26.8701 774.386,-23.1096 774.203,-30.1072"/>
<text text-anchor="middle" x="629.791" y="-29.6701" font-family="Times,serif" font-size="14.00">true</text>
</g>
<!-- Roundoff&#45;&gt;Read Req Case -->
<g id="${uniqueid}_edge11" class="edge"><title>Roundoff:e&#45;&gt;Read Req Case:w</title>
<path fill="none" stroke="black" d="M285.291,-206.87C297.291,-206.87 302.541,-206.87 311.166,-206.87"/>
<polygon fill="black" stroke="black" points="311.291,-210.37 321.291,-206.87 311.291,-203.37 311.291,-210.37"/>
</g>
</g>
</svg>
