<?xml version="1.0" encoding="UTF-8" standalone="no"?>
<!DOCTYPE svg PUBLIC "-//W3C//DTD SVG 1.1//EN"
 "http://www.w3.org/Graphics/SVG/1.1/DTD/svg11.dtd">
<!-- Generated by graphviz version 2.38.0 (20140413.2041)
 -->
<!-- Title: EMC VMAX Alert Definitions/VMAX&#45;Controller/Low Hit Percent Pages: 1 -->
<svg width="904pt" height="265pt"
 viewBox="0.00 0.00 903.77 265.03" xmlns="http://www.w3.org/2000/svg" xmlns:xlink="http://www.w3.org/1999/xlink">
<g id="${uniqueid}" class="graph" transform="scale(1 1) rotate(0) translate(4 261.031)">
<title>EMC VMAX Alert Definitions/VMAX&#45;Controller/Low Hit Percent</title>
<polygon fill="white" stroke="none" points="-4,4 -4,-261.031 899.767,-261.031 899.767,4 -4,4"/>
<!-- ControllerLowHit
Percent_Critical -->
<g id="${uniqueid}_node1" class="node"><title>ControllerLowHit
Percent_Critical</title>
<g id="a_${uniqueid}_node1"><a xlink:href="#2007976427869543" xlink:title="com.watch4net.alerting.operation.comparator.ConstantComparatorOperation">
<polygon fill="#ff7f00" stroke="black" points="507.486,-241.477 364.486,-203.477 507.486,-165.477 650.486,-203.477 507.486,-241.477"/>
<text text-anchor="middle" x="507.486" y="-207.277" font-family="Times,serif" font-size="14.00" fill="white">ControllerLowHit</text>
<text text-anchor="middle" x="507.486" y="-192.277" font-family="Times,serif" font-size="14.00" fill="white">Percent_Critical</text>
</a>
</g>
</g>
<!-- Controller_Low_
Hit_Percent_Crit -->
<g id="${uniqueid}_node4" class="node"><title>Controller_Low_
Hit_Percent_Crit</title>
<g id="a_${uniqueid}_node4"><a xlink:href="#2007976427888468" xlink:title="com.watch4net.alerting.action.SNMPTrapAction">
<ellipse fill="#4daf4a" stroke="black" cx="791.126" cy="-173.477" rx="98.0761" ry="26.7407"/>
<text text-anchor="middle" x="791.126" y="-177.277" font-family="Times,serif" font-size="14.00" fill="white">Controller_Low_</text>
<text text-anchor="middle" x="791.126" y="-162.277" font-family="Times,serif" font-size="14.00" fill="white">Hit_Percent_Crit</text>
</a>
</g>
</g>
<!-- ControllerLowHit
Percent_Critical&#45;&gt;Controller_Low_
Hit_Percent_Crit -->
<g id="${uniqueid}_edge2" class="edge"><title>ControllerLowHit
Percent_Critical:se&#45;&gt;Controller_Low_
Hit_Percent_Crit:w</title>
<path fill="none" stroke="black" d="M538.486,-173.477C584.318,-127.644 620.048,-168.822 681.959,-173.122"/>
<polygon fill="black" stroke="black" points="682.01,-176.626 692.126,-173.477 682.254,-169.63 682.01,-176.626"/>
<text text-anchor="middle" x="522.986" y="-162.277" font-family="Times,serif" font-size="14.00">true</text>
</g>
<!-- SNMP_Clear_Crit -->
<g id="${uniqueid}_node7" class="node"><title>SNMP_Clear_Crit</title>
<g id="a_${uniqueid}_node7"><a xlink:href="#2007976427903004" xlink:title="com.watch4net.alerting.action.SNMPTrapAction">
<ellipse fill="#4daf4a" stroke="black" cx="791.126" cy="-236.477" rx="94.7833" ry="18"/>
<text text-anchor="middle" x="791.126" y="-232.777" font-family="Times,serif" font-size="14.00" fill="white">SNMP_Clear_Crit</text>
</a>
</g>
</g>
<!-- ControllerLowHit
Percent_Critical&#45;&gt;SNMP_Clear_Crit -->
<g id="${uniqueid}_edge1" class="edge"><title>ControllerLowHit
Percent_Critical:ne&#45;&gt;SNMP_Clear_Crit:w</title>
<path fill="none" stroke="black" d="M536.486,-233.477C539.019,-236.01 534.799,-239.105 537.486,-241.477 575.136,-274.714 600.341,-244.276 650.486,-241.477 666.526,-240.581 672.73,-237.889 684.944,-236.872"/>
<polygon fill="black" stroke="black" points="685.27,-240.362 695.126,-236.477 684.998,-233.367 685.27,-240.362"/>
<text text-anchor="middle" x="519.486" y="-237.277" font-family="Times,serif" font-size="14.00">false</text>
</g>
<!-- ControllerLowHit
Percent_Minor -->
<g id="${uniqueid}_node2" class="node"><title>ControllerLowHit
Percent_Minor</title>
<g id="a_${uniqueid}_node2"><a xlink:href="#2007976427912894" xlink:title="com.watch4net.alerting.operation.comparator.ConstantComparatorOperation">
<polygon fill="#ff7f00" stroke="black" points="507.486,-118.477 364.486,-80.4767 507.486,-42.4767 650.486,-80.4767 507.486,-118.477"/>
<text text-anchor="middle" x="507.486" y="-84.2767" font-family="Times,serif" font-size="14.00" fill="white">ControllerLowHit</text>
<text text-anchor="middle" x="507.486" y="-69.2767" font-family="Times,serif" font-size="14.00" fill="white">Percent_Minor</text>
</a>
</g>
</g>
<!-- Controller_Low_
Hit_percent_
Minor -->
<g id="${uniqueid}_node5" class="node"><title>Controller_Low_
Hit_percent_
Minor</title>
<g id="a_${uniqueid}_node5"><a xlink:href="#2007976427931177" xlink:title="com.watch4net.alerting.action.SNMPTrapAction">
<ellipse fill="#4daf4a" stroke="black" cx="791.126" cy="-37.4767" rx="95.4188" ry="37.4533"/>
<text text-anchor="middle" x="791.126" y="-48.7767" font-family="Times,serif" font-size="14.00" fill="white">Controller_Low_</text>
<text text-anchor="middle" x="791.126" y="-33.7767" font-family="Times,serif" font-size="14.00" fill="white">Hit_percent_</text>
<text text-anchor="middle" x="791.126" y="-18.7767" font-family="Times,serif" font-size="14.00" fill="white">Minor</text>
</a>
</g>
</g>
<!-- ControllerLowHit
Percent_Minor&#45;&gt;Controller_Low_
Hit_percent_
Minor -->
<g id="${uniqueid}_edge4" class="edge"><title>ControllerLowHit
Percent_Minor:se&#45;&gt;Controller_Low_
Hit_percent_
Minor:w</title>
<path fill="none" stroke="black" d="M538.486,-50.4767C585.077,-3.8857 620.909,-34.0316 683.795,-37.2134"/>
<polygon fill="black" stroke="black" points="684.04,-40.7207 694.126,-37.4767 684.219,-33.7229 684.04,-40.7207"/>
<text text-anchor="middle" x="522.986" y="-39.2767" font-family="Times,serif" font-size="14.00">true</text>
</g>
<!-- SNMP_Clear_Minor -->
<g id="${uniqueid}_node8" class="node"><title>SNMP_Clear_Minor</title>
<g id="a_${uniqueid}_node8"><a xlink:href="#2007976427950735" xlink:title="com.watch4net.alerting.action.SNMPTrapAction">
<ellipse fill="#4daf4a" stroke="black" cx="791.126" cy="-110.477" rx="104.782" ry="18"/>
<text text-anchor="middle" x="791.126" y="-106.777" font-family="Times,serif" font-size="14.00" fill="white">SNMP_Clear_Minor</text>
</a>
</g>
</g>
<!-- ControllerLowHit
Percent_Minor&#45;&gt;SNMP_Clear_Minor -->
<g id="${uniqueid}_edge3" class="edge"><title>ControllerLowHit
Percent_Minor:ne&#45;&gt;SNMP_Clear_Minor:w</title>
<path fill="none" stroke="black" d="M536.486,-110.477C539.019,-113.01 534.799,-116.105 537.486,-118.477 575.136,-151.714 600.563,-123.957 650.486,-118.477 662.832,-117.121 667.727,-113.226 676.507,-111.419"/>
<polygon fill="black" stroke="black" points="676.859,-114.901 686.486,-110.477 676.201,-107.932 676.859,-114.901"/>
<text text-anchor="middle" x="519.486" y="-114.277" font-family="Times,serif" font-size="14.00">false</text>
</g>
<!-- ControllerWrite
Percent -->
<g id="${uniqueid}_node3" class="node"><title>ControllerWrite
Percent</title>
<g id="a_${uniqueid}_node3"><a xlink:href="#2007976427859446" xlink:title="com.watch4net.alerting.operation.CaseOperation">
<polygon fill="#377eb8" stroke="black" points="328.486,-160.477 198.486,-160.477 198.486,-122.477 328.486,-122.477 328.486,-160.477"/>
<text text-anchor="middle" x="263.486" y="-145.277" font-family="Times,serif" font-size="14.00" fill="white">ControllerWrite</text>
<text text-anchor="middle" x="263.486" y="-130.277" font-family="Times,serif" font-size="14.00" fill="white">Percent</text>
</a>
</g>
</g>
<!-- ControllerWrite
Percent&#45;&gt;ControllerLowHit
Percent_Critical -->
<g id="${uniqueid}_edge5" class="edge"><title>ControllerWrite
Percent:e&#45;&gt;ControllerLowHit
Percent_Critical:w</title>
<path fill="none" stroke="black" d="M328.486,-141.477C356.118,-141.477 338.936,-188.102 354.664,-200.486"/>
<polygon fill="black" stroke="black" points="353.9,-203.912 364.486,-203.477 355.939,-197.216 353.9,-203.912"/>
</g>
<!-- ControllerWrite
Percent&#45;&gt;ControllerLowHit
Percent_Minor -->
<g id="${uniqueid}_edge6" class="edge"><title>ControllerWrite
Percent:e&#45;&gt;ControllerLowHit
Percent_Minor:w</title>
<path fill="none" stroke="black" d="M328.486,-141.477C355.785,-141.477 339.136,-95.6038 354.761,-83.4188"/>
<polygon fill="black" stroke="black" points="355.928,-86.7227 364.486,-80.4767 353.9,-80.0227 355.928,-86.7227"/>
</g>
<!-- LowHitPercent -->
<g id="${uniqueid}_node6" class="node"><title>LowHitPercent</title>
<g id="a_${uniqueid}_node6"><a xlink:href="#2007976427801408" xlink:title="com.watch4net.alerting.operation.FilteredEntryPoint">
<ellipse fill="#984ea3" stroke="black" cx="81.2428" cy="-141.477" rx="81.4863" ry="18"/>
<text text-anchor="middle" x="81.2428" y="-137.777" font-family="Times,serif" font-size="14.00" fill="white">LowHitPercent</text>
</a>
</g>
</g>
<!-- LowHitPercent&#45;&gt;ControllerWrite
Percent -->
<g id="${uniqueid}_edge7" class="edge"><title>LowHitPercent:e&#45;&gt;ControllerWrite
Percent:w</title>
<path fill="none" stroke="black" d="M162.486,-141.477C174.486,-141.477 179.736,-141.477 188.361,-141.477"/>
<polygon fill="black" stroke="black" points="188.486,-144.977 198.486,-141.477 188.486,-137.977 188.486,-144.977"/>
</g>
</g>
</svg>
