<?xml version="1.0" encoding="UTF-8" standalone="no"?>
<!DOCTYPE svg PUBLIC "-//W3C//DTD SVG 1.1//EN"
 "http://www.w3.org/Graphics/SVG/1.1/DTD/svg11.dtd">
<!-- Generated by graphviz version 2.38.0 (20140413.2041)
 -->
<!-- Title: EMC Isilon Alert Definitions/PowerSupplyFailure/PowerSupplyFailure&#45;UnderVoltage Pages: 1 -->
<svg width="849pt" height="261pt"
 viewBox="0.00 0.00 849.44 261.48" xmlns="http://www.w3.org/2000/svg" xmlns:xlink="http://www.w3.org/1999/xlink">
<g id="${uniqueid}" class="graph" transform="scale(1 1) rotate(0) translate(4 257.477)">
<title>EMC Isilon Alert Definitions/PowerSupplyFailure/PowerSupplyFailure&#45;UnderVoltage</title>
<polygon fill="white" stroke="none" points="-4,4 -4,-257.477 845.441,-257.477 845.441,4 -4,4"/>
<!-- PSF&#45;UnderVoltage -->
<g id="${uniqueid}_node1" class="node"><title>PSF&#45;UnderVoltage</title>
<g id="a_${uniqueid}_node1"><a xlink:href="#1418934417002" xlink:title="com.watch4net.alerting.operation.CaseOperation">
<polygon fill="#377eb8" stroke="black" points="334.22,-133 197.22,-133 197.22,-97 334.22,-97 334.22,-133"/>
<text text-anchor="middle" x="265.72" y="-111.3" font-family="Times,serif" font-size="14.00" fill="white">PSF&#45;UnderVoltage</text>
</a>
</g>
</g>
<!-- PowerSupply
Failure&#45;Under
Voltage&#45;Supply 1 -->
<g id="${uniqueid}_node3" class="node"><title>PowerSupply
Failure&#45;Under
Voltage&#45;Supply 1</title>
<g id="a_${uniqueid}_node3"><a xlink:href="#1713869735319627" xlink:title="com.watch4net.alerting.operation.comparator.StringComparatorOperation">
<polygon fill="#ff7f00" stroke="black" points="507.22,-230 370.22,-177 507.22,-124 644.22,-177 507.22,-230"/>
<text text-anchor="middle" x="507.22" y="-188.3" font-family="Times,serif" font-size="14.00" fill="white">PowerSupply</text>
<text text-anchor="middle" x="507.22" y="-173.3" font-family="Times,serif" font-size="14.00" fill="white">Failure&#45;Under</text>
<text text-anchor="middle" x="507.22" y="-158.3" font-family="Times,serif" font-size="14.00" fill="white">Voltage&#45;Supply 1</text>
</a>
</g>
</g>
<!-- PSF&#45;UnderVoltage&#45;&gt;PowerSupply
Failure&#45;Under
Voltage&#45;Supply 1 -->
<g id="${uniqueid}_edge1" class="edge"><title>PSF&#45;UnderVoltage:e&#45;&gt;PowerSupply
Failure&#45;Under
Voltage&#45;Supply 1:w</title>
<path fill="none" stroke="black" d="M334.22,-115C361.852,-115 344.67,-161.625 360.399,-174.01"/>
<polygon fill="black" stroke="black" points="359.634,-177.435 370.22,-177 361.673,-170.739 359.634,-177.435"/>
</g>
<!-- PowerSupply
Failure&#45;Under
Voltage&#45;Supply1 -->
<g id="${uniqueid}_node4" class="node"><title>PowerSupply
Failure&#45;Under
Voltage&#45;Supply1</title>
<g id="a_${uniqueid}_node4"><a xlink:href="#1415291777693" xlink:title="com.watch4net.alerting.operation.comparator.StringComparatorOperation">
<polygon fill="#ff7f00" stroke="black" points="507.22,-106 378.22,-53 507.22,-2.13163e-14 636.22,-53 507.22,-106"/>
<text text-anchor="middle" x="507.22" y="-64.3" font-family="Times,serif" font-size="14.00" fill="white">PowerSupply</text>
<text text-anchor="middle" x="507.22" y="-49.3" font-family="Times,serif" font-size="14.00" fill="white">Failure&#45;Under</text>
<text text-anchor="middle" x="507.22" y="-34.3" font-family="Times,serif" font-size="14.00" fill="white">Voltage&#45;Supply1</text>
</a>
</g>
</g>
<!-- PSF&#45;UnderVoltage&#45;&gt;PowerSupply
Failure&#45;Under
Voltage&#45;Supply1 -->
<g id="${uniqueid}_edge2" class="edge"><title>PSF&#45;UnderVoltage:e&#45;&gt;PowerSupply
Failure&#45;Under
Voltage&#45;Supply1:w</title>
<path fill="none" stroke="black" d="M334.22,-115C363.694,-115 348.671,-67.1065 367.367,-55.5073"/>
<polygon fill="black" stroke="black" points="368.392,-58.8581 377.22,-53 366.666,-52.0743 368.392,-58.8581"/>
</g>
<!-- PowerSupply
Failure&#45;Under
Voltage -->
<g id="${uniqueid}_node2" class="node"><title>PowerSupply
Failure&#45;Under
Voltage</title>
<g id="a_${uniqueid}_node2"><a xlink:href="#1713869735258361" xlink:title="com.watch4net.alerting.operation.FilteredEntryPoint">
<ellipse fill="#984ea3" stroke="black" cx="80.6102" cy="-115" rx="80.7205" ry="37.4533"/>
<text text-anchor="middle" x="80.6102" y="-126.3" font-family="Times,serif" font-size="14.00" fill="white">PowerSupply</text>
<text text-anchor="middle" x="80.6102" y="-111.3" font-family="Times,serif" font-size="14.00" fill="white">Failure&#45;Under</text>
<text text-anchor="middle" x="80.6102" y="-96.3" font-family="Times,serif" font-size="14.00" fill="white">Voltage</text>
</a>
</g>
</g>
<!-- PowerSupply
Failure&#45;Under
Voltage&#45;&gt;PSF&#45;UnderVoltage -->
<g id="${uniqueid}_edge3" class="edge"><title>PowerSupply
Failure&#45;Under
Voltage:e&#45;&gt;PSF&#45;UnderVoltage:w</title>
<path fill="none" stroke="black" d="M161.22,-115C173.22,-115 178.47,-115 187.095,-115"/>
<polygon fill="black" stroke="black" points="187.22,-118.5 197.22,-115 187.22,-111.5 187.22,-118.5"/>
</g>
<!-- PowerSupply
Failure&#45;Under
Voltage1 -->
<g id="${uniqueid}_node5" class="node"><title>PowerSupply
Failure&#45;Under
Voltage1</title>
<g id="a_${uniqueid}_node5"><a xlink:href="#1713869735411688" xlink:title="com.watch4net.alerting.action.SNMPTrapAction">
<ellipse fill="#4daf4a" stroke="black" cx="760.831" cy="-88" rx="80.7205" ry="37.4533"/>
<text text-anchor="middle" x="760.831" y="-99.3" font-family="Times,serif" font-size="14.00" fill="white">PowerSupply</text>
<text text-anchor="middle" x="760.831" y="-84.3" font-family="Times,serif" font-size="14.00" fill="white">Failure&#45;Under</text>
<text text-anchor="middle" x="760.831" y="-69.3" font-family="Times,serif" font-size="14.00" fill="white">Voltage1</text>
</a>
</g>
</g>
<!-- PowerSupply
Failure&#45;Under
Voltage&#45;Supply 1&#45;&gt;PowerSupply
Failure&#45;Under
Voltage1 -->
<g id="${uniqueid}_edge5" class="edge"><title>PowerSupply
Failure&#45;Under
Voltage&#45;Supply 1:se&#45;&gt;PowerSupply
Failure&#45;Under
Voltage1:w</title>
<path fill="none" stroke="black" d="M547.22,-138C578.55,-106.671 604.099,-133.798 644.22,-115 658.652,-108.238 660.243,-95.1077 670.415,-90.0525"/>
<polygon fill="black" stroke="black" points="671.15,-93.4747 680.22,-88 669.715,-86.6231 671.15,-93.4747"/>
<text text-anchor="middle" x="531.72" y="-126.8" font-family="Times,serif" font-size="14.00">true</text>
</g>
<!-- PowerSupply
Failure&#45;Under
Voltage2 -->
<g id="${uniqueid}_node6" class="node"><title>PowerSupply
Failure&#45;Under
Voltage2</title>
<g id="a_${uniqueid}_node6"><a xlink:href="#1713869735382388" xlink:title="com.watch4net.alerting.action.SNMPTrapAction">
<ellipse fill="#4daf4a" stroke="black" cx="760.831" cy="-216" rx="80.7205" ry="37.4533"/>
<text text-anchor="middle" x="760.831" y="-227.3" font-family="Times,serif" font-size="14.00" fill="white">PowerSupply</text>
<text text-anchor="middle" x="760.831" y="-212.3" font-family="Times,serif" font-size="14.00" fill="white">Failure&#45;Under</text>
<text text-anchor="middle" x="760.831" y="-197.3" font-family="Times,serif" font-size="14.00" fill="white">Voltage2</text>
</a>
</g>
</g>
<!-- PowerSupply
Failure&#45;Under
Voltage&#45;Supply 1&#45;&gt;PowerSupply
Failure&#45;Under
Voltage2 -->
<g id="${uniqueid}_edge4" class="edge"><title>PowerSupply
Failure&#45;Under
Voltage&#45;Supply 1:ne&#45;&gt;PowerSupply
Failure&#45;Under
Voltage2:w</title>
<path fill="none" stroke="black" d="M545.22,-216C547.426,-218.205 543.938,-227.875 546.22,-230 578.097,-259.681 601.412,-238.031 644.22,-230 657.139,-227.577 661.315,-220.657 670.268,-217.547"/>
<polygon fill="black" stroke="black" points="670.877,-220.995 680.22,-216 669.801,-214.078 670.877,-220.995"/>
<text text-anchor="middle" x="526.22" y="-219.8" font-family="Times,serif" font-size="14.00">false</text>
</g>
<!-- PowerSupply
Failure&#45;Under
Voltage&#45;Supply1&#45;&gt;PowerSupply
Failure&#45;Under
Voltage1 -->
<g id="${uniqueid}_edge6" class="edge"><title>PowerSupply
Failure&#45;Under
Voltage&#45;Supply1:e&#45;&gt;PowerSupply
Failure&#45;Under
Voltage1:w</title>
<path fill="none" stroke="black" d="M637.22,-53C657.819,-53 656.808,-77.4577 670.316,-85.4829"/>
<polygon fill="black" stroke="black" points="669.666,-88.9289 680.22,-88 671.391,-82.1446 669.666,-88.9289"/>
<text text-anchor="middle" x="652.72" y="-41.8" font-family="Times,serif" font-size="14.00">true</text>
</g>
</g>
</svg>
