<?xml version="1.0" encoding="UTF-8" standalone="no"?>
<!DOCTYPE svg PUBLIC "-//W3C//DTD SVG 1.1//EN"
 "http://www.w3.org/Graphics/SVG/1.1/DTD/svg11.dtd">
<!-- Generated by graphviz version 2.38.0 (20140413.2041)
 -->
<!-- Title: Physical Hosts Alert Definitions/Lun Health Pages: 1 -->
<svg width="647pt" height="84pt"
 viewBox="0.00 0.00 646.98 84.00" xmlns="http://www.w3.org/2000/svg" xmlns:xlink="http://www.w3.org/1999/xlink">
<g id="${uniqueid}" class="graph" transform="scale(1 1) rotate(0) translate(4 80)">
<title>Physical Hosts Alert Definitions/Lun Health</title>
<polygon fill="white" stroke="none" points="-4,4 -4,-80 642.975,-80 642.975,4 -4,4"/>
<!-- Lun Unavailable -->
<g id="${uniqueid}_node1" class="node"><title>Lun Unavailable</title>
<g id="a_${uniqueid}_node1"><a xlink:href="#430683164346236" xlink:title="com.watch4net.alerting.operation.FilteredEntryPoint">
<ellipse fill="#984ea3" stroke="black" cx="86.4423" cy="-38" rx="86.3847" ry="18"/>
<text text-anchor="middle" x="86.4423" y="-34.3" font-family="Times,serif" font-size="14.00" fill="white">Lun Unavailable</text>
</a>
</g>
</g>
<!-- LunHealth
Comparator -->
<g id="${uniqueid}_node3" class="node"><title>LunHealth
Comparator</title>
<g id="a_${uniqueid}_node3"><a xlink:href="#1386075827308" xlink:title="com.watch4net.alerting.operation.comparator.StringComparatorOperation">
<polygon fill="#ff7f00" stroke="black" points="311.885,-76 208.885,-38 311.885,-7.10543e-15 414.885,-38 311.885,-76"/>
<text text-anchor="middle" x="311.885" y="-41.8" font-family="Times,serif" font-size="14.00" fill="white">LunHealth</text>
<text text-anchor="middle" x="311.885" y="-26.8" font-family="Times,serif" font-size="14.00" fill="white">Comparator</text>
</a>
</g>
</g>
<!-- Lun Unavailable&#45;&gt;LunHealth
Comparator -->
<g id="${uniqueid}_edge1" class="edge"><title>Lun Unavailable:e&#45;&gt;LunHealth
Comparator:w</title>
<path fill="none" stroke="black" d="M172.885,-38C184.885,-38 190.135,-38 198.76,-38"/>
<polygon fill="black" stroke="black" points="198.885,-41.5001 208.885,-38 198.885,-34.5001 198.885,-41.5001"/>
</g>
<!-- Lun Unavailable
Trap -->
<g id="${uniqueid}_node2" class="node"><title>Lun Unavailable
Trap</title>
<g id="a_${uniqueid}_node2"><a xlink:href="#430683164392542" xlink:title="com.watch4net.alerting.action.SNMPTrapAction">
<ellipse fill="#4daf4a" stroke="black" cx="544.93" cy="-38" rx="94.0904" ry="26.7407"/>
<text text-anchor="middle" x="544.93" y="-41.8" font-family="Times,serif" font-size="14.00" fill="white">Lun Unavailable</text>
<text text-anchor="middle" x="544.93" y="-26.8" font-family="Times,serif" font-size="14.00" fill="white">Trap</text>
</a>
</g>
</g>
<!-- LunHealth
Comparator&#45;&gt;Lun Unavailable
Trap -->
<g id="${uniqueid}_edge2" class="edge"><title>LunHealth
Comparator:e&#45;&gt;Lun Unavailable
Trap:w</title>
<path fill="none" stroke="black" d="M414.885,-38C426.885,-38 432.135,-38 440.76,-38"/>
<polygon fill="black" stroke="black" points="440.885,-41.5001 450.885,-38 440.885,-34.5001 440.885,-41.5001"/>
<text text-anchor="middle" x="430.385" y="-26.8" font-family="Times,serif" font-size="14.00">true</text>
</g>
</g>
</svg>
