<?xml version="1.0" encoding="UTF-8" standalone="no"?>
<!DOCTYPE svg PUBLIC "-//W3C//DTD SVG 1.1//EN"
 "http://www.w3.org/Graphics/SVG/1.1/DTD/svg11.dtd">
<!-- Generated by graphviz version 2.38.0 (20140413.2041)
 -->
<!-- Title: EMC VMAX Alert Definitions/VMAX&#45;Array/High Read Bandwidth Pages: 1 -->
<svg width="998pt" height="424pt"
 viewBox="0.00 0.00 998.19 424.35" xmlns="http://www.w3.org/2000/svg" xmlns:xlink="http://www.w3.org/1999/xlink">
<g id="${uniqueid}" class="graph" transform="scale(1 1) rotate(0) translate(4 420.347)">
<title>EMC VMAX Alert Definitions/VMAX&#45;Array/High Read Bandwidth</title>
<polygon fill="white" stroke="none" points="-4,4 -4,-420.347 994.193,-420.347 994.193,4 -4,4"/>
<!-- Comparator Read
Throughput_CRIT -->
<g id="${uniqueid}_node1" class="node"><title>Comparator Read
Throughput_CRIT</title>
<g id="a_${uniqueid}_node1"><a xlink:href="#96890865864067" xlink:title="com.watch4net.alerting.operation.comparator.ConstantComparatorOperation">
<polygon fill="#ff7f00" stroke="black" points="561.09,-364.87 416.09,-326.87 561.09,-288.87 706.09,-326.87 561.09,-364.87"/>
<text text-anchor="middle" x="561.09" y="-330.67" font-family="Times,serif" font-size="14.00" fill="white">Comparator Read</text>
<text text-anchor="middle" x="561.09" y="-315.67" font-family="Times,serif" font-size="14.00" fill="white">Throughput_CRIT</text>
</a>
</g>
</g>
<!-- ReadThroughput_
Crit -->
<g id="${uniqueid}_node6" class="node"><title>ReadThroughput_
Crit</title>
<g id="a_${uniqueid}_node6"><a xlink:href="#96890865896422" xlink:title="com.watch4net.alerting.action.SNMPTrapAction">
<ellipse fill="#4daf4a" stroke="black" cx="875.642" cy="-296.87" rx="101.647" ry="26.7407"/>
<text text-anchor="middle" x="875.642" y="-300.67" font-family="Times,serif" font-size="14.00" fill="white">ReadThroughput_</text>
<text text-anchor="middle" x="875.642" y="-285.67" font-family="Times,serif" font-size="14.00" fill="white">Crit</text>
</a>
</g>
</g>
<!-- Comparator Read
Throughput_CRIT&#45;&gt;ReadThroughput_
Crit -->
<g id="${uniqueid}_edge2" class="edge"><title>Comparator Read
Throughput_CRIT:se&#45;&gt;ReadThroughput_
Crit:w</title>
<path fill="none" stroke="black" d="M592.09,-296.87C646.394,-242.566 688.629,-292.203 762.497,-296.569"/>
<polygon fill="black" stroke="black" points="762.542,-300.072 772.642,-296.87 762.75,-293.075 762.542,-300.072"/>
<text text-anchor="middle" x="576.59" y="-285.67" font-family="Times,serif" font-size="14.00">true</text>
</g>
<!-- SNMP_Read
Throughput_CRIT_
Clear -->
<g id="${uniqueid}_node8" class="node"><title>SNMP_Read
Throughput_CRIT_
Clear</title>
<g id="a_${uniqueid}_node8"><a xlink:href="#96890865923642" xlink:title="com.watch4net.alerting.action.SNMPTrapAction">
<ellipse fill="#4daf4a" stroke="black" cx="875.642" cy="-378.87" rx="107.46" ry="37.4533"/>
<text text-anchor="middle" x="875.642" y="-390.17" font-family="Times,serif" font-size="14.00" fill="white">SNMP_Read</text>
<text text-anchor="middle" x="875.642" y="-375.17" font-family="Times,serif" font-size="14.00" fill="white">Throughput_CRIT_</text>
<text text-anchor="middle" x="875.642" y="-360.17" font-family="Times,serif" font-size="14.00" fill="white">Clear</text>
</a>
</g>
</g>
<!-- Comparator Read
Throughput_CRIT&#45;&gt;SNMP_Read
Throughput_CRIT_
Clear -->
<g id="${uniqueid}_edge1" class="edge"><title>Comparator Read
Throughput_CRIT:ne&#45;&gt;SNMP_Read
Throughput_CRIT_
Clear:w</title>
<path fill="none" stroke="black" d="M590.09,-356.87C592.624,-359.404 588.501,-362.394 591.09,-364.87 645.12,-416.533 684.682,-382.282 756.316,-379.101"/>
<polygon fill="black" stroke="black" points="756.722,-382.593 766.642,-378.87 756.566,-375.594 756.722,-382.593"/>
<text text-anchor="middle" x="573.09" y="-360.67" font-family="Times,serif" font-size="14.00">false</text>
</g>
<!-- Comparator Read
Throughput_MINOR -->
<g id="${uniqueid}_node2" class="node"><title>Comparator Read
Throughput_MINOR</title>
<g id="a_${uniqueid}_node2"><a xlink:href="#96890866003192" xlink:title="com.watch4net.alerting.operation.comparator.ConstantComparatorOperation">
<polygon fill="#ff7f00" stroke="black" points="561.09,-230.87 397.09,-192.87 561.09,-154.87 725.09,-192.87 561.09,-230.87"/>
<text text-anchor="middle" x="561.09" y="-196.67" font-family="Times,serif" font-size="14.00" fill="white">Comparator Read</text>
<text text-anchor="middle" x="561.09" y="-181.67" font-family="Times,serif" font-size="14.00" fill="white">Throughput_MINOR</text>
</a>
</g>
</g>
<!-- SNMP_Throughput_
Minor_Clear -->
<g id="${uniqueid}_node10" class="node"><title>SNMP_Throughput_
Minor_Clear</title>
<g id="a_${uniqueid}_node10"><a xlink:href="#96890866026398" xlink:title="com.watch4net.alerting.action.SNMPTrapAction">
<ellipse fill="#4daf4a" stroke="black" cx="875.642" cy="-224.87" rx="114.603" ry="26.7407"/>
<text text-anchor="middle" x="875.642" y="-228.67" font-family="Times,serif" font-size="14.00" fill="white">SNMP_Throughput_</text>
<text text-anchor="middle" x="875.642" y="-213.67" font-family="Times,serif" font-size="14.00" fill="white">Minor_Clear</text>
</a>
</g>
</g>
<!-- Comparator Read
Throughput_MINOR&#45;&gt;SNMP_Throughput_
Minor_Clear -->
<g id="${uniqueid}_edge3" class="edge"><title>Comparator Read
Throughput_MINOR:ne&#45;&gt;SNMP_Throughput_
Minor_Clear:w</title>
<path fill="none" stroke="black" d="M591.09,-223.87C593.313,-226.092 589.716,-228.811 592.09,-230.87 636.746,-269.6 666.181,-235.746 725.09,-230.87 737.214,-229.867 742.278,-226.993 750.896,-225.619"/>
<polygon fill="black" stroke="black" points="751.374,-229.094 761.09,-224.87 750.861,-222.113 751.374,-229.094"/>
<text text-anchor="middle" x="574.09" y="-227.67" font-family="Times,serif" font-size="14.00">false</text>
</g>
<!-- Throughput_Minor -->
<g id="${uniqueid}_node11" class="node"><title>Throughput_Minor</title>
<g id="a_${uniqueid}_node11"><a xlink:href="#96890866048882" xlink:title="com.watch4net.alerting.action.SNMPTrapAction">
<ellipse fill="#4daf4a" stroke="black" cx="875.642" cy="-161.87" rx="98.5829" ry="18"/>
<text text-anchor="middle" x="875.642" y="-158.17" font-family="Times,serif" font-size="14.00" fill="white">Throughput_Minor</text>
</a>
</g>
</g>
<!-- Comparator Read
Throughput_MINOR&#45;&gt;Throughput_Minor -->
<g id="${uniqueid}_edge4" class="edge"><title>Comparator Read
Throughput_MINOR:se&#45;&gt;Throughput_Minor:w</title>
<path fill="none" stroke="black" d="M593.09,-161.87C647.996,-106.965 690.698,-157.152 765.384,-161.566"/>
<polygon fill="black" stroke="black" points="765.542,-165.072 775.642,-161.87 765.75,-158.075 765.542,-165.072"/>
<text text-anchor="middle" x="577.59" y="-150.67" font-family="Times,serif" font-size="14.00">true</text>
</g>
<!-- Comparator Read
Throughput_Major -->
<g id="${uniqueid}_node3" class="node"><title>Comparator Read
Throughput_Major</title>
<g id="a_${uniqueid}_node3"><a xlink:href="#96890865941232" xlink:title="com.watch4net.alerting.operation.comparator.ConstantComparatorOperation">
<polygon fill="#ff7f00" stroke="black" points="561.09,-106.87 410.09,-68.8701 561.09,-30.8701 712.09,-68.8701 561.09,-106.87"/>
<text text-anchor="middle" x="561.09" y="-72.6701" font-family="Times,serif" font-size="14.00" fill="white">Comparator Read</text>
<text text-anchor="middle" x="561.09" y="-57.6701" font-family="Times,serif" font-size="14.00" fill="white">Throughput_Major</text>
</a>
</g>
</g>
<!-- ReadThroughput_
Major -->
<g id="${uniqueid}_node7" class="node"><title>ReadThroughput_
Major</title>
<g id="a_${uniqueid}_node7"><a xlink:href="#96890865985335" xlink:title="com.watch4net.alerting.action.SNMPTrapAction">
<ellipse fill="#4daf4a" stroke="black" cx="875.642" cy="-26.8701" rx="101.647" ry="26.7407"/>
<text text-anchor="middle" x="875.642" y="-30.6701" font-family="Times,serif" font-size="14.00" fill="white">ReadThroughput_</text>
<text text-anchor="middle" x="875.642" y="-15.6701" font-family="Times,serif" font-size="14.00" fill="white">Major</text>
</a>
</g>
</g>
<!-- Comparator Read
Throughput_Major&#45;&gt;ReadThroughput_
Major -->
<g id="${uniqueid}_edge6" class="edge"><title>Comparator Read
Throughput_Major:se&#45;&gt;ReadThroughput_
Major:w</title>
<path fill="none" stroke="black" d="M592.09,-38.8701C646.514,15.5534 688.477,-23.2021 762.477,-26.6332"/>
<polygon fill="black" stroke="black" points="762.563,-30.136 772.642,-26.8701 762.726,-23.1379 762.563,-30.136"/>
<text text-anchor="middle" x="576.59" y="-27.6701" font-family="Times,serif" font-size="14.00">true</text>
</g>
<!-- SNMP_Throughput_
Major_Clear -->
<g id="${uniqueid}_node9" class="node"><title>SNMP_Throughput_
Major_Clear</title>
<g id="a_${uniqueid}_node9"><a xlink:href="#96890865962894" xlink:title="com.watch4net.alerting.action.SNMPTrapAction">
<ellipse fill="#4daf4a" stroke="black" cx="875.642" cy="-98.8701" rx="114.603" ry="26.7407"/>
<text text-anchor="middle" x="875.642" y="-102.67" font-family="Times,serif" font-size="14.00" fill="white">SNMP_Throughput_</text>
<text text-anchor="middle" x="875.642" y="-87.6701" font-family="Times,serif" font-size="14.00" fill="white">Major_Clear</text>
</a>
</g>
</g>
<!-- Comparator Read
Throughput_Major&#45;&gt;SNMP_Throughput_
Major_Clear -->
<g id="${uniqueid}_edge5" class="edge"><title>Comparator Read
Throughput_Major:ne&#45;&gt;SNMP_Throughput_
Major_Clear:w</title>
<path fill="none" stroke="black" d="M590.09,-98.8701C592.624,-101.404 588.404,-104.499 591.09,-106.87 631.406,-142.46 658.489,-111.217 712.09,-106.87 730.304,-105.393 736.822,-100.876 751.057,-99.3669"/>
<polygon fill="black" stroke="black" points="751.276,-102.86 761.09,-98.8701 750.93,-95.869 751.276,-102.86"/>
<text text-anchor="middle" x="573.09" y="-102.67" font-family="Times,serif" font-size="14.00">false</text>
</g>
<!-- Read bandwidth
of Array filter -->
<g id="${uniqueid}_node4" class="node"><title>Read bandwidth
of Array filter</title>
<g id="a_${uniqueid}_node4"><a xlink:href="#96890865785275" xlink:title="com.watch4net.alerting.operation.FilteredEntryPoint">
<ellipse fill="#984ea3" stroke="black" cx="94.0452" cy="-192.87" rx="94.0904" ry="26.7407"/>
<text text-anchor="middle" x="94.0452" y="-196.67" font-family="Times,serif" font-size="14.00" fill="white">Read bandwidth</text>
<text text-anchor="middle" x="94.0452" y="-181.67" font-family="Times,serif" font-size="14.00" fill="white">of Array filter</text>
</a>
</g>
</g>
<!-- ReadThroughput
Case -->
<g id="${uniqueid}_node5" class="node"><title>ReadThroughput
Case</title>
<g id="a_${uniqueid}_node5"><a xlink:href="#96890865845398" xlink:title="com.watch4net.alerting.operation.CaseOperation">
<polygon fill="#377eb8" stroke="black" points="361.09,-211.87 224.09,-211.87 224.09,-173.87 361.09,-173.87 361.09,-211.87"/>
<text text-anchor="middle" x="292.59" y="-196.67" font-family="Times,serif" font-size="14.00" fill="white">ReadThroughput</text>
<text text-anchor="middle" x="292.59" y="-181.67" font-family="Times,serif" font-size="14.00" fill="white">Case</text>
</a>
</g>
</g>
<!-- Read bandwidth
of Array filter&#45;&gt;ReadThroughput
Case -->
<g id="${uniqueid}_edge7" class="edge"><title>Read bandwidth
of Array filter:e&#45;&gt;ReadThroughput
Case:w</title>
<path fill="none" stroke="black" d="M188.09,-192.87C200.09,-192.87 205.34,-192.87 213.965,-192.87"/>
<polygon fill="black" stroke="black" points="214.09,-196.37 224.09,-192.87 214.09,-189.37 214.09,-196.37"/>
</g>
<!-- ReadThroughput
Case&#45;&gt;Comparator Read
Throughput_CRIT -->
<g id="${uniqueid}_edge8" class="edge"><title>ReadThroughput
Case:e&#45;&gt;Comparator Read
Throughput_CRIT:w</title>
<path fill="none" stroke="black" d="M361.09,-192.87C421.538,-192.87 359.126,-311.627 405.176,-325.544"/>
<polygon fill="black" stroke="black" points="404.715,-329.013 415.09,-326.87 405.643,-322.075 404.715,-329.013"/>
</g>
<!-- ReadThroughput
Case&#45;&gt;Comparator Read
Throughput_MINOR -->
<g id="${uniqueid}_edge9" class="edge"><title>ReadThroughput
Case:e&#45;&gt;Comparator Read
Throughput_MINOR:w</title>
<path fill="none" stroke="black" d="M361.09,-192.87C373.09,-192.87 378.34,-192.87 386.965,-192.87"/>
<polygon fill="black" stroke="black" points="387.09,-196.37 397.09,-192.87 387.09,-189.37 387.09,-196.37"/>
</g>
<!-- ReadThroughput
Case&#45;&gt;Comparator Read
Throughput_Major -->
<g id="${uniqueid}_edge10" class="edge"><title>ReadThroughput
Case:e&#45;&gt;Comparator Read
Throughput_Major:w</title>
<path fill="none" stroke="black" d="M361.09,-192.87C416.262,-192.87 358.747,-84.792 398.952,-70.4379"/>
<polygon fill="black" stroke="black" points="399.743,-73.8573 409.09,-68.8701 398.673,-66.9395 399.743,-73.8573"/>
</g>
</g>
</svg>
