<?xml version="1.0" encoding="UTF-8" standalone="no"?>
<!DOCTYPE svg PUBLIC "-//W3C//DTD SVG 1.1//EN"
 "http://www.w3.org/Graphics/SVG/1.1/DTD/svg11.dtd">
<!-- Generated by graphviz version 2.38.0 (20140413.2041)
 -->
<!-- Title: IBMDS8k Alert Definitions/IBMDS8k&#45;Lun/Write Bandwidth Pages: 1 -->
<svg width="1010pt" height="422pt"
 viewBox="0.00 0.00 1010.25 421.74" xmlns="http://www.w3.org/2000/svg" xmlns:xlink="http://www.w3.org/1999/xlink">
<g id="${uniqueid}" class="graph" transform="scale(1 1) rotate(0) translate(4 417.74)">
<title>IBMDS8k Alert Definitions/IBMDS8k&#45;Lun/Write Bandwidth</title>
<polygon fill="white" stroke="none" points="-4,4 -4,-417.74 1006.25,-417.74 1006.25,4 -4,4"/>
<!-- LUN write b/w
entry -->
<g id="${uniqueid}_node1" class="node"><title>LUN write b/w
entry</title>
<g id="a_${uniqueid}_node1"><a xlink:href="#1537961999891726" xlink:title="com.watch4net.alerting.operation.FilteredEntryPoint">
<ellipse fill="#984ea3" stroke="black" cx="86.267" cy="-206.87" rx="86.0347" ry="26.7407"/>
<text text-anchor="middle" x="86.267" y="-210.67" font-family="Times,serif" font-size="14.00" fill="white">LUN write b/w</text>
<text text-anchor="middle" x="86.267" y="-195.67" font-family="Times,serif" font-size="14.00" fill="white">entry</text>
</a>
</g>
</g>
<!-- Roundoff -->
<g id="${uniqueid}_node2" class="node"><title>Roundoff</title>
<g id="a_${uniqueid}_node2"><a xlink:href="#1441790967761" xlink:title="com.watch4net.alerting.operation.math.ConstantMathOperation">
<polygon fill="#377eb8" stroke="black" points="289.534,-224.87 208.534,-224.87 208.534,-188.87 289.534,-188.87 289.534,-224.87"/>
<text text-anchor="middle" x="249.034" y="-203.17" font-family="Times,serif" font-size="14.00" fill="white">Roundoff</text>
</a>
</g>
</g>
<!-- LUN write b/w
entry&#45;&gt;Roundoff -->
<g id="${uniqueid}_edge1" class="edge"><title>LUN write b/w
entry:e&#45;&gt;Roundoff:w</title>
<path fill="none" stroke="black" d="M172.534,-206.87C184.534,-206.87 189.784,-206.87 198.409,-206.87"/>
<polygon fill="black" stroke="black" points="198.534,-210.37 208.534,-206.87 198.534,-203.37 198.534,-210.37"/>
</g>
<!-- Write b/w Case -->
<g id="${uniqueid}_node7" class="node"><title>Write b/w Case</title>
<g id="a_${uniqueid}_node7"><a xlink:href="#1537961999935236" xlink:title="com.watch4net.alerting.operation.CaseOperation">
<polygon fill="#377eb8" stroke="black" points="451.534,-224.87 325.534,-224.87 325.534,-188.87 451.534,-188.87 451.534,-224.87"/>
<text text-anchor="middle" x="388.534" y="-203.17" font-family="Times,serif" font-size="14.00" fill="white">Write b/w Case</text>
</a>
</g>
</g>
<!-- Roundoff&#45;&gt;Write b/w Case -->
<g id="${uniqueid}_edge2" class="edge"><title>Roundoff:e&#45;&gt;Write b/w Case:w</title>
<path fill="none" stroke="black" d="M289.534,-206.87C301.534,-206.87 306.784,-206.87 315.409,-206.87"/>
<polygon fill="black" stroke="black" points="315.534,-210.37 325.534,-206.87 315.534,-203.37 315.534,-210.37"/>
</g>
<!-- Write B/W_
Critical Trap -->
<g id="${uniqueid}_node3" class="node"><title>Write B/W_
Critical Trap</title>
<g id="a_${uniqueid}_node3"><a xlink:href="#1537961999964095" xlink:title="com.watch4net.alerting.action.SNMPTrapAction">
<ellipse fill="#4daf4a" stroke="black" cx="896.893" cy="-314.87" rx="76.2353" ry="26.7407"/>
<text text-anchor="middle" x="896.893" y="-318.67" font-family="Times,serif" font-size="14.00" fill="white">Write B/W_</text>
<text text-anchor="middle" x="896.893" y="-303.67" font-family="Times,serif" font-size="14.00" fill="white">Critical Trap</text>
</a>
</g>
</g>
<!-- Write B/W_
Critical_Clear -->
<g id="${uniqueid}_node4" class="node"><title>Write B/W_
Critical_Clear</title>
<g id="a_${uniqueid}_node4"><a xlink:href="#1537961999990227" xlink:title="com.watch4net.alerting.action.SNMPTrapAction">
<ellipse fill="#4daf4a" stroke="black" cx="896.893" cy="-386.87" rx="82.9636" ry="26.7407"/>
<text text-anchor="middle" x="896.893" y="-390.67" font-family="Times,serif" font-size="14.00" fill="white">Write B/W_</text>
<text text-anchor="middle" x="896.893" y="-375.67" font-family="Times,serif" font-size="14.00" fill="white">Critical_Clear</text>
</a>
</g>
</g>
<!-- Write B/W_Major
Trap -->
<g id="${uniqueid}_node5" class="node"><title>Write B/W_Major
Trap</title>
<g id="a_${uniqueid}_node5"><a xlink:href="#1537962000068457" xlink:title="com.watch4net.alerting.action.SNMPTrapAction">
<ellipse fill="#4daf4a" stroke="black" cx="896.893" cy="-170.87" rx="99.9045" ry="26.7407"/>
<text text-anchor="middle" x="896.893" y="-174.67" font-family="Times,serif" font-size="14.00" fill="white">Write B/W_Major</text>
<text text-anchor="middle" x="896.893" y="-159.67" font-family="Times,serif" font-size="14.00" fill="white">Trap</text>
</a>
</g>
</g>
<!-- Write B/W_Major_
Clear -->
<g id="${uniqueid}_node6" class="node"><title>Write B/W_Major_
Clear</title>
<g id="a_${uniqueid}_node6"><a xlink:href="#1537962000091428" xlink:title="com.watch4net.alerting.action.SNMPTrapAction">
<ellipse fill="#4daf4a" stroke="black" cx="896.893" cy="-242.87" rx="105.218" ry="26.7407"/>
<text text-anchor="middle" x="896.893" y="-246.67" font-family="Times,serif" font-size="14.00" fill="white">Write B/W_Major_</text>
<text text-anchor="middle" x="896.893" y="-231.67" font-family="Times,serif" font-size="14.00" fill="white">Clear</text>
</a>
</g>
</g>
<!-- Write b/w Crit
comp -->
<g id="${uniqueid}_node8" class="node"><title>Write b/w Crit
comp</title>
<g id="a_${uniqueid}_node8"><a xlink:href="#1537961999944749" xlink:title="com.watch4net.alerting.operation.comparator.ConstantComparatorOperation">
<polygon fill="#ff7f00" stroke="black" points="621.534,-381.87 502.534,-343.87 621.534,-305.87 740.534,-343.87 621.534,-381.87"/>
<text text-anchor="middle" x="621.534" y="-347.67" font-family="Times,serif" font-size="14.00" fill="white">Write b/w Crit</text>
<text text-anchor="middle" x="621.534" y="-332.67" font-family="Times,serif" font-size="14.00" fill="white">comp</text>
</a>
</g>
</g>
<!-- Write b/w Case&#45;&gt;Write b/w Crit
comp -->
<g id="${uniqueid}_edge3" class="edge"><title>Write b/w Case:e&#45;&gt;Write b/w Crit
comp:w</title>
<path fill="none" stroke="black" d="M451.534,-206.87C512.553,-206.87 445.553,-328.286 491.57,-342.514"/>
<polygon fill="black" stroke="black" points="491.153,-345.99 501.534,-343.87 492.097,-339.054 491.153,-345.99"/>
</g>
<!-- Write b/w Maj
Comp -->
<g id="${uniqueid}_node9" class="node"><title>Write b/w Maj
Comp</title>
<g id="a_${uniqueid}_node9"><a xlink:href="#1537962000037505" xlink:title="com.watch4net.alerting.operation.comparator.ConstantComparatorOperation">
<polygon fill="#ff7f00" stroke="black" points="621.534,-244.87 502.534,-206.87 621.534,-168.87 740.534,-206.87 621.534,-244.87"/>
<text text-anchor="middle" x="621.534" y="-210.67" font-family="Times,serif" font-size="14.00" fill="white">Write b/w Maj</text>
<text text-anchor="middle" x="621.534" y="-195.67" font-family="Times,serif" font-size="14.00" fill="white">Comp</text>
</a>
</g>
</g>
<!-- Write b/w Case&#45;&gt;Write b/w Maj
Comp -->
<g id="${uniqueid}_edge4" class="edge"><title>Write b/w Case:e&#45;&gt;Write b/w Maj
Comp:w</title>
<path fill="none" stroke="black" d="M451.534,-206.87C469.937,-206.87 476.91,-206.87 491.384,-206.87"/>
<polygon fill="black" stroke="black" points="491.534,-210.37 501.534,-206.87 491.534,-203.37 491.534,-210.37"/>
</g>
<!-- Write b/w Minor
Comp -->
<g id="${uniqueid}_node10" class="node"><title>Write b/w Minor
Comp</title>
<g id="a_${uniqueid}_node10"><a xlink:href="#1537962000111143" xlink:title="com.watch4net.alerting.operation.comparator.ConstantComparatorOperation">
<polygon fill="#ff7f00" stroke="black" points="621.534,-106.87 487.534,-68.8701 621.534,-30.8701 755.534,-68.8701 621.534,-106.87"/>
<text text-anchor="middle" x="621.534" y="-72.6701" font-family="Times,serif" font-size="14.00" fill="white">Write b/w Minor</text>
<text text-anchor="middle" x="621.534" y="-57.6701" font-family="Times,serif" font-size="14.00" fill="white">Comp</text>
</a>
</g>
</g>
<!-- Write b/w Case&#45;&gt;Write b/w Minor
Comp -->
<g id="${uniqueid}_edge5" class="edge"><title>Write b/w Case:e&#45;&gt;Write b/w Minor
Comp:w</title>
<path fill="none" stroke="black" d="M451.534,-206.87C510.958,-206.87 434.892,-85.581 477.38,-70.4199"/>
<polygon fill="black" stroke="black" points="478.177,-73.839 487.534,-68.8701 477.12,-66.9191 478.177,-73.839"/>
</g>
<!-- Write b/w Crit
comp&#45;&gt;Write B/W_
Critical Trap -->
<g id="${uniqueid}_edge7" class="edge"><title>Write b/w Crit
comp:se&#45;&gt;Write B/W_
Critical Trap:w</title>
<path fill="none" stroke="black" d="M651.534,-314.87C701.664,-264.74 740.699,-310.17 808.652,-314.54"/>
<polygon fill="black" stroke="black" points="808.785,-318.046 818.893,-314.87 809.011,-311.049 808.785,-318.046"/>
<text text-anchor="middle" x="636.034" y="-303.67" font-family="Times,serif" font-size="14.00">true</text>
</g>
<!-- Write b/w Crit
comp&#45;&gt;Write B/W_
Critical_Clear -->
<g id="${uniqueid}_edge6" class="edge"><title>Write b/w Crit
comp:ne&#45;&gt;Write B/W_
Critical_Clear:w</title>
<path fill="none" stroke="black" d="M649.534,-372.87C652.38,-375.716 647.577,-379.14 650.534,-381.87 700.99,-428.449 737.036,-390.942 802.563,-387.169"/>
<polygon fill="black" stroke="black" points="802.998,-390.658 812.893,-386.87 802.796,-383.661 802.998,-390.658"/>
<text text-anchor="middle" x="632.534" y="-376.67" font-family="Times,serif" font-size="14.00">false</text>
</g>
<!-- Write b/w Maj
Comp&#45;&gt;Write B/W_Major
Trap -->
<g id="${uniqueid}_edge9" class="edge"><title>Write b/w Maj
Comp:se&#45;&gt;Write B/W_Major
Trap:w</title>
<path fill="none" stroke="black" d="M651.534,-177.87C694.471,-134.933 727.83,-166.919 785.613,-170.545"/>
<polygon fill="black" stroke="black" points="785.787,-174.053 795.893,-170.87 786.008,-167.056 785.787,-174.053"/>
<text text-anchor="middle" x="636.034" y="-166.67" font-family="Times,serif" font-size="14.00">true</text>
</g>
<!-- Write b/w Maj
Comp&#45;&gt;Write B/W_Major_
Clear -->
<g id="${uniqueid}_edge8" class="edge"><title>Write b/w Maj
Comp:ne&#45;&gt;Write B/W_Major_
Clear:w</title>
<path fill="none" stroke="black" d="M649.534,-235.87C652.38,-238.716 647.535,-242.186 650.534,-244.87 680.339,-271.547 700.542,-245.654 740.534,-244.87 759.316,-244.502 766.409,-243.372 781.175,-242.994"/>
<polygon fill="black" stroke="black" points="781.577,-246.49 791.534,-242.87 781.493,-239.49 781.577,-246.49"/>
<text text-anchor="middle" x="632.534" y="-239.67" font-family="Times,serif" font-size="14.00">false</text>
</g>
<!-- WriteB/W_Minor
Trap -->
<g id="${uniqueid}_node11" class="node"><title>WriteB/W_Minor
Trap</title>
<g id="a_${uniqueid}_node11"><a xlink:href="#1537962000126324" xlink:title="com.watch4net.alerting.action.SNMPTrapAction">
<ellipse fill="#4daf4a" stroke="black" cx="896.893" cy="-26.8701" rx="96.7474" ry="26.7407"/>
<text text-anchor="middle" x="896.893" y="-30.6701" font-family="Times,serif" font-size="14.00" fill="white">WriteB/W_Minor</text>
<text text-anchor="middle" x="896.893" y="-15.6701" font-family="Times,serif" font-size="14.00" fill="white">Trap</text>
</a>
</g>
</g>
<!-- Write b/w Minor
Comp&#45;&gt;WriteB/W_Minor
Trap -->
<g id="${uniqueid}_edge11" class="edge"><title>Write b/w Minor
Comp:se&#45;&gt;WriteB/W_Minor
Trap:w</title>
<path fill="none" stroke="black" d="M652.534,-38.8701C696.251,4.84674 729.91,-23.4916 788.814,-26.6019"/>
<polygon fill="black" stroke="black" points="788.803,-30.1028 798.893,-26.8701 788.99,-23.1053 788.803,-30.1028"/>
<text text-anchor="middle" x="637.034" y="-27.6701" font-family="Times,serif" font-size="14.00">true</text>
</g>
<!-- WriteB/W_Minor_
Clear -->
<g id="${uniqueid}_node12" class="node"><title>WriteB/W_Minor_
Clear</title>
<g id="a_${uniqueid}_node12"><a xlink:href="#1537962000143939" xlink:title="com.watch4net.alerting.action.SNMPTrapAction">
<ellipse fill="#4daf4a" stroke="black" cx="896.893" cy="-98.8701" rx="102.561" ry="26.7407"/>
<text text-anchor="middle" x="896.893" y="-102.67" font-family="Times,serif" font-size="14.00" fill="white">WriteB/W_Minor_</text>
<text text-anchor="middle" x="896.893" y="-87.6701" font-family="Times,serif" font-size="14.00" fill="white">Clear</text>
</a>
</g>
</g>
<!-- Write b/w Minor
Comp&#45;&gt;WriteB/W_Minor_
Clear -->
<g id="${uniqueid}_edge10" class="edge"><title>Write b/w Minor
Comp:ne&#45;&gt;WriteB/W_Minor_
Clear:w</title>
<path fill="none" stroke="black" d="M650.534,-98.8701C653.068,-101.404 648.848,-104.499 651.534,-106.87 686.186,-137.46 709.569,-111.736 755.534,-106.87 768.462,-105.501 773.54,-101.539 782.83,-99.7569"/>
<polygon fill="black" stroke="black" points="783.239,-103.235 792.893,-98.8701 782.624,-96.2615 783.239,-103.235"/>
<text text-anchor="middle" x="633.534" y="-102.67" font-family="Times,serif" font-size="14.00">false</text>
</g>
</g>
</svg>
