<?xml version="1.0" encoding="UTF-8" standalone="no"?>
<!DOCTYPE svg PUBLIC "-//W3C//DTD SVG 1.1//EN"
 "http://www.w3.org/Graphics/SVG/1.1/DTD/svg11.dtd">
<!-- Generated by graphviz version 2.38.0 (20140413.2041)
 -->
<!-- Title: NetApp Filer Alert Definitions/NetApp&#45;Volume/IO Rate Pages: 1 -->
<svg width="880pt" height="272pt"
 viewBox="0.00 0.00 879.94 272.00" xmlns="http://www.w3.org/2000/svg" xmlns:xlink="http://www.w3.org/1999/xlink">
<g id="${uniqueid}" class="graph" transform="scale(1 1) rotate(0) translate(4 268)">
<title>NetApp Filer Alert Definitions/NetApp&#45;Volume/IO Rate</title>
<polygon fill="white" stroke="none" points="-4,4 -4,-268 875.938,-268 875.938,4 -4,4"/>
<!-- Vol IORate CRIT
check -->
<g id="${uniqueid}_node1" class="node"><title>Vol IORate CRIT
check</title>
<g id="a_${uniqueid}_node1"><a xlink:href="#191561683109992" xlink:title="com.watch4net.alerting.operation.comparator.ConstantComparatorOperation">
<polygon fill="#ff7f00" stroke="black" points="498.291,-264 364.291,-226 498.291,-188 632.291,-226 498.291,-264"/>
<text text-anchor="middle" x="498.291" y="-229.8" font-family="Times,serif" font-size="14.00" fill="white">Vol IORate CRIT</text>
<text text-anchor="middle" x="498.291" y="-214.8" font-family="Times,serif" font-size="14.00" fill="white">check</text>
</a>
</g>
</g>
<!-- Vol IORate_CRIT
trap -->
<g id="${uniqueid}_node4" class="node"><title>Vol IORate_CRIT
trap</title>
<g id="a_${uniqueid}_node4"><a xlink:href="#191561683119475" xlink:title="com.watch4net.alerting.action.SNMPTrapAction">
<ellipse fill="#4daf4a" stroke="black" cx="770.115" cy="-226" rx="96.7474" ry="26.7407"/>
<text text-anchor="middle" x="770.115" y="-229.8" font-family="Times,serif" font-size="14.00" fill="white">Vol IORate_CRIT</text>
<text text-anchor="middle" x="770.115" y="-214.8" font-family="Times,serif" font-size="14.00" fill="white">trap</text>
</a>
</g>
</g>
<!-- Vol IORate CRIT
check&#45;&gt;Vol IORate_CRIT
trap -->
<g id="${uniqueid}_edge1" class="edge"><title>Vol IORate CRIT
check:e&#45;&gt;Vol IORate_CRIT
trap:w</title>
<path fill="none" stroke="black" d="M632.291,-226C645.981,-226 651.729,-226 661.82,-226"/>
<polygon fill="black" stroke="black" points="662.115,-229.5 672.115,-226 662.115,-222.5 662.115,-229.5"/>
<text text-anchor="middle" x="647.791" y="-214.8" font-family="Times,serif" font-size="14.00">true</text>
</g>
<!-- Vol IORate MAJ
check -->
<g id="${uniqueid}_node2" class="node"><title>Vol IORate MAJ
check</title>
<g id="a_${uniqueid}_node2"><a xlink:href="#191561683132925" xlink:title="com.watch4net.alerting.operation.comparator.ConstantComparatorOperation">
<polygon fill="#ff7f00" stroke="black" points="498.291,-170 369.291,-132 498.291,-94 627.291,-132 498.291,-170"/>
<text text-anchor="middle" x="498.291" y="-135.8" font-family="Times,serif" font-size="14.00" fill="white">Vol IORate MAJ</text>
<text text-anchor="middle" x="498.291" y="-120.8" font-family="Times,serif" font-size="14.00" fill="white">check</text>
</a>
</g>
</g>
<!-- Vol IORate_Major
trap -->
<g id="${uniqueid}_node5" class="node"><title>Vol IORate_Major
trap</title>
<g id="a_${uniqueid}_node5"><a xlink:href="#191561683138336" xlink:title="com.watch4net.alerting.action.SNMPTrapAction">
<ellipse fill="#4daf4a" stroke="black" cx="770.115" cy="-132" rx="101.233" ry="26.7407"/>
<text text-anchor="middle" x="770.115" y="-135.8" font-family="Times,serif" font-size="14.00" fill="white">Vol IORate_Major</text>
<text text-anchor="middle" x="770.115" y="-120.8" font-family="Times,serif" font-size="14.00" fill="white">trap</text>
</a>
</g>
</g>
<!-- Vol IORate MAJ
check&#45;&gt;Vol IORate_Major
trap -->
<g id="${uniqueid}_edge2" class="edge"><title>Vol IORate MAJ
check:e&#45;&gt;Vol IORate_Major
trap:w</title>
<path fill="none" stroke="black" d="M628.291,-132C642.18,-132 647.931,-132 658.26,-132"/>
<polygon fill="black" stroke="black" points="658.291,-135.5 668.291,-132 658.291,-128.5 658.291,-135.5"/>
<text text-anchor="middle" x="643.791" y="-120.8" font-family="Times,serif" font-size="14.00">true</text>
</g>
<!-- Vol IORate MIN
check -->
<g id="${uniqueid}_node3" class="node"><title>Vol IORate MIN
check</title>
<g id="a_${uniqueid}_node3"><a xlink:href="#191561683190918" xlink:title="com.watch4net.alerting.operation.comparator.ConstantComparatorOperation">
<polygon fill="#ff7f00" stroke="black" points="498.291,-76 367.291,-38 498.291,-7.10543e-15 629.291,-38 498.291,-76"/>
<text text-anchor="middle" x="498.291" y="-41.8" font-family="Times,serif" font-size="14.00" fill="white">Vol IORate MIN</text>
<text text-anchor="middle" x="498.291" y="-26.8" font-family="Times,serif" font-size="14.00" fill="white">check</text>
</a>
</g>
</g>
<!-- Vol IORate_Minor
trap -->
<g id="${uniqueid}_node6" class="node"><title>Vol IORate_Minor
trap</title>
<g id="a_${uniqueid}_node6"><a xlink:href="#191561683198132" xlink:title="com.watch4net.alerting.action.SNMPTrapAction">
<ellipse fill="#4daf4a" stroke="black" cx="770.115" cy="-38" rx="101.647" ry="26.7407"/>
<text text-anchor="middle" x="770.115" y="-41.8" font-family="Times,serif" font-size="14.00" fill="white">Vol IORate_Minor</text>
<text text-anchor="middle" x="770.115" y="-26.8" font-family="Times,serif" font-size="14.00" fill="white">trap</text>
</a>
</g>
</g>
<!-- Vol IORate MIN
check&#45;&gt;Vol IORate_Minor
trap -->
<g id="${uniqueid}_edge3" class="edge"><title>Vol IORate MIN
check:e&#45;&gt;Vol IORate_Minor
trap:w</title>
<path fill="none" stroke="black" d="M630.291,-38C643.222,-38 648.728,-38 658.178,-38"/>
<polygon fill="black" stroke="black" points="658.291,-41.5001 668.291,-38 658.291,-34.5001 658.291,-41.5001"/>
<text text-anchor="middle" x="645.791" y="-26.8" font-family="Times,serif" font-size="14.00">true</text>
</g>
<!-- Volume IORate
case -->
<g id="${uniqueid}_node7" class="node"><title>Volume IORate
case</title>
<g id="a_${uniqueid}_node7"><a xlink:href="#191561683105685" xlink:title="com.watch4net.alerting.operation.CaseOperation">
<polygon fill="#377eb8" stroke="black" points="328.291,-151 204.291,-151 204.291,-113 328.291,-113 328.291,-151"/>
<text text-anchor="middle" x="266.291" y="-135.8" font-family="Times,serif" font-size="14.00" fill="white">Volume IORate</text>
<text text-anchor="middle" x="266.291" y="-120.8" font-family="Times,serif" font-size="14.00" fill="white">case</text>
</a>
</g>
</g>
<!-- Volume IORate
case&#45;&gt;Vol IORate CRIT
check -->
<g id="${uniqueid}_edge4" class="edge"><title>Volume IORate
case:e&#45;&gt;Vol IORate CRIT
check:w</title>
<path fill="none" stroke="black" d="M328.291,-132C369.009,-132 328.37,-209.868 354.469,-223.86"/>
<polygon fill="black" stroke="black" points="353.776,-227.291 364.291,-226 355.266,-220.451 353.776,-227.291"/>
</g>
<!-- Volume IORate
case&#45;&gt;Vol IORate MAJ
check -->
<g id="${uniqueid}_edge5" class="edge"><title>Volume IORate
case:e&#45;&gt;Vol IORate MAJ
check:w</title>
<path fill="none" stroke="black" d="M328.291,-132C342.18,-132 347.931,-132 358.26,-132"/>
<polygon fill="black" stroke="black" points="358.291,-135.5 368.291,-132 358.291,-128.5 358.291,-135.5"/>
</g>
<!-- Volume IORate
case&#45;&gt;Vol IORate MIN
check -->
<g id="${uniqueid}_edge6" class="edge"><title>Volume IORate
case:e&#45;&gt;Vol IORate MIN
check:w</title>
<path fill="none" stroke="black" d="M328.291,-132C369.305,-132 329.811,-54.1319 356.358,-40.1399"/>
<polygon fill="black" stroke="black" points="357.253,-43.5276 366.291,-38 355.779,-36.6846 357.253,-43.5276"/>
</g>
<!-- VolumeIORate
Entry -->
<g id="${uniqueid}_node8" class="node"><title>VolumeIORate
Entry</title>
<g id="a_${uniqueid}_node8"><a xlink:href="#191561683073968" xlink:title="com.watch4net.alerting.operation.FilteredEntryPoint">
<ellipse fill="#984ea3" stroke="black" cx="84.1457" cy="-132" rx="84.2917" ry="26.7407"/>
<text text-anchor="middle" x="84.1457" y="-135.8" font-family="Times,serif" font-size="14.00" fill="white">VolumeIORate</text>
<text text-anchor="middle" x="84.1457" y="-120.8" font-family="Times,serif" font-size="14.00" fill="white">Entry</text>
</a>
</g>
</g>
<!-- VolumeIORate
Entry&#45;&gt;Volume IORate
case -->
<g id="${uniqueid}_edge7" class="edge"><title>VolumeIORate
Entry:e&#45;&gt;Volume IORate
case:w</title>
<path fill="none" stroke="black" d="M168.291,-132C180.291,-132 185.541,-132 194.166,-132"/>
<polygon fill="black" stroke="black" points="194.291,-135.5 204.291,-132 194.291,-128.5 194.291,-135.5"/>
</g>
</g>
</svg>
