<?xml version="1.0" encoding="UTF-8" standalone="no"?>
<!DOCTYPE svg PUBLIC "-//W3C//DTD SVG 1.1//EN"
 "http://www.w3.org/Graphics/SVG/1.1/DTD/svg11.dtd">
<!-- Generated by graphviz version 2.38.0 (20140413.2041)
 -->
<!-- Title: Examples/Baseline Comparator Pages: 1 -->
<svg width="802pt" height="103pt"
 viewBox="0.00 0.00 801.67 103.01" xmlns="http://www.w3.org/2000/svg" xmlns:xlink="http://www.w3.org/1999/xlink">
<g id="${uniqueid}" class="graph" transform="scale(1 1) rotate(0) translate(4 99.0105)">
<title>Examples/Baseline Comparator</title>
<polygon fill="white" stroke="none" points="-4,4 -4,-99.0105 797.67,-99.0105 797.67,4 -4,4"/>
<!-- Baseline
comparator -->
<g id="${uniqueid}_node1" class="node"><title>Baseline
comparator</title>
<g id="a_${uniqueid}_node1"><a xlink:href="#1262981388110" xlink:title="com.watch4net.alerting.operation.comparator.ConstantComparatorOperation">
<polygon fill="#ff7f00" stroke="black" points="491.285,-84 391.285,-46 491.285,-8 591.285,-46 491.285,-84"/>
<text text-anchor="middle" x="491.285" y="-49.8" font-family="Times,serif" font-size="14.00" fill="white">Baseline</text>
<text text-anchor="middle" x="491.285" y="-34.8" font-family="Times,serif" font-size="14.00" fill="white">comparator</text>
</a>
</g>
</g>
<!-- Log Alert Clear -->
<g id="${uniqueid}_node4" class="node"><title>Log Alert Clear</title>
<g id="a_${uniqueid}_node4"><a xlink:href="#689753789539464" xlink:title="com.watch4net.alerting.action.LogAction">
<ellipse fill="#4daf4a" stroke="black" cx="710.478" cy="-74" rx="83.3857" ry="18"/>
<text text-anchor="middle" x="710.478" y="-70.3" font-family="Times,serif" font-size="14.00" fill="white">Log Alert Clear</text>
</a>
</g>
</g>
<!-- Baseline
comparator&#45;&gt;Log Alert Clear -->
<g id="${uniqueid}_edge1" class="edge"><title>Baseline
comparator:ne&#45;&gt;Log Alert Clear:w</title>
<path fill="none" stroke="black" d="M518.285,-74C519.864,-75.5792 517.629,-82.5014 519.285,-84 543.011,-105.472 559.578,-88.3219 591.285,-84 603.754,-82.3004 608.462,-77.434 617.238,-75.1765"/>
<polygon fill="black" stroke="black" points="617.76,-78.6394 627.285,-74 616.946,-71.6869 617.76,-78.6394"/>
<text text-anchor="middle" x="501.285" y="-77.8" font-family="Times,serif" font-size="14.00">false</text>
</g>
<!-- Log Alert Set -->
<g id="${uniqueid}_node5" class="node"><title>Log Alert Set</title>
<g id="a_${uniqueid}_node5"><a xlink:href="#689753789552464" xlink:title="com.watch4net.alerting.action.LogAction">
<ellipse fill="#4daf4a" stroke="black" cx="710.478" cy="-18" rx="72.5877" ry="18"/>
<text text-anchor="middle" x="710.478" y="-14.3" font-family="Times,serif" font-size="14.00" fill="white">Log Alert Set</text>
</a>
</g>
</g>
<!-- Baseline
comparator&#45;&gt;Log Alert Set -->
<g id="${uniqueid}_edge2" class="edge"><title>Baseline
comparator:se&#45;&gt;Log Alert Set:w</title>
<path fill="none" stroke="black" d="M520.285,-18C554.305,16.0196 580.964,-13.3489 626.208,-17.5231"/>
<polygon fill="black" stroke="black" points="626.326,-21.0322 636.478,-18 626.651,-14.0398 626.326,-21.0322"/>
<text text-anchor="middle" x="504.785" y="-6.8" font-family="Times,serif" font-size="14.00">true</text>
</g>
<!-- CustomVariable -->
<g id="${uniqueid}_node2" class="node"><title>CustomVariable</title>
<g id="a_${uniqueid}_node2"><a xlink:href="#689753789496464" xlink:title="com.watch4net.alerting.operation.FilteredEntryPoint">
<ellipse fill="#984ea3" stroke="black" cx="85.1424" cy="-46" rx="85.2851" ry="18"/>
<text text-anchor="middle" x="85.1424" y="-42.3" font-family="Times,serif" font-size="14.00" fill="white">CustomVariable</text>
</a>
</g>
</g>
<!-- Example Gaussian
Baseline -->
<g id="${uniqueid}_node3" class="node"><title>Example Gaussian
Baseline</title>
<g id="a_${uniqueid}_node3"><a xlink:href="#1300301608308" xlink:title="1234567890">
<polygon fill="#e41a1c" stroke="black" points="355.285,-65 206.285,-65 206.285,-27 355.285,-27 355.285,-65"/>
<text text-anchor="middle" x="280.785" y="-49.8" font-family="Times,serif" font-size="14.00" fill="white">Example Gaussian</text>
<text text-anchor="middle" x="280.785" y="-34.8" font-family="Times,serif" font-size="14.00" fill="white">Baseline</text>
</a>
</g>
</g>
<!-- CustomVariable&#45;&gt;Example Gaussian
Baseline -->
<g id="${uniqueid}_edge3" class="edge"><title>CustomVariable:e&#45;&gt;Example Gaussian
Baseline:w</title>
<path fill="none" stroke="black" d="M170.285,-46C182.285,-46 187.535,-46 196.16,-46"/>
<polygon fill="black" stroke="black" points="196.285,-49.5001 206.285,-46 196.285,-42.5001 196.285,-49.5001"/>
</g>
<!-- Example Gaussian
Baseline&#45;&gt;Baseline
comparator -->
<g id="${uniqueid}_edge4" class="edge"><title>Example Gaussian
Baseline:e&#45;&gt;Baseline
comparator:w</title>
<path fill="none" stroke="black" d="M355.285,-46C367.285,-46 372.535,-46 381.16,-46"/>
<polygon fill="black" stroke="black" points="381.285,-49.5001 391.285,-46 381.285,-42.5001 381.285,-49.5001"/>
</g>
</g>
</svg>
