<?xml version="1.0" encoding="UTF-8" standalone="no"?>
<!DOCTYPE svg PUBLIC "-//W3C//DTD SVG 1.1//EN"
 "http://www.w3.org/Graphics/SVG/1.1/DTD/svg11.dtd">
<!-- Generated by graphviz version 2.38.0 (20140413.2041)
 -->
<!-- Title: EMC VMAX Alert Definitions/VMAX&#45;Disk/Disk status change Pages: 1 -->
<svg width="597pt" height="134pt"
 viewBox="0.00 0.00 596.64 133.74" xmlns="http://www.w3.org/2000/svg" xmlns:xlink="http://www.w3.org/1999/xlink">
<g id="${uniqueid}" class="graph" transform="scale(1 1) rotate(0) translate(4 129.74)">
<title>EMC VMAX Alert Definitions/VMAX&#45;Disk/Disk status change</title>
<polygon fill="white" stroke="none" points="-4,4 -4,-129.74 592.642,-129.74 592.642,4 -4,4"/>
<!-- Disk_Status_
Check -->
<g id="${uniqueid}_node1" class="node"><title>Disk_Status_
Check</title>
<g id="a_${uniqueid}_node1"><a xlink:href="#1414506369608" xlink:title="com.watch4net.alerting.operation.comparator.StringComparatorOperation">
<polygon fill="#ff7f00" stroke="black" points="294.321,-100.87 187.321,-62.8701 294.321,-24.8701 401.321,-62.8701 294.321,-100.87"/>
<text text-anchor="middle" x="294.321" y="-66.6701" font-family="Times,serif" font-size="14.00" fill="white">Disk_Status_</text>
<text text-anchor="middle" x="294.321" y="-51.6701" font-family="Times,serif" font-size="14.00" fill="white">Check</text>
</a>
</g>
</g>
<!-- Disk_Status_
Trap_CLEAR -->
<g id="${uniqueid}_node3" class="node"><title>Disk_Status_
Trap_CLEAR</title>
<g id="a_${uniqueid}_node3"><a xlink:href="#1414517984905" xlink:title="com.watch4net.alerting.action.SNMPTrapAction">
<ellipse fill="#4daf4a" stroke="black" cx="512.981" cy="-26.8701" rx="75.8212" ry="26.7407"/>
<text text-anchor="middle" x="512.981" y="-30.6701" font-family="Times,serif" font-size="14.00" fill="white">Disk_Status_</text>
<text text-anchor="middle" x="512.981" y="-15.6701" font-family="Times,serif" font-size="14.00" fill="white">Trap_CLEAR</text>
</a>
</g>
</g>
<!-- Disk_Status_
Check&#45;&gt;Disk_Status_
Trap_CLEAR -->
<g id="${uniqueid}_edge2" class="edge"><title>Disk_Status_
Check:se&#45;&gt;Disk_Status_
Trap_CLEAR:w</title>
<path fill="none" stroke="black" d="M323.321,-34.8701C356.781,-1.41032 382.758,-23.3519 427.224,-26.508"/>
<polygon fill="black" stroke="black" points="427.202,-30.0094 437.321,-26.8701 427.453,-23.0139 427.202,-30.0094"/>
<text text-anchor="middle" x="307.821" y="-23.6701" font-family="Times,serif" font-size="14.00">true</text>
</g>
<!-- Disk_Status_
Trap_SET -->
<g id="${uniqueid}_node4" class="node"><title>Disk_Status_
Trap_SET</title>
<g id="a_${uniqueid}_node4"><a xlink:href="#1414506558462" xlink:title="com.watch4net.alerting.action.SNMPTrapAction">
<ellipse fill="#4daf4a" stroke="black" cx="512.981" cy="-98.8701" rx="75.8212" ry="26.7407"/>
<text text-anchor="middle" x="512.981" y="-102.67" font-family="Times,serif" font-size="14.00" fill="white">Disk_Status_</text>
<text text-anchor="middle" x="512.981" y="-87.6701" font-family="Times,serif" font-size="14.00" fill="white">Trap_SET</text>
</a>
</g>
</g>
<!-- Disk_Status_
Check&#45;&gt;Disk_Status_
Trap_SET -->
<g id="${uniqueid}_edge1" class="edge"><title>Disk_Status_
Check:ne&#45;&gt;Disk_Status_
Trap_SET:w</title>
<path fill="none" stroke="black" d="M321.321,-90.8701C322.9,-92.4492 320.665,-99.3715 322.321,-100.87 348.354,-124.43 366.223,-101.844 401.321,-100.87 413.335,-100.537 418.564,-99.5783 427.188,-99.12"/>
<polygon fill="black" stroke="black" points="427.41,-102.616 437.321,-98.8701 427.238,-95.6178 427.41,-102.616"/>
<text text-anchor="middle" x="302.321" y="-94.6701" font-family="Times,serif" font-size="14.00">false</text>
</g>
<!-- Disk_Status_
Filter -->
<g id="${uniqueid}_node2" class="node"><title>Disk_Status_
Filter</title>
<g id="a_${uniqueid}_node2"><a xlink:href="#1414506313710" xlink:title="com.watch4net.alerting.operation.FilteredEntryPoint">
<ellipse fill="#984ea3" stroke="black" cx="75.6604" cy="-62.8701" rx="75.8212" ry="26.7407"/>
<text text-anchor="middle" x="75.6604" y="-66.6701" font-family="Times,serif" font-size="14.00" fill="white">Disk_Status_</text>
<text text-anchor="middle" x="75.6604" y="-51.6701" font-family="Times,serif" font-size="14.00" fill="white">Filter</text>
</a>
</g>
</g>
<!-- Disk_Status_
Filter&#45;&gt;Disk_Status_
Check -->
<g id="${uniqueid}_edge3" class="edge"><title>Disk_Status_
Filter:e&#45;&gt;Disk_Status_
Check:w</title>
<path fill="none" stroke="black" d="M151.321,-62.8701C163.321,-62.8701 168.571,-62.8701 177.196,-62.8701"/>
<polygon fill="black" stroke="black" points="177.321,-66.3702 187.321,-62.8701 177.321,-59.3702 177.321,-66.3702"/>
</g>
</g>
</svg>
