<?xml version="1.0" encoding="UTF-8" standalone="no"?>
<!DOCTYPE svg PUBLIC "-//W3C//DTD SVG 1.1//EN"
 "http://www.w3.org/Graphics/SVG/1.1/DTD/svg11.dtd">
<!-- Generated by graphviz version 2.38.0 (20140413.2041)
 -->
<!-- Title: NetApp Filer Alert Definitions/NetApp&#45;Volume/Quota Exceeded Pages: 1 -->
<svg width="1142pt" height="369pt"
 viewBox="0.00 0.00 1142.07 368.87" xmlns="http://www.w3.org/2000/svg" xmlns:xlink="http://www.w3.org/1999/xlink">
<g id="${uniqueid}" class="graph" transform="scale(1 1) rotate(0) translate(4 364.87)">
<title>NetApp Filer Alert Definitions/NetApp&#45;Volume/Quota Exceeded</title>
<polygon fill="white" stroke="none" points="-4,4 -4,-364.87 1138.07,-364.87 1138.07,4 -4,4"/>
<!-- Quota exceeded
entry -->
<g id="${uniqueid}_node1" class="node"><title>Quota exceeded
entry</title>
<g id="a_${uniqueid}_node1"><a xlink:href="#1732910471647632" xlink:title="com.watch4net.alerting.operation.FilteredEntryPoint">
<ellipse fill="#984ea3" stroke="black" cx="86.267" cy="-189.87" rx="86.0347" ry="26.7407"/>
<text text-anchor="middle" x="86.267" y="-193.67" font-family="Times,serif" font-size="14.00" fill="white">Quota exceeded</text>
<text text-anchor="middle" x="86.267" y="-178.67" font-family="Times,serif" font-size="14.00" fill="white">entry</text>
</a>
</g>
</g>
<!-- quota type Case -->
<g id="${uniqueid}_node6" class="node"><title>quota type Case</title>
<g id="a_${uniqueid}_node6"><a xlink:href="#1732910471694521" xlink:title="com.watch4net.alerting.operation.CaseOperation">
<polygon fill="#377eb8" stroke="black" points="337.534,-207.87 208.534,-207.87 208.534,-171.87 337.534,-171.87 337.534,-207.87"/>
<text text-anchor="middle" x="273.034" y="-186.17" font-family="Times,serif" font-size="14.00" fill="white">quota type Case</text>
</a>
</g>
</g>
<!-- Quota exceeded
entry&#45;&gt;quota type Case -->
<g id="${uniqueid}_edge1" class="edge"><title>Quota exceeded
entry:e&#45;&gt;quota type Case:w</title>
<path fill="none" stroke="black" d="M172.534,-189.87C184.534,-189.87 189.784,-189.87 198.409,-189.87"/>
<polygon fill="black" stroke="black" points="198.534,-193.37 208.534,-189.87 198.534,-186.37 198.534,-193.37"/>
</g>
<!-- hard critical
trap -->
<g id="${uniqueid}_node2" class="node"><title>hard critical
trap</title>
<g id="a_${uniqueid}_node2"><a xlink:href="#1415265550050" xlink:title="com.watch4net.alerting.action.SNMPTrapAction">
<ellipse fill="#4daf4a" stroke="black" cx="1047.8" cy="-279.87" rx="80.7205" ry="26.7407"/>
<text text-anchor="middle" x="1047.8" y="-283.67" font-family="Times,serif" font-size="14.00" fill="white">hard critical</text>
<text text-anchor="middle" x="1047.8" y="-268.67" font-family="Times,serif" font-size="14.00" fill="white">trap</text>
</a>
</g>
</g>
<!-- hard info trap -->
<g id="${uniqueid}_node3" class="node"><title>hard info trap</title>
<g id="a_${uniqueid}_node3"><a xlink:href="#1415265564087" xlink:title="com.watch4net.alerting.action.SNMPTrapAction">
<ellipse fill="#4daf4a" stroke="black" cx="1047.8" cy="-342.87" rx="79.0865" ry="18"/>
<text text-anchor="middle" x="1047.8" y="-339.17" font-family="Times,serif" font-size="14.00" fill="white">hard info trap</text>
</a>
</g>
</g>
<!-- hard quota Comp -->
<g id="${uniqueid}_node4" class="node"><title>hard quota Comp</title>
<g id="a_${uniqueid}_node4"><a xlink:href="#1415265116334" xlink:title="com.watch4net.alerting.operation.comparator.StringComparatorOperation">
<polygon fill="#ff7f00" stroke="black" points="502.534,-293.87 383.891,-275.87 502.534,-257.87 621.177,-275.87 502.534,-293.87"/>
<text text-anchor="middle" x="502.534" y="-272.17" font-family="Times,serif" font-size="14.00" fill="white">hard quota Comp</text>
</a>
</g>
</g>
<!-- hard quota ex
comp -->
<g id="${uniqueid}_node5" class="node"><title>hard quota ex
comp</title>
<g id="a_${uniqueid}_node5"><a xlink:href="#1415265442576" xlink:title="com.watch4net.alerting.operation.comparator.StringComparatorOperation">
<polygon fill="#ff7f00" stroke="black" points="796.534,-346.87 682.534,-308.87 796.534,-270.87 910.534,-308.87 796.534,-346.87"/>
<text text-anchor="middle" x="796.534" y="-312.67" font-family="Times,serif" font-size="14.00" fill="white">hard quota ex</text>
<text text-anchor="middle" x="796.534" y="-297.67" font-family="Times,serif" font-size="14.00" fill="white">comp</text>
</a>
</g>
</g>
<!-- hard quota Comp&#45;&gt;hard quota ex
comp -->
<g id="${uniqueid}_edge2" class="edge"><title>hard quota Comp:e&#45;&gt;hard quota ex
comp:w</title>
<path fill="none" stroke="black" d="M622.534,-275.87C648.824,-275.87 651.275,-301.136 671.605,-307.452"/>
<polygon fill="black" stroke="black" points="671.14,-310.921 681.534,-308.87 672.129,-303.991 671.14,-310.921"/>
<text text-anchor="middle" x="638.034" y="-264.67" font-family="Times,serif" font-size="14.00">true</text>
</g>
<!-- hard quota ex
comp&#45;&gt;hard critical
trap -->
<g id="${uniqueid}_edge4" class="edge"><title>hard quota ex
comp:se&#45;&gt;hard critical
trap:w</title>
<path fill="none" stroke="black" d="M826.534,-279.87C867.822,-238.582 900.065,-275.193 955.549,-279.473"/>
<polygon fill="black" stroke="black" points="955.673,-282.98 965.801,-279.87 955.944,-275.985 955.673,-282.98"/>
<text text-anchor="middle" x="811.034" y="-268.67" font-family="Times,serif" font-size="14.00">true</text>
</g>
<!-- hard quota ex
comp&#45;&gt;hard info trap -->
<g id="${uniqueid}_edge3" class="edge"><title>hard quota ex
comp:ne&#45;&gt;hard info trap:w</title>
<path fill="none" stroke="black" d="M824.534,-337.87C827.38,-340.716 822.535,-344.186 825.534,-346.87 853.683,-372.065 872.78,-348.21 910.534,-346.87 931.87,-346.113 939.49,-343.745 956.764,-343.058"/>
<polygon fill="black" stroke="black" points="956.868,-346.557 966.801,-342.87 956.737,-339.558 956.868,-346.557"/>
<text text-anchor="middle" x="805.534" y="-341.67" font-family="Times,serif" font-size="14.00">false</text>
</g>
<!-- quota type Case&#45;&gt;hard quota Comp -->
<g id="${uniqueid}_edge5" class="edge"><title>quota type Case:e&#45;&gt;hard quota Comp:w</title>
<path fill="none" stroke="black" d="M337.534,-189.87C376.628,-189.87 346.393,-260.501 372.488,-273.744"/>
<polygon fill="black" stroke="black" points="372.026,-277.224 382.534,-275.87 373.475,-270.376 372.026,-277.224"/>
</g>
<!-- soft quota Comp -->
<g id="${uniqueid}_node9" class="node"><title>soft quota Comp</title>
<g id="a_${uniqueid}_node9"><a xlink:href="#1732910471704539" xlink:title="com.watch4net.alerting.operation.comparator.StringComparatorOperation">
<polygon fill="#ff7f00" stroke="black" points="502.534,-207.87 383.891,-189.87 502.534,-171.87 621.177,-189.87 502.534,-207.87"/>
<text text-anchor="middle" x="502.534" y="-186.17" font-family="Times,serif" font-size="14.00" fill="white">soft quota Comp</text>
</a>
</g>
</g>
<!-- quota type Case&#45;&gt;soft quota Comp -->
<g id="${uniqueid}_edge6" class="edge"><title>quota type Case:e&#45;&gt;soft quota Comp:w</title>
<path fill="none" stroke="black" d="M337.534,-189.87C353.628,-189.87 360.009,-189.87 372.308,-189.87"/>
<polygon fill="black" stroke="black" points="372.534,-193.37 382.534,-189.87 372.534,-186.37 372.534,-193.37"/>
</g>
<!-- threshold quota
Comp -->
<g id="${uniqueid}_node13" class="node"><title>threshold quota
Comp</title>
<g id="a_${uniqueid}_node13"><a xlink:href="#1415265168384" xlink:title="com.watch4net.alerting.operation.comparator.StringComparatorOperation">
<polygon fill="#ff7f00" stroke="black" points="502.534,-130.87 373.534,-92.8701 502.534,-54.8701 631.534,-92.8701 502.534,-130.87"/>
<text text-anchor="middle" x="502.534" y="-96.6701" font-family="Times,serif" font-size="14.00" fill="white">threshold quota</text>
<text text-anchor="middle" x="502.534" y="-81.6701" font-family="Times,serif" font-size="14.00" fill="white">Comp</text>
</a>
</g>
</g>
<!-- quota type Case&#45;&gt;threshold quota
Comp -->
<g id="${uniqueid}_edge7" class="edge"><title>quota type Case:e&#45;&gt;threshold quota
Comp:w</title>
<path fill="none" stroke="black" d="M337.534,-189.87C379.387,-189.87 336.784,-109.517 363.461,-95.0783"/>
<polygon fill="black" stroke="black" points="364.515,-98.4303 373.534,-92.8701 363.017,-91.5926 364.515,-98.4303"/>
</g>
<!-- soft info trap -->
<g id="${uniqueid}_node7" class="node"><title>soft info trap</title>
<g id="a_${uniqueid}_node7"><a xlink:href="#1415265642639" xlink:title="com.watch4net.alerting.action.SNMPTrapAction">
<ellipse fill="#4daf4a" stroke="black" cx="1047.8" cy="-216.87" rx="79.0865" ry="18"/>
<text text-anchor="middle" x="1047.8" y="-213.17" font-family="Times,serif" font-size="14.00" fill="white">soft info trap</text>
</a>
</g>
</g>
<!-- soft minor trap -->
<g id="${uniqueid}_node8" class="node"><title>soft minor trap</title>
<g id="a_${uniqueid}_node8"><a xlink:href="#1415265626245" xlink:title="com.watch4net.alerting.action.SNMPTrapAction">
<ellipse fill="#4daf4a" stroke="black" cx="1047.8" cy="-161.87" rx="83.6854" ry="18"/>
<text text-anchor="middle" x="1047.8" y="-158.17" font-family="Times,serif" font-size="14.00" fill="white">soft minor trap</text>
</a>
</g>
</g>
<!-- soft quota ex
comp -->
<g id="${uniqueid}_node10" class="node"><title>soft quota ex
comp</title>
<g id="a_${uniqueid}_node10"><a xlink:href="#1415265594799" xlink:title="com.watch4net.alerting.operation.comparator.StringComparatorOperation">
<polygon fill="#ff7f00" stroke="black" points="796.534,-227.87 682.534,-189.87 796.534,-151.87 910.534,-189.87 796.534,-227.87"/>
<text text-anchor="middle" x="796.534" y="-193.67" font-family="Times,serif" font-size="14.00" fill="white">soft quota ex</text>
<text text-anchor="middle" x="796.534" y="-178.67" font-family="Times,serif" font-size="14.00" fill="white">comp</text>
</a>
</g>
</g>
<!-- soft quota Comp&#45;&gt;soft quota ex
comp -->
<g id="${uniqueid}_edge8" class="edge"><title>soft quota Comp:e&#45;&gt;soft quota ex
comp:w</title>
<path fill="none" stroke="black" d="M622.534,-189.87C645.069,-189.87 653.079,-189.87 671.529,-189.87"/>
<polygon fill="black" stroke="black" points="671.534,-193.37 681.534,-189.87 671.534,-186.37 671.534,-193.37"/>
<text text-anchor="middle" x="638.034" y="-178.67" font-family="Times,serif" font-size="14.00">true</text>
</g>
<!-- soft quota ex
comp&#45;&gt;soft info trap -->
<g id="${uniqueid}_edge9" class="edge"><title>soft quota ex
comp:ne&#45;&gt;soft info trap:w</title>
<path fill="none" stroke="black" d="M824.534,-218.87C827.38,-221.716 822.535,-225.186 825.534,-227.87 853.683,-253.065 872.932,-231.511 910.534,-227.87 932.132,-225.779 939.271,-219.272 956.649,-217.387"/>
<polygon fill="black" stroke="black" points="956.992,-220.874 966.801,-216.87 956.636,-213.883 956.992,-220.874"/>
<text text-anchor="middle" x="805.534" y="-222.67" font-family="Times,serif" font-size="14.00">false</text>
</g>
<!-- soft quota ex
comp&#45;&gt;soft minor trap -->
<g id="${uniqueid}_edge10" class="edge"><title>soft quota ex
comp:se&#45;&gt;soft minor trap:w</title>
<path fill="none" stroke="black" d="M826.534,-160.87C866.934,-120.47 898.48,-157.183 952.769,-161.472"/>
<polygon fill="black" stroke="black" points="952.67,-164.971 962.801,-161.87 952.948,-157.976 952.67,-164.971"/>
<text text-anchor="middle" x="811.034" y="-149.67" font-family="Times,serif" font-size="14.00">true</text>
</g>
<!-- threshold info
trap -->
<g id="${uniqueid}_node11" class="node"><title>threshold info
trap</title>
<g id="a_${uniqueid}_node11"><a xlink:href="#1415265349362" xlink:title="com.watch4net.alerting.action.SNMPTrapAction">
<ellipse fill="#4daf4a" stroke="black" cx="1047.8" cy="-98.8701" rx="86.0347" ry="26.7407"/>
<text text-anchor="middle" x="1047.8" y="-102.67" font-family="Times,serif" font-size="14.00" fill="white">threshold info</text>
<text text-anchor="middle" x="1047.8" y="-87.6701" font-family="Times,serif" font-size="14.00" fill="white">trap</text>
</a>
</g>
</g>
<!-- threshold maj
trap -->
<g id="${uniqueid}_node12" class="node"><title>threshold maj
trap</title>
<g id="a_${uniqueid}_node12"><a xlink:href="#1732910471757478" xlink:title="com.watch4net.alerting.action.SNMPTrapAction">
<ellipse fill="#4daf4a" stroke="black" cx="1047.8" cy="-26.8701" rx="80.7205" ry="26.7407"/>
<text text-anchor="middle" x="1047.8" y="-30.6701" font-family="Times,serif" font-size="14.00" fill="white">threshold maj</text>
<text text-anchor="middle" x="1047.8" y="-15.6701" font-family="Times,serif" font-size="14.00" fill="white">trap</text>
</a>
</g>
</g>
<!-- threshold quota
ex comp -->
<g id="${uniqueid}_node14" class="node"><title>threshold quota
ex comp</title>
<g id="a_${uniqueid}_node14"><a xlink:href="#1415265505712" xlink:title="com.watch4net.alerting.operation.comparator.StringComparatorOperation">
<polygon fill="#ff7f00" stroke="black" points="796.534,-106.87 667.534,-68.8701 796.534,-30.8701 925.534,-68.8701 796.534,-106.87"/>
<text text-anchor="middle" x="796.534" y="-72.6701" font-family="Times,serif" font-size="14.00" fill="white">threshold quota</text>
<text text-anchor="middle" x="796.534" y="-57.6701" font-family="Times,serif" font-size="14.00" fill="white">ex comp</text>
</a>
</g>
</g>
<!-- threshold quota
Comp&#45;&gt;threshold quota
ex comp -->
<g id="${uniqueid}_edge11" class="edge"><title>threshold quota
Comp:e&#45;&gt;threshold quota
ex comp:w</title>
<path fill="none" stroke="black" d="M631.534,-92.8701C646.707,-92.8701 648.377,-77.9272 657.853,-71.6232"/>
<polygon fill="black" stroke="black" points="658.873,-74.9721 667.534,-68.8701 656.958,-68.239 658.873,-74.9721"/>
<text text-anchor="middle" x="647.034" y="-81.6701" font-family="Times,serif" font-size="14.00">true</text>
</g>
<!-- threshold quota
ex comp&#45;&gt;threshold info
trap -->
<g id="${uniqueid}_edge12" class="edge"><title>threshold quota
ex comp:ne&#45;&gt;threshold info
trap:w</title>
<path fill="none" stroke="black" d="M825.534,-98.8701C828.068,-101.404 823.848,-104.499 826.534,-106.87 859.52,-135.989 881.797,-111.671 925.534,-106.87 937.881,-105.515 942.776,-101.619 951.556,-99.812"/>
<polygon fill="black" stroke="black" points="951.907,-103.294 961.534,-98.8701 951.249,-96.3255 951.907,-103.294"/>
<text text-anchor="middle" x="806.534" y="-102.67" font-family="Times,serif" font-size="14.00">false</text>
</g>
<!-- threshold quota
ex comp&#45;&gt;threshold maj
trap -->
<g id="${uniqueid}_edge13" class="edge"><title>threshold quota
ex comp:se&#45;&gt;threshold maj
trap:w</title>
<path fill="none" stroke="black" d="M827.534,-38.8701C868.68,2.27596 900.349,-23.5299 955.589,-26.5852"/>
<polygon fill="black" stroke="black" points="955.707,-30.0897 965.801,-26.8701 955.903,-23.0925 955.707,-30.0897"/>
<text text-anchor="middle" x="812.034" y="-27.6701" font-family="Times,serif" font-size="14.00">true</text>
</g>
</g>
</svg>
