<?xml version="1.0" encoding="UTF-8" standalone="no"?>
<!DOCTYPE svg PUBLIC "-//W3C//DTD SVG 1.1//EN"
 "http://www.w3.org/Graphics/SVG/1.1/DTD/svg11.dtd">
<!-- Generated by graphviz version 2.38.0 (20140413.2041)
 -->
<!-- Title: 1234567890 Pages: 1 -->
<svg width="662pt" height="335pt"
 viewBox="0.00 0.00 662.00 335.00" xmlns="http://www.w3.org/2000/svg" xmlns:xlink="http://www.w3.org/1999/xlink">
<g id="${uniqueid}" class="graph" transform="scale(1 1) rotate(0) translate(4 331)">
<title>1234567890</title>
<polygon fill="white" stroke="none" points="-4,4 -4,-331 658,-331 658,4 -4,4"/>
<!-- 1262805235970 -->
<g id="${uniqueid}_node1" class="node"><title>1262805235970</title>
<g id="a_${uniqueid}_node1"><a xlink:href="#1262805235970" xlink:title="com.watch4net.alerting.operation.window.PreviousPollingOperation">
<polygon fill="#377eb8" stroke="black" points="114,-184 0,-184 0,-148 114,-148 114,-184"/>
<text text-anchor="middle" x="57" y="-162.3" font-family="Times,serif" font-size="14.00" fill="white">Gaussian Blur</text>
</a>
</g>
</g>
<!-- 1262805304419 -->
<g id="${uniqueid}_node2" class="node"><title>1262805304419</title>
<g id="a_${uniqueid}_node2"><a xlink:href="#1262805304419" xlink:title="com.watch4net.alerting.operation.arithmetic.ConstantArithmeticOperation">
<polygon fill="#377eb8" stroke="black" points="294,-327 240,-327 240,-291 294,-291 294,-327"/>
<text text-anchor="middle" x="267" y="-305.3" font-family="Times,serif" font-size="14.00" fill="white">t&#45;0</text>
</a>
</g>
</g>
<!-- 1262805235970&#45;&gt;1262805304419 -->
<g id="${uniqueid}_edge1" class="edge"><title>1262805235970:n&#45;&gt;1262805304419:w</title>
<path fill="none" stroke="black" d="M57,-185C57,-279.888 136.059,-307.155 229.976,-308.908"/>
<polygon fill="black" stroke="black" points="229.968,-312.408 240,-309 230.033,-305.408 229.968,-312.408"/>
<text text-anchor="middle" x="45.5" y="-188.8" font-family="Times,serif" font-size="14.00">t&#45;0</text>
</g>
<!-- 1262805329870 -->
<g id="${uniqueid}_node3" class="node"><title>1262805329870</title>
<g id="a_${uniqueid}_node3"><a xlink:href="#1262805329870" xlink:title="com.watch4net.alerting.operation.arithmetic.ConstantArithmeticOperation">
<polygon fill="#377eb8" stroke="black" points="204,-36 150,-36 150,-0 204,-0 204,-36"/>
<text text-anchor="middle" x="177" y="-14.3" font-family="Times,serif" font-size="14.00" fill="white">t&#45;4</text>
</a>
</g>
</g>
<!-- 1262805235970&#45;&gt;1262805329870 -->
<g id="${uniqueid}_edge7" class="edge"><title>1262805235970:s&#45;&gt;1262805329870:w</title>
<path fill="none" stroke="black" d="M57,-147C57,-79.7719 77.1942,-23.7249 139.989,-18.4118"/>
<polygon fill="black" stroke="black" points="140.152,-21.9081 150,-18 139.865,-14.9141 140.152,-21.9081"/>
<text text-anchor="middle" x="45.5" y="-135.8" font-family="Times,serif" font-size="14.00">t&#45;4</text>
</g>
<!-- 1262805336582 -->
<g id="${uniqueid}_node4" class="node"><title>1262805336582</title>
<g id="a_${uniqueid}_node4"><a xlink:href="#1262805336582" xlink:title="com.watch4net.alerting.operation.arithmetic.ConstantArithmeticOperation">
<polygon fill="#377eb8" stroke="black" points="204,-90 150,-90 150,-54 204,-54 204,-90"/>
<text text-anchor="middle" x="177" y="-68.3" font-family="Times,serif" font-size="14.00" fill="white">t&#45;3</text>
</a>
</g>
</g>
<!-- 1262805235970&#45;&gt;1262805336582 -->
<g id="${uniqueid}_edge6" class="edge"><title>1262805235970:se&#45;&gt;1262805336582:w</title>
<path fill="none" stroke="black" d="M114,-148C137.538,-124.462 118.058,-82.5669 139.919,-73.6839"/>
<polygon fill="black" stroke="black" points="140.713,-77.0998 150,-72 139.56,-70.1955 140.713,-77.0998"/>
<text text-anchor="middle" x="102.5" y="-136.8" font-family="Times,serif" font-size="14.00">t&#45;3</text>
</g>
<!-- 1262805342060 -->
<g id="${uniqueid}_node5" class="node"><title>1262805342060</title>
<g id="a_${uniqueid}_node5"><a xlink:href="#1262805342060" xlink:title="com.watch4net.alerting.operation.arithmetic.ConstantArithmeticOperation">
<polygon fill="#377eb8" stroke="black" points="204,-230 150,-230 150,-194 204,-194 204,-230"/>
<text text-anchor="middle" x="177" y="-208.3" font-family="Times,serif" font-size="14.00" fill="white">t&#45;2</text>
</a>
</g>
</g>
<!-- 1262805235970&#45;&gt;1262805342060 -->
<g id="${uniqueid}_edge3" class="edge"><title>1262805235970:e&#45;&gt;1262805342060:w</title>
<path fill="none" stroke="black" d="M114,-166C135.702,-166 128.136,-198.144 140.234,-208.692"/>
<polygon fill="black" stroke="black" points="139.406,-212.106 150,-212 141.652,-205.476 139.406,-212.106"/>
<text text-anchor="middle" x="125.5" y="-154.8" font-family="Times,serif" font-size="14.00">t&#45;2</text>
</g>
<!-- 1262805350466 -->
<g id="${uniqueid}_node6" class="node"><title>1262805350466</title>
<g id="a_${uniqueid}_node6"><a xlink:href="#1262805350466" xlink:title="com.watch4net.alerting.operation.arithmetic.ConstantArithmeticOperation">
<polygon fill="#377eb8" stroke="black" points="204,-284 150,-284 150,-248 204,-248 204,-284"/>
<text text-anchor="middle" x="177" y="-262.3" font-family="Times,serif" font-size="14.00" fill="white">t&#45;1</text>
</a>
</g>
</g>
<!-- 1262805235970&#45;&gt;1262805350466 -->
<g id="${uniqueid}_edge2" class="edge"><title>1262805235970:ne&#45;&gt;1262805350466:w</title>
<path fill="none" stroke="black" d="M113,-184C138.401,-209.401 115.752,-255.349 139.885,-264.42"/>
<polygon fill="black" stroke="black" points="139.58,-267.915 150,-266 140.66,-260.999 139.58,-267.915"/>
<text text-anchor="middle" x="101.5" y="-187.8" font-family="Times,serif" font-size="14.00">t&#45;1</text>
</g>
<!-- 1264100477207 -->
<g id="${uniqueid}_node11" class="node"><title>1264100477207</title>
<g id="a_${uniqueid}_node11"><a xlink:href="#1264100477207" xlink:title="com.watch4net.alerting.operation.arithmetic.DataArithmeticOperation">
<polygon fill="#377eb8" stroke="black" points="564,-174 510,-174 510,-138 564,-138 564,-174"/>
<text text-anchor="middle" x="537" y="-152.3" font-family="Times,serif" font-size="14.00" fill="white">Sub</text>
</a>
</g>
</g>
<!-- 1262805235970&#45;&gt;1264100477207 -->
<g id="${uniqueid}_edge4" class="edge"><title>1262805235970:e&#45;&gt;1264100477207:w</title>
<path fill="none" stroke="black" d="M114,-166C131.167,-166 133.277,-155.879 150,-152 267.32,-124.786 299.674,-134.116 420,-129 443.978,-127.981 451.232,-121.411 474,-129 488.971,-133.99 490.278,-147.916 499.989,-153.569"/>
<polygon fill="black" stroke="black" points="499.456,-157.041 510,-156 501.108,-150.239 499.456,-157.041"/>
</g>
<!-- 1264100503926 -->
<g id="${uniqueid}_node12" class="node"><title>1264100503926</title>
<g id="a_${uniqueid}_node12"><a xlink:href="#1264100503926" xlink:title="com.watch4net.alerting.operation.arithmetic.DataArithmeticOperation">
<polygon fill="#377eb8" stroke="black" points="654,-197 600,-197 600,-161 654,-161 654,-197"/>
<text text-anchor="middle" x="627" y="-175.3" font-family="Times,serif" font-size="14.00" fill="white">Ratio</text>
</a>
</g>
</g>
<!-- 1262805235970&#45;&gt;1264100503926 -->
<g id="${uniqueid}_edge5" class="edge"><title>1262805235970:e&#45;&gt;1264100503926:w</title>
<path fill="none" stroke="black" d="M114,-166C250.21,-166 283.843,-179.221 420,-183 483.975,-184.776 500.098,-186.539 564,-183 576.055,-182.332 581.222,-180.416 589.844,-179.5"/>
<polygon fill="black" stroke="black" points="590.184,-182.987 600,-179 589.84,-175.996 590.184,-182.987"/>
</g>
<!-- 1262806613506 -->
<g id="${uniqueid}_node9" class="node"><title>1262806613506</title>
<g id="a_${uniqueid}_node9"><a xlink:href="#1262806613506" xlink:title="com.watch4net.alerting.operation.arithmetic.DataArithmeticOperation">
<polygon fill="#377eb8" stroke="black" points="384,-250 330,-250 330,-214 384,-214 384,-250"/>
<text text-anchor="middle" x="357" y="-228.3" font-family="Times,serif" font-size="14.00" fill="white">Sum3</text>
</a>
</g>
</g>
<!-- 1262805304419&#45;&gt;1262806613506 -->
<g id="${uniqueid}_edge8" class="edge"><title>1262805304419:e&#45;&gt;1262806613506:w</title>
<path fill="none" stroke="black" d="M294,-309C327.646,-309 299.95,-247.923 320.177,-234.562"/>
<polygon fill="black" stroke="black" points="321.207,-237.91 330,-232 319.44,-231.137 321.207,-237.91"/>
</g>
<!-- 1262806570708 -->
<g id="${uniqueid}_node7" class="node"><title>1262806570708</title>
<g id="a_${uniqueid}_node7"><a xlink:href="#1262806570708" xlink:title="com.watch4net.alerting.operation.arithmetic.DataArithmeticOperation">
<polygon fill="#377eb8" stroke="black" points="294,-90 240,-90 240,-54 294,-54 294,-90"/>
<text text-anchor="middle" x="267" y="-68.3" font-family="Times,serif" font-size="14.00" fill="white">Sum1</text>
</a>
</g>
</g>
<!-- 1262805329870&#45;&gt;1262806570708 -->
<g id="${uniqueid}_edge9" class="edge"><title>1262805329870:e&#45;&gt;1262806570708:w</title>
<path fill="none" stroke="black" d="M204,-18C228.563,-18 216.481,-57.1586 230.165,-68.7838"/>
<polygon fill="black" stroke="black" points="229.407,-72.2184 240,-72 231.583,-65.5651 229.407,-72.2184"/>
</g>
<!-- 1262805336582&#45;&gt;1262806570708 -->
<g id="${uniqueid}_edge10" class="edge"><title>1262805336582:e&#45;&gt;1262806570708:w</title>
<path fill="none" stroke="black" d="M204,-72C216,-72 221.25,-72 229.875,-72"/>
<polygon fill="black" stroke="black" points="230,-75.5001 240,-72 230,-68.5001 230,-75.5001"/>
</g>
<!-- 1262806600178 -->
<g id="${uniqueid}_node8" class="node"><title>1262806600178</title>
<g id="a_${uniqueid}_node8"><a xlink:href="#1262806600178" xlink:title="com.watch4net.alerting.operation.arithmetic.DataArithmeticOperation">
<polygon fill="#377eb8" stroke="black" points="294,-250 240,-250 240,-214 294,-214 294,-250"/>
<text text-anchor="middle" x="267" y="-228.3" font-family="Times,serif" font-size="14.00" fill="white">Sum2</text>
</a>
</g>
</g>
<!-- 1262805342060&#45;&gt;1262806600178 -->
<g id="${uniqueid}_edge11" class="edge"><title>1262805342060:e&#45;&gt;1262806600178:w</title>
<path fill="none" stroke="black" d="M204,-212C218.156,-212 221.001,-223.964 230.032,-229.385"/>
<polygon fill="black" stroke="black" points="229.439,-232.848 240,-232 231.215,-226.077 229.439,-232.848"/>
</g>
<!-- 1262805350466&#45;&gt;1262806600178 -->
<g id="${uniqueid}_edge12" class="edge"><title>1262805350466:e&#45;&gt;1262806600178:w</title>
<path fill="none" stroke="black" d="M204,-266C221.881,-266 219.943,-243.555 230.391,-235.138"/>
<polygon fill="black" stroke="black" points="231.58,-238.431 240,-232 229.408,-231.777 231.58,-238.431"/>
</g>
<!-- 1262806632041 -->
<g id="${uniqueid}_node10" class="node"><title>1262806632041</title>
<g id="a_${uniqueid}_node10"><a xlink:href="#1262806632041" xlink:title="com.watch4net.alerting.operation.arithmetic.DataArithmeticOperation">
<polygon fill="#377eb8" stroke="black" points="474,-174 420,-174 420,-138 474,-138 474,-174"/>
<text text-anchor="middle" x="447" y="-152.3" font-family="Times,serif" font-size="14.00" fill="white">Sum4</text>
</a>
</g>
</g>
<!-- 1262806570708&#45;&gt;1262806632041 -->
<g id="${uniqueid}_edge13" class="edge"><title>1262806570708:e&#45;&gt;1262806632041:w</title>
<path fill="none" stroke="black" d="M294,-72C357.754,-72 353.393,-147.374 409.963,-155.324"/>
<polygon fill="black" stroke="black" points="409.787,-158.82 420,-156 410.258,-151.836 409.787,-158.82"/>
</g>
<!-- 1262806600178&#45;&gt;1262806613506 -->
<g id="${uniqueid}_edge14" class="edge"><title>1262806600178:e&#45;&gt;1262806613506:w</title>
<path fill="none" stroke="black" d="M294,-232C306,-232 311.25,-232 319.875,-232"/>
<polygon fill="black" stroke="black" points="320,-235.5 330,-232 320,-228.5 320,-235.5"/>
</g>
<!-- 1262806613506&#45;&gt;1262806632041 -->
<g id="${uniqueid}_edge15" class="edge"><title>1262806613506:e&#45;&gt;1262806632041:w</title>
<path fill="none" stroke="black" d="M384,-232C417.288,-232 390.191,-171.716 410.269,-158.529"/>
<polygon fill="black" stroke="black" points="411.202,-161.903 420,-156 409.441,-155.128 411.202,-161.903"/>
</g>
<!-- 1262806632041&#45;&gt;1264100477207 -->
<g id="${uniqueid}_edge16" class="edge"><title>1262806632041:e&#45;&gt;1264100477207:w</title>
<path fill="none" stroke="black" d="M474,-156C486,-156 491.25,-156 499.875,-156"/>
<polygon fill="black" stroke="black" points="500,-159.5 510,-156 500,-152.5 500,-159.5"/>
</g>
<!-- 1264100477207&#45;&gt;1264100503926 -->
<g id="${uniqueid}_edge17" class="edge"><title>1264100477207:e&#45;&gt;1264100503926:w</title>
<path fill="none" stroke="black" d="M564,-156C578.833,-156 580.874,-170.038 590.11,-176.18"/>
<polygon fill="black" stroke="black" points="589.424,-179.623 600,-179 591.343,-172.892 589.424,-179.623"/>
</g>
</g>
</svg>
