<?xml version="1.0" encoding="UTF-8" standalone="no"?>
<!DOCTYPE svg PUBLIC "-//W3C//DTD SVG 1.1//EN"
 "http://www.w3.org/Graphics/SVG/1.1/DTD/svg11.dtd">
<!-- Generated by graphviz version 2.38.0 (20140413.2041)
 -->
<!-- Title: EMC VMAX Alert Definitions/VMAX&#45;Devices/High Write Throughput Pages: 1 -->
<svg width="948pt" height="371pt"
 viewBox="0.00 0.00 947.87 371.41" xmlns="http://www.w3.org/2000/svg" xmlns:xlink="http://www.w3.org/1999/xlink">
<g id="${uniqueid}" class="graph" transform="scale(1 1) rotate(0) translate(4 367.406)">
<title>EMC VMAX Alert Definitions/VMAX&#45;Devices/High Write Throughput</title>
<polygon fill="white" stroke="none" points="-4,4 -4,-367.406 943.865,-367.406 943.865,4 -4,4"/>
<!-- HighWriteIORate -->
<g id="${uniqueid}_node1" class="node"><title>HighWriteIORate</title>
<g id="a_${uniqueid}_node1"><a xlink:href="#2074082631800280" xlink:title="com.watch4net.alerting.operation.FilteredEntryPoint">
<ellipse fill="#984ea3" stroke="black" cx="92.2918" cy="-183.87" rx="92.0841" ry="18"/>
<text text-anchor="middle" x="92.2918" y="-180.17" font-family="Times,serif" font-size="14.00" fill="white">HighWriteIORate</text>
</a>
</g>
</g>
<!-- LUNWriteIORate -->
<g id="${uniqueid}_node8" class="node"><title>LUNWriteIORate</title>
<g id="a_${uniqueid}_node8"><a xlink:href="#2074082631838828" xlink:title="com.watch4net.alerting.operation.CaseOperation">
<polygon fill="#377eb8" stroke="black" points="360.584,-201.87 220.584,-201.87 220.584,-165.87 360.584,-165.87 360.584,-201.87"/>
<text text-anchor="middle" x="290.584" y="-180.17" font-family="Times,serif" font-size="14.00" fill="white">LUNWriteIORate</text>
</a>
</g>
</g>
<!-- HighWriteIORate&#45;&gt;LUNWriteIORate -->
<g id="${uniqueid}_edge1" class="edge"><title>HighWriteIORate:e&#45;&gt;LUNWriteIORate:w</title>
<path fill="none" stroke="black" d="M184.584,-183.87C196.584,-183.87 201.834,-183.87 210.459,-183.87"/>
<polygon fill="black" stroke="black" points="210.584,-187.37 220.584,-183.87 210.584,-180.37 210.584,-187.37"/>
</g>
<!-- HighWriteIORate_
Major -->
<g id="${uniqueid}_node2" class="node"><title>HighWriteIORate_
Major</title>
<g id="a_${uniqueid}_node2"><a xlink:href="#2074082631885771" xlink:title="com.watch4net.alerting.operation.comparator.ConstantComparatorOperation">
<polygon fill="#ff7f00" stroke="black" points="545.584,-346.87 396.584,-308.87 545.584,-270.87 694.584,-308.87 545.584,-346.87"/>
<text text-anchor="middle" x="545.584" y="-312.67" font-family="Times,serif" font-size="14.00" fill="white">HighWriteIORate_</text>
<text text-anchor="middle" x="545.584" y="-297.67" font-family="Times,serif" font-size="14.00" fill="white">Major</text>
</a>
</g>
</g>
<!-- High_Write_IO_
Rate_Major -->
<g id="${uniqueid}_node5" class="node"><title>High_Write_IO_
Rate_Major</title>
<g id="a_${uniqueid}_node5"><a xlink:href="#2074082631895858" xlink:title="com.watch4net.alerting.action.SNMPTrapAction">
<ellipse fill="#4daf4a" stroke="black" cx="835.224" cy="-278.87" rx="92.7622" ry="26.7407"/>
<text text-anchor="middle" x="835.224" y="-282.67" font-family="Times,serif" font-size="14.00" fill="white">High_Write_IO_</text>
<text text-anchor="middle" x="835.224" y="-267.67" font-family="Times,serif" font-size="14.00" fill="white">Rate_Major</text>
</a>
</g>
</g>
<!-- HighWriteIORate_
Major&#45;&gt;High_Write_IO_
Rate_Major -->
<g id="${uniqueid}_edge3" class="edge"><title>HighWriteIORate_
Major:se&#45;&gt;High_Write_IO_
Rate_Major:w</title>
<path fill="none" stroke="black" d="M576.584,-278.87C625.9,-229.554 664.3,-274.247 731.15,-278.545"/>
<polygon fill="black" stroke="black" points="731.117,-282.046 741.224,-278.87 731.342,-275.049 731.117,-282.046"/>
<text text-anchor="middle" x="561.084" y="-267.67" font-family="Times,serif" font-size="14.00">true</text>
</g>
<!-- SNMP_Clear_Major -->
<g id="${uniqueid}_node10" class="node"><title>SNMP_Clear_Major</title>
<g id="a_${uniqueid}_node10"><a xlink:href="#2074082631906066" xlink:title="com.watch4net.alerting.action.SNMPTrapAction">
<ellipse fill="#4daf4a" stroke="black" cx="835.224" cy="-341.87" rx="103.982" ry="18"/>
<text text-anchor="middle" x="835.224" y="-338.17" font-family="Times,serif" font-size="14.00" fill="white">SNMP_Clear_Major</text>
</a>
</g>
</g>
<!-- HighWriteIORate_
Major&#45;&gt;SNMP_Clear_Major -->
<g id="${uniqueid}_edge2" class="edge"><title>HighWriteIORate_
Major:ne&#45;&gt;SNMP_Clear_Major:w</title>
<path fill="none" stroke="black" d="M574.584,-338.87C577.117,-341.404 572.897,-344.499 575.584,-346.87 615.233,-381.872 641.821,-350.517 694.584,-346.87 706.67,-346.035 711.79,-343.64 720.41,-342.495"/>
<polygon fill="black" stroke="black" points="720.817,-345.976 730.584,-341.87 720.388,-338.99 720.817,-345.976"/>
<text text-anchor="middle" x="557.584" y="-342.67" font-family="Times,serif" font-size="14.00">false</text>
</g>
<!-- HighWriteIORate_
Minor -->
<g id="${uniqueid}_node3" class="node"><title>HighWriteIORate_
Minor</title>
<g id="a_${uniqueid}_node3"><a xlink:href="#2074082631916009" xlink:title="com.watch4net.alerting.operation.comparator.ConstantComparatorOperation">
<polygon fill="#ff7f00" stroke="black" points="545.584,-221.87 396.584,-183.87 545.584,-145.87 694.584,-183.87 545.584,-221.87"/>
<text text-anchor="middle" x="545.584" y="-187.67" font-family="Times,serif" font-size="14.00" fill="white">HighWriteIORate_</text>
<text text-anchor="middle" x="545.584" y="-172.67" font-family="Times,serif" font-size="14.00" fill="white">Minor</text>
</a>
</g>
</g>
<!-- High_Write_IO_
Rate_Minor -->
<g id="${uniqueid}_node6" class="node"><title>High_Write_IO_
Rate_Minor</title>
<g id="a_${uniqueid}_node6"><a xlink:href="#2074082631926822" xlink:title="com.watch4net.alerting.action.SNMPTrapAction">
<ellipse fill="#4daf4a" stroke="black" cx="835.224" cy="-152.87" rx="92.7622" ry="26.7407"/>
<text text-anchor="middle" x="835.224" y="-156.67" font-family="Times,serif" font-size="14.00" fill="white">High_Write_IO_</text>
<text text-anchor="middle" x="835.224" y="-141.67" font-family="Times,serif" font-size="14.00" fill="white">Rate_Minor</text>
</a>
</g>
</g>
<!-- HighWriteIORate_
Minor&#45;&gt;High_Write_IO_
Rate_Minor -->
<g id="${uniqueid}_edge5" class="edge"><title>HighWriteIORate_
Minor:se&#45;&gt;High_Write_IO_
Rate_Minor:w</title>
<path fill="none" stroke="black" d="M576.584,-153.87C625.901,-104.553 664.299,-148.338 731.15,-152.551"/>
<polygon fill="black" stroke="black" points="731.119,-156.052 741.224,-152.87 731.34,-149.056 731.119,-156.052"/>
<text text-anchor="middle" x="561.084" y="-142.67" font-family="Times,serif" font-size="14.00">true</text>
</g>
<!-- SNMP_Clear_Minor -->
<g id="${uniqueid}_node11" class="node"><title>SNMP_Clear_Minor</title>
<g id="a_${uniqueid}_node11"><a xlink:href="#2074082631936851" xlink:title="com.watch4net.alerting.action.SNMPTrapAction">
<ellipse fill="#4daf4a" stroke="black" cx="835.224" cy="-215.87" rx="104.782" ry="18"/>
<text text-anchor="middle" x="835.224" y="-212.17" font-family="Times,serif" font-size="14.00" fill="white">SNMP_Clear_Minor</text>
</a>
</g>
</g>
<!-- HighWriteIORate_
Minor&#45;&gt;SNMP_Clear_Minor -->
<g id="${uniqueid}_edge4" class="edge"><title>HighWriteIORate_
Minor:ne&#45;&gt;SNMP_Clear_Minor:w</title>
<path fill="none" stroke="black" d="M574.584,-213.87C577.117,-216.404 572.897,-219.499 575.584,-221.87 615.233,-256.872 641.875,-226.232 694.584,-221.87 706.708,-220.867 711.772,-217.993 720.389,-216.619"/>
<polygon fill="black" stroke="black" points="720.867,-220.094 730.584,-215.87 720.354,-213.113 720.867,-220.094"/>
<text text-anchor="middle" x="557.584" y="-217.67" font-family="Times,serif" font-size="14.00">false</text>
</g>
<!-- High_Write_IO_
Rate_Crit -->
<g id="${uniqueid}_node4" class="node"><title>High_Write_IO_
Rate_Crit</title>
<g id="a_${uniqueid}_node4"><a xlink:href="#2074082631863547" xlink:title="com.watch4net.alerting.action.SNMPTrapAction">
<ellipse fill="#4daf4a" stroke="black" cx="835.224" cy="-26.8701" rx="92.7622" ry="26.7407"/>
<text text-anchor="middle" x="835.224" y="-30.6701" font-family="Times,serif" font-size="14.00" fill="white">High_Write_IO_</text>
<text text-anchor="middle" x="835.224" y="-15.6701" font-family="Times,serif" font-size="14.00" fill="white">Rate_Crit</text>
</a>
</g>
</g>
<!-- LUNHighWrite
IORate_Crit -->
<g id="${uniqueid}_node7" class="node"><title>LUNHighWrite
IORate_Crit</title>
<g id="a_${uniqueid}_node7"><a xlink:href="#2074082631847611" xlink:title="com.watch4net.alerting.operation.comparator.ConstantComparatorOperation">
<polygon fill="#ff7f00" stroke="black" points="545.584,-98.8701 420.584,-60.8701 545.584,-22.8701 670.584,-60.8701 545.584,-98.8701"/>
<text text-anchor="middle" x="545.584" y="-64.6701" font-family="Times,serif" font-size="14.00" fill="white">LUNHighWrite</text>
<text text-anchor="middle" x="545.584" y="-49.6701" font-family="Times,serif" font-size="14.00" fill="white">IORate_Crit</text>
</a>
</g>
</g>
<!-- LUNHighWrite
IORate_Crit&#45;&gt;High_Write_IO_
Rate_Crit -->
<g id="${uniqueid}_edge7" class="edge"><title>LUNHighWrite
IORate_Crit:se&#45;&gt;High_Write_IO_
Rate_Crit:w</title>
<path fill="none" stroke="black" d="M575.584,-31.8701C625.222,17.7683 663.804,-22.6742 731.085,-26.5748"/>
<polygon fill="black" stroke="black" points="731.127,-30.0774 741.224,-26.8701 731.33,-23.0804 731.127,-30.0774"/>
<text text-anchor="middle" x="560.084" y="-20.6701" font-family="Times,serif" font-size="14.00">true</text>
</g>
<!-- SNMP_Clear_Crit -->
<g id="${uniqueid}_node9" class="node"><title>SNMP_Clear_Crit</title>
<g id="a_${uniqueid}_node9"><a xlink:href="#2074082631876909" xlink:title="com.watch4net.alerting.action.SNMPTrapAction">
<ellipse fill="#4daf4a" stroke="black" cx="835.224" cy="-89.8701" rx="94.7833" ry="18"/>
<text text-anchor="middle" x="835.224" y="-86.1701" font-family="Times,serif" font-size="14.00" fill="white">SNMP_Clear_Crit</text>
</a>
</g>
</g>
<!-- LUNHighWrite
IORate_Crit&#45;&gt;SNMP_Clear_Crit -->
<g id="${uniqueid}_edge6" class="edge"><title>LUNHighWrite
IORate_Crit:ne&#45;&gt;SNMP_Clear_Crit:w</title>
<path fill="none" stroke="black" d="M573.584,-89.8701C576.429,-92.7159 571.585,-96.186 574.584,-98.8701 606.376,-127.325 628.008,-101.649 670.584,-98.8701 697.568,-97.1085 706.375,-91.4911 729.001,-90.1565"/>
<polygon fill="black" stroke="black" points="729.326,-93.6489 739.224,-89.8701 729.13,-86.6516 729.326,-93.6489"/>
<text text-anchor="middle" x="556.584" y="-93.6701" font-family="Times,serif" font-size="14.00">false</text>
</g>
<!-- LUNWriteIORate&#45;&gt;HighWriteIORate_
Major -->
<g id="${uniqueid}_edge8" class="edge"><title>LUNWriteIORate:e&#45;&gt;HighWriteIORate_
Major:w</title>
<path fill="none" stroke="black" d="M360.584,-183.87C414.332,-183.87 349.288,-291.91 386.331,-307.103"/>
<polygon fill="black" stroke="black" points="386.134,-310.621 396.584,-308.87 387.323,-303.722 386.134,-310.621"/>
</g>
<!-- LUNWriteIORate&#45;&gt;HighWriteIORate_
Minor -->
<g id="${uniqueid}_edge9" class="edge"><title>LUNWriteIORate:e&#45;&gt;HighWriteIORate_
Minor:w</title>
<path fill="none" stroke="black" d="M360.584,-183.87C372.584,-183.87 377.834,-183.87 386.459,-183.87"/>
<polygon fill="black" stroke="black" points="386.584,-187.37 396.584,-183.87 386.584,-180.37 386.584,-187.37"/>
</g>
<!-- LUNWriteIORate&#45;&gt;LUNHighWrite
IORate_Crit -->
<g id="${uniqueid}_edge10" class="edge"><title>LUNWriteIORate:e&#45;&gt;LUNHighWrite
IORate_Crit:w</title>
<path fill="none" stroke="black" d="M360.584,-183.87C417.425,-183.87 366.256,-75.7646 409.596,-62.2514"/>
<polygon fill="black" stroke="black" points="410.157,-65.7071 419.584,-60.8701 409.198,-58.7731 410.157,-65.7071"/>
</g>
</g>
</svg>
