<?xml version="1.0" encoding="UTF-8" standalone="no"?>
<!DOCTYPE svg PUBLIC "-//W3C//DTD SVG 1.1//EN"
 "http://www.w3.org/Graphics/SVG/1.1/DTD/svg11.dtd">
<!-- Generated by graphviz version 2.38.0 (20140413.2041)
 -->
<!-- Title: IBMDS8k Alert Definitions/IBMDS8k&#45;Rank/Write Requests Pages: 1 -->
<svg width="1013pt" height="422pt"
 viewBox="0.00 0.00 1012.60 421.74" xmlns="http://www.w3.org/2000/svg" xmlns:xlink="http://www.w3.org/1999/xlink">
<g id="${uniqueid}" class="graph" transform="scale(1 1) rotate(0) translate(4 417.74)">
<title>IBMDS8k Alert Definitions/IBMDS8k&#45;Rank/Write Requests</title>
<polygon fill="white" stroke="none" points="-4,4 -4,-417.74 1008.6,-417.74 1008.6,4 -4,4"/>
<!-- Rank write req
entry -->
<g id="${uniqueid}_node1" class="node"><title>Rank write req
entry</title>
<g id="a_${uniqueid}_node1"><a xlink:href="#1284950710418726" xlink:title="com.watch4net.alerting.operation.FilteredEntryPoint">
<ellipse fill="#984ea3" stroke="black" cx="87.6812" cy="-206.87" rx="87.8629" ry="26.7407"/>
<text text-anchor="middle" x="87.6812" y="-210.67" font-family="Times,serif" font-size="14.00" fill="white">Rank write req</text>
<text text-anchor="middle" x="87.6812" y="-195.67" font-family="Times,serif" font-size="14.00" fill="white">entry</text>
</a>
</g>
</g>
<!-- Roundoff -->
<g id="${uniqueid}_node2" class="node"><title>Roundoff</title>
<g id="a_${uniqueid}_node2"><a xlink:href="#1441789873675" xlink:title="com.watch4net.alerting.operation.math.ConstantMathOperation">
<polygon fill="#377eb8" stroke="black" points="292.362,-224.87 211.362,-224.87 211.362,-188.87 292.362,-188.87 292.362,-224.87"/>
<text text-anchor="middle" x="251.862" y="-203.17" font-family="Times,serif" font-size="14.00" fill="white">Roundoff</text>
</a>
</g>
</g>
<!-- Rank write req
entry&#45;&gt;Roundoff -->
<g id="${uniqueid}_edge1" class="edge"><title>Rank write req
entry:e&#45;&gt;Roundoff:w</title>
<path fill="none" stroke="black" d="M175.362,-206.87C187.362,-206.87 192.612,-206.87 201.237,-206.87"/>
<polygon fill="black" stroke="black" points="201.363,-210.37 211.362,-206.87 201.362,-203.37 201.363,-210.37"/>
</g>
<!-- Write Req Case -->
<g id="${uniqueid}_node3" class="node"><title>Write Req Case</title>
<g id="a_${uniqueid}_node3"><a xlink:href="#1284950710463430" xlink:title="com.watch4net.alerting.operation.CaseOperation">
<polygon fill="#377eb8" stroke="black" points="456.362,-224.87 328.362,-224.87 328.362,-188.87 456.362,-188.87 456.362,-224.87"/>
<text text-anchor="middle" x="392.362" y="-203.17" font-family="Times,serif" font-size="14.00" fill="white">Write Req Case</text>
</a>
</g>
</g>
<!-- Roundoff&#45;&gt;Write Req Case -->
<g id="${uniqueid}_edge2" class="edge"><title>Roundoff:e&#45;&gt;Write Req Case:w</title>
<path fill="none" stroke="black" d="M292.362,-206.87C304.362,-206.87 309.612,-206.87 318.237,-206.87"/>
<polygon fill="black" stroke="black" points="318.363,-210.37 328.362,-206.87 318.362,-203.37 318.363,-210.37"/>
</g>
<!-- Write Req Maj
Comp -->
<g id="${uniqueid}_node4" class="node"><title>Write Req Maj
Comp</title>
<g id="a_${uniqueid}_node4"><a xlink:href="#1284950710517596" xlink:title="com.watch4net.alerting.operation.comparator.ConstantComparatorOperation">
<polygon fill="#ff7f00" stroke="black" points="629.362,-381.87 508.362,-343.87 629.362,-305.87 750.362,-343.87 629.362,-381.87"/>
<text text-anchor="middle" x="629.362" y="-347.67" font-family="Times,serif" font-size="14.00" fill="white">Write Req Maj</text>
<text text-anchor="middle" x="629.362" y="-332.67" font-family="Times,serif" font-size="14.00" fill="white">Comp</text>
</a>
</g>
</g>
<!-- Write Req Case&#45;&gt;Write Req Maj
Comp -->
<g id="${uniqueid}_edge3" class="edge"><title>Write Req Case:e&#45;&gt;Write Req Maj
Comp:w</title>
<path fill="none" stroke="black" d="M456.362,-206.87C517.527,-206.87 451.148,-328.286 497.366,-342.514"/>
<polygon fill="black" stroke="black" points="496.983,-345.994 507.362,-343.87 497.924,-339.058 496.983,-345.994"/>
</g>
<!-- Write Req Minor
Comp -->
<g id="${uniqueid}_node5" class="node"><title>Write Req Minor
Comp</title>
<g id="a_${uniqueid}_node5"><a xlink:href="#1284950710544782" xlink:title="com.watch4net.alerting.operation.comparator.ConstantComparatorOperation">
<polygon fill="#ff7f00" stroke="black" points="629.362,-244.87 492.362,-206.87 629.362,-168.87 766.362,-206.87 629.362,-244.87"/>
<text text-anchor="middle" x="629.362" y="-210.67" font-family="Times,serif" font-size="14.00" fill="white">Write Req Minor</text>
<text text-anchor="middle" x="629.362" y="-195.67" font-family="Times,serif" font-size="14.00" fill="white">Comp</text>
</a>
</g>
</g>
<!-- Write Req Case&#45;&gt;Write Req Minor
Comp -->
<g id="${uniqueid}_edge4" class="edge"><title>Write Req Case:e&#45;&gt;Write Req Minor
Comp:w</title>
<path fill="none" stroke="black" d="M456.362,-206.87C468.362,-206.87 473.612,-206.87 482.237,-206.87"/>
<polygon fill="black" stroke="black" points="482.363,-210.37 492.362,-206.87 482.362,-203.37 482.363,-210.37"/>
</g>
<!-- WriteReq Crit
comp -->
<g id="${uniqueid}_node6" class="node"><title>WriteReq Crit
comp</title>
<g id="a_${uniqueid}_node6"><a xlink:href="#1284950710471332" xlink:title="com.watch4net.alerting.operation.comparator.ConstantComparatorOperation">
<polygon fill="#ff7f00" stroke="black" points="629.362,-107.87 512.362,-69.8701 629.362,-31.8701 746.362,-69.8701 629.362,-107.87"/>
<text text-anchor="middle" x="629.362" y="-73.6701" font-family="Times,serif" font-size="14.00" fill="white">WriteReq Crit</text>
<text text-anchor="middle" x="629.362" y="-58.6701" font-family="Times,serif" font-size="14.00" fill="white">comp</text>
</a>
</g>
</g>
<!-- Write Req Case&#45;&gt;WriteReq Crit
comp -->
<g id="${uniqueid}_edge5" class="edge"><title>Write Req Case:e&#45;&gt;WriteReq Crit
comp:w</title>
<path fill="none" stroke="black" d="M456.362,-206.87C518.13,-206.87 454.196,-85.4544 501.233,-71.226"/>
<polygon fill="black" stroke="black" points="501.915,-74.666 511.362,-69.8701 500.986,-67.7278 501.915,-74.666"/>
</g>
<!-- WriteReq_Major
Trap -->
<g id="${uniqueid}_node9" class="node"><title>WriteReq_Major
Trap</title>
<g id="a_${uniqueid}_node9"><a xlink:href="#1284950710525994" xlink:title="com.watch4net.alerting.action.SNMPTrapAction">
<ellipse fill="#4daf4a" stroke="black" cx="903.479" cy="-314.87" rx="94.5053" ry="26.7407"/>
<text text-anchor="middle" x="903.479" y="-318.67" font-family="Times,serif" font-size="14.00" fill="white">WriteReq_Major</text>
<text text-anchor="middle" x="903.479" y="-303.67" font-family="Times,serif" font-size="14.00" fill="white">Trap</text>
</a>
</g>
</g>
<!-- Write Req Maj
Comp&#45;&gt;WriteReq_Major
Trap -->
<g id="${uniqueid}_edge7" class="edge"><title>Write Req Maj
Comp:se&#45;&gt;WriteReq_Major
Trap:w</title>
<path fill="none" stroke="black" d="M659.362,-314.87C703.456,-270.776 737.85,-310.22 797.309,-314.502"/>
<polygon fill="black" stroke="black" points="797.359,-318.006 807.479,-314.87 797.612,-311.011 797.359,-318.006"/>
<text text-anchor="middle" x="643.862" y="-303.67" font-family="Times,serif" font-size="14.00">true</text>
</g>
<!-- WriteReq_Major_
Clear -->
<g id="${uniqueid}_node10" class="node"><title>WriteReq_Major_
Clear</title>
<g id="a_${uniqueid}_node10"><a xlink:href="#1284950710535866" xlink:title="com.watch4net.alerting.action.SNMPTrapAction">
<ellipse fill="#4daf4a" stroke="black" cx="903.479" cy="-386.87" rx="100.318" ry="26.7407"/>
<text text-anchor="middle" x="903.479" y="-390.67" font-family="Times,serif" font-size="14.00" fill="white">WriteReq_Major_</text>
<text text-anchor="middle" x="903.479" y="-375.67" font-family="Times,serif" font-size="14.00" fill="white">Clear</text>
</a>
</g>
</g>
<!-- Write Req Maj
Comp&#45;&gt;WriteReq_Major_
Clear -->
<g id="${uniqueid}_edge6" class="edge"><title>Write Req Maj
Comp:ne&#45;&gt;WriteReq_Major_
Clear:w</title>
<path fill="none" stroke="black" d="M657.362,-372.87C660.208,-375.716 655.411,-379.134 658.362,-381.87 702.762,-423.02 734.674,-390.839 792.127,-387.196"/>
<polygon fill="black" stroke="black" points="792.479,-390.687 802.362,-386.87 792.256,-383.69 792.479,-390.687"/>
<text text-anchor="middle" x="640.362" y="-376.67" font-family="Times,serif" font-size="14.00">false</text>
</g>
<!-- WriteReq_Minor
Trap -->
<g id="${uniqueid}_node11" class="node"><title>WriteReq_Minor
Trap</title>
<g id="a_${uniqueid}_node11"><a xlink:href="#1284950710550762" xlink:title="com.watch4net.alerting.action.SNMPTrapAction">
<ellipse fill="#4daf4a" stroke="black" cx="903.479" cy="-170.87" rx="95.4188" ry="26.7407"/>
<text text-anchor="middle" x="903.479" y="-174.67" font-family="Times,serif" font-size="14.00" fill="white">WriteReq_Minor</text>
<text text-anchor="middle" x="903.479" y="-159.67" font-family="Times,serif" font-size="14.00" fill="white">Trap</text>
</a>
</g>
</g>
<!-- Write Req Minor
Comp&#45;&gt;WriteReq_Minor
Trap -->
<g id="${uniqueid}_edge9" class="edge"><title>Write Req Minor
Comp:se&#45;&gt;WriteReq_Minor
Trap:w</title>
<path fill="none" stroke="black" d="M660.362,-176.87C703.897,-133.335 737.745,-166.895 796.439,-170.555"/>
<polygon fill="black" stroke="black" points="796.374,-174.055 806.479,-170.87 796.593,-167.058 796.374,-174.055"/>
<text text-anchor="middle" x="644.862" y="-165.67" font-family="Times,serif" font-size="14.00">true</text>
</g>
<!-- WriteReq_Minor_
Clear -->
<g id="${uniqueid}_node12" class="node"><title>WriteReq_Minor_
Clear</title>
<g id="a_${uniqueid}_node12"><a xlink:href="#1284950710564334" xlink:title="com.watch4net.alerting.action.SNMPTrapAction">
<ellipse fill="#4daf4a" stroke="black" cx="903.479" cy="-242.87" rx="101.233" ry="26.7407"/>
<text text-anchor="middle" x="903.479" y="-246.67" font-family="Times,serif" font-size="14.00" fill="white">WriteReq_Minor_</text>
<text text-anchor="middle" x="903.479" y="-231.67" font-family="Times,serif" font-size="14.00" fill="white">Clear</text>
</a>
</g>
</g>
<!-- Write Req Minor
Comp&#45;&gt;WriteReq_Minor_
Clear -->
<g id="${uniqueid}_edge8" class="edge"><title>Write Req Minor
Comp:ne&#45;&gt;WriteReq_Minor_
Clear:w</title>
<path fill="none" stroke="black" d="M658.362,-236.87C660.896,-239.404 656.676,-242.499 659.362,-244.87 695.014,-276.342 718.825,-246.19 766.362,-244.87 778.376,-244.537 783.606,-243.578 792.23,-243.12"/>
<polygon fill="black" stroke="black" points="792.452,-246.616 802.362,-242.87 792.279,-239.618 792.452,-246.616"/>
<text text-anchor="middle" x="641.362" y="-240.67" font-family="Times,serif" font-size="14.00">false</text>
</g>
<!-- WriteReq_
Critical Trap -->
<g id="${uniqueid}_node7" class="node"><title>WriteReq_
Critical Trap</title>
<g id="a_${uniqueid}_node7"><a xlink:href="#1284950710482462" xlink:title="com.watch4net.alerting.action.SNMPTrapAction">
<ellipse fill="#4daf4a" stroke="black" cx="903.479" cy="-26.8701" rx="76.2353" ry="26.7407"/>
<text text-anchor="middle" x="903.479" y="-30.6701" font-family="Times,serif" font-size="14.00" fill="white">WriteReq_</text>
<text text-anchor="middle" x="903.479" y="-15.6701" font-family="Times,serif" font-size="14.00" fill="white">Critical Trap</text>
</a>
</g>
</g>
<!-- WriteReq Crit
comp&#45;&gt;WriteReq_
Critical Trap -->
<g id="${uniqueid}_edge11" class="edge"><title>WriteReq Crit
comp:se&#45;&gt;WriteReq_
Critical Trap:w</title>
<path fill="none" stroke="black" d="M659.362,-40.8701C709.297,9.06452 747.644,-23.4704 815.282,-26.6303"/>
<polygon fill="black" stroke="black" points="815.399,-30.1339 825.479,-26.8701 815.564,-23.1359 815.399,-30.1339"/>
<text text-anchor="middle" x="643.862" y="-29.6701" font-family="Times,serif" font-size="14.00">true</text>
</g>
<!-- WriteReq_
Critical_Clear -->
<g id="${uniqueid}_node8" class="node"><title>WriteReq_
Critical_Clear</title>
<g id="a_${uniqueid}_node8"><a xlink:href="#1284950710496178" xlink:title="com.watch4net.alerting.action.SNMPTrapAction">
<ellipse fill="#4daf4a" stroke="black" cx="903.479" cy="-98.8701" rx="82.9636" ry="26.7407"/>
<text text-anchor="middle" x="903.479" y="-102.67" font-family="Times,serif" font-size="14.00" fill="white">WriteReq_</text>
<text text-anchor="middle" x="903.479" y="-87.6701" font-family="Times,serif" font-size="14.00" fill="white">Critical_Clear</text>
</a>
</g>
</g>
<!-- WriteReq Crit
comp&#45;&gt;WriteReq_
Critical_Clear -->
<g id="${uniqueid}_edge10" class="edge"><title>WriteReq Crit
comp:ne&#45;&gt;WriteReq_
Critical_Clear:w</title>
<path fill="none" stroke="black" d="M657.362,-98.8701C660.208,-101.716 655.364,-105.186 658.362,-107.87 709.193,-153.365 744.207,-104.17 809.223,-99.2577"/>
<polygon fill="black" stroke="black" points="809.618,-102.745 819.479,-98.8701 809.354,-95.7504 809.618,-102.745"/>
<text text-anchor="middle" x="640.362" y="-102.67" font-family="Times,serif" font-size="14.00">false</text>
</g>
</g>
</svg>
