<?xml version="1.0" encoding="UTF-8" standalone="no"?>
<!DOCTYPE svg PUBLIC "-//W3C//DTD SVG 1.1//EN"
 "http://www.w3.org/Graphics/SVG/1.1/DTD/svg11.dtd">
<!-- Generated by graphviz version 2.38.0 (20140413.2041)
 -->
<!-- Title: IBMDS5k Alert Definitions/IBMDS5k&#45;Port/Write Requests Pages: 1 -->
<svg width="1003pt" height="422pt"
 viewBox="0.00 0.00 1002.70 421.74" xmlns="http://www.w3.org/2000/svg" xmlns:xlink="http://www.w3.org/1999/xlink">
<g id="${uniqueid}" class="graph" transform="scale(1 1) rotate(0) translate(4 417.74)">
<title>IBMDS5k Alert Definitions/IBMDS5k&#45;Port/Write Requests</title>
<polygon fill="white" stroke="none" points="-4,4 -4,-417.74 998.696,-417.74 998.696,4 -4,4"/>
<!-- Port write req
entry -->
<g id="${uniqueid}_node1" class="node"><title>Port write req
entry</title>
<g id="a_${uniqueid}_node1"><a xlink:href="#2613873995146489" xlink:title="com.watch4net.alerting.operation.FilteredEntryPoint">
<ellipse fill="#984ea3" stroke="black" cx="82.7315" cy="-206.87" rx="82.9636" ry="26.7407"/>
<text text-anchor="middle" x="82.7315" y="-210.67" font-family="Times,serif" font-size="14.00" fill="white">Port write req</text>
<text text-anchor="middle" x="82.7315" y="-195.67" font-family="Times,serif" font-size="14.00" fill="white">entry</text>
</a>
</g>
</g>
<!-- Roundoff -->
<g id="${uniqueid}_node2" class="node"><title>Roundoff</title>
<g id="a_${uniqueid}_node2"><a xlink:href="#1441797974524" xlink:title="com.watch4net.alerting.operation.math.ConstantMathOperation">
<polygon fill="#377eb8" stroke="black" points="282.463,-224.87 201.463,-224.87 201.463,-188.87 282.463,-188.87 282.463,-224.87"/>
<text text-anchor="middle" x="241.963" y="-203.17" font-family="Times,serif" font-size="14.00" fill="white">Roundoff</text>
</a>
</g>
</g>
<!-- Port write req
entry&#45;&gt;Roundoff -->
<g id="${uniqueid}_edge1" class="edge"><title>Port write req
entry:e&#45;&gt;Roundoff:w</title>
<path fill="none" stroke="black" d="M165.463,-206.87C177.463,-206.87 182.713,-206.87 191.338,-206.87"/>
<polygon fill="black" stroke="black" points="191.463,-210.37 201.463,-206.87 191.463,-203.37 191.463,-210.37"/>
</g>
<!-- Write Req Case -->
<g id="${uniqueid}_node3" class="node"><title>Write Req Case</title>
<g id="a_${uniqueid}_node3"><a xlink:href="#2613873995200597" xlink:title="com.watch4net.alerting.operation.CaseOperation">
<polygon fill="#377eb8" stroke="black" points="446.463,-224.87 318.463,-224.87 318.463,-188.87 446.463,-188.87 446.463,-224.87"/>
<text text-anchor="middle" x="382.463" y="-203.17" font-family="Times,serif" font-size="14.00" fill="white">Write Req Case</text>
</a>
</g>
</g>
<!-- Roundoff&#45;&gt;Write Req Case -->
<g id="${uniqueid}_edge2" class="edge"><title>Roundoff:e&#45;&gt;Write Req Case:w</title>
<path fill="none" stroke="black" d="M282.463,-206.87C294.463,-206.87 299.713,-206.87 308.338,-206.87"/>
<polygon fill="black" stroke="black" points="308.463,-210.37 318.463,-206.87 308.463,-203.37 308.463,-210.37"/>
</g>
<!-- Write Req Maj
Comp -->
<g id="${uniqueid}_node4" class="node"><title>Write Req Maj
Comp</title>
<g id="a_${uniqueid}_node4"><a xlink:href="#2613873995248024" xlink:title="com.watch4net.alerting.operation.comparator.ConstantComparatorOperation">
<polygon fill="#ff7f00" stroke="black" points="619.463,-381.87 498.463,-343.87 619.463,-305.87 740.463,-343.87 619.463,-381.87"/>
<text text-anchor="middle" x="619.463" y="-347.67" font-family="Times,serif" font-size="14.00" fill="white">Write Req Maj</text>
<text text-anchor="middle" x="619.463" y="-332.67" font-family="Times,serif" font-size="14.00" fill="white">Comp</text>
</a>
</g>
</g>
<!-- Write Req Case&#45;&gt;Write Req Maj
Comp -->
<g id="${uniqueid}_edge3" class="edge"><title>Write Req Case:e&#45;&gt;Write Req Maj
Comp:w</title>
<path fill="none" stroke="black" d="M446.463,-206.87C507.627,-206.87 441.249,-328.286 487.467,-342.514"/>
<polygon fill="black" stroke="black" points="487.083,-345.994 497.463,-343.87 488.024,-339.058 487.083,-345.994"/>
</g>
<!-- Write Req Minor
Comp -->
<g id="${uniqueid}_node5" class="node"><title>Write Req Minor
Comp</title>
<g id="a_${uniqueid}_node5"><a xlink:href="#2613873995273794" xlink:title="com.watch4net.alerting.operation.comparator.ConstantComparatorOperation">
<polygon fill="#ff7f00" stroke="black" points="619.463,-244.87 482.463,-206.87 619.463,-168.87 756.463,-206.87 619.463,-244.87"/>
<text text-anchor="middle" x="619.463" y="-210.67" font-family="Times,serif" font-size="14.00" fill="white">Write Req Minor</text>
<text text-anchor="middle" x="619.463" y="-195.67" font-family="Times,serif" font-size="14.00" fill="white">Comp</text>
</a>
</g>
</g>
<!-- Write Req Case&#45;&gt;Write Req Minor
Comp -->
<g id="${uniqueid}_edge4" class="edge"><title>Write Req Case:e&#45;&gt;Write Req Minor
Comp:w</title>
<path fill="none" stroke="black" d="M446.463,-206.87C458.463,-206.87 463.713,-206.87 472.338,-206.87"/>
<polygon fill="black" stroke="black" points="472.463,-210.37 482.463,-206.87 472.463,-203.37 472.463,-210.37"/>
</g>
<!-- WriteReq Crit
comp -->
<g id="${uniqueid}_node6" class="node"><title>WriteReq Crit
comp</title>
<g id="a_${uniqueid}_node6"><a xlink:href="#2613873995209192" xlink:title="com.watch4net.alerting.operation.comparator.ConstantComparatorOperation">
<polygon fill="#ff7f00" stroke="black" points="619.463,-107.87 502.463,-69.8701 619.463,-31.8701 736.463,-69.8701 619.463,-107.87"/>
<text text-anchor="middle" x="619.463" y="-73.6701" font-family="Times,serif" font-size="14.00" fill="white">WriteReq Crit</text>
<text text-anchor="middle" x="619.463" y="-58.6701" font-family="Times,serif" font-size="14.00" fill="white">comp</text>
</a>
</g>
</g>
<!-- Write Req Case&#45;&gt;WriteReq Crit
comp -->
<g id="${uniqueid}_edge5" class="edge"><title>Write Req Case:e&#45;&gt;WriteReq Crit
comp:w</title>
<path fill="none" stroke="black" d="M446.463,-206.87C508.231,-206.87 444.296,-85.4544 491.333,-71.226"/>
<polygon fill="black" stroke="black" points="492.016,-74.666 501.463,-69.8701 491.087,-67.7278 492.016,-74.666"/>
</g>
<!-- WriteReq_Major
Trap -->
<g id="${uniqueid}_node9" class="node"><title>WriteReq_Major
Trap</title>
<g id="a_${uniqueid}_node9"><a xlink:href="#2613873995259169" xlink:title="com.watch4net.alerting.action.SNMPTrapAction">
<ellipse fill="#4daf4a" stroke="black" cx="893.579" cy="-314.87" rx="94.5053" ry="26.7407"/>
<text text-anchor="middle" x="893.579" y="-318.67" font-family="Times,serif" font-size="14.00" fill="white">WriteReq_Major</text>
<text text-anchor="middle" x="893.579" y="-303.67" font-family="Times,serif" font-size="14.00" fill="white">Trap</text>
</a>
</g>
</g>
<!-- Write Req Maj
Comp&#45;&gt;WriteReq_Major
Trap -->
<g id="${uniqueid}_edge7" class="edge"><title>Write Req Maj
Comp:se&#45;&gt;WriteReq_Major
Trap:w</title>
<path fill="none" stroke="black" d="M649.463,-314.87C693.557,-270.776 727.95,-310.22 787.41,-314.502"/>
<polygon fill="black" stroke="black" points="787.459,-318.006 797.579,-314.87 787.712,-311.011 787.459,-318.006"/>
<text text-anchor="middle" x="633.963" y="-303.67" font-family="Times,serif" font-size="14.00">true</text>
</g>
<!-- WriteReq_Major_
Clear -->
<g id="${uniqueid}_node10" class="node"><title>WriteReq_Major_
Clear</title>
<g id="a_${uniqueid}_node10"><a xlink:href="#1426753936913" xlink:title="com.watch4net.alerting.action.SNMPTrapAction">
<ellipse fill="#4daf4a" stroke="black" cx="893.579" cy="-386.87" rx="100.318" ry="26.7407"/>
<text text-anchor="middle" x="893.579" y="-390.67" font-family="Times,serif" font-size="14.00" fill="white">WriteReq_Major_</text>
<text text-anchor="middle" x="893.579" y="-375.67" font-family="Times,serif" font-size="14.00" fill="white">Clear</text>
</a>
</g>
</g>
<!-- Write Req Maj
Comp&#45;&gt;WriteReq_Major_
Clear -->
<g id="${uniqueid}_edge6" class="edge"><title>Write Req Maj
Comp:ne&#45;&gt;WriteReq_Major_
Clear:w</title>
<path fill="none" stroke="black" d="M647.463,-372.87C650.309,-375.716 645.511,-379.134 648.463,-381.87 692.863,-423.02 724.774,-390.839 782.228,-387.196"/>
<polygon fill="black" stroke="black" points="782.58,-390.687 792.463,-386.87 782.357,-383.69 782.58,-390.687"/>
<text text-anchor="middle" x="630.463" y="-376.67" font-family="Times,serif" font-size="14.00">false</text>
</g>
<!-- WriteReq_Minor
Trap -->
<g id="${uniqueid}_node11" class="node"><title>WriteReq_Minor
Trap</title>
<g id="a_${uniqueid}_node11"><a xlink:href="#2613873995284743" xlink:title="com.watch4net.alerting.action.SNMPTrapAction">
<ellipse fill="#4daf4a" stroke="black" cx="893.579" cy="-170.87" rx="95.4188" ry="26.7407"/>
<text text-anchor="middle" x="893.579" y="-174.67" font-family="Times,serif" font-size="14.00" fill="white">WriteReq_Minor</text>
<text text-anchor="middle" x="893.579" y="-159.67" font-family="Times,serif" font-size="14.00" fill="white">Trap</text>
</a>
</g>
</g>
<!-- Write Req Minor
Comp&#45;&gt;WriteReq_Minor
Trap -->
<g id="${uniqueid}_edge9" class="edge"><title>Write Req Minor
Comp:se&#45;&gt;WriteReq_Minor
Trap:w</title>
<path fill="none" stroke="black" d="M650.463,-176.87C693.998,-133.335 727.845,-166.895 786.54,-170.555"/>
<polygon fill="black" stroke="black" points="786.474,-174.055 796.579,-170.87 786.694,-167.058 786.474,-174.055"/>
<text text-anchor="middle" x="634.963" y="-165.67" font-family="Times,serif" font-size="14.00">true</text>
</g>
<!-- WriteReq_Minor_
Clear -->
<g id="${uniqueid}_node12" class="node"><title>WriteReq_Minor_
Clear</title>
<g id="a_${uniqueid}_node12"><a xlink:href="#1426753996403" xlink:title="com.watch4net.alerting.action.SNMPTrapAction">
<ellipse fill="#4daf4a" stroke="black" cx="893.579" cy="-242.87" rx="101.233" ry="26.7407"/>
<text text-anchor="middle" x="893.579" y="-246.67" font-family="Times,serif" font-size="14.00" fill="white">WriteReq_Minor_</text>
<text text-anchor="middle" x="893.579" y="-231.67" font-family="Times,serif" font-size="14.00" fill="white">Clear</text>
</a>
</g>
</g>
<!-- Write Req Minor
Comp&#45;&gt;WriteReq_Minor_
Clear -->
<g id="${uniqueid}_edge8" class="edge"><title>Write Req Minor
Comp:ne&#45;&gt;WriteReq_Minor_
Clear:w</title>
<path fill="none" stroke="black" d="M648.463,-236.87C650.997,-239.404 646.777,-242.499 649.463,-244.87 685.114,-276.342 708.926,-246.19 756.463,-244.87 768.477,-244.537 773.706,-243.578 782.33,-243.12"/>
<polygon fill="black" stroke="black" points="782.552,-246.616 792.463,-242.87 782.38,-239.618 782.552,-246.616"/>
<text text-anchor="middle" x="631.463" y="-240.67" font-family="Times,serif" font-size="14.00">false</text>
</g>
<!-- WriteReq_
Critical Trap -->
<g id="${uniqueid}_node7" class="node"><title>WriteReq_
Critical Trap</title>
<g id="a_${uniqueid}_node7"><a xlink:href="#2613873995227562" xlink:title="com.watch4net.alerting.action.SNMPTrapAction">
<ellipse fill="#4daf4a" stroke="black" cx="893.579" cy="-26.8701" rx="76.2353" ry="26.7407"/>
<text text-anchor="middle" x="893.579" y="-30.6701" font-family="Times,serif" font-size="14.00" fill="white">WriteReq_</text>
<text text-anchor="middle" x="893.579" y="-15.6701" font-family="Times,serif" font-size="14.00" fill="white">Critical Trap</text>
</a>
</g>
</g>
<!-- WriteReq Crit
comp&#45;&gt;WriteReq_
Critical Trap -->
<g id="${uniqueid}_edge11" class="edge"><title>WriteReq Crit
comp:se&#45;&gt;WriteReq_
Critical Trap:w</title>
<path fill="none" stroke="black" d="M649.463,-40.8701C699.398,9.06452 737.744,-23.4704 805.382,-26.6303"/>
<polygon fill="black" stroke="black" points="805.5,-30.1339 815.579,-26.8701 805.664,-23.1359 805.5,-30.1339"/>
<text text-anchor="middle" x="633.963" y="-29.6701" font-family="Times,serif" font-size="14.00">true</text>
</g>
<!-- WriteReq_
Critical_Clear -->
<g id="${uniqueid}_node8" class="node"><title>WriteReq_
Critical_Clear</title>
<g id="a_${uniqueid}_node8"><a xlink:href="#1426753895831" xlink:title="com.watch4net.alerting.action.SNMPTrapAction">
<ellipse fill="#4daf4a" stroke="black" cx="893.579" cy="-98.8701" rx="82.9636" ry="26.7407"/>
<text text-anchor="middle" x="893.579" y="-102.67" font-family="Times,serif" font-size="14.00" fill="white">WriteReq_</text>
<text text-anchor="middle" x="893.579" y="-87.6701" font-family="Times,serif" font-size="14.00" fill="white">Critical_Clear</text>
</a>
</g>
</g>
<!-- WriteReq Crit
comp&#45;&gt;WriteReq_
Critical_Clear -->
<g id="${uniqueid}_edge10" class="edge"><title>WriteReq Crit
comp:ne&#45;&gt;WriteReq_
Critical_Clear:w</title>
<path fill="none" stroke="black" d="M647.463,-98.8701C650.309,-101.716 645.464,-105.186 648.463,-107.87 699.293,-153.365 734.307,-104.17 799.323,-99.2577"/>
<polygon fill="black" stroke="black" points="799.719,-102.745 809.579,-98.8701 799.454,-95.7504 799.719,-102.745"/>
<text text-anchor="middle" x="630.463" y="-102.67" font-family="Times,serif" font-size="14.00">false</text>
</g>
</g>
</svg>
