<?xml version="1.0" encoding="UTF-8" standalone="no"?>
<!DOCTYPE svg PUBLIC "-//W3C//DTD SVG 1.1//EN"
 "http://www.w3.org/Graphics/SVG/1.1/DTD/svg11.dtd">
<!-- Generated by graphviz version 2.38.0 (20140413.2041)
 -->
<!-- Title: Data Collection Issue Pages: 1 -->
<svg width="740pt" height="134pt"
 viewBox="0.00 0.00 739.64 133.74" xmlns="http://www.w3.org/2000/svg" xmlns:xlink="http://www.w3.org/1999/xlink">
<g id="${uniqueid}" class="graph" transform="scale(1 1) rotate(0) translate(4 129.74)">
<title>Data Collection Issue</title>
<polygon fill="white" stroke="none" points="-4,4 -4,-129.74 735.637,-129.74 735.637,4 -4,4"/>
<!-- Device Down SNMP
Clear -->
<g id="${uniqueid}_node1" class="node"><title>Device Down SNMP
Clear</title>
<g id="a_${uniqueid}_node1"><a xlink:href="#1442498923265" xlink:title="com.watch4net.alerting.action.SNMPTrapAction">
<ellipse fill="#4daf4a" stroke="black" cx="617.792" cy="-98.8701" rx="113.689" ry="26.7407"/>
<text text-anchor="middle" x="617.792" y="-102.67" font-family="Times,serif" font-size="14.00" fill="white">Device Down SNMP</text>
<text text-anchor="middle" x="617.792" y="-87.6701" font-family="Times,serif" font-size="14.00" fill="white">Clear</text>
</a>
</g>
</g>
<!-- Device Down SNMP
Set -->
<g id="${uniqueid}_node2" class="node"><title>Device Down SNMP
Set</title>
<g id="a_${uniqueid}_node2"><a xlink:href="#1442497239959" xlink:title="com.watch4net.alerting.action.SNMPTrapAction">
<ellipse fill="#4daf4a" stroke="black" cx="617.792" cy="-26.8701" rx="113.689" ry="26.7407"/>
<text text-anchor="middle" x="617.792" y="-30.6701" font-family="Times,serif" font-size="14.00" fill="white">Device Down SNMP</text>
<text text-anchor="middle" x="617.792" y="-15.6701" font-family="Times,serif" font-size="14.00" fill="white">Set</text>
</a>
</g>
</g>
<!-- FilterforGlobal
DataCollection -->
<g id="${uniqueid}_node3" class="node"><title>FilterforGlobal
DataCollection</title>
<g id="a_${uniqueid}_node3"><a xlink:href="#1442438004083" xlink:title="com.watch4net.alerting.operation.FilteredEntryPoint">
<ellipse fill="#984ea3" stroke="black" cx="86.9741" cy="-62.8701" rx="86.9483" ry="26.7407"/>
<text text-anchor="middle" x="86.9741" y="-66.6701" font-family="Times,serif" font-size="14.00" fill="white">FilterforGlobal</text>
<text text-anchor="middle" x="86.9741" y="-51.6701" font-family="Times,serif" font-size="14.00" fill="white">DataCollection</text>
</a>
</g>
</g>
<!-- Minute_Check_
Comp -->
<g id="${uniqueid}_node4" class="node"><title>Minute_Check_
Comp</title>
<g id="a_${uniqueid}_node4"><a xlink:href="#1442497272946" xlink:title="com.watch4net.alerting.operation.comparator.ConstantComparatorOperation">
<polygon fill="#ff7f00" stroke="black" points="338.948,-100.87 209.948,-62.8701 338.948,-24.8701 467.948,-62.8701 338.948,-100.87"/>
<text text-anchor="middle" x="338.948" y="-66.6701" font-family="Times,serif" font-size="14.00" fill="white">Minute_Check_</text>
<text text-anchor="middle" x="338.948" y="-51.6701" font-family="Times,serif" font-size="14.00" fill="white">Comp</text>
</a>
</g>
</g>
<!-- FilterforGlobal
DataCollection&#45;&gt;Minute_Check_
Comp -->
<g id="${uniqueid}_edge1" class="edge"><title>FilterforGlobal
DataCollection:e&#45;&gt;Minute_Check_
Comp:w</title>
<path fill="none" stroke="black" d="M173.948,-62.8701C185.948,-62.8701 191.198,-62.8701 199.823,-62.8701"/>
<polygon fill="black" stroke="black" points="199.948,-66.3702 209.948,-62.8701 199.948,-59.3702 199.948,-66.3702"/>
</g>
<!-- Minute_Check_
Comp&#45;&gt;Device Down SNMP
Clear -->
<g id="${uniqueid}_edge2" class="edge"><title>Minute_Check_
Comp:ne&#45;&gt;Device Down SNMP
Clear:w</title>
<path fill="none" stroke="black" d="M367.948,-92.8701C370.482,-95.4038 366.262,-98.4987 368.948,-100.87 401.934,-129.989 423.965,-102.091 467.948,-100.87 479.962,-100.537 485.191,-99.5783 493.815,-99.12"/>
<polygon fill="black" stroke="black" points="494.038,-102.616 503.948,-98.8701 493.865,-95.6178 494.038,-102.616"/>
<text text-anchor="middle" x="350.948" y="-96.6701" font-family="Times,serif" font-size="14.00">false</text>
</g>
<!-- Minute_Check_
Comp&#45;&gt;Device Down SNMP
Set -->
<g id="${uniqueid}_edge3" class="edge"><title>Minute_Check_
Comp:se&#45;&gt;Device Down SNMP
Set:w</title>
<path fill="none" stroke="black" d="M369.948,-32.8701C409.633,6.81429 440.522,-22.9021 493.744,-26.5207"/>
<polygon fill="black" stroke="black" points="493.834,-30.0258 503.948,-26.8701 494.074,-23.0299 493.834,-30.0258"/>
<text text-anchor="middle" x="354.448" y="-21.6701" font-family="Times,serif" font-size="14.00">true</text>
</g>
</g>
</svg>
