<?xml version="1.0" encoding="UTF-8" standalone="no"?>
<!DOCTYPE svg PUBLIC "-//W3C//DTD SVG 1.1//EN"
 "http://www.w3.org/Graphics/SVG/1.1/DTD/svg11.dtd">
<!-- Generated by graphviz version 2.38.0 (20140413.2041)
 -->
<!-- Title: EMC VMAX Alert Definitions/VMAX&#45;Devices/High Read Throughput Pages: 1 -->
<svg width="907pt" height="368pt"
 viewBox="0.00 0.00 907.06 368.06" xmlns="http://www.w3.org/2000/svg" xmlns:xlink="http://www.w3.org/1999/xlink">
<g id="${uniqueid}" class="graph" transform="scale(1 1) rotate(0) translate(4 364.055)">
<title>EMC VMAX Alert Definitions/VMAX&#45;Devices/High Read Throughput</title>
<polygon fill="white" stroke="none" points="-4,4 -4,-364.055 903.065,-364.055 903.065,4 -4,4"/>
<!-- HighReadsIORate -->
<g id="${uniqueid}_node1" class="node"><title>HighReadsIORate</title>
<g id="a_${uniqueid}_node1"><a xlink:href="#2034017942953067" xlink:title="com.watch4net.alerting.operation.FilteredEntryPoint">
<ellipse fill="#984ea3" stroke="black" cx="94.8916" cy="-183.87" rx="94.7833" ry="18"/>
<text text-anchor="middle" x="94.8916" y="-180.17" font-family="Times,serif" font-size="14.00" fill="white">HighReadsIORate</text>
</a>
</g>
</g>
<!-- LUNReadIORate -->
<g id="${uniqueid}_node2" class="node"><title>LUNReadIORate</title>
<g id="a_${uniqueid}_node2"><a xlink:href="#2034017942995965" xlink:title="com.watch4net.alerting.operation.CaseOperation">
<polygon fill="#377eb8" stroke="black" points="361.783,-201.87 225.783,-201.87 225.783,-165.87 361.783,-165.87 361.783,-201.87"/>
<text text-anchor="middle" x="293.783" y="-180.17" font-family="Times,serif" font-size="14.00" fill="white">LUNReadIORate</text>
</a>
</g>
</g>
<!-- HighReadsIORate&#45;&gt;LUNReadIORate -->
<g id="${uniqueid}_edge1" class="edge"><title>HighReadsIORate:e&#45;&gt;LUNReadIORate:w</title>
<path fill="none" stroke="black" d="M189.783,-183.87C201.783,-183.87 207.033,-183.87 215.658,-183.87"/>
<polygon fill="black" stroke="black" points="215.783,-187.37 225.783,-183.87 215.783,-180.37 215.783,-187.37"/>
</g>
<!-- LUN_HighRead
IORate_Cirt -->
<g id="${uniqueid}_node3" class="node"><title>LUN_HighRead
IORate_Cirt</title>
<g id="a_${uniqueid}_node3"><a xlink:href="#2034017943005375" xlink:title="com.watch4net.alerting.operation.comparator.ConstantComparatorOperation">
<polygon fill="#ff7f00" stroke="black" points="525.783,-345.87 397.783,-307.87 525.783,-269.87 653.783,-307.87 525.783,-345.87"/>
<text text-anchor="middle" x="525.783" y="-311.67" font-family="Times,serif" font-size="14.00" fill="white">LUN_HighRead</text>
<text text-anchor="middle" x="525.783" y="-296.67" font-family="Times,serif" font-size="14.00" fill="white">IORate_Cirt</text>
</a>
</g>
</g>
<!-- LUNReadIORate&#45;&gt;LUN_HighRead
IORate_Cirt -->
<g id="${uniqueid}_edge2" class="edge"><title>LUNReadIORate:e&#45;&gt;LUN_HighRead
IORate_Cirt:w</title>
<path fill="none" stroke="black" d="M361.783,-183.87C415.135,-183.87 350.801,-291.046 387.603,-306.117"/>
<polygon fill="black" stroke="black" points="387.334,-309.622 397.783,-307.87 388.522,-302.724 387.334,-309.622"/>
</g>
<!-- LUN_HighRead
IORate_Major -->
<g id="${uniqueid}_node4" class="node"><title>LUN_HighRead
IORate_Major</title>
<g id="a_${uniqueid}_node4"><a xlink:href="#2034017943045566" xlink:title="com.watch4net.alerting.operation.comparator.ConstantComparatorOperation">
<polygon fill="#ff7f00" stroke="black" points="525.783,-221.87 397.783,-183.87 525.783,-145.87 653.783,-183.87 525.783,-221.87"/>
<text text-anchor="middle" x="525.783" y="-187.67" font-family="Times,serif" font-size="14.00" fill="white">LUN_HighRead</text>
<text text-anchor="middle" x="525.783" y="-172.67" font-family="Times,serif" font-size="14.00" fill="white">IORate_Major</text>
</a>
</g>
</g>
<!-- LUNReadIORate&#45;&gt;LUN_HighRead
IORate_Major -->
<g id="${uniqueid}_edge3" class="edge"><title>LUNReadIORate:e&#45;&gt;LUN_HighRead
IORate_Major:w</title>
<path fill="none" stroke="black" d="M361.783,-183.87C373.783,-183.87 379.033,-183.87 387.658,-183.87"/>
<polygon fill="black" stroke="black" points="387.783,-187.37 397.783,-183.87 387.783,-180.37 387.783,-187.37"/>
</g>
<!-- LUN_HighRead
IORate_Minor -->
<g id="${uniqueid}_node5" class="node"><title>LUN_HighRead
IORate_Minor</title>
<g id="a_${uniqueid}_node5"><a xlink:href="#2034017943075790" xlink:title="com.watch4net.alerting.operation.comparator.ConstantComparatorOperation">
<polygon fill="#ff7f00" stroke="black" points="525.783,-98.8701 397.783,-60.8701 525.783,-22.8701 653.783,-60.8701 525.783,-98.8701"/>
<text text-anchor="middle" x="525.783" y="-64.6701" font-family="Times,serif" font-size="14.00" fill="white">LUN_HighRead</text>
<text text-anchor="middle" x="525.783" y="-49.6701" font-family="Times,serif" font-size="14.00" fill="white">IORate_Minor</text>
</a>
</g>
</g>
<!-- LUNReadIORate&#45;&gt;LUN_HighRead
IORate_Minor -->
<g id="${uniqueid}_edge4" class="edge"><title>LUNReadIORate:e&#45;&gt;LUN_HighRead
IORate_Minor:w</title>
<path fill="none" stroke="black" d="M361.783,-183.87C414.738,-183.87 351.114,-77.5588 387.675,-62.6088"/>
<polygon fill="black" stroke="black" points="388.521,-66.0147 397.783,-60.8701 387.335,-59.116 388.521,-66.0147"/>
</g>
<!-- LUN_High_Read_
IO_Rate_Crit -->
<g id="${uniqueid}_node6" class="node"><title>LUN_High_Read_
IO_Rate_Crit</title>
<g id="a_${uniqueid}_node6"><a xlink:href="#2034017943021401" xlink:title="com.watch4net.alerting.action.SNMPTrapAction">
<ellipse fill="#4daf4a" stroke="black" cx="794.424" cy="-278.87" rx="101.233" ry="26.7407"/>
<text text-anchor="middle" x="794.424" y="-282.67" font-family="Times,serif" font-size="14.00" fill="white">LUN_High_Read_</text>
<text text-anchor="middle" x="794.424" y="-267.67" font-family="Times,serif" font-size="14.00" fill="white">IO_Rate_Crit</text>
</a>
</g>
</g>
<!-- LUN_HighRead
IORate_Cirt&#45;&gt;LUN_High_Read_
IO_Rate_Crit -->
<g id="${uniqueid}_edge6" class="edge"><title>LUN_HighRead
IORate_Cirt:se&#45;&gt;LUN_High_Read_
IO_Rate_Crit:w</title>
<path fill="none" stroke="black" d="M555.783,-278.87C596.293,-238.36 627.928,-274.281 682.365,-278.48"/>
<polygon fill="black" stroke="black" points="682.296,-281.98 692.424,-278.87 682.567,-274.985 682.296,-281.98"/>
<text text-anchor="middle" x="540.283" y="-267.67" font-family="Times,serif" font-size="14.00">true</text>
</g>
<!-- SNMP_Clear_Crit -->
<g id="${uniqueid}_node9" class="node"><title>SNMP_Clear_Crit</title>
<g id="a_${uniqueid}_node9"><a xlink:href="#2034017943036197" xlink:title="com.watch4net.alerting.action.SNMPTrapAction">
<ellipse fill="#4daf4a" stroke="black" cx="794.424" cy="-341.87" rx="94.7833" ry="18"/>
<text text-anchor="middle" x="794.424" y="-338.17" font-family="Times,serif" font-size="14.00" fill="white">SNMP_Clear_Crit</text>
</a>
</g>
</g>
<!-- LUN_HighRead
IORate_Cirt&#45;&gt;SNMP_Clear_Crit -->
<g id="${uniqueid}_edge5" class="edge"><title>LUN_HighRead
IORate_Cirt:ne&#45;&gt;SNMP_Clear_Crit:w</title>
<path fill="none" stroke="black" d="M553.783,-336.87C556.629,-339.716 551.784,-343.186 554.783,-345.87 587.569,-375.215 609.827,-347.835 653.783,-345.87 669.796,-345.154 676.046,-343 688.255,-342.186"/>
<polygon fill="black" stroke="black" points="688.538,-345.679 698.424,-341.87 688.32,-338.683 688.538,-345.679"/>
<text text-anchor="middle" x="536.783" y="-340.67" font-family="Times,serif" font-size="14.00">false</text>
</g>
<!-- LUN_High_Read_
IO_Rate_Major -->
<g id="${uniqueid}_node7" class="node"><title>LUN_High_Read_
IO_Rate_Major</title>
<g id="a_${uniqueid}_node7"><a xlink:href="#2034017943056204" xlink:title="com.watch4net.alerting.action.SNMPTrapAction">
<ellipse fill="#4daf4a" stroke="black" cx="794.424" cy="-152.87" rx="101.233" ry="26.7407"/>
<text text-anchor="middle" x="794.424" y="-156.67" font-family="Times,serif" font-size="14.00" fill="white">LUN_High_Read_</text>
<text text-anchor="middle" x="794.424" y="-141.67" font-family="Times,serif" font-size="14.00" fill="white">IO_Rate_Major</text>
</a>
</g>
</g>
<!-- LUN_HighRead
IORate_Major&#45;&gt;LUN_High_Read_
IO_Rate_Major -->
<g id="${uniqueid}_edge8" class="edge"><title>LUN_HighRead
IORate_Major:se&#45;&gt;LUN_High_Read_
IO_Rate_Major:w</title>
<path fill="none" stroke="black" d="M555.783,-154.87C596.297,-114.356 627.923,-148.501 682.364,-152.499"/>
<polygon fill="black" stroke="black" points="682.302,-155.999 692.424,-152.87 682.56,-149.003 682.302,-155.999"/>
<text text-anchor="middle" x="540.283" y="-143.67" font-family="Times,serif" font-size="14.00">true</text>
</g>
<!-- SNMP_Clear_Major -->
<g id="${uniqueid}_node10" class="node"><title>SNMP_Clear_Major</title>
<g id="a_${uniqueid}_node10"><a xlink:href="#2034017943066104" xlink:title="com.watch4net.alerting.action.SNMPTrapAction">
<ellipse fill="#4daf4a" stroke="black" cx="794.424" cy="-215.87" rx="103.982" ry="18"/>
<text text-anchor="middle" x="794.424" y="-212.17" font-family="Times,serif" font-size="14.00" fill="white">SNMP_Clear_Major</text>
</a>
</g>
</g>
<!-- LUN_HighRead
IORate_Major&#45;&gt;SNMP_Clear_Major -->
<g id="${uniqueid}_edge7" class="edge"><title>LUN_HighRead
IORate_Major:ne&#45;&gt;SNMP_Clear_Major:w</title>
<path fill="none" stroke="black" d="M553.783,-212.87C556.629,-215.716 551.784,-219.186 554.783,-221.87 587.569,-251.215 609.933,-225.499 653.783,-221.87 665.907,-220.867 670.971,-217.993 679.588,-216.619"/>
<polygon fill="black" stroke="black" points="680.067,-220.094 689.783,-215.87 679.553,-213.113 680.067,-220.094"/>
<text text-anchor="middle" x="536.783" y="-216.67" font-family="Times,serif" font-size="14.00">false</text>
</g>
<!-- LUN_High_Read_
IO_Rate_Minor -->
<g id="${uniqueid}_node8" class="node"><title>LUN_High_Read_
IO_Rate_Minor</title>
<g id="a_${uniqueid}_node8"><a xlink:href="#2034017943086420" xlink:title="com.watch4net.alerting.action.SNMPTrapAction">
<ellipse fill="#4daf4a" stroke="black" cx="794.424" cy="-26.8701" rx="101.233" ry="26.7407"/>
<text text-anchor="middle" x="794.424" y="-30.6701" font-family="Times,serif" font-size="14.00" fill="white">LUN_High_Read_</text>
<text text-anchor="middle" x="794.424" y="-15.6701" font-family="Times,serif" font-size="14.00" fill="white">IO_Rate_Minor</text>
</a>
</g>
</g>
<!-- LUN_HighRead
IORate_Minor&#45;&gt;LUN_High_Read_
IO_Rate_Minor -->
<g id="${uniqueid}_edge10" class="edge"><title>LUN_HighRead
IORate_Minor:se&#45;&gt;LUN_High_Read_
IO_Rate_Minor:w</title>
<path fill="none" stroke="black" d="M555.783,-31.8701C596.32,8.66682 627.895,-22.8284 682.359,-26.5262"/>
<polygon fill="black" stroke="black" points="682.31,-30.0265 692.424,-26.8701 682.549,-23.0306 682.31,-30.0265"/>
<text text-anchor="middle" x="540.283" y="-20.6701" font-family="Times,serif" font-size="14.00">true</text>
</g>
<!-- SNMP_Clear_Minor -->
<g id="${uniqueid}_node11" class="node"><title>SNMP_Clear_Minor</title>
<g id="a_${uniqueid}_node11"><a xlink:href="#2034017943097403" xlink:title="com.watch4net.alerting.action.SNMPTrapAction">
<ellipse fill="#4daf4a" stroke="black" cx="794.424" cy="-89.8701" rx="104.782" ry="18"/>
<text text-anchor="middle" x="794.424" y="-86.1701" font-family="Times,serif" font-size="14.00" fill="white">SNMP_Clear_Minor</text>
</a>
</g>
</g>
<!-- LUN_HighRead
IORate_Minor&#45;&gt;SNMP_Clear_Minor -->
<g id="${uniqueid}_edge9" class="edge"><title>LUN_HighRead
IORate_Minor:ne&#45;&gt;SNMP_Clear_Minor:w</title>
<path fill="none" stroke="black" d="M553.783,-89.8701C556.629,-92.7159 551.784,-96.186 554.783,-98.8701 587.569,-128.215 610.113,-104.246 653.783,-98.8701 666.188,-97.343 670.994,-92.9619 679.773,-90.9293"/>
<polygon fill="black" stroke="black" points="680.207,-94.403 689.783,-89.8701 679.47,-87.4418 680.207,-94.403"/>
<text text-anchor="middle" x="536.783" y="-93.6701" font-family="Times,serif" font-size="14.00">false</text>
</g>
</g>
</svg>
