<?xml version="1.0" encoding="UTF-8" standalone="no"?>
<!DOCTYPE svg PUBLIC "-//W3C//DTD SVG 1.1//EN"
 "http://www.w3.org/Graphics/SVG/1.1/DTD/svg11.dtd">
<!-- Generated by graphviz version 2.38.0 (20140413.2041)
 -->
<!-- Title: EMC Isilon Alert Definitions/PowerSupplyFailure/PowerSupplyFailure&#45;Generic Pages: 1 -->
<svg width="903pt" height="254pt"
 viewBox="0.00 0.00 903.18 253.67" xmlns="http://www.w3.org/2000/svg" xmlns:xlink="http://www.w3.org/1999/xlink">
<g id="${uniqueid}" class="graph" transform="scale(1 1) rotate(0) translate(4 249.67)">
<title>EMC Isilon Alert Definitions/PowerSupplyFailure/PowerSupplyFailure&#45;Generic</title>
<polygon fill="white" stroke="none" points="-4,4 -4,-249.67 899.181,-249.67 899.181,4 -4,4"/>
<!-- PowerSupply
Failure&#45;Generic -->
<g id="${uniqueid}_node1" class="node"><title>PowerSupply
Failure&#45;Generic</title>
<g id="a_${uniqueid}_node1"><a xlink:href="#1720845563361184" xlink:title="com.watch4net.alerting.operation.FilteredEntryPoint">
<ellipse fill="#984ea3" stroke="black" cx="91.2168" cy="-115" rx="91.4341" ry="26.7407"/>
<text text-anchor="middle" x="91.2168" y="-118.8" font-family="Times,serif" font-size="14.00" fill="white">PowerSupply</text>
<text text-anchor="middle" x="91.2168" y="-103.8" font-family="Times,serif" font-size="14.00" fill="white">Failure&#45;Generic</text>
</a>
</g>
</g>
<!-- PowerSupply
Failure&#45;Generic&#45;
case -->
<g id="${uniqueid}_node4" class="node"><title>PowerSupply
Failure&#45;Generic&#45;
case</title>
<g id="a_${uniqueid}_node4"><a xlink:href="#1418932132444" xlink:title="com.watch4net.alerting.operation.CaseOperation">
<polygon fill="#377eb8" stroke="black" points="355.434,-141.5 218.434,-141.5 218.434,-88.5 355.434,-88.5 355.434,-141.5"/>
<text text-anchor="middle" x="286.934" y="-126.3" font-family="Times,serif" font-size="14.00" fill="white">PowerSupply</text>
<text text-anchor="middle" x="286.934" y="-111.3" font-family="Times,serif" font-size="14.00" fill="white">Failure&#45;Generic&#45;</text>
<text text-anchor="middle" x="286.934" y="-96.3" font-family="Times,serif" font-size="14.00" fill="white">case</text>
</a>
</g>
</g>
<!-- PowerSupply
Failure&#45;Generic&#45;&gt;PowerSupply
Failure&#45;Generic&#45;
case -->
<g id="${uniqueid}_edge1" class="edge"><title>PowerSupply
Failure&#45;Generic:e&#45;&gt;PowerSupply
Failure&#45;Generic&#45;
case:w</title>
<path fill="none" stroke="black" d="M182.434,-115C194.434,-115 199.684,-115 208.309,-115"/>
<polygon fill="black" stroke="black" points="208.434,-118.5 218.434,-115 208.434,-111.5 208.434,-118.5"/>
</g>
<!-- PowerSupply
Failure&#45;Generic&#45;
Supply 1 -->
<g id="${uniqueid}_node2" class="node"><title>PowerSupply
Failure&#45;Generic&#45;
Supply 1</title>
<g id="a_${uniqueid}_node2"><a xlink:href="#1720845563398125" xlink:title="com.watch4net.alerting.operation.comparator.StringComparatorOperation">
<polygon fill="#ff7f00" stroke="black" points="528.434,-106 391.434,-53 528.434,-2.13163e-14 665.434,-53 528.434,-106"/>
<text text-anchor="middle" x="528.434" y="-64.3" font-family="Times,serif" font-size="14.00" fill="white">PowerSupply</text>
<text text-anchor="middle" x="528.434" y="-49.3" font-family="Times,serif" font-size="14.00" fill="white">Failure&#45;Generic&#45;</text>
<text text-anchor="middle" x="528.434" y="-34.3" font-family="Times,serif" font-size="14.00" fill="white">Supply 1</text>
</a>
</g>
</g>
<!-- PowerSupply
Failure&#45;Generic1 -->
<g id="${uniqueid}_node5" class="node"><title>PowerSupply
Failure&#45;Generic1</title>
<g id="a_${uniqueid}_node5"><a xlink:href="#1720845563432442" xlink:title="com.watch4net.alerting.action.SNMPTrapAction">
<ellipse fill="#4daf4a" stroke="black" cx="798.307" cy="-95" rx="96.7474" ry="26.7407"/>
<text text-anchor="middle" x="798.307" y="-98.8" font-family="Times,serif" font-size="14.00" fill="white">PowerSupply</text>
<text text-anchor="middle" x="798.307" y="-83.8" font-family="Times,serif" font-size="14.00" fill="white">Failure&#45;Generic1</text>
</a>
</g>
</g>
<!-- PowerSupply
Failure&#45;Generic&#45;
Supply 1&#45;&gt;PowerSupply
Failure&#45;Generic1 -->
<g id="${uniqueid}_edge2" class="edge"><title>PowerSupply
Failure&#45;Generic&#45;
Supply 1:e&#45;&gt;PowerSupply
Failure&#45;Generic1:w</title>
<path fill="none" stroke="black" d="M665.434,-53C685.793,-53 680.26,-81.8032 691.719,-91.7043"/>
<polygon fill="black" stroke="black" points="690.839,-95.1016 701.434,-95 693.088,-88.4727 690.839,-95.1016"/>
<text text-anchor="middle" x="680.934" y="-41.8" font-family="Times,serif" font-size="14.00">true</text>
</g>
<!-- PowerSupply
Failure&#45;Generic&#45;
Supply1 -->
<g id="${uniqueid}_node3" class="node"><title>PowerSupply
Failure&#45;Generic&#45;
Supply1</title>
<g id="a_${uniqueid}_node3"><a xlink:href="#1720845563418621" xlink:title="com.watch4net.alerting.operation.comparator.StringComparatorOperation">
<polygon fill="#ff7f00" stroke="black" points="528.434,-230 391.434,-177 528.434,-124 665.434,-177 528.434,-230"/>
<text text-anchor="middle" x="528.434" y="-188.3" font-family="Times,serif" font-size="14.00" fill="white">PowerSupply</text>
<text text-anchor="middle" x="528.434" y="-173.3" font-family="Times,serif" font-size="14.00" fill="white">Failure&#45;Generic&#45;</text>
<text text-anchor="middle" x="528.434" y="-158.3" font-family="Times,serif" font-size="14.00" fill="white">Supply1</text>
</a>
</g>
</g>
<!-- PowerSupply
Failure&#45;Generic&#45;
Supply1&#45;&gt;PowerSupply
Failure&#45;Generic1 -->
<g id="${uniqueid}_edge4" class="edge"><title>PowerSupply
Failure&#45;Generic&#45;
Supply1:se&#45;&gt;PowerSupply
Failure&#45;Generic1:w</title>
<path fill="none" stroke="black" d="M568.434,-138C599.763,-106.671 624.125,-131.02 665.434,-115 678.632,-109.881 682,-100.717 691.318,-96.8264"/>
<polygon fill="black" stroke="black" points="692.215,-100.221 701.434,-95 690.971,-93.3325 692.215,-100.221"/>
<text text-anchor="middle" x="552.934" y="-126.8" font-family="Times,serif" font-size="14.00">true</text>
</g>
<!-- PowerSupply
Failure&#45;Generic2 -->
<g id="${uniqueid}_node6" class="node"><title>PowerSupply
Failure&#45;Generic2</title>
<g id="a_${uniqueid}_node6"><a xlink:href="#1720845563448992" xlink:title="com.watch4net.alerting.action.SNMPTrapAction">
<ellipse fill="#4daf4a" stroke="black" cx="798.307" cy="-216" rx="96.7474" ry="26.7407"/>
<text text-anchor="middle" x="798.307" y="-219.8" font-family="Times,serif" font-size="14.00" fill="white">PowerSupply</text>
<text text-anchor="middle" x="798.307" y="-204.8" font-family="Times,serif" font-size="14.00" fill="white">Failure&#45;Generic2</text>
</a>
</g>
</g>
<!-- PowerSupply
Failure&#45;Generic&#45;
Supply1&#45;&gt;PowerSupply
Failure&#45;Generic2 -->
<g id="${uniqueid}_edge3" class="edge"><title>PowerSupply
Failure&#45;Generic&#45;
Supply1:ne&#45;&gt;PowerSupply
Failure&#45;Generic2:w</title>
<path fill="none" stroke="black" d="M566.434,-216C568.639,-218.205 565.151,-227.875 567.434,-230 599.31,-259.681 622.625,-238.031 665.434,-230 678.352,-227.577 682.528,-220.657 691.481,-217.547"/>
<polygon fill="black" stroke="black" points="692.09,-220.995 701.434,-216 691.015,-214.078 692.09,-220.995"/>
<text text-anchor="middle" x="547.434" y="-219.8" font-family="Times,serif" font-size="14.00">false</text>
</g>
<!-- PowerSupply
Failure&#45;Generic&#45;
case&#45;&gt;PowerSupply
Failure&#45;Generic&#45;
Supply 1 -->
<g id="${uniqueid}_edge5" class="edge"><title>PowerSupply
Failure&#45;Generic&#45;
case:e&#45;&gt;PowerSupply
Failure&#45;Generic&#45;
Supply 1:w</title>
<path fill="none" stroke="black" d="M355.434,-115C383.066,-115 365.884,-68.3751 381.612,-55.9904"/>
<polygon fill="black" stroke="black" points="382.887,-59.261 391.434,-53 380.848,-52.5645 382.887,-59.261"/>
</g>
<!-- PowerSupply
Failure&#45;Generic&#45;
case&#45;&gt;PowerSupply
Failure&#45;Generic&#45;
Supply1 -->
<g id="${uniqueid}_edge6" class="edge"><title>PowerSupply
Failure&#45;Generic&#45;
case:e&#45;&gt;PowerSupply
Failure&#45;Generic&#45;
Supply1:w</title>
<path fill="none" stroke="black" d="M355.434,-115C383.066,-115 365.884,-161.625 381.612,-174.01"/>
<polygon fill="black" stroke="black" points="380.848,-177.435 391.434,-177 382.887,-170.739 380.848,-177.435"/>
</g>
</g>
</svg>
