<?xml version="1.0" encoding="UTF-8" standalone="no"?>
<!DOCTYPE svg PUBLIC "-//W3C//DTD SVG 1.1//EN"
 "http://www.w3.org/Graphics/SVG/1.1/DTD/svg11.dtd">
<!-- Generated by graphviz version 2.38.0 (20140413.2041)
 -->
<!-- Title: EMC VNX Alert Definitions/VNXFile&#45;Quota/Hard Quota Reached Pages: 1 -->
<svg width="1040pt" height="409pt"
 viewBox="0.00 0.00 1039.97 409.48" xmlns="http://www.w3.org/2000/svg" xmlns:xlink="http://www.w3.org/1999/xlink">
<g id="${uniqueid}" class="graph" transform="scale(1 1) rotate(0) translate(4 405.477)">
<title>EMC VNX Alert Definitions/VNXFile&#45;Quota/Hard Quota Reached</title>
<polygon fill="white" stroke="none" points="-4,4 -4,-405.477 1035.97,-405.477 1035.97,4 -4,4"/>
<!-- HardQuotaReached -->
<g id="${uniqueid}_node1" class="node"><title>HardQuotaReached</title>
<g id="a_${uniqueid}_node1"><a xlink:href="#694978365438797" xlink:title="com.watch4net.alerting.operation.CaseOperation">
<polygon fill="#377eb8" stroke="black" points="492.22,-204 355.22,-204 355.22,-168 492.22,-168 492.22,-204"/>
<text text-anchor="middle" x="423.72" y="-182.3" font-family="Times,serif" font-size="14.00" fill="white">HardQuotaReached</text>
</a>
</g>
</g>
<!-- HardQuotaReached
CRITICAL Alert -->
<g id="${uniqueid}_node3" class="node"><title>HardQuotaReached
CRITICAL Alert</title>
<g id="a_${uniqueid}_node3"><a xlink:href="#694978365461548" xlink:title="com.watch4net.alerting.operation.comparator.ConstantComparatorOperation">
<polygon fill="#ff7f00" stroke="black" points="665.22,-394 528.22,-356 665.22,-318 802.22,-356 665.22,-394"/>
<text text-anchor="middle" x="665.22" y="-359.8" font-family="Times,serif" font-size="14.00" fill="white">HardQuotaReached</text>
<text text-anchor="middle" x="665.22" y="-344.8" font-family="Times,serif" font-size="14.00" fill="white">CRITICAL Alert</text>
</a>
</g>
</g>
<!-- HardQuotaReached&#45;&gt;HardQuotaReached
CRITICAL Alert -->
<g id="${uniqueid}_edge1" class="edge"><title>HardQuotaReached:e&#45;&gt;HardQuotaReached
CRITICAL Alert:w</title>
<path fill="none" stroke="black" d="M492.22,-186C565.68,-186 462.091,-339.804 518.261,-354.824"/>
<polygon fill="black" stroke="black" points="517.879,-358.303 528.22,-356 518.7,-351.351 517.879,-358.303"/>
</g>
<!-- HardQuotaReached
INFORMATIONAL
Alert -->
<g id="${uniqueid}_node5" class="node"><title>HardQuotaReached
INFORMATIONAL
Alert</title>
<g id="a_${uniqueid}_node5"><a xlink:href="#694978365698949" xlink:title="com.watch4net.alerting.operation.comparator.ConstantComparatorOperation">
<polygon fill="#ff7f00" stroke="black" points="665.22,-294 528.22,-241 665.22,-188 802.22,-241 665.22,-294"/>
<text text-anchor="middle" x="665.22" y="-252.3" font-family="Times,serif" font-size="14.00" fill="white">HardQuotaReached</text>
<text text-anchor="middle" x="665.22" y="-237.3" font-family="Times,serif" font-size="14.00" fill="white">INFORMATIONAL</text>
<text text-anchor="middle" x="665.22" y="-222.3" font-family="Times,serif" font-size="14.00" fill="white">Alert</text>
</a>
</g>
</g>
<!-- HardQuotaReached&#45;&gt;HardQuotaReached
INFORMATIONAL
Alert -->
<g id="${uniqueid}_edge2" class="edge"><title>HardQuotaReached:e&#45;&gt;HardQuotaReached
INFORMATIONAL
Alert:w</title>
<path fill="none" stroke="black" d="M492.22,-186C517.099,-186 504.526,-225.884 518.286,-237.724"/>
<polygon fill="black" stroke="black" points="517.627,-241.192 528.22,-241 519.819,-234.544 517.627,-241.192"/>
</g>
<!-- HardQuotaReached
MAJOR Alert -->
<g id="${uniqueid}_node7" class="node"><title>HardQuotaReached
MAJOR Alert</title>
<g id="a_${uniqueid}_node7"><a xlink:href="#694978365627852" xlink:title="com.watch4net.alerting.operation.comparator.ConstantComparatorOperation">
<polygon fill="#ff7f00" stroke="black" points="665.22,-170 528.22,-132 665.22,-94 802.22,-132 665.22,-170"/>
<text text-anchor="middle" x="665.22" y="-135.8" font-family="Times,serif" font-size="14.00" fill="white">HardQuotaReached</text>
<text text-anchor="middle" x="665.22" y="-120.8" font-family="Times,serif" font-size="14.00" fill="white">MAJOR Alert</text>
</a>
</g>
</g>
<!-- HardQuotaReached&#45;&gt;HardQuotaReached
MAJOR Alert -->
<g id="${uniqueid}_edge3" class="edge"><title>HardQuotaReached:e&#45;&gt;HardQuotaReached
MAJOR Alert:w</title>
<path fill="none" stroke="black" d="M492.22,-186C516.783,-186 504.701,-146.841 518.385,-135.216"/>
<polygon fill="black" stroke="black" points="519.804,-138.435 528.22,-132 517.628,-131.782 519.804,-138.435"/>
</g>
<!-- HardQuotaReached
MINOR Alert -->
<g id="${uniqueid}_node9" class="node"><title>HardQuotaReached
MINOR Alert</title>
<g id="a_${uniqueid}_node9"><a xlink:href="#694978365679403" xlink:title="com.watch4net.alerting.operation.comparator.ConstantComparatorOperation">
<polygon fill="#ff7f00" stroke="black" points="665.22,-76 528.22,-38 665.22,-7.10543e-15 802.22,-38 665.22,-76"/>
<text text-anchor="middle" x="665.22" y="-41.8" font-family="Times,serif" font-size="14.00" fill="white">HardQuotaReached</text>
<text text-anchor="middle" x="665.22" y="-26.8" font-family="Times,serif" font-size="14.00" fill="white">MINOR Alert</text>
</a>
</g>
</g>
<!-- HardQuotaReached&#45;&gt;HardQuotaReached
MINOR Alert -->
<g id="${uniqueid}_edge4" class="edge"><title>HardQuotaReached:e&#45;&gt;HardQuotaReached
MINOR Alert:w</title>
<path fill="none" stroke="black" d="M492.22,-186C556.082,-186 471.248,-54.2908 518.265,-39.3706"/>
<polygon fill="black" stroke="black" points="518.791,-42.8313 528.22,-38 517.836,-35.8967 518.791,-42.8313"/>
</g>
<!-- HardQuotaReached
Alert Clear -->
<g id="${uniqueid}_node2" class="node"><title>HardQuotaReached
Alert Clear</title>
<g id="a_${uniqueid}_node2"><a xlink:href="#694978365712959" xlink:title="com.watch4net.alerting.action.SNMPTrapAction">
<ellipse fill="#4daf4a" stroke="black" cx="935.094" cy="-282" rx="96.7474" ry="26.7407"/>
<text text-anchor="middle" x="935.094" y="-285.8" font-family="Times,serif" font-size="14.00" fill="white">HardQuotaReached</text>
<text text-anchor="middle" x="935.094" y="-270.8" font-family="Times,serif" font-size="14.00" fill="white">Alert Clear</text>
</a>
</g>
</g>
<!-- HardQuotaReached
CRITICAL Alert
trap -->
<g id="${uniqueid}_node4" class="node"><title>HardQuotaReached
CRITICAL Alert
trap</title>
<g id="a_${uniqueid}_node4"><a xlink:href="#694978365517664" xlink:title="com.watch4net.alerting.action.SNMPTrapAction">
<ellipse fill="#4daf4a" stroke="black" cx="935.094" cy="-364" rx="96.7474" ry="37.4533"/>
<text text-anchor="middle" x="935.094" y="-375.3" font-family="Times,serif" font-size="14.00" fill="white">HardQuotaReached</text>
<text text-anchor="middle" x="935.094" y="-360.3" font-family="Times,serif" font-size="14.00" fill="white">CRITICAL Alert</text>
<text text-anchor="middle" x="935.094" y="-345.3" font-family="Times,serif" font-size="14.00" fill="white">trap</text>
</a>
</g>
</g>
<!-- HardQuotaReached
CRITICAL Alert&#45;&gt;HardQuotaReached
CRITICAL Alert
trap -->
<g id="${uniqueid}_edge5" class="edge"><title>HardQuotaReached
CRITICAL Alert:e&#45;&gt;HardQuotaReached
CRITICAL Alert
trap:w</title>
<path fill="none" stroke="black" d="M802.22,-356C814.641,-356 819.498,-360.594 828.255,-362.82"/>
<polygon fill="black" stroke="black" points="827.878,-366.299 838.22,-364 828.702,-359.348 827.878,-366.299"/>
<text text-anchor="middle" x="817.72" y="-344.8" font-family="Times,serif" font-size="14.00">true</text>
</g>
<!-- HardQuotaReached
INFORMATIONAL
Alert&#45;&gt;HardQuotaReached
Alert Clear -->
<g id="${uniqueid}_edge6" class="edge"><title>HardQuotaReached
INFORMATIONAL
Alert:ne&#45;&gt;HardQuotaReached
Alert Clear:w</title>
<path fill="none" stroke="black" d="M703.22,-280C705.426,-282.205 701.938,-291.875 704.22,-294 736.097,-323.681 759.227,-300.977 802.22,-294 814.836,-291.953 819.32,-286.117 828.091,-283.41"/>
<polygon fill="black" stroke="black" points="828.799,-286.846 838.22,-282 827.833,-279.913 828.799,-286.846"/>
<text text-anchor="middle" x="684.22" y="-283.8" font-family="Times,serif" font-size="14.00">false</text>
</g>
<!-- HardQuotaReached
INFORMATIONAL
Alert trap -->
<g id="${uniqueid}_node6" class="node"><title>HardQuotaReached
INFORMATIONAL
Alert trap</title>
<g id="a_${uniqueid}_node6"><a xlink:href="#694978365705248" xlink:title="com.watch4net.alerting.action.SNMPTrapAction">
<ellipse fill="#4daf4a" stroke="black" cx="935.094" cy="-200" rx="96.7474" ry="37.4533"/>
<text text-anchor="middle" x="935.094" y="-211.3" font-family="Times,serif" font-size="14.00" fill="white">HardQuotaReached</text>
<text text-anchor="middle" x="935.094" y="-196.3" font-family="Times,serif" font-size="14.00" fill="white">INFORMATIONAL</text>
<text text-anchor="middle" x="935.094" y="-181.3" font-family="Times,serif" font-size="14.00" fill="white">Alert trap</text>
</a>
</g>
</g>
<!-- HardQuotaReached
INFORMATIONAL
Alert&#45;&gt;HardQuotaReached
INFORMATIONAL
Alert trap -->
<g id="${uniqueid}_edge7" class="edge"><title>HardQuotaReached
INFORMATIONAL
Alert:se&#45;&gt;HardQuotaReached
INFORMATIONAL
Alert trap:w</title>
<path fill="none" stroke="black" d="M705.22,-202C744.574,-162.647 775.31,-195.616 828.1,-199.614"/>
<polygon fill="black" stroke="black" points="828.094,-203.117 838.22,-200 828.361,-196.122 828.094,-203.117"/>
<text text-anchor="middle" x="689.72" y="-190.8" font-family="Times,serif" font-size="14.00">true</text>
</g>
<!-- HardQuotaReached
MAJOR Alert trap -->
<g id="${uniqueid}_node8" class="node"><title>HardQuotaReached
MAJOR Alert trap</title>
<g id="a_${uniqueid}_node8"><a xlink:href="#694978365647424" xlink:title="com.watch4net.alerting.action.SNMPTrapAction">
<ellipse fill="#4daf4a" stroke="black" cx="935.094" cy="-118" rx="96.7474" ry="26.7407"/>
<text text-anchor="middle" x="935.094" y="-121.8" font-family="Times,serif" font-size="14.00" fill="white">HardQuotaReached</text>
<text text-anchor="middle" x="935.094" y="-106.8" font-family="Times,serif" font-size="14.00" fill="white">MAJOR Alert trap</text>
</a>
</g>
</g>
<!-- HardQuotaReached
MAJOR Alert&#45;&gt;HardQuotaReached
MAJOR Alert trap -->
<g id="${uniqueid}_edge8" class="edge"><title>HardQuotaReached
MAJOR Alert:e&#45;&gt;HardQuotaReached
MAJOR Alert trap:w</title>
<path fill="none" stroke="black" d="M802.22,-132C815.364,-132 819.421,-123.793 828.305,-119.947"/>
<polygon fill="black" stroke="black" points="829.082,-123.361 838.22,-118 827.733,-116.492 829.082,-123.361"/>
<text text-anchor="middle" x="817.72" y="-120.8" font-family="Times,serif" font-size="14.00">true</text>
</g>
<!-- HardQuotaReached
MINOR Alert trap -->
<g id="${uniqueid}_node10" class="node"><title>HardQuotaReached
MINOR Alert trap</title>
<g id="a_${uniqueid}_node10"><a xlink:href="#694978365690227" xlink:title="com.watch4net.alerting.action.SNMPTrapAction">
<ellipse fill="#4daf4a" stroke="black" cx="935.094" cy="-38" rx="96.7474" ry="26.7407"/>
<text text-anchor="middle" x="935.094" y="-41.8" font-family="Times,serif" font-size="14.00" fill="white">HardQuotaReached</text>
<text text-anchor="middle" x="935.094" y="-26.8" font-family="Times,serif" font-size="14.00" fill="white">MINOR Alert trap</text>
</a>
</g>
</g>
<!-- HardQuotaReached
MINOR Alert&#45;&gt;HardQuotaReached
MINOR Alert trap -->
<g id="${uniqueid}_edge9" class="edge"><title>HardQuotaReached
MINOR Alert:e&#45;&gt;HardQuotaReached
MINOR Alert trap:w</title>
<path fill="none" stroke="black" d="M802.22,-38C814.22,-38 819.47,-38 828.095,-38"/>
<polygon fill="black" stroke="black" points="828.22,-41.5001 838.22,-38 828.22,-34.5001 828.22,-41.5001"/>
<text text-anchor="middle" x="817.72" y="-26.8" font-family="Times,serif" font-size="14.00">true</text>
</g>
<!-- RoundHardQuota
Reached -->
<g id="${uniqueid}_node11" class="node"><title>RoundHardQuota
Reached</title>
<g id="a_${uniqueid}_node11"><a xlink:href="#1443091458026" xlink:title="com.watch4net.alerting.operation.math.ConstantMathOperation">
<polygon fill="#377eb8" stroke="black" points="319.22,-205 197.22,-205 197.22,-167 319.22,-167 319.22,-205"/>
<text text-anchor="middle" x="258.22" y="-189.8" font-family="Times,serif" font-size="14.00" fill="white">RoundHardQuota</text>
<text text-anchor="middle" x="258.22" y="-174.8" font-family="Times,serif" font-size="14.00" fill="white">Reached</text>
</a>
</g>
</g>
<!-- RoundHardQuota
Reached&#45;&gt;HardQuotaReached -->
<g id="${uniqueid}_edge10" class="edge"><title>RoundHardQuota
Reached:e&#45;&gt;HardQuotaReached:w</title>
<path fill="none" stroke="black" d="M319.22,-186C331.22,-186 336.47,-186 345.095,-186"/>
<polygon fill="black" stroke="black" points="345.22,-189.5 355.22,-186 345.22,-182.5 345.22,-189.5"/>
</g>
<!-- VNXFile Hard
Quota Reached -->
<g id="${uniqueid}_node12" class="node"><title>VNXFile Hard
Quota Reached</title>
<g id="a_${uniqueid}_node12"><a xlink:href="#694978365229888" xlink:title="com.watch4net.alerting.operation.FilteredEntryPoint">
<ellipse fill="#984ea3" stroke="black" cx="80.6102" cy="-186" rx="80.7205" ry="26.7407"/>
<text text-anchor="middle" x="80.6102" y="-189.8" font-family="Times,serif" font-size="14.00" fill="white">VNXFile Hard</text>
<text text-anchor="middle" x="80.6102" y="-174.8" font-family="Times,serif" font-size="14.00" fill="white">Quota Reached</text>
</a>
</g>
</g>
<!-- VNXFile Hard
Quota Reached&#45;&gt;RoundHardQuota
Reached -->
<g id="${uniqueid}_edge11" class="edge"><title>VNXFile Hard
Quota Reached:e&#45;&gt;RoundHardQuota
Reached:w</title>
<path fill="none" stroke="black" d="M161.22,-186C173.22,-186 178.47,-186 187.095,-186"/>
<polygon fill="black" stroke="black" points="187.22,-189.5 197.22,-186 187.22,-182.5 187.22,-189.5"/>
</g>
</g>
</svg>
