<?xml version="1.0" encoding="UTF-8" standalone="no"?>
<!DOCTYPE svg PUBLIC "-//W3C//DTD SVG 1.1//EN"
 "http://www.w3.org/Graphics/SVG/1.1/DTD/svg11.dtd">
<!-- Generated by graphviz version 2.38.0 (20140413.2041)
 -->
<!-- Title: NetApp Filer Alert Definitions/NetApp&#45;Volume/Read Bandwidth Pages: 1 -->
<svg width="980pt" height="272pt"
 viewBox="0.00 0.00 980.02 272.00" xmlns="http://www.w3.org/2000/svg" xmlns:xlink="http://www.w3.org/1999/xlink">
<g id="${uniqueid}" class="graph" transform="scale(1 1) rotate(0) translate(4 268)">
<title>NetApp Filer Alert Definitions/NetApp&#45;Volume/Read Bandwidth</title>
<polygon fill="white" stroke="none" points="-4,4 -4,-268 976.021,-268 976.021,4 -4,4"/>
<!-- Vol ReadB/W CRIT
check -->
<g id="${uniqueid}_node1" class="node"><title>Vol ReadB/W CRIT
check</title>
<g id="a_${uniqueid}_node1"><a xlink:href="#200427087511788" xlink:title="com.watch4net.alerting.operation.comparator.ConstantComparatorOperation">
<polygon fill="#ff7f00" stroke="black" points="569.647,-264 419.647,-226 569.647,-188 719.647,-226 569.647,-264"/>
<text text-anchor="middle" x="569.647" y="-229.8" font-family="Times,serif" font-size="14.00" fill="white">Vol ReadB/W CRIT</text>
<text text-anchor="middle" x="569.647" y="-214.8" font-family="Times,serif" font-size="14.00" fill="white">check</text>
</a>
</g>
</g>
<!-- Vol ReadB/W_CRIT
trap -->
<g id="${uniqueid}_node6" class="node"><title>Vol ReadB/W_CRIT
trap</title>
<g id="a_${uniqueid}_node6"><a xlink:href="#200427087530160" xlink:title="com.watch4net.alerting.action.SNMPTrapAction">
<ellipse fill="#4daf4a" stroke="black" cx="863.834" cy="-226" rx="108.375" ry="26.7407"/>
<text text-anchor="middle" x="863.834" y="-229.8" font-family="Times,serif" font-size="14.00" fill="white">Vol ReadB/W_CRIT</text>
<text text-anchor="middle" x="863.834" y="-214.8" font-family="Times,serif" font-size="14.00" fill="white">trap</text>
</a>
</g>
</g>
<!-- Vol ReadB/W CRIT
check&#45;&gt;Vol ReadB/W_CRIT
trap -->
<g id="${uniqueid}_edge1" class="edge"><title>Vol ReadB/W CRIT
check:e&#45;&gt;Vol ReadB/W_CRIT
trap:w</title>
<path fill="none" stroke="black" d="M719.647,-226C731.647,-226 736.897,-226 745.522,-226"/>
<polygon fill="black" stroke="black" points="745.647,-229.5 755.647,-226 745.647,-222.5 745.647,-229.5"/>
<text text-anchor="middle" x="735.147" y="-214.8" font-family="Times,serif" font-size="14.00">true</text>
</g>
<!-- Vol ReadB/W MAJ
check -->
<g id="${uniqueid}_node2" class="node"><title>Vol ReadB/W MAJ
check</title>
<g id="a_${uniqueid}_node2"><a xlink:href="#200427087553520" xlink:title="com.watch4net.alerting.operation.comparator.ConstantComparatorOperation">
<polygon fill="#ff7f00" stroke="black" points="569.647,-170 424.647,-132 569.647,-94 714.647,-132 569.647,-170"/>
<text text-anchor="middle" x="569.647" y="-135.8" font-family="Times,serif" font-size="14.00" fill="white">Vol ReadB/W MAJ</text>
<text text-anchor="middle" x="569.647" y="-120.8" font-family="Times,serif" font-size="14.00" fill="white">check</text>
</a>
</g>
</g>
<!-- Vol ReadB/W_
Major trap -->
<g id="${uniqueid}_node4" class="node"><title>Vol ReadB/W_
Major trap</title>
<g id="a_${uniqueid}_node4"><a xlink:href="#200427087572499" xlink:title="com.watch4net.alerting.action.SNMPTrapAction">
<ellipse fill="#4daf4a" stroke="black" cx="863.834" cy="-132" rx="82.0488" ry="26.7407"/>
<text text-anchor="middle" x="863.834" y="-135.8" font-family="Times,serif" font-size="14.00" fill="white">Vol ReadB/W_</text>
<text text-anchor="middle" x="863.834" y="-120.8" font-family="Times,serif" font-size="14.00" fill="white">Major trap</text>
</a>
</g>
</g>
<!-- Vol ReadB/W MAJ
check&#45;&gt;Vol ReadB/W_
Major trap -->
<g id="${uniqueid}_edge2" class="edge"><title>Vol ReadB/W MAJ
check:e&#45;&gt;Vol ReadB/W_
Major trap:w</title>
<path fill="none" stroke="black" d="M715.647,-132C740.884,-132 749.634,-132 770.62,-132"/>
<polygon fill="black" stroke="black" points="770.834,-135.5 780.834,-132 770.834,-128.5 770.834,-135.5"/>
<text text-anchor="middle" x="731.147" y="-120.8" font-family="Times,serif" font-size="14.00">true</text>
</g>
<!-- Vol ReadB/W MIN
check -->
<g id="${uniqueid}_node3" class="node"><title>Vol ReadB/W MIN
check</title>
<g id="a_${uniqueid}_node3"><a xlink:href="#200427087586060" xlink:title="com.watch4net.alerting.operation.comparator.ConstantComparatorOperation">
<polygon fill="#ff7f00" stroke="black" points="569.647,-76 422.647,-38 569.647,-7.10543e-15 716.647,-38 569.647,-76"/>
<text text-anchor="middle" x="569.647" y="-41.8" font-family="Times,serif" font-size="14.00" fill="white">Vol ReadB/W MIN</text>
<text text-anchor="middle" x="569.647" y="-26.8" font-family="Times,serif" font-size="14.00" fill="white">check</text>
</a>
</g>
</g>
<!-- Vol ReadB/W_
Minor trap -->
<g id="${uniqueid}_node5" class="node"><title>Vol ReadB/W_
Minor trap</title>
<g id="a_${uniqueid}_node5"><a xlink:href="#200427087597682" xlink:title="com.watch4net.alerting.action.SNMPTrapAction">
<ellipse fill="#4daf4a" stroke="black" cx="863.834" cy="-38" rx="82.0488" ry="26.7407"/>
<text text-anchor="middle" x="863.834" y="-41.8" font-family="Times,serif" font-size="14.00" fill="white">Vol ReadB/W_</text>
<text text-anchor="middle" x="863.834" y="-26.8" font-family="Times,serif" font-size="14.00" fill="white">Minor trap</text>
</a>
</g>
</g>
<!-- Vol ReadB/W MIN
check&#45;&gt;Vol ReadB/W_
Minor trap -->
<g id="${uniqueid}_edge3" class="edge"><title>Vol ReadB/W MIN
check:e&#45;&gt;Vol ReadB/W_
Minor trap:w</title>
<path fill="none" stroke="black" d="M717.647,-38C742,-38 750.514,-38 770.661,-38"/>
<polygon fill="black" stroke="black" points="770.834,-41.5001 780.834,-38 770.834,-34.5001 770.834,-41.5001"/>
<text text-anchor="middle" x="733.147" y="-26.8" font-family="Times,serif" font-size="14.00">true</text>
</g>
<!-- Volume Read B/W
Entry -->
<g id="${uniqueid}_node7" class="node"><title>Volume Read B/W
Entry</title>
<g id="a_${uniqueid}_node7"><a xlink:href="#200427087450621" xlink:title="com.watch4net.alerting.operation.FilteredEntryPoint">
<ellipse fill="#984ea3" stroke="black" cx="101.823" cy="-132" rx="101.647" ry="26.7407"/>
<text text-anchor="middle" x="101.823" y="-135.8" font-family="Times,serif" font-size="14.00" fill="white">Volume Read B/W</text>
<text text-anchor="middle" x="101.823" y="-120.8" font-family="Times,serif" font-size="14.00" fill="white">Entry</text>
</a>
</g>
</g>
<!-- Volume Read B/W
case -->
<g id="${uniqueid}_node8" class="node"><title>Volume Read B/W
case</title>
<g id="a_${uniqueid}_node8"><a xlink:href="#200427087497412" xlink:title="com.watch4net.alerting.operation.CaseOperation">
<polygon fill="#377eb8" stroke="black" points="383.647,-151 239.647,-151 239.647,-113 383.647,-113 383.647,-151"/>
<text text-anchor="middle" x="311.647" y="-135.8" font-family="Times,serif" font-size="14.00" fill="white">Volume Read B/W</text>
<text text-anchor="middle" x="311.647" y="-120.8" font-family="Times,serif" font-size="14.00" fill="white">case</text>
</a>
</g>
</g>
<!-- Volume Read B/W
Entry&#45;&gt;Volume Read B/W
case -->
<g id="${uniqueid}_edge4" class="edge"><title>Volume Read B/W
Entry:e&#45;&gt;Volume Read B/W
case:w</title>
<path fill="none" stroke="black" d="M203.647,-132C215.647,-132 220.897,-132 229.522,-132"/>
<polygon fill="black" stroke="black" points="229.647,-135.5 239.647,-132 229.647,-128.5 229.647,-135.5"/>
</g>
<!-- Volume Read B/W
case&#45;&gt;Vol ReadB/W CRIT
check -->
<g id="${uniqueid}_edge5" class="edge"><title>Volume Read B/W
case:e&#45;&gt;Vol ReadB/W CRIT
check:w</title>
<path fill="none" stroke="black" d="M383.647,-132C424.364,-132 383.726,-209.868 409.825,-223.86"/>
<polygon fill="black" stroke="black" points="409.131,-227.291 419.647,-226 410.621,-220.451 409.131,-227.291"/>
</g>
<!-- Volume Read B/W
case&#45;&gt;Vol ReadB/W MAJ
check -->
<g id="${uniqueid}_edge6" class="edge"><title>Volume Read B/W
case:e&#45;&gt;Vol ReadB/W MAJ
check:w</title>
<path fill="none" stroke="black" d="M383.647,-132C397.536,-132 403.287,-132 413.615,-132"/>
<polygon fill="black" stroke="black" points="413.647,-135.5 423.647,-132 413.647,-128.5 413.647,-135.5"/>
</g>
<!-- Volume Read B/W
case&#45;&gt;Vol ReadB/W MIN
check -->
<g id="${uniqueid}_edge7" class="edge"><title>Volume Read B/W
case:e&#45;&gt;Vol ReadB/W MIN
check:w</title>
<path fill="none" stroke="black" d="M383.647,-132C424.661,-132 385.166,-54.1319 411.714,-40.1399"/>
<polygon fill="black" stroke="black" points="412.608,-43.5276 421.647,-38 411.134,-36.6846 412.608,-43.5276"/>
</g>
</g>
</svg>
