<?xml version="1.0" encoding="UTF-8" standalone="no"?>
<!DOCTYPE svg PUBLIC "-//W3C//DTD SVG 1.1//EN"
 "http://www.w3.org/Graphics/SVG/1.1/DTD/svg11.dtd">
<!-- Generated by graphviz version 2.38.0 (20140413.2041)
 -->
<!-- Title: NetApp Filer Alert Definitions/NetApp&#45;StoragePool/Utilization Pages: 1 -->
<svg width="827pt" height="366pt"
 viewBox="0.00 0.00 827.37 366.00" xmlns="http://www.w3.org/2000/svg" xmlns:xlink="http://www.w3.org/1999/xlink">
<g id="${uniqueid}" class="graph" transform="scale(1 1) rotate(0) translate(4 362)">
<title>NetApp Filer Alert Definitions/NetApp&#45;StoragePool/Utilization</title>
<polygon fill="white" stroke="none" points="-4,4 -4,-362 823.37,-362 823.37,4 -4,4"/>
<!-- CurrUtilization_
CRIT trap -->
<g id="${uniqueid}_node1" class="node"><title>CurrUtilization_
CRIT trap</title>
<g id="a_${uniqueid}_node1"><a xlink:href="#357694099520393" xlink:title="com.watch4net.alerting.action.SNMPTrapAction">
<ellipse fill="#4daf4a" stroke="black" cx="726.032" cy="-320" rx="93.1765" ry="26.7407"/>
<text text-anchor="middle" x="726.032" y="-323.8" font-family="Times,serif" font-size="14.00" fill="white">CurrUtilization_</text>
<text text-anchor="middle" x="726.032" y="-308.8" font-family="Times,serif" font-size="14.00" fill="white">CRIT trap</text>
</a>
</g>
</g>
<!-- CurrUtilization_
Info trap -->
<g id="${uniqueid}_node2" class="node"><title>CurrUtilization_
Info trap</title>
<g id="a_${uniqueid}_node2"><a xlink:href="#1415795733446" xlink:title="com.watch4net.alerting.action.SNMPTrapAction">
<ellipse fill="#4daf4a" stroke="black" cx="726.032" cy="-226" rx="93.1765" ry="26.7407"/>
<text text-anchor="middle" x="726.032" y="-229.8" font-family="Times,serif" font-size="14.00" fill="white">CurrUtilization_</text>
<text text-anchor="middle" x="726.032" y="-214.8" font-family="Times,serif" font-size="14.00" fill="white">Info trap</text>
</a>
</g>
</g>
<!-- CurrUtilization_
Major trap -->
<g id="${uniqueid}_node3" class="node"><title>CurrUtilization_
Major trap</title>
<g id="a_${uniqueid}_node3"><a xlink:href="#1415794955048" xlink:title="com.watch4net.alerting.action.SNMPTrapAction">
<ellipse fill="#4daf4a" stroke="black" cx="726.032" cy="-132" rx="93.1765" ry="26.7407"/>
<text text-anchor="middle" x="726.032" y="-135.8" font-family="Times,serif" font-size="14.00" fill="white">CurrUtilization_</text>
<text text-anchor="middle" x="726.032" y="-120.8" font-family="Times,serif" font-size="14.00" fill="white">Major trap</text>
</a>
</g>
</g>
<!-- CurrUtilization_
Minor trap -->
<g id="${uniqueid}_node4" class="node"><title>CurrUtilization_
Minor trap</title>
<g id="a_${uniqueid}_node4"><a xlink:href="#1415795513742" xlink:title="com.watch4net.alerting.action.SNMPTrapAction">
<ellipse fill="#4daf4a" stroke="black" cx="726.032" cy="-38" rx="93.1765" ry="26.7407"/>
<text text-anchor="middle" x="726.032" y="-41.8" font-family="Times,serif" font-size="14.00" fill="white">CurrUtilization_</text>
<text text-anchor="middle" x="726.032" y="-26.8" font-family="Times,serif" font-size="14.00" fill="white">Minor trap</text>
</a>
</g>
</g>
<!-- Utilization
Critical check -->
<g id="${uniqueid}_node5" class="node"><title>Utilization
Critical check</title>
<g id="a_${uniqueid}_node5"><a xlink:href="#1415794678987" xlink:title="com.watch4net.alerting.operation.comparator.ConstantComparatorOperation">
<polygon fill="#ff7f00" stroke="black" points="462.693,-358 344.693,-320 462.693,-282 580.693,-320 462.693,-358"/>
<text text-anchor="middle" x="462.693" y="-323.8" font-family="Times,serif" font-size="14.00" fill="white">Utilization</text>
<text text-anchor="middle" x="462.693" y="-308.8" font-family="Times,serif" font-size="14.00" fill="white">Critical check</text>
</a>
</g>
</g>
<!-- Utilization
Critical check&#45;&gt;CurrUtilization_
CRIT trap -->
<g id="${uniqueid}_edge1" class="edge"><title>Utilization
Critical check:e&#45;&gt;CurrUtilization_
CRIT trap:w</title>
<path fill="none" stroke="black" d="M581.693,-320C600.464,-320 607.577,-320 622.34,-320"/>
<polygon fill="black" stroke="black" points="622.693,-323.5 632.693,-320 622.693,-316.5 622.693,-323.5"/>
<text text-anchor="middle" x="597.193" y="-308.8" font-family="Times,serif" font-size="14.00">true</text>
</g>
<!-- Utilization
Entry -->
<g id="${uniqueid}_node6" class="node"><title>Utilization
Entry</title>
<g id="a_${uniqueid}_node6"><a xlink:href="#357694099386401" xlink:title="com.watch4net.alerting.operation.FilteredEntryPoint">
<ellipse fill="#984ea3" stroke="black" cx="64.3467" cy="-179" rx="64.1938" ry="26.7407"/>
<text text-anchor="middle" x="64.3467" y="-182.8" font-family="Times,serif" font-size="14.00" fill="white">Utilization</text>
<text text-anchor="middle" x="64.3467" y="-167.8" font-family="Times,serif" font-size="14.00" fill="white">Entry</text>
</a>
</g>
</g>
<!-- Utilization case -->
<g id="${uniqueid}_node7" class="node"><title>Utilization case</title>
<g id="a_${uniqueid}_node7"><a xlink:href="#1415793836504" xlink:title="com.watch4net.alerting.operation.CaseOperation">
<polygon fill="#377eb8" stroke="black" points="292.693,-197 164.693,-197 164.693,-161 292.693,-161 292.693,-197"/>
<text text-anchor="middle" x="228.693" y="-175.3" font-family="Times,serif" font-size="14.00" fill="white">Utilization case</text>
</a>
</g>
</g>
<!-- Utilization
Entry&#45;&gt;Utilization case -->
<g id="${uniqueid}_edge2" class="edge"><title>Utilization
Entry:e&#45;&gt;Utilization case:w</title>
<path fill="none" stroke="black" d="M128.693,-179C140.693,-179 145.943,-179 154.568,-179"/>
<polygon fill="black" stroke="black" points="154.693,-182.5 164.693,-179 154.693,-175.5 154.693,-182.5"/>
</g>
<!-- Utilization case&#45;&gt;Utilization
Critical check -->
<g id="${uniqueid}_edge3" class="edge"><title>Utilization case:e&#45;&gt;Utilization
Critical check:w</title>
<path fill="none" stroke="black" d="M292.693,-179C355.559,-179 285.896,-304.48 333.749,-318.694"/>
<polygon fill="black" stroke="black" points="333.323,-322.168 343.693,-320 334.234,-315.228 333.323,-322.168"/>
</g>
<!-- UtilizationInfo
check -->
<g id="${uniqueid}_node8" class="node"><title>UtilizationInfo
check</title>
<g id="a_${uniqueid}_node8"><a xlink:href="#1415795704876" xlink:title="com.watch4net.alerting.operation.comparator.ConstantComparatorOperation">
<polygon fill="#ff7f00" stroke="black" points="462.693,-264 343.693,-226 462.693,-188 581.693,-226 462.693,-264"/>
<text text-anchor="middle" x="462.693" y="-229.8" font-family="Times,serif" font-size="14.00" fill="white">UtilizationInfo</text>
<text text-anchor="middle" x="462.693" y="-214.8" font-family="Times,serif" font-size="14.00" fill="white">check</text>
</a>
</g>
</g>
<!-- Utilization case&#45;&gt;UtilizationInfo
check -->
<g id="${uniqueid}_edge4" class="edge"><title>Utilization case:e&#45;&gt;UtilizationInfo
check:w</title>
<path fill="none" stroke="black" d="M292.693,-179C319.142,-179 314.384,-214.345 332.543,-223.733"/>
<polygon fill="black" stroke="black" points="332.171,-227.236 342.693,-226 333.697,-220.404 332.171,-227.236"/>
</g>
<!-- UtilizationMajor
check -->
<g id="${uniqueid}_node9" class="node"><title>UtilizationMajor
check</title>
<g id="a_${uniqueid}_node9"><a xlink:href="#1415794930563" xlink:title="com.watch4net.alerting.operation.comparator.ConstantComparatorOperation">
<polygon fill="#ff7f00" stroke="black" points="462.693,-170 328.693,-132 462.693,-94 596.693,-132 462.693,-170"/>
<text text-anchor="middle" x="462.693" y="-135.8" font-family="Times,serif" font-size="14.00" fill="white">UtilizationMajor</text>
<text text-anchor="middle" x="462.693" y="-120.8" font-family="Times,serif" font-size="14.00" fill="white">check</text>
</a>
</g>
</g>
<!-- Utilization case&#45;&gt;UtilizationMajor
check -->
<g id="${uniqueid}_edge5" class="edge"><title>Utilization case:e&#45;&gt;UtilizationMajor
check:w</title>
<path fill="none" stroke="black" d="M292.693,-179C314.895,-179 306.528,-145.54 319.177,-135.084"/>
<polygon fill="black" stroke="black" points="320.259,-138.412 328.693,-132 318.101,-131.753 320.259,-138.412"/>
</g>
<!-- UtilizationMinor
check -->
<g id="${uniqueid}_node10" class="node"><title>UtilizationMinor
check</title>
<g id="a_${uniqueid}_node10"><a xlink:href="#1415795482296" xlink:title="com.watch4net.alerting.operation.comparator.ConstantComparatorOperation">
<polygon fill="#ff7f00" stroke="black" points="462.693,-76 328.693,-38 462.693,-7.10543e-15 596.693,-38 462.693,-76"/>
<text text-anchor="middle" x="462.693" y="-41.8" font-family="Times,serif" font-size="14.00" fill="white">UtilizationMinor</text>
<text text-anchor="middle" x="462.693" y="-26.8" font-family="Times,serif" font-size="14.00" fill="white">check</text>
</a>
</g>
</g>
<!-- Utilization case&#45;&gt;UtilizationMinor
check -->
<g id="${uniqueid}_edge6" class="edge"><title>Utilization case:e&#45;&gt;UtilizationMinor
check:w</title>
<path fill="none" stroke="black" d="M292.693,-179C353.454,-179 274.742,-54.5573 318.613,-39.4881"/>
<polygon fill="black" stroke="black" points="319.312,-42.923 328.693,-38 318.289,-35.998 319.312,-42.923"/>
</g>
<!-- UtilizationInfo
check&#45;&gt;CurrUtilization_
Info trap -->
<g id="${uniqueid}_edge7" class="edge"><title>UtilizationInfo
check:e&#45;&gt;CurrUtilization_
Info trap:w</title>
<path fill="none" stroke="black" d="M582.693,-226C601.096,-226 608.069,-226 622.543,-226"/>
<polygon fill="black" stroke="black" points="622.693,-229.5 632.693,-226 622.693,-222.5 622.693,-229.5"/>
<text text-anchor="middle" x="598.193" y="-214.8" font-family="Times,serif" font-size="14.00">true</text>
</g>
<!-- UtilizationMajor
check&#45;&gt;CurrUtilization_
Major trap -->
<g id="${uniqueid}_edge8" class="edge"><title>UtilizationMajor
check:e&#45;&gt;CurrUtilization_
Major trap:w</title>
<path fill="none" stroke="black" d="M596.693,-132C608.693,-132 613.943,-132 622.568,-132"/>
<polygon fill="black" stroke="black" points="622.693,-135.5 632.693,-132 622.693,-128.5 622.693,-135.5"/>
<text text-anchor="middle" x="612.193" y="-120.8" font-family="Times,serif" font-size="14.00">true</text>
</g>
<!-- UtilizationMinor
check&#45;&gt;CurrUtilization_
Minor trap -->
<g id="${uniqueid}_edge9" class="edge"><title>UtilizationMinor
check:e&#45;&gt;CurrUtilization_
Minor trap:w</title>
<path fill="none" stroke="black" d="M596.693,-38C608.693,-38 613.943,-38 622.568,-38"/>
<polygon fill="black" stroke="black" points="622.693,-41.5001 632.693,-38 622.693,-34.5001 622.693,-41.5001"/>
<text text-anchor="middle" x="612.193" y="-26.8" font-family="Times,serif" font-size="14.00">true</text>
</g>
</g>
</svg>
