<?xml version="1.0" encoding="UTF-8" standalone="no"?>
<!DOCTYPE svg PUBLIC "-//W3C//DTD SVG 1.1//EN"
 "http://www.w3.org/Graphics/SVG/1.1/DTD/svg11.dtd">
<!-- Generated by graphviz version 2.38.0 (20140413.2041)
 -->
<!-- Title: IBMDS8k Alert Definitions/IBMDS8k&#45;Port/Read Bandwidth Pages: 1 -->
<svg width="952pt" height="422pt"
 viewBox="0.00 0.00 951.87 421.74" xmlns="http://www.w3.org/2000/svg" xmlns:xlink="http://www.w3.org/1999/xlink">
<g id="${uniqueid}" class="graph" transform="scale(1 1) rotate(0) translate(4 417.74)">
<title>IBMDS8k Alert Definitions/IBMDS8k&#45;Port/Read Bandwidth</title>
<polygon fill="white" stroke="none" points="-4,4 -4,-417.74 947.867,-417.74 947.867,4 -4,4"/>
<!-- Port read b/w
entry -->
<g id="${uniqueid}_node1" class="node"><title>Port read b/w
entry</title>
<g id="a_${uniqueid}_node1"><a xlink:href="#1545447530329770" xlink:title="com.watch4net.alerting.operation.FilteredEntryPoint">
<ellipse fill="#984ea3" stroke="black" cx="79.9031" cy="-206.87" rx="79.8063" ry="26.7407"/>
<text text-anchor="middle" x="79.9031" y="-210.67" font-family="Times,serif" font-size="14.00" fill="white">Port read b/w</text>
<text text-anchor="middle" x="79.9031" y="-195.67" font-family="Times,serif" font-size="14.00" fill="white">entry</text>
</a>
</g>
</g>
<!-- Roundoff -->
<g id="${uniqueid}_node12" class="node"><title>Roundoff</title>
<g id="a_${uniqueid}_node12"><a xlink:href="#1441797193319" xlink:title="com.watch4net.alerting.operation.math.ConstantMathOperation">
<polygon fill="#377eb8" stroke="black" points="276.806,-224.87 195.806,-224.87 195.806,-188.87 276.806,-188.87 276.806,-224.87"/>
<text text-anchor="middle" x="236.306" y="-203.17" font-family="Times,serif" font-size="14.00" fill="white">Roundoff</text>
</a>
</g>
</g>
<!-- Port read b/w
entry&#45;&gt;Roundoff -->
<g id="${uniqueid}_edge1" class="edge"><title>Port read b/w
entry:e&#45;&gt;Roundoff:w</title>
<path fill="none" stroke="black" d="M159.806,-206.87C171.806,-206.87 177.056,-206.87 185.681,-206.87"/>
<polygon fill="black" stroke="black" points="185.806,-210.37 195.806,-206.87 185.806,-203.37 185.806,-210.37"/>
</g>
<!-- Read B/W_
Critical Trap -->
<g id="${uniqueid}_node2" class="node"><title>Read B/W_
Critical Trap</title>
<g id="a_${uniqueid}_node2"><a xlink:href="#1545447530405119" xlink:title="com.watch4net.alerting.action.SNMPTrapAction">
<ellipse fill="#4daf4a" stroke="black" cx="841.337" cy="-314.87" rx="76.2353" ry="26.7407"/>
<text text-anchor="middle" x="841.337" y="-318.67" font-family="Times,serif" font-size="14.00" fill="white">Read B/W_</text>
<text text-anchor="middle" x="841.337" y="-303.67" font-family="Times,serif" font-size="14.00" fill="white">Critical Trap</text>
</a>
</g>
</g>
<!-- Read B/W_
Critical_Clear -->
<g id="${uniqueid}_node3" class="node"><title>Read B/W_
Critical_Clear</title>
<g id="a_${uniqueid}_node3"><a xlink:href="#1545447530422600" xlink:title="com.watch4net.alerting.action.SNMPTrapAction">
<ellipse fill="#4daf4a" stroke="black" cx="841.337" cy="-386.87" rx="82.9636" ry="26.7407"/>
<text text-anchor="middle" x="841.337" y="-390.67" font-family="Times,serif" font-size="14.00" fill="white">Read B/W_</text>
<text text-anchor="middle" x="841.337" y="-375.67" font-family="Times,serif" font-size="14.00" fill="white">Critical_Clear</text>
</a>
</g>
</g>
<!-- Read B/W_Major
Trap -->
<g id="${uniqueid}_node4" class="node"><title>Read B/W_Major
Trap</title>
<g id="a_${uniqueid}_node4"><a xlink:href="#1545447530442730" xlink:title="com.watch4net.alerting.action.SNMPTrapAction">
<ellipse fill="#4daf4a" stroke="black" cx="841.337" cy="-170.87" rx="96.7474" ry="26.7407"/>
<text text-anchor="middle" x="841.337" y="-174.67" font-family="Times,serif" font-size="14.00" fill="white">Read B/W_Major</text>
<text text-anchor="middle" x="841.337" y="-159.67" font-family="Times,serif" font-size="14.00" fill="white">Trap</text>
</a>
</g>
</g>
<!-- Read B/W_Major_
Clear -->
<g id="${uniqueid}_node5" class="node"><title>Read B/W_Major_
Clear</title>
<g id="a_${uniqueid}_node5"><a xlink:href="#1545447530461517" xlink:title="com.watch4net.alerting.action.SNMPTrapAction">
<ellipse fill="#4daf4a" stroke="black" cx="841.337" cy="-242.87" rx="102.561" ry="26.7407"/>
<text text-anchor="middle" x="841.337" y="-246.67" font-family="Times,serif" font-size="14.00" fill="white">Read B/W_Major_</text>
<text text-anchor="middle" x="841.337" y="-231.67" font-family="Times,serif" font-size="14.00" fill="white">Clear</text>
</a>
</g>
</g>
<!-- Read b/w Case -->
<g id="${uniqueid}_node6" class="node"><title>Read b/w Case</title>
<g id="a_${uniqueid}_node6"><a xlink:href="#1545447530374786" xlink:title="com.watch4net.alerting.operation.CaseOperation">
<polygon fill="#377eb8" stroke="black" points="434.806,-224.87 312.806,-224.87 312.806,-188.87 434.806,-188.87 434.806,-224.87"/>
<text text-anchor="middle" x="373.806" y="-203.17" font-family="Times,serif" font-size="14.00" fill="white">Read b/w Case</text>
</a>
</g>
</g>
<!-- Read b/w Crit
comp -->
<g id="${uniqueid}_node7" class="node"><title>Read b/w Crit
comp</title>
<g id="a_${uniqueid}_node7"><a xlink:href="#1545447530384365" xlink:title="com.watch4net.alerting.operation.comparator.ConstantComparatorOperation">
<polygon fill="#ff7f00" stroke="black" points="586.806,-381.87 470.806,-343.87 586.806,-305.87 702.806,-343.87 586.806,-381.87"/>
<text text-anchor="middle" x="586.806" y="-347.67" font-family="Times,serif" font-size="14.00" fill="white">Read b/w Crit</text>
<text text-anchor="middle" x="586.806" y="-332.67" font-family="Times,serif" font-size="14.00" fill="white">comp</text>
</a>
</g>
</g>
<!-- Read b/w Case&#45;&gt;Read b/w Crit
comp -->
<g id="${uniqueid}_edge2" class="edge"><title>Read b/w Case:e&#45;&gt;Read b/w Crit
comp:w</title>
<path fill="none" stroke="black" d="M434.806,-206.87C493.827,-206.87 418.492,-327.28 460.719,-342.331"/>
<polygon fill="black" stroke="black" points="460.393,-345.822 470.806,-343.87 461.448,-338.902 460.393,-345.822"/>
</g>
<!-- Read b/w Maj
Comp -->
<g id="${uniqueid}_node8" class="node"><title>Read b/w Maj
Comp</title>
<g id="a_${uniqueid}_node8"><a xlink:href="#1545447530431606" xlink:title="com.watch4net.alerting.operation.comparator.ConstantComparatorOperation">
<polygon fill="#ff7f00" stroke="black" points="586.806,-244.87 471.806,-206.87 586.806,-168.87 701.806,-206.87 586.806,-244.87"/>
<text text-anchor="middle" x="586.806" y="-210.67" font-family="Times,serif" font-size="14.00" fill="white">Read b/w Maj</text>
<text text-anchor="middle" x="586.806" y="-195.67" font-family="Times,serif" font-size="14.00" fill="white">Comp</text>
</a>
</g>
</g>
<!-- Read b/w Case&#45;&gt;Read b/w Maj
Comp -->
<g id="${uniqueid}_edge3" class="edge"><title>Read b/w Case:e&#45;&gt;Read b/w Maj
Comp:w</title>
<path fill="none" stroke="black" d="M434.806,-206.87C446.806,-206.87 452.056,-206.87 460.681,-206.87"/>
<polygon fill="black" stroke="black" points="460.806,-210.37 470.806,-206.87 460.806,-203.37 460.806,-210.37"/>
</g>
<!-- Read b/w Min
Comp -->
<g id="${uniqueid}_node9" class="node"><title>Read b/w Min
Comp</title>
<g id="a_${uniqueid}_node9"><a xlink:href="#1545447530481710" xlink:title="com.watch4net.alerting.operation.comparator.ConstantComparatorOperation">
<polygon fill="#ff7f00" stroke="black" points="586.806,-107.87 470.806,-69.8701 586.806,-31.8701 702.806,-69.8701 586.806,-107.87"/>
<text text-anchor="middle" x="586.806" y="-73.6701" font-family="Times,serif" font-size="14.00" fill="white">Read b/w Min</text>
<text text-anchor="middle" x="586.806" y="-58.6701" font-family="Times,serif" font-size="14.00" fill="white">Comp</text>
</a>
</g>
</g>
<!-- Read b/w Case&#45;&gt;Read b/w Min
Comp -->
<g id="${uniqueid}_edge4" class="edge"><title>Read b/w Case:e&#45;&gt;Read b/w Min
Comp:w</title>
<path fill="none" stroke="black" d="M434.806,-206.87C493.827,-206.87 418.492,-86.4599 460.719,-71.4086"/>
<polygon fill="black" stroke="black" points="461.448,-74.8379 470.806,-69.8701 460.393,-67.918 461.448,-74.8379"/>
</g>
<!-- Read b/w Crit
comp&#45;&gt;Read B/W_
Critical Trap -->
<g id="${uniqueid}_edge6" class="edge"><title>Read b/w Crit
comp:se&#45;&gt;Read B/W_
Critical Trap:w</title>
<path fill="none" stroke="black" d="M616.806,-314.87C660.428,-271.248 694.453,-310.269 753.276,-314.506"/>
<polygon fill="black" stroke="black" points="753.217,-318.006 763.337,-314.87 753.47,-311.011 753.217,-318.006"/>
<text text-anchor="middle" x="601.306" y="-303.67" font-family="Times,serif" font-size="14.00">true</text>
</g>
<!-- Read b/w Crit
comp&#45;&gt;Read B/W_
Critical_Clear -->
<g id="${uniqueid}_edge5" class="edge"><title>Read b/w Crit
comp:ne&#45;&gt;Read B/W_
Critical_Clear:w</title>
<path fill="none" stroke="black" d="M614.806,-372.87C617.652,-375.716 612.855,-379.133 615.806,-381.87 659.433,-422.328 690.806,-390.763 747.277,-387.19"/>
<polygon fill="black" stroke="black" points="747.453,-390.686 757.337,-386.87 747.23,-383.69 747.453,-390.686"/>
<text text-anchor="middle" x="597.806" y="-376.67" font-family="Times,serif" font-size="14.00">false</text>
</g>
<!-- Read b/w Maj
Comp&#45;&gt;Read B/W_Major
Trap -->
<g id="${uniqueid}_edge8" class="edge"><title>Read b/w Maj
Comp:se&#45;&gt;Read B/W_Major
Trap:w</title>
<path fill="none" stroke="black" d="M616.806,-177.87C654.143,-140.534 683.18,-167.051 733.072,-170.511"/>
<polygon fill="black" stroke="black" points="733.22,-174.018 743.337,-170.87 733.465,-167.023 733.22,-174.018"/>
<text text-anchor="middle" x="601.306" y="-166.67" font-family="Times,serif" font-size="14.00">true</text>
</g>
<!-- Read b/w Maj
Comp&#45;&gt;Read B/W_Major_
Clear -->
<g id="${uniqueid}_edge7" class="edge"><title>Read b/w Maj
Comp:ne&#45;&gt;Read B/W_Major_
Clear:w</title>
<path fill="none" stroke="black" d="M614.806,-235.87C617.652,-238.716 612.807,-242.186 615.806,-244.87 644.287,-270.361 663.598,-245.902 701.806,-244.87 714.282,-244.533 719.64,-243.558 728.67,-243.106"/>
<polygon fill="black" stroke="black" points="728.89,-246.602 738.806,-242.87 728.727,-239.604 728.89,-246.602"/>
<text text-anchor="middle" x="597.806" y="-239.67" font-family="Times,serif" font-size="14.00">false</text>
</g>
<!-- ReadB/W_Minor
Trap -->
<g id="${uniqueid}_node10" class="node"><title>ReadB/W_Minor
Trap</title>
<g id="a_${uniqueid}_node10"><a xlink:href="#1545447530494272" xlink:title="com.watch4net.alerting.action.SNMPTrapAction">
<ellipse fill="#4daf4a" stroke="black" cx="841.337" cy="-26.8701" rx="94.5053" ry="26.7407"/>
<text text-anchor="middle" x="841.337" y="-30.6701" font-family="Times,serif" font-size="14.00" fill="white">ReadB/W_Minor</text>
<text text-anchor="middle" x="841.337" y="-15.6701" font-family="Times,serif" font-size="14.00" fill="white">Trap</text>
</a>
</g>
</g>
<!-- Read b/w Min
Comp&#45;&gt;ReadB/W_Minor
Trap -->
<g id="${uniqueid}_edge10" class="edge"><title>Read b/w Min
Comp:se&#45;&gt;ReadB/W_Minor
Trap:w</title>
<path fill="none" stroke="black" d="M616.806,-40.8701C654.978,-2.69806 684.151,-23.8917 735.188,-26.598"/>
<polygon fill="black" stroke="black" points="735.246,-30.1007 745.337,-26.8701 735.434,-23.1032 735.246,-30.1007"/>
<text text-anchor="middle" x="601.306" y="-29.6701" font-family="Times,serif" font-size="14.00">true</text>
</g>
<!-- ReadB/W_Minor_
Clear -->
<g id="${uniqueid}_node11" class="node"><title>ReadB/W_Minor_
Clear</title>
<g id="a_${uniqueid}_node11"><a xlink:href="#1545447530510215" xlink:title="com.watch4net.alerting.action.SNMPTrapAction">
<ellipse fill="#4daf4a" stroke="black" cx="841.337" cy="-98.8701" rx="99.9045" ry="26.7407"/>
<text text-anchor="middle" x="841.337" y="-102.67" font-family="Times,serif" font-size="14.00" fill="white">ReadB/W_Minor_</text>
<text text-anchor="middle" x="841.337" y="-87.6701" font-family="Times,serif" font-size="14.00" fill="white">Clear</text>
</a>
</g>
</g>
<!-- Read b/w Min
Comp&#45;&gt;ReadB/W_Minor_
Clear -->
<g id="${uniqueid}_edge9" class="edge"><title>Read b/w Min
Comp:ne&#45;&gt;ReadB/W_Minor_
Clear:w</title>
<path fill="none" stroke="black" d="M614.806,-98.8701C617.652,-101.716 612.807,-105.186 615.806,-107.87 644.618,-133.658 664.407,-112.41 702.806,-107.87 715.848,-106.328 720.864,-101.872 730.198,-99.8674"/>
<polygon fill="black" stroke="black" points="730.727,-103.332 740.337,-98.8701 730.042,-96.3659 730.727,-103.332"/>
<text text-anchor="middle" x="597.806" y="-102.67" font-family="Times,serif" font-size="14.00">false</text>
</g>
<!-- Roundoff&#45;&gt;Read b/w Case -->
<g id="${uniqueid}_edge11" class="edge"><title>Roundoff:e&#45;&gt;Read b/w Case:w</title>
<path fill="none" stroke="black" d="M276.806,-206.87C288.806,-206.87 294.056,-206.87 302.681,-206.87"/>
<polygon fill="black" stroke="black" points="302.806,-210.37 312.806,-206.87 302.806,-203.37 302.806,-210.37"/>
</g>
</g>
</svg>
