<?xml version="1.0" encoding="UTF-8" standalone="no"?>
<!DOCTYPE svg PUBLIC "-//W3C//DTD SVG 1.1//EN"
 "http://www.w3.org/Graphics/SVG/1.1/DTD/svg11.dtd">
<!-- Generated by graphviz version 2.38.0 (20140413.2041)
 -->
<!-- Title: EMC VMAX Alert Definitions/VMAX&#45;Array/High Write Throughput Pages: 1 -->
<svg width="909pt" height="388pt"
 viewBox="0.00 0.00 909.13 387.61" xmlns="http://www.w3.org/2000/svg" xmlns:xlink="http://www.w3.org/1999/xlink">
<g id="${uniqueid}" class="graph" transform="scale(1 1) rotate(0) translate(4 383.615)">
<title>EMC VMAX Alert Definitions/VMAX&#45;Array/High Write Throughput</title>
<polygon fill="white" stroke="none" points="-4,4 -4,-383.615 905.129,-383.615 905.129,4 -4,4"/>
<!-- Comparator
Writes_per_
second_CRIT -->
<g id="${uniqueid}_node1" class="node"><title>Comparator
Writes_per_
second_CRIT</title>
<g id="a_${uniqueid}_node1"><a xlink:href="#19693859885475" xlink:title="com.watch4net.alerting.operation.comparator.ConstantComparatorOperation">
<polygon fill="#ff7f00" stroke="black" points="525.848,-367.87 414.848,-314.87 525.848,-261.87 636.848,-314.87 525.848,-367.87"/>
<text text-anchor="middle" x="525.848" y="-326.17" font-family="Times,serif" font-size="14.00" fill="white">Comparator</text>
<text text-anchor="middle" x="525.848" y="-311.17" font-family="Times,serif" font-size="14.00" fill="white">Writes_per_</text>
<text text-anchor="middle" x="525.848" y="-296.17" font-family="Times,serif" font-size="14.00" fill="white">second_CRIT</text>
</a>
</g>
</g>
<!-- SNMP_CRIT_Clear -->
<g id="${uniqueid}_node4" class="node"><title>SNMP_CRIT_Clear</title>
<g id="a_${uniqueid}_node4"><a xlink:href="#19693859936417" xlink:title="com.watch4net.alerting.action.SNMPTrapAction">
<ellipse fill="#4daf4a" stroke="black" cx="796.488" cy="-350.87" rx="100.182" ry="18"/>
<text text-anchor="middle" x="796.488" y="-347.17" font-family="Times,serif" font-size="14.00" fill="white">SNMP_CRIT_Clear</text>
</a>
</g>
</g>
<!-- Comparator
Writes_per_
second_CRIT&#45;&gt;SNMP_CRIT_Clear -->
<g id="${uniqueid}_edge1" class="edge"><title>Comparator
Writes_per_
second_CRIT:ne&#45;&gt;SNMP_CRIT_Clear:w</title>
<path fill="none" stroke="black" d="M560.848,-350.87C563.524,-353.546 559.094,-365.274 561.848,-367.87 586.1,-390.738 603.846,-372.557 636.848,-367.87 660.041,-364.576 666.669,-354.3 685.506,-351.552"/>
<polygon fill="black" stroke="black" points="685.75,-355.043 695.488,-350.87 685.273,-348.06 685.75,-355.043"/>
<text text-anchor="middle" x="543.848" y="-339.67" font-family="Times,serif" font-size="14.00">false</text>
</g>
<!-- Writes_per_
second_Crit -->
<g id="${uniqueid}_node9" class="node"><title>Writes_per_
second_Crit</title>
<g id="a_${uniqueid}_node9"><a xlink:href="#19693859915609" xlink:title="com.watch4net.alerting.action.SNMPTrapAction">
<ellipse fill="#4daf4a" stroke="black" cx="796.488" cy="-285.87" rx="72.6644" ry="26.7407"/>
<text text-anchor="middle" x="796.488" y="-289.67" font-family="Times,serif" font-size="14.00" fill="white">Writes_per_</text>
<text text-anchor="middle" x="796.488" y="-274.67" font-family="Times,serif" font-size="14.00" fill="white">second_Crit</text>
</a>
</g>
</g>
<!-- Comparator
Writes_per_
second_CRIT&#45;&gt;Writes_per_
second_Crit -->
<g id="${uniqueid}_edge2" class="edge"><title>Comparator
Writes_per_
second_CRIT:se&#45;&gt;Writes_per_
second_Crit:w</title>
<path fill="none" stroke="black" d="M562.848,-278.87C610.614,-231.104 647.69,-280.538 712.313,-285.48"/>
<polygon fill="black" stroke="black" points="712.362,-288.984 722.488,-285.87 712.63,-281.989 712.362,-288.984"/>
<text text-anchor="middle" x="547.348" y="-267.67" font-family="Times,serif" font-size="14.00">true</text>
</g>
<!-- Comparator
Writes_per_
second_MINOR -->
<g id="${uniqueid}_node2" class="node"><title>Comparator
Writes_per_
second_MINOR</title>
<g id="a_${uniqueid}_node2"><a xlink:href="#19693859986658" xlink:title="com.watch4net.alerting.operation.comparator.ConstantComparatorOperation">
<polygon fill="#ff7f00" stroke="black" points="525.848,-242.87 395.848,-189.87 525.848,-136.87 655.848,-189.87 525.848,-242.87"/>
<text text-anchor="middle" x="525.848" y="-201.17" font-family="Times,serif" font-size="14.00" fill="white">Comparator</text>
<text text-anchor="middle" x="525.848" y="-186.17" font-family="Times,serif" font-size="14.00" fill="white">Writes_per_</text>
<text text-anchor="middle" x="525.848" y="-171.17" font-family="Times,serif" font-size="14.00" fill="white">second_MINOR</text>
</a>
</g>
</g>
<!-- SNMP_Minor_Clear -->
<g id="${uniqueid}_node6" class="node"><title>SNMP_Minor_Clear</title>
<g id="a_${uniqueid}_node6"><a xlink:href="#19693860014820" xlink:title="com.watch4net.alerting.action.SNMPTrapAction">
<ellipse fill="#4daf4a" stroke="black" cx="796.488" cy="-222.87" rx="104.782" ry="18"/>
<text text-anchor="middle" x="796.488" y="-219.17" font-family="Times,serif" font-size="14.00" fill="white">SNMP_Minor_Clear</text>
</a>
</g>
</g>
<!-- Comparator
Writes_per_
second_MINOR&#45;&gt;SNMP_Minor_Clear -->
<g id="${uniqueid}_edge3" class="edge"><title>Comparator
Writes_per_
second_MINOR:ne&#45;&gt;SNMP_Minor_Clear:w</title>
<path fill="none" stroke="black" d="M562.848,-227.87C565.21,-230.232 561.408,-240.588 563.848,-242.87 578.777,-256.837 636.057,-247.998 655.848,-242.87 669.552,-239.319 672.644,-229.297 681.81,-224.938"/>
<polygon fill="black" stroke="black" points="682.76,-228.316 691.848,-222.87 681.347,-221.46 682.76,-228.316"/>
<text text-anchor="middle" x="545.848" y="-216.67" font-family="Times,serif" font-size="14.00">false</text>
</g>
<!-- Writes_per_
second_Minor -->
<g id="${uniqueid}_node11" class="node"><title>Writes_per_
second_Minor</title>
<g id="a_${uniqueid}_node11"><a xlink:href="#19693860000658" xlink:title="com.watch4net.alerting.action.SNMPTrapAction">
<ellipse fill="#4daf4a" stroke="black" cx="796.488" cy="-155.87" rx="83.3772" ry="26.7407"/>
<text text-anchor="middle" x="796.488" y="-159.67" font-family="Times,serif" font-size="14.00" fill="white">Writes_per_</text>
<text text-anchor="middle" x="796.488" y="-144.67" font-family="Times,serif" font-size="14.00" fill="white">second_Minor</text>
</a>
</g>
</g>
<!-- Comparator
Writes_per_
second_MINOR&#45;&gt;Writes_per_
second_Minor -->
<g id="${uniqueid}_edge4" class="edge"><title>Comparator
Writes_per_
second_MINOR:se&#45;&gt;Writes_per_
second_Minor:w</title>
<path fill="none" stroke="black" d="M564.848,-151.87C608.518,-108.199 642.533,-150.853 701.417,-155.474"/>
<polygon fill="black" stroke="black" points="701.358,-158.974 711.488,-155.87 701.634,-151.979 701.358,-158.974"/>
<text text-anchor="middle" x="549.348" y="-140.67" font-family="Times,serif" font-size="14.00">true</text>
</g>
<!-- Comparator
Writes_per_
second_Major -->
<g id="${uniqueid}_node3" class="node"><title>Comparator
Writes_per_
second_Major</title>
<g id="a_${uniqueid}_node3"><a xlink:href="#19693859946822" xlink:title="com.watch4net.alerting.operation.comparator.ConstantComparatorOperation">
<polygon fill="#ff7f00" stroke="black" points="525.848,-116.87 408.848,-63.8701 525.848,-10.8701 642.848,-63.8701 525.848,-116.87"/>
<text text-anchor="middle" x="525.848" y="-75.1701" font-family="Times,serif" font-size="14.00" fill="white">Comparator</text>
<text text-anchor="middle" x="525.848" y="-60.1701" font-family="Times,serif" font-size="14.00" fill="white">Writes_per_</text>
<text text-anchor="middle" x="525.848" y="-45.1701" font-family="Times,serif" font-size="14.00" fill="white">second_Major</text>
</a>
</g>
</g>
<!-- SNMP_Major_Clear -->
<g id="${uniqueid}_node5" class="node"><title>SNMP_Major_Clear</title>
<g id="a_${uniqueid}_node5"><a xlink:href="#19693859974950" xlink:title="com.watch4net.alerting.action.SNMPTrapAction">
<ellipse fill="#4daf4a" stroke="black" cx="796.488" cy="-92.8701" rx="103.982" ry="18"/>
<text text-anchor="middle" x="796.488" y="-89.1701" font-family="Times,serif" font-size="14.00" fill="white">SNMP_Major_Clear</text>
</a>
</g>
</g>
<!-- Comparator
Writes_per_
second_Major&#45;&gt;SNMP_Major_Clear -->
<g id="${uniqueid}_edge5" class="edge"><title>Comparator
Writes_per_
second_Major:ne&#45;&gt;SNMP_Major_Clear:w</title>
<path fill="none" stroke="black" d="M561.848,-100.87C564.367,-103.389 560.251,-114.431 562.848,-116.87 575.805,-129.042 625.529,-120.884 642.848,-116.87 662.596,-112.294 666.623,-98.5974 681.578,-94.2265"/>
<polygon fill="black" stroke="black" points="682.392,-97.6495 691.848,-92.8701 681.476,-90.7098 682.392,-97.6495"/>
<text text-anchor="middle" x="544.848" y="-89.6701" font-family="Times,serif" font-size="14.00">false</text>
</g>
<!-- Writes_per_
second_Major -->
<g id="${uniqueid}_node10" class="node"><title>Writes_per_
second_Major</title>
<g id="a_${uniqueid}_node10"><a xlink:href="#19693859960786" xlink:title="com.watch4net.alerting.action.SNMPTrapAction">
<ellipse fill="#4daf4a" stroke="black" cx="796.488" cy="-26.8701" rx="82.9636" ry="26.7407"/>
<text text-anchor="middle" x="796.488" y="-30.6701" font-family="Times,serif" font-size="14.00" fill="white">Writes_per_</text>
<text text-anchor="middle" x="796.488" y="-15.6701" font-family="Times,serif" font-size="14.00" fill="white">second_Major</text>
</a>
</g>
</g>
<!-- Comparator
Writes_per_
second_Major&#45;&gt;Writes_per_
second_Major -->
<g id="${uniqueid}_edge6" class="edge"><title>Comparator
Writes_per_
second_Major:se&#45;&gt;Writes_per_
second_Major:w</title>
<path fill="none" stroke="black" d="M563.848,-26.8701C608.098,17.3798 642.613,-22.2031 702.283,-26.5009"/>
<polygon fill="black" stroke="black" points="702.368,-30.0062 712.488,-26.8701 702.622,-23.0108 702.368,-30.0062"/>
<text text-anchor="middle" x="548.348" y="-15.6701" font-family="Times,serif" font-size="14.00">true</text>
</g>
<!-- Writes per
second of Array
filter -->
<g id="${uniqueid}_node7" class="node"><title>Writes per
second of Array
filter</title>
<g id="a_${uniqueid}_node7"><a xlink:href="#19693859801126" xlink:title="com.watch4net.alerting.operation.FilteredEntryPoint">
<ellipse fill="#984ea3" stroke="black" cx="91.9239" cy="-189.87" rx="91.8478" ry="37.4533"/>
<text text-anchor="middle" x="91.9239" y="-201.17" font-family="Times,serif" font-size="14.00" fill="white">Writes per</text>
<text text-anchor="middle" x="91.9239" y="-186.17" font-family="Times,serif" font-size="14.00" fill="white">second of Array</text>
<text text-anchor="middle" x="91.9239" y="-171.17" font-family="Times,serif" font-size="14.00" fill="white">filter</text>
</a>
</g>
</g>
<!-- WritesPerSecond
Case -->
<g id="${uniqueid}_node8" class="node"><title>WritesPerSecond
Case</title>
<g id="a_${uniqueid}_node8"><a xlink:href="#19693859866727" xlink:title="com.watch4net.alerting.operation.CaseOperation">
<polygon fill="#377eb8" stroke="black" points="359.848,-208.87 219.848,-208.87 219.848,-170.87 359.848,-170.87 359.848,-208.87"/>
<text text-anchor="middle" x="289.848" y="-193.67" font-family="Times,serif" font-size="14.00" fill="white">WritesPerSecond</text>
<text text-anchor="middle" x="289.848" y="-178.67" font-family="Times,serif" font-size="14.00" fill="white">Case</text>
</a>
</g>
</g>
<!-- Writes per
second of Array
filter&#45;&gt;WritesPerSecond
Case -->
<g id="${uniqueid}_edge7" class="edge"><title>Writes per
second of Array
filter:e&#45;&gt;WritesPerSecond
Case:w</title>
<path fill="none" stroke="black" d="M183.848,-189.87C195.848,-189.87 201.098,-189.87 209.723,-189.87"/>
<polygon fill="black" stroke="black" points="209.848,-193.37 219.848,-189.87 209.848,-186.37 209.848,-193.37"/>
</g>
<!-- WritesPerSecond
Case&#45;&gt;Comparator
Writes_per_
second_CRIT -->
<g id="${uniqueid}_edge8" class="edge"><title>WritesPerSecond
Case:e&#45;&gt;Comparator
Writes_per_
second_CRIT:w</title>
<path fill="none" stroke="black" d="M359.848,-189.87C416.583,-189.87 361.211,-299.733 403.933,-313.466"/>
<polygon fill="black" stroke="black" points="403.456,-316.933 413.848,-314.87 404.437,-310.003 403.456,-316.933"/>
</g>
<!-- WritesPerSecond
Case&#45;&gt;Comparator
Writes_per_
second_MINOR -->
<g id="${uniqueid}_edge9" class="edge"><title>WritesPerSecond
Case:e&#45;&gt;Comparator
Writes_per_
second_MINOR:w</title>
<path fill="none" stroke="black" d="M359.848,-189.87C371.848,-189.87 377.098,-189.87 385.723,-189.87"/>
<polygon fill="black" stroke="black" points="385.848,-193.37 395.848,-189.87 385.848,-186.37 385.848,-193.37"/>
</g>
<!-- WritesPerSecond
Case&#45;&gt;Comparator
Writes_per_
second_Major -->
<g id="${uniqueid}_edge10" class="edge"><title>WritesPerSecond
Case:e&#45;&gt;Comparator
Writes_per_
second_Major:w</title>
<path fill="none" stroke="black" d="M359.848,-189.87C415.911,-189.87 356.637,-79.5888 397.832,-65.3729"/>
<polygon fill="black" stroke="black" points="398.478,-68.8153 407.848,-63.8701 397.439,-61.8928 398.478,-68.8153"/>
</g>
</g>
</svg>
