<?xml version="1.0" encoding="UTF-8" standalone="no"?>
<!DOCTYPE svg PUBLIC "-//W3C//DTD SVG 1.1//EN"
 "http://www.w3.org/Graphics/SVG/1.1/DTD/svg11.dtd">
<!-- Generated by graphviz version 2.38.0 (20140413.2041)
 -->
<!-- Title: VMware vCenter Alert Definitions/Datastores/High Disk Usage Pages: 1 -->
<svg width="1197pt" height="260pt"
 viewBox="0.00 0.00 1197.05 259.74" xmlns="http://www.w3.org/2000/svg" xmlns:xlink="http://www.w3.org/1999/xlink">
<g id="${uniqueid}" class="graph" transform="scale(1 1) rotate(0) translate(4 255.74)">
<title>VMware vCenter Alert Definitions/Datastores/High Disk Usage</title>
<polygon fill="white" stroke="none" points="-4,4 -4,-255.74 1193.05,-255.74 1193.05,4 -4,4"/>
<!-- Capacity of Data
Store -->
<g id="${uniqueid}_node1" class="node"><title>Capacity of Data
Store</title>
<g id="a_${uniqueid}_node1"><a xlink:href="#2304070814123592" xlink:title="com.watch4net.alerting.operation.FilteredEntryPoint">
<ellipse fill="#984ea3" stroke="black" cx="96.8736" cy="-156.87" rx="96.7474" ry="26.7407"/>
<text text-anchor="middle" x="96.8736" y="-160.67" font-family="Times,serif" font-size="14.00" fill="white">Capacity of Data</text>
<text text-anchor="middle" x="96.8736" y="-145.67" font-family="Times,serif" font-size="14.00" fill="white">Store</text>
</a>
</g>
</g>
<!-- Divide -->
<g id="${uniqueid}_node6" class="node"><title>Divide</title>
<g id="a_${uniqueid}_node6"><a xlink:href="#2304070814166881" xlink:title="com.watch4net.alerting.operation.arithmetic.DataArithmeticOperation">
<polygon fill="#377eb8" stroke="black" points="291.747,-138.87 229.747,-138.87 229.747,-102.87 291.747,-102.87 291.747,-138.87"/>
<text text-anchor="middle" x="260.747" y="-117.17" font-family="Times,serif" font-size="14.00" fill="white">Divide</text>
</a>
</g>
</g>
<!-- Capacity of Data
Store&#45;&gt;Divide -->
<g id="${uniqueid}_edge1" class="edge"><title>Capacity of Data
Store:e&#45;&gt;Divide:w</title>
<path fill="none" stroke="black" d="M193.747,-156.87C212.132,-156.87 209.47,-133.104 219.962,-124.192"/>
<polygon fill="black" stroke="black" points="221.403,-127.399 229.747,-120.87 219.153,-120.771 221.403,-127.399"/>
</g>
<!-- DataStore_Usage_
Critical -->
<g id="${uniqueid}_node2" class="node"><title>DataStore_Usage_
Critical</title>
<g id="a_${uniqueid}_node2"><a xlink:href="#2304070814226485" xlink:title="com.watch4net.alerting.action.SNMPTrapAction">
<ellipse fill="#4daf4a" stroke="black" cx="1084.4" cy="-152.87" rx="104.804" ry="26.7407"/>
<text text-anchor="middle" x="1084.4" y="-156.67" font-family="Times,serif" font-size="14.00" fill="white">DataStore_Usage_</text>
<text text-anchor="middle" x="1084.4" y="-141.67" font-family="Times,serif" font-size="14.00" fill="white">Critical</text>
</a>
</g>
</g>
<!-- DataStore_Usage_
Critical_Check -->
<g id="${uniqueid}_node3" class="node"><title>DataStore_Usage_
Critical_Check</title>
<g id="a_${uniqueid}_node3"><a xlink:href="#2304070814215161" xlink:title="com.watch4net.alerting.operation.comparator.ConstantComparatorOperation">
<polygon fill="#ff7f00" stroke="black" points="795.747,-221.87 647.747,-183.87 795.747,-145.87 943.747,-183.87 795.747,-221.87"/>
<text text-anchor="middle" x="795.747" y="-187.67" font-family="Times,serif" font-size="14.00" fill="white">DataStore_Usage_</text>
<text text-anchor="middle" x="795.747" y="-172.67" font-family="Times,serif" font-size="14.00" fill="white">Critical_Check</text>
</a>
</g>
</g>
<!-- DataStore_Usage_
Critical_Check&#45;&gt;DataStore_Usage_
Critical -->
<g id="${uniqueid}_edge3" class="edge"><title>DataStore_Usage_
Critical_Check:se&#45;&gt;DataStore_Usage_
Critical:w</title>
<path fill="none" stroke="black" d="M827.747,-152.87C873.09,-107.527 908.438,-148.265 969.689,-152.519"/>
<polygon fill="black" stroke="black" points="969.631,-156.019 979.747,-152.87 969.875,-149.024 969.631,-156.019"/>
<text text-anchor="middle" x="812.247" y="-141.67" font-family="Times,serif" font-size="14.00">true</text>
</g>
<!-- HDU_Clear_
Critical -->
<g id="${uniqueid}_node10" class="node"><title>HDU_Clear_
Critical</title>
<g id="a_${uniqueid}_node10"><a xlink:href="#2304070814242014" xlink:title="com.watch4net.alerting.action.SNMPTrapAction">
<ellipse fill="#4daf4a" stroke="black" cx="1084.4" cy="-224.87" rx="74.9067" ry="26.7407"/>
<text text-anchor="middle" x="1084.4" y="-228.67" font-family="Times,serif" font-size="14.00" fill="white">HDU_Clear_</text>
<text text-anchor="middle" x="1084.4" y="-213.67" font-family="Times,serif" font-size="14.00" fill="white">Critical</text>
</a>
</g>
</g>
<!-- DataStore_Usage_
Critical_Check&#45;&gt;HDU_Clear_
Critical -->
<g id="${uniqueid}_edge2" class="edge"><title>DataStore_Usage_
Critical_Check:ne&#45;&gt;HDU_Clear_
Critical:w</title>
<path fill="none" stroke="black" d="M825.747,-214.87C827.969,-217.092 824.39,-219.791 826.747,-221.87 884.705,-272.981 924.149,-229.01 998.209,-225.137"/>
<polygon fill="black" stroke="black" points="998.494,-228.631 1008.4,-224.87 998.311,-221.633 998.494,-228.631"/>
<text text-anchor="middle" x="808.747" y="-218.67" font-family="Times,serif" font-size="14.00">false</text>
</g>
<!-- DataStore_Usage_
Major -->
<g id="${uniqueid}_node4" class="node"><title>DataStore_Usage_
Major</title>
<g id="a_${uniqueid}_node4"><a xlink:href="#2304070814261619" xlink:title="com.watch4net.alerting.action.SNMPTrapAction">
<ellipse fill="#4daf4a" stroke="black" cx="1084.4" cy="-26.8701" rx="104.804" ry="26.7407"/>
<text text-anchor="middle" x="1084.4" y="-30.6701" font-family="Times,serif" font-size="14.00" fill="white">DataStore_Usage_</text>
<text text-anchor="middle" x="1084.4" y="-15.6701" font-family="Times,serif" font-size="14.00" fill="white">Major</text>
</a>
</g>
</g>
<!-- DataStore_Usage_
Major_Check -->
<g id="${uniqueid}_node5" class="node"><title>DataStore_Usage_
Major_Check</title>
<g id="a_${uniqueid}_node5"><a xlink:href="#2304070814251187" xlink:title="com.watch4net.alerting.operation.comparator.ConstantComparatorOperation">
<polygon fill="#ff7f00" stroke="black" points="795.747,-96.8701 647.747,-58.8701 795.747,-20.8701 943.747,-58.8701 795.747,-96.8701"/>
<text text-anchor="middle" x="795.747" y="-62.6701" font-family="Times,serif" font-size="14.00" fill="white">DataStore_Usage_</text>
<text text-anchor="middle" x="795.747" y="-47.6701" font-family="Times,serif" font-size="14.00" fill="white">Major_Check</text>
</a>
</g>
</g>
<!-- DataStore_Usage_
Major_Check&#45;&gt;DataStore_Usage_
Major -->
<g id="${uniqueid}_edge5" class="edge"><title>DataStore_Usage_
Major_Check:se&#45;&gt;DataStore_Usage_
Major:w</title>
<path fill="none" stroke="black" d="M827.747,-27.8701C873.091,17.4741 908.437,-22.3638 969.689,-26.5267"/>
<polygon fill="black" stroke="black" points="969.634,-30.0268 979.747,-26.8701 969.873,-23.0309 969.634,-30.0268"/>
<text text-anchor="middle" x="812.247" y="-16.6701" font-family="Times,serif" font-size="14.00">true</text>
</g>
<!-- HDU_Clear_Major -->
<g id="${uniqueid}_node11" class="node"><title>HDU_Clear_Major</title>
<g id="a_${uniqueid}_node11"><a xlink:href="#2304070814272268" xlink:title="com.watch4net.alerting.action.SNMPTrapAction">
<ellipse fill="#4daf4a" stroke="black" cx="1084.4" cy="-89.8701" rx="96.6831" ry="18"/>
<text text-anchor="middle" x="1084.4" y="-86.1701" font-family="Times,serif" font-size="14.00" fill="white">HDU_Clear_Major</text>
</a>
</g>
</g>
<!-- DataStore_Usage_
Major_Check&#45;&gt;HDU_Clear_Major -->
<g id="${uniqueid}_edge4" class="edge"><title>DataStore_Usage_
Major_Check:ne&#45;&gt;HDU_Clear_Major:w</title>
<path fill="none" stroke="black" d="M825.747,-89.8701C827.969,-92.0923 824.373,-94.811 826.747,-96.8701 866.031,-130.941 891.919,-101.095 943.747,-96.8701 959.005,-95.6264 964.831,-91.9197 976.29,-90.4652"/>
<polygon fill="black" stroke="black" points="976.622,-93.9518 986.399,-89.8701 976.211,-86.9639 976.622,-93.9518"/>
<text text-anchor="middle" x="808.747" y="-93.6701" font-family="Times,serif" font-size="14.00">false</text>
</g>
<!-- Percen -->
<g id="${uniqueid}_node12" class="node"><title>Percen</title>
<g id="a_${uniqueid}_node12"><a xlink:href="#2304070814184503" xlink:title="com.watch4net.alerting.operation.arithmetic.ConstantArithmeticOperation">
<polygon fill="#377eb8" stroke="black" points="393.747,-138.87 327.747,-138.87 327.747,-102.87 393.747,-102.87 393.747,-138.87"/>
<text text-anchor="middle" x="360.747" y="-117.17" font-family="Times,serif" font-size="14.00" fill="white">Percen</text>
</a>
</g>
</g>
<!-- Divide&#45;&gt;Percen -->
<g id="${uniqueid}_edge6" class="edge"><title>Divide:e&#45;&gt;Percen:w</title>
<path fill="none" stroke="black" d="M291.747,-120.87C303.747,-120.87 308.997,-120.87 317.622,-120.87"/>
<polygon fill="black" stroke="black" points="317.747,-124.37 327.747,-120.87 317.747,-117.37 317.747,-124.37"/>
</g>
<!-- Floor -->
<g id="${uniqueid}_node7" class="node"><title>Floor</title>
<g id="a_${uniqueid}_node7"><a xlink:href="#2304070814196236" xlink:title="com.watch4net.alerting.operation.math.ConstantMathOperation">
<polygon fill="#377eb8" stroke="black" points="483.747,-138.87 429.747,-138.87 429.747,-102.87 483.747,-102.87 483.747,-138.87"/>
<text text-anchor="middle" x="456.747" y="-117.17" font-family="Times,serif" font-size="14.00" fill="white">Floor</text>
</a>
</g>
</g>
<!-- HDU Case
Statement -->
<g id="${uniqueid}_node9" class="node"><title>HDU Case
Statement</title>
<g id="a_${uniqueid}_node9"><a xlink:href="#1413925640419" xlink:title="com.watch4net.alerting.operation.CaseOperation">
<polygon fill="#377eb8" stroke="black" points="611.747,-139.87 519.747,-139.87 519.747,-101.87 611.747,-101.87 611.747,-139.87"/>
<text text-anchor="middle" x="565.747" y="-124.67" font-family="Times,serif" font-size="14.00" fill="white">HDU Case</text>
<text text-anchor="middle" x="565.747" y="-109.67" font-family="Times,serif" font-size="14.00" fill="white">Statement</text>
</a>
</g>
</g>
<!-- Floor&#45;&gt;HDU Case
Statement -->
<g id="${uniqueid}_edge7" class="edge"><title>Floor:e&#45;&gt;HDU Case
Statement:w</title>
<path fill="none" stroke="black" d="M483.747,-120.87C495.747,-120.87 500.997,-120.87 509.622,-120.87"/>
<polygon fill="black" stroke="black" points="509.747,-124.37 519.747,-120.87 509.747,-117.37 509.747,-124.37"/>
</g>
<!-- Free Capacity of
DataStore -->
<g id="${uniqueid}_node8" class="node"><title>Free Capacity of
DataStore</title>
<g id="a_${uniqueid}_node8"><a xlink:href="#2304070814290496" xlink:title="com.watch4net.alerting.operation.FilteredEntryPoint">
<ellipse fill="#984ea3" stroke="black" cx="96.8736" cy="-84.8701" rx="96.3333" ry="26.7407"/>
<text text-anchor="middle" x="96.8736" y="-88.6701" font-family="Times,serif" font-size="14.00" fill="white">Free Capacity of</text>
<text text-anchor="middle" x="96.8736" y="-73.6701" font-family="Times,serif" font-size="14.00" fill="white">DataStore</text>
</a>
</g>
</g>
<!-- Free Capacity of
DataStore&#45;&gt;Divide -->
<g id="${uniqueid}_edge8" class="edge"><title>Free Capacity of
DataStore:e&#45;&gt;Divide:w</title>
<path fill="none" stroke="black" d="M193.747,-84.8701C212.132,-84.8701 209.47,-108.636 219.962,-117.548"/>
<polygon fill="black" stroke="black" points="219.153,-120.969 229.747,-120.87 221.403,-114.341 219.153,-120.969"/>
</g>
<!-- HDU Case
Statement&#45;&gt;DataStore_Usage_
Critical_Check -->
<g id="${uniqueid}_edge9" class="edge"><title>HDU Case
Statement:e&#45;&gt;DataStore_Usage_
Critical_Check:w</title>
<path fill="none" stroke="black" d="M611.747,-120.87C639.713,-120.87 621.996,-168.247 637.828,-180.831"/>
<polygon fill="black" stroke="black" points="637.161,-184.287 647.747,-183.87 639.211,-177.594 637.161,-184.287"/>
</g>
<!-- HDU Case
Statement&#45;&gt;DataStore_Usage_
Major_Check -->
<g id="${uniqueid}_edge10" class="edge"><title>HDU Case
Statement:e&#45;&gt;DataStore_Usage_
Major_Check:w</title>
<path fill="none" stroke="black" d="M611.747,-120.87C639.379,-120.87 622.197,-74.2452 637.926,-61.8604"/>
<polygon fill="black" stroke="black" points="639.2,-65.1311 647.747,-58.8701 637.161,-58.4346 639.2,-65.1311"/>
</g>
<!-- Percen&#45;&gt;Floor -->
<g id="${uniqueid}_edge11" class="edge"><title>Percen:e&#45;&gt;Floor:w</title>
<path fill="none" stroke="black" d="M393.747,-120.87C405.747,-120.87 410.997,-120.87 419.622,-120.87"/>
<polygon fill="black" stroke="black" points="419.747,-124.37 429.747,-120.87 419.747,-117.37 419.747,-124.37"/>
</g>
</g>
</svg>
