<?xml version="1.0" encoding="UTF-8" standalone="no"?>
<!DOCTYPE svg PUBLIC "-//W3C//DTD SVG 1.1//EN"
 "http://www.w3.org/Graphics/SVG/1.1/DTD/svg11.dtd">
<!-- Generated by graphviz version 2.38.0 (20140413.2041)
 -->
<!-- Title: EMC M&amp;R Health/Backend File Count Pages: 1 -->
<svg width="892pt" height="298pt"
 viewBox="0.00 0.00 891.81 297.87" xmlns="http://www.w3.org/2000/svg" xmlns:xlink="http://www.w3.org/1999/xlink">
<g id="${uniqueid}" class="graph" transform="scale(1 1) rotate(0) translate(4 293.87)">
<title>EMC M&amp;R Health/Backend File Count</title>
<polygon fill="white" stroke="none" points="-4,4 -4,-293.87 887.809,-293.87 887.809,4 -4,4"/>
<!-- Action
CLEARMajor -->
<g id="${uniqueid}_node1" class="node"><title>Action
CLEARMajor</title>
<g id="a_${uniqueid}_node1"><a xlink:href="#95596318212555" xlink:title="com.watch4net.alerting.action.SNMPTrapAction">
<ellipse fill="#4daf4a" stroke="black" cx="792.809" cy="-263" rx="65.1077" ry="26.7407"/>
<text text-anchor="middle" x="792.809" y="-266.8" font-family="Times,serif" font-size="14.00" fill="white">Action</text>
<text text-anchor="middle" x="792.809" y="-251.8" font-family="Times,serif" font-size="14.00" fill="white">CLEARMajor</text>
</a>
</g>
</g>
<!-- Action
CLEARMinor -->
<g id="${uniqueid}_node2" class="node"><title>Action
CLEARMinor</title>
<g id="a_${uniqueid}_node2"><a xlink:href="#1412688478398" xlink:title="com.watch4net.alerting.action.SNMPTrapAction">
<ellipse fill="#4daf4a" stroke="black" cx="792.809" cy="-81" rx="65.1077" ry="26.7407"/>
<text text-anchor="middle" x="792.809" y="-84.8" font-family="Times,serif" font-size="14.00" fill="white">Action</text>
<text text-anchor="middle" x="792.809" y="-69.8" font-family="Times,serif" font-size="14.00" fill="white">CLEARMinor</text>
</a>
</g>
</g>
<!-- Action SETMajor -->
<g id="${uniqueid}_node3" class="node"><title>Action SETMajor</title>
<g id="a_${uniqueid}_node3"><a xlink:href="#95596318179153" xlink:title="com.watch4net.alerting.action.SNMPTrapAction">
<ellipse fill="#4daf4a" stroke="black" cx="792.809" cy="-200" rx="83.6854" ry="18"/>
<text text-anchor="middle" x="792.809" y="-196.3" font-family="Times,serif" font-size="14.00" fill="white">Action SETMajor</text>
</a>
</g>
</g>
<!-- Action SETMinor -->
<g id="${uniqueid}_node4" class="node"><title>Action SETMinor</title>
<g id="a_${uniqueid}_node4"><a xlink:href="#1412688432945" xlink:title="com.watch4net.alerting.action.SNMPTrapAction">
<ellipse fill="#4daf4a" stroke="black" cx="792.809" cy="-18" rx="83.6854" ry="18"/>
<text text-anchor="middle" x="792.809" y="-14.3" font-family="Times,serif" font-size="14.00" fill="white">Action SETMinor</text>
</a>
</g>
</g>
<!-- Case -->
<g id="${uniqueid}_node5" class="node"><title>Case</title>
<g id="a_${uniqueid}_node5"><a xlink:href="#1412688350406" xlink:title="com.watch4net.alerting.operation.CaseOperation">
<polygon fill="#377eb8" stroke="black" points="412.692,-163 358.692,-163 358.692,-127 412.692,-127 412.692,-163"/>
<text text-anchor="middle" x="385.692" y="-141.3" font-family="Times,serif" font-size="14.00" fill="white">Case</text>
</a>
</g>
</g>
<!-- ThresholdMajor -->
<g id="${uniqueid}_node10" class="node"><title>ThresholdMajor</title>
<g id="a_${uniqueid}_node10"><a xlink:href="#95596318170291" xlink:title="com.watch4net.alerting.operation.comparator.ConstantComparatorOperation">
<polygon fill="#ff7f00" stroke="black" points="560.829,-198 448.555,-180 560.829,-162 673.104,-180 560.829,-198"/>
<text text-anchor="middle" x="560.829" y="-176.3" font-family="Times,serif" font-size="14.00" fill="white">ThresholdMajor</text>
</a>
</g>
</g>
<!-- Case&#45;&gt;ThresholdMajor -->
<g id="${uniqueid}_edge1" class="edge"><title>Case:e&#45;&gt;ThresholdMajor:w</title>
<path fill="none" stroke="black" d="M412.692,-145C430.823,-145 428.525,-168.105 438.996,-176.77"/>
<polygon fill="black" stroke="black" points="438.098,-180.16 448.692,-180 440.311,-173.519 438.098,-180.16"/>
</g>
<!-- ThresholdMinor -->
<g id="${uniqueid}_node11" class="node"><title>ThresholdMinor</title>
<g id="a_${uniqueid}_node11"><a xlink:href="#1412688411279" xlink:title="com.watch4net.alerting.operation.comparator.ConstantComparatorOperation">
<polygon fill="#ff7f00" stroke="black" points="560.829,-128 448.555,-110 560.829,-92 673.104,-110 560.829,-128"/>
<text text-anchor="middle" x="560.829" y="-106.3" font-family="Times,serif" font-size="14.00" fill="white">ThresholdMinor</text>
</a>
</g>
</g>
<!-- Case&#45;&gt;ThresholdMinor -->
<g id="${uniqueid}_edge2" class="edge"><title>Case:e&#45;&gt;ThresholdMinor:w</title>
<path fill="none" stroke="black" d="M412.692,-145C430.823,-145 428.525,-121.895 438.996,-113.23"/>
<polygon fill="black" stroke="black" points="440.311,-116.481 448.692,-110 438.098,-109.84 440.311,-116.481"/>
</g>
<!-- Custom post&#45;
filter -->
<g id="${uniqueid}_node6" class="node"><title>Custom post&#45;
filter</title>
<g id="a_${uniqueid}_node6"><a xlink:href="#1436273345726" xlink:title="1435689668905">
<polygon fill="#e41a1c" stroke="black" points="846.309,-164 739.309,-164 739.309,-126 846.309,-126 846.309,-164"/>
<text text-anchor="middle" x="792.809" y="-148.8" font-family="Times,serif" font-size="14.00" fill="white">Custom post&#45;</text>
<text text-anchor="middle" x="792.809" y="-133.8" font-family="Times,serif" font-size="14.00" fill="white">filter</text>
</a>
</g>
</g>
<!-- Custom pre&#45;
filter -->
<g id="${uniqueid}_node7" class="node"><title>Custom pre&#45;
filter</title>
<g id="a_${uniqueid}_node7"><a xlink:href="#1436273334308" xlink:title="1435689654812">
<polygon fill="#e41a1c" stroke="black" points="224.692,-164 125.692,-164 125.692,-126 224.692,-126 224.692,-164"/>
<text text-anchor="middle" x="175.192" y="-148.8" font-family="Times,serif" font-size="14.00" fill="white">Custom pre&#45;</text>
<text text-anchor="middle" x="175.192" y="-133.8" font-family="Times,serif" font-size="14.00" fill="white">filter</text>
</a>
</g>
</g>
<!-- Refine -->
<g id="${uniqueid}_node9" class="node"><title>Refine</title>
<g id="a_${uniqueid}_node9"><a xlink:href="#1427995674054" xlink:title="com.watch4net.alerting.operation.RefineFilterOperation">
<polygon fill="#377eb8" stroke="black" points="322.692,-163 260.692,-163 260.692,-127 322.692,-127 322.692,-163"/>
<text text-anchor="middle" x="291.692" y="-141.3" font-family="Times,serif" font-size="14.00" fill="white">Refine</text>
</a>
</g>
</g>
<!-- Custom pre&#45;
filter&#45;&gt;Refine -->
<g id="${uniqueid}_edge3" class="edge"><title>Custom pre&#45;
filter:e&#45;&gt;Refine:w</title>
<path fill="none" stroke="black" d="M224.692,-145C236.692,-145 241.942,-145 250.567,-145"/>
<polygon fill="black" stroke="black" points="250.692,-148.5 260.692,-145 250.692,-141.5 250.692,-148.5"/>
</g>
<!-- Filter1 -->
<g id="${uniqueid}_node8" class="node"><title>Filter1</title>
<g id="a_${uniqueid}_node8"><a xlink:href="#95596317971750" xlink:title="com.watch4net.alerting.operation.FilteredEntryPoint">
<ellipse fill="#984ea3" stroke="black" cx="44.846" cy="-145" rx="44.6926" ry="18"/>
<text text-anchor="middle" x="44.846" y="-141.3" font-family="Times,serif" font-size="14.00" fill="white">Filter1</text>
</a>
</g>
</g>
<!-- Filter1&#45;&gt;Custom pre&#45;
filter -->
<g id="${uniqueid}_edge4" class="edge"><title>Filter1:e&#45;&gt;Custom pre&#45;
filter:w</title>
<path fill="none" stroke="black" d="M89.692,-145C101.692,-145 106.942,-145 115.567,-145"/>
<polygon fill="black" stroke="black" points="115.692,-148.5 125.692,-145 115.692,-141.5 115.692,-148.5"/>
</g>
<!-- Refine&#45;&gt;Case -->
<g id="${uniqueid}_edge5" class="edge"><title>Refine:e&#45;&gt;Case:w</title>
<path fill="none" stroke="black" d="M322.692,-145C334.692,-145 339.942,-145 348.567,-145"/>
<polygon fill="black" stroke="black" points="348.692,-148.5 358.692,-145 348.692,-141.5 348.692,-148.5"/>
</g>
<!-- ThresholdMajor&#45;&gt;Action
CLEARMajor -->
<g id="${uniqueid}_edge6" class="edge"><title>ThresholdMajor:ne&#45;&gt;Action
CLEARMajor:w</title>
<path fill="none" stroke="black" d="M575.829,-196C576.532,-196.703 576.108,-197.317 576.829,-198 627.009,-245.508 651.693,-261.447 716.502,-262.89"/>
<polygon fill="black" stroke="black" points="716.772,-266.393 726.809,-263 716.847,-259.393 716.772,-266.393"/>
<text text-anchor="middle" x="556.829" y="-199.8" font-family="Times,serif" font-size="14.00">false</text>
</g>
<!-- ThresholdMajor&#45;&gt;Action SETMajor -->
<g id="${uniqueid}_edge8" class="edge"><title>ThresholdMajor:se&#45;&gt;Action SETMajor:w</title>
<path fill="none" stroke="black" d="M577.829,-164C618.062,-123.767 645.2,-191.19 698.667,-199.229"/>
<polygon fill="black" stroke="black" points="698.733,-202.744 708.966,-200 699.256,-195.763 698.733,-202.744"/>
<text text-anchor="middle" x="562.329" y="-152.8" font-family="Times,serif" font-size="14.00">true</text>
</g>
<!-- ThresholdMajor&#45;&gt;Custom post&#45;
filter -->
<g id="${uniqueid}_edge7" class="edge"><title>ThresholdMajor:ne&#45;&gt;Custom post&#45;
filter:sw</title>
<path fill="none" stroke="black" d="M575.829,-196C576.532,-196.703 575.984,-197.478 576.829,-198 613.176,-220.463 633.834,-215.154 672.966,-198 709.302,-182.072 709.988,-110.951 732.618,-120.054"/>
<polygon fill="black" stroke="black" points="730.66,-122.958 740.809,-126 734.772,-117.293 730.66,-122.958"/>
<text text-anchor="middle" x="812.309" y="-114.8" font-family="Times,serif" font-size="14.00">1435689620024|entry</text>
</g>
<!-- ThresholdMajor&#45;&gt;Custom post&#45;
filter -->
<g id="${uniqueid}_edge9" class="edge"><title>ThresholdMajor:se&#45;&gt;Custom post&#45;
filter:nw</title>
<path fill="none" stroke="black" d="M577.829,-164C600.852,-140.977 694.365,-180.817 730.054,-169.09"/>
<polygon fill="black" stroke="black" points="731.923,-172.052 738.809,-164 728.405,-166.001 731.923,-172.052"/>
<text text-anchor="middle" x="810.309" y="-167.8" font-family="Times,serif" font-size="14.00">1435689616003|entry</text>
</g>
<!-- ThresholdMinor&#45;&gt;Action
CLEARMinor -->
<g id="${uniqueid}_edge10" class="edge"><title>ThresholdMinor:ne&#45;&gt;Action
CLEARMinor:w</title>
<path fill="none" stroke="black" d="M575.829,-126C576.532,-126.703 575.984,-127.478 576.829,-128 613.176,-150.463 632.96,-143.005 672.966,-128 699.106,-118.196 696.352,-89.3192 716.868,-82.4694"/>
<polygon fill="black" stroke="black" points="717.428,-85.9246 726.809,-81 716.405,-78.9998 717.428,-85.9246"/>
<text text-anchor="middle" x="556.829" y="-129.8" font-family="Times,serif" font-size="14.00">false</text>
</g>
<!-- ThresholdMinor&#45;&gt;Action SETMinor -->
<g id="${uniqueid}_edge12" class="edge"><title>ThresholdMinor:se&#45;&gt;Action SETMinor:w</title>
<path fill="none" stroke="black" d="M577.829,-94C622.951,-48.8786 639.813,-21.0454 698.724,-18.2353"/>
<polygon fill="black" stroke="black" points="699.049,-21.7289 708.966,-18 698.889,-14.7307 699.049,-21.7289"/>
<text text-anchor="middle" x="562.329" y="-82.8" font-family="Times,serif" font-size="14.00">true</text>
</g>
<!-- ThresholdMinor&#45;&gt;Custom post&#45;
filter -->
<g id="${uniqueid}_edge11" class="edge"><title>ThresholdMinor:ne&#45;&gt;Custom post&#45;
filter:sw</title>
<path fill="none" stroke="black" d="M575.829,-126C576.532,-126.703 575.984,-127.478 576.829,-128 613.176,-150.463 630.244,-128.644 672.966,-128 685.102,-127.817 714.731,-119.728 731.398,-122.132"/>
<polygon fill="black" stroke="black" points="730.229,-125.435 740.809,-126 732.891,-118.961 730.229,-125.435"/>
</g>
<!-- ThresholdMinor&#45;&gt;Custom post&#45;
filter -->
<g id="${uniqueid}_edge13" class="edge"><title>ThresholdMinor:se&#45;&gt;Custom post&#45;
filter:nw</title>
<path fill="none" stroke="black" d="M577.829,-94C602.935,-68.8947 692.844,-170.326 729.593,-167.957"/>
<polygon fill="black" stroke="black" points="731.001,-171.162 738.809,-164 728.239,-164.73 731.001,-171.162"/>
</g>
</g>
</svg>
