<?xml version="1.0" encoding="UTF-8" standalone="no"?>
<!DOCTYPE svg PUBLIC "-//W3C//DTD SVG 1.1//EN"
 "http://www.w3.org/Graphics/SVG/1.1/DTD/svg11.dtd">
<!-- Generated by graphviz version 2.38.0 (20140413.2041)
 -->
<!-- Title: NetApp Filer Alert Definitions/NetApp&#45;Volume/Read IO Rate Pages: 1 -->
<svg width="836pt" height="272pt"
 viewBox="0.00 0.00 836.14 272.00" xmlns="http://www.w3.org/2000/svg" xmlns:xlink="http://www.w3.org/1999/xlink">
<g id="${uniqueid}" class="graph" transform="scale(1 1) rotate(0) translate(4 268)">
<title>NetApp Filer Alert Definitions/NetApp&#45;Volume/Read IO Rate</title>
<polygon fill="white" stroke="none" points="-4,4 -4,-268 832.139,-268 832.139,4 -4,4"/>
<!-- Vol ReadIORate
CRIT check -->
<g id="${uniqueid}_node1" class="node"><title>Vol ReadIORate
CRIT check</title>
<g id="a_${uniqueid}_node1"><a xlink:href="#193272869288932" xlink:title="com.watch4net.alerting.operation.comparator.ConstantComparatorOperation">
<polygon fill="#ff7f00" stroke="black" points="469.392,-264 340.392,-226 469.392,-188 598.392,-226 469.392,-264"/>
<text text-anchor="middle" x="469.392" y="-229.8" font-family="Times,serif" font-size="14.00" fill="white">Vol ReadIORate</text>
<text text-anchor="middle" x="469.392" y="-214.8" font-family="Times,serif" font-size="14.00" fill="white">CRIT check</text>
</a>
</g>
</g>
<!-- Vol ReadIORate_
CRIT trap -->
<g id="${uniqueid}_node4" class="node"><title>Vol ReadIORate_
CRIT trap</title>
<g id="a_${uniqueid}_node4"><a xlink:href="#193272869301838" xlink:title="com.watch4net.alerting.action.SNMPTrapAction">
<ellipse fill="#4daf4a" stroke="black" cx="731.266" cy="-226" rx="96.7474" ry="26.7407"/>
<text text-anchor="middle" x="731.266" y="-229.8" font-family="Times,serif" font-size="14.00" fill="white">Vol ReadIORate_</text>
<text text-anchor="middle" x="731.266" y="-214.8" font-family="Times,serif" font-size="14.00" fill="white">CRIT trap</text>
</a>
</g>
</g>
<!-- Vol ReadIORate
CRIT check&#45;&gt;Vol ReadIORate_
CRIT trap -->
<g id="${uniqueid}_edge1" class="edge"><title>Vol ReadIORate
CRIT check:e&#45;&gt;Vol ReadIORate_
CRIT trap:w</title>
<path fill="none" stroke="black" d="M598.392,-226C610.392,-226 615.642,-226 624.267,-226"/>
<polygon fill="black" stroke="black" points="624.392,-229.5 634.392,-226 624.392,-222.5 624.392,-229.5"/>
<text text-anchor="middle" x="613.892" y="-214.8" font-family="Times,serif" font-size="14.00">true</text>
</g>
<!-- Vol ReadIORate
MAJ check -->
<g id="${uniqueid}_node2" class="node"><title>Vol ReadIORate
MAJ check</title>
<g id="a_${uniqueid}_node2"><a xlink:href="#193272869316422" xlink:title="com.watch4net.alerting.operation.comparator.ConstantComparatorOperation">
<polygon fill="#ff7f00" stroke="black" points="469.392,-170 340.392,-132 469.392,-94 598.392,-132 469.392,-170"/>
<text text-anchor="middle" x="469.392" y="-135.8" font-family="Times,serif" font-size="14.00" fill="white">Vol ReadIORate</text>
<text text-anchor="middle" x="469.392" y="-120.8" font-family="Times,serif" font-size="14.00" fill="white">MAJ check</text>
</a>
</g>
</g>
<!-- Vol ReadIORate_
Major trap -->
<g id="${uniqueid}_node5" class="node"><title>Vol ReadIORate_
Major trap</title>
<g id="a_${uniqueid}_node5"><a xlink:href="#193272869323239" xlink:title="com.watch4net.alerting.action.SNMPTrapAction">
<ellipse fill="#4daf4a" stroke="black" cx="731.266" cy="-132" rx="96.7474" ry="26.7407"/>
<text text-anchor="middle" x="731.266" y="-135.8" font-family="Times,serif" font-size="14.00" fill="white">Vol ReadIORate_</text>
<text text-anchor="middle" x="731.266" y="-120.8" font-family="Times,serif" font-size="14.00" fill="white">Major trap</text>
</a>
</g>
</g>
<!-- Vol ReadIORate
MAJ check&#45;&gt;Vol ReadIORate_
Major trap -->
<g id="${uniqueid}_edge2" class="edge"><title>Vol ReadIORate
MAJ check:e&#45;&gt;Vol ReadIORate_
Major trap:w</title>
<path fill="none" stroke="black" d="M598.392,-132C610.392,-132 615.642,-132 624.267,-132"/>
<polygon fill="black" stroke="black" points="624.392,-135.5 634.392,-132 624.392,-128.5 624.392,-135.5"/>
<text text-anchor="middle" x="613.892" y="-120.8" font-family="Times,serif" font-size="14.00">true</text>
</g>
<!-- Vol ReadIORate
MIN check -->
<g id="${uniqueid}_node3" class="node"><title>Vol ReadIORate
MIN check</title>
<g id="a_${uniqueid}_node3"><a xlink:href="#193272869347682" xlink:title="com.watch4net.alerting.operation.comparator.ConstantComparatorOperation">
<polygon fill="#ff7f00" stroke="black" points="469.392,-76 340.392,-38 469.392,-7.10543e-15 598.392,-38 469.392,-76"/>
<text text-anchor="middle" x="469.392" y="-41.8" font-family="Times,serif" font-size="14.00" fill="white">Vol ReadIORate</text>
<text text-anchor="middle" x="469.392" y="-26.8" font-family="Times,serif" font-size="14.00" fill="white">MIN check</text>
</a>
</g>
</g>
<!-- Vol ReadIORate_
Minor trap -->
<g id="${uniqueid}_node6" class="node"><title>Vol ReadIORate_
Minor trap</title>
<g id="a_${uniqueid}_node6"><a xlink:href="#193272869355750" xlink:title="com.watch4net.alerting.action.SNMPTrapAction">
<ellipse fill="#4daf4a" stroke="black" cx="731.266" cy="-38" rx="96.7474" ry="26.7407"/>
<text text-anchor="middle" x="731.266" y="-41.8" font-family="Times,serif" font-size="14.00" fill="white">Vol ReadIORate_</text>
<text text-anchor="middle" x="731.266" y="-26.8" font-family="Times,serif" font-size="14.00" fill="white">Minor trap</text>
</a>
</g>
</g>
<!-- Vol ReadIORate
MIN check&#45;&gt;Vol ReadIORate_
Minor trap -->
<g id="${uniqueid}_edge3" class="edge"><title>Vol ReadIORate
MIN check:e&#45;&gt;Vol ReadIORate_
Minor trap:w</title>
<path fill="none" stroke="black" d="M598.392,-38C610.392,-38 615.642,-38 624.267,-38"/>
<polygon fill="black" stroke="black" points="624.392,-41.5001 634.392,-38 624.392,-34.5001 624.392,-41.5001"/>
<text text-anchor="middle" x="613.892" y="-26.8" font-family="Times,serif" font-size="14.00">true</text>
</g>
<!-- Volume Read
IORate Entry -->
<g id="${uniqueid}_node7" class="node"><title>Volume Read
IORate Entry</title>
<g id="a_${uniqueid}_node7"><a xlink:href="#193272869252988" xlink:title="com.watch4net.alerting.operation.FilteredEntryPoint">
<ellipse fill="#984ea3" stroke="black" cx="79.196" cy="-132" rx="79.3924" ry="26.7407"/>
<text text-anchor="middle" x="79.196" y="-135.8" font-family="Times,serif" font-size="14.00" fill="white">Volume Read</text>
<text text-anchor="middle" x="79.196" y="-120.8" font-family="Times,serif" font-size="14.00" fill="white">IORate Entry</text>
</a>
</g>
</g>
<!-- Volume Read
IORate case -->
<g id="${uniqueid}_node8" class="node"><title>Volume Read
IORate case</title>
<g id="a_${uniqueid}_node8"><a xlink:href="#193272869282162" xlink:title="com.watch4net.alerting.operation.CaseOperation">
<polygon fill="#377eb8" stroke="black" points="304.392,-151 194.392,-151 194.392,-113 304.392,-113 304.392,-151"/>
<text text-anchor="middle" x="249.392" y="-135.8" font-family="Times,serif" font-size="14.00" fill="white">Volume Read</text>
<text text-anchor="middle" x="249.392" y="-120.8" font-family="Times,serif" font-size="14.00" fill="white">IORate case</text>
</a>
</g>
</g>
<!-- Volume Read
IORate Entry&#45;&gt;Volume Read
IORate case -->
<g id="${uniqueid}_edge4" class="edge"><title>Volume Read
IORate Entry:e&#45;&gt;Volume Read
IORate case:w</title>
<path fill="none" stroke="black" d="M158.392,-132C170.392,-132 175.642,-132 184.267,-132"/>
<polygon fill="black" stroke="black" points="184.392,-135.5 194.392,-132 184.392,-128.5 184.392,-135.5"/>
</g>
<!-- Volume Read
IORate case&#45;&gt;Vol ReadIORate
CRIT check -->
<g id="${uniqueid}_edge5" class="edge"><title>Volume Read
IORate case:e&#45;&gt;Vol ReadIORate
CRIT check:w</title>
<path fill="none" stroke="black" d="M304.392,-132C345.109,-132 304.471,-209.868 330.57,-223.86"/>
<polygon fill="black" stroke="black" points="329.876,-227.291 340.392,-226 331.366,-220.451 329.876,-227.291"/>
</g>
<!-- Volume Read
IORate case&#45;&gt;Vol ReadIORate
MAJ check -->
<g id="${uniqueid}_edge6" class="edge"><title>Volume Read
IORate case:e&#45;&gt;Vol ReadIORate
MAJ check:w</title>
<path fill="none" stroke="black" d="M304.392,-132C316.392,-132 321.642,-132 330.267,-132"/>
<polygon fill="black" stroke="black" points="330.392,-135.5 340.392,-132 330.392,-128.5 330.392,-135.5"/>
</g>
<!-- Volume Read
IORate case&#45;&gt;Vol ReadIORate
MIN check -->
<g id="${uniqueid}_edge7" class="edge"><title>Volume Read
IORate case:e&#45;&gt;Vol ReadIORate
MIN check:w</title>
<path fill="none" stroke="black" d="M304.392,-132C345.109,-132 304.471,-54.1319 330.57,-40.1399"/>
<polygon fill="black" stroke="black" points="331.366,-43.5486 340.392,-38 329.876,-36.709 331.366,-43.5486"/>
</g>
</g>
</svg>
