<?xml version="1.0" encoding="UTF-8" standalone="no"?>
<!DOCTYPE svg PUBLIC "-//W3C//DTD SVG 1.1//EN"
 "http://www.w3.org/Graphics/SVG/1.1/DTD/svg11.dtd">
<!-- Generated by graphviz version 2.38.0 (20140413.2041)
 -->
<!-- Title: EMC VMAX Alert Definitions/VMAX&#45;Devices/High Read Response Time Pages: 1 -->
<svg width="1092pt" height="422pt"
 viewBox="0.00 0.00 1092.33 422.00" xmlns="http://www.w3.org/2000/svg" xmlns:xlink="http://www.w3.org/1999/xlink">
<g id="${uniqueid}" class="graph" transform="scale(1 1) rotate(0) translate(4 418)">
<title>EMC VMAX Alert Definitions/VMAX&#45;Devices/High Read Response Time</title>
<polygon fill="white" stroke="none" points="-4,4 -4,-418 1088.33,-418 1088.33,4 -4,4"/>
<!-- Bronze lvl chk -->
<g id="${uniqueid}_node1" class="node"><title>Bronze lvl chk</title>
<g id="a_${uniqueid}_node1"><a xlink:href="#1416324250413" xlink:title="com.watch4net.alerting.operation.comparator.StringComparatorOperation">
<polygon fill="#ff7f00" stroke="black" points="506.251,-349 396.992,-331 506.251,-313 615.511,-331 506.251,-349"/>
<text text-anchor="middle" x="506.251" y="-327.3" font-family="Times,serif" font-size="14.00" fill="white">Bronze lvl chk</text>
</a>
</g>
</g>
<!-- Bronze_Maj_Chk -->
<g id="${uniqueid}_node3" class="node"><title>Bronze_Maj_Chk</title>
<g id="a_${uniqueid}_node3"><a xlink:href="#1416325443543" xlink:title="com.watch4net.alerting.operation.comparator.ConstantComparatorOperation">
<polygon fill="#ff7f00" stroke="black" points="793.181,-376 665.655,-358 793.181,-340 920.707,-358 793.181,-376"/>
<text text-anchor="middle" x="793.181" y="-354.3" font-family="Times,serif" font-size="14.00" fill="white">Bronze_Maj_Chk</text>
</a>
</g>
</g>
<!-- Bronze lvl chk&#45;&gt;Bronze_Maj_Chk -->
<g id="${uniqueid}_edge1" class="edge"><title>Bronze lvl chk:e&#45;&gt;Bronze_Maj_Chk:w</title>
<path fill="none" stroke="black" d="M616.251,-331C637.286,-331 640.079,-350.222 655.414,-356.228"/>
<polygon fill="black" stroke="black" points="654.961,-359.703 665.418,-358 656.182,-352.81 654.961,-359.703"/>
<text text-anchor="middle" x="631.751" y="-319.8" font-family="Times,serif" font-size="14.00">true</text>
</g>
<!-- Bronze_Clr -->
<g id="${uniqueid}_node2" class="node"><title>Bronze_Clr</title>
<g id="a_${uniqueid}_node2"><a xlink:href="#1416325775647" xlink:title="com.watch4net.alerting.action.SNMPTrapAction">
<ellipse fill="#4daf4a" stroke="black" cx="1020.64" cy="-396" rx="63.0888" ry="18"/>
<text text-anchor="middle" x="1020.64" y="-392.3" font-family="Times,serif" font-size="14.00" fill="white">Bronze_Clr</text>
</a>
</g>
</g>
<!-- Bronze_Maj_Chk&#45;&gt;Bronze_Clr -->
<g id="${uniqueid}_edge2" class="edge"><title>Bronze_Maj_Chk:ne&#45;&gt;Bronze_Clr:w</title>
<path fill="none" stroke="black" d="M808.181,-374C808.884,-374.703 808.373,-375.422 809.181,-376 860.243,-412.518 887.69,-397.798 946.773,-396.144"/>
<polygon fill="black" stroke="black" points="946.995,-399.641 956.944,-396 946.896,-392.642 946.995,-399.641"/>
<text text-anchor="middle" x="791.181" y="-377.8" font-family="Times,serif" font-size="14.00">false</text>
</g>
<!-- Bronze_Set -->
<g id="${uniqueid}_node4" class="node"><title>Bronze_Set</title>
<g id="a_${uniqueid}_node4"><a xlink:href="#1416325740149" xlink:title="com.watch4net.alerting.action.SNMPTrapAction">
<ellipse fill="#4daf4a" stroke="black" cx="1020.64" cy="-342" rx="63.8893" ry="18"/>
<text text-anchor="middle" x="1020.64" y="-338.3" font-family="Times,serif" font-size="14.00" fill="white">Bronze_Set</text>
</a>
</g>
</g>
<!-- Bronze_Maj_Chk&#45;&gt;Bronze_Set -->
<g id="${uniqueid}_edge3" class="edge"><title>Bronze_Maj_Chk:se&#45;&gt;Bronze_Set:w</title>
<path fill="none" stroke="black" d="M810.181,-342C853.872,-298.309 887.951,-337.392 946.868,-341.635"/>
<polygon fill="black" stroke="black" points="946.824,-345.136 956.944,-342 947.077,-338.141 946.824,-345.136"/>
<text text-anchor="middle" x="794.681" y="-330.8" font-family="Times,serif" font-size="14.00">true</text>
</g>
<!-- Case for service
level -->
<g id="${uniqueid}_node5" class="node"><title>Case for service
level</title>
<g id="a_${uniqueid}_node5"><a xlink:href="#1416323946767" xlink:title="com.watch4net.alerting.operation.CaseOperation">
<polygon fill="#377eb8" stroke="black" points="347.084,-242 214.084,-242 214.084,-204 347.084,-204 347.084,-242"/>
<text text-anchor="middle" x="280.584" y="-226.8" font-family="Times,serif" font-size="14.00" fill="white">Case for service</text>
<text text-anchor="middle" x="280.584" y="-211.8" font-family="Times,serif" font-size="14.00" fill="white">level</text>
</a>
</g>
</g>
<!-- Case for service
level&#45;&gt;Bronze lvl chk -->
<g id="${uniqueid}_edge4" class="edge"><title>Case for service
level:e&#45;&gt;Bronze lvl chk:w</title>
<path fill="none" stroke="black" d="M347.084,-223C395.91,-223 351.269,-315.564 386.221,-329.304"/>
<polygon fill="black" stroke="black" points="385.808,-332.783 396.251,-331 386.975,-325.881 385.808,-332.783"/>
</g>
<!-- Gold lvl chk -->
<g id="${uniqueid}_node6" class="node"><title>Gold lvl chk</title>
<g id="a_${uniqueid}_node6"><a xlink:href="#1416324123359" xlink:title="com.watch4net.alerting.operation.comparator.StringComparatorOperation">
<polygon fill="#ff7f00" stroke="black" points="506.251,-260 412.743,-242 506.251,-224 599.76,-242 506.251,-260"/>
<text text-anchor="middle" x="506.251" y="-238.3" font-family="Times,serif" font-size="14.00" fill="white">Gold lvl chk</text>
</a>
</g>
</g>
<!-- Case for service
level&#45;&gt;Gold lvl chk -->
<g id="${uniqueid}_edge5" class="edge"><title>Case for service
level:e&#45;&gt;Gold lvl chk:w</title>
<path fill="none" stroke="black" d="M347.084,-223C373.109,-223 379.947,-237.547 401.175,-241.184"/>
<polygon fill="black" stroke="black" points="401.001,-244.681 411.251,-242 401.567,-237.704 401.001,-244.681"/>
</g>
<!-- Platinum lvl chk -->
<g id="${uniqueid}_node14" class="node"><title>Platinum lvl chk</title>
<g id="a_${uniqueid}_node14"><a xlink:href="#1416324084650" xlink:title="com.watch4net.alerting.operation.comparator.StringComparatorOperation">
<polygon fill="#ff7f00" stroke="black" points="506.251,-198 382.917,-180 506.251,-162 629.586,-180 506.251,-198"/>
<text text-anchor="middle" x="506.251" y="-176.3" font-family="Times,serif" font-size="14.00" fill="white">Platinum lvl chk</text>
</a>
</g>
</g>
<!-- Case for service
level&#45;&gt;Platinum lvl chk -->
<g id="${uniqueid}_edge6" class="edge"><title>Case for service
level:e&#45;&gt;Platinum lvl chk:w</title>
<path fill="none" stroke="black" d="M347.084,-223C367.725,-223 361.775,-193.511 373.275,-183.374"/>
<polygon fill="black" stroke="black" points="374.766,-186.562 383.084,-180 372.49,-179.943 374.766,-186.562"/>
</g>
<!-- Silver lvl chk -->
<g id="${uniqueid}_node15" class="node"><title>Silver lvl chk</title>
<g id="a_${uniqueid}_node15"><a xlink:href="#1416324189681" xlink:title="com.watch4net.alerting.operation.comparator.StringComparatorOperation">
<polygon fill="#ff7f00" stroke="black" points="506.251,-117 405.037,-99 506.251,-81 607.466,-99 506.251,-117"/>
<text text-anchor="middle" x="506.251" y="-95.3" font-family="Times,serif" font-size="14.00" fill="white">Silver lvl chk</text>
</a>
</g>
</g>
<!-- Case for service
level&#45;&gt;Silver lvl chk -->
<g id="${uniqueid}_edge7" class="edge"><title>Case for service
level:e&#45;&gt;Silver lvl chk:w</title>
<path fill="none" stroke="black" d="M347.084,-223C403.977,-223 351.103,-114.016 394.275,-100.393"/>
<polygon fill="black" stroke="black" points="394.831,-103.849 404.251,-99 393.863,-96.9162 394.831,-103.849"/>
</g>
<!-- Gold_Maj_Chk -->
<g id="${uniqueid}_node8" class="node"><title>Gold_Maj_Chk</title>
<g id="a_${uniqueid}_node8"><a xlink:href="#1416325361755" xlink:title="com.watch4net.alerting.operation.comparator.ConstantComparatorOperation">
<polygon fill="#ff7f00" stroke="black" points="793.181,-268 680.907,-250 793.181,-232 905.456,-250 793.181,-268"/>
<text text-anchor="middle" x="793.181" y="-246.3" font-family="Times,serif" font-size="14.00" fill="white">Gold_Maj_Chk</text>
</a>
</g>
</g>
<!-- Gold lvl chk&#45;&gt;Gold_Maj_Chk -->
<g id="${uniqueid}_edge8" class="edge"><title>Gold lvl chk:e&#45;&gt;Gold_Maj_Chk:w</title>
<path fill="none" stroke="black" d="M601.251,-242C632.792,-242 642.849,-248.401 669.858,-249.752"/>
<polygon fill="black" stroke="black" points="670.1,-253.259 680.181,-250 670.268,-246.261 670.1,-253.259"/>
<text text-anchor="middle" x="616.751" y="-230.8" font-family="Times,serif" font-size="14.00">true</text>
</g>
<!-- Gold_Clr -->
<g id="${uniqueid}_node7" class="node"><title>Gold_Clr</title>
<g id="a_${uniqueid}_node7"><a xlink:href="#1416325572574" xlink:title="com.watch4net.alerting.action.SNMPTrapAction">
<ellipse fill="#4daf4a" stroke="black" cx="1020.64" cy="-288" rx="51.9908" ry="18"/>
<text text-anchor="middle" x="1020.64" y="-284.3" font-family="Times,serif" font-size="14.00" fill="white">Gold_Clr</text>
</a>
</g>
</g>
<!-- Gold_Maj_Chk&#45;&gt;Gold_Clr -->
<g id="${uniqueid}_edge9" class="edge"><title>Gold_Maj_Chk:ne&#45;&gt;Gold_Clr:w</title>
<path fill="none" stroke="black" d="M808.181,-266C808.884,-266.703 808.37,-267.426 809.181,-268 864.276,-307.03 893.701,-289.906 957.529,-288.141"/>
<polygon fill="black" stroke="black" points="957.688,-291.639 967.638,-288 957.591,-284.64 957.688,-291.639"/>
<text text-anchor="middle" x="791.181" y="-269.8" font-family="Times,serif" font-size="14.00">false</text>
</g>
<!-- Gold_Set -->
<g id="${uniqueid}_node9" class="node"><title>Gold_Set</title>
<g id="a_${uniqueid}_node9"><a xlink:href="#1416325529655" xlink:title="com.watch4net.alerting.action.SNMPTrapAction">
<ellipse fill="#4daf4a" stroke="black" cx="1020.64" cy="-234" rx="51.9908" ry="18"/>
<text text-anchor="middle" x="1020.64" y="-230.3" font-family="Times,serif" font-size="14.00" fill="white">Gold_Set</text>
</a>
</g>
</g>
<!-- Gold_Maj_Chk&#45;&gt;Gold_Set -->
<g id="${uniqueid}_edge10" class="edge"><title>Gold_Maj_Chk:se&#45;&gt;Gold_Set:w</title>
<path fill="none" stroke="black" d="M810.181,-234C857.249,-186.932 893.92,-229.404 957.611,-233.663"/>
<polygon fill="black" stroke="black" points="957.527,-237.162 967.638,-234 957.762,-230.166 957.527,-237.162"/>
<text text-anchor="middle" x="794.681" y="-222.8" font-family="Times,serif" font-size="14.00">true</text>
</g>
<!-- High_RRT_Filter -->
<g id="${uniqueid}_node10" class="node"><title>High_RRT_Filter</title>
<g id="a_${uniqueid}_node10"><a xlink:href="#1416323851977" xlink:title="com.watch4net.alerting.operation.FilteredEntryPoint">
<ellipse fill="#984ea3" stroke="black" cx="89.0421" cy="-223" rx="89.0842" ry="18"/>
<text text-anchor="middle" x="89.0421" y="-219.3" font-family="Times,serif" font-size="14.00" fill="white">High_RRT_Filter</text>
</a>
</g>
</g>
<!-- High_RRT_Filter&#45;&gt;Case for service
level -->
<g id="${uniqueid}_edge11" class="edge"><title>High_RRT_Filter:e&#45;&gt;Case for service
level:w</title>
<path fill="none" stroke="black" d="M178.084,-223C190.084,-223 195.334,-223 203.959,-223"/>
<polygon fill="black" stroke="black" points="204.084,-226.5 214.084,-223 204.084,-219.5 204.084,-226.5"/>
</g>
<!-- Plat_Clr -->
<g id="${uniqueid}_node11" class="node"><title>Plat_Clr</title>
<g id="a_${uniqueid}_node11"><a xlink:href="#1416325227850" xlink:title="com.watch4net.alerting.action.SNMPTrapAction">
<ellipse fill="#4daf4a" stroke="black" cx="1020.64" cy="-180" rx="48.9926" ry="18"/>
<text text-anchor="middle" x="1020.64" y="-176.3" font-family="Times,serif" font-size="14.00" fill="white">Plat_Clr</text>
</a>
</g>
</g>
<!-- Plat_Maj_Chk -->
<g id="${uniqueid}_node12" class="node"><title>Plat_Maj_Chk</title>
<g id="a_${uniqueid}_node12"><a xlink:href="#1416324340435" xlink:title="com.watch4net.alerting.operation.comparator.ConstantComparatorOperation">
<polygon fill="#ff7f00" stroke="black" points="793.181,-182 685.598,-164 793.181,-146 900.764,-164 793.181,-182"/>
<text text-anchor="middle" x="793.181" y="-160.3" font-family="Times,serif" font-size="14.00" fill="white">Plat_Maj_Chk</text>
</a>
</g>
</g>
<!-- Plat_Maj_Chk&#45;&gt;Plat_Clr -->
<g id="${uniqueid}_edge12" class="edge"><title>Plat_Maj_Chk:ne&#45;&gt;Plat_Clr:w</title>
<path fill="none" stroke="black" d="M808.181,-180C808.884,-180.703 808.336,-181.478 809.181,-182 843.79,-203.389 860.042,-182.582 900.723,-182 928.163,-181.608 937.416,-180.349 960.596,-180.06"/>
<polygon fill="black" stroke="black" points="960.659,-183.56 970.638,-180 960.618,-176.56 960.659,-183.56"/>
<text text-anchor="middle" x="791.181" y="-183.8" font-family="Times,serif" font-size="14.00">false</text>
</g>
<!-- Plat_Set -->
<g id="${uniqueid}_node13" class="node"><title>Plat_Set</title>
<g id="a_${uniqueid}_node13"><a xlink:href="#1416324610800" xlink:title="com.watch4net.alerting.action.SNMPTrapAction">
<ellipse fill="#4daf4a" stroke="black" cx="1020.64" cy="-126" rx="49.2915" ry="18"/>
<text text-anchor="middle" x="1020.64" y="-122.3" font-family="Times,serif" font-size="14.00" fill="white">Plat_Set</text>
</a>
</g>
</g>
<!-- Plat_Maj_Chk&#45;&gt;Plat_Set -->
<g id="${uniqueid}_edge13" class="edge"><title>Plat_Maj_Chk:se&#45;&gt;Plat_Set:w</title>
<path fill="none" stroke="black" d="M810.181,-148C858.298,-99.8828 894.42,-123.397 959.398,-125.808"/>
<polygon fill="black" stroke="black" points="959.575,-129.312 969.638,-126 959.706,-122.313 959.575,-129.312"/>
<text text-anchor="middle" x="794.681" y="-136.8" font-family="Times,serif" font-size="14.00">true</text>
</g>
<!-- Platinum lvl chk&#45;&gt;Plat_Maj_Chk -->
<g id="${uniqueid}_edge14" class="edge"><title>Platinum lvl chk:e&#45;&gt;Plat_Maj_Chk:w</title>
<path fill="none" stroke="black" d="M629.418,-180C651.011,-180 657.153,-168.397 674.159,-164.953"/>
<polygon fill="black" stroke="black" points="674.557,-168.431 684.181,-164 673.895,-161.462 674.557,-168.431"/>
<text text-anchor="middle" x="644.918" y="-168.8" font-family="Times,serif" font-size="14.00">true</text>
</g>
<!-- Silver_Maj_Chk -->
<g id="${uniqueid}_node17" class="node"><title>Silver_Maj_Chk</title>
<g id="a_${uniqueid}_node17"><a xlink:href="#1416325408209" xlink:title="com.watch4net.alerting.operation.comparator.ConstantComparatorOperation">
<polygon fill="#ff7f00" stroke="black" points="793.181,-74 673.7,-56 793.181,-38 912.662,-56 793.181,-74"/>
<text text-anchor="middle" x="793.181" y="-52.3" font-family="Times,serif" font-size="14.00" fill="white">Silver_Maj_Chk</text>
</a>
</g>
</g>
<!-- Silver lvl chk&#45;&gt;Silver_Maj_Chk -->
<g id="${uniqueid}_edge15" class="edge"><title>Silver lvl chk:e&#45;&gt;Silver_Maj_Chk:w</title>
<path fill="none" stroke="black" d="M608.251,-99C638.749,-99 638.471,-64.8918 662.236,-57.4307"/>
<polygon fill="black" stroke="black" points="662.782,-60.8884 672.181,-56 661.785,-53.9597 662.782,-60.8884"/>
<text text-anchor="middle" x="623.751" y="-87.8" font-family="Times,serif" font-size="14.00">true</text>
</g>
<!-- Silver_Clr -->
<g id="${uniqueid}_node16" class="node"><title>Silver_Clr</title>
<g id="a_${uniqueid}_node16"><a xlink:href="#1416325676881" xlink:title="com.watch4net.alerting.action.SNMPTrapAction">
<ellipse fill="#4daf4a" stroke="black" cx="1020.64" cy="-72" rx="57.3905" ry="18"/>
<text text-anchor="middle" x="1020.64" y="-68.3" font-family="Times,serif" font-size="14.00" fill="white">Silver_Clr</text>
</a>
</g>
</g>
<!-- Silver_Maj_Chk&#45;&gt;Silver_Clr -->
<g id="${uniqueid}_edge16" class="edge"><title>Silver_Maj_Chk:ne&#45;&gt;Silver_Clr:w</title>
<path fill="none" stroke="black" d="M808.181,-72C808.884,-72.7027 808.336,-73.4775 809.181,-74 848.308,-98.1814 866.685,-74.92 912.672,-74 931.073,-73.6319 938.022,-72.5019 952.489,-72.1243"/>
<polygon fill="black" stroke="black" points="952.682,-75.6223 962.638,-72 952.596,-68.6228 952.682,-75.6223"/>
<text text-anchor="middle" x="791.181" y="-75.8" font-family="Times,serif" font-size="14.00">false</text>
</g>
<!-- Silver_Set -->
<g id="${uniqueid}_node18" class="node"><title>Silver_Set</title>
<g id="a_${uniqueid}_node18"><a xlink:href="#1416325621451" xlink:title="com.watch4net.alerting.action.SNMPTrapAction">
<ellipse fill="#4daf4a" stroke="black" cx="1020.64" cy="-18" rx="57.6901" ry="18"/>
<text text-anchor="middle" x="1020.64" y="-14.3" font-family="Times,serif" font-size="14.00" fill="white">Silver_Set</text>
</a>
</g>
</g>
<!-- Silver_Maj_Chk&#45;&gt;Silver_Set -->
<g id="${uniqueid}_edge17" class="edge"><title>Silver_Maj_Chk:se&#45;&gt;Silver_Set:w</title>
<path fill="none" stroke="black" d="M810.181,-40C855.837,5.65546 889.996,-15.5408 951.523,-17.8112"/>
<polygon fill="black" stroke="black" points="951.575,-21.3127 961.638,-18 951.705,-14.3139 951.575,-21.3127"/>
<text text-anchor="middle" x="794.681" y="-28.8" font-family="Times,serif" font-size="14.00">true</text>
</g>
</g>
</svg>
