<?xml version="1.0" encoding="UTF-8" standalone="no"?>
<!DOCTYPE svg PUBLIC "-//W3C//DTD SVG 1.1//EN"
 "http://www.w3.org/Graphics/SVG/1.1/DTD/svg11.dtd">
<!-- Generated by graphviz version 2.38.0 (20140413.2041)
 -->
<!-- Title: Examples/Multiple Severities Comparator Pages: 1 -->
<svg width="738pt" height="332pt"
 viewBox="0.00 0.00 738.15 331.87" xmlns="http://www.w3.org/2000/svg" xmlns:xlink="http://www.w3.org/1999/xlink">
<g id="${uniqueid}" class="graph" transform="scale(1 1) rotate(0) translate(4 327.87)">
<title>Examples/Multiple Severities Comparator</title>
<polygon fill="white" stroke="none" points="-4,4 -4,-327.87 734.146,-327.87 734.146,4 -4,4"/>
<!-- Critical level -->
<g id="${uniqueid}_node1" class="node"><title>Critical level</title>
<g id="a_${uniqueid}_node1"><a xlink:href="#1264002013287" xlink:title="com.watch4net.alerting.operation.comparator.ConstantComparatorOperation">
<polygon fill="#ff7f00" stroke="black" points="418.473,-268 318.096,-250 418.473,-232 518.85,-250 418.473,-268"/>
<text text-anchor="middle" x="418.473" y="-246.3" font-family="Times,serif" font-size="14.00" fill="white">Critical level</text>
</a>
</g>
</g>
<!-- Log Critical
Clear -->
<g id="${uniqueid}_node3" class="node"><title>Log Critical
Clear</title>
<g id="a_${uniqueid}_node3"><a xlink:href="#1264003565352" xlink:title="com.watch4net.alerting.action.LogAction">
<ellipse fill="#4daf4a" stroke="black" cx="642.403" cy="-297" rx="72.25" ry="26.7407"/>
<text text-anchor="middle" x="642.403" y="-300.8" font-family="Times,serif" font-size="14.00" fill="white">Log Critical</text>
<text text-anchor="middle" x="642.403" y="-285.8" font-family="Times,serif" font-size="14.00" fill="white">Clear</text>
</a>
</g>
</g>
<!-- Critical level&#45;&gt;Log Critical
Clear -->
<g id="${uniqueid}_edge1" class="edge"><title>Critical level:ne&#45;&gt;Log Critical
Clear:w</title>
<path fill="none" stroke="black" d="M433.473,-266C434.176,-266.703 433.688,-267.391 434.473,-268 480.206,-303.451 505.145,-297.824 559.318,-297.073"/>
<polygon fill="black" stroke="black" points="559.429,-300.572 569.403,-297 559.378,-293.572 559.429,-300.572"/>
<text text-anchor="middle" x="416.473" y="-269.8" font-family="Times,serif" font-size="14.00">false</text>
</g>
<!-- Log Critical Set -->
<g id="${uniqueid}_node4" class="node"><title>Log Critical Set</title>
<g id="a_${uniqueid}_node4"><a xlink:href="#1264003239179" xlink:title="com.watch4net.alerting.action.LogAction">
<ellipse fill="#4daf4a" stroke="black" cx="642.403" cy="-234" rx="84.485" ry="18"/>
<text text-anchor="middle" x="642.403" y="-230.3" font-family="Times,serif" font-size="14.00" fill="white">Log Critical Set</text>
</a>
</g>
</g>
<!-- Critical level&#45;&gt;Log Critical Set -->
<g id="${uniqueid}_edge2" class="edge"><title>Critical level:se&#45;&gt;Log Critical Set:w</title>
<path fill="none" stroke="black" d="M435.473,-234C471.028,-198.445 498.859,-229.417 546.308,-233.557"/>
<polygon fill="black" stroke="black" points="546.259,-237.058 556.403,-234 546.567,-230.065 546.259,-237.058"/>
<text text-anchor="middle" x="419.973" y="-222.8" font-family="Times,serif" font-size="14.00">true</text>
</g>
<!-- CustomVariable -->
<g id="${uniqueid}_node2" class="node"><title>CustomVariable</title>
<g id="a_${uniqueid}_node2"><a xlink:href="#1264001803664" xlink:title="com.watch4net.alerting.operation.FilteredEntryPoint">
<ellipse fill="#984ea3" stroke="black" cx="85.1424" cy="-153" rx="85.2851" ry="18"/>
<text text-anchor="middle" x="85.1424" y="-149.3" font-family="Times,serif" font-size="14.00" fill="white">CustomVariable</text>
</a>
</g>
</g>
<!-- Severity
splitter -->
<g id="${uniqueid}_node11" class="node"><title>Severity
splitter</title>
<g id="a_${uniqueid}_node11"><a xlink:href="#1264001970897" xlink:title="com.watch4net.alerting.operation.CaseOperation">
<polygon fill="#377eb8" stroke="black" points="282.285,-172 206.285,-172 206.285,-134 282.285,-134 282.285,-172"/>
<text text-anchor="middle" x="244.285" y="-156.8" font-family="Times,serif" font-size="14.00" fill="white">Severity</text>
<text text-anchor="middle" x="244.285" y="-141.8" font-family="Times,serif" font-size="14.00" fill="white">splitter</text>
</a>
</g>
</g>
<!-- CustomVariable&#45;&gt;Severity
splitter -->
<g id="${uniqueid}_edge3" class="edge"><title>CustomVariable:e&#45;&gt;Severity
splitter:w</title>
<path fill="none" stroke="black" d="M170.285,-153C182.285,-153 187.535,-153 196.16,-153"/>
<polygon fill="black" stroke="black" points="196.285,-156.5 206.285,-153 196.285,-149.5 196.285,-156.5"/>
</g>
<!-- Log Major Clear -->
<g id="${uniqueid}_node5" class="node"><title>Log Major Clear</title>
<g id="a_${uniqueid}_node5"><a xlink:href="#1264003590087" xlink:title="com.watch4net.alerting.action.LogAction">
<ellipse fill="#4daf4a" stroke="black" cx="642.403" cy="-180" rx="87.1846" ry="18"/>
<text text-anchor="middle" x="642.403" y="-176.3" font-family="Times,serif" font-size="14.00" fill="white">Log Major Clear</text>
</a>
</g>
</g>
<!-- Log Major Set -->
<g id="${uniqueid}_node6" class="node"><title>Log Major Set</title>
<g id="a_${uniqueid}_node6"><a xlink:href="#1264003517822" xlink:title="com.watch4net.alerting.action.LogAction">
<ellipse fill="#4daf4a" stroke="black" cx="642.403" cy="-126" rx="77.1866" ry="18"/>
<text text-anchor="middle" x="642.403" y="-122.3" font-family="Times,serif" font-size="14.00" fill="white">Log Major Set</text>
</a>
</g>
</g>
<!-- Log Minor Clear -->
<g id="${uniqueid}_node7" class="node"><title>Log Minor Clear</title>
<g id="a_${uniqueid}_node7"><a xlink:href="#1264003616343" xlink:title="com.watch4net.alerting.action.LogAction">
<ellipse fill="#4daf4a" stroke="black" cx="642.403" cy="-72" rx="87.9851" ry="18"/>
<text text-anchor="middle" x="642.403" y="-68.3" font-family="Times,serif" font-size="14.00" fill="white">Log Minor Clear</text>
</a>
</g>
</g>
<!-- Log Minor Set -->
<g id="${uniqueid}_node8" class="node"><title>Log Minor Set</title>
<g id="a_${uniqueid}_node8"><a xlink:href="#1264003525903" xlink:title="com.watch4net.alerting.action.LogAction">
<ellipse fill="#4daf4a" stroke="black" cx="642.403" cy="-18" rx="77.1866" ry="18"/>
<text text-anchor="middle" x="642.403" y="-14.3" font-family="Times,serif" font-size="14.00" fill="white">Log Minor Set</text>
</a>
</g>
</g>
<!-- Major level -->
<g id="${uniqueid}_node9" class="node"><title>Major level</title>
<g id="a_${uniqueid}_node9"><a xlink:href="#1264002030313" xlink:title="com.watch4net.alerting.operation.comparator.ConstantComparatorOperation">
<polygon fill="#ff7f00" stroke="black" points="418.473,-171 328.318,-153 418.473,-135 508.628,-153 418.473,-171"/>
<text text-anchor="middle" x="418.473" y="-149.3" font-family="Times,serif" font-size="14.00" fill="white">Major level</text>
</a>
</g>
</g>
<!-- Major level&#45;&gt;Log Major Clear -->
<g id="${uniqueid}_edge4" class="edge"><title>Major level:ne&#45;&gt;Log Major Clear:w</title>
<path fill="none" stroke="black" d="M432.473,-168C433.467,-168.994 432.364,-170.137 433.473,-171 473.341,-202.043 497.41,-182.879 544.572,-180.28"/>
<polygon fill="black" stroke="black" points="544.762,-183.776 554.661,-180 544.568,-176.778 544.762,-183.776"/>
<text text-anchor="middle" x="415.473" y="-171.8" font-family="Times,serif" font-size="14.00">false</text>
</g>
<!-- Major level&#45;&gt;Log Major Set -->
<g id="${uniqueid}_edge5" class="edge"><title>Major level:se&#45;&gt;Log Major Set:w</title>
<path fill="none" stroke="black" d="M434.473,-138C472.703,-99.7699 502.101,-122.78 553.237,-125.706"/>
<polygon fill="black" stroke="black" points="553.306,-129.21 563.403,-126 553.509,-122.212 553.306,-129.21"/>
<text text-anchor="middle" x="418.973" y="-126.8" font-family="Times,serif" font-size="14.00">true</text>
</g>
<!-- Minor level -->
<g id="${uniqueid}_node10" class="node"><title>Minor level</title>
<g id="a_${uniqueid}_node10"><a xlink:href="#1264002047857" xlink:title="com.watch4net.alerting.operation.comparator.ConstantComparatorOperation">
<polygon fill="#ff7f00" stroke="black" points="418.473,-75 328.318,-57 418.473,-39 508.628,-57 418.473,-75"/>
<text text-anchor="middle" x="418.473" y="-53.3" font-family="Times,serif" font-size="14.00" fill="white">Minor level</text>
</a>
</g>
</g>
<!-- Minor level&#45;&gt;Log Minor Clear -->
<g id="${uniqueid}_edge6" class="edge"><title>Minor level:ne&#45;&gt;Log Minor Clear:w</title>
<path fill="none" stroke="black" d="M432.473,-72C433.467,-72.9938 432.333,-74.1782 433.473,-75 460.542,-94.5105 475.2,-76.0837 508.55,-75 525.228,-74.458 531.687,-72.8163 544.539,-72.2197"/>
<polygon fill="black" stroke="black" points="544.74,-75.7163 554.661,-72 544.588,-68.7179 544.74,-75.7163"/>
<text text-anchor="middle" x="415.473" y="-75.8" font-family="Times,serif" font-size="14.00">false</text>
</g>
<!-- Minor level&#45;&gt;Log Minor Set -->
<g id="${uniqueid}_edge7" class="edge"><title>Minor level:se&#45;&gt;Log Minor Set:w</title>
<path fill="none" stroke="black" d="M434.473,-42C473.193,-3.28051 501.51,-16.1296 553.125,-17.8275"/>
<polygon fill="black" stroke="black" points="553.346,-21.3316 563.403,-18 553.464,-14.3326 553.346,-21.3316"/>
<text text-anchor="middle" x="418.973" y="-30.8" font-family="Times,serif" font-size="14.00">true</text>
</g>
<!-- Severity
splitter&#45;&gt;Critical level -->
<g id="${uniqueid}_edge8" class="edge"><title>Severity
splitter:e&#45;&gt;Critical level:w</title>
<path fill="none" stroke="black" d="M282.285,-153C324.138,-153 281.534,-233.353 308.212,-247.792"/>
<polygon fill="black" stroke="black" points="307.767,-251.277 318.285,-250 309.266,-244.44 307.767,-251.277"/>
</g>
<!-- Severity
splitter&#45;&gt;Major level -->
<g id="${uniqueid}_edge9" class="edge"><title>Severity
splitter:e&#45;&gt;Major level:w</title>
<path fill="none" stroke="black" d="M282.285,-153C298.446,-153 304.854,-153 317.205,-153"/>
<polygon fill="black" stroke="black" points="317.473,-156.5 327.473,-153 317.473,-149.5 317.473,-156.5"/>
</g>
<!-- Severity
splitter&#45;&gt;Minor level -->
<g id="${uniqueid}_edge10" class="edge"><title>Severity
splitter:e&#45;&gt;Minor level:w</title>
<path fill="none" stroke="black" d="M282.285,-153C325.389,-153 288.048,-72.791 317.326,-59.0051"/>
<polygon fill="black" stroke="black" points="318.341,-62.3723 327.473,-57 316.984,-55.5051 318.341,-62.3723"/>
</g>
</g>
</svg>
