<?xml version="1.0" encoding="UTF-8" standalone="no"?>
<!DOCTYPE svg PUBLIC "-//W3C//DTD SVG 1.1//EN"
 "http://www.w3.org/Graphics/SVG/1.1/DTD/svg11.dtd">
<!-- Generated by graphviz version 2.38.0 (20140413.2041)
 -->
<!-- Title: EMC M&amp;R Health/Component error count Pages: 1 -->
<svg width="1141pt" height="406pt"
 viewBox="0.00 0.00 1140.92 405.87" xmlns="http://www.w3.org/2000/svg" xmlns:xlink="http://www.w3.org/1999/xlink">
<g id="${uniqueid}" class="graph" transform="scale(1 1) rotate(0) translate(4 401.87)">
<title>EMC M&amp;R Health/Component error count</title>
<polygon fill="white" stroke="none" points="-4,4 -4,-401.87 1136.92,-401.87 1136.92,4 -4,4"/>
<!-- Action
CLEARMajor -->
<g id="${uniqueid}_node1" class="node"><title>Action
CLEARMajor</title>
<g id="a_${uniqueid}_node1"><a xlink:href="#1564729107744488-266916950868546" xlink:title="com.watch4net.alerting.action.SNMPTrapAction">
<ellipse fill="#4daf4a" stroke="black" cx="1043.88" cy="-371" rx="65.1077" ry="26.7407"/>
<text text-anchor="middle" x="1043.88" y="-374.8" font-family="Times,serif" font-size="14.00" fill="white">Action</text>
<text text-anchor="middle" x="1043.88" y="-359.8" font-family="Times,serif" font-size="14.00" fill="white">CLEARMajor</text>
</a>
</g>
</g>
<!-- Action
CLEARMinor -->
<g id="${uniqueid}_node2" class="node"><title>Action
CLEARMinor</title>
<g id="a_${uniqueid}_node2"><a xlink:href="#1411675918690" xlink:title="com.watch4net.alerting.action.SNMPTrapAction">
<ellipse fill="#4daf4a" stroke="black" cx="1043.88" cy="-81" rx="65.1077" ry="26.7407"/>
<text text-anchor="middle" x="1043.88" y="-84.8" font-family="Times,serif" font-size="14.00" fill="white">Action</text>
<text text-anchor="middle" x="1043.88" y="-69.8" font-family="Times,serif" font-size="14.00" fill="white">CLEARMinor</text>
</a>
</g>
</g>
<!-- Action CLEARInfo -->
<g id="${uniqueid}_node3" class="node"><title>Action CLEARInfo</title>
<g id="a_${uniqueid}_node3"><a xlink:href="#1411675982386" xlink:title="com.watch4net.alerting.action.SNMPTrapAction">
<ellipse fill="#4daf4a" stroke="black" cx="1043.88" cy="-254" rx="89.0842" ry="18"/>
<text text-anchor="middle" x="1043.88" y="-250.3" font-family="Times,serif" font-size="14.00" fill="white">Action CLEARInfo</text>
</a>
</g>
</g>
<!-- Action SETInfo -->
<g id="${uniqueid}_node4" class="node"><title>Action SETInfo</title>
<g id="a_${uniqueid}_node4"><a xlink:href="#1411675951507" xlink:title="com.watch4net.alerting.action.SNMPTrapAction">
<ellipse fill="#4daf4a" stroke="black" cx="1043.88" cy="-144" rx="79.0865" ry="18"/>
<text text-anchor="middle" x="1043.88" y="-140.3" font-family="Times,serif" font-size="14.00" fill="white">Action SETInfo</text>
</a>
</g>
</g>
<!-- Action SETMajor -->
<g id="${uniqueid}_node5" class="node"><title>Action SETMajor</title>
<g id="a_${uniqueid}_node5"><a xlink:href="#1564729107792488-266916950807993" xlink:title="com.watch4net.alerting.action.SNMPTrapAction">
<ellipse fill="#4daf4a" stroke="black" cx="1043.88" cy="-308" rx="83.6854" ry="18"/>
<text text-anchor="middle" x="1043.88" y="-304.3" font-family="Times,serif" font-size="14.00" fill="white">Action SETMajor</text>
</a>
</g>
</g>
<!-- Action SETMinor -->
<g id="${uniqueid}_node6" class="node"><title>Action SETMinor</title>
<g id="a_${uniqueid}_node6"><a xlink:href="#1411675875008" xlink:title="com.watch4net.alerting.action.SNMPTrapAction">
<ellipse fill="#4daf4a" stroke="black" cx="1043.88" cy="-18" rx="83.6854" ry="18"/>
<text text-anchor="middle" x="1043.88" y="-14.3" font-family="Times,serif" font-size="14.00" fill="white">Action SETMinor</text>
</a>
</g>
</g>
<!-- Custom post&#45;
filter -->
<g id="${uniqueid}_node7" class="node"><title>Custom post&#45;
filter</title>
<g id="a_${uniqueid}_node7"><a xlink:href="#1436289080684" xlink:title="1435689668905">
<polygon fill="#e41a1c" stroke="black" points="1097.38,-218 990.377,-218 990.377,-180 1097.38,-180 1097.38,-218"/>
<text text-anchor="middle" x="1043.88" y="-202.8" font-family="Times,serif" font-size="14.00" fill="white">Custom post&#45;</text>
<text text-anchor="middle" x="1043.88" y="-187.8" font-family="Times,serif" font-size="14.00" fill="white">filter</text>
</a>
</g>
</g>
<!-- Custom pre&#45;
filter -->
<g id="${uniqueid}_node8" class="node"><title>Custom pre&#45;
filter</title>
<g id="a_${uniqueid}_node8"><a xlink:href="#1436289069284" xlink:title="1435689654812">
<polygon fill="#e41a1c" stroke="black" points="224.692,-218 125.692,-218 125.692,-180 224.692,-180 224.692,-218"/>
<text text-anchor="middle" x="175.192" y="-202.8" font-family="Times,serif" font-size="14.00" fill="white">Custom pre&#45;</text>
<text text-anchor="middle" x="175.192" y="-187.8" font-family="Times,serif" font-size="14.00" fill="white">filter</text>
</a>
</g>
</g>
<!-- Refine -->
<g id="${uniqueid}_node11" class="node"><title>Refine</title>
<g id="a_${uniqueid}_node11"><a xlink:href="#1428003695325" xlink:title="com.watch4net.alerting.operation.RefineFilterOperation">
<polygon fill="#377eb8" stroke="black" points="322.692,-217 260.692,-217 260.692,-181 322.692,-181 322.692,-217"/>
<text text-anchor="middle" x="291.692" y="-195.3" font-family="Times,serif" font-size="14.00" fill="white">Refine</text>
</a>
</g>
</g>
<!-- Custom pre&#45;
filter&#45;&gt;Refine -->
<g id="${uniqueid}_edge1" class="edge"><title>Custom pre&#45;
filter:e&#45;&gt;Refine:w</title>
<path fill="none" stroke="black" d="M224.692,-199C236.692,-199 241.942,-199 250.567,-199"/>
<polygon fill="black" stroke="black" points="250.692,-202.5 260.692,-199 250.692,-195.5 250.692,-202.5"/>
</g>
<!-- Filter1 -->
<g id="${uniqueid}_node9" class="node"><title>Filter1</title>
<g id="a_${uniqueid}_node9"><a xlink:href="#1564729107475488" xlink:title="com.watch4net.alerting.operation.FilteredEntryPoint">
<ellipse fill="#984ea3" stroke="black" cx="44.846" cy="-226" rx="44.6926" ry="18"/>
<text text-anchor="middle" x="44.846" y="-222.3" font-family="Times,serif" font-size="14.00" fill="white">Filter1</text>
</a>
</g>
</g>
<!-- Filter1&#45;&gt;Custom pre&#45;
filter -->
<g id="${uniqueid}_edge2" class="edge"><title>Filter1:e&#45;&gt;Custom pre&#45;
filter:w</title>
<path fill="none" stroke="black" d="M89.692,-226C105.63,-226 106.327,-208.855 116.073,-201.889"/>
<polygon fill="black" stroke="black" points="117.122,-205.229 125.692,-199 115.108,-198.525 117.122,-205.229"/>
</g>
<!-- Filter2 -->
<g id="${uniqueid}_node10" class="node"><title>Filter2</title>
<g id="a_${uniqueid}_node10"><a xlink:href="#1406658761272" xlink:title="com.watch4net.alerting.operation.FilteredEntryPoint">
<ellipse fill="#984ea3" stroke="black" cx="44.846" cy="-172" rx="44.6926" ry="18"/>
<text text-anchor="middle" x="44.846" y="-168.3" font-family="Times,serif" font-size="14.00" fill="white">Filter2</text>
</a>
</g>
</g>
<!-- Filter2&#45;&gt;Custom pre&#45;
filter -->
<g id="${uniqueid}_edge3" class="edge"><title>Filter2:e&#45;&gt;Custom pre&#45;
filter:w</title>
<path fill="none" stroke="black" d="M89.692,-172C105.63,-172 106.327,-189.145 116.073,-196.111"/>
<polygon fill="black" stroke="black" points="115.108,-199.475 125.692,-199 117.122,-192.771 115.108,-199.475"/>
</g>
<!-- Sum -->
<g id="${uniqueid}_node12" class="node"><title>Sum</title>
<g id="a_${uniqueid}_node12"><a xlink:href="#1406658497443" xlink:title="com.watch4net.alerting.operation.arithmetic.DataArithmeticOperation">
<polygon fill="#377eb8" stroke="black" points="412.692,-217 358.692,-217 358.692,-181 412.692,-181 412.692,-217"/>
<text text-anchor="middle" x="385.692" y="-195.3" font-family="Times,serif" font-size="14.00" fill="white">Sum</text>
</a>
</g>
</g>
<!-- Refine&#45;&gt;Sum -->
<g id="${uniqueid}_edge4" class="edge"><title>Refine:e&#45;&gt;Sum:w</title>
<path fill="none" stroke="black" d="M322.692,-199C334.692,-199 339.942,-199 348.567,-199"/>
<polygon fill="black" stroke="black" points="348.692,-202.5 358.692,-199 348.692,-195.5 348.692,-202.5"/>
</g>
<!-- Wait3polling -->
<g id="${uniqueid}_node16" class="node"><title>Wait3polling</title>
<g id="a_${uniqueid}_node16"><a xlink:href="#1427984481780" xlink:title="com.watch4net.alerting.operation.window.HistoryOperation">
<polygon fill="#377eb8" stroke="black" points="555.692,-217 448.692,-217 448.692,-181 555.692,-181 555.692,-217"/>
<text text-anchor="middle" x="502.192" y="-195.3" font-family="Times,serif" font-size="14.00" fill="white">Wait3polling</text>
</a>
</g>
</g>
<!-- Sum&#45;&gt;Wait3polling -->
<g id="${uniqueid}_edge5" class="edge"><title>Sum:e&#45;&gt;Wait3polling:w</title>
<path fill="none" stroke="black" d="M412.692,-199C424.692,-199 429.942,-199 438.567,-199"/>
<polygon fill="black" stroke="black" points="438.692,-202.5 448.692,-199 438.692,-195.5 438.692,-202.5"/>
</g>
<!-- Threshold info -->
<g id="${uniqueid}_node13" class="node"><title>Threshold info</title>
<g id="a_${uniqueid}_node13"><a xlink:href="#1411675938191" xlink:title="com.watch4net.alerting.operation.comparator.ConstantComparatorOperation">
<polygon fill="#ff7f00" stroke="black" points="800.263,-217 687.989,-199 800.263,-181 912.538,-199 800.263,-217"/>
<text text-anchor="middle" x="800.263" y="-195.3" font-family="Times,serif" font-size="14.00" fill="white">Threshold info</text>
</a>
</g>
</g>
<!-- Threshold info&#45;&gt;Action CLEARInfo -->
<g id="${uniqueid}_edge6" class="edge"><title>Threshold info:ne&#45;&gt;Action CLEARInfo:w</title>
<path fill="none" stroke="black" d="M815.263,-215C815.966,-215.703 815.442,-216.441 816.263,-217 835.182,-229.869 897.537,-217.635 918.835,-226 933.869,-231.905 934.931,-246.179 944.999,-251.734"/>
<polygon fill="black" stroke="black" points="944.304,-255.166 954.835,-254 945.875,-248.345 944.304,-255.166"/>
<text text-anchor="middle" x="796.263" y="-218.8" font-family="Times,serif" font-size="14.00">false</text>
</g>
<!-- Threshold info&#45;&gt;Action SETInfo -->
<g id="${uniqueid}_edge8" class="edge"><title>Threshold info:se&#45;&gt;Action SETInfo:w</title>
<path fill="none" stroke="black" d="M817.263,-183C833.317,-166.946 897.409,-179.509 918.835,-172 936.962,-165.647 939.363,-150.614 952.825,-145.634"/>
<polygon fill="black" stroke="black" points="953.568,-149.059 962.877,-144 952.445,-142.15 953.568,-149.059"/>
<text text-anchor="middle" x="801.763" y="-171.8" font-family="Times,serif" font-size="14.00">true</text>
</g>
<!-- Threshold info&#45;&gt;Custom post&#45;
filter -->
<g id="${uniqueid}_edge7" class="edge"><title>Threshold info:ne&#45;&gt;Custom post&#45;
filter:sw</title>
<path fill="none" stroke="black" d="M815.263,-215C815.966,-215.703 815.418,-216.478 816.263,-217 834.436,-228.232 891.559,-221.694 912.401,-217 946.402,-209.342 961.123,-163.732 983.57,-173.917"/>
<polygon fill="black" stroke="black" points="981.741,-176.915 991.877,-180 985.877,-171.268 981.741,-176.915"/>
<text text-anchor="middle" x="920.377" y="-168.8" font-family="Times,serif" font-size="14.00">1435689620024|entry</text>
</g>
<!-- Threshold info&#45;&gt;Custom post&#45;
filter -->
<g id="${uniqueid}_edge9" class="edge"><title>Threshold info:se&#45;&gt;Custom post&#45;
filter:nw</title>
<path fill="none" stroke="black" d="M817.263,-183C842.56,-157.703 942.708,-231.018 980.87,-222.67"/>
<polygon fill="black" stroke="black" points="982.61,-225.71 989.877,-218 979.388,-219.496 982.61,-225.71"/>
<text text-anchor="middle" x="918.377" y="-221.8" font-family="Times,serif" font-size="14.00">1435689616003|entry</text>
</g>
<!-- Threshold minor -->
<g id="${uniqueid}_node14" class="node"><title>Threshold minor</title>
<g id="a_${uniqueid}_node14"><a xlink:href="#1411675845025" xlink:title="com.watch4net.alerting.operation.comparator.ConstantComparatorOperation">
<polygon fill="#ff7f00" stroke="black" points="800.263,-163 681.621,-145 800.263,-127 918.906,-145 800.263,-163"/>
<text text-anchor="middle" x="800.263" y="-141.3" font-family="Times,serif" font-size="14.00" fill="white">Threshold minor</text>
</a>
</g>
</g>
<!-- Threshold minor&#45;&gt;Action
CLEARMinor -->
<g id="${uniqueid}_edge10" class="edge"><title>Threshold minor:ne&#45;&gt;Action
CLEARMinor:w</title>
<path fill="none" stroke="black" d="M815.263,-161C815.966,-161.703 815.418,-162.478 816.263,-163 835.653,-174.983 898.548,-173.392 918.835,-163 955.37,-144.286 936.923,-91.2717 967.779,-82.2981"/>
<polygon fill="black" stroke="black" points="968.405,-85.7466 977.877,-81 967.512,-78.8037 968.405,-85.7466"/>
<text text-anchor="middle" x="834.263" y="-164.8" font-family="Times,serif" font-size="14.00">false</text>
</g>
<!-- Threshold minor&#45;&gt;Action SETMinor -->
<g id="${uniqueid}_edge12" class="edge"><title>Threshold minor:se&#45;&gt;Action SETMinor:w</title>
<path fill="none" stroke="black" d="M817.263,-129C871.27,-74.9932 878.345,-22.8965 948.541,-18.3249"/>
<polygon fill="black" stroke="black" points="948.992,-21.8126 958.877,-18 948.772,-14.816 948.992,-21.8126"/>
<text text-anchor="middle" x="801.763" y="-117.8" font-family="Times,serif" font-size="14.00">true</text>
</g>
<!-- Threshold minor&#45;&gt;Custom post&#45;
filter -->
<g id="${uniqueid}_edge11" class="edge"><title>Threshold minor:ne&#45;&gt;Custom post&#45;
filter:sw</title>
<path fill="none" stroke="black" d="M815.263,-161C815.966,-161.703 815.444,-162.437 816.263,-163 830.592,-172.841 946.69,-167.697 982.474,-176.07"/>
<polygon fill="black" stroke="black" points="981.3,-179.373 991.877,-180 984,-172.914 981.3,-179.373"/>
</g>
<!-- Threshold minor&#45;&gt;Custom post&#45;
filter -->
<g id="${uniqueid}_edge13" class="edge"><title>Threshold minor:se&#45;&gt;Custom post&#45;
filter:nw</title>
<path fill="none" stroke="black" d="M817.263,-129C851.927,-94.3366 875.525,-149.036 918.835,-172 948.432,-187.694 960.563,-233.019 981.652,-223.955"/>
<polygon fill="black" stroke="black" points="983.83,-226.7 989.877,-218 979.724,-221.03 983.83,-226.7"/>
</g>
<!-- ThresholdMajor -->
<g id="${uniqueid}_node15" class="node"><title>ThresholdMajor</title>
<g id="a_${uniqueid}_node15"><a xlink:href="#1564729107665488" xlink:title="com.watch4net.alerting.operation.comparator.ConstantComparatorOperation">
<polygon fill="#ff7f00" stroke="black" points="800.263,-271 687.989,-253 800.263,-235 912.538,-253 800.263,-271"/>
<text text-anchor="middle" x="800.263" y="-249.3" font-family="Times,serif" font-size="14.00" fill="white">ThresholdMajor</text>
</a>
</g>
</g>
<!-- ThresholdMajor&#45;&gt;Action
CLEARMajor -->
<g id="${uniqueid}_edge14" class="edge"><title>ThresholdMajor:ne&#45;&gt;Action
CLEARMajor:w</title>
<path fill="none" stroke="black" d="M815.263,-269C815.966,-269.703 815.593,-270.266 816.263,-271 870.892,-330.808 891.693,-367.871 967.801,-370.811"/>
<polygon fill="black" stroke="black" points="967.813,-374.312 977.877,-371 967.944,-367.313 967.813,-374.312"/>
<text text-anchor="middle" x="796.263" y="-272.8" font-family="Times,serif" font-size="14.00">false</text>
</g>
<!-- ThresholdMajor&#45;&gt;Action SETMajor -->
<g id="${uniqueid}_edge16" class="edge"><title>ThresholdMajor:se&#45;&gt;Action SETMajor:w</title>
<path fill="none" stroke="black" d="M817.263,-237C840.017,-214.247 910.081,-292.41 948.84,-306.013"/>
<polygon fill="black" stroke="black" points="948.387,-309.491 958.877,-308 949.747,-302.624 948.387,-309.491"/>
<text text-anchor="middle" x="832.763" y="-225.8" font-family="Times,serif" font-size="14.00">true</text>
</g>
<!-- ThresholdMajor&#45;&gt;Custom post&#45;
filter -->
<g id="${uniqueid}_edge15" class="edge"><title>ThresholdMajor:ne&#45;&gt;Custom post&#45;
filter:sw</title>
<path fill="none" stroke="black" d="M815.263,-269C815.966,-269.703 815.418,-270.478 816.263,-271 852.61,-293.463 873.583,-288.857 912.401,-271 957.373,-250.312 954.702,-158.162 983.758,-173.638"/>
<polygon fill="black" stroke="black" points="981.847,-176.587 991.877,-180 986.164,-171.077 981.847,-176.587"/>
</g>
<!-- ThresholdMajor&#45;&gt;Custom post&#45;
filter -->
<g id="${uniqueid}_edge17" class="edge"><title>ThresholdMajor:se&#45;&gt;Custom post&#45;
filter:nw</title>
<path fill="none" stroke="black" d="M817.263,-237C829.361,-224.902 944.997,-230.048 980.553,-221.856"/>
<polygon fill="black" stroke="black" points="981.974,-225.056 989.877,-218 979.298,-218.588 981.974,-225.056"/>
</g>
<!-- case -->
<g id="${uniqueid}_node17" class="node"><title>case</title>
<g id="a_${uniqueid}_node17"><a xlink:href="#1411675811611" xlink:title="com.watch4net.alerting.operation.CaseOperation">
<polygon fill="#377eb8" stroke="black" points="645.692,-217 591.692,-217 591.692,-181 645.692,-181 645.692,-217"/>
<text text-anchor="middle" x="618.692" y="-195.3" font-family="Times,serif" font-size="14.00" fill="white">case</text>
</a>
</g>
</g>
<!-- Wait3polling&#45;&gt;case -->
<g id="${uniqueid}_edge18" class="edge"><title>Wait3polling:e&#45;&gt;case:w</title>
<path fill="none" stroke="black" d="M555.692,-199C567.692,-199 572.942,-199 581.567,-199"/>
<polygon fill="black" stroke="black" points="581.692,-202.5 591.692,-199 581.692,-195.5 581.692,-202.5"/>
<text text-anchor="middle" x="578.692" y="-187.8" font-family="Times,serif" font-size="14.00">output</text>
</g>
<!-- case&#45;&gt;Threshold info -->
<g id="${uniqueid}_edge19" class="edge"><title>case:e&#45;&gt;Threshold info:w</title>
<path fill="none" stroke="black" d="M645.692,-199C660.271,-199 666.222,-199 677.161,-199"/>
<polygon fill="black" stroke="black" points="677.263,-202.5 687.263,-199 677.263,-195.5 677.263,-202.5"/>
</g>
<!-- case&#45;&gt;Threshold minor -->
<g id="${uniqueid}_edge20" class="edge"><title>case:e&#45;&gt;Threshold minor:w</title>
<path fill="none" stroke="black" d="M645.692,-199C670.255,-199 658.173,-159.841 671.857,-148.216"/>
<polygon fill="black" stroke="black" points="673.275,-151.435 681.692,-145 671.099,-144.782 673.275,-151.435"/>
</g>
<!-- case&#45;&gt;ThresholdMajor -->
<g id="${uniqueid}_edge21" class="edge"><title>case:e&#45;&gt;ThresholdMajor:w</title>
<path fill="none" stroke="black" d="M645.692,-199C671.957,-199 661.154,-239.609 677.573,-250.395"/>
<polygon fill="black" stroke="black" points="676.698,-253.784 687.263,-253 678.515,-247.024 676.698,-253.784"/>
</g>
</g>
</svg>
