<?xml version="1.0" encoding="UTF-8" standalone="no"?>
<!DOCTYPE svg PUBLIC "-//W3C//DTD SVG 1.1//EN"
 "http://www.w3.org/Graphics/SVG/1.1/DTD/svg11.dtd">
<!-- Generated by graphviz version 2.38.0 (20140413.2041)
 -->
<!-- Title: EMC Centera Alert Definitions/Centera&#45;System/Write Bandwidth Pages: 1 -->
<svg width="781pt" height="442pt"
 viewBox="0.00 0.00 781.29 442.35" xmlns="http://www.w3.org/2000/svg" xmlns:xlink="http://www.w3.org/1999/xlink">
<g id="${uniqueid}" class="graph" transform="scale(1 1) rotate(0) translate(4 438.347)">
<title>EMC Centera Alert Definitions/Centera&#45;System/Write Bandwidth</title>
<polygon fill="white" stroke="none" points="-4,4 -4,-438.347 777.285,-438.347 777.285,4 -4,4"/>
<!-- Critical level -->
<g id="${uniqueid}_node1" class="node"><title>Critical level</title>
<g id="a_${uniqueid}_node1"><a xlink:href="#940404102693880" xlink:title="com.watch4net.alerting.operation.comparator.ConstantComparatorOperation">
<polygon fill="#ff7f00" stroke="black" points="437.693,-348.87 337.316,-330.87 437.693,-312.87 538.069,-330.87 437.693,-348.87"/>
<text text-anchor="middle" x="437.693" y="-327.17" font-family="Times,serif" font-size="14.00" fill="white">Critical level</text>
</a>
</g>
</g>
<!-- WriteBandwidth_
Critical_trap -->
<g id="${uniqueid}_node7" class="node"><title>WriteBandwidth_
Critical_trap</title>
<g id="a_${uniqueid}_node7"><a xlink:href="#940404102712721" xlink:title="com.watch4net.alerting.action.SNMPTrapAction">
<ellipse fill="#4daf4a" stroke="black" cx="673.583" cy="-314.87" rx="99.9045" ry="26.7407"/>
<text text-anchor="middle" x="673.583" y="-318.67" font-family="Times,serif" font-size="14.00" fill="white">WriteBandwidth_</text>
<text text-anchor="middle" x="673.583" y="-303.67" font-family="Times,serif" font-size="14.00" fill="white">Critical_trap</text>
</a>
</g>
</g>
<!-- Critical level&#45;&gt;WriteBandwidth_
Critical_trap -->
<g id="${uniqueid}_edge2" class="edge"><title>Critical level:se&#45;&gt;WriteBandwidth_
Critical_trap:w</title>
<path fill="none" stroke="black" d="M454.693,-314.87C489.663,-279.9 517.051,-310.226 563.638,-314.407"/>
<polygon fill="black" stroke="black" points="563.733,-317.915 573.881,-314.87 564.049,-310.922 563.733,-317.915"/>
<text text-anchor="middle" x="439.193" y="-303.67" font-family="Times,serif" font-size="14.00">true</text>
</g>
<!-- WriteBandwidth_
Critical_trap_
clear -->
<g id="${uniqueid}_node8" class="node"><title>WriteBandwidth_
Critical_trap_
clear</title>
<g id="a_${uniqueid}_node8"><a xlink:href="#940404102734847" xlink:title="com.watch4net.alerting.action.SNMPTrapAction">
<ellipse fill="#4daf4a" stroke="black" cx="673.583" cy="-396.87" rx="99.9045" ry="37.4533"/>
<text text-anchor="middle" x="673.583" y="-408.17" font-family="Times,serif" font-size="14.00" fill="white">WriteBandwidth_</text>
<text text-anchor="middle" x="673.583" y="-393.17" font-family="Times,serif" font-size="14.00" fill="white">Critical_trap_</text>
<text text-anchor="middle" x="673.583" y="-378.17" font-family="Times,serif" font-size="14.00" fill="white">clear</text>
</a>
</g>
</g>
<!-- Critical level&#45;&gt;WriteBandwidth_
Critical_trap_
clear -->
<g id="${uniqueid}_edge1" class="edge"><title>Critical level:ne&#45;&gt;WriteBandwidth_
Critical_trap_
clear:w</title>
<path fill="none" stroke="black" d="M452.693,-346.87C453.395,-347.573 452.961,-348.197 453.693,-348.87 493.467,-385.448 513.819,-395.663 563.829,-396.766"/>
<polygon fill="black" stroke="black" points="563.845,-400.266 573.881,-396.87 563.918,-393.266 563.845,-400.266"/>
<text text-anchor="middle" x="435.693" y="-350.67" font-family="Times,serif" font-size="14.00">false</text>
</g>
<!-- Major level -->
<g id="${uniqueid}_node2" class="node"><title>Major level</title>
<g id="a_${uniqueid}_node2"><a xlink:href="#940404102747775" xlink:title="com.watch4net.alerting.operation.comparator.ConstantComparatorOperation">
<polygon fill="#ff7f00" stroke="black" points="437.693,-224.87 347.538,-206.87 437.693,-188.87 527.848,-206.87 437.693,-224.87"/>
<text text-anchor="middle" x="437.693" y="-203.17" font-family="Times,serif" font-size="14.00" fill="white">Major level</text>
</a>
</g>
</g>
<!-- ReadBandwidth_
major_trap_clear -->
<g id="${uniqueid}_node4" class="node"><title>ReadBandwidth_
major_trap_clear</title>
<g id="a_${uniqueid}_node4"><a xlink:href="#940404102775970" xlink:title="com.watch4net.alerting.action.SNMPTrapAction">
<ellipse fill="#4daf4a" stroke="black" cx="673.583" cy="-242.87" rx="98.0761" ry="26.7407"/>
<text text-anchor="middle" x="673.583" y="-246.67" font-family="Times,serif" font-size="14.00" fill="white">ReadBandwidth_</text>
<text text-anchor="middle" x="673.583" y="-231.67" font-family="Times,serif" font-size="14.00" fill="white">major_trap_clear</text>
</a>
</g>
</g>
<!-- Major level&#45;&gt;ReadBandwidth_
major_trap_clear -->
<g id="${uniqueid}_edge3" class="edge"><title>Major level:ne&#45;&gt;ReadBandwidth_
major_trap_clear:w</title>
<path fill="none" stroke="black" d="M451.693,-221.87C452.687,-222.864 451.616,-223.967 452.693,-224.87 491.948,-257.789 516.508,-244.868 564.351,-243.066"/>
<polygon fill="black" stroke="black" points="564.652,-246.561 574.583,-242.87 564.518,-239.562 564.652,-246.561"/>
<text text-anchor="middle" x="434.693" y="-225.67" font-family="Times,serif" font-size="14.00">false</text>
</g>
<!-- WriteBandwidth_
major_trap -->
<g id="${uniqueid}_node9" class="node"><title>WriteBandwidth_
major_trap</title>
<g id="a_${uniqueid}_node9"><a xlink:href="#940404102760622" xlink:title="com.watch4net.alerting.action.SNMPTrapAction">
<ellipse fill="#4daf4a" stroke="black" cx="673.583" cy="-170.87" rx="99.9045" ry="26.7407"/>
<text text-anchor="middle" x="673.583" y="-174.67" font-family="Times,serif" font-size="14.00" fill="white">WriteBandwidth_</text>
<text text-anchor="middle" x="673.583" y="-159.67" font-family="Times,serif" font-size="14.00" fill="white">major_trap</text>
</a>
</g>
</g>
<!-- Major level&#45;&gt;WriteBandwidth_
major_trap -->
<g id="${uniqueid}_edge4" class="edge"><title>Major level:se&#45;&gt;WriteBandwidth_
major_trap:w</title>
<path fill="none" stroke="black" d="M453.693,-191.87C489.565,-155.998 516.05,-168.866 563.717,-170.673"/>
<polygon fill="black" stroke="black" points="563.815,-174.176 573.881,-170.87 563.95,-167.177 563.815,-174.176"/>
<text text-anchor="middle" x="438.193" y="-180.67" font-family="Times,serif" font-size="14.00">true</text>
</g>
<!-- Minor level -->
<g id="${uniqueid}_node3" class="node"><title>Minor level</title>
<g id="a_${uniqueid}_node3"><a xlink:href="#940404102790673" xlink:title="com.watch4net.alerting.operation.comparator.ConstantComparatorOperation">
<polygon fill="#ff7f00" stroke="black" points="437.693,-101.87 347.538,-83.8701 437.693,-65.8701 527.848,-83.8701 437.693,-101.87"/>
<text text-anchor="middle" x="437.693" y="-80.1701" font-family="Times,serif" font-size="14.00" fill="white">Minor level</text>
</a>
</g>
</g>
<!-- WriteBandwidth_
minor_trap -->
<g id="${uniqueid}_node10" class="node"><title>WriteBandwidth_
minor_trap</title>
<g id="a_${uniqueid}_node10"><a xlink:href="#940404102802747" xlink:title="com.watch4net.alerting.action.SNMPTrapAction">
<ellipse fill="#4daf4a" stroke="black" cx="673.583" cy="-26.8701" rx="99.9045" ry="26.7407"/>
<text text-anchor="middle" x="673.583" y="-30.6701" font-family="Times,serif" font-size="14.00" fill="white">WriteBandwidth_</text>
<text text-anchor="middle" x="673.583" y="-15.6701" font-family="Times,serif" font-size="14.00" fill="white">minor_trap</text>
</a>
</g>
</g>
<!-- Minor level&#45;&gt;WriteBandwidth_
minor_trap -->
<g id="${uniqueid}_edge6" class="edge"><title>Minor level:se&#45;&gt;WriteBandwidth_
minor_trap:w</title>
<path fill="none" stroke="black" d="M453.693,-68.8701C491.203,-31.3594 514.283,-27.2672 563.646,-26.9022"/>
<polygon fill="black" stroke="black" points="563.892,-30.4015 573.881,-26.8701 563.87,-23.4015 563.892,-30.4015"/>
<text text-anchor="middle" x="438.193" y="-57.6701" font-family="Times,serif" font-size="14.00">true</text>
</g>
<!-- WriteBandwidth_
minor_trap_clear -->
<g id="${uniqueid}_node11" class="node"><title>WriteBandwidth_
minor_trap_clear</title>
<g id="a_${uniqueid}_node11"><a xlink:href="#940404102817423" xlink:title="com.watch4net.alerting.action.SNMPTrapAction">
<ellipse fill="#4daf4a" stroke="black" cx="673.583" cy="-98.8701" rx="99.9045" ry="26.7407"/>
<text text-anchor="middle" x="673.583" y="-102.67" font-family="Times,serif" font-size="14.00" fill="white">WriteBandwidth_</text>
<text text-anchor="middle" x="673.583" y="-87.6701" font-family="Times,serif" font-size="14.00" fill="white">minor_trap_clear</text>
</a>
</g>
</g>
<!-- Minor level&#45;&gt;WriteBandwidth_
minor_trap_clear -->
<g id="${uniqueid}_edge5" class="edge"><title>Minor level:ne&#45;&gt;WriteBandwidth_
minor_trap_clear:w</title>
<path fill="none" stroke="black" d="M451.693,-98.8701C452.687,-99.8639 451.553,-101.048 452.693,-101.87 479.762,-121.381 494.42,-102.954 527.77,-101.87 544.448,-101.328 550.907,-99.6864 563.758,-99.0898"/>
<polygon fill="black" stroke="black" points="563.959,-102.586 573.881,-98.8701 563.807,-95.588 563.959,-102.586"/>
<text text-anchor="middle" x="434.693" y="-102.67" font-family="Times,serif" font-size="14.00">false</text>
</g>
<!-- Severity
splitter -->
<g id="${uniqueid}_node5" class="node"><title>Severity
splitter</title>
<g id="a_${uniqueid}_node5"><a xlink:href="#940404102683951" xlink:title="com.watch4net.alerting.operation.CaseOperation">
<polygon fill="#377eb8" stroke="black" points="301.505,-225.87 225.505,-225.87 225.505,-187.87 301.505,-187.87 301.505,-225.87"/>
<text text-anchor="middle" x="263.505" y="-210.67" font-family="Times,serif" font-size="14.00" fill="white">Severity</text>
<text text-anchor="middle" x="263.505" y="-195.67" font-family="Times,serif" font-size="14.00" fill="white">splitter</text>
</a>
</g>
</g>
<!-- Severity
splitter&#45;&gt;Critical level -->
<g id="${uniqueid}_edge7" class="edge"><title>Severity
splitter:e&#45;&gt;Critical level:w</title>
<path fill="none" stroke="black" d="M301.505,-206.87C354.856,-206.87 290.522,-314.046 327.324,-329.117"/>
<polygon fill="black" stroke="black" points="327.056,-332.622 337.505,-330.87 328.244,-325.724 327.056,-332.622"/>
</g>
<!-- Severity
splitter&#45;&gt;Major level -->
<g id="${uniqueid}_edge8" class="edge"><title>Severity
splitter:e&#45;&gt;Major level:w</title>
<path fill="none" stroke="black" d="M301.505,-206.87C317.666,-206.87 324.073,-206.87 336.424,-206.87"/>
<polygon fill="black" stroke="black" points="336.693,-210.37 346.693,-206.87 336.693,-203.37 336.693,-210.37"/>
</g>
<!-- Severity
splitter&#45;&gt;Minor level -->
<g id="${uniqueid}_edge9" class="edge"><title>Severity
splitter:e&#45;&gt;Minor level:w</title>
<path fill="none" stroke="black" d="M301.505,-206.87C355.876,-206.87 297.351,-99.6636 336.728,-85.4252"/>
<polygon fill="black" stroke="black" points="337.352,-88.8703 346.693,-83.8701 336.273,-81.954 337.352,-88.8703"/>
</g>
<!-- WriteBandwidth
entry -->
<g id="${uniqueid}_node6" class="node"><title>WriteBandwidth
entry</title>
<g id="a_${uniqueid}_node6"><a xlink:href="#940404102637428" xlink:title="com.watch4net.alerting.operation.FilteredEntryPoint">
<ellipse fill="#984ea3" stroke="black" cx="94.7523" cy="-206.87" rx="94.5053" ry="26.7407"/>
<text text-anchor="middle" x="94.7523" y="-210.67" font-family="Times,serif" font-size="14.00" fill="white">WriteBandwidth</text>
<text text-anchor="middle" x="94.7523" y="-195.67" font-family="Times,serif" font-size="14.00" fill="white">entry</text>
</a>
</g>
</g>
<!-- WriteBandwidth
entry&#45;&gt;Severity
splitter -->
<g id="${uniqueid}_edge10" class="edge"><title>WriteBandwidth
entry:e&#45;&gt;Severity
splitter:w</title>
<path fill="none" stroke="black" d="M189.505,-206.87C201.505,-206.87 206.755,-206.87 215.38,-206.87"/>
<polygon fill="black" stroke="black" points="215.505,-210.37 225.505,-206.87 215.505,-203.37 215.505,-210.37"/>
</g>
</g>
</svg>
