<?xml version="1.0" encoding="UTF-8" standalone="no"?>
<!DOCTYPE svg PUBLIC "-//W3C//DTD SVG 1.1//EN"
 "http://www.w3.org/Graphics/SVG/1.1/DTD/svg11.dtd">
<!-- Generated by graphviz version 2.38.0 (20140413.2041)
 -->
<!-- Title: EMC Isilon Alert Definitions/Isilon DeletionFailure Pages: 1 -->
<svg width="674pt" height="84pt"
 viewBox="0.00 0.00 674.12 84.00" xmlns="http://www.w3.org/2000/svg" xmlns:xlink="http://www.w3.org/1999/xlink">
<g id="${uniqueid}" class="graph" transform="scale(1 1) rotate(0) translate(4 80)">
<title>EMC Isilon Alert Definitions/Isilon DeletionFailure</title>
<polygon fill="white" stroke="none" points="-4,4 -4,-80 670.119,-80 670.119,4 -4,4"/>
<!-- BlockDuplicate
Alerts -->
<g id="${uniqueid}_node1" class="node"><title>BlockDuplicate
Alerts</title>
<g id="a_${uniqueid}_node1"><a xlink:href="#1435173101421" xlink:title="com.watch4net.alerting.operation.comparator.StringComparatorOperation">
<polygon fill="#ff7f00" stroke="black" points="325.685,-76 203.685,-38 325.685,-7.10543e-15 447.685,-38 325.685,-76"/>
<text text-anchor="middle" x="325.685" y="-41.8" font-family="Times,serif" font-size="14.00" fill="white">BlockDuplicate</text>
<text text-anchor="middle" x="325.685" y="-26.8" font-family="Times,serif" font-size="14.00" fill="white">Alerts</text>
</a>
</g>
</g>
<!-- DeletionFailure
Set -->
<g id="${uniqueid}_node3" class="node"><title>DeletionFailure
Set</title>
<g id="a_${uniqueid}_node3"><a xlink:href="#1817363678385860" xlink:title="com.watch4net.alerting.action.SNMPTrapAction">
<ellipse fill="#4daf4a" stroke="black" cx="574.902" cy="-38" rx="91.4341" ry="26.7407"/>
<text text-anchor="middle" x="574.902" y="-41.8" font-family="Times,serif" font-size="14.00" fill="white">DeletionFailure</text>
<text text-anchor="middle" x="574.902" y="-26.8" font-family="Times,serif" font-size="14.00" fill="white">Set</text>
</a>
</g>
</g>
<!-- BlockDuplicate
Alerts&#45;&gt;DeletionFailure
Set -->
<g id="${uniqueid}_edge1" class="edge"><title>BlockDuplicate
Alerts:e&#45;&gt;DeletionFailure
Set:w</title>
<path fill="none" stroke="black" d="M447.685,-38C459.685,-38 464.935,-38 473.56,-38"/>
<polygon fill="black" stroke="black" points="473.685,-41.5001 483.685,-38 473.685,-34.5001 473.685,-41.5001"/>
<text text-anchor="middle" x="463.185" y="-26.8" font-family="Times,serif" font-size="14.00">true</text>
</g>
<!-- DeletionFailure -->
<g id="${uniqueid}_node2" class="node"><title>DeletionFailure</title>
<g id="a_${uniqueid}_node2"><a xlink:href="#1817363678332587" xlink:title="com.watch4net.alerting.operation.FilteredEntryPoint">
<ellipse fill="#984ea3" stroke="black" cx="83.8426" cy="-38" rx="83.6854" ry="18"/>
<text text-anchor="middle" x="83.8426" y="-34.3" font-family="Times,serif" font-size="14.00" fill="white">DeletionFailure</text>
</a>
</g>
</g>
<!-- DeletionFailure&#45;&gt;BlockDuplicate
Alerts -->
<g id="${uniqueid}_edge2" class="edge"><title>DeletionFailure:e&#45;&gt;BlockDuplicate
Alerts:w</title>
<path fill="none" stroke="black" d="M167.685,-38C179.685,-38 184.935,-38 193.56,-38"/>
<polygon fill="black" stroke="black" points="193.685,-41.5001 203.685,-38 193.685,-34.5001 193.685,-41.5001"/>
</g>
</g>
</svg>
