<?xml version="1.0" encoding="UTF-8" standalone="no"?>
<!DOCTYPE svg PUBLIC "-//W3C//DTD SVG 1.1//EN"
 "http://www.w3.org/Graphics/SVG/1.1/DTD/svg11.dtd">
<!-- Generated by graphviz version 2.38.0 (20140413.2041)
 -->
<!-- Title: EMC Isilon Alert Definitions/Isilon Restart Alert Pages: 1 -->
<svg width="533pt" height="84pt"
 viewBox="0.00 0.00 533.28 84.00" xmlns="http://www.w3.org/2000/svg" xmlns:xlink="http://www.w3.org/1999/xlink">
<g id="${uniqueid}" class="graph" transform="scale(1 1) rotate(0) translate(4 80)">
<title>EMC Isilon Alert Definitions/Isilon Restart Alert</title>
<polygon fill="white" stroke="none" points="-4,4 -4,-80 529.281,-80 529.281,4 -4,4"/>
<!-- BlockDuplicate
Alerts -->
<g id="${uniqueid}_node1" class="node"><title>BlockDuplicate
Alerts</title>
<g id="a_${uniqueid}_node1"><a xlink:href="#1435173189652" xlink:title="com.watch4net.alerting.operation.comparator.StringComparatorOperation">
<polygon fill="#ff7f00" stroke="black" points="247.692,-76 125.692,-38 247.692,-7.10543e-15 369.692,-38 247.692,-76"/>
<text text-anchor="middle" x="247.692" y="-41.8" font-family="Times,serif" font-size="14.00" fill="white">BlockDuplicate</text>
<text text-anchor="middle" x="247.692" y="-26.8" font-family="Times,serif" font-size="14.00" fill="white">Alerts</text>
</a>
</g>
</g>
<!-- RestartSet -->
<g id="${uniqueid}_node3" class="node"><title>RestartSet</title>
<g id="a_${uniqueid}_node3"><a xlink:href="#1821127350982765" xlink:title="com.watch4net.alerting.action.SNMPTrapAction">
<ellipse fill="#4daf4a" stroke="black" cx="465.487" cy="-38" rx="59.5901" ry="18"/>
<text text-anchor="middle" x="465.487" y="-34.3" font-family="Times,serif" font-size="14.00" fill="white">RestartSet</text>
</a>
</g>
</g>
<!-- BlockDuplicate
Alerts&#45;&gt;RestartSet -->
<g id="${uniqueid}_edge1" class="edge"><title>BlockDuplicate
Alerts:e&#45;&gt;RestartSet:w</title>
<path fill="none" stroke="black" d="M369.692,-38C381.692,-38 386.942,-38 395.567,-38"/>
<polygon fill="black" stroke="black" points="395.692,-41.5001 405.692,-38 395.692,-34.5001 395.692,-41.5001"/>
<text text-anchor="middle" x="385.192" y="-26.8" font-family="Times,serif" font-size="14.00">true</text>
</g>
<!-- Restart -->
<g id="${uniqueid}_node2" class="node"><title>Restart</title>
<g id="a_${uniqueid}_node2"><a xlink:href="#1821127350925432" xlink:title="com.watch4net.alerting.operation.FilteredEntryPoint">
<ellipse fill="#984ea3" stroke="black" cx="44.846" cy="-38" rx="44.6926" ry="18"/>
<text text-anchor="middle" x="44.846" y="-34.3" font-family="Times,serif" font-size="14.00" fill="white">Restart</text>
</a>
</g>
</g>
<!-- Restart&#45;&gt;BlockDuplicate
Alerts -->
<g id="${uniqueid}_edge2" class="edge"><title>Restart:e&#45;&gt;BlockDuplicate
Alerts:w</title>
<path fill="none" stroke="black" d="M89.692,-38C101.692,-38 106.942,-38 115.567,-38"/>
<polygon fill="black" stroke="black" points="115.692,-41.5001 125.692,-38 115.692,-34.5001 115.692,-41.5001"/>
</g>
</g>
</svg>
