<?xml version="1.0" encoding="UTF-8" standalone="no"?>
<!DOCTYPE svg PUBLIC "-//W3C//DTD SVG 1.1//EN"
 "http://www.w3.org/Graphics/SVG/1.1/DTD/svg11.dtd">
<!-- Generated by graphviz version 2.38.0 (20140413.2041)
 -->
<!-- Title: EMC VPLEX Alert Definitions/VPLEX&#45;Cluster/Operational Status Pages: 1 -->
<svg width="662pt" height="568pt"
 viewBox="0.00 0.00 661.65 567.74" xmlns="http://www.w3.org/2000/svg" xmlns:xlink="http://www.w3.org/1999/xlink">
<g id="${uniqueid}" class="graph" transform="scale(1 1) rotate(0) translate(4 563.74)">
<title>EMC VPLEX Alert Definitions/VPLEX&#45;Cluster/Operational Status</title>
<polygon fill="white" stroke="none" points="-4,4 -4,-563.74 657.648,-563.74 657.648,4 -4,4"/>
<!--  major clear
trap -->
<g id="${uniqueid}_node1" class="node"><title> major clear
trap</title>
<g id="a_${uniqueid}_node1"><a xlink:href="#679823931166851" xlink:title="com.watch4net.alerting.action.SNMPTrapAction">
<ellipse fill="#4daf4a" stroke="black" cx="561.017" cy="-368.87" rx="72.6644" ry="26.7407"/>
<text text-anchor="middle" x="561.017" y="-372.67" font-family="Times,serif" font-size="14.00" fill="white"> major clear</text>
<text text-anchor="middle" x="561.017" y="-357.67" font-family="Times,serif" font-size="14.00" fill="white">trap</text>
</a>
</g>
</g>
<!-- Critical -->
<g id="${uniqueid}_node2" class="node"><title>Critical</title>
<g id="a_${uniqueid}_node2"><a xlink:href="#679823931093386" xlink:title="com.watch4net.alerting.operation.comparator.ConstantComparatorOperation">
<polygon fill="#ff7f00" stroke="black" points="361.611,-482.87 296.589,-464.87 361.611,-446.87 426.632,-464.87 361.611,-482.87"/>
<text text-anchor="middle" x="361.611" y="-461.17" font-family="Times,serif" font-size="14.00" fill="white">Critical</text>
</a>
</g>
</g>
<!-- Critical Clear
Trap -->
<g id="${uniqueid}_node3" class="node"><title>Critical Clear
Trap</title>
<g id="a_${uniqueid}_node3"><a xlink:href="#679823931129647" xlink:title="com.watch4net.alerting.action.SNMPTrapAction">
<ellipse fill="#4daf4a" stroke="black" cx="561.017" cy="-532.87" rx="80.7205" ry="26.7407"/>
<text text-anchor="middle" x="561.017" y="-536.67" font-family="Times,serif" font-size="14.00" fill="white">Critical Clear</text>
<text text-anchor="middle" x="561.017" y="-521.67" font-family="Times,serif" font-size="14.00" fill="white">Trap</text>
</a>
</g>
</g>
<!-- Critical&#45;&gt;Critical Clear
Trap -->
<g id="${uniqueid}_edge1" class="edge"><title>Critical:ne&#45;&gt;Critical Clear
Trap:w</title>
<path fill="none" stroke="black" d="M374.611,-478.87C375.906,-480.166 374.455,-481.448 375.611,-482.87 405.615,-519.77 425.157,-531.313 468.967,-532.718"/>
<polygon fill="black" stroke="black" points="468.965,-536.219 479.017,-532.87 469.071,-529.219 468.965,-536.219"/>
<text text-anchor="middle" x="357.611" y="-482.67" font-family="Times,serif" font-size="14.00">false</text>
</g>
<!-- availability
critical alert
trap -->
<g id="${uniqueid}_node9" class="node"><title>availability
critical alert
trap</title>
<g id="a_${uniqueid}_node9"><a xlink:href="#679823931110138" xlink:title="com.watch4net.alerting.action.SNMPTrapAction">
<ellipse fill="#4daf4a" stroke="black" cx="561.017" cy="-450.87" rx="74.9067" ry="37.4533"/>
<text text-anchor="middle" x="561.017" y="-462.17" font-family="Times,serif" font-size="14.00" fill="white">availability</text>
<text text-anchor="middle" x="561.017" y="-447.17" font-family="Times,serif" font-size="14.00" fill="white">critical alert</text>
<text text-anchor="middle" x="561.017" y="-432.17" font-family="Times,serif" font-size="14.00" fill="white">trap</text>
</a>
</g>
</g>
<!-- Critical&#45;&gt;availability
critical alert
trap -->
<g id="${uniqueid}_edge2" class="edge"><title>Critical:se&#45;&gt;availability
critical alert
trap:w</title>
<path fill="none" stroke="black" d="M376.611,-450.87C408.217,-419.263 433.014,-446.302 474.905,-450.375"/>
<polygon fill="black" stroke="black" points="474.858,-453.877 485.017,-450.87 475.2,-446.885 474.858,-453.877"/>
<text text-anchor="middle" x="361.111" y="-439.67" font-family="Times,serif" font-size="14.00">true</text>
</g>
<!-- Major -->
<g id="${uniqueid}_node4" class="node"><title>Major</title>
<g id="a_${uniqueid}_node4"><a xlink:href="#679823931142480" xlink:title="com.watch4net.alerting.operation.comparator.ConstantComparatorOperation">
<polygon fill="#ff7f00" stroke="black" points="361.611,-337.87 307.149,-319.87 361.611,-301.87 416.072,-319.87 361.611,-337.87"/>
<text text-anchor="middle" x="361.611" y="-316.17" font-family="Times,serif" font-size="14.00" fill="white">Major</text>
</a>
</g>
</g>
<!-- Major&#45;&gt; major clear
trap -->
<g id="${uniqueid}_edge3" class="edge"><title>Major:ne&#45;&gt; major clear
trap:w</title>
<path fill="none" stroke="black" d="M374.611,-333.87C375.906,-335.166 374.332,-336.557 375.611,-337.87 409.018,-372.172 432.265,-369.466 476.846,-368.936"/>
<polygon fill="black" stroke="black" points="477.04,-372.435 487.017,-368.87 476.994,-365.435 477.04,-372.435"/>
<text text-anchor="middle" x="357.611" y="-337.67" font-family="Times,serif" font-size="14.00">false</text>
</g>
<!-- major alert trap -->
<g id="${uniqueid}_node13" class="node"><title>major alert trap</title>
<g id="a_${uniqueid}_node13"><a xlink:href="#679823931154867" xlink:title="com.watch4net.alerting.action.SNMPTrapAction">
<ellipse fill="#4daf4a" stroke="black" cx="561.017" cy="-305.87" rx="85.2851" ry="18"/>
<text text-anchor="middle" x="561.017" y="-302.17" font-family="Times,serif" font-size="14.00" fill="white">major alert trap</text>
</a>
</g>
</g>
<!-- Major&#45;&gt;major alert trap -->
<g id="${uniqueid}_edge4" class="edge"><title>Major:se&#45;&gt;major alert trap:w</title>
<path fill="none" stroke="black" d="M376.611,-305.87C404.711,-277.769 426.821,-301.26 463.748,-305.303"/>
<polygon fill="black" stroke="black" points="463.839,-308.813 474.017,-305.87 464.225,-301.824 463.839,-308.813"/>
<text text-anchor="middle" x="361.111" y="-294.67" font-family="Times,serif" font-size="14.00">true</text>
</g>
<!-- Minor -->
<g id="${uniqueid}_node5" class="node"><title>Minor</title>
<g id="a_${uniqueid}_node5"><a xlink:href="#679823931216099" xlink:title="com.watch4net.alerting.operation.comparator.ConstantComparatorOperation">
<polygon fill="#ff7f00" stroke="black" points="361.611,-246.87 306.311,-228.87 361.611,-210.87 416.91,-228.87 361.611,-246.87"/>
<text text-anchor="middle" x="361.611" y="-225.17" font-family="Times,serif" font-size="14.00" fill="white">Minor</text>
</a>
</g>
</g>
<!-- availability
info clear trap -->
<g id="${uniqueid}_node10" class="node"><title>availability
info clear trap</title>
<g id="a_${uniqueid}_node10"><a xlink:href="#679823931240003" xlink:title="com.watch4net.alerting.action.SNMPTrapAction">
<ellipse fill="#4daf4a" stroke="black" cx="561.017" cy="-242.87" rx="84.2917" ry="26.7407"/>
<text text-anchor="middle" x="561.017" y="-246.67" font-family="Times,serif" font-size="14.00" fill="white">availability</text>
<text text-anchor="middle" x="561.017" y="-231.67" font-family="Times,serif" font-size="14.00" fill="white">info clear trap</text>
</a>
</g>
</g>
<!-- Minor&#45;&gt;availability
info clear trap -->
<g id="${uniqueid}_edge5" class="edge"><title>Minor:ne&#45;&gt;availability
info clear trap:w</title>
<path fill="none" stroke="black" d="M374.611,-242.87C375.906,-244.166 374.166,-245.742 375.611,-246.87 380.526,-250.708 440.353,-245.222 465.91,-243.414"/>
<polygon fill="black" stroke="black" points="466.219,-246.902 476.017,-242.87 465.843,-239.912 466.219,-246.902"/>
<text text-anchor="middle" x="357.611" y="-246.67" font-family="Times,serif" font-size="14.00">false</text>
</g>
<!-- availability
minor alert trap -->
<g id="${uniqueid}_node11" class="node"><title>availability
minor alert trap</title>
<g id="a_${uniqueid}_node11"><a xlink:href="#679823931227205" xlink:title="com.watch4net.alerting.action.SNMPTrapAction">
<ellipse fill="#4daf4a" stroke="black" cx="561.017" cy="-170.87" rx="92.7622" ry="26.7407"/>
<text text-anchor="middle" x="561.017" y="-174.67" font-family="Times,serif" font-size="14.00" fill="white">availability</text>
<text text-anchor="middle" x="561.017" y="-159.67" font-family="Times,serif" font-size="14.00" fill="white">minor alert trap</text>
</a>
</g>
</g>
<!-- Minor&#45;&gt;availability
minor alert trap -->
<g id="${uniqueid}_edge6" class="edge"><title>Minor:se&#45;&gt;availability
minor alert trap:w</title>
<path fill="none" stroke="black" d="M376.611,-214.87C406.097,-185.383 420.771,-172.869 458.323,-171.094"/>
<polygon fill="black" stroke="black" points="458.466,-174.592 468.386,-170.87 458.31,-167.593 458.466,-174.592"/>
<text text-anchor="middle" x="361.111" y="-203.67" font-family="Times,serif" font-size="14.00">true</text>
</g>
<!-- Operational
Status -->
<g id="${uniqueid}_node6" class="node"><title>Operational
Status</title>
<g id="a_${uniqueid}_node6"><a xlink:href="#679823931035409" xlink:title="com.watch4net.alerting.operation.FilteredEntryPoint">
<ellipse fill="#984ea3" stroke="black" cx="71.4178" cy="-273.87" rx="71.3357" ry="26.7407"/>
<text text-anchor="middle" x="71.4178" y="-277.67" font-family="Times,serif" font-size="14.00" fill="white">Operational</text>
<text text-anchor="middle" x="71.4178" y="-262.67" font-family="Times,serif" font-size="14.00" fill="white">Status</text>
</a>
</g>
</g>
<!-- Severity -->
<g id="${uniqueid}_node7" class="node"><title>Severity</title>
<g id="a_${uniqueid}_node7"><a xlink:href="#679823931082859" xlink:title="com.watch4net.alerting.operation.CaseOperation">
<polygon fill="#377eb8" stroke="black" points="254.836,-291.87 178.836,-291.87 178.836,-255.87 254.836,-255.87 254.836,-291.87"/>
<text text-anchor="middle" x="216.836" y="-270.17" font-family="Times,serif" font-size="14.00" fill="white">Severity</text>
</a>
</g>
</g>
<!-- Operational
Status&#45;&gt;Severity -->
<g id="${uniqueid}_edge7" class="edge"><title>Operational
Status:e&#45;&gt;Severity:w</title>
<path fill="none" stroke="black" d="M142.836,-273.87C154.836,-273.87 160.086,-273.87 168.711,-273.87"/>
<polygon fill="black" stroke="black" points="168.836,-277.37 178.836,-273.87 168.836,-270.37 168.836,-277.37"/>
</g>
<!-- Severity&#45;&gt;Critical -->
<g id="${uniqueid}_edge8" class="edge"><title>Severity:e&#45;&gt;Critical:w</title>
<path fill="none" stroke="black" d="M254.836,-273.87C337.908,-273.87 219.818,-448.809 285.603,-463.842"/>
<polygon fill="black" stroke="black" points="285.305,-467.33 295.611,-464.87 286.021,-460.367 285.305,-467.33"/>
</g>
<!-- Severity&#45;&gt;Major -->
<g id="${uniqueid}_edge9" class="edge"><title>Severity:e&#45;&gt;Major:w</title>
<path fill="none" stroke="black" d="M254.836,-273.87C281.529,-273.87 277.714,-308.463 296.303,-317.651"/>
<polygon fill="black" stroke="black" points="296.098,-321.187 306.611,-319.87 297.571,-314.344 296.098,-321.187"/>
</g>
<!-- Severity&#45;&gt;Minor -->
<g id="${uniqueid}_edge10" class="edge"><title>Severity:e&#45;&gt;Minor:w</title>
<path fill="none" stroke="black" d="M254.836,-273.87C280.985,-273.87 277.289,-240.029 295.51,-231.041"/>
<polygon fill="black" stroke="black" points="296.569,-234.393 305.611,-228.87 295.099,-227.549 296.569,-234.393"/>
</g>
<!-- Warning -->
<g id="${uniqueid}_node8" class="node"><title>Warning</title>
<g id="a_${uniqueid}_node8"><a xlink:href="#679823931180459" xlink:title="com.watch4net.alerting.operation.comparator.ConstantComparatorOperation">
<polygon fill="#ff7f00" stroke="black" points="361.611,-102.87 291.06,-84.8701 361.611,-66.8701 432.162,-84.8701 361.611,-102.87"/>
<text text-anchor="middle" x="361.611" y="-81.1701" font-family="Times,serif" font-size="14.00" fill="white">Warning</text>
</a>
</g>
</g>
<!-- Severity&#45;&gt;Warning -->
<g id="${uniqueid}_edge11" class="edge"><title>Severity:e&#45;&gt;Warning:w</title>
<path fill="none" stroke="black" d="M254.836,-273.87C336.505,-273.87 217.011,-101.469 280.607,-85.98"/>
<polygon fill="black" stroke="black" points="281.272,-89.4285 290.836,-84.8701 280.516,-82.4693 281.272,-89.4285"/>
</g>
<!-- availability&#45;
warning&#45;trap -->
<g id="${uniqueid}_node12" class="node"><title>availability&#45;
warning&#45;trap</title>
<g id="a_${uniqueid}_node12"><a xlink:href="#679823931191799" xlink:title="com.watch4net.alerting.action.SNMPTrapAction">
<ellipse fill="#4daf4a" stroke="black" cx="561.017" cy="-26.8701" rx="77.5641" ry="26.7407"/>
<text text-anchor="middle" x="561.017" y="-30.6701" font-family="Times,serif" font-size="14.00" fill="white">availability&#45;</text>
<text text-anchor="middle" x="561.017" y="-15.6701" font-family="Times,serif" font-size="14.00" fill="white">warning&#45;trap</text>
</a>
</g>
</g>
<!-- Warning&#45;&gt;availability&#45;
warning&#45;trap -->
<g id="${uniqueid}_edge13" class="edge"><title>Warning:se&#45;&gt;availability&#45;
warning&#45;trap:w</title>
<path fill="none" stroke="black" d="M376.611,-70.8701C409.983,-37.4978 428.531,-28.1471 471.766,-26.9971"/>
<polygon fill="black" stroke="black" points="472.061,-30.4938 482.017,-26.8701 471.974,-23.4943 472.061,-30.4938"/>
<text text-anchor="middle" x="361.111" y="-59.6701" font-family="Times,serif" font-size="14.00">true</text>
</g>
<!-- warning clear
trap -->
<g id="${uniqueid}_node14" class="node"><title>warning clear
trap</title>
<g id="a_${uniqueid}_node14"><a xlink:href="#679823931204236" xlink:title="com.watch4net.alerting.action.SNMPTrapAction">
<ellipse fill="#4daf4a" stroke="black" cx="561.017" cy="-98.8701" rx="82.0488" ry="26.7407"/>
<text text-anchor="middle" x="561.017" y="-102.67" font-family="Times,serif" font-size="14.00" fill="white">warning clear</text>
<text text-anchor="middle" x="561.017" y="-87.6701" font-family="Times,serif" font-size="14.00" fill="white">trap</text>
</a>
</g>
</g>
<!-- Warning&#45;&gt;warning clear
trap -->
<g id="${uniqueid}_edge12" class="edge"><title>Warning:ne&#45;&gt;warning clear
trap:w</title>
<path fill="none" stroke="black" d="M374.611,-98.8701C375.906,-100.166 374.166,-101.742 375.611,-102.87 408.707,-128.711 429.103,-103.508 467.773,-99.4127"/>
<polygon fill="black" stroke="black" points="468.216,-102.894 478.017,-98.8701 467.846,-95.904 468.216,-102.894"/>
<text text-anchor="middle" x="357.611" y="-102.67" font-family="Times,serif" font-size="14.00">false</text>
</g>
</g>
</svg>
