<?xml version="1.0" encoding="UTF-8" standalone="no"?>
<!DOCTYPE svg PUBLIC "-//W3C//DTD SVG 1.1//EN"
 "http://www.w3.org/Graphics/SVG/1.1/DTD/svg11.dtd">
<!-- Generated by graphviz version 2.38.0 (20140413.2041)
 -->
<!-- Title: EMC VMAX Alert Definitions/VMAX&#45;FEDirectorByPort/High Bandwidth Pages: 1 -->
<svg width="905pt" height="371pt"
 viewBox="0.00 0.00 904.98 370.70" xmlns="http://www.w3.org/2000/svg" xmlns:xlink="http://www.w3.org/1999/xlink">
<g id="${uniqueid}" class="graph" transform="scale(1 1) rotate(0) translate(4 366.704)">
<title>EMC VMAX Alert Definitions/VMAX&#45;FEDirectorByPort/High Bandwidth</title>
<polygon fill="white" stroke="none" points="-4,4 -4,-366.704 900.98,-366.704 900.98,4 -4,4"/>
<!-- Port Bandwidth
MBsec &#160;Entry -->
<g id="${uniqueid}_node1" class="node"><title>Port Bandwidth
MBsec &#160;Entry</title>
<g id="a_${uniqueid}_node1"><a xlink:href="#2013306165397901" xlink:title="com.watch4net.alerting.operation.FilteredEntryPoint">
<ellipse fill="#984ea3" stroke="black" cx="90.5097" cy="-183.87" rx="90.5193" ry="26.7407"/>
<text text-anchor="middle" x="90.5097" y="-187.67" font-family="Times,serif" font-size="14.00" fill="white">Port Bandwidth</text>
<text text-anchor="middle" x="90.5097" y="-172.67" font-family="Times,serif" font-size="14.00" fill="white">MBsec &#160;Entry</text>
</a>
</g>
</g>
<!-- PortHigh
Throughput -->
<g id="${uniqueid}_node2" class="node"><title>PortHigh
Throughput</title>
<g id="a_${uniqueid}_node2"><a xlink:href="#2013306165450373" xlink:title="com.watch4net.alerting.operation.CaseOperation">
<polygon fill="#377eb8" stroke="black" points="318.019,-202.87 217.019,-202.87 217.019,-164.87 318.019,-164.87 318.019,-202.87"/>
<text text-anchor="middle" x="267.519" y="-187.67" font-family="Times,serif" font-size="14.00" fill="white">PortHigh</text>
<text text-anchor="middle" x="267.519" y="-172.67" font-family="Times,serif" font-size="14.00" fill="white">Throughput</text>
</a>
</g>
</g>
<!-- Port Bandwidth
MBsec &#160;Entry&#45;&gt;PortHigh
Throughput -->
<g id="${uniqueid}_edge1" class="edge"><title>Port Bandwidth
MBsec &#160;Entry:e&#45;&gt;PortHigh
Throughput:w</title>
<path fill="none" stroke="black" d="M181.019,-183.87C193.019,-183.87 198.269,-183.87 206.894,-183.87"/>
<polygon fill="black" stroke="black" points="207.019,-187.37 217.019,-183.87 207.019,-180.37 207.019,-187.37"/>
</g>
<!-- Port_Throughput_
CRIT -->
<g id="${uniqueid}_node3" class="node"><title>Port_Throughput_
CRIT</title>
<g id="a_${uniqueid}_node3"><a xlink:href="#2013306165466065" xlink:title="com.watch4net.alerting.operation.comparator.ConstantComparatorOperation">
<polygon fill="#ff7f00" stroke="black" points="500.019,-346.87 354.019,-308.87 500.019,-270.87 646.019,-308.87 500.019,-346.87"/>
<text text-anchor="middle" x="500.019" y="-312.67" font-family="Times,serif" font-size="14.00" fill="white">Port_Throughput_</text>
<text text-anchor="middle" x="500.019" y="-297.67" font-family="Times,serif" font-size="14.00" fill="white">CRIT</text>
</a>
</g>
</g>
<!-- PortHigh
Throughput&#45;&gt;Port_Throughput_
CRIT -->
<g id="${uniqueid}_edge2" class="edge"><title>PortHigh
Throughput:e&#45;&gt;Port_Throughput_
CRIT:w</title>
<path fill="none" stroke="black" d="M318.019,-183.87C371.768,-183.87 306.724,-291.91 343.767,-307.103"/>
<polygon fill="black" stroke="black" points="343.57,-310.621 354.019,-308.87 344.759,-303.722 343.57,-310.621"/>
</g>
<!-- Port_Throughput_
MINOR -->
<g id="${uniqueid}_node4" class="node"><title>Port_Throughput_
MINOR</title>
<g id="a_${uniqueid}_node4"><a xlink:href="#2013306165553362" xlink:title="com.watch4net.alerting.operation.comparator.ConstantComparatorOperation">
<polygon fill="#ff7f00" stroke="black" points="500.019,-221.87 354.019,-183.87 500.019,-145.87 646.019,-183.87 500.019,-221.87"/>
<text text-anchor="middle" x="500.019" y="-187.67" font-family="Times,serif" font-size="14.00" fill="white">Port_Throughput_</text>
<text text-anchor="middle" x="500.019" y="-172.67" font-family="Times,serif" font-size="14.00" fill="white">MINOR</text>
</a>
</g>
</g>
<!-- PortHigh
Throughput&#45;&gt;Port_Throughput_
MINOR -->
<g id="${uniqueid}_edge3" class="edge"><title>PortHigh
Throughput:e&#45;&gt;Port_Throughput_
MINOR:w</title>
<path fill="none" stroke="black" d="M318.019,-183.87C330.019,-183.87 335.269,-183.87 343.894,-183.87"/>
<polygon fill="black" stroke="black" points="344.019,-187.37 354.019,-183.87 344.019,-180.37 344.019,-187.37"/>
</g>
<!-- Port_Throughput_
Major -->
<g id="${uniqueid}_node5" class="node"><title>Port_Throughput_
Major</title>
<g id="a_${uniqueid}_node5"><a xlink:href="#2013306165515341" xlink:title="com.watch4net.alerting.operation.comparator.ConstantComparatorOperation">
<polygon fill="#ff7f00" stroke="black" points="500.019,-97.8701 354.019,-59.8701 500.019,-21.8701 646.019,-59.8701 500.019,-97.8701"/>
<text text-anchor="middle" x="500.019" y="-63.6701" font-family="Times,serif" font-size="14.00" fill="white">Port_Throughput_</text>
<text text-anchor="middle" x="500.019" y="-48.6701" font-family="Times,serif" font-size="14.00" fill="white">Major</text>
</a>
</g>
</g>
<!-- PortHigh
Throughput&#45;&gt;Port_Throughput_
Major -->
<g id="${uniqueid}_edge4" class="edge"><title>PortHigh
Throughput:e&#45;&gt;Port_Throughput_
Major:w</title>
<path fill="none" stroke="black" d="M318.019,-183.87C371.371,-183.87 307.037,-76.6945 343.839,-61.623"/>
<polygon fill="black" stroke="black" points="344.758,-65.0163 354.019,-59.8701 343.57,-58.1178 344.758,-65.0163"/>
</g>
<!-- SNMP_Port_
Throughput_CRIT -->
<g id="${uniqueid}_node6" class="node"><title>SNMP_Port_
Throughput_CRIT</title>
<g id="a_${uniqueid}_node6"><a xlink:href="#2013306165488698" xlink:title="com.watch4net.alerting.action.SNMPTrapAction">
<ellipse fill="#4daf4a" stroke="black" cx="789.5" cy="-278.87" rx="102.561" ry="26.7407"/>
<text text-anchor="middle" x="789.5" y="-282.67" font-family="Times,serif" font-size="14.00" fill="white">SNMP_Port_</text>
<text text-anchor="middle" x="789.5" y="-267.67" font-family="Times,serif" font-size="14.00" fill="white">Throughput_CRIT</text>
</a>
</g>
</g>
<!-- Port_Throughput_
CRIT&#45;&gt;SNMP_Port_
Throughput_CRIT -->
<g id="${uniqueid}_edge6" class="edge"><title>Port_Throughput_
CRIT:se&#45;&gt;SNMP_Port_
Throughput_CRIT:w</title>
<path fill="none" stroke="black" d="M531.019,-278.87C577.102,-232.787 613.027,-274.19 675.277,-278.514"/>
<polygon fill="black" stroke="black" points="675.384,-282.019 685.5,-278.87 675.628,-275.024 675.384,-282.019"/>
<text text-anchor="middle" x="515.519" y="-267.67" font-family="Times,serif" font-size="14.00">true</text>
</g>
<!-- Trap_Clear_Crit -->
<g id="${uniqueid}_node9" class="node"><title>Trap_Clear_Crit</title>
<g id="a_${uniqueid}_node9"><a xlink:href="#2013306165505599" xlink:title="com.watch4net.alerting.action.SNMPTrapAction">
<ellipse fill="#4daf4a" stroke="black" cx="789.5" cy="-341.87" rx="85.5853" ry="18"/>
<text text-anchor="middle" x="789.5" y="-338.17" font-family="Times,serif" font-size="14.00" fill="white">Trap_Clear_Crit</text>
</a>
</g>
</g>
<!-- Port_Throughput_
CRIT&#45;&gt;Trap_Clear_Crit -->
<g id="${uniqueid}_edge5" class="edge"><title>Port_Throughput_
CRIT:ne&#45;&gt;Trap_Clear_Crit:w</title>
<path fill="none" stroke="black" d="M529.019,-338.87C531.553,-341.404 527.333,-344.499 530.019,-346.87 568.669,-380.99 594.514,-349.145 646.019,-346.87 667.458,-345.923 675.067,-342.963 692.415,-342.105"/>
<polygon fill="black" stroke="black" points="692.584,-345.602 702.5,-341.87 692.421,-338.604 692.584,-345.602"/>
<text text-anchor="middle" x="512.019" y="-342.67" font-family="Times,serif" font-size="14.00">false</text>
</g>
<!-- SNMP_Port_
Throughput_Minor -->
<g id="${uniqueid}_node8" class="node"><title>SNMP_Port_
Throughput_Minor</title>
<g id="a_${uniqueid}_node8"><a xlink:href="#2013306165565402" xlink:title="com.watch4net.alerting.action.SNMPTrapAction">
<ellipse fill="#4daf4a" stroke="black" cx="789.5" cy="-152.87" rx="107.46" ry="26.7407"/>
<text text-anchor="middle" x="789.5" y="-156.67" font-family="Times,serif" font-size="14.00" fill="white">SNMP_Port_</text>
<text text-anchor="middle" x="789.5" y="-141.67" font-family="Times,serif" font-size="14.00" fill="white">Throughput_Minor</text>
</a>
</g>
</g>
<!-- Port_Throughput_
MINOR&#45;&gt;SNMP_Port_
Throughput_Minor -->
<g id="${uniqueid}_edge8" class="edge"><title>Port_Throughput_
MINOR:se&#45;&gt;SNMP_Port_
Throughput_Minor:w</title>
<path fill="none" stroke="black" d="M531.019,-153.87C575.973,-108.917 611.034,-148.232 671.652,-152.503"/>
<polygon fill="black" stroke="black" points="671.902,-156.014 682.019,-152.87 672.149,-149.018 671.902,-156.014"/>
<text text-anchor="middle" x="515.519" y="-142.67" font-family="Times,serif" font-size="14.00">true</text>
</g>
<!-- Trap_Clear_Minor -->
<g id="${uniqueid}_node11" class="node"><title>Trap_Clear_Minor</title>
<g id="a_${uniqueid}_node11"><a xlink:href="#2013306165577472" xlink:title="com.watch4net.alerting.action.SNMPTrapAction">
<ellipse fill="#4daf4a" stroke="black" cx="789.5" cy="-215.87" rx="95.5831" ry="18"/>
<text text-anchor="middle" x="789.5" y="-212.17" font-family="Times,serif" font-size="14.00" fill="white">Trap_Clear_Minor</text>
</a>
</g>
</g>
<!-- Port_Throughput_
MINOR&#45;&gt;Trap_Clear_Minor -->
<g id="${uniqueid}_edge7" class="edge"><title>Port_Throughput_
MINOR:ne&#45;&gt;Trap_Clear_Minor:w</title>
<path fill="none" stroke="black" d="M529.019,-213.87C531.553,-216.404 527.333,-219.499 530.019,-221.87 568.669,-255.99 594.57,-225.177 646.019,-221.87 662.908,-220.784 669.286,-217.502 682.257,-216.309"/>
<polygon fill="black" stroke="black" points="682.659,-219.795 692.5,-215.87 682.359,-212.802 682.659,-219.795"/>
<text text-anchor="middle" x="512.019" y="-217.67" font-family="Times,serif" font-size="14.00">false</text>
</g>
<!-- SNMP_Port_
Throughput_Major -->
<g id="${uniqueid}_node7" class="node"><title>SNMP_Port_
Throughput_Major</title>
<g id="a_${uniqueid}_node7"><a xlink:href="#2013306165528232" xlink:title="com.watch4net.alerting.action.SNMPTrapAction">
<ellipse fill="#4daf4a" stroke="black" cx="789.5" cy="-26.8701" rx="106.547" ry="26.7407"/>
<text text-anchor="middle" x="789.5" y="-30.6701" font-family="Times,serif" font-size="14.00" fill="white">SNMP_Port_</text>
<text text-anchor="middle" x="789.5" y="-15.6701" font-family="Times,serif" font-size="14.00" fill="white">Throughput_Major</text>
</a>
</g>
</g>
<!-- Port_Throughput_
Major&#45;&gt;SNMP_Port_
Throughput_Major -->
<g id="${uniqueid}_edge10" class="edge"><title>Port_Throughput_
Major:se&#45;&gt;SNMP_Port_
Throughput_Major:w</title>
<path fill="none" stroke="black" d="M531.019,-29.8701C575.98,15.091 611.024,-22.4361 671.65,-26.5191"/>
<polygon fill="black" stroke="black" points="671.907,-30.0297 682.019,-26.8701 672.143,-23.0337 671.907,-30.0297"/>
<text text-anchor="middle" x="515.519" y="-18.6701" font-family="Times,serif" font-size="14.00">true</text>
</g>
<!-- Trap_Clear_Major -->
<g id="${uniqueid}_node10" class="node"><title>Trap_Clear_Major</title>
<g id="a_${uniqueid}_node10"><a xlink:href="#2013306165541232" xlink:title="com.watch4net.alerting.action.SNMPTrapAction">
<ellipse fill="#4daf4a" stroke="black" cx="789.5" cy="-89.8701" rx="94.7833" ry="18"/>
<text text-anchor="middle" x="789.5" y="-86.1701" font-family="Times,serif" font-size="14.00" fill="white">Trap_Clear_Major</text>
</a>
</g>
</g>
<!-- Port_Throughput_
Major&#45;&gt;Trap_Clear_Major -->
<g id="${uniqueid}_edge9" class="edge"><title>Port_Throughput_
Major:ne&#45;&gt;Trap_Clear_Major:w</title>
<path fill="none" stroke="black" d="M529.019,-89.8701C531.553,-92.4038 527.333,-95.4987 530.019,-97.8701 568.669,-131.99 594.643,-102.168 646.019,-97.8701 663.513,-96.4066 669.856,-91.9608 683.383,-90.4104"/>
<polygon fill="black" stroke="black" points="683.701,-93.8985 693.5,-89.8701 683.327,-86.9085 683.701,-93.8985"/>
<text text-anchor="middle" x="512.019" y="-93.6701" font-family="Times,serif" font-size="14.00">false</text>
</g>
</g>
</svg>
