<?xml version="1.0" encoding="UTF-8" standalone="no"?>
<!DOCTYPE svg PUBLIC "-//W3C//DTD SVG 1.1//EN"
 "http://www.w3.org/Graphics/SVG/1.1/DTD/svg11.dtd">
<!-- Generated by graphviz version 2.38.0 (20140413.2041)
 -->
<!-- Title: EMC Isilon Alert Definitions/PowerSupplyFailure/PowerSupplyFailure&#45;OverVoltage Pages: 1 -->
<svg width="822pt" height="260pt"
 viewBox="0.00 0.00 821.64 260.48" xmlns="http://www.w3.org/2000/svg" xmlns:xlink="http://www.w3.org/1999/xlink">
<g id="${uniqueid}" class="graph" transform="scale(1 1) rotate(0) translate(4 256.477)">
<title>EMC Isilon Alert Definitions/PowerSupplyFailure/PowerSupplyFailure&#45;OverVoltage</title>
<polygon fill="white" stroke="none" points="-4,4 -4,-256.477 817.642,-256.477 817.642,4 -4,4"/>
<!-- PSF&#45;OverVoltage -->
<g id="${uniqueid}_node1" class="node"><title>PSF&#45;OverVoltage</title>
<g id="a_${uniqueid}_node1"><a xlink:href="#1418932212524" xlink:title="com.watch4net.alerting.operation.CaseOperation">
<polygon fill="#377eb8" stroke="black" points="316.321,-133 187.321,-133 187.321,-97 316.321,-97 316.321,-133"/>
<text text-anchor="middle" x="251.821" y="-111.3" font-family="Times,serif" font-size="14.00" fill="white">PSF&#45;OverVoltage</text>
</a>
</g>
</g>
<!-- PowerSupply
Failure&#45;Over
Voltage&#45;Supply 1 -->
<g id="${uniqueid}_node3" class="node"><title>PowerSupply
Failure&#45;Over
Voltage&#45;Supply 1</title>
<g id="a_${uniqueid}_node3"><a xlink:href="#1720082578137277" xlink:title="com.watch4net.alerting.operation.comparator.StringComparatorOperation">
<polygon fill="#ff7f00" stroke="black" points="489.321,-106 352.321,-53 489.321,-2.13163e-14 626.321,-53 489.321,-106"/>
<text text-anchor="middle" x="489.321" y="-64.3" font-family="Times,serif" font-size="14.00" fill="white">PowerSupply</text>
<text text-anchor="middle" x="489.321" y="-49.3" font-family="Times,serif" font-size="14.00" fill="white">Failure&#45;Over</text>
<text text-anchor="middle" x="489.321" y="-34.3" font-family="Times,serif" font-size="14.00" fill="white">Voltage&#45;Supply 1</text>
</a>
</g>
</g>
<!-- PSF&#45;OverVoltage&#45;&gt;PowerSupply
Failure&#45;Over
Voltage&#45;Supply 1 -->
<g id="${uniqueid}_edge1" class="edge"><title>PSF&#45;OverVoltage:e&#45;&gt;PowerSupply
Failure&#45;Over
Voltage&#45;Supply 1:w</title>
<path fill="none" stroke="black" d="M316.321,-115C343.953,-115 326.771,-68.3751 342.499,-55.9904"/>
<polygon fill="black" stroke="black" points="343.774,-59.261 352.321,-53 341.735,-52.5645 343.774,-59.261"/>
</g>
<!-- PowerSupply
Failure&#45;Over
Voltage&#45;Supply1 -->
<g id="${uniqueid}_node4" class="node"><title>PowerSupply
Failure&#45;Over
Voltage&#45;Supply1</title>
<g id="a_${uniqueid}_node4"><a xlink:href="#1720082578174462" xlink:title="com.watch4net.alerting.operation.comparator.StringComparatorOperation">
<polygon fill="#ff7f00" stroke="black" points="489.321,-230 360.321,-177 489.321,-124 618.321,-177 489.321,-230"/>
<text text-anchor="middle" x="489.321" y="-188.3" font-family="Times,serif" font-size="14.00" fill="white">PowerSupply</text>
<text text-anchor="middle" x="489.321" y="-173.3" font-family="Times,serif" font-size="14.00" fill="white">Failure&#45;Over</text>
<text text-anchor="middle" x="489.321" y="-158.3" font-family="Times,serif" font-size="14.00" fill="white">Voltage&#45;Supply1</text>
</a>
</g>
</g>
<!-- PSF&#45;OverVoltage&#45;&gt;PowerSupply
Failure&#45;Over
Voltage&#45;Supply1 -->
<g id="${uniqueid}_edge2" class="edge"><title>PSF&#45;OverVoltage:e&#45;&gt;PowerSupply
Failure&#45;Over
Voltage&#45;Supply1:w</title>
<path fill="none" stroke="black" d="M316.321,-115C345.794,-115 330.771,-162.894 349.468,-174.493"/>
<polygon fill="black" stroke="black" points="348.767,-177.926 359.321,-177 350.493,-171.142 348.767,-177.926"/>
</g>
<!-- PowerSupply
Failure&#45;Over
Voltage -->
<g id="${uniqueid}_node2" class="node"><title>PowerSupply
Failure&#45;Over
Voltage</title>
<g id="a_${uniqueid}_node2"><a xlink:href="#1720082578069757" xlink:title="com.watch4net.alerting.operation.FilteredEntryPoint">
<ellipse fill="#984ea3" stroke="black" cx="75.6604" cy="-115" rx="75.8212" ry="37.4533"/>
<text text-anchor="middle" x="75.6604" y="-126.3" font-family="Times,serif" font-size="14.00" fill="white">PowerSupply</text>
<text text-anchor="middle" x="75.6604" y="-111.3" font-family="Times,serif" font-size="14.00" fill="white">Failure&#45;Over</text>
<text text-anchor="middle" x="75.6604" y="-96.3" font-family="Times,serif" font-size="14.00" fill="white">Voltage</text>
</a>
</g>
</g>
<!-- PowerSupply
Failure&#45;Over
Voltage&#45;&gt;PSF&#45;OverVoltage -->
<g id="${uniqueid}_edge3" class="edge"><title>PowerSupply
Failure&#45;Over
Voltage:e&#45;&gt;PSF&#45;OverVoltage:w</title>
<path fill="none" stroke="black" d="M151.321,-115C163.321,-115 168.571,-115 177.196,-115"/>
<polygon fill="black" stroke="black" points="177.321,-118.5 187.321,-115 177.321,-111.5 177.321,-118.5"/>
</g>
<!-- PowerSupply
Failure&#45;Over
Voltage1 -->
<g id="${uniqueid}_node5" class="node"><title>PowerSupply
Failure&#45;Over
Voltage1</title>
<g id="a_${uniqueid}_node5"><a xlink:href="#1720082578197987" xlink:title="com.watch4net.alerting.action.SNMPTrapAction">
<ellipse fill="#4daf4a" stroke="black" cx="737.981" cy="-88" rx="75.8212" ry="37.4533"/>
<text text-anchor="middle" x="737.981" y="-99.3" font-family="Times,serif" font-size="14.00" fill="white">PowerSupply</text>
<text text-anchor="middle" x="737.981" y="-84.3" font-family="Times,serif" font-size="14.00" fill="white">Failure&#45;Over</text>
<text text-anchor="middle" x="737.981" y="-69.3" font-family="Times,serif" font-size="14.00" fill="white">Voltage1</text>
</a>
</g>
</g>
<!-- PowerSupply
Failure&#45;Over
Voltage&#45;Supply 1&#45;&gt;PowerSupply
Failure&#45;Over
Voltage1 -->
<g id="${uniqueid}_edge4" class="edge"><title>PowerSupply
Failure&#45;Over
Voltage&#45;Supply 1:e&#45;&gt;PowerSupply
Failure&#45;Over
Voltage1:w</title>
<path fill="none" stroke="black" d="M626.321,-53C644.452,-53 642.154,-76.1055 652.624,-84.77"/>
<polygon fill="black" stroke="black" points="651.727,-88.1602 662.321,-88 653.94,-81.519 651.727,-88.1602"/>
<text text-anchor="middle" x="641.821" y="-41.8" font-family="Times,serif" font-size="14.00">true</text>
</g>
<!-- PowerSupply
Failure&#45;Over
Voltage&#45;Supply1&#45;&gt;PowerSupply
Failure&#45;Over
Voltage1 -->
<g id="${uniqueid}_edge6" class="edge"><title>PowerSupply
Failure&#45;Over
Voltage&#45;Supply1:se&#45;&gt;PowerSupply
Failure&#45;Over
Voltage1:w</title>
<path fill="none" stroke="black" d="M528.321,-139C560.029,-107.291 585.785,-134.175 626.321,-115 640.728,-108.185 642.334,-95.0862 652.512,-90.0459"/>
<polygon fill="black" stroke="black" points="653.246,-93.4683 662.321,-88 651.817,-86.6157 653.246,-93.4683"/>
<text text-anchor="middle" x="512.821" y="-127.8" font-family="Times,serif" font-size="14.00">true</text>
</g>
<!-- PowerSupply
Failure&#45;Over
Voltage2 -->
<g id="${uniqueid}_node6" class="node"><title>PowerSupply
Failure&#45;Over
Voltage2</title>
<g id="a_${uniqueid}_node6"><a xlink:href="#1720082578226397" xlink:title="com.watch4net.alerting.action.SNMPTrapAction">
<ellipse fill="#4daf4a" stroke="black" cx="737.981" cy="-215" rx="75.8212" ry="37.4533"/>
<text text-anchor="middle" x="737.981" y="-226.3" font-family="Times,serif" font-size="14.00" fill="white">PowerSupply</text>
<text text-anchor="middle" x="737.981" y="-211.3" font-family="Times,serif" font-size="14.00" fill="white">Failure&#45;Over</text>
<text text-anchor="middle" x="737.981" y="-196.3" font-family="Times,serif" font-size="14.00" fill="white">Voltage2</text>
</a>
</g>
</g>
<!-- PowerSupply
Failure&#45;Over
Voltage&#45;Supply1&#45;&gt;PowerSupply
Failure&#45;Over
Voltage2 -->
<g id="${uniqueid}_edge5" class="edge"><title>PowerSupply
Failure&#45;Over
Voltage&#45;Supply1:ne&#45;&gt;PowerSupply
Failure&#45;Over
Voltage2:w</title>
<path fill="none" stroke="black" d="M526.321,-215C528.683,-217.362 524.881,-227.718 527.321,-230 556.855,-257.631 578.421,-236.614 618.321,-230 634.882,-227.255 639.939,-219.068 652.335,-216.095"/>
<polygon fill="black" stroke="black" points="652.762,-219.569 662.321,-215 651.999,-212.611 652.762,-219.569"/>
<text text-anchor="middle" x="507.321" y="-218.8" font-family="Times,serif" font-size="14.00">false</text>
</g>
</g>
</svg>
