<?xml version="1.0" encoding="UTF-8" standalone="no"?>
<!DOCTYPE svg PUBLIC "-//W3C//DTD SVG 1.1//EN"
 "http://www.w3.org/Graphics/SVG/1.1/DTD/svg11.dtd">
<!-- Generated by graphviz version 2.38.0 (20140413.2041)
 -->
<!-- Title: HP 3PAR Alert Definitions/3PAR&#45;Disks/High Write IO Rate Pages: 1 -->
<svg width="892pt" height="422pt"
 viewBox="0.00 0.00 892.05 421.74" xmlns="http://www.w3.org/2000/svg" xmlns:xlink="http://www.w3.org/1999/xlink">
<g id="${uniqueid}" class="graph" transform="scale(1 1) rotate(0) translate(4 417.74)">
<title>HP 3PAR Alert Definitions/3PAR&#45;Disks/High Write IO Rate</title>
<polygon fill="white" stroke="none" points="-4,4 -4,-417.74 888.051,-417.74 888.051,4 -4,4"/>
<!-- Case Generator -->
<g id="${uniqueid}_node1" class="node"><title>Case Generator</title>
<g id="a_${uniqueid}_node1"><a xlink:href="#375663593789260" xlink:title="com.watch4net.alerting.operation.CaseOperation">
<polygon fill="#377eb8" stroke="black" points="377.132,-224.87 248.132,-224.87 248.132,-188.87 377.132,-188.87 377.132,-224.87"/>
<text text-anchor="middle" x="312.632" y="-203.17" font-family="Times,serif" font-size="14.00" fill="white">Case Generator</text>
</a>
</g>
</g>
<!-- WriteRequest_
CRIT -->
<g id="${uniqueid}_node3" class="node"><title>WriteRequest_
CRIT</title>
<g id="a_${uniqueid}_node3"><a xlink:href="#375663593795773" xlink:title="com.watch4net.alerting.operation.comparator.ConstantComparatorOperation">
<polygon fill="#ff7f00" stroke="black" points="535.132,-381.87 413.132,-343.87 535.132,-305.87 657.132,-343.87 535.132,-381.87"/>
<text text-anchor="middle" x="535.132" y="-347.67" font-family="Times,serif" font-size="14.00" fill="white">WriteRequest_</text>
<text text-anchor="middle" x="535.132" y="-332.67" font-family="Times,serif" font-size="14.00" fill="white">CRIT</text>
</a>
</g>
</g>
<!-- Case Generator&#45;&gt;WriteRequest_
CRIT -->
<g id="${uniqueid}_edge1" class="edge"><title>Case Generator:e&#45;&gt;WriteRequest_
CRIT:w</title>
<path fill="none" stroke="black" d="M377.132,-206.87C436.153,-206.87 360.818,-327.28 403.045,-342.331"/>
<polygon fill="black" stroke="black" points="402.719,-345.822 413.132,-343.87 403.774,-338.902 402.719,-345.822"/>
</g>
<!-- WriteRequest_
MAJOR -->
<g id="${uniqueid}_node6" class="node"><title>WriteRequest_
MAJOR</title>
<g id="a_${uniqueid}_node6"><a xlink:href="#375663593833294" xlink:title="com.watch4net.alerting.operation.comparator.ConstantComparatorOperation">
<polygon fill="#ff7f00" stroke="black" points="535.132,-244.87 413.132,-206.87 535.132,-168.87 657.132,-206.87 535.132,-244.87"/>
<text text-anchor="middle" x="535.132" y="-210.67" font-family="Times,serif" font-size="14.00" fill="white">WriteRequest_</text>
<text text-anchor="middle" x="535.132" y="-195.67" font-family="Times,serif" font-size="14.00" fill="white">MAJOR</text>
</a>
</g>
</g>
<!-- Case Generator&#45;&gt;WriteRequest_
MAJOR -->
<g id="${uniqueid}_edge2" class="edge"><title>Case Generator:e&#45;&gt;WriteRequest_
MAJOR:w</title>
<path fill="none" stroke="black" d="M377.132,-206.87C389.132,-206.87 394.382,-206.87 403.007,-206.87"/>
<polygon fill="black" stroke="black" points="403.132,-210.37 413.132,-206.87 403.132,-203.37 403.132,-210.37"/>
</g>
<!-- WriteRequest_
MINOR -->
<g id="${uniqueid}_node7" class="node"><title>WriteRequest_
MINOR</title>
<g id="a_${uniqueid}_node7"><a xlink:href="#375663593859836" xlink:title="com.watch4net.alerting.operation.comparator.ConstantComparatorOperation">
<polygon fill="#ff7f00" stroke="black" points="535.132,-107.87 413.132,-69.8701 535.132,-31.8701 657.132,-69.8701 535.132,-107.87"/>
<text text-anchor="middle" x="535.132" y="-73.6701" font-family="Times,serif" font-size="14.00" fill="white">WriteRequest_</text>
<text text-anchor="middle" x="535.132" y="-58.6701" font-family="Times,serif" font-size="14.00" fill="white">MINOR</text>
</a>
</g>
</g>
<!-- Case Generator&#45;&gt;WriteRequest_
MINOR -->
<g id="${uniqueid}_edge3" class="edge"><title>Case Generator:e&#45;&gt;WriteRequest_
MINOR:w</title>
<path fill="none" stroke="black" d="M377.132,-206.87C436.153,-206.87 360.818,-86.4599 403.045,-71.4086"/>
<polygon fill="black" stroke="black" points="403.774,-74.8379 413.132,-69.8701 402.719,-67.918 403.774,-74.8379"/>
</g>
<!-- HighWriteRequest
Entry -->
<g id="${uniqueid}_node2" class="node"><title>HighWriteRequest
Entry</title>
<g id="a_${uniqueid}_node2"><a xlink:href="#375663593741779" xlink:title="com.watch4net.alerting.operation.FilteredEntryPoint">
<ellipse fill="#984ea3" stroke="black" cx="106.066" cy="-206.87" rx="106.132" ry="26.7407"/>
<text text-anchor="middle" x="106.066" y="-210.67" font-family="Times,serif" font-size="14.00" fill="white">HighWriteRequest</text>
<text text-anchor="middle" x="106.066" y="-195.67" font-family="Times,serif" font-size="14.00" fill="white">Entry</text>
</a>
</g>
</g>
<!-- HighWriteRequest
Entry&#45;&gt;Case Generator -->
<g id="${uniqueid}_edge4" class="edge"><title>HighWriteRequest
Entry:e&#45;&gt;Case Generator:w</title>
<path fill="none" stroke="black" d="M212.132,-206.87C224.132,-206.87 229.382,-206.87 238.007,-206.87"/>
<polygon fill="black" stroke="black" points="238.132,-210.37 248.132,-206.87 238.132,-203.37 238.132,-210.37"/>
</g>
<!-- WriteRequest_
CRIT clear trap -->
<g id="${uniqueid}_node4" class="node"><title>WriteRequest_
CRIT clear trap</title>
<g id="a_${uniqueid}_node4"><a xlink:href="#375663593824928" xlink:title="com.watch4net.alerting.action.SNMPTrapAction">
<ellipse fill="#4daf4a" stroke="black" cx="788.591" cy="-386.87" rx="90.5193" ry="26.7407"/>
<text text-anchor="middle" x="788.591" y="-390.67" font-family="Times,serif" font-size="14.00" fill="white">WriteRequest_</text>
<text text-anchor="middle" x="788.591" y="-375.67" font-family="Times,serif" font-size="14.00" fill="white">CRIT clear trap</text>
</a>
</g>
</g>
<!-- WriteRequest_
CRIT&#45;&gt;WriteRequest_
CRIT clear trap -->
<g id="${uniqueid}_edge5" class="edge"><title>WriteRequest_
CRIT:ne&#45;&gt;WriteRequest_
CRIT clear trap:w</title>
<path fill="none" stroke="black" d="M563.132,-372.87C565.978,-375.716 561.184,-379.13 564.132,-381.87 604.752,-419.631 634.073,-390.726 686.521,-387.209"/>
<polygon fill="black" stroke="black" points="686.715,-390.705 696.591,-386.87 686.479,-383.709 686.715,-390.705"/>
<text text-anchor="middle" x="546.132" y="-376.67" font-family="Times,serif" font-size="14.00">false</text>
</g>
<!-- WriteRequest_
CRIT trap -->
<g id="${uniqueid}_node5" class="node"><title>WriteRequest_
CRIT trap</title>
<g id="a_${uniqueid}_node5"><a xlink:href="#375663593808200" xlink:title="com.watch4net.alerting.action.SNMPTrapAction">
<ellipse fill="#4daf4a" stroke="black" cx="788.591" cy="-314.87" rx="86.0347" ry="26.7407"/>
<text text-anchor="middle" x="788.591" y="-318.67" font-family="Times,serif" font-size="14.00" fill="white">WriteRequest_</text>
<text text-anchor="middle" x="788.591" y="-303.67" font-family="Times,serif" font-size="14.00" fill="white">CRIT trap</text>
</a>
</g>
</g>
<!-- WriteRequest_
CRIT&#45;&gt;WriteRequest_
CRIT trap -->
<g id="${uniqueid}_edge6" class="edge"><title>WriteRequest_
CRIT:se&#45;&gt;WriteRequest_
CRIT trap:w</title>
<path fill="none" stroke="black" d="M565.132,-314.87C605.208,-274.794 636.523,-310.174 690.285,-314.457"/>
<polygon fill="black" stroke="black" points="690.459,-317.967 700.591,-314.87 690.74,-310.973 690.459,-317.967"/>
<text text-anchor="middle" x="549.632" y="-303.67" font-family="Times,serif" font-size="14.00">true</text>
</g>
<!-- WriteRequest_
Major clear trap -->
<g id="${uniqueid}_node8" class="node"><title>WriteRequest_
Major clear trap</title>
<g id="a_${uniqueid}_node8"><a xlink:href="#375663593848761" xlink:title="com.watch4net.alerting.action.SNMPTrapAction">
<ellipse fill="#4daf4a" stroke="black" cx="788.591" cy="-242.87" rx="94.5053" ry="26.7407"/>
<text text-anchor="middle" x="788.591" y="-246.67" font-family="Times,serif" font-size="14.00" fill="white">WriteRequest_</text>
<text text-anchor="middle" x="788.591" y="-231.67" font-family="Times,serif" font-size="14.00" fill="white">Major clear trap</text>
</a>
</g>
</g>
<!-- WriteRequest_
MAJOR&#45;&gt;WriteRequest_
Major clear trap -->
<g id="${uniqueid}_edge7" class="edge"><title>WriteRequest_
MAJOR:ne&#45;&gt;WriteRequest_
Major clear trap:w</title>
<path fill="none" stroke="black" d="M563.132,-235.87C565.978,-238.716 561.133,-242.186 564.132,-244.87 594.931,-272.436 615.815,-246.017 657.132,-244.87 669.146,-244.537 674.375,-243.578 682.999,-243.12"/>
<polygon fill="black" stroke="black" points="683.221,-246.616 693.132,-242.87 683.049,-239.618 683.221,-246.616"/>
<text text-anchor="middle" x="546.132" y="-239.67" font-family="Times,serif" font-size="14.00">false</text>
</g>
<!-- WriteRequest_
Major trap -->
<g id="${uniqueid}_node9" class="node"><title>WriteRequest_
Major trap</title>
<g id="a_${uniqueid}_node9"><a xlink:href="#375663593839740" xlink:title="com.watch4net.alerting.action.SNMPTrapAction">
<ellipse fill="#4daf4a" stroke="black" cx="788.591" cy="-170.87" rx="86.0347" ry="26.7407"/>
<text text-anchor="middle" x="788.591" y="-174.67" font-family="Times,serif" font-size="14.00" fill="white">WriteRequest_</text>
<text text-anchor="middle" x="788.591" y="-159.67" font-family="Times,serif" font-size="14.00" fill="white">Major trap</text>
</a>
</g>
</g>
<!-- WriteRequest_
MAJOR&#45;&gt;WriteRequest_
Major trap -->
<g id="${uniqueid}_edge8" class="edge"><title>WriteRequest_
MAJOR:se&#45;&gt;WriteRequest_
Major trap:w</title>
<path fill="none" stroke="black" d="M565.132,-177.87C605.262,-137.74 636.458,-166.964 690.273,-170.526"/>
<polygon fill="black" stroke="black" points="690.48,-174.035 700.591,-170.87 690.714,-167.039 690.48,-174.035"/>
<text text-anchor="middle" x="549.632" y="-166.67" font-family="Times,serif" font-size="14.00">true</text>
</g>
<!-- WriteRequest_
Minor clear trap -->
<g id="${uniqueid}_node10" class="node"><title>WriteRequest_
Minor clear trap</title>
<g id="a_${uniqueid}_node10"><a xlink:href="#375663593883684" xlink:title="com.watch4net.alerting.action.SNMPTrapAction">
<ellipse fill="#4daf4a" stroke="black" cx="788.591" cy="-98.8701" rx="95.4188" ry="26.7407"/>
<text text-anchor="middle" x="788.591" y="-102.67" font-family="Times,serif" font-size="14.00" fill="white">WriteRequest_</text>
<text text-anchor="middle" x="788.591" y="-87.6701" font-family="Times,serif" font-size="14.00" fill="white">Minor clear trap</text>
</a>
</g>
</g>
<!-- WriteRequest_
MINOR&#45;&gt;WriteRequest_
Minor clear trap -->
<g id="${uniqueid}_edge9" class="edge"><title>WriteRequest_
MINOR:ne&#45;&gt;WriteRequest_
Minor clear trap:w</title>
<path fill="none" stroke="black" d="M563.132,-98.8701C565.978,-101.716 561.133,-105.186 564.132,-107.87 594.931,-135.436 616.108,-112.92 657.132,-107.87 669.537,-106.343 674.343,-101.962 683.121,-99.9293"/>
<polygon fill="black" stroke="black" points="683.556,-103.403 693.132,-98.8701 682.819,-96.4418 683.556,-103.403"/>
<text text-anchor="middle" x="546.132" y="-102.67" font-family="Times,serif" font-size="14.00">false</text>
</g>
<!-- WriteRequest_
Minor trap -->
<g id="${uniqueid}_node11" class="node"><title>WriteRequest_
Minor trap</title>
<g id="a_${uniqueid}_node11"><a xlink:href="#375663593869918" xlink:title="com.watch4net.alerting.action.SNMPTrapAction">
<ellipse fill="#4daf4a" stroke="black" cx="788.591" cy="-26.8701" rx="86.0347" ry="26.7407"/>
<text text-anchor="middle" x="788.591" y="-30.6701" font-family="Times,serif" font-size="14.00" fill="white">WriteRequest_</text>
<text text-anchor="middle" x="788.591" y="-15.6701" font-family="Times,serif" font-size="14.00" fill="white">Minor trap</text>
</a>
</g>
</g>
<!-- WriteRequest_
MINOR&#45;&gt;WriteRequest_
Minor trap -->
<g id="${uniqueid}_edge10" class="edge"><title>WriteRequest_
MINOR:se&#45;&gt;WriteRequest_
Minor trap:w</title>
<path fill="none" stroke="black" d="M565.132,-40.8701C605.506,-0.496591 636.392,-23.8375 690.573,-26.6111"/>
<polygon fill="black" stroke="black" points="690.504,-30.1104 700.591,-26.8701 690.685,-23.1128 690.504,-30.1104"/>
<text text-anchor="middle" x="549.632" y="-29.6701" font-family="Times,serif" font-size="14.00">true</text>
</g>
</g>
</svg>
