<?xml version="1.0" encoding="UTF-8" standalone="no"?>
<!DOCTYPE svg PUBLIC "-//W3C//DTD SVG 1.1//EN"
 "http://www.w3.org/Graphics/SVG/1.1/DTD/svg11.dtd">
<!-- Generated by graphviz version 2.38.0 (20140413.2041)
 -->
<!-- Title: EMC VMAX Alert Definitions/VMAX&#45;FEDirectorByPort/High IO Rate Pages: 1 -->
<svg width="948pt" height="371pt"
 viewBox="0.00 0.00 947.88 370.84" xmlns="http://www.w3.org/2000/svg" xmlns:xlink="http://www.w3.org/1999/xlink">
<g id="${uniqueid}" class="graph" transform="scale(1 1) rotate(0) translate(4 366.84)">
<title>EMC VMAX Alert Definitions/VMAX&#45;FEDirectorByPort/High IO Rate</title>
<polygon fill="white" stroke="none" points="-4,4 -4,-366.84 943.879,-366.84 943.879,4 -4,4"/>
<!-- Port Throughput
MBsec &#160;Entry -->
<g id="${uniqueid}_node1" class="node"><title>Port Throughput
MBsec &#160;Entry</title>
<g id="a_${uniqueid}_node1"><a xlink:href="#2012959282209695" xlink:title="com.watch4net.alerting.operation.FilteredEntryPoint">
<ellipse fill="#984ea3" stroke="black" cx="95.4594" cy="-183.87" rx="95.4188" ry="26.7407"/>
<text text-anchor="middle" x="95.4594" y="-187.67" font-family="Times,serif" font-size="14.00" fill="white">Port Throughput</text>
<text text-anchor="middle" x="95.4594" y="-172.67" font-family="Times,serif" font-size="14.00" fill="white">MBsec &#160;Entry</text>
</a>
</g>
</g>
<!-- PortHighIORate -->
<g id="${uniqueid}_node2" class="node"><title>PortHighIORate</title>
<g id="a_${uniqueid}_node2"><a xlink:href="#2012959282252796" xlink:title="com.watch4net.alerting.operation.CaseOperation">
<polygon fill="#377eb8" stroke="black" points="358.919,-201.87 226.919,-201.87 226.919,-165.87 358.919,-165.87 358.919,-201.87"/>
<text text-anchor="middle" x="292.919" y="-180.17" font-family="Times,serif" font-size="14.00" fill="white">PortHighIORate</text>
</a>
</g>
</g>
<!-- Port Throughput
MBsec &#160;Entry&#45;&gt;PortHighIORate -->
<g id="${uniqueid}_edge1" class="edge"><title>Port Throughput
MBsec &#160;Entry:e&#45;&gt;PortHighIORate:w</title>
<path fill="none" stroke="black" d="M190.919,-183.87C202.919,-183.87 208.169,-183.87 216.794,-183.87"/>
<polygon fill="black" stroke="black" points="216.919,-187.37 226.919,-183.87 216.919,-180.37 216.919,-187.37"/>
</g>
<!-- Port_HighIORate_
CRIT -->
<g id="${uniqueid}_node3" class="node"><title>Port_HighIORate_
CRIT</title>
<g id="a_${uniqueid}_node3"><a xlink:href="#2012959282261906" xlink:title="com.watch4net.alerting.operation.comparator.ConstantComparatorOperation">
<polygon fill="#ff7f00" stroke="black" points="541.919,-346.87 394.919,-308.87 541.919,-270.87 688.919,-308.87 541.919,-346.87"/>
<text text-anchor="middle" x="541.919" y="-312.67" font-family="Times,serif" font-size="14.00" fill="white">Port_HighIORate_</text>
<text text-anchor="middle" x="541.919" y="-297.67" font-family="Times,serif" font-size="14.00" fill="white">CRIT</text>
</a>
</g>
</g>
<!-- PortHighIORate&#45;&gt;Port_HighIORate_
CRIT -->
<g id="${uniqueid}_edge2" class="edge"><title>PortHighIORate:e&#45;&gt;Port_HighIORate_
CRIT:w</title>
<path fill="none" stroke="black" d="M358.919,-183.87C412.667,-183.87 347.623,-291.91 384.667,-307.103"/>
<polygon fill="black" stroke="black" points="384.47,-310.621 394.919,-308.87 385.659,-303.722 384.47,-310.621"/>
</g>
<!-- Port_IORate_
Major -->
<g id="${uniqueid}_node4" class="node"><title>Port_IORate_
Major</title>
<g id="a_${uniqueid}_node4"><a xlink:href="#2012959282316518" xlink:title="com.watch4net.alerting.operation.comparator.ConstantComparatorOperation">
<polygon fill="#ff7f00" stroke="black" points="541.919,-221.87 429.919,-183.87 541.919,-145.87 653.919,-183.87 541.919,-221.87"/>
<text text-anchor="middle" x="541.919" y="-187.67" font-family="Times,serif" font-size="14.00" fill="white">Port_IORate_</text>
<text text-anchor="middle" x="541.919" y="-172.67" font-family="Times,serif" font-size="14.00" fill="white">Major</text>
</a>
</g>
</g>
<!-- PortHighIORate&#45;&gt;Port_IORate_
Major -->
<g id="${uniqueid}_edge3" class="edge"><title>PortHighIORate:e&#45;&gt;Port_IORate_
Major:w</title>
<path fill="none" stroke="black" d="M358.919,-183.87C386.384,-183.87 395.664,-183.87 418.868,-183.87"/>
<polygon fill="black" stroke="black" points="418.919,-187.37 428.919,-183.87 418.919,-180.37 418.919,-187.37"/>
</g>
<!-- Port_Throughput_
MINOR -->
<g id="${uniqueid}_node5" class="node"><title>Port_Throughput_
MINOR</title>
<g id="a_${uniqueid}_node5"><a xlink:href="#2012959282350425" xlink:title="com.watch4net.alerting.operation.comparator.ConstantComparatorOperation">
<polygon fill="#ff7f00" stroke="black" points="541.919,-97.8701 395.919,-59.8701 541.919,-21.8701 687.919,-59.8701 541.919,-97.8701"/>
<text text-anchor="middle" x="541.919" y="-63.6701" font-family="Times,serif" font-size="14.00" fill="white">Port_Throughput_</text>
<text text-anchor="middle" x="541.919" y="-48.6701" font-family="Times,serif" font-size="14.00" fill="white">MINOR</text>
</a>
</g>
</g>
<!-- PortHighIORate&#45;&gt;Port_Throughput_
MINOR -->
<g id="${uniqueid}_edge4" class="edge"><title>PortHighIORate:e&#45;&gt;Port_Throughput_
MINOR:w</title>
<path fill="none" stroke="black" d="M358.919,-183.87C412.271,-183.87 347.936,-76.6945 384.739,-61.623"/>
<polygon fill="black" stroke="black" points="385.658,-65.0163 394.919,-59.8701 384.47,-58.1178 385.658,-65.0163"/>
</g>
<!-- SNMP_Port_High
IORate_CRIT -->
<g id="${uniqueid}_node8" class="node"><title>SNMP_Port_High
IORate_CRIT</title>
<g id="a_${uniqueid}_node8"><a xlink:href="#2012959282280101" xlink:title="com.watch4net.alerting.action.SNMPTrapAction">
<ellipse fill="#4daf4a" stroke="black" cx="832.399" cy="-278.87" rx="101.233" ry="26.7407"/>
<text text-anchor="middle" x="832.399" y="-282.67" font-family="Times,serif" font-size="14.00" fill="white">SNMP_Port_High</text>
<text text-anchor="middle" x="832.399" y="-267.67" font-family="Times,serif" font-size="14.00" fill="white">IORate_CRIT</text>
</a>
</g>
</g>
<!-- Port_HighIORate_
CRIT&#45;&gt;SNMP_Port_High
IORate_CRIT -->
<g id="${uniqueid}_edge6" class="edge"><title>Port_HighIORate_
CRIT:se&#45;&gt;SNMP_Port_High
IORate_CRIT:w</title>
<path fill="none" stroke="black" d="M572.919,-278.87C619.994,-231.795 656.67,-274.273 720.37,-278.533"/>
<polygon fill="black" stroke="black" points="720.287,-282.032 730.399,-278.87 720.522,-275.036 720.287,-282.032"/>
<text text-anchor="middle" x="557.419" y="-267.67" font-family="Times,serif" font-size="14.00">true</text>
</g>
<!-- Trap_Clear_Crit -->
<g id="${uniqueid}_node9" class="node"><title>Trap_Clear_Crit</title>
<g id="a_${uniqueid}_node9"><a xlink:href="#2012959282301243" xlink:title="com.watch4net.alerting.action.SNMPTrapAction">
<ellipse fill="#4daf4a" stroke="black" cx="832.399" cy="-341.87" rx="85.5853" ry="18"/>
<text text-anchor="middle" x="832.399" y="-338.17" font-family="Times,serif" font-size="14.00" fill="white">Trap_Clear_Crit</text>
</a>
</g>
</g>
<!-- Port_HighIORate_
CRIT&#45;&gt;Trap_Clear_Crit -->
<g id="${uniqueid}_edge5" class="edge"><title>Port_HighIORate_
CRIT:ne&#45;&gt;Trap_Clear_Crit:w</title>
<path fill="none" stroke="black" d="M570.919,-338.87C573.453,-341.404 569.233,-344.499 571.919,-346.87 610.902,-381.284 636.969,-349.165 688.919,-346.87 710.358,-345.923 717.966,-342.963 735.314,-342.105"/>
<polygon fill="black" stroke="black" points="735.483,-345.602 745.399,-341.87 735.32,-338.604 735.483,-345.602"/>
<text text-anchor="middle" x="553.919" y="-342.67" font-family="Times,serif" font-size="14.00">false</text>
</g>
<!-- SNMP_Port_
Throughput_Major -->
<g id="${uniqueid}_node6" class="node"><title>SNMP_Port_
Throughput_Major</title>
<g id="a_${uniqueid}_node6"><a xlink:href="#2012959282330790" xlink:title="com.watch4net.alerting.action.SNMPTrapAction">
<ellipse fill="#4daf4a" stroke="black" cx="832.399" cy="-152.87" rx="106.547" ry="26.7407"/>
<text text-anchor="middle" x="832.399" y="-156.67" font-family="Times,serif" font-size="14.00" fill="white">SNMP_Port_</text>
<text text-anchor="middle" x="832.399" y="-141.67" font-family="Times,serif" font-size="14.00" fill="white">Throughput_Major</text>
</a>
</g>
</g>
<!-- Port_IORate_
Major&#45;&gt;SNMP_Port_
Throughput_Major -->
<g id="${uniqueid}_edge8" class="edge"><title>Port_IORate_
Major:se&#45;&gt;SNMP_Port_
Throughput_Major:w</title>
<path fill="none" stroke="black" d="M571.919,-154.87C617.564,-109.225 653.136,-148.432 714.794,-152.532"/>
<polygon fill="black" stroke="black" points="714.808,-156.034 724.919,-152.87 715.041,-149.038 714.808,-156.034"/>
<text text-anchor="middle" x="556.419" y="-143.67" font-family="Times,serif" font-size="14.00">true</text>
</g>
<!-- Trap_Clear_Major -->
<g id="${uniqueid}_node10" class="node"><title>Trap_Clear_Major</title>
<g id="a_${uniqueid}_node10"><a xlink:href="#2012959282340871" xlink:title="com.watch4net.alerting.action.SNMPTrapAction">
<ellipse fill="#4daf4a" stroke="black" cx="832.399" cy="-215.87" rx="94.7833" ry="18"/>
<text text-anchor="middle" x="832.399" y="-212.17" font-family="Times,serif" font-size="14.00" fill="white">Trap_Clear_Major</text>
</a>
</g>
</g>
<!-- Port_IORate_
Major&#45;&gt;Trap_Clear_Major -->
<g id="${uniqueid}_edge7" class="edge"><title>Port_IORate_
Major:ne&#45;&gt;Trap_Clear_Major:w</title>
<path fill="none" stroke="black" d="M569.919,-212.87C572.765,-215.716 567.92,-219.186 570.919,-221.87 623.186,-268.651 659.292,-220.805 726.285,-216.217"/>
<polygon fill="black" stroke="black" points="726.525,-219.711 736.399,-215.87 726.285,-212.715 726.525,-219.711"/>
<text text-anchor="middle" x="552.919" y="-216.67" font-family="Times,serif" font-size="14.00">false</text>
</g>
<!-- SNMP_Port_
Throughput_Minor -->
<g id="${uniqueid}_node7" class="node"><title>SNMP_Port_
Throughput_Minor</title>
<g id="a_${uniqueid}_node7"><a xlink:href="#2012959282378328" xlink:title="com.watch4net.alerting.action.SNMPTrapAction">
<ellipse fill="#4daf4a" stroke="black" cx="832.399" cy="-26.8701" rx="107.46" ry="26.7407"/>
<text text-anchor="middle" x="832.399" y="-30.6701" font-family="Times,serif" font-size="14.00" fill="white">SNMP_Port_</text>
<text text-anchor="middle" x="832.399" y="-15.6701" font-family="Times,serif" font-size="14.00" fill="white">Throughput_Minor</text>
</a>
</g>
</g>
<!-- Port_Throughput_
MINOR&#45;&gt;SNMP_Port_
Throughput_Minor -->
<g id="${uniqueid}_edge10" class="edge"><title>Port_Throughput_
MINOR:se&#45;&gt;SNMP_Port_
Throughput_Minor:w</title>
<path fill="none" stroke="black" d="M572.919,-29.8701C618.271,15.482 653.599,-22.5609 714.859,-26.5416"/>
<polygon fill="black" stroke="black" points="714.81,-30.0418 724.919,-26.8701 715.038,-23.0455 714.81,-30.0418"/>
<text text-anchor="middle" x="557.419" y="-18.6701" font-family="Times,serif" font-size="14.00">true</text>
</g>
<!-- Trap_Clear_Minor -->
<g id="${uniqueid}_node11" class="node"><title>Trap_Clear_Minor</title>
<g id="a_${uniqueid}_node11"><a xlink:href="#2012959282360548" xlink:title="com.watch4net.alerting.action.SNMPTrapAction">
<ellipse fill="#4daf4a" stroke="black" cx="832.399" cy="-89.8701" rx="95.5831" ry="18"/>
<text text-anchor="middle" x="832.399" y="-86.1701" font-family="Times,serif" font-size="14.00" fill="white">Trap_Clear_Minor</text>
</a>
</g>
</g>
<!-- Port_Throughput_
MINOR&#45;&gt;Trap_Clear_Minor -->
<g id="${uniqueid}_edge9" class="edge"><title>Port_Throughput_
MINOR:ne&#45;&gt;Trap_Clear_Minor:w</title>
<path fill="none" stroke="black" d="M570.919,-89.8701C573.453,-92.4038 569.233,-95.4987 571.919,-97.8701 610.569,-131.99 636.543,-102.168 687.919,-97.8701 705.412,-96.4066 711.755,-91.9608 725.283,-90.4104"/>
<polygon fill="black" stroke="black" points="725.6,-93.8985 735.399,-89.8701 725.227,-86.9085 725.6,-93.8985"/>
<text text-anchor="middle" x="553.919" y="-93.6701" font-family="Times,serif" font-size="14.00">false</text>
</g>
</g>
</svg>
