<?xml version="1.0" encoding="UTF-8" standalone="no"?>
<!DOCTYPE svg PUBLIC "-//W3C//DTD SVG 1.1//EN"
 "http://www.w3.org/Graphics/SVG/1.1/DTD/svg11.dtd">
<!-- Generated by graphviz version 2.38.0 (20140413.2041)
 -->
<!-- Title: EMC ECS Alert Definitions/Bad Disk Notification Pages: 1 -->
<svg width="609pt" height="260pt"
 viewBox="0.00 0.00 608.51 259.87" xmlns="http://www.w3.org/2000/svg" xmlns:xlink="http://www.w3.org/1999/xlink">
<g id="${uniqueid}" class="graph" transform="scale(1 1) rotate(0) translate(4 255.87)">
<title>EMC ECS Alert Definitions/Bad Disk Notification</title>
<polygon fill="white" stroke="none" points="-4,4 -4,-255.87 604.513,-255.87 604.513,4 -4,4"/>
<!-- Bad Disk -->
<g id="${uniqueid}_node1" class="node"><title>Bad Disk</title>
<g id="a_${uniqueid}_node1"><a xlink:href="#4855300048239493" xlink:title="com.watch4net.alerting.operation.comparator.ConstantComparatorOperation">
<polygon fill="#ff7f00" stroke="black" points="304.943,-185 234.392,-167 304.943,-149 375.494,-167 304.943,-185"/>
<text text-anchor="middle" x="304.943" y="-163.3" font-family="Times,serif" font-size="14.00" fill="white">Bad Disk</text>
</a>
</g>
</g>
<!-- Clear Disk
Critical -->
<g id="${uniqueid}_node3" class="node"><title>Clear Disk
Critical</title>
<g id="a_${uniqueid}_node3"><a xlink:href="#1430514592706" xlink:title="com.watch4net.alerting.action.SNMPTrapAction">
<ellipse fill="#4daf4a" stroke="black" cx="519.903" cy="-225" rx="65.1077" ry="26.7407"/>
<text text-anchor="middle" x="519.903" y="-228.8" font-family="Times,serif" font-size="14.00" fill="white">Clear Disk</text>
<text text-anchor="middle" x="519.903" y="-213.8" font-family="Times,serif" font-size="14.00" fill="white">Critical</text>
</a>
</g>
</g>
<!-- Bad Disk&#45;&gt;Clear Disk
Critical -->
<g id="${uniqueid}_edge1" class="edge"><title>Bad Disk:ne&#45;&gt;Clear Disk
Critical:w</title>
<path fill="none" stroke="black" d="M317.943,-181C319.238,-182.296 317.675,-183.677 318.943,-185 359.764,-227.623 387.997,-225.425 443.585,-225.04"/>
<polygon fill="black" stroke="black" points="443.916,-228.539 453.903,-225 443.889,-221.539 443.916,-228.539"/>
<text text-anchor="middle" x="298.943" y="-184.8" font-family="Times,serif" font-size="14.00">false</text>
</g>
<!-- Critical Disk
Trap -->
<g id="${uniqueid}_node5" class="node"><title>Critical Disk
Trap</title>
<g id="a_${uniqueid}_node5"><a xlink:href="#4855300048244650" xlink:title="com.watch4net.alerting.action.SNMPTrapAction">
<ellipse fill="#4daf4a" stroke="black" cx="519.903" cy="-153" rx="80.7205" ry="26.7407"/>
<text text-anchor="middle" x="519.903" y="-156.8" font-family="Times,serif" font-size="14.00" fill="white">Critical Disk</text>
<text text-anchor="middle" x="519.903" y="-141.8" font-family="Times,serif" font-size="14.00" fill="white">Trap</text>
</a>
</g>
</g>
<!-- Bad Disk&#45;&gt;Critical Disk
Trap -->
<g id="${uniqueid}_edge2" class="edge"><title>Bad Disk:se&#45;&gt;Critical Disk
Trap:w</title>
<path fill="none" stroke="black" d="M319.943,-153C354.96,-117.983 382.385,-148.349 429.036,-152.537"/>
<polygon fill="black" stroke="black" points="429.145,-156.045 439.293,-153 429.461,-149.052 429.145,-156.045"/>
<text text-anchor="middle" x="304.443" y="-141.8" font-family="Times,serif" font-size="14.00">true</text>
</g>
<!-- Case -->
<g id="${uniqueid}_node2" class="node"><title>Case</title>
<g id="a_${uniqueid}_node2"><a xlink:href="#4855300048235585" xlink:title="com.watch4net.alerting.operation.CaseOperation">
<polygon fill="#377eb8" stroke="black" points="170.593,-134 116.593,-134 116.593,-98 170.593,-98 170.593,-134"/>
<text text-anchor="middle" x="143.593" y="-112.3" font-family="Times,serif" font-size="14.00" fill="white">Case</text>
</a>
</g>
</g>
<!-- Case&#45;&gt;Bad Disk -->
<g id="${uniqueid}_edge3" class="edge"><title>Case:e&#45;&gt;Bad Disk:w</title>
<path fill="none" stroke="black" d="M170.593,-116C202.618,-116 198.592,-156.809 223.013,-165.418"/>
<polygon fill="black" stroke="black" points="222.516,-168.883 232.943,-167 223.618,-161.97 222.516,-168.883"/>
</g>
<!-- Suspect Disk -->
<g id="${uniqueid}_node7" class="node"><title>Suspect Disk</title>
<g id="a_${uniqueid}_node7"><a xlink:href="#4855300048255358" xlink:title="com.watch4net.alerting.operation.comparator.ConstantComparatorOperation">
<polygon fill="#ff7f00" stroke="black" points="304.943,-84 206.743,-66 304.943,-48 403.143,-66 304.943,-84"/>
<text text-anchor="middle" x="304.943" y="-62.3" font-family="Times,serif" font-size="14.00" fill="white">Suspect Disk</text>
</a>
</g>
</g>
<!-- Case&#45;&gt;Suspect Disk -->
<g id="${uniqueid}_edge4" class="edge"><title>Case:e&#45;&gt;Suspect Disk:w</title>
<path fill="none" stroke="black" d="M170.593,-116C193.697,-116 183.948,-80.4043 196.785,-69.2806"/>
<polygon fill="black" stroke="black" points="198.22,-72.4915 206.593,-66 195.999,-65.853 198.22,-72.4915"/>
</g>
<!-- Clear Disk
Warning -->
<g id="${uniqueid}_node4" class="node"><title>Clear Disk
Warning</title>
<g id="a_${uniqueid}_node4"><a xlink:href="#1431552486952" xlink:title="com.watch4net.alerting.action.SNMPTrapAction">
<ellipse fill="#4daf4a" stroke="black" cx="519.903" cy="-81" rx="65.1077" ry="26.7407"/>
<text text-anchor="middle" x="519.903" y="-84.8" font-family="Times,serif" font-size="14.00" fill="white">Clear Disk</text>
<text text-anchor="middle" x="519.903" y="-69.8" font-family="Times,serif" font-size="14.00" fill="white">Warning</text>
</a>
</g>
</g>
<!-- Health -->
<g id="${uniqueid}_node6" class="node"><title>Health</title>
<g id="a_${uniqueid}_node6"><a xlink:href="#4855300048191361" xlink:title="com.watch4net.alerting.operation.FilteredEntryPoint">
<ellipse fill="#984ea3" stroke="black" cx="40.2964" cy="-116" rx="40.0939" ry="18"/>
<text text-anchor="middle" x="40.2964" y="-112.3" font-family="Times,serif" font-size="14.00" fill="white">Health</text>
</a>
</g>
</g>
<!-- Health&#45;&gt;Case -->
<g id="${uniqueid}_edge5" class="edge"><title>Health:e&#45;&gt;Case:w</title>
<path fill="none" stroke="black" d="M80.5928,-116C92.5928,-116 97.8428,-116 106.468,-116"/>
<polygon fill="black" stroke="black" points="106.593,-119.5 116.593,-116 106.593,-112.5 106.593,-119.5"/>
</g>
<!-- Suspect Disk&#45;&gt;Clear Disk
Warning -->
<g id="${uniqueid}_edge6" class="edge"><title>Suspect Disk:ne&#45;&gt;Clear Disk
Warning:w</title>
<path fill="none" stroke="black" d="M318.943,-81C319.936,-81.9938 318.803,-83.1782 319.943,-84 349.995,-105.66 366.264,-85.0965 403.293,-84 421.944,-83.4477 428.959,-81.7528 443.616,-81.1865"/>
<polygon fill="black" stroke="black" points="443.968,-84.6808 453.903,-81 443.841,-77.6819 443.968,-84.6808"/>
<text text-anchor="middle" x="299.943" y="-84.8" font-family="Times,serif" font-size="14.00">false</text>
</g>
<!-- Warning Notify -->
<g id="${uniqueid}_node8" class="node"><title>Warning Notify</title>
<g id="a_${uniqueid}_node8"><a xlink:href="#4855300048261176" xlink:title="com.watch4net.alerting.action.SNMPTrapAction">
<ellipse fill="#4daf4a" stroke="black" cx="519.903" cy="-18" rx="79.0865" ry="18"/>
<text text-anchor="middle" x="519.903" y="-14.3" font-family="Times,serif" font-size="14.00" fill="white">Warning Notify</text>
</a>
</g>
</g>
<!-- Suspect Disk&#45;&gt;Warning Notify -->
<g id="${uniqueid}_edge7" class="edge"><title>Suspect Disk:se&#45;&gt;Warning Notify:w</title>
<path fill="none" stroke="black" d="M320.943,-51C357.067,-14.8761 381.391,-17.4602 429.09,-17.9434"/>
<polygon fill="black" stroke="black" points="429.273,-21.4444 439.293,-18 429.312,-14.4445 429.273,-21.4444"/>
<text text-anchor="middle" x="305.443" y="-39.8" font-family="Times,serif" font-size="14.00">true</text>
</g>
</g>
</svg>
