<?xml version="1.0" encoding="UTF-8" standalone="no"?>
<!DOCTYPE svg PUBLIC "-//W3C//DTD SVG 1.1//EN"
 "http://www.w3.org/Graphics/SVG/1.1/DTD/svg11.dtd">
<!-- Generated by graphviz version 2.38.0 (20140413.2041)
 -->
<!-- Title: EMC Isilon Alert Definitions/FanFailure/Isilon FanFailure&#45;Generic Pages: 1 -->
<svg width="865pt" height="261pt"
 viewBox="0.00 0.00 865.18 261.48" xmlns="http://www.w3.org/2000/svg" xmlns:xlink="http://www.w3.org/1999/xlink">
<g id="${uniqueid}" class="graph" transform="scale(1 1) rotate(0) translate(4 257.477)">
<title>EMC Isilon Alert Definitions/FanFailure/Isilon FanFailure&#45;Generic</title>
<polygon fill="white" stroke="none" points="-4,4 -4,-257.477 861.181,-257.477 861.181,4 -4,4"/>
<!-- Fan&#45;Failure -->
<g id="${uniqueid}_node1" class="node"><title>Fan&#45;Failure</title>
<g id="a_${uniqueid}_node1"><a xlink:href="#1418919923170" xlink:title="com.watch4net.alerting.operation.CaseOperation">
<polygon fill="#377eb8" stroke="black" points="317.434,-133 218.434,-133 218.434,-97 317.434,-97 317.434,-133"/>
<text text-anchor="middle" x="267.934" y="-111.3" font-family="Times,serif" font-size="14.00" fill="white">Fan&#45;Failure</text>
</a>
</g>
</g>
<!-- Isilon Fan
Failure&#45;Generic&#45;
Supply1&#45;0010 -->
<g id="${uniqueid}_node5" class="node"><title>Isilon Fan
Failure&#45;Generic&#45;
Supply1&#45;0010</title>
<g id="a_${uniqueid}_node5"><a xlink:href="#1728494722751963" xlink:title="com.watch4net.alerting.operation.comparator.StringComparatorOperation">
<polygon fill="#ff7f00" stroke="black" points="490.434,-230 353.434,-177 490.434,-124 627.434,-177 490.434,-230"/>
<text text-anchor="middle" x="490.434" y="-188.3" font-family="Times,serif" font-size="14.00" fill="white">Isilon Fan</text>
<text text-anchor="middle" x="490.434" y="-173.3" font-family="Times,serif" font-size="14.00" fill="white">Failure&#45;Generic&#45;</text>
<text text-anchor="middle" x="490.434" y="-158.3" font-family="Times,serif" font-size="14.00" fill="white">Supply1&#45;0010</text>
</a>
</g>
</g>
<!-- Fan&#45;Failure&#45;&gt;Isilon Fan
Failure&#45;Generic&#45;
Supply1&#45;0010 -->
<g id="${uniqueid}_edge1" class="edge"><title>Fan&#45;Failure:e&#45;&gt;Isilon Fan
Failure&#45;Generic&#45;
Supply1&#45;0010:w</title>
<path fill="none" stroke="black" d="M317.434,-115C345.066,-115 327.884,-161.625 343.612,-174.01"/>
<polygon fill="black" stroke="black" points="342.848,-177.435 353.434,-177 344.887,-170.739 342.848,-177.435"/>
</g>
<!-- Isilon Fan
Failure&#45;Generic&#45;
Supply1&#45;0035 -->
<g id="${uniqueid}_node6" class="node"><title>Isilon Fan
Failure&#45;Generic&#45;
Supply1&#45;0035</title>
<g id="a_${uniqueid}_node6"><a xlink:href="#1728494722677339" xlink:title="com.watch4net.alerting.operation.comparator.StringComparatorOperation">
<polygon fill="#ff7f00" stroke="black" points="490.434,-106 353.434,-53 490.434,-2.13163e-14 627.434,-53 490.434,-106"/>
<text text-anchor="middle" x="490.434" y="-64.3" font-family="Times,serif" font-size="14.00" fill="white">Isilon Fan</text>
<text text-anchor="middle" x="490.434" y="-49.3" font-family="Times,serif" font-size="14.00" fill="white">Failure&#45;Generic&#45;</text>
<text text-anchor="middle" x="490.434" y="-34.3" font-family="Times,serif" font-size="14.00" fill="white">Supply1&#45;0035</text>
</a>
</g>
</g>
<!-- Fan&#45;Failure&#45;&gt;Isilon Fan
Failure&#45;Generic&#45;
Supply1&#45;0035 -->
<g id="${uniqueid}_edge2" class="edge"><title>Fan&#45;Failure:e&#45;&gt;Isilon Fan
Failure&#45;Generic&#45;
Supply1&#45;0035:w</title>
<path fill="none" stroke="black" d="M317.434,-115C345.066,-115 327.884,-68.3751 343.612,-55.9904"/>
<polygon fill="black" stroke="black" points="344.887,-59.261 353.434,-53 342.848,-52.5645 344.887,-59.261"/>
</g>
<!-- Isilon Fan
Failure&#45;Chassis
ISI&#45;Supply2 -->
<g id="${uniqueid}_node2" class="node"><title>Isilon Fan
Failure&#45;Chassis
ISI&#45;Supply2</title>
<g id="a_${uniqueid}_node2"><a xlink:href="#1728494722844720" xlink:title="com.watch4net.alerting.action.SNMPTrapAction">
<ellipse fill="#4daf4a" stroke="black" cx="760.307" cy="-216" rx="91.4341" ry="37.4533"/>
<text text-anchor="middle" x="760.307" y="-227.3" font-family="Times,serif" font-size="14.00" fill="white">Isilon Fan</text>
<text text-anchor="middle" x="760.307" y="-212.3" font-family="Times,serif" font-size="14.00" fill="white">Failure&#45;Chassis</text>
<text text-anchor="middle" x="760.307" y="-197.3" font-family="Times,serif" font-size="14.00" fill="white">ISI&#45;Supply2</text>
</a>
</g>
</g>
<!-- Isilon Fan
Failure&#45;Generic -->
<g id="${uniqueid}_node3" class="node"><title>Isilon Fan
Failure&#45;Generic</title>
<g id="a_${uniqueid}_node3"><a xlink:href="#1728494722564277" xlink:title="com.watch4net.alerting.operation.FilteredEntryPoint">
<ellipse fill="#984ea3" stroke="black" cx="91.2168" cy="-115" rx="91.4341" ry="26.7407"/>
<text text-anchor="middle" x="91.2168" y="-118.8" font-family="Times,serif" font-size="14.00" fill="white">Isilon Fan</text>
<text text-anchor="middle" x="91.2168" y="-103.8" font-family="Times,serif" font-size="14.00" fill="white">Failure&#45;Generic</text>
</a>
</g>
</g>
<!-- Isilon Fan
Failure&#45;Generic&#45;&gt;Fan&#45;Failure -->
<g id="${uniqueid}_edge3" class="edge"><title>Isilon Fan
Failure&#45;Generic:e&#45;&gt;Fan&#45;Failure:w</title>
<path fill="none" stroke="black" d="M182.434,-115C194.434,-115 199.684,-115 208.309,-115"/>
<polygon fill="black" stroke="black" points="208.434,-118.5 218.434,-115 208.434,-111.5 208.434,-118.5"/>
</g>
<!-- Isilon Fan
Failure&#45;Generic&#45;
Supply1 -->
<g id="${uniqueid}_node4" class="node"><title>Isilon Fan
Failure&#45;Generic&#45;
Supply1</title>
<g id="a_${uniqueid}_node4"><a xlink:href="#1728494722938153" xlink:title="com.watch4net.alerting.action.SNMPTrapAction">
<ellipse fill="#4daf4a" stroke="black" cx="760.307" cy="-88" rx="96.7474" ry="37.4533"/>
<text text-anchor="middle" x="760.307" y="-99.3" font-family="Times,serif" font-size="14.00" fill="white">Isilon Fan</text>
<text text-anchor="middle" x="760.307" y="-84.3" font-family="Times,serif" font-size="14.00" fill="white">Failure&#45;Generic&#45;</text>
<text text-anchor="middle" x="760.307" y="-69.3" font-family="Times,serif" font-size="14.00" fill="white">Supply1</text>
</a>
</g>
</g>
<!-- Isilon Fan
Failure&#45;Generic&#45;
Supply1&#45;0010&#45;&gt;Isilon Fan
Failure&#45;Chassis
ISI&#45;Supply2 -->
<g id="${uniqueid}_edge4" class="edge"><title>Isilon Fan
Failure&#45;Generic&#45;
Supply1&#45;0010:ne&#45;&gt;Isilon Fan
Failure&#45;Chassis
ISI&#45;Supply2:w</title>
<path fill="none" stroke="black" d="M528.434,-216C530.639,-218.205 527.151,-227.875 529.434,-230 561.31,-259.681 584.497,-237.319 627.434,-230 642.043,-227.51 646.729,-220.233 657.283,-217.274"/>
<polygon fill="black" stroke="black" points="657.828,-220.733 667.307,-216 656.946,-213.788 657.828,-220.733"/>
<text text-anchor="middle" x="509.434" y="-219.8" font-family="Times,serif" font-size="14.00">false</text>
</g>
<!-- Isilon Fan
Failure&#45;Generic&#45;
Supply1&#45;0010&#45;&gt;Isilon Fan
Failure&#45;Generic&#45;
Supply1 -->
<g id="${uniqueid}_edge5" class="edge"><title>Isilon Fan
Failure&#45;Generic&#45;
Supply1&#45;0010:se&#45;&gt;Isilon Fan
Failure&#45;Generic&#45;
Supply1:w</title>
<path fill="none" stroke="black" d="M530.434,-138C561.763,-106.671 587.313,-133.798 627.434,-115 641.866,-108.238 643.457,-95.1077 653.628,-90.0525"/>
<polygon fill="black" stroke="black" points="654.363,-93.4747 663.434,-88 652.929,-86.6231 654.363,-93.4747"/>
<text text-anchor="middle" x="514.934" y="-126.8" font-family="Times,serif" font-size="14.00">true</text>
</g>
<!-- Isilon Fan
Failure&#45;Generic&#45;
Supply1&#45;0035&#45;&gt;Isilon Fan
Failure&#45;Generic&#45;
Supply1 -->
<g id="${uniqueid}_edge6" class="edge"><title>Isilon Fan
Failure&#45;Generic&#45;
Supply1&#45;0035:e&#45;&gt;Isilon Fan
Failure&#45;Generic&#45;
Supply1:w</title>
<path fill="none" stroke="black" d="M627.434,-53C645.565,-53 643.267,-76.1055 653.737,-84.77"/>
<polygon fill="black" stroke="black" points="652.84,-88.1602 663.434,-88 655.052,-81.519 652.84,-88.1602"/>
<text text-anchor="middle" x="642.934" y="-41.8" font-family="Times,serif" font-size="14.00">true</text>
</g>
</g>
</svg>
