<?xml version="1.0" encoding="UTF-8" standalone="no"?>
<!DOCTYPE svg PUBLIC "-//W3C//DTD SVG 1.1//EN"
 "http://www.w3.org/Graphics/SVG/1.1/DTD/svg11.dtd">
<!-- Generated by graphviz version 2.38.0 (20140413.2041)
 -->
<!-- Title: EMC VMAX Alert Definitions/VMAX&#45;Array/High Read Throughput Pages: 1 -->
<svg width="957pt" height="482pt"
 viewBox="0.00 0.00 956.57 482.35" xmlns="http://www.w3.org/2000/svg" xmlns:xlink="http://www.w3.org/1999/xlink">
<g id="${uniqueid}" class="graph" transform="scale(1 1) rotate(0) translate(4 478.347)">
<title>EMC VMAX Alert Definitions/VMAX&#45;Array/High Read Throughput</title>
<polygon fill="white" stroke="none" points="-4,4 -4,-478.347 952.566,-478.347 952.566,4 -4,4"/>
<!-- Comparator Reads
PerSecond_CRIT -->
<g id="${uniqueid}_node1" class="node"><title>Comparator Reads
PerSecond_CRIT</title>
<g id="a_${uniqueid}_node1"><a xlink:href="#103868961141743" xlink:title="com.watch4net.alerting.operation.comparator.ConstantComparatorOperation">
<polygon fill="#ff7f00" stroke="black" points="555.333,-422.87 404.333,-384.87 555.333,-346.87 706.333,-384.87 555.333,-422.87"/>
<text text-anchor="middle" x="555.333" y="-388.67" font-family="Times,serif" font-size="14.00" fill="white">Comparator Reads</text>
<text text-anchor="middle" x="555.333" y="-373.67" font-family="Times,serif" font-size="14.00" fill="white">PerSecond_CRIT</text>
</a>
</g>
</g>
<!-- ReadsPerSecond_
Crit -->
<g id="${uniqueid}_node6" class="node"><title>ReadsPerSecond_
Crit</title>
<g id="a_${uniqueid}_node6"><a xlink:href="#103868961163056" xlink:title="com.watch4net.alerting.action.SNMPTrapAction">
<ellipse fill="#4daf4a" stroke="black" cx="847.449" cy="-354.87" rx="101.233" ry="26.7407"/>
<text text-anchor="middle" x="847.449" y="-358.67" font-family="Times,serif" font-size="14.00" fill="white">ReadsPerSecond_</text>
<text text-anchor="middle" x="847.449" y="-343.67" font-family="Times,serif" font-size="14.00" fill="white">Crit</text>
</a>
</g>
</g>
<!-- Comparator Reads
PerSecond_CRIT&#45;&gt;ReadsPerSecond_
Crit -->
<g id="${uniqueid}_edge2" class="edge"><title>Comparator Reads
PerSecond_CRIT:se&#45;&gt;ReadsPerSecond_
Crit:w</title>
<path fill="none" stroke="black" d="M586.333,-354.87C634.161,-307.042 671.424,-350.199 736.144,-354.528"/>
<polygon fill="black" stroke="black" points="736.221,-358.032 746.333,-354.87 736.456,-351.036 736.221,-358.032"/>
<text text-anchor="middle" x="570.833" y="-343.67" font-family="Times,serif" font-size="14.00">true</text>
</g>
<!-- SNMP_ReadsPer
Second_CRIT_
Clear -->
<g id="${uniqueid}_node9" class="node"><title>SNMP_ReadsPer
Second_CRIT_
Clear</title>
<g id="a_${uniqueid}_node9"><a xlink:href="#103868961181824" xlink:title="com.watch4net.alerting.action.SNMPTrapAction">
<ellipse fill="#4daf4a" stroke="black" cx="847.449" cy="-436.87" rx="97.6615" ry="37.4533"/>
<text text-anchor="middle" x="847.449" y="-448.17" font-family="Times,serif" font-size="14.00" fill="white">SNMP_ReadsPer</text>
<text text-anchor="middle" x="847.449" y="-433.17" font-family="Times,serif" font-size="14.00" fill="white">Second_CRIT_</text>
<text text-anchor="middle" x="847.449" y="-418.17" font-family="Times,serif" font-size="14.00" fill="white">Clear</text>
</a>
</g>
</g>
<!-- Comparator Reads
PerSecond_CRIT&#45;&gt;SNMP_ReadsPer
Second_CRIT_
Clear -->
<g id="${uniqueid}_edge1" class="edge"><title>Comparator Reads
PerSecond_CRIT:ne&#45;&gt;SNMP_ReadsPer
Second_CRIT_
Clear:w</title>
<path fill="none" stroke="black" d="M584.333,-414.87C586.867,-417.404 582.751,-420.386 585.333,-422.87 635.313,-470.95 672.1,-440.096 738.442,-437.098"/>
<polygon fill="black" stroke="black" points="738.531,-440.597 748.449,-436.87 738.372,-433.598 738.531,-440.597"/>
<text text-anchor="middle" x="567.333" y="-418.67" font-family="Times,serif" font-size="14.00">false</text>
</g>
<!-- Comparator Reads
PerSecond_MINOR -->
<g id="${uniqueid}_node2" class="node"><title>Comparator Reads
PerSecond_MINOR</title>
<g id="a_${uniqueid}_node2"><a xlink:href="#103868961232386" xlink:title="com.watch4net.alerting.operation.comparator.ConstantComparatorOperation">
<polygon fill="#ff7f00" stroke="black" points="555.333,-269.87 400.333,-231.87 555.333,-193.87 710.333,-231.87 555.333,-269.87"/>
<text text-anchor="middle" x="555.333" y="-235.67" font-family="Times,serif" font-size="14.00" fill="white">Comparator Reads</text>
<text text-anchor="middle" x="555.333" y="-220.67" font-family="Times,serif" font-size="14.00" fill="white">PerSecond_MINOR</text>
</a>
</g>
</g>
<!-- ReadsPerSecond_
Minor -->
<g id="${uniqueid}_node8" class="node"><title>ReadsPerSecond_
Minor</title>
<g id="a_${uniqueid}_node8"><a xlink:href="#103868961259279" xlink:title="com.watch4net.alerting.action.SNMPTrapAction">
<ellipse fill="#4daf4a" stroke="black" cx="847.449" cy="-190.87" rx="101.233" ry="26.7407"/>
<text text-anchor="middle" x="847.449" y="-194.67" font-family="Times,serif" font-size="14.00" fill="white">ReadsPerSecond_</text>
<text text-anchor="middle" x="847.449" y="-179.67" font-family="Times,serif" font-size="14.00" fill="white">Minor</text>
</a>
</g>
</g>
<!-- Comparator Reads
PerSecond_MINOR&#45;&gt;ReadsPerSecond_
Minor -->
<g id="${uniqueid}_edge4" class="edge"><title>Comparator Reads
PerSecond_MINOR:se&#45;&gt;ReadsPerSecond_
Minor:w</title>
<path fill="none" stroke="black" d="M587.333,-200.87C634.956,-153.247 671.775,-187.172 736.19,-190.599"/>
<polygon fill="black" stroke="black" points="736.243,-194.101 746.333,-190.87 736.43,-187.104 736.243,-194.101"/>
<text text-anchor="middle" x="571.833" y="-189.67" font-family="Times,serif" font-size="14.00">true</text>
</g>
<!-- SNMP_ReadsPer
Second_Minor_
Clear -->
<g id="${uniqueid}_node11" class="node"><title>SNMP_ReadsPer
Second_Minor_
Clear</title>
<g id="a_${uniqueid}_node11"><a xlink:href="#103868961246367" xlink:title="com.watch4net.alerting.action.SNMPTrapAction">
<ellipse fill="#4daf4a" stroke="black" cx="847.449" cy="-272.87" rx="97.6615" ry="37.4533"/>
<text text-anchor="middle" x="847.449" y="-284.17" font-family="Times,serif" font-size="14.00" fill="white">SNMP_ReadsPer</text>
<text text-anchor="middle" x="847.449" y="-269.17" font-family="Times,serif" font-size="14.00" fill="white">Second_Minor_</text>
<text text-anchor="middle" x="847.449" y="-254.17" font-family="Times,serif" font-size="14.00" fill="white">Clear</text>
</a>
</g>
</g>
<!-- Comparator Reads
PerSecond_MINOR&#45;&gt;SNMP_ReadsPer
Second_Minor_
Clear -->
<g id="${uniqueid}_edge3" class="edge"><title>Comparator Reads
PerSecond_MINOR:ne&#45;&gt;SNMP_ReadsPer
Second_Minor_
Clear:w</title>
<path fill="none" stroke="black" d="M585.333,-262.87C587.555,-265.092 583.978,-267.789 586.333,-269.87 637.698,-315.258 672.822,-277.017 738.144,-273.174"/>
<polygon fill="black" stroke="black" points="738.557,-276.663 748.449,-272.87 738.35,-269.666 738.557,-276.663"/>
<text text-anchor="middle" x="568.333" y="-266.67" font-family="Times,serif" font-size="14.00">false</text>
</g>
<!-- Comparator Reads
PerSecond_Major -->
<g id="${uniqueid}_node3" class="node"><title>Comparator Reads
PerSecond_Major</title>
<g id="a_${uniqueid}_node3"><a xlink:href="#103868961192842" xlink:title="com.watch4net.alerting.operation.comparator.ConstantComparatorOperation">
<polygon fill="#ff7f00" stroke="black" points="555.333,-116.87 404.333,-78.8701 555.333,-40.8701 706.333,-78.8701 555.333,-116.87"/>
<text text-anchor="middle" x="555.333" y="-82.6701" font-family="Times,serif" font-size="14.00" fill="white">Comparator Reads</text>
<text text-anchor="middle" x="555.333" y="-67.6701" font-family="Times,serif" font-size="14.00" fill="white">PerSecond_Major</text>
</a>
</g>
</g>
<!-- ReadsPerSecond_
Major -->
<g id="${uniqueid}_node7" class="node"><title>ReadsPerSecond_
Major</title>
<g id="a_${uniqueid}_node7"><a xlink:href="#103868961220761" xlink:title="com.watch4net.alerting.action.SNMPTrapAction">
<ellipse fill="#4daf4a" stroke="black" cx="847.449" cy="-26.8701" rx="101.233" ry="26.7407"/>
<text text-anchor="middle" x="847.449" y="-30.6701" font-family="Times,serif" font-size="14.00" fill="white">ReadsPerSecond_</text>
<text text-anchor="middle" x="847.449" y="-15.6701" font-family="Times,serif" font-size="14.00" fill="white">Major</text>
</a>
</g>
</g>
<!-- Comparator Reads
PerSecond_Major&#45;&gt;ReadsPerSecond_
Major -->
<g id="${uniqueid}_edge6" class="edge"><title>Comparator Reads
PerSecond_Major:se&#45;&gt;ReadsPerSecond_
Major:w</title>
<path fill="none" stroke="black" d="M586.333,-48.8701C634.611,-0.592134 670.863,-24.2514 736.058,-26.677"/>
<polygon fill="black" stroke="black" points="736.269,-30.1815 746.333,-26.8701 736.401,-23.1827 736.269,-30.1815"/>
<text text-anchor="middle" x="570.833" y="-37.6701" font-family="Times,serif" font-size="14.00">true</text>
</g>
<!-- SNMP_ReadsPer
Second_Major_
Clear -->
<g id="${uniqueid}_node10" class="node"><title>SNMP_ReadsPer
Second_Major_
Clear</title>
<g id="a_${uniqueid}_node10"><a xlink:href="#103868961207357" xlink:title="com.watch4net.alerting.action.SNMPTrapAction">
<ellipse fill="#4daf4a" stroke="black" cx="847.449" cy="-108.87" rx="97.6615" ry="37.4533"/>
<text text-anchor="middle" x="847.449" y="-120.17" font-family="Times,serif" font-size="14.00" fill="white">SNMP_ReadsPer</text>
<text text-anchor="middle" x="847.449" y="-105.17" font-family="Times,serif" font-size="14.00" fill="white">Second_Major_</text>
<text text-anchor="middle" x="847.449" y="-90.1701" font-family="Times,serif" font-size="14.00" fill="white">Clear</text>
</a>
</g>
</g>
<!-- Comparator Reads
PerSecond_Major&#45;&gt;SNMP_ReadsPer
Second_Major_
Clear -->
<g id="${uniqueid}_edge5" class="edge"><title>Comparator Reads
PerSecond_Major:ne&#45;&gt;SNMP_ReadsPer
Second_Major_
Clear:w</title>
<path fill="none" stroke="black" d="M584.333,-108.87C586.867,-111.404 582.647,-114.499 585.333,-116.87 625.649,-152.46 652.792,-121.91 706.333,-116.87 721.449,-115.447 727.119,-111.212 738.44,-109.55"/>
<polygon fill="black" stroke="black" points="738.71,-113.04 748.449,-108.87 738.235,-106.056 738.71,-113.04"/>
<text text-anchor="middle" x="567.333" y="-112.67" font-family="Times,serif" font-size="14.00">false</text>
</g>
<!-- Read per second
of Array filter -->
<g id="${uniqueid}_node4" class="node"><title>Read per second
of Array filter</title>
<g id="a_${uniqueid}_node4"><a xlink:href="#103868961084428" xlink:title="com.watch4net.alerting.operation.FilteredEntryPoint">
<ellipse fill="#984ea3" stroke="black" cx="96.1665" cy="-231.87" rx="96.3333" ry="26.7407"/>
<text text-anchor="middle" x="96.1665" y="-235.67" font-family="Times,serif" font-size="14.00" fill="white">Read per second</text>
<text text-anchor="middle" x="96.1665" y="-220.67" font-family="Times,serif" font-size="14.00" fill="white">of Array filter</text>
</a>
</g>
</g>
<!-- ReadsPerSecond
Case -->
<g id="${uniqueid}_node5" class="node"><title>ReadsPerSecond
Case</title>
<g id="a_${uniqueid}_node5"><a xlink:href="#103868961130279" xlink:title="com.watch4net.alerting.operation.CaseOperation">
<polygon fill="#377eb8" stroke="black" points="364.333,-250.87 228.333,-250.87 228.333,-212.87 364.333,-212.87 364.333,-250.87"/>
<text text-anchor="middle" x="296.333" y="-235.67" font-family="Times,serif" font-size="14.00" fill="white">ReadsPerSecond</text>
<text text-anchor="middle" x="296.333" y="-220.67" font-family="Times,serif" font-size="14.00" fill="white">Case</text>
</a>
</g>
</g>
<!-- Read per second
of Array filter&#45;&gt;ReadsPerSecond
Case -->
<g id="${uniqueid}_edge7" class="edge"><title>Read per second
of Array filter:e&#45;&gt;ReadsPerSecond
Case:w</title>
<path fill="none" stroke="black" d="M192.333,-231.87C204.333,-231.87 209.583,-231.87 218.208,-231.87"/>
<polygon fill="black" stroke="black" points="218.333,-235.37 228.333,-231.87 218.333,-228.37 218.333,-235.37"/>
</g>
<!-- ReadsPerSecond
Case&#45;&gt;Comparator Reads
PerSecond_CRIT -->
<g id="${uniqueid}_edge8" class="edge"><title>ReadsPerSecond
Case:e&#45;&gt;Comparator Reads
PerSecond_CRIT:w</title>
<path fill="none" stroke="black" d="M364.333,-231.87C430.67,-231.87 343.731,-368.593 393.303,-383.547"/>
<polygon fill="black" stroke="black" points="392.961,-387.033 403.333,-384.87 393.876,-380.093 392.961,-387.033"/>
</g>
<!-- ReadsPerSecond
Case&#45;&gt;Comparator Reads
PerSecond_MINOR -->
<g id="${uniqueid}_edge9" class="edge"><title>ReadsPerSecond
Case:e&#45;&gt;Comparator Reads
PerSecond_MINOR:w</title>
<path fill="none" stroke="black" d="M364.333,-231.87C376.333,-231.87 381.583,-231.87 390.208,-231.87"/>
<polygon fill="black" stroke="black" points="390.333,-235.37 400.333,-231.87 390.333,-228.37 390.333,-235.37"/>
</g>
<!-- ReadsPerSecond
Case&#45;&gt;Comparator Reads
PerSecond_Major -->
<g id="${uniqueid}_edge10" class="edge"><title>ReadsPerSecond
Case:e&#45;&gt;Comparator Reads
PerSecond_Major:w</title>
<path fill="none" stroke="black" d="M364.333,-231.87C430.67,-231.87 343.731,-95.1469 393.303,-80.1928"/>
<polygon fill="black" stroke="black" points="393.876,-83.6475 403.333,-78.8701 392.961,-76.7076 393.876,-83.6475"/>
</g>
</g>
</svg>
