<?xml version="1.0" encoding="UTF-8" standalone="no"?>
<!DOCTYPE svg PUBLIC "-//W3C//DTD SVG 1.1//EN"
 "http://www.w3.org/Graphics/SVG/1.1/DTD/svg11.dtd">
<!-- Generated by graphviz version 2.38.0 (20140413.2041)
 -->
<!-- Title: EMC ScaleIO Alert Definitions/Storage Pool/Utilization Pages: 1 -->
<svg width="820pt" height="278pt"
 viewBox="0.00 0.00 819.79 277.74" xmlns="http://www.w3.org/2000/svg" xmlns:xlink="http://www.w3.org/1999/xlink">
<g id="${uniqueid}" class="graph" transform="scale(1 1) rotate(0) translate(4 273.74)">
<title>EMC ScaleIO Alert Definitions/Storage Pool/Utilization</title>
<polygon fill="white" stroke="none" points="-4,4 -4,-273.74 815.794,-273.74 815.794,4 -4,4"/>
<!-- Action
CLEARCritical -->
<g id="${uniqueid}_node1" class="node"><title>Action
CLEARCritical</title>
<g id="a_${uniqueid}_node1"><a xlink:href="#1426068835436" xlink:title="com.watch4net.alerting.action.SNMPTrapAction">
<ellipse fill="#4daf4a" stroke="black" cx="720.577" cy="-242.87" rx="86.9483" ry="26.7407"/>
<text text-anchor="middle" x="720.577" y="-246.67" font-family="Times,serif" font-size="14.00" fill="white">Action</text>
<text text-anchor="middle" x="720.577" y="-231.67" font-family="Times,serif" font-size="14.00" fill="white">CLEARCritical</text>
</a>
</g>
</g>
<!-- Action
CLEARWarning -->
<g id="${uniqueid}_node2" class="node"><title>Action
CLEARWarning</title>
<g id="a_${uniqueid}_node2"><a xlink:href="#1426069834674" xlink:title="com.watch4net.alerting.action.SNMPTrapAction">
<ellipse fill="#4daf4a" stroke="black" cx="720.577" cy="-98.8701" rx="91.4341" ry="26.7407"/>
<text text-anchor="middle" x="720.577" y="-102.67" font-family="Times,serif" font-size="14.00" fill="white">Action</text>
<text text-anchor="middle" x="720.577" y="-87.6701" font-family="Times,serif" font-size="14.00" fill="white">CLEARWarning</text>
</a>
</g>
</g>
<!-- Action
SETCritical -->
<g id="${uniqueid}_node3" class="node"><title>Action
SETCritical</title>
<g id="a_${uniqueid}_node3"><a xlink:href="#1426068754262" xlink:title="com.watch4net.alerting.action.SNMPTrapAction">
<ellipse fill="#4daf4a" stroke="black" cx="720.577" cy="-170.87" rx="70.0071" ry="26.7407"/>
<text text-anchor="middle" x="720.577" y="-174.67" font-family="Times,serif" font-size="14.00" fill="white">Action</text>
<text text-anchor="middle" x="720.577" y="-159.67" font-family="Times,serif" font-size="14.00" fill="white">SETCritical</text>
</a>
</g>
</g>
<!-- Action
SETWarning -->
<g id="${uniqueid}_node4" class="node"><title>Action
SETWarning</title>
<g id="a_${uniqueid}_node4"><a xlink:href="#1426069784191" xlink:title="com.watch4net.alerting.action.SNMPTrapAction">
<ellipse fill="#4daf4a" stroke="black" cx="720.577" cy="-26.8701" rx="74.4932" ry="26.7407"/>
<text text-anchor="middle" x="720.577" y="-30.6701" font-family="Times,serif" font-size="14.00" fill="white">Action</text>
<text text-anchor="middle" x="720.577" y="-15.6701" font-family="Times,serif" font-size="14.00" fill="white">SETWarning</text>
</a>
</g>
</g>
<!-- Threshold
Critical -->
<g id="${uniqueid}_node5" class="node"><title>Threshold
Critical</title>
<g id="a_${uniqueid}_node5"><a xlink:href="#1426068547310" xlink:title="com.watch4net.alerting.operation.comparator.ConstantComparatorOperation">
<polygon fill="#ff7f00" stroke="black" points="457.325,-235.87 369.325,-197.87 457.325,-159.87 545.325,-197.87 457.325,-235.87"/>
<text text-anchor="middle" x="457.325" y="-201.67" font-family="Times,serif" font-size="14.00" fill="white">Threshold</text>
<text text-anchor="middle" x="457.325" y="-186.67" font-family="Times,serif" font-size="14.00" fill="white">Critical</text>
</a>
</g>
</g>
<!-- Threshold
Critical&#45;&gt;Action
CLEARCritical -->
<g id="${uniqueid}_edge1" class="edge"><title>Threshold
Critical:ne&#45;&gt;Action
CLEARCritical:w</title>
<path fill="none" stroke="black" d="M483.325,-224.87C485.06,-226.606 482.552,-234.173 484.325,-235.87 529.458,-279.083 562.924,-246.709 622.396,-243.174"/>
<polygon fill="black" stroke="black" points="622.686,-246.667 632.577,-242.87 622.477,-239.67 622.686,-246.667"/>
<text text-anchor="middle" x="466.325" y="-228.67" font-family="Times,serif" font-size="14.00">false</text>
</g>
<!-- Threshold
Critical&#45;&gt;Action
SETCritical -->
<g id="${uniqueid}_edge2" class="edge"><title>Threshold
Critical:se&#45;&gt;Action
SETCritical:w</title>
<path fill="none" stroke="black" d="M485.325,-170.87C534.525,-121.67 572.834,-166.258 639.526,-170.546"/>
<polygon fill="black" stroke="black" points="639.469,-174.046 649.577,-170.87 639.695,-167.049 639.469,-174.046"/>
<text text-anchor="middle" x="469.825" y="-159.67" font-family="Times,serif" font-size="14.00">true</text>
</g>
<!-- ThresholdWarning -->
<g id="${uniqueid}_node6" class="node"><title>ThresholdWarning</title>
<g id="a_${uniqueid}_node6"><a xlink:href="#1426068573730" xlink:title="com.watch4net.alerting.operation.comparator.ConstantComparatorOperation">
<polygon fill="#ff7f00" stroke="black" points="457.325,-100.87 321.254,-82.8701 457.325,-64.8701 593.395,-82.8701 457.325,-100.87"/>
<text text-anchor="middle" x="457.325" y="-79.1701" font-family="Times,serif" font-size="14.00" fill="white">ThresholdWarning</text>
</a>
</g>
</g>
<!-- ThresholdWarning&#45;&gt;Action
CLEARWarning -->
<g id="${uniqueid}_edge3" class="edge"><title>ThresholdWarning:ne&#45;&gt;Action
CLEARWarning:w</title>
<path fill="none" stroke="black" d="M472.325,-98.8701C473.028,-99.5728 472.479,-100.348 473.325,-100.87 518.706,-128.917 540.032,-102.35 593.36,-100.87 605.374,-100.537 610.603,-99.5783 619.227,-99.12"/>
<polygon fill="black" stroke="black" points="619.449,-102.616 629.36,-98.8701 619.277,-95.6178 619.449,-102.616"/>
<text text-anchor="middle" x="455.325" y="-102.67" font-family="Times,serif" font-size="14.00">false</text>
</g>
<!-- ThresholdWarning&#45;&gt;Action
SETWarning -->
<g id="${uniqueid}_edge4" class="edge"><title>ThresholdWarning:se&#45;&gt;Action
SETWarning:w</title>
<path fill="none" stroke="black" d="M474.325,-66.8701C526.818,-14.3771 563.439,-25.6669 634.34,-26.7872"/>
<polygon fill="black" stroke="black" points="634.549,-30.2889 644.577,-26.8701 634.606,-23.2891 634.549,-30.2889"/>
<text text-anchor="middle" x="458.825" y="-55.6701" font-family="Times,serif" font-size="14.00">true</text>
</g>
<!-- Utilization -->
<g id="${uniqueid}_node7" class="node"><title>Utilization</title>
<g id="a_${uniqueid}_node7"><a xlink:href="#1426502710496" xlink:title="com.watch4net.alerting.operation.FilteredEntryPoint">
<ellipse fill="#984ea3" stroke="black" cx="59.1448" cy="-139.87" rx="59.2899" ry="18"/>
<text text-anchor="middle" x="59.1448" y="-136.17" font-family="Times,serif" font-size="14.00" fill="white">Utilization</text>
</a>
</g>
</g>
<!-- Utilization Case -->
<g id="${uniqueid}_node8" class="node"><title>Utilization Case</title>
<g id="a_${uniqueid}_node8"><a xlink:href="#1426068429054" xlink:title="com.watch4net.alerting.operation.CaseOperation">
<polygon fill="#377eb8" stroke="black" points="285.29,-157.87 154.29,-157.87 154.29,-121.87 285.29,-121.87 285.29,-157.87"/>
<text text-anchor="middle" x="219.79" y="-136.17" font-family="Times,serif" font-size="14.00" fill="white">Utilization Case</text>
</a>
</g>
</g>
<!-- Utilization&#45;&gt;Utilization Case -->
<g id="${uniqueid}_edge5" class="edge"><title>Utilization:e&#45;&gt;Utilization Case:w</title>
<path fill="none" stroke="black" d="M118.29,-139.87C130.29,-139.87 135.54,-139.87 144.165,-139.87"/>
<polygon fill="black" stroke="black" points="144.29,-143.37 154.29,-139.87 144.289,-136.37 144.29,-143.37"/>
</g>
<!-- Utilization Case&#45;&gt;Threshold
Critical -->
<g id="${uniqueid}_edge6" class="edge"><title>Utilization Case:e&#45;&gt;Threshold
Critical:w</title>
<path fill="none" stroke="black" d="M285.29,-139.87C326.613,-139.87 324.107,-188.745 358.239,-196.763"/>
<polygon fill="black" stroke="black" points="358.003,-200.258 368.325,-197.87 358.766,-193.3 358.003,-200.258"/>
</g>
<!-- Utilization Case&#45;&gt;ThresholdWarning -->
<g id="${uniqueid}_edge7" class="edge"><title>Utilization Case:e&#45;&gt;ThresholdWarning:w</title>
<path fill="none" stroke="black" d="M285.29,-139.87C311.039,-139.87 296.99,-97.7741 311.546,-85.9346"/>
<polygon fill="black" stroke="black" points="312.8,-89.2093 321.29,-82.8701 310.7,-82.5318 312.8,-89.2093"/>
</g>
</g>
</svg>
