<?xml version="1.0" encoding="UTF-8" standalone="no"?>
<!DOCTYPE svg PUBLIC "-//W3C//DTD SVG 1.1//EN"
 "http://www.w3.org/Graphics/SVG/1.1/DTD/svg11.dtd">
<!-- Generated by graphviz version 2.38.0 (20140413.2041)
 -->
<!-- Title: EMC VMAX Alert Definitions/VMAX&#45;Controller/High Hits Rate Pages: 1 -->
<svg width="878pt" height="334pt"
 viewBox="0.00 0.00 877.53 333.57" xmlns="http://www.w3.org/2000/svg" xmlns:xlink="http://www.w3.org/1999/xlink">
<g id="${uniqueid}" class="graph" transform="scale(1 1) rotate(0) translate(4 329.574)">
<title>EMC VMAX Alert Definitions/VMAX&#45;Controller/High Hits Rate</title>
<polygon fill="white" stroke="none" points="-4,4 -4,-329.574 873.532,-329.574 873.532,4 -4,4"/>
<!-- Cntrlr_ High_
Hits_Filter -->
<g id="${uniqueid}_node1" class="node"><title>Cntrlr_ High_
Hits_Filter</title>
<g id="a_${uniqueid}_node1"><a xlink:href="#1415742691921" xlink:title="com.watch4net.alerting.operation.FilteredEntryPoint">
<ellipse fill="#984ea3" stroke="black" cx="82.0244" cy="-162.279" rx="82.0488" ry="26.7407"/>
<text text-anchor="middle" x="82.0244" y="-166.079" font-family="Times,serif" font-size="14.00" fill="white">Cntrlr_ High_</text>
<text text-anchor="middle" x="82.0244" y="-151.079" font-family="Times,serif" font-size="14.00" fill="white">Hits_Filter</text>
</a>
</g>
</g>
<!-- Cntrlr_Hits_
Rate_Case -->
<g id="${uniqueid}_node2" class="node"><title>Cntrlr_Hits_
Rate_Case</title>
<g id="a_${uniqueid}_node2"><a xlink:href="#1415742800904" xlink:title="com.watch4net.alerting.operation.CaseOperation">
<polygon fill="#377eb8" stroke="black" points="307.049,-181.279 200.049,-181.279 200.049,-143.279 307.049,-143.279 307.049,-181.279"/>
<text text-anchor="middle" x="253.549" y="-166.079" font-family="Times,serif" font-size="14.00" fill="white">Cntrlr_Hits_</text>
<text text-anchor="middle" x="253.549" y="-151.079" font-family="Times,serif" font-size="14.00" fill="white">Rate_Case</text>
</a>
</g>
</g>
<!-- Cntrlr_ High_
Hits_Filter&#45;&gt;Cntrlr_Hits_
Rate_Case -->
<g id="${uniqueid}_edge1" class="edge"><title>Cntrlr_ High_
Hits_Filter:e&#45;&gt;Cntrlr_Hits_
Rate_Case:w</title>
<path fill="none" stroke="black" d="M164.049,-162.279C176.049,-162.279 181.299,-162.279 189.924,-162.279"/>
<polygon fill="black" stroke="black" points="190.049,-165.779 200.049,-162.279 190.049,-158.779 190.049,-165.779"/>
</g>
<!-- HighHits_MAJOR_
Chk -->
<g id="${uniqueid}_node3" class="node"><title>HighHits_MAJOR_
Chk</title>
<g id="a_${uniqueid}_node3"><a xlink:href="#1415742943971" xlink:title="com.watch4net.alerting.operation.comparator.ConstantComparatorOperation">
<polygon fill="#ff7f00" stroke="black" points="494.049,-308.279 343.049,-270.279 494.049,-232.279 645.049,-270.279 494.049,-308.279"/>
<text text-anchor="middle" x="494.049" y="-274.079" font-family="Times,serif" font-size="14.00" fill="white">HighHits_MAJOR_</text>
<text text-anchor="middle" x="494.049" y="-259.079" font-family="Times,serif" font-size="14.00" fill="white">Chk</text>
</a>
</g>
</g>
<!-- Cntrlr_Hits_
Rate_Case&#45;&gt;HighHits_MAJOR_
Chk -->
<g id="${uniqueid}_edge2" class="edge"><title>Cntrlr_Hits_
Rate_Case:e&#45;&gt;HighHits_MAJOR_
Chk:w</title>
<path fill="none" stroke="black" d="M307.049,-162.279C353.692,-162.279 301.932,-254.063 333.2,-268.405"/>
<polygon fill="black" stroke="black" points="332.571,-271.848 343.049,-270.279 333.88,-264.971 332.571,-271.848"/>
</g>
<!-- HitsRate_CRIT_
Chk -->
<g id="${uniqueid}_node4" class="node"><title>HitsRate_CRIT_
Chk</title>
<g id="a_${uniqueid}_node4"><a xlink:href="#1415742866740" xlink:title="com.watch4net.alerting.operation.comparator.ConstantComparatorOperation">
<polygon fill="#ff7f00" stroke="black" points="494.049,-200.279 362.049,-162.279 494.049,-124.279 626.049,-162.279 494.049,-200.279"/>
<text text-anchor="middle" x="494.049" y="-166.079" font-family="Times,serif" font-size="14.00" fill="white">HitsRate_CRIT_</text>
<text text-anchor="middle" x="494.049" y="-151.079" font-family="Times,serif" font-size="14.00" fill="white">Chk</text>
</a>
</g>
</g>
<!-- Cntrlr_Hits_
Rate_Case&#45;&gt;HitsRate_CRIT_
Chk -->
<g id="${uniqueid}_edge3" class="edge"><title>Cntrlr_Hits_
Rate_Case:e&#45;&gt;HitsRate_CRIT_
Chk:w</title>
<path fill="none" stroke="black" d="M307.049,-162.279C327.299,-162.279 334.734,-162.279 350.98,-162.279"/>
<polygon fill="black" stroke="black" points="351.049,-165.779 361.049,-162.279 351.049,-158.779 351.049,-165.779"/>
</g>
<!-- HitsRate_MINOR_
Chk -->
<g id="${uniqueid}_node5" class="node"><title>HitsRate_MINOR_
Chk</title>
<g id="a_${uniqueid}_node5"><a xlink:href="#1415743034912" xlink:title="com.watch4net.alerting.operation.comparator.ConstantComparatorOperation">
<polygon fill="#ff7f00" stroke="black" points="494.049,-91.2793 343.049,-53.2793 494.049,-15.2793 645.049,-53.2793 494.049,-91.2793"/>
<text text-anchor="middle" x="494.049" y="-57.0793" font-family="Times,serif" font-size="14.00" fill="white">HitsRate_MINOR_</text>
<text text-anchor="middle" x="494.049" y="-42.0793" font-family="Times,serif" font-size="14.00" fill="white">Chk</text>
</a>
</g>
</g>
<!-- Cntrlr_Hits_
Rate_Case&#45;&gt;HitsRate_MINOR_
Chk -->
<g id="${uniqueid}_edge4" class="edge"><title>Cntrlr_Hits_
Rate_Case:e&#45;&gt;HitsRate_MINOR_
Chk:w</title>
<path fill="none" stroke="black" d="M307.049,-162.279C354.081,-162.279 301.634,-69.6452 333.123,-55.1712"/>
<polygon fill="black" stroke="black" points="333.881,-58.5898 343.049,-53.2793 332.57,-51.7136 333.881,-58.5898"/>
</g>
<!-- Hits_Major_Clear -->
<g id="${uniqueid}_node8" class="node"><title>Hits_Major_Clear</title>
<g id="a_${uniqueid}_node8"><a xlink:href="#1415743930728" xlink:title="com.watch4net.alerting.action.SNMPTrapAction">
<ellipse fill="#4daf4a" stroke="black" cx="775.29" cy="-300.279" rx="93.6835" ry="18"/>
<text text-anchor="middle" x="775.29" y="-296.579" font-family="Times,serif" font-size="14.00" fill="white">Hits_Major_Clear</text>
</a>
</g>
</g>
<!-- HighHits_MAJOR_
Chk&#45;&gt;Hits_Major_Clear -->
<g id="${uniqueid}_edge5" class="edge"><title>HighHits_MAJOR_
Chk:ne&#45;&gt;Hits_Major_Clear:w</title>
<path fill="none" stroke="black" d="M523.049,-300.279C525.582,-302.813 521.363,-305.908 524.049,-308.279 564.365,-343.87 591.592,-314.147 645.049,-308.279 657.395,-306.924 662.291,-303.029 671.071,-301.221"/>
<polygon fill="black" stroke="black" points="671.422,-304.704 681.049,-300.279 670.764,-297.735 671.422,-304.704"/>
<text text-anchor="middle" x="506.049" y="-304.079" font-family="Times,serif" font-size="14.00">false</text>
</g>
<!-- Hits_Major_Set -->
<g id="${uniqueid}_node9" class="node"><title>Hits_Major_Set</title>
<g id="a_${uniqueid}_node9"><a xlink:href="#1415743809162" xlink:title="com.watch4net.alerting.action.SNMPTrapAction">
<ellipse fill="#4daf4a" stroke="black" cx="775.29" cy="-243.279" rx="83.3857" ry="18"/>
<text text-anchor="middle" x="775.29" y="-239.579" font-family="Times,serif" font-size="14.00" fill="white">Hits_Major_Set</text>
</a>
</g>
</g>
<!-- HighHits_MAJOR_
Chk&#45;&gt;Hits_Major_Set -->
<g id="${uniqueid}_edge6" class="edge"><title>HighHits_MAJOR_
Chk:se&#45;&gt;Hits_Major_Set:w</title>
<path fill="none" stroke="black" d="M525.049,-240.279C574.553,-190.775 613.075,-238.364 680.178,-242.934"/>
<polygon fill="black" stroke="black" points="680.177,-246.436 690.29,-243.279 680.416,-239.44 680.177,-246.436"/>
<text text-anchor="middle" x="509.549" y="-229.079" font-family="Times,serif" font-size="14.00">true</text>
</g>
<!-- Hits_Crit_Clear -->
<g id="${uniqueid}_node6" class="node"><title>Hits_Crit_Clear</title>
<g id="a_${uniqueid}_node6"><a xlink:href="#1415743714902" xlink:title="com.watch4net.alerting.action.SNMPTrapAction">
<ellipse fill="#4daf4a" stroke="black" cx="775.29" cy="-189.279" rx="84.485" ry="18"/>
<text text-anchor="middle" x="775.29" y="-185.579" font-family="Times,serif" font-size="14.00" fill="white">Hits_Crit_Clear</text>
</a>
</g>
</g>
<!-- HitsRate_CRIT_
Chk&#45;&gt;Hits_Crit_Clear -->
<g id="${uniqueid}_edge7" class="edge"><title>HitsRate_CRIT_
Chk:ne&#45;&gt;Hits_Crit_Clear:w</title>
<path fill="none" stroke="black" d="M523.049,-192.279C525.582,-194.813 521.363,-197.908 524.049,-200.279 558.034,-230.281 580.883,-204.178 626.049,-200.279 650.808,-198.142 658.772,-191.381 679.271,-189.674"/>
<polygon fill="black" stroke="black" points="679.436,-193.17 689.29,-189.279 679.16,-186.176 679.436,-193.17"/>
<text text-anchor="middle" x="506.049" y="-196.079" font-family="Times,serif" font-size="14.00">false</text>
</g>
<!-- Hits_Crit_Set -->
<g id="${uniqueid}_node7" class="node"><title>Hits_Crit_Set</title>
<g id="a_${uniqueid}_node7"><a xlink:href="#1415743654881" xlink:title="com.watch4net.alerting.action.SNMPTrapAction">
<ellipse fill="#4daf4a" stroke="black" cx="775.29" cy="-134.279" rx="74.187" ry="18"/>
<text text-anchor="middle" x="775.29" y="-130.579" font-family="Times,serif" font-size="14.00" fill="white">Hits_Crit_Set</text>
</a>
</g>
</g>
<!-- HitsRate_CRIT_
Chk&#45;&gt;Hits_Crit_Set -->
<g id="${uniqueid}_edge8" class="edge"><title>HitsRate_CRIT_
Chk:se&#45;&gt;Hits_Crit_Set:w</title>
<path fill="none" stroke="black" d="M525.049,-132.279C577.651,-79.6767 618.576,-129.378 690.005,-133.949"/>
<polygon fill="black" stroke="black" points="690.183,-137.457 700.29,-134.279 690.408,-130.46 690.183,-137.457"/>
<text text-anchor="middle" x="509.549" y="-121.079" font-family="Times,serif" font-size="14.00">true</text>
</g>
<!-- Hits_Minor_Clear -->
<g id="${uniqueid}_node10" class="node"><title>Hits_Minor_Clear</title>
<g id="a_${uniqueid}_node10"><a xlink:href="#1415744053057" xlink:title="com.watch4net.alerting.action.SNMPTrapAction">
<ellipse fill="#4daf4a" stroke="black" cx="775.29" cy="-80.2793" rx="94.4839" ry="18"/>
<text text-anchor="middle" x="775.29" y="-76.5793" font-family="Times,serif" font-size="14.00" fill="white">Hits_Minor_Clear</text>
</a>
</g>
</g>
<!-- HitsRate_MINOR_
Chk&#45;&gt;Hits_Minor_Clear -->
<g id="${uniqueid}_edge9" class="edge"><title>HitsRate_MINOR_
Chk:ne&#45;&gt;Hits_Minor_Clear:w</title>
<path fill="none" stroke="black" d="M523.049,-83.2793C525.582,-85.813 521.363,-88.9079 524.049,-91.2793 564.365,-126.87 591.861,-99.2239 645.049,-91.2793 657.588,-89.4063 662.189,-84.055 670.963,-81.5728"/>
<polygon fill="black" stroke="black" points="671.575,-85.023 681.049,-80.2793 670.685,-78.0798 671.575,-85.023"/>
<text text-anchor="middle" x="506.049" y="-87.0793" font-family="Times,serif" font-size="14.00">false</text>
</g>
<!-- Hits_Minor_Set -->
<g id="${uniqueid}_node11" class="node"><title>Hits_Minor_Set</title>
<g id="a_${uniqueid}_node11"><a xlink:href="#1415744000373" xlink:title="com.watch4net.alerting.action.SNMPTrapAction">
<ellipse fill="#4daf4a" stroke="black" cx="775.29" cy="-23.2793" rx="83.6854" ry="18"/>
<text text-anchor="middle" x="775.29" y="-19.5793" font-family="Times,serif" font-size="14.00" fill="white">Hits_Minor_Set</text>
</a>
</g>
</g>
<!-- HitsRate_MINOR_
Chk&#45;&gt;Hits_Minor_Set -->
<g id="${uniqueid}_edge10" class="edge"><title>HitsRate_MINOR_
Chk:se&#45;&gt;Hits_Minor_Set:w</title>
<path fill="none" stroke="black" d="M525.049,-23.2793C574.545,26.2169 613.085,-18.639 680.179,-22.953"/>
<polygon fill="black" stroke="black" points="680.183,-26.4548 690.29,-23.2793 680.409,-19.4585 680.183,-26.4548"/>
<text text-anchor="middle" x="509.549" y="-12.0793" font-family="Times,serif" font-size="14.00">true</text>
</g>
</g>
</svg>
