<?xml version="1.0" encoding="UTF-8" standalone="no"?>
<!DOCTYPE svg PUBLIC "-//W3C//DTD SVG 1.1//EN"
 "http://www.w3.org/Graphics/SVG/1.1/DTD/svg11.dtd">
<!-- Generated by graphviz version 2.38.0 (20140413.2041)
 -->
<!-- Title: EMC VMAX Alert Definitions/VMAX&#45;Devices/Device status changed Pages: 1 -->
<svg width="651pt" height="134pt"
 viewBox="0.00 0.00 651.17 133.74" xmlns="http://www.w3.org/2000/svg" xmlns:xlink="http://www.w3.org/1999/xlink">
<g id="${uniqueid}" class="graph" transform="scale(1 1) rotate(0) translate(4 129.74)">
<title>EMC VMAX Alert Definitions/VMAX&#45;Devices/Device status changed</title>
<polygon fill="white" stroke="none" points="-4,4 -4,-129.74 647.169,-129.74 647.169,4 -4,4"/>
<!-- Device Status
clear -->
<g id="${uniqueid}_node1" class="node"><title>Device Status
clear</title>
<g id="a_${uniqueid}_node1"><a xlink:href="#1414517108296" xlink:title="com.watch4net.alerting.action.SNMPTrapAction">
<ellipse fill="#4daf4a" stroke="black" cx="559.023" cy="-26.8701" rx="82.0488" ry="26.7407"/>
<text text-anchor="middle" x="559.023" y="-30.6701" font-family="Times,serif" font-size="14.00" fill="white">Device Status</text>
<text text-anchor="middle" x="559.023" y="-15.6701" font-family="Times,serif" font-size="14.00" fill="white">clear</text>
</a>
</g>
</g>
<!-- DeviceStatus_
Trap -->
<g id="${uniqueid}_node2" class="node"><title>DeviceStatus_
Trap</title>
<g id="a_${uniqueid}_node2"><a xlink:href="#1414436309357" xlink:title="com.watch4net.alerting.action.SNMPTrapAction">
<ellipse fill="#4daf4a" stroke="black" cx="559.023" cy="-98.8701" rx="84.2917" ry="26.7407"/>
<text text-anchor="middle" x="559.023" y="-102.67" font-family="Times,serif" font-size="14.00" fill="white">DeviceStatus_</text>
<text text-anchor="middle" x="559.023" y="-87.6701" font-family="Times,serif" font-size="14.00" fill="white">Trap</text>
</a>
</g>
</g>
<!-- Device_State_
Comparator -->
<g id="${uniqueid}_node3" class="node"><title>Device_State_
Comparator</title>
<g id="a_${uniqueid}_node3"><a xlink:href="#1414434371701" xlink:title="com.watch4net.alerting.operation.comparator.StringComparatorOperation">
<polygon fill="#ff7f00" stroke="black" points="320.877,-100.87 202.877,-62.8701 320.877,-24.8701 438.877,-62.8701 320.877,-100.87"/>
<text text-anchor="middle" x="320.877" y="-66.6701" font-family="Times,serif" font-size="14.00" fill="white">Device_State_</text>
<text text-anchor="middle" x="320.877" y="-51.6701" font-family="Times,serif" font-size="14.00" fill="white">Comparator</text>
</a>
</g>
</g>
<!-- Device_State_
Comparator&#45;&gt;Device Status
clear -->
<g id="${uniqueid}_edge2" class="edge"><title>Device_State_
Comparator:se&#45;&gt;Device Status
clear:w</title>
<path fill="none" stroke="black" d="M350.877,-33.8701C387.806,3.05898 416.523,-23.1016 465.87,-26.5159"/>
<polygon fill="black" stroke="black" points="465.907,-30.0192 476.023,-26.8701 466.151,-23.0235 465.907,-30.0192"/>
<text text-anchor="middle" x="335.377" y="-22.6701" font-family="Times,serif" font-size="14.00">true</text>
</g>
<!-- Device_State_
Comparator&#45;&gt;DeviceStatus_
Trap -->
<g id="${uniqueid}_edge1" class="edge"><title>Device_State_
Comparator:ne&#45;&gt;DeviceStatus_
Trap:w</title>
<path fill="none" stroke="black" d="M348.877,-91.8701C351.723,-94.7159 346.878,-98.186 349.877,-100.87 379.351,-127.251 399.337,-101.968 438.877,-100.87 450.891,-100.537 456.12,-99.5783 464.744,-99.12"/>
<polygon fill="black" stroke="black" points="464.967,-102.616 474.877,-98.8701 464.794,-95.6178 464.967,-102.616"/>
<text text-anchor="middle" x="331.877" y="-95.6701" font-family="Times,serif" font-size="14.00">false</text>
</g>
<!-- Device_State_
Filter -->
<g id="${uniqueid}_node4" class="node"><title>Device_State_
Filter</title>
<g id="a_${uniqueid}_node4"><a xlink:href="#1414434271215" xlink:title="com.watch4net.alerting.operation.FilteredEntryPoint">
<ellipse fill="#984ea3" stroke="black" cx="83.4386" cy="-62.8701" rx="83.3772" ry="26.7407"/>
<text text-anchor="middle" x="83.4386" y="-66.6701" font-family="Times,serif" font-size="14.00" fill="white">Device_State_</text>
<text text-anchor="middle" x="83.4386" y="-51.6701" font-family="Times,serif" font-size="14.00" fill="white">Filter</text>
</a>
</g>
</g>
<!-- Device_State_
Filter&#45;&gt;Device_State_
Comparator -->
<g id="${uniqueid}_edge3" class="edge"><title>Device_State_
Filter:e&#45;&gt;Device_State_
Comparator:w</title>
<path fill="none" stroke="black" d="M166.877,-62.8701C178.877,-62.8701 184.127,-62.8701 192.752,-62.8701"/>
<polygon fill="black" stroke="black" points="192.877,-66.3702 202.877,-62.8701 192.877,-59.3702 192.877,-66.3702"/>
</g>
</g>
</svg>
