<?xml version="1.0" encoding="UTF-8" standalone="no"?>
<!DOCTYPE svg PUBLIC "-//W3C//DTD SVG 1.1//EN"
 "http://www.w3.org/Graphics/SVG/1.1/DTD/svg11.dtd">
<!-- Generated by graphviz version 2.38.0 (20140413.2041)
 -->
<!-- Title: Physical Hosts Alert Definitions/Disk Response Time Pages: 1 -->
<svg width="662pt" height="314pt"
 viewBox="0.00 0.00 661.68 314.00" xmlns="http://www.w3.org/2000/svg" xmlns:xlink="http://www.w3.org/1999/xlink">
<g id="${uniqueid}" class="graph" transform="scale(1 1) rotate(0) translate(4 310)">
<title>Physical Hosts Alert Definitions/Disk Response Time</title>
<polygon fill="white" stroke="none" points="-4,4 -4,-310 657.681,-310 657.681,4 -4,4"/>
<!-- Case -->
<g id="${uniqueid}_node1" class="node"><title>Case</title>
<g id="a_${uniqueid}_node1"><a xlink:href="#1416341844070" xlink:title="com.watch4net.alerting.operation.CaseOperation">
<polygon fill="#377eb8" stroke="black" points="245.986,-171 191.986,-171 191.986,-135 245.986,-135 245.986,-171"/>
<text text-anchor="middle" x="218.986" y="-149.3" font-family="Times,serif" font-size="14.00" fill="white">Case</text>
</a>
</g>
</g>
<!-- Critical 400 -->
<g id="${uniqueid}_node5" class="node"><title>Critical 400</title>
<g id="a_${uniqueid}_node5"><a xlink:href="#1f50b228-9bdb-491f-a685-2e02f42b4b80" xlink:title="com.watch4net.alerting.operation.comparator.ConstantComparatorOperation">
<polygon fill="#ff7f00" stroke="black" points="375.74,-267 282.231,-249 375.74,-231 469.249,-249 375.74,-267"/>
<text text-anchor="middle" x="375.74" y="-245.3" font-family="Times,serif" font-size="14.00" fill="white">Critical 400</text>
</a>
</g>
</g>
<!-- Case&#45;&gt;Critical 400 -->
<g id="${uniqueid}_edge1" class="edge"><title>Case:e&#45;&gt;Critical 400:w</title>
<path fill="none" stroke="black" d="M245.986,-153C287.46,-153 245.513,-232.525 271.997,-246.815"/>
<polygon fill="black" stroke="black" points="271.469,-250.282 281.986,-249 272.965,-243.444 271.469,-250.282"/>
</g>
<!-- Major 300 -->
<g id="${uniqueid}_node7" class="node"><title>Major 300</title>
<g id="a_${uniqueid}_node7"><a xlink:href="#3f75f299-393f-4efb-90cc-869c71b4c969" xlink:title="com.watch4net.alerting.operation.comparator.ConstantComparatorOperation">
<polygon fill="#ff7f00" stroke="black" points="375.74,-171 291.953,-153 375.74,-135 459.527,-153 375.74,-171"/>
<text text-anchor="middle" x="375.74" y="-149.3" font-family="Times,serif" font-size="14.00" fill="white">Major 300</text>
</a>
</g>
</g>
<!-- Case&#45;&gt;Major 300 -->
<g id="${uniqueid}_edge2" class="edge"><title>Case:e&#45;&gt;Major 300:w</title>
<path fill="none" stroke="black" d="M245.986,-153C261.992,-153 268.338,-153 280.57,-153"/>
<polygon fill="black" stroke="black" points="280.74,-156.5 290.74,-153 280.74,-149.5 280.74,-156.5"/>
</g>
<!-- Minor 200 -->
<g id="${uniqueid}_node9" class="node"><title>Minor 200</title>
<g id="a_${uniqueid}_node9"><a xlink:href="#ea4f1217-818d-46fd-9247-8f5ec6ee9cdc" xlink:title="com.watch4net.alerting.operation.comparator.ConstantComparatorOperation">
<polygon fill="#ff7f00" stroke="black" points="375.74,-75 291.115,-57 375.74,-39 460.365,-57 375.74,-75"/>
<text text-anchor="middle" x="375.74" y="-53.3" font-family="Times,serif" font-size="14.00" fill="white">Minor 200</text>
</a>
</g>
</g>
<!-- Case&#45;&gt;Minor 200 -->
<g id="${uniqueid}_edge3" class="edge"><title>Case:e&#45;&gt;Minor 200:w</title>
<path fill="none" stroke="black" d="M245.986,-153C288.846,-153 250.733,-72.791 279.676,-59.0051"/>
<polygon fill="black" stroke="black" points="280.617,-62.3865 289.74,-57 279.249,-55.5214 280.617,-62.3865"/>
</g>
<!-- Clear Critical -->
<g id="${uniqueid}_node2" class="node"><title>Clear Critical</title>
<g id="a_${uniqueid}_node2"><a xlink:href="#1416341781635" xlink:title="com.watch4net.alerting.action.SNMPTrapAction">
<ellipse fill="#4daf4a" stroke="black" cx="579.588" cy="-288" rx="74.187" ry="18"/>
<text text-anchor="middle" x="579.588" y="-284.3" font-family="Times,serif" font-size="14.00" fill="white">Clear Critical</text>
</a>
</g>
</g>
<!-- Clear Major -->
<g id="${uniqueid}_node3" class="node"><title>Clear Major</title>
<g id="a_${uniqueid}_node3"><a xlink:href="#1416341828262" xlink:title="com.watch4net.alerting.action.SNMPTrapAction">
<ellipse fill="#4daf4a" stroke="black" cx="579.588" cy="-180" rx="66.8882" ry="18"/>
<text text-anchor="middle" x="579.588" y="-176.3" font-family="Times,serif" font-size="14.00" fill="white">Clear Major</text>
</a>
</g>
</g>
<!-- Clear Minor -->
<g id="${uniqueid}_node4" class="node"><title>Clear Minor</title>
<g id="a_${uniqueid}_node4"><a xlink:href="#8bd55979-60f0-4e83-b637-28f392fda6a4" xlink:title="com.watch4net.alerting.action.SNMPTrapAction">
<ellipse fill="#4daf4a" stroke="black" cx="579.588" cy="-72" rx="67.6881" ry="18"/>
<text text-anchor="middle" x="579.588" y="-68.3" font-family="Times,serif" font-size="14.00" fill="white">Clear Minor</text>
</a>
</g>
</g>
<!-- Critical 400&#45;&gt;Clear Critical -->
<g id="${uniqueid}_edge4" class="edge"><title>Critical 400:ne&#45;&gt;Clear Critical:w</title>
<path fill="none" stroke="black" d="M389.74,-264C390.734,-264.994 389.679,-266.079 390.74,-267 427.214,-298.67 450.326,-289.557 495.241,-288.163"/>
<polygon fill="black" stroke="black" points="495.551,-291.659 505.494,-288 495.44,-284.659 495.551,-291.659"/>
<text text-anchor="middle" x="372.74" y="-267.8" font-family="Times,serif" font-size="14.00">false</text>
</g>
<!-- Critical Trap -->
<g id="${uniqueid}_node6" class="node"><title>Critical Trap</title>
<g id="a_${uniqueid}_node6"><a xlink:href="#ad548dca-546f-4f8d-b6b4-d0c428cf16c5" xlink:title="com.watch4net.alerting.action.SNMPTrapAction">
<ellipse fill="#4daf4a" stroke="black" cx="579.588" cy="-234" rx="70.3881" ry="18"/>
<text text-anchor="middle" x="579.588" y="-230.3" font-family="Times,serif" font-size="14.00" fill="white">Critical Trap</text>
</a>
</g>
</g>
<!-- Critical 400&#45;&gt;Critical Trap -->
<g id="${uniqueid}_edge5" class="edge"><title>Critical 400:se&#45;&gt;Critical Trap:w</title>
<path fill="none" stroke="black" d="M391.74,-234C426.023,-199.717 452.873,-229.447 498.546,-233.546"/>
<polygon fill="black" stroke="black" points="498.44,-237.045 508.588,-234 498.756,-230.052 498.44,-237.045"/>
<text text-anchor="middle" x="376.24" y="-222.8" font-family="Times,serif" font-size="14.00">true</text>
</g>
<!-- Major 300&#45;&gt;Clear Major -->
<g id="${uniqueid}_edge6" class="edge"><title>Major 300:ne&#45;&gt;Clear Major:w</title>
<path fill="none" stroke="black" d="M389.74,-168C390.734,-168.994 389.631,-170.136 390.74,-171 430.494,-201.961 454.496,-182.868 501.527,-180.279"/>
<polygon fill="black" stroke="black" points="501.688,-183.775 511.588,-180 501.495,-176.778 501.688,-183.775"/>
<text text-anchor="middle" x="372.74" y="-171.8" font-family="Times,serif" font-size="14.00">false</text>
</g>
<!-- Major Trap -->
<g id="${uniqueid}_node8" class="node"><title>Major Trap</title>
<g id="a_${uniqueid}_node8"><a xlink:href="#79f66997-a9b3-4803-9a2c-82e2151d6ef6" xlink:title="com.watch4net.alerting.action.SNMPTrapAction">
<ellipse fill="#4daf4a" stroke="black" cx="579.588" cy="-126" rx="63.0888" ry="18"/>
<text text-anchor="middle" x="579.588" y="-122.3" font-family="Times,serif" font-size="14.00" fill="white">Major Trap</text>
</a>
</g>
</g>
<!-- Major 300&#45;&gt;Major Trap -->
<g id="${uniqueid}_edge7" class="edge"><title>Major 300:se&#45;&gt;Major Trap:w</title>
<path fill="none" stroke="black" d="M391.74,-138C428.4,-101.34 456.569,-122.871 505.513,-125.705"/>
<polygon fill="black" stroke="black" points="505.49,-129.206 515.588,-126 505.694,-122.209 505.49,-129.206"/>
<text text-anchor="middle" x="376.24" y="-126.8" font-family="Times,serif" font-size="14.00">true</text>
</g>
<!-- Minor 200&#45;&gt;Clear Minor -->
<g id="${uniqueid}_edge8" class="edge"><title>Minor 200:ne&#45;&gt;Clear Minor:w</title>
<path fill="none" stroke="black" d="M389.74,-72C390.734,-72.9938 389.6,-74.1782 390.74,-75 415.821,-93.0773 429.4,-75.921 460.303,-75 478.835,-74.4477 485.804,-72.7528 500.367,-72.1865"/>
<polygon fill="black" stroke="black" points="500.653,-75.6819 510.588,-72 500.525,-68.6831 500.653,-75.6819"/>
<text text-anchor="middle" x="372.74" y="-75.8" font-family="Times,serif" font-size="14.00">false</text>
</g>
<!-- Minor Trap -->
<g id="${uniqueid}_node10" class="node"><title>Minor Trap</title>
<g id="a_${uniqueid}_node10"><a xlink:href="#6220fa61-d30d-4a64-bb02-660990e04a61" xlink:title="com.watch4net.alerting.action.SNMPTrapAction">
<ellipse fill="#4daf4a" stroke="black" cx="579.588" cy="-18" rx="63.8893" ry="18"/>
<text text-anchor="middle" x="579.588" y="-14.3" font-family="Times,serif" font-size="14.00" fill="white">Minor Trap</text>
</a>
</g>
</g>
<!-- Minor 200&#45;&gt;Minor Trap -->
<g id="${uniqueid}_edge9" class="edge"><title>Minor 200:se&#45;&gt;Minor Trap:w</title>
<path fill="none" stroke="black" d="M391.74,-42C428.619,-5.12147 455.427,-16.2964 504.472,-17.8374"/>
<polygon fill="black" stroke="black" points="504.533,-21.3387 514.588,-18 504.645,-14.3396 504.533,-21.3387"/>
<text text-anchor="middle" x="376.24" y="-30.8" font-family="Times,serif" font-size="14.00">true</text>
</g>
<!-- ResponseTime -->
<g id="${uniqueid}_node11" class="node"><title>ResponseTime</title>
<g id="a_${uniqueid}_node11"><a xlink:href="#500b58bd-9426-4624-b626-c5b636cf5309" xlink:title="com.watch4net.alerting.operation.FilteredEntryPoint">
<ellipse fill="#984ea3" stroke="black" cx="77.9931" cy="-153" rx="77.9862" ry="18"/>
<text text-anchor="middle" x="77.9931" y="-149.3" font-family="Times,serif" font-size="14.00" fill="white">ResponseTime</text>
</a>
</g>
</g>
<!-- ResponseTime&#45;&gt;Case -->
<g id="${uniqueid}_edge10" class="edge"><title>ResponseTime:e&#45;&gt;Case:w</title>
<path fill="none" stroke="black" d="M155.986,-153C167.986,-153 173.236,-153 181.861,-153"/>
<polygon fill="black" stroke="black" points="181.986,-156.5 191.986,-153 181.986,-149.5 181.986,-156.5"/>
</g>
</g>
</svg>
