<?xml version="1.0" encoding="UTF-8" standalone="no"?>
<!DOCTYPE svg PUBLIC "-//W3C//DTD SVG 1.1//EN"
 "http://www.w3.org/Graphics/SVG/1.1/DTD/svg11.dtd">
<!-- Generated by graphviz version 2.38.0 (20140413.2041)
 -->
<!-- Title: EMC Isilon Alert Definitions/Isilon HardQuotaReached Alert Pages: 1 -->
<svg width="872pt" height="369pt"
 viewBox="0.00 0.00 872.18 369.00" xmlns="http://www.w3.org/2000/svg" xmlns:xlink="http://www.w3.org/1999/xlink">
<g id="${uniqueid}" class="graph" transform="scale(1 1) rotate(0) translate(4 365)">
<title>EMC Isilon Alert Definitions/Isilon HardQuotaReached Alert</title>
<polygon fill="white" stroke="none" points="-4,4 -4,-365 868.181,-365 868.181,4 -4,4"/>
<!-- Critical Hard
Quota Reach -->
<g id="${uniqueid}_node1" class="node"><title>Critical Hard
Quota Reach</title>
<g id="a_${uniqueid}_node1"><a xlink:href="#1416866196928" xlink:title="com.watch4net.alerting.operation.comparator.ConstantComparatorOperation">
<polygon fill="#ff7f00" stroke="black" points="516.747,-361 402.747,-323 516.747,-285 630.747,-323 516.747,-361"/>
<text text-anchor="middle" x="516.747" y="-326.8" font-family="Times,serif" font-size="14.00" fill="white">Critical Hard</text>
<text text-anchor="middle" x="516.747" y="-311.8" font-family="Times,serif" font-size="14.00" fill="white">Quota Reach</text>
</a>
</g>
</g>
<!-- HardQuota
Critical Alert -->
<g id="${uniqueid}_node3" class="node"><title>HardQuota
Critical Alert</title>
<g id="a_${uniqueid}_node3"><a xlink:href="#1721432841204980" xlink:title="com.watch4net.alerting.action.SNMPTrapAction">
<ellipse fill="#4daf4a" stroke="black" cx="772.964" cy="-334" rx="86.0347" ry="26.7407"/>
<text text-anchor="middle" x="772.964" y="-337.8" font-family="Times,serif" font-size="14.00" fill="white">HardQuota</text>
<text text-anchor="middle" x="772.964" y="-322.8" font-family="Times,serif" font-size="14.00" fill="white">Critical Alert</text>
</a>
</g>
</g>
<!-- Critical Hard
Quota Reach&#45;&gt;HardQuota
Critical Alert -->
<g id="${uniqueid}_edge1" class="edge"><title>Critical Hard
Quota Reach:e&#45;&gt;HardQuota
Critical Alert:w</title>
<path fill="none" stroke="black" d="M631.747,-323C652.125,-323 658.807,-330.831 674.905,-333.278"/>
<polygon fill="black" stroke="black" points="674.739,-336.775 684.964,-334 675.24,-329.793 674.739,-336.775"/>
<text text-anchor="middle" x="647.247" y="-311.8" font-family="Times,serif" font-size="14.00">true</text>
</g>
<!-- Hard
Quotathreshold -->
<g id="${uniqueid}_node2" class="node"><title>Hard
Quotathreshold</title>
<g id="a_${uniqueid}_node2"><a xlink:href="#1416859788140" xlink:title="com.watch4net.alerting.operation.CaseOperation">
<polygon fill="#377eb8" stroke="black" points="351.747,-198 229.747,-198 229.747,-160 351.747,-160 351.747,-198"/>
<text text-anchor="middle" x="290.747" y="-182.8" font-family="Times,serif" font-size="14.00" fill="white">Hard</text>
<text text-anchor="middle" x="290.747" y="-167.8" font-family="Times,serif" font-size="14.00" fill="white">Quotathreshold</text>
</a>
</g>
</g>
<!-- Hard
Quotathreshold&#45;&gt;Critical Hard
Quota Reach -->
<g id="${uniqueid}_edge2" class="edge"><title>Hard
Quotathreshold:e&#45;&gt;Critical Hard
Quota Reach:w</title>
<path fill="none" stroke="black" d="M351.747,-179C415.658,-179 343.193,-307.149 391.655,-321.666"/>
<polygon fill="black" stroke="black" points="391.375,-325.16 401.747,-323 392.292,-318.22 391.375,-325.16"/>
</g>
<!-- Info HardQuota
Reach -->
<g id="${uniqueid}_node8" class="node"><title>Info HardQuota
Reach</title>
<g id="a_${uniqueid}_node8"><a xlink:href="#1416866278141" xlink:title="com.watch4net.alerting.operation.comparator.ConstantComparatorOperation">
<polygon fill="#ff7f00" stroke="black" points="516.747,-264 394.747,-226 516.747,-188 638.747,-226 516.747,-264"/>
<text text-anchor="middle" x="516.747" y="-229.8" font-family="Times,serif" font-size="14.00" fill="white">Info HardQuota</text>
<text text-anchor="middle" x="516.747" y="-214.8" font-family="Times,serif" font-size="14.00" fill="white">Reach</text>
</a>
</g>
</g>
<!-- Hard
Quotathreshold&#45;&gt;Info HardQuota
Reach -->
<g id="${uniqueid}_edge3" class="edge"><title>Hard
Quotathreshold:e&#45;&gt;Info HardQuota
Reach:w</title>
<path fill="none" stroke="black" d="M351.747,-179C375.603,-179 368.971,-213.082 383.776,-223.201"/>
<polygon fill="black" stroke="black" points="383.173,-226.667 393.747,-226 385.066,-219.927 383.173,-226.667"/>
</g>
<!-- Major HardQuota
Reach -->
<g id="${uniqueid}_node10" class="node"><title>Major HardQuota
Reach</title>
<g id="a_${uniqueid}_node10"><a xlink:href="#1416866224998" xlink:title="com.watch4net.alerting.operation.comparator.ConstantComparatorOperation">
<polygon fill="#ff7f00" stroke="black" points="516.747,-170 387.747,-132 516.747,-94 645.747,-132 516.747,-170"/>
<text text-anchor="middle" x="516.747" y="-135.8" font-family="Times,serif" font-size="14.00" fill="white">Major HardQuota</text>
<text text-anchor="middle" x="516.747" y="-120.8" font-family="Times,serif" font-size="14.00" fill="white">Reach</text>
</a>
</g>
</g>
<!-- Hard
Quotathreshold&#45;&gt;Major HardQuota
Reach -->
<g id="${uniqueid}_edge4" class="edge"><title>Hard
Quotathreshold:e&#45;&gt;Major HardQuota
Reach:w</title>
<path fill="none" stroke="black" d="M351.747,-179C373.948,-179 365.582,-145.54 378.231,-135.084"/>
<polygon fill="black" stroke="black" points="379.313,-138.412 387.747,-132 377.155,-131.753 379.313,-138.412"/>
</g>
<!-- Minor HardQuota
Reach -->
<g id="${uniqueid}_node11" class="node"><title>Minor HardQuota
Reach</title>
<g id="a_${uniqueid}_node11"><a xlink:href="#1416866254126" xlink:title="com.watch4net.alerting.operation.comparator.ConstantComparatorOperation">
<polygon fill="#ff7f00" stroke="black" points="516.747,-76 387.747,-38 516.747,-7.10543e-15 645.747,-38 516.747,-76"/>
<text text-anchor="middle" x="516.747" y="-41.8" font-family="Times,serif" font-size="14.00" fill="white">Minor HardQuota</text>
<text text-anchor="middle" x="516.747" y="-26.8" font-family="Times,serif" font-size="14.00" fill="white">Reach</text>
</a>
</g>
</g>
<!-- Hard
Quotathreshold&#45;&gt;Minor HardQuota
Reach -->
<g id="${uniqueid}_edge5" class="edge"><title>Hard
Quotathreshold:e&#45;&gt;Minor HardQuota
Reach:w</title>
<path fill="none" stroke="black" d="M351.747,-179C412.508,-179 333.796,-54.5573 377.667,-39.4881"/>
<polygon fill="black" stroke="black" points="378.366,-42.923 387.747,-38 377.343,-35.998 378.366,-42.923"/>
</g>
<!-- HardQuota Info
Alert set -->
<g id="${uniqueid}_node4" class="node"><title>HardQuota Info
Alert set</title>
<g id="a_${uniqueid}_node4"><a xlink:href="#1415904042018" xlink:title="com.watch4net.alerting.action.SNMPTrapAction">
<ellipse fill="#4daf4a" stroke="black" cx="772.964" cy="-190" rx="86.0347" ry="26.7407"/>
<text text-anchor="middle" x="772.964" y="-193.8" font-family="Times,serif" font-size="14.00" fill="white">HardQuota Info</text>
<text text-anchor="middle" x="772.964" y="-178.8" font-family="Times,serif" font-size="14.00" fill="white">Alert set</text>
</a>
</g>
</g>
<!-- HardQuota Major
Alert -->
<g id="${uniqueid}_node5" class="node"><title>HardQuota Major
Alert</title>
<g id="a_${uniqueid}_node5"><a xlink:href="#1721432841173357" xlink:title="com.watch4net.alerting.action.SNMPTrapAction">
<ellipse fill="#4daf4a" stroke="black" cx="772.964" cy="-118" rx="91.4341" ry="26.7407"/>
<text text-anchor="middle" x="772.964" y="-121.8" font-family="Times,serif" font-size="14.00" fill="white">HardQuota Major</text>
<text text-anchor="middle" x="772.964" y="-106.8" font-family="Times,serif" font-size="14.00" fill="white">Alert</text>
</a>
</g>
</g>
<!-- HardQuota Minor
Alert set -->
<g id="${uniqueid}_node6" class="node"><title>HardQuota Minor
Alert set</title>
<g id="a_${uniqueid}_node6"><a xlink:href="#1415903992651" xlink:title="com.watch4net.alerting.action.SNMPTrapAction">
<ellipse fill="#4daf4a" stroke="black" cx="772.964" cy="-38" rx="91.4341" ry="26.7407"/>
<text text-anchor="middle" x="772.964" y="-41.8" font-family="Times,serif" font-size="14.00" fill="white">HardQuota Minor</text>
<text text-anchor="middle" x="772.964" y="-26.8" font-family="Times,serif" font-size="14.00" fill="white">Alert set</text>
</a>
</g>
</g>
<!-- HardQuota alert
Clear -->
<g id="${uniqueid}_node7" class="node"><title>HardQuota alert
Clear</title>
<g id="a_${uniqueid}_node7"><a xlink:href="#1721432841190420" xlink:title="com.watch4net.alerting.action.SNMPTrapAction">
<ellipse fill="#4daf4a" stroke="black" cx="772.964" cy="-262" rx="91.4341" ry="26.7407"/>
<text text-anchor="middle" x="772.964" y="-265.8" font-family="Times,serif" font-size="14.00" fill="white">HardQuota alert</text>
<text text-anchor="middle" x="772.964" y="-250.8" font-family="Times,serif" font-size="14.00" fill="white">Clear</text>
</a>
</g>
</g>
<!-- Info HardQuota
Reach&#45;&gt;HardQuota Info
Alert set -->
<g id="${uniqueid}_edge7" class="edge"><title>Info HardQuota
Reach:se&#45;&gt;HardQuota Info
Alert set:w</title>
<path fill="none" stroke="black" d="M546.747,-197C566.455,-177.292 638.7,-187.556 674.963,-189.653"/>
<polygon fill="black" stroke="black" points="674.849,-193.151 684.964,-190 675.091,-186.156 674.849,-193.151"/>
<text text-anchor="middle" x="531.247" y="-185.8" font-family="Times,serif" font-size="14.00">true</text>
</g>
<!-- Info HardQuota
Reach&#45;&gt;HardQuota alert
Clear -->
<g id="${uniqueid}_edge6" class="edge"><title>Info HardQuota
Reach:ne&#45;&gt;HardQuota alert
Clear:w</title>
<path fill="none" stroke="black" d="M544.747,-255C547.593,-257.846 542.748,-261.316 545.747,-264 576.546,-291.566 597.425,-264.96 638.747,-264 653.989,-263.646 660.096,-262.586 671.629,-262.17"/>
<polygon fill="black" stroke="black" points="671.808,-265.668 681.747,-262 671.69,-258.669 671.808,-265.668"/>
<text text-anchor="middle" x="525.747" y="-258.8" font-family="Times,serif" font-size="14.00">false</text>
</g>
<!-- Isilon HardQuota
Reach -->
<g id="${uniqueid}_node9" class="node"><title>Isilon HardQuota
Reach</title>
<g id="a_${uniqueid}_node9"><a xlink:href="#1721432841076395" xlink:title="com.watch4net.alerting.operation.FilteredEntryPoint">
<ellipse fill="#984ea3" stroke="black" cx="96.8736" cy="-179" rx="96.7474" ry="26.7407"/>
<text text-anchor="middle" x="96.8736" y="-182.8" font-family="Times,serif" font-size="14.00" fill="white">Isilon HardQuota</text>
<text text-anchor="middle" x="96.8736" y="-167.8" font-family="Times,serif" font-size="14.00" fill="white">Reach</text>
</a>
</g>
</g>
<!-- Isilon HardQuota
Reach&#45;&gt;Hard
Quotathreshold -->
<g id="${uniqueid}_edge8" class="edge"><title>Isilon HardQuota
Reach:e&#45;&gt;Hard
Quotathreshold:w</title>
<path fill="none" stroke="black" d="M193.747,-179C205.747,-179 210.997,-179 219.622,-179"/>
<polygon fill="black" stroke="black" points="219.747,-182.5 229.747,-179 219.747,-175.5 219.747,-182.5"/>
</g>
<!-- Major HardQuota
Reach&#45;&gt;HardQuota Major
Alert -->
<g id="${uniqueid}_edge9" class="edge"><title>Major HardQuota
Reach:e&#45;&gt;HardQuota Major
Alert:w</title>
<path fill="none" stroke="black" d="M645.747,-132C658.891,-132 662.948,-123.793 671.832,-119.947"/>
<polygon fill="black" stroke="black" points="672.609,-123.361 681.747,-118 671.26,-116.492 672.609,-123.361"/>
<text text-anchor="middle" x="661.247" y="-120.8" font-family="Times,serif" font-size="14.00">true</text>
</g>
<!-- Minor HardQuota
Reach&#45;&gt;HardQuota Minor
Alert set -->
<g id="${uniqueid}_edge10" class="edge"><title>Minor HardQuota
Reach:e&#45;&gt;HardQuota Minor
Alert set:w</title>
<path fill="none" stroke="black" d="M645.747,-38C657.747,-38 662.997,-38 671.622,-38"/>
<polygon fill="black" stroke="black" points="671.747,-41.5001 681.747,-38 671.747,-34.5001 671.747,-41.5001"/>
<text text-anchor="middle" x="661.247" y="-26.8" font-family="Times,serif" font-size="14.00">true</text>
</g>
</g>
</svg>
