<?xml version="1.0" encoding="UTF-8" standalone="no"?>
<!DOCTYPE svg PUBLIC "-//W3C//DTD SVG 1.1//EN"
 "http://www.w3.org/Graphics/SVG/1.1/DTD/svg11.dtd">
<!-- Generated by graphviz version 2.38.0 (20140413.2041)
 -->
<!-- Title: EMC VMAX Alert Definitions/VMAX&#45;Disk/High Write Throughput Pages: 1 -->
<svg width="947pt" height="375pt"
 viewBox="0.00 0.00 946.87 374.80" xmlns="http://www.w3.org/2000/svg" xmlns:xlink="http://www.w3.org/1999/xlink">
<g id="${uniqueid}" class="graph" transform="scale(1 1) rotate(0) translate(4 370.804)">
<title>EMC VMAX Alert Definitions/VMAX&#45;Disk/High Write Throughput</title>
<polygon fill="white" stroke="none" points="-4,4 -4,-370.804 942.865,-370.804 942.865,4 -4,4"/>
<!-- DiskHighWrite
IORate_Cirt -->
<g id="${uniqueid}_node1" class="node"><title>DiskHighWrite
IORate_Cirt</title>
<g id="a_${uniqueid}_node1"><a xlink:href="#2081812649637413" xlink:title="com.watch4net.alerting.operation.comparator.ConstantComparatorOperation">
<polygon fill="#ff7f00" stroke="black" points="544.584,-345.87 420.584,-307.87 544.584,-269.87 668.584,-307.87 544.584,-345.87"/>
<text text-anchor="middle" x="544.584" y="-311.67" font-family="Times,serif" font-size="14.00" fill="white">DiskHighWrite</text>
<text text-anchor="middle" x="544.584" y="-296.67" font-family="Times,serif" font-size="14.00" fill="white">IORate_Cirt</text>
</a>
</g>
</g>
<!-- High_Write_IO_
Rate_Crit -->
<g id="${uniqueid}_node6" class="node"><title>High_Write_IO_
Rate_Crit</title>
<g id="a_${uniqueid}_node6"><a xlink:href="#2081812649654461" xlink:title="com.watch4net.alerting.action.SNMPTrapAction">
<ellipse fill="#4daf4a" stroke="black" cx="834.224" cy="-278.87" rx="92.7622" ry="26.7407"/>
<text text-anchor="middle" x="834.224" y="-282.67" font-family="Times,serif" font-size="14.00" fill="white">High_Write_IO_</text>
<text text-anchor="middle" x="834.224" y="-267.67" font-family="Times,serif" font-size="14.00" fill="white">Rate_Crit</text>
</a>
</g>
</g>
<!-- DiskHighWrite
IORate_Cirt&#45;&gt;High_Write_IO_
Rate_Crit -->
<g id="${uniqueid}_edge2" class="edge"><title>DiskHighWrite
IORate_Cirt:se&#45;&gt;High_Write_IO_
Rate_Crit:w</title>
<path fill="none" stroke="black" d="M574.584,-278.87C624.199,-229.254 662.833,-274.219 730.089,-278.543"/>
<polygon fill="black" stroke="black" points="730.117,-282.046 740.224,-278.87 730.342,-275.049 730.117,-282.046"/>
<text text-anchor="middle" x="559.084" y="-267.67" font-family="Times,serif" font-size="14.00">true</text>
</g>
<!-- SNMP_Clear_Crit -->
<g id="${uniqueid}_node9" class="node"><title>SNMP_Clear_Crit</title>
<g id="a_${uniqueid}_node9"><a xlink:href="#2081812649668688" xlink:title="com.watch4net.alerting.action.SNMPTrapAction">
<ellipse fill="#4daf4a" stroke="black" cx="834.224" cy="-341.87" rx="94.7833" ry="18"/>
<text text-anchor="middle" x="834.224" y="-338.17" font-family="Times,serif" font-size="14.00" fill="white">SNMP_Clear_Crit</text>
</a>
</g>
</g>
<!-- DiskHighWrite
IORate_Cirt&#45;&gt;SNMP_Clear_Crit -->
<g id="${uniqueid}_edge1" class="edge"><title>DiskHighWrite
IORate_Cirt:ne&#45;&gt;SNMP_Clear_Crit:w</title>
<path fill="none" stroke="black" d="M572.584,-336.87C575.429,-339.716 570.585,-343.186 573.584,-345.87 625.567,-392.397 661.53,-346.598 728.165,-342.202"/>
<polygon fill="black" stroke="black" points="728.345,-345.698 738.224,-341.87 728.114,-338.702 728.345,-345.698"/>
<text text-anchor="middle" x="555.584" y="-340.67" font-family="Times,serif" font-size="14.00">false</text>
</g>
<!-- DiskWriteIORate -->
<g id="${uniqueid}_node2" class="node"><title>DiskWriteIORate</title>
<g id="a_${uniqueid}_node2"><a xlink:href="#2081812649628270" xlink:title="com.watch4net.alerting.operation.CaseOperation">
<polygon fill="#377eb8" stroke="black" points="359.584,-201.87 220.584,-201.87 220.584,-165.87 359.584,-165.87 359.584,-201.87"/>
<text text-anchor="middle" x="290.084" y="-180.17" font-family="Times,serif" font-size="14.00" fill="white">DiskWriteIORate</text>
</a>
</g>
</g>
<!-- DiskWriteIORate&#45;&gt;DiskHighWrite
IORate_Cirt -->
<g id="${uniqueid}_edge3" class="edge"><title>DiskWriteIORate:e&#45;&gt;DiskHighWrite
IORate_Cirt:w</title>
<path fill="none" stroke="black" d="M359.584,-183.87C416.981,-183.87 365.683,-292.854 409.493,-306.477"/>
<polygon fill="black" stroke="black" points="409.199,-309.97 419.584,-307.87 410.156,-303.036 409.199,-309.97"/>
</g>
<!-- HighWriteIORate_
Major -->
<g id="${uniqueid}_node4" class="node"><title>HighWriteIORate_
Major</title>
<g id="a_${uniqueid}_node4"><a xlink:href="#2081812649678241" xlink:title="com.watch4net.alerting.operation.comparator.ConstantComparatorOperation">
<polygon fill="#ff7f00" stroke="black" points="544.584,-221.87 395.584,-183.87 544.584,-145.87 693.584,-183.87 544.584,-221.87"/>
<text text-anchor="middle" x="544.584" y="-187.67" font-family="Times,serif" font-size="14.00" fill="white">HighWriteIORate_</text>
<text text-anchor="middle" x="544.584" y="-172.67" font-family="Times,serif" font-size="14.00" fill="white">Major</text>
</a>
</g>
</g>
<!-- DiskWriteIORate&#45;&gt;HighWriteIORate_
Major -->
<g id="${uniqueid}_edge4" class="edge"><title>DiskWriteIORate:e&#45;&gt;HighWriteIORate_
Major:w</title>
<path fill="none" stroke="black" d="M359.584,-183.87C371.584,-183.87 376.834,-183.87 385.459,-183.87"/>
<polygon fill="black" stroke="black" points="385.584,-187.37 395.584,-183.87 385.584,-180.37 385.584,-187.37"/>
</g>
<!-- HighWriteIORate_
Minor -->
<g id="${uniqueid}_node5" class="node"><title>HighWriteIORate_
Minor</title>
<g id="a_${uniqueid}_node5"><a xlink:href="#2081812649710505" xlink:title="com.watch4net.alerting.operation.comparator.ConstantComparatorOperation">
<polygon fill="#ff7f00" stroke="black" points="544.584,-97.8701 395.584,-59.8701 544.584,-21.8701 693.584,-59.8701 544.584,-97.8701"/>
<text text-anchor="middle" x="544.584" y="-63.6701" font-family="Times,serif" font-size="14.00" fill="white">HighWriteIORate_</text>
<text text-anchor="middle" x="544.584" y="-48.6701" font-family="Times,serif" font-size="14.00" fill="white">Minor</text>
</a>
</g>
</g>
<!-- DiskWriteIORate&#45;&gt;HighWriteIORate_
Minor -->
<g id="${uniqueid}_edge5" class="edge"><title>DiskWriteIORate:e&#45;&gt;HighWriteIORate_
Minor:w</title>
<path fill="none" stroke="black" d="M359.584,-183.87C412.935,-183.87 348.601,-76.6945 385.403,-61.623"/>
<polygon fill="black" stroke="black" points="386.323,-65.0163 395.584,-59.8701 385.135,-58.1178 386.323,-65.0163"/>
</g>
<!-- HighWriteIORate -->
<g id="${uniqueid}_node3" class="node"><title>HighWriteIORate</title>
<g id="a_${uniqueid}_node3"><a xlink:href="#2081812649584292" xlink:title="com.watch4net.alerting.operation.FilteredEntryPoint">
<ellipse fill="#984ea3" stroke="black" cx="92.2918" cy="-183.87" rx="92.0841" ry="18"/>
<text text-anchor="middle" x="92.2918" y="-180.17" font-family="Times,serif" font-size="14.00" fill="white">HighWriteIORate</text>
</a>
</g>
</g>
<!-- HighWriteIORate&#45;&gt;DiskWriteIORate -->
<g id="${uniqueid}_edge6" class="edge"><title>HighWriteIORate:e&#45;&gt;DiskWriteIORate:w</title>
<path fill="none" stroke="black" d="M184.584,-183.87C196.584,-183.87 201.834,-183.87 210.459,-183.87"/>
<polygon fill="black" stroke="black" points="210.584,-187.37 220.584,-183.87 210.584,-180.37 210.584,-187.37"/>
</g>
<!-- High_Write_IO_
Rate_Major -->
<g id="${uniqueid}_node7" class="node"><title>High_Write_IO_
Rate_Major</title>
<g id="a_${uniqueid}_node7"><a xlink:href="#2081812649689793" xlink:title="com.watch4net.alerting.action.SNMPTrapAction">
<ellipse fill="#4daf4a" stroke="black" cx="834.224" cy="-152.87" rx="92.7622" ry="26.7407"/>
<text text-anchor="middle" x="834.224" y="-156.67" font-family="Times,serif" font-size="14.00" fill="white">High_Write_IO_</text>
<text text-anchor="middle" x="834.224" y="-141.67" font-family="Times,serif" font-size="14.00" fill="white">Rate_Major</text>
</a>
</g>
</g>
<!-- HighWriteIORate_
Major&#45;&gt;High_Write_IO_
Rate_Major -->
<g id="${uniqueid}_edge8" class="edge"><title>HighWriteIORate_
Major:se&#45;&gt;High_Write_IO_
Rate_Major:w</title>
<path fill="none" stroke="black" d="M575.584,-153.87C624.901,-104.553 663.299,-148.338 730.15,-152.551"/>
<polygon fill="black" stroke="black" points="730.119,-156.052 740.224,-152.87 730.34,-149.056 730.119,-156.052"/>
<text text-anchor="middle" x="560.084" y="-142.67" font-family="Times,serif" font-size="14.00">true</text>
</g>
<!-- SNMP_Clear_Major -->
<g id="${uniqueid}_node10" class="node"><title>SNMP_Clear_Major</title>
<g id="a_${uniqueid}_node10"><a xlink:href="#2081812649700373" xlink:title="com.watch4net.alerting.action.SNMPTrapAction">
<ellipse fill="#4daf4a" stroke="black" cx="834.224" cy="-215.87" rx="103.982" ry="18"/>
<text text-anchor="middle" x="834.224" y="-212.17" font-family="Times,serif" font-size="14.00" fill="white">SNMP_Clear_Major</text>
</a>
</g>
</g>
<!-- HighWriteIORate_
Major&#45;&gt;SNMP_Clear_Major -->
<g id="${uniqueid}_edge7" class="edge"><title>HighWriteIORate_
Major:ne&#45;&gt;SNMP_Clear_Major:w</title>
<path fill="none" stroke="black" d="M573.584,-213.87C576.117,-216.404 571.897,-219.499 574.584,-221.87 614.233,-256.872 640.875,-226.232 693.584,-221.87 705.708,-220.867 710.772,-217.993 719.389,-216.619"/>
<polygon fill="black" stroke="black" points="719.867,-220.094 729.584,-215.87 719.354,-213.113 719.867,-220.094"/>
<text text-anchor="middle" x="556.584" y="-217.67" font-family="Times,serif" font-size="14.00">false</text>
</g>
<!-- High_Write_IO_
Rate_Minor -->
<g id="${uniqueid}_node8" class="node"><title>High_Write_IO_
Rate_Minor</title>
<g id="a_${uniqueid}_node8"><a xlink:href="#2081812649720441" xlink:title="com.watch4net.alerting.action.SNMPTrapAction">
<ellipse fill="#4daf4a" stroke="black" cx="834.224" cy="-26.8701" rx="92.7622" ry="26.7407"/>
<text text-anchor="middle" x="834.224" y="-30.6701" font-family="Times,serif" font-size="14.00" fill="white">High_Write_IO_</text>
<text text-anchor="middle" x="834.224" y="-15.6701" font-family="Times,serif" font-size="14.00" fill="white">Rate_Minor</text>
</a>
</g>
</g>
<!-- HighWriteIORate_
Minor&#45;&gt;High_Write_IO_
Rate_Minor -->
<g id="${uniqueid}_edge10" class="edge"><title>HighWriteIORate_
Minor:se&#45;&gt;High_Write_IO_
Rate_Minor:w</title>
<path fill="none" stroke="black" d="M575.584,-29.8701C624.908,19.4543 663.29,-22.5206 730.149,-26.5641"/>
<polygon fill="black" stroke="black" points="730.123,-30.0648 740.224,-26.8701 730.335,-23.068 730.123,-30.0648"/>
<text text-anchor="middle" x="560.084" y="-18.6701" font-family="Times,serif" font-size="14.00">true</text>
</g>
<!-- SNMP_Clear_Minor -->
<g id="${uniqueid}_node11" class="node"><title>SNMP_Clear_Minor</title>
<g id="a_${uniqueid}_node11"><a xlink:href="#2081812649730024" xlink:title="com.watch4net.alerting.action.SNMPTrapAction">
<ellipse fill="#4daf4a" stroke="black" cx="834.224" cy="-89.8701" rx="104.782" ry="18"/>
<text text-anchor="middle" x="834.224" y="-86.1701" font-family="Times,serif" font-size="14.00" fill="white">SNMP_Clear_Minor</text>
</a>
</g>
</g>
<!-- HighWriteIORate_
Minor&#45;&gt;SNMP_Clear_Minor -->
<g id="${uniqueid}_edge9" class="edge"><title>HighWriteIORate_
Minor:ne&#45;&gt;SNMP_Clear_Minor:w</title>
<path fill="none" stroke="black" d="M573.584,-89.8701C576.117,-92.4038 571.897,-95.4987 574.584,-97.8701 614.233,-132.872 641.011,-103.641 693.584,-97.8701 705.93,-96.5147 710.825,-92.6193 719.605,-90.812"/>
<polygon fill="black" stroke="black" points="719.957,-94.2945 729.584,-89.8701 719.299,-87.3255 719.957,-94.2945"/>
<text text-anchor="middle" x="556.584" y="-93.6701" font-family="Times,serif" font-size="14.00">false</text>
</g>
</g>
</svg>
