<?xml version="1.0" encoding="UTF-8" standalone="no"?>
<!DOCTYPE svg PUBLIC "-//W3C//DTD SVG 1.1//EN"
 "http://www.w3.org/Graphics/SVG/1.1/DTD/svg11.dtd">
<!-- Generated by graphviz version 2.38.0 (20140413.2041)
 -->
<!-- Title: Examples/IPSLA Pages: 1 -->
<svg width="1217pt" height="125pt"
 viewBox="0.00 0.00 1216.99 125.00" xmlns="http://www.w3.org/2000/svg" xmlns:xlink="http://www.w3.org/1999/xlink">
<g id="${uniqueid}" class="graph" transform="scale(1 1) rotate(0) translate(4 121)">
<title>Examples/IPSLA</title>
<polygon fill="white" stroke="none" points="-4,4 -4,-121 1212.99,-121 1212.99,4 -4,4"/>
<!-- IPSLA RTT Count -->
<g id="${uniqueid}_node1" class="node"><title>IPSLA RTT Count</title>
<g id="a_${uniqueid}_node1"><a xlink:href="#1263225922295" xlink:title="com.watch4net.alerting.operation.FilteredEntryPoint">
<ellipse fill="#984ea3" stroke="black" cx="382.53" cy="-99" rx="92.8835" ry="18"/>
<text text-anchor="middle" x="382.53" y="-95.3" font-family="Times,serif" font-size="14.00" fill="white">IPSLA RTT Count</text>
</a>
</g>
</g>
<!-- RTT count -->
<g id="${uniqueid}_node9" class="node"><title>RTT count</title>
<g id="a_${uniqueid}_node9"><a xlink:href="#1263225922291" xlink:title="com.watch4net.alerting.operation.arithmetic.DataArithmeticOperation">
<polygon fill="#377eb8" stroke="black" points="601.472,-109 511.472,-109 511.472,-73 601.472,-73 601.472,-109"/>
<text text-anchor="middle" x="556.472" y="-87.3" font-family="Times,serif" font-size="14.00" fill="white">RTT count</text>
</a>
</g>
</g>
<!-- IPSLA RTT Count&#45;&gt;RTT count -->
<g id="${uniqueid}_edge1" class="edge"><title>IPSLA RTT Count:e&#45;&gt;RTT count:w</title>
<path fill="none" stroke="black" d="M475.472,-99C487.893,-99 492.75,-94.4058 501.507,-92.1804"/>
<polygon fill="black" stroke="black" points="501.953,-95.6521 511.472,-91 501.129,-88.7007 501.953,-95.6521"/>
</g>
<!-- IPSLAEntry -->
<g id="${uniqueid}_node2" class="node"><title>IPSLAEntry</title>
<g id="a_${uniqueid}_node2"><a xlink:href="#1263225922294" xlink:title="com.watch4net.alerting.operation.FilteredEntryPoint">
<ellipse fill="#984ea3" stroke="black" cx="66.2941" cy="-45" rx="66.0889" ry="18"/>
<text text-anchor="middle" x="66.2941" y="-41.3" font-family="Times,serif" font-size="14.00" fill="white">IPSLAEntry</text>
</a>
</g>
</g>
<!-- Loss -->
<g id="${uniqueid}_node5" class="node"><title>Loss</title>
<g id="a_${uniqueid}_node5"><a xlink:href="#1263225922293" xlink:title="com.watch4net.alerting.operation.arithmetic.DataArithmeticOperation">
<polygon fill="#377eb8" stroke="black" points="238.088,-90 184.088,-90 184.088,-54 238.088,-54 238.088,-90"/>
<text text-anchor="middle" x="211.088" y="-68.3" font-family="Times,serif" font-size="14.00" fill="white">Loss</text>
</a>
</g>
</g>
<!-- IPSLAEntry&#45;&gt;Loss -->
<g id="${uniqueid}_edge2" class="edge"><title>IPSLAEntry:e&#45;&gt;Loss:w</title>
<path fill="none" stroke="black" d="M132.588,-45C154.063,-45 157.132,-64.2217 172.854,-70.2285"/>
<polygon fill="black" stroke="black" points="172.638,-73.7429 183.088,-72 173.832,-66.8455 172.638,-73.7429"/>
</g>
<!-- MIA Late -->
<g id="${uniqueid}_node6" class="node"><title>MIA Late</title>
<g id="a_${uniqueid}_node6"><a xlink:href="#1263225922292" xlink:title="com.watch4net.alerting.operation.arithmetic.DataArithmeticOperation">
<polygon fill="#377eb8" stroke="black" points="253.588,-36 168.588,-36 168.588,-0 253.588,-0 253.588,-36"/>
<text text-anchor="middle" x="211.088" y="-14.3" font-family="Times,serif" font-size="14.00" fill="white">MIA Late</text>
</a>
</g>
</g>
<!-- IPSLAEntry&#45;&gt;MIA Late -->
<g id="${uniqueid}_edge3" class="edge"><title>IPSLAEntry:e&#45;&gt;MIA Late:w</title>
<path fill="none" stroke="black" d="M132.588,-45C148.526,-45 149.223,-27.8547 158.969,-20.8895"/>
<polygon fill="black" stroke="black" points="160.018,-24.229 168.588,-18 158.004,-17.5249 160.018,-24.229"/>
</g>
<!-- Log Alarm Clear -->
<g id="${uniqueid}_node3" class="node"><title>Log Alarm Clear</title>
<g id="a_${uniqueid}_node3"><a xlink:href="#1263225922286" xlink:title="com.watch4net.alerting.action.LogAction">
<ellipse fill="#4daf4a" stroke="black" cx="1121.25" cy="-95" rx="87.9851" ry="18"/>
<text text-anchor="middle" x="1121.25" y="-91.3" font-family="Times,serif" font-size="14.00" fill="white">Log Alarm Clear</text>
</a>
</g>
</g>
<!-- Log Alarm Set -->
<g id="${uniqueid}_node4" class="node"><title>Log Alarm Set</title>
<g id="a_${uniqueid}_node4"><a xlink:href="#1263225922285" xlink:title="com.watch4net.alerting.action.LogAction">
<ellipse fill="#4daf4a" stroke="black" cx="1121.25" cy="-41" rx="77.1866" ry="18"/>
<text text-anchor="middle" x="1121.25" y="-37.3" font-family="Times,serif" font-size="14.00" fill="white">Log Alarm Set</text>
</a>
</g>
</g>
<!-- Sum 1 -->
<g id="${uniqueid}_node11" class="node"><title>Sum 1</title>
<g id="a_${uniqueid}_node11"><a xlink:href="#1263225922290" xlink:title="com.watch4net.alerting.operation.arithmetic.DataArithmeticOperation">
<polygon fill="#377eb8" stroke="black" points="413.53,-63 351.53,-63 351.53,-27 413.53,-27 413.53,-63"/>
<text text-anchor="middle" x="382.53" y="-41.3" font-family="Times,serif" font-size="14.00" fill="white">Sum 1</text>
</a>
</g>
</g>
<!-- Loss&#45;&gt;Sum 1 -->
<g id="${uniqueid}_edge4" class="edge"><title>Loss:e&#45;&gt;Sum 1:w</title>
<path fill="none" stroke="black" d="M239.088,-72C286.468,-72 298.024,-48.6634 340.366,-45.3817"/>
<polygon fill="black" stroke="black" points="340.668,-48.8729 350.53,-45 340.406,-41.8778 340.668,-48.8729"/>
</g>
<!-- MIA Late&#45;&gt;Sum 1 -->
<g id="${uniqueid}_edge5" class="edge"><title>MIA Late:e&#45;&gt;Sum 1:w</title>
<path fill="none" stroke="black" d="M253.588,-18C294.644,-18 304.325,-40.752 340.234,-44.4847"/>
<polygon fill="black" stroke="black" points="340.368,-47.9957 350.53,-45 340.717,-41.0045 340.368,-47.9957"/>
</g>
<!-- Over 50 -->
<g id="${uniqueid}_node7" class="node"><title>Over 50</title>
<g id="a_${uniqueid}_node7"><a xlink:href="#1263225922287" xlink:title="com.watch4net.alerting.operation.comparator.ConstantComparatorOperation">
<polygon fill="#ff7f00" stroke="black" points="929.489,-86 861.454,-68 929.489,-50 997.525,-68 929.489,-86"/>
<text text-anchor="middle" x="929.489" y="-64.3" font-family="Times,serif" font-size="14.00" fill="white">Over 50</text>
</a>
</g>
</g>
<!-- Over 50&#45;&gt;Log Alarm Clear -->
<g id="${uniqueid}_edge6" class="edge"><title>Over 50:ne&#45;&gt;Log Alarm Clear:w</title>
<path fill="none" stroke="black" d="M942.489,-82C943.785,-83.2958 942.103,-84.8017 943.489,-86 971.176,-109.93 989.726,-97.7553 1023.15,-95.3746"/>
<polygon fill="black" stroke="black" points="1023.64,-98.8593 1033.51,-95 1023.39,-91.8638 1023.64,-98.8593"/>
<text text-anchor="middle" x="925.489" y="-85.8" font-family="Times,serif" font-size="14.00">false</text>
</g>
<!-- Over 50&#45;&gt;Log Alarm Set -->
<g id="${uniqueid}_edge7" class="edge"><title>Over 50:se&#45;&gt;Log Alarm Set:w</title>
<path fill="none" stroke="black" d="M944.489,-54C972.94,-25.549 994.601,-38.3776 1031.87,-40.6737"/>
<polygon fill="black" stroke="black" points="1032.14,-44.184 1042.25,-41 1032.36,-37.1875 1032.14,-44.184"/>
<text text-anchor="middle" x="928.989" y="-42.8" font-family="Times,serif" font-size="14.00">true</text>
</g>
<!-- Percentage -->
<g id="${uniqueid}_node8" class="node"><title>Percentage</title>
<g id="a_${uniqueid}_node8"><a xlink:href="#1263225922288" xlink:title="com.watch4net.alerting.operation.arithmetic.ConstantArithmeticOperation">
<polygon fill="#377eb8" stroke="black" points="825.472,-86 727.472,-86 727.472,-50 825.472,-50 825.472,-86"/>
<text text-anchor="middle" x="776.472" y="-64.3" font-family="Times,serif" font-size="14.00" fill="white">Percentage</text>
</a>
</g>
</g>
<!-- Percentage&#45;&gt;Over 50 -->
<g id="${uniqueid}_edge8" class="edge"><title>Percentage:e&#45;&gt;Over 50:w</title>
<path fill="none" stroke="black" d="M825.472,-68C837.472,-68 842.722,-68 851.347,-68"/>
<polygon fill="black" stroke="black" points="851.472,-71.5001 861.472,-68 851.472,-64.5001 851.472,-71.5001"/>
</g>
<!-- Ratio -->
<g id="${uniqueid}_node10" class="node"><title>Ratio</title>
<g id="a_${uniqueid}_node10"><a xlink:href="#1263225922289" xlink:title="com.watch4net.alerting.operation.arithmetic.DataArithmeticOperation">
<polygon fill="#377eb8" stroke="black" points="691.472,-86 637.472,-86 637.472,-50 691.472,-50 691.472,-86"/>
<text text-anchor="middle" x="664.472" y="-64.3" font-family="Times,serif" font-size="14.00" fill="white">Ratio</text>
</a>
</g>
</g>
<!-- RTT count&#45;&gt;Ratio -->
<g id="${uniqueid}_edge9" class="edge"><title>RTT count:e&#45;&gt;Ratio:w</title>
<path fill="none" stroke="black" d="M601.472,-91C616.305,-91 618.345,-76.9619 627.582,-70.8203"/>
<polygon fill="black" stroke="black" points="628.815,-74.1082 637.472,-68 626.895,-67.3766 628.815,-74.1082"/>
</g>
<!-- Ratio&#45;&gt;Percentage -->
<g id="${uniqueid}_edge10" class="edge"><title>Ratio:e&#45;&gt;Percentage:w</title>
<path fill="none" stroke="black" d="M691.472,-68C703.472,-68 708.722,-68 717.347,-68"/>
<polygon fill="black" stroke="black" points="717.472,-71.5001 727.472,-68 717.472,-64.5001 717.472,-71.5001"/>
</g>
<!-- Sum 1&#45;&gt;RTT count -->
<g id="${uniqueid}_edge11" class="edge"><title>Sum 1:e&#45;&gt;RTT count:w</title>
<path fill="none" stroke="black" d="M414.53,-45C444.154,-45 448.814,-59.0787 475.472,-72 488.063,-78.1032 491.89,-86.1314 501.348,-89.4559"/>
<polygon fill="black" stroke="black" points="501.058,-92.9521 511.472,-91 502.114,-86.0321 501.058,-92.9521"/>
</g>
<!-- Sum 1&#45;&gt;Ratio -->
<g id="${uniqueid}_edge12" class="edge"><title>Sum 1:e&#45;&gt;Ratio:w</title>
<path fill="none" stroke="black" d="M414.53,-45C498.043,-45 518.427,-55.1664 601.472,-64 613.478,-65.2771 618.669,-66.8886 627.306,-67.6145"/>
<polygon fill="black" stroke="black" points="627.346,-71.1184 637.472,-68 627.612,-64.1234 627.346,-71.1184"/>
</g>
</g>
</svg>
