<?xml version="1.0" encoding="UTF-8" standalone="no"?>
<!DOCTYPE svg PUBLIC "-//W3C//DTD SVG 1.1//EN"
 "http://www.w3.org/Graphics/SVG/1.1/DTD/svg11.dtd">
<!-- Generated by graphviz version 2.38.0 (20140413.2041)
 -->
<!-- Title: EMC VMAX Alert Definitions/VMAX&#45;Controller/Director status change Pages: 1 -->
<svg width="679pt" height="134pt"
 viewBox="0.00 0.00 678.97 133.74" xmlns="http://www.w3.org/2000/svg" xmlns:xlink="http://www.w3.org/1999/xlink">
<g id="${uniqueid}" class="graph" transform="scale(1 1) rotate(0) translate(4 129.74)">
<title>EMC VMAX Alert Definitions/VMAX&#45;Controller/Director status change</title>
<polygon fill="white" stroke="none" points="-4,4 -4,-129.74 674.968,-129.74 674.968,4 -4,4"/>
<!-- Director State
Filter -->
<g id="${uniqueid}_node1" class="node"><title>Director State
Filter</title>
<g id="a_${uniqueid}_node1"><a xlink:href="#1414507471967" xlink:title="com.watch4net.alerting.operation.FilteredEntryPoint">
<ellipse fill="#984ea3" stroke="black" cx="86.267" cy="-62.8701" rx="86.0347" ry="26.7407"/>
<text text-anchor="middle" x="86.267" y="-66.6701" font-family="Times,serif" font-size="14.00" fill="white">Director State</text>
<text text-anchor="middle" x="86.267" y="-51.6701" font-family="Times,serif" font-size="14.00" fill="white">Filter</text>
</a>
</g>
</g>
<!-- Director State
comparator -->
<g id="${uniqueid}_node2" class="node"><title>Director State
comparator</title>
<g id="a_${uniqueid}_node2"><a xlink:href="#1414507549395" xlink:title="com.watch4net.alerting.operation.comparator.StringComparatorOperation">
<polygon fill="#ff7f00" stroke="black" points="330.534,-100.87 208.534,-62.8701 330.534,-24.8701 452.534,-62.8701 330.534,-100.87"/>
<text text-anchor="middle" x="330.534" y="-66.6701" font-family="Times,serif" font-size="14.00" fill="white">Director State</text>
<text text-anchor="middle" x="330.534" y="-51.6701" font-family="Times,serif" font-size="14.00" fill="white">comparator</text>
</a>
</g>
</g>
<!-- Director State
Filter&#45;&gt;Director State
comparator -->
<g id="${uniqueid}_edge1" class="edge"><title>Director State
Filter:e&#45;&gt;Director State
comparator:w</title>
<path fill="none" stroke="black" d="M172.534,-62.8701C184.534,-62.8701 189.784,-62.8701 198.409,-62.8701"/>
<polygon fill="black" stroke="black" points="198.534,-66.3702 208.534,-62.8701 198.534,-59.3702 198.534,-66.3702"/>
</g>
<!-- Director Status
Change trap -->
<g id="${uniqueid}_node3" class="node"><title>Director Status
Change trap</title>
<g id="a_${uniqueid}_node3"><a xlink:href="#1414507695862" xlink:title="com.watch4net.alerting.action.SNMPTrapAction">
<ellipse fill="#4daf4a" stroke="black" cx="579.751" cy="-98.8701" rx="91.4341" ry="26.7407"/>
<text text-anchor="middle" x="579.751" y="-102.67" font-family="Times,serif" font-size="14.00" fill="white">Director Status</text>
<text text-anchor="middle" x="579.751" y="-87.6701" font-family="Times,serif" font-size="14.00" fill="white">Change trap</text>
</a>
</g>
</g>
<!-- Director State
comparator&#45;&gt;Director Status
Change trap -->
<g id="${uniqueid}_edge2" class="edge"><title>Director State
comparator:ne&#45;&gt;Director Status
Change trap:w</title>
<path fill="none" stroke="black" d="M358.534,-91.8701C361.38,-94.7159 356.535,-98.186 359.534,-100.87 390.333,-128.436 411.217,-102.017 452.534,-100.87 464.548,-100.537 469.777,-99.5783 478.401,-99.12"/>
<polygon fill="black" stroke="black" points="478.623,-102.616 488.534,-98.8701 478.451,-95.6178 478.623,-102.616"/>
<text text-anchor="middle" x="339.534" y="-95.6701" font-family="Times,serif" font-size="14.00">false</text>
</g>
<!-- Director status
clear -->
<g id="${uniqueid}_node4" class="node"><title>Director status
clear</title>
<g id="a_${uniqueid}_node4"><a xlink:href="#1414517415702" xlink:title="com.watch4net.alerting.action.SNMPTrapAction">
<ellipse fill="#4daf4a" stroke="black" cx="579.751" cy="-26.8701" rx="91.4341" ry="26.7407"/>
<text text-anchor="middle" x="579.751" y="-30.6701" font-family="Times,serif" font-size="14.00" fill="white">Director status</text>
<text text-anchor="middle" x="579.751" y="-15.6701" font-family="Times,serif" font-size="14.00" fill="white">clear</text>
</a>
</g>
</g>
<!-- Director State
comparator&#45;&gt;Director status
clear -->
<g id="${uniqueid}_edge3" class="edge"><title>Director State
comparator:se&#45;&gt;Director status
clear:w</title>
<path fill="none" stroke="black" d="M360.534,-33.8701C398.381,3.97734 427.803,-23.109 478.466,-26.5277"/>
<polygon fill="black" stroke="black" points="478.421,-30.0281 488.534,-26.8701 478.659,-23.0321 478.421,-30.0281"/>
<text text-anchor="middle" x="345.034" y="-22.6701" font-family="Times,serif" font-size="14.00">true</text>
</g>
</g>
</svg>
