<?xml version="1.0" encoding="UTF-8" standalone="no"?>
<!DOCTYPE svg PUBLIC "-//W3C//DTD SVG 1.1//EN"
 "http://www.w3.org/Graphics/SVG/1.1/DTD/svg11.dtd">
<!-- Generated by graphviz version 2.38.0 (20140413.2041)
 -->
<!-- Title: EMC Isilon Alert Definitions/Isilon HighTemperature Alert Pages: 1 -->
<svg width="678pt" height="381pt"
 viewBox="0.00 0.00 678.01 381.48" xmlns="http://www.w3.org/2000/svg" xmlns:xlink="http://www.w3.org/1999/xlink">
<g id="${uniqueid}" class="graph" transform="scale(1 1) rotate(0) translate(4 377.477)">
<title>EMC Isilon Alert Definitions/Isilon HighTemperature Alert</title>
<polygon fill="white" stroke="none" points="-4,4 -4,-377.477 674.014,-377.477 674.014,4 -4,4"/>
<!-- High Temp -->
<g id="${uniqueid}_node1" class="node"><title>High Temp</title>
<g id="a_${uniqueid}_node1"><a xlink:href="#1418935069498" xlink:title="com.watch4net.alerting.operation.CaseOperation">
<polygon fill="#377eb8" stroke="black" points="260.007,-195 176.007,-195 176.007,-159 260.007,-159 260.007,-195"/>
<text text-anchor="middle" x="218.007" y="-173.3" font-family="Times,serif" font-size="14.00" fill="white">High Temp</text>
</a>
</g>
</g>
<!-- Isilon High
Temperature
Supply1&#45;12 -->
<g id="${uniqueid}_node4" class="node"><title>Isilon High
Temperature
Supply1&#45;12</title>
<g id="a_${uniqueid}_node4"><a xlink:href="#1415308648781" xlink:title="com.watch4net.alerting.operation.comparator.StringComparatorOperation">
<polygon fill="#ff7f00" stroke="black" points="395.007,-354 296.007,-301 395.007,-248 494.007,-301 395.007,-354"/>
<text text-anchor="middle" x="395.007" y="-312.3" font-family="Times,serif" font-size="14.00" fill="white">Isilon High</text>
<text text-anchor="middle" x="395.007" y="-297.3" font-family="Times,serif" font-size="14.00" fill="white">Temperature</text>
<text text-anchor="middle" x="395.007" y="-282.3" font-family="Times,serif" font-size="14.00" fill="white">Supply1&#45;12</text>
</a>
</g>
</g>
<!-- High Temp&#45;&gt;Isilon High
Temperature
Supply1&#45;12 -->
<g id="${uniqueid}_edge1" class="edge"><title>High Temp:e&#45;&gt;Isilon High
Temperature
Supply1&#45;12:w</title>
<path fill="none" stroke="black" d="M260.007,-177C313.359,-177 249.025,-284.176 285.827,-299.247"/>
<polygon fill="black" stroke="black" points="285.558,-302.752 296.007,-301 286.746,-295.854 285.558,-302.752"/>
</g>
<!-- Isilon High
Temperature
Supply1&#45;28 -->
<g id="${uniqueid}_node5" class="node"><title>Isilon High
Temperature
Supply1&#45;28</title>
<g id="a_${uniqueid}_node5"><a xlink:href="#1415308554126" xlink:title="com.watch4net.alerting.operation.comparator.StringComparatorOperation">
<polygon fill="#ff7f00" stroke="black" points="395.007,-230 296.007,-177 395.007,-124 494.007,-177 395.007,-230"/>
<text text-anchor="middle" x="395.007" y="-188.3" font-family="Times,serif" font-size="14.00" fill="white">Isilon High</text>
<text text-anchor="middle" x="395.007" y="-173.3" font-family="Times,serif" font-size="14.00" fill="white">Temperature</text>
<text text-anchor="middle" x="395.007" y="-158.3" font-family="Times,serif" font-size="14.00" fill="white">Supply1&#45;28</text>
</a>
</g>
</g>
<!-- High Temp&#45;&gt;Isilon High
Temperature
Supply1&#45;28 -->
<g id="${uniqueid}_edge2" class="edge"><title>High Temp:e&#45;&gt;Isilon High
Temperature
Supply1&#45;28:w</title>
<path fill="none" stroke="black" d="M260.007,-177C272.007,-177 277.257,-177 285.882,-177"/>
<polygon fill="black" stroke="black" points="286.007,-180.5 296.007,-177 286.007,-173.5 286.007,-180.5"/>
</g>
<!-- Isilon High
Temperature
Supply1&#45;39 -->
<g id="${uniqueid}_node6" class="node"><title>Isilon High
Temperature
Supply1&#45;39</title>
<g id="a_${uniqueid}_node6"><a xlink:href="#1415308605950" xlink:title="com.watch4net.alerting.operation.comparator.StringComparatorOperation">
<polygon fill="#ff7f00" stroke="black" points="395.007,-106 296.007,-53 395.007,-2.13163e-14 494.007,-53 395.007,-106"/>
<text text-anchor="middle" x="395.007" y="-64.3" font-family="Times,serif" font-size="14.00" fill="white">Isilon High</text>
<text text-anchor="middle" x="395.007" y="-49.3" font-family="Times,serif" font-size="14.00" fill="white">Temperature</text>
<text text-anchor="middle" x="395.007" y="-34.3" font-family="Times,serif" font-size="14.00" fill="white">Supply1&#45;39</text>
</a>
</g>
</g>
<!-- High Temp&#45;&gt;Isilon High
Temperature
Supply1&#45;39 -->
<g id="${uniqueid}_edge3" class="edge"><title>High Temp:e&#45;&gt;Isilon High
Temperature
Supply1&#45;39:w</title>
<path fill="none" stroke="black" d="M260.007,-177C313.359,-177 249.025,-69.8245 285.827,-54.7529"/>
<polygon fill="black" stroke="black" points="286.746,-58.1462 296.007,-53 285.558,-51.2477 286.746,-58.1462"/>
</g>
<!-- Isilon High
Temperature
Alert -->
<g id="${uniqueid}_node2" class="node"><title>Isilon High
Temperature
Alert</title>
<g id="a_${uniqueid}_node2"><a xlink:href="#1730764059641617" xlink:title="com.watch4net.alerting.operation.FilteredEntryPoint">
<ellipse fill="#984ea3" stroke="black" cx="70.0036" cy="-177" rx="70.0071" ry="37.4533"/>
<text text-anchor="middle" x="70.0036" y="-188.3" font-family="Times,serif" font-size="14.00" fill="white">Isilon High</text>
<text text-anchor="middle" x="70.0036" y="-173.3" font-family="Times,serif" font-size="14.00" fill="white">Temperature</text>
<text text-anchor="middle" x="70.0036" y="-158.3" font-family="Times,serif" font-size="14.00" fill="white">Alert</text>
</a>
</g>
</g>
<!-- Isilon High
Temperature
Alert&#45;&gt;High Temp -->
<g id="${uniqueid}_edge4" class="edge"><title>Isilon High
Temperature
Alert:e&#45;&gt;High Temp:w</title>
<path fill="none" stroke="black" d="M140.007,-177C152.007,-177 157.257,-177 165.882,-177"/>
<polygon fill="black" stroke="black" points="166.007,-180.5 176.007,-177 166.007,-173.5 166.007,-180.5"/>
</g>
<!-- Isilon High
Temperature
Supply1 -->
<g id="${uniqueid}_node3" class="node"><title>Isilon High
Temperature
Supply1</title>
<g id="a_${uniqueid}_node3"><a xlink:href="#1730764059684140" xlink:title="com.watch4net.alerting.action.SNMPTrapAction">
<ellipse fill="#4daf4a" stroke="black" cx="600.011" cy="-177" rx="70.0071" ry="37.4533"/>
<text text-anchor="middle" x="600.011" y="-188.3" font-family="Times,serif" font-size="14.00" fill="white">Isilon High</text>
<text text-anchor="middle" x="600.011" y="-173.3" font-family="Times,serif" font-size="14.00" fill="white">Temperature</text>
<text text-anchor="middle" x="600.011" y="-158.3" font-family="Times,serif" font-size="14.00" fill="white">Supply1</text>
</a>
</g>
</g>
<!-- Isilon High
Temperature
Supply1&#45;12&#45;&gt;Isilon High
Temperature
Supply1 -->
<g id="${uniqueid}_edge6" class="edge"><title>Isilon High
Temperature
Supply1&#45;12:se&#45;&gt;Isilon High
Temperature
Supply1:w</title>
<path fill="none" stroke="black" d="M431.007,-266C452.548,-244.459 471.202,-259.197 494.007,-239 514.693,-220.68 502.612,-187.509 519.818,-179.021"/>
<polygon fill="black" stroke="black" points="520.879,-182.379 530.007,-177 519.517,-175.512 520.879,-182.379"/>
<text text-anchor="middle" x="415.507" y="-254.8" font-family="Times,serif" font-size="14.00">true</text>
</g>
<!-- Isilon High
Temperature
Supply2 -->
<g id="${uniqueid}_node7" class="node"><title>Isilon High
Temperature
Supply2</title>
<g id="a_${uniqueid}_node7"><a xlink:href="#1415308480122" xlink:title="com.watch4net.alerting.action.SNMPTrapAction">
<ellipse fill="#4daf4a" stroke="black" cx="600.011" cy="-336" rx="70.0071" ry="37.4533"/>
<text text-anchor="middle" x="600.011" y="-347.3" font-family="Times,serif" font-size="14.00" fill="white">Isilon High</text>
<text text-anchor="middle" x="600.011" y="-332.3" font-family="Times,serif" font-size="14.00" fill="white">Temperature</text>
<text text-anchor="middle" x="600.011" y="-317.3" font-family="Times,serif" font-size="14.00" fill="white">Supply2</text>
</a>
</g>
</g>
<!-- Isilon High
Temperature
Supply1&#45;12&#45;&gt;Isilon High
Temperature
Supply2 -->
<g id="${uniqueid}_edge5" class="edge"><title>Isilon High
Temperature
Supply1&#45;12:ne&#45;&gt;Isilon High
Temperature
Supply2:w</title>
<path fill="none" stroke="black" d="M429.007,-336C431.84,-338.833 427.097,-351.247 430.007,-354 450.671,-373.547 466.324,-360.535 494.007,-354 507.473,-350.821 510.943,-341.792 520.101,-337.864"/>
<polygon fill="black" stroke="black" points="520.827,-341.289 530.007,-336 519.532,-334.409 520.827,-341.289"/>
<text text-anchor="middle" x="410.007" y="-324.8" font-family="Times,serif" font-size="14.00">false</text>
</g>
<!-- Isilon High
Temperature
Supply1&#45;28&#45;&gt;Isilon High
Temperature
Supply1 -->
<g id="${uniqueid}_edge7" class="edge"><title>Isilon High
Temperature
Supply1&#45;28:e&#45;&gt;Isilon High
Temperature
Supply1:w</title>
<path fill="none" stroke="black" d="M494.007,-177C506.007,-177 511.257,-177 519.882,-177"/>
<polygon fill="black" stroke="black" points="520.007,-180.5 530.007,-177 520.007,-173.5 520.007,-180.5"/>
<text text-anchor="middle" x="509.507" y="-165.8" font-family="Times,serif" font-size="14.00">true</text>
</g>
<!-- Isilon High
Temperature
Supply1&#45;39&#45;&gt;Isilon High
Temperature
Supply1 -->
<g id="${uniqueid}_edge8" class="edge"><title>Isilon High
Temperature
Supply1&#45;39:e&#45;&gt;Isilon High
Temperature
Supply1:w</title>
<path fill="none" stroke="black" d="M494.007,-53C547.359,-53 483.025,-160.176 519.827,-175.247"/>
<polygon fill="black" stroke="black" points="519.558,-178.752 530.007,-177 520.746,-171.854 519.558,-178.752"/>
<text text-anchor="middle" x="509.507" y="-41.8" font-family="Times,serif" font-size="14.00">true</text>
</g>
</g>
</svg>
