<?xml version="1.0" encoding="UTF-8" standalone="no"?>
<!DOCTYPE svg PUBLIC "-//W3C//DTD SVG 1.1//EN"
 "http://www.w3.org/Graphics/SVG/1.1/DTD/svg11.dtd">
<!-- Generated by graphviz version 2.38.0 (20140413.2041)
 -->
<!-- Title: EMC M&amp;R Health/Backend Processing Delay Pages: 1 -->
<svg width="795pt" height="172pt"
 viewBox="0.00 0.00 794.65 171.87" xmlns="http://www.w3.org/2000/svg" xmlns:xlink="http://www.w3.org/1999/xlink">
<g id="${uniqueid}" class="graph" transform="scale(1 1) rotate(0) translate(4 167.87)">
<title>EMC M&amp;R Health/Backend Processing Delay</title>
<polygon fill="white" stroke="none" points="-4,4 -4,-167.87 790.652,-167.87 790.652,4 -4,4"/>
<!-- Action
CLEARMajor -->
<g id="${uniqueid}_node1" class="node"><title>Action
CLEARMajor</title>
<g id="a_${uniqueid}_node1"><a xlink:href="#95805040945361" xlink:title="com.watch4net.alerting.action.SNMPTrapAction">
<ellipse fill="#4daf4a" stroke="black" cx="702.809" cy="-137" rx="65.1077" ry="26.7407"/>
<text text-anchor="middle" x="702.809" y="-140.8" font-family="Times,serif" font-size="14.00" fill="white">Action</text>
<text text-anchor="middle" x="702.809" y="-125.8" font-family="Times,serif" font-size="14.00" fill="white">CLEARMajor</text>
</a>
</g>
</g>
<!-- Action SETMajor -->
<g id="${uniqueid}_node2" class="node"><title>Action SETMajor</title>
<g id="a_${uniqueid}_node2"><a xlink:href="#95805040935147" xlink:title="com.watch4net.alerting.action.SNMPTrapAction">
<ellipse fill="#4daf4a" stroke="black" cx="702.809" cy="-18" rx="83.6854" ry="18"/>
<text text-anchor="middle" x="702.809" y="-14.3" font-family="Times,serif" font-size="14.00" fill="white">Action SETMajor</text>
</a>
</g>
</g>
<!-- Custom post&#45;
filter -->
<g id="${uniqueid}_node3" class="node"><title>Custom post&#45;
filter</title>
<g id="a_${uniqueid}_node3"><a xlink:href="#1436288797586" xlink:title="1435689668905">
<polygon fill="#e41a1c" stroke="black" points="756.309,-92 649.309,-92 649.309,-54 756.309,-54 756.309,-92"/>
<text text-anchor="middle" x="702.809" y="-76.8" font-family="Times,serif" font-size="14.00" fill="white">Custom post&#45;</text>
<text text-anchor="middle" x="702.809" y="-61.8" font-family="Times,serif" font-size="14.00" fill="white">filter</text>
</a>
</g>
</g>
<!-- Custom pre&#45;
filter -->
<g id="${uniqueid}_node4" class="node"><title>Custom pre&#45;
filter</title>
<g id="a_${uniqueid}_node4"><a xlink:href="#1436288788256" xlink:title="1435689654812">
<polygon fill="#e41a1c" stroke="black" points="224.692,-92 125.692,-92 125.692,-54 224.692,-54 224.692,-92"/>
<text text-anchor="middle" x="175.192" y="-76.8" font-family="Times,serif" font-size="14.00" fill="white">Custom pre&#45;</text>
<text text-anchor="middle" x="175.192" y="-61.8" font-family="Times,serif" font-size="14.00" fill="white">filter</text>
</a>
</g>
</g>
<!-- Refine -->
<g id="${uniqueid}_node6" class="node"><title>Refine</title>
<g id="a_${uniqueid}_node6"><a xlink:href="#1428001478889" xlink:title="com.watch4net.alerting.operation.RefineFilterOperation">
<polygon fill="#377eb8" stroke="black" points="322.692,-91 260.692,-91 260.692,-55 322.692,-55 322.692,-91"/>
<text text-anchor="middle" x="291.692" y="-69.3" font-family="Times,serif" font-size="14.00" fill="white">Refine</text>
</a>
</g>
</g>
<!-- Custom pre&#45;
filter&#45;&gt;Refine -->
<g id="${uniqueid}_edge1" class="edge"><title>Custom pre&#45;
filter:e&#45;&gt;Refine:w</title>
<path fill="none" stroke="black" d="M224.692,-73C236.692,-73 241.942,-73 250.567,-73"/>
<polygon fill="black" stroke="black" points="250.692,-76.5001 260.692,-73 250.692,-69.5001 250.692,-76.5001"/>
</g>
<!-- Filter1 -->
<g id="${uniqueid}_node5" class="node"><title>Filter1</title>
<g id="a_${uniqueid}_node5"><a xlink:href="#95805040894952" xlink:title="com.watch4net.alerting.operation.FilteredEntryPoint">
<ellipse fill="#984ea3" stroke="black" cx="44.846" cy="-73" rx="44.6926" ry="18"/>
<text text-anchor="middle" x="44.846" y="-69.3" font-family="Times,serif" font-size="14.00" fill="white">Filter1</text>
</a>
</g>
</g>
<!-- Filter1&#45;&gt;Custom pre&#45;
filter -->
<g id="${uniqueid}_edge2" class="edge"><title>Filter1:e&#45;&gt;Custom pre&#45;
filter:w</title>
<path fill="none" stroke="black" d="M89.692,-73C101.692,-73 106.942,-73 115.567,-73"/>
<polygon fill="black" stroke="black" points="115.692,-76.5001 125.692,-73 115.692,-69.5001 115.692,-76.5001"/>
</g>
<!-- ThresholdMajor -->
<g id="${uniqueid}_node7" class="node"><title>ThresholdMajor</title>
<g id="a_${uniqueid}_node7"><a xlink:href="#95805040922559" xlink:title="com.watch4net.alerting.operation.comparator.ConstantComparatorOperation">
<polygon fill="#ff7f00" stroke="black" points="470.829,-91 358.555,-73 470.829,-55 583.104,-73 470.829,-91"/>
<text text-anchor="middle" x="470.829" y="-69.3" font-family="Times,serif" font-size="14.00" fill="white">ThresholdMajor</text>
</a>
</g>
</g>
<!-- Refine&#45;&gt;ThresholdMajor -->
<g id="${uniqueid}_edge3" class="edge"><title>Refine:e&#45;&gt;ThresholdMajor:w</title>
<path fill="none" stroke="black" d="M322.692,-73C334.692,-73 339.942,-73 348.567,-73"/>
<polygon fill="black" stroke="black" points="348.692,-76.5001 358.692,-73 348.692,-69.5001 348.692,-76.5001"/>
</g>
<!-- ThresholdMajor&#45;&gt;Action
CLEARMajor -->
<g id="${uniqueid}_edge4" class="edge"><title>ThresholdMajor:ne&#45;&gt;Action
CLEARMajor:w</title>
<path fill="none" stroke="black" d="M485.829,-89C486.532,-89.7027 486.071,-90.358 486.829,-91 537.347,-133.756 564.273,-136.789 626.508,-136.987"/>
<polygon fill="black" stroke="black" points="626.805,-140.487 636.809,-137 626.813,-133.487 626.805,-140.487"/>
<text text-anchor="middle" x="466.829" y="-92.8" font-family="Times,serif" font-size="14.00">false</text>
</g>
<!-- ThresholdMajor&#45;&gt;Action SETMajor -->
<g id="${uniqueid}_edge6" class="edge"><title>ThresholdMajor:se&#45;&gt;Action SETMajor:w</title>
<path fill="none" stroke="black" d="M487.829,-57C528.39,-16.439 555.014,-17.698 608.947,-17.9708"/>
<polygon fill="black" stroke="black" points="608.956,-21.4707 618.966,-18 608.977,-14.4708 608.956,-21.4707"/>
<text text-anchor="middle" x="472.329" y="-45.8" font-family="Times,serif" font-size="14.00">true</text>
</g>
<!-- ThresholdMajor&#45;&gt;Custom post&#45;
filter -->
<g id="${uniqueid}_edge5" class="edge"><title>ThresholdMajor:ne&#45;&gt;Custom post&#45;
filter:sw</title>
<path fill="none" stroke="black" d="M485.829,-89C486.532,-89.7027 485.984,-90.4775 486.829,-91 523.176,-113.463 541.614,-101.752 582.966,-91 612.181,-83.4041 623.689,-41.8187 642.535,-48.347"/>
<polygon fill="black" stroke="black" points="640.578,-51.2483 650.809,-54 644.527,-45.4686 640.578,-51.2483"/>
<text text-anchor="middle" x="579.309" y="-42.8" font-family="Times,serif" font-size="14.00">1435689620024|entry</text>
</g>
<!-- ThresholdMajor&#45;&gt;Custom post&#45;
filter -->
<g id="${uniqueid}_edge7" class="edge"><title>ThresholdMajor:se&#45;&gt;Custom post&#45;
filter:nw</title>
<path fill="none" stroke="black" d="M487.829,-57C511.289,-33.5404 603.179,-102.607 639.469,-96.4957"/>
<polygon fill="black" stroke="black" points="641.316,-99.4908 648.809,-92 638.28,-93.1834 641.316,-99.4908"/>
<text text-anchor="middle" x="577.309" y="-95.8" font-family="Times,serif" font-size="14.00">1435689616003|entry</text>
</g>
</g>
</svg>
