<?xml version="1.0" encoding="UTF-8" standalone="no"?>
<!DOCTYPE svg PUBLIC "-//W3C//DTD SVG 1.1//EN"
 "http://www.w3.org/Graphics/SVG/1.1/DTD/svg11.dtd">
<!-- Generated by graphviz version 2.38.0 (20140413.2041)
 -->
<!-- Title: NetApp Filer Alert Definitions/NetApp&#45;Interface/Bandwidth Pages: 1 -->
<svg width="809pt" height="272pt"
 viewBox="0.00 0.00 809.24 272.00" xmlns="http://www.w3.org/2000/svg" xmlns:xlink="http://www.w3.org/1999/xlink">
<g id="${uniqueid}" class="graph" transform="scale(1 1) rotate(0) translate(4 268)">
<title>NetApp Filer Alert Definitions/NetApp&#45;Interface/Bandwidth</title>
<polygon fill="white" stroke="none" points="-4,4 -4,-268 805.24,-268 805.24,4 -4,4"/>
<!-- Interface B/W
CRIT check -->
<g id="${uniqueid}_node1" class="node"><title>Interface B/W
CRIT check</title>
<g id="a_${uniqueid}_node1"><a xlink:href="#203424769646209" xlink:title="com.watch4net.alerting.operation.comparator.ConstantComparatorOperation">
<polygon fill="#ff7f00" stroke="black" points="471.463,-264 354.463,-226 471.463,-188 588.463,-226 471.463,-264"/>
<text text-anchor="middle" x="471.463" y="-229.8" font-family="Times,serif" font-size="14.00" fill="white">Interface B/W</text>
<text text-anchor="middle" x="471.463" y="-214.8" font-family="Times,serif" font-size="14.00" fill="white">CRIT check</text>
</a>
</g>
</g>
<!-- Interface B/W_
CRIT trap -->
<g id="${uniqueid}_node6" class="node"><title>Interface B/W_
CRIT trap</title>
<g id="a_${uniqueid}_node6"><a xlink:href="#203424769662597" xlink:title="com.watch4net.alerting.action.SNMPTrapAction">
<ellipse fill="#4daf4a" stroke="black" cx="712.851" cy="-226" rx="88.2768" ry="26.7407"/>
<text text-anchor="middle" x="712.851" y="-229.8" font-family="Times,serif" font-size="14.00" fill="white">Interface B/W_</text>
<text text-anchor="middle" x="712.851" y="-214.8" font-family="Times,serif" font-size="14.00" fill="white">CRIT trap</text>
</a>
</g>
</g>
<!-- Interface B/W
CRIT check&#45;&gt;Interface B/W_
CRIT trap -->
<g id="${uniqueid}_edge1" class="edge"><title>Interface B/W
CRIT check:e&#45;&gt;Interface B/W_
CRIT trap:w</title>
<path fill="none" stroke="black" d="M588.463,-226C600.463,-226 605.713,-226 614.338,-226"/>
<polygon fill="black" stroke="black" points="614.463,-229.5 624.463,-226 614.463,-222.5 614.463,-229.5"/>
<text text-anchor="middle" x="603.963" y="-214.8" font-family="Times,serif" font-size="14.00">true</text>
</g>
<!-- Interface B/W
Entry -->
<g id="${uniqueid}_node2" class="node"><title>Interface B/W
Entry</title>
<g id="a_${uniqueid}_node2"><a xlink:href="#203424769594935" xlink:title="com.watch4net.alerting.operation.FilteredEntryPoint">
<ellipse fill="#984ea3" stroke="black" cx="82.7315" cy="-132" rx="82.9636" ry="26.7407"/>
<text text-anchor="middle" x="82.7315" y="-135.8" font-family="Times,serif" font-size="14.00" fill="white">Interface B/W</text>
<text text-anchor="middle" x="82.7315" y="-120.8" font-family="Times,serif" font-size="14.00" fill="white">Entry</text>
</a>
</g>
</g>
<!-- Interface B/W
case -->
<g id="${uniqueid}_node5" class="node"><title>Interface B/W
case</title>
<g id="a_${uniqueid}_node5"><a xlink:href="#203424769637066" xlink:title="com.watch4net.alerting.operation.CaseOperation">
<polygon fill="#377eb8" stroke="black" points="318.463,-151 201.463,-151 201.463,-113 318.463,-113 318.463,-151"/>
<text text-anchor="middle" x="259.963" y="-135.8" font-family="Times,serif" font-size="14.00" fill="white">Interface B/W</text>
<text text-anchor="middle" x="259.963" y="-120.8" font-family="Times,serif" font-size="14.00" fill="white">case</text>
</a>
</g>
</g>
<!-- Interface B/W
Entry&#45;&gt;Interface B/W
case -->
<g id="${uniqueid}_edge2" class="edge"><title>Interface B/W
Entry:e&#45;&gt;Interface B/W
case:w</title>
<path fill="none" stroke="black" d="M165.463,-132C177.463,-132 182.713,-132 191.338,-132"/>
<polygon fill="black" stroke="black" points="191.463,-135.5 201.463,-132 191.463,-128.5 191.463,-135.5"/>
</g>
<!-- Interface B/W
MAJ check -->
<g id="${uniqueid}_node3" class="node"><title>Interface B/W
MAJ check</title>
<g id="a_${uniqueid}_node3"><a xlink:href="#203424769683595" xlink:title="com.watch4net.alerting.operation.comparator.ConstantComparatorOperation">
<polygon fill="#ff7f00" stroke="black" points="471.463,-170 354.463,-132 471.463,-94 588.463,-132 471.463,-170"/>
<text text-anchor="middle" x="471.463" y="-135.8" font-family="Times,serif" font-size="14.00" fill="white">Interface B/W</text>
<text text-anchor="middle" x="471.463" y="-120.8" font-family="Times,serif" font-size="14.00" fill="white">MAJ check</text>
</a>
</g>
</g>
<!-- Interface B/W_
Major trap -->
<g id="${uniqueid}_node7" class="node"><title>Interface B/W_
Major trap</title>
<g id="a_${uniqueid}_node7"><a xlink:href="#203424769693983" xlink:title="com.watch4net.alerting.action.SNMPTrapAction">
<ellipse fill="#4daf4a" stroke="black" cx="712.851" cy="-132" rx="88.2768" ry="26.7407"/>
<text text-anchor="middle" x="712.851" y="-135.8" font-family="Times,serif" font-size="14.00" fill="white">Interface B/W_</text>
<text text-anchor="middle" x="712.851" y="-120.8" font-family="Times,serif" font-size="14.00" fill="white">Major trap</text>
</a>
</g>
</g>
<!-- Interface B/W
MAJ check&#45;&gt;Interface B/W_
Major trap -->
<g id="${uniqueid}_edge3" class="edge"><title>Interface B/W
MAJ check:e&#45;&gt;Interface B/W_
Major trap:w</title>
<path fill="none" stroke="black" d="M588.463,-132C600.463,-132 605.713,-132 614.338,-132"/>
<polygon fill="black" stroke="black" points="614.463,-135.5 624.463,-132 614.463,-128.5 614.463,-135.5"/>
<text text-anchor="middle" x="603.963" y="-120.8" font-family="Times,serif" font-size="14.00">true</text>
</g>
<!-- Interface B/W
MIN check -->
<g id="${uniqueid}_node4" class="node"><title>Interface B/W
MIN check</title>
<g id="a_${uniqueid}_node4"><a xlink:href="#203424769706138" xlink:title="com.watch4net.alerting.operation.comparator.ConstantComparatorOperation">
<polygon fill="#ff7f00" stroke="black" points="471.463,-76 354.463,-38 471.463,-7.10543e-15 588.463,-38 471.463,-76"/>
<text text-anchor="middle" x="471.463" y="-41.8" font-family="Times,serif" font-size="14.00" fill="white">Interface B/W</text>
<text text-anchor="middle" x="471.463" y="-26.8" font-family="Times,serif" font-size="14.00" fill="white">MIN check</text>
</a>
</g>
</g>
<!-- Interface B/W_
Minor trap -->
<g id="${uniqueid}_node8" class="node"><title>Interface B/W_
Minor trap</title>
<g id="a_${uniqueid}_node8"><a xlink:href="#203424769716967" xlink:title="com.watch4net.alerting.action.SNMPTrapAction">
<ellipse fill="#4daf4a" stroke="black" cx="712.851" cy="-38" rx="88.2768" ry="26.7407"/>
<text text-anchor="middle" x="712.851" y="-41.8" font-family="Times,serif" font-size="14.00" fill="white">Interface B/W_</text>
<text text-anchor="middle" x="712.851" y="-26.8" font-family="Times,serif" font-size="14.00" fill="white">Minor trap</text>
</a>
</g>
</g>
<!-- Interface B/W
MIN check&#45;&gt;Interface B/W_
Minor trap -->
<g id="${uniqueid}_edge4" class="edge"><title>Interface B/W
MIN check:e&#45;&gt;Interface B/W_
Minor trap:w</title>
<path fill="none" stroke="black" d="M588.463,-38C600.463,-38 605.713,-38 614.338,-38"/>
<polygon fill="black" stroke="black" points="614.463,-41.5001 624.463,-38 614.463,-34.5001 614.463,-41.5001"/>
<text text-anchor="middle" x="603.963" y="-26.8" font-family="Times,serif" font-size="14.00">true</text>
</g>
<!-- Interface B/W
case&#45;&gt;Interface B/W
CRIT check -->
<g id="${uniqueid}_edge5" class="edge"><title>Interface B/W
case:e&#45;&gt;Interface B/W
CRIT check:w</title>
<path fill="none" stroke="black" d="M318.463,-132C359.18,-132 318.542,-209.868 344.641,-223.86"/>
<polygon fill="black" stroke="black" points="343.947,-227.291 354.463,-226 345.437,-220.451 343.947,-227.291"/>
</g>
<!-- Interface B/W
case&#45;&gt;Interface B/W
MAJ check -->
<g id="${uniqueid}_edge6" class="edge"><title>Interface B/W
case:e&#45;&gt;Interface B/W
MAJ check:w</title>
<path fill="none" stroke="black" d="M318.463,-132C330.463,-132 335.713,-132 344.338,-132"/>
<polygon fill="black" stroke="black" points="344.463,-135.5 354.463,-132 344.463,-128.5 344.463,-135.5"/>
</g>
<!-- Interface B/W
case&#45;&gt;Interface B/W
MIN check -->
<g id="${uniqueid}_edge7" class="edge"><title>Interface B/W
case:e&#45;&gt;Interface B/W
MIN check:w</title>
<path fill="none" stroke="black" d="M318.463,-132C359.18,-132 318.542,-54.1319 344.641,-40.1399"/>
<polygon fill="black" stroke="black" points="345.437,-43.5486 354.463,-38 343.947,-36.709 345.437,-43.5486"/>
</g>
</g>
</svg>
