<?xml version="1.0" encoding="UTF-8" standalone="no"?>
<!DOCTYPE svg PUBLIC "-//W3C//DTD SVG 1.1//EN"
 "http://www.w3.org/Graphics/SVG/1.1/DTD/svg11.dtd">
<!-- Generated by graphviz version 2.38.0 (20140413.2041)
 -->
<!-- Title: VMware vCenter Alert Definitions/ESX/High Swap In Rate Pages: 1 -->
<svg width="858pt" height="278pt"
 viewBox="0.00 0.00 857.77 277.74" xmlns="http://www.w3.org/2000/svg" xmlns:xlink="http://www.w3.org/1999/xlink">
<g id="${uniqueid}" class="graph" transform="scale(1 1) rotate(0) translate(4 273.74)">
<title>VMware vCenter Alert Definitions/ESX/High Swap In Rate</title>
<polygon fill="white" stroke="none" points="-4,4 -4,-273.74 853.767,-273.74 853.767,4 -4,4"/>
<!-- ESXHSI_Case
Statement -->
<g id="${uniqueid}_node1" class="node"><title>ESXHSI_Case
Statement</title>
<g id="a_${uniqueid}_node1"><a xlink:href="#1413925450751" xlink:title="com.watch4net.alerting.operation.CaseOperation">
<polygon fill="#377eb8" stroke="black" points="325.534,-153.87 208.534,-153.87 208.534,-115.87 325.534,-115.87 325.534,-153.87"/>
<text text-anchor="middle" x="267.034" y="-138.67" font-family="Times,serif" font-size="14.00" fill="white">ESXHSI_Case</text>
<text text-anchor="middle" x="267.034" y="-123.67" font-family="Times,serif" font-size="14.00" fill="white">Statement</text>
</a>
</g>
</g>
<!-- Swap_In_Rate_
Check_Critical -->
<g id="${uniqueid}_node5" class="node"><title>Swap_In_Rate_
Check_Critical</title>
<g id="a_${uniqueid}_node5"><a xlink:href="#2304126504491420" xlink:title="com.watch4net.alerting.operation.comparator.ConstantComparatorOperation">
<polygon fill="#ff7f00" stroke="black" points="486.534,-237.87 361.534,-199.87 486.534,-161.87 611.534,-199.87 486.534,-237.87"/>
<text text-anchor="middle" x="486.534" y="-203.67" font-family="Times,serif" font-size="14.00" fill="white">Swap_In_Rate_</text>
<text text-anchor="middle" x="486.534" y="-188.67" font-family="Times,serif" font-size="14.00" fill="white">Check_Critical</text>
</a>
</g>
</g>
<!-- ESXHSI_Case
Statement&#45;&gt;Swap_In_Rate_
Check_Critical -->
<g id="${uniqueid}_edge1" class="edge"><title>ESXHSI_Case
Statement:e&#45;&gt;Swap_In_Rate_
Check_Critical:w</title>
<path fill="none" stroke="black" d="M325.534,-134.87C354.43,-134.87 335.037,-184.636 351.86,-197.077"/>
<polygon fill="black" stroke="black" points="350.956,-200.459 361.534,-199.87 352.897,-193.733 350.956,-200.459"/>
</g>
<!-- Swap_In_Rate_
Check_Major -->
<g id="${uniqueid}_node6" class="node"><title>Swap_In_Rate_
Check_Major</title>
<g id="a_${uniqueid}_node6"><a xlink:href="#2304126504532820" xlink:title="com.watch4net.alerting.operation.comparator.ConstantComparatorOperation">
<polygon fill="#ff7f00" stroke="black" points="486.534,-107.87 361.534,-69.8701 486.534,-31.8701 611.534,-69.8701 486.534,-107.87"/>
<text text-anchor="middle" x="486.534" y="-73.6701" font-family="Times,serif" font-size="14.00" fill="white">Swap_In_Rate_</text>
<text text-anchor="middle" x="486.534" y="-58.6701" font-family="Times,serif" font-size="14.00" fill="white">Check_Major</text>
</a>
</g>
</g>
<!-- ESXHSI_Case
Statement&#45;&gt;Swap_In_Rate_
Check_Major -->
<g id="${uniqueid}_edge2" class="edge"><title>ESXHSI_Case
Statement:e&#45;&gt;Swap_In_Rate_
Check_Major:w</title>
<path fill="none" stroke="black" d="M325.534,-134.87C354.43,-134.87 335.037,-85.1044 351.86,-72.663"/>
<polygon fill="black" stroke="black" points="352.897,-76.0066 361.534,-69.8701 350.956,-69.2813 352.897,-76.0066"/>
</g>
<!-- ESXHSI_Critical_
Clear -->
<g id="${uniqueid}_node2" class="node"><title>ESXHSI_Critical_
Clear</title>
<g id="a_${uniqueid}_node2"><a xlink:href="#2304126504522529" xlink:title="com.watch4net.alerting.action.SNMPTrapAction">
<ellipse fill="#4daf4a" stroke="black" cx="748.65" cy="-242.87" rx="101.233" ry="26.7407"/>
<text text-anchor="middle" x="748.65" y="-246.67" font-family="Times,serif" font-size="14.00" fill="white">ESXHSI_Critical_</text>
<text text-anchor="middle" x="748.65" y="-231.67" font-family="Times,serif" font-size="14.00" fill="white">Clear</text>
</a>
</g>
</g>
<!-- ESXHSI_Major_
Clear -->
<g id="${uniqueid}_node3" class="node"><title>ESXHSI_Major_
Clear</title>
<g id="a_${uniqueid}_node3"><a xlink:href="#2304126504553024" xlink:title="com.watch4net.alerting.action.SNMPTrapAction">
<ellipse fill="#4daf4a" stroke="black" cx="748.65" cy="-98.8701" rx="93.1765" ry="26.7407"/>
<text text-anchor="middle" x="748.65" y="-102.67" font-family="Times,serif" font-size="14.00" fill="white">ESXHSI_Major_</text>
<text text-anchor="middle" x="748.65" y="-87.6701" font-family="Times,serif" font-size="14.00" fill="white">Clear</text>
</a>
</g>
</g>
<!-- ESX_Swap_In_
Rate_Filter -->
<g id="${uniqueid}_node4" class="node"><title>ESX_Swap_In_
Rate_Filter</title>
<g id="a_${uniqueid}_node4"><a xlink:href="#2304126504438289" xlink:title="com.watch4net.alerting.operation.FilteredEntryPoint">
<ellipse fill="#984ea3" stroke="black" cx="86.267" cy="-134.87" rx="86.0347" ry="26.7407"/>
<text text-anchor="middle" x="86.267" y="-138.67" font-family="Times,serif" font-size="14.00" fill="white">ESX_Swap_In_</text>
<text text-anchor="middle" x="86.267" y="-123.67" font-family="Times,serif" font-size="14.00" fill="white">Rate_Filter</text>
</a>
</g>
</g>
<!-- ESX_Swap_In_
Rate_Filter&#45;&gt;ESXHSI_Case
Statement -->
<g id="${uniqueid}_edge3" class="edge"><title>ESX_Swap_In_
Rate_Filter:e&#45;&gt;ESXHSI_Case
Statement:w</title>
<path fill="none" stroke="black" d="M172.534,-134.87C184.534,-134.87 189.784,-134.87 198.409,-134.87"/>
<polygon fill="black" stroke="black" points="198.534,-138.37 208.534,-134.87 198.534,-131.37 198.534,-138.37"/>
</g>
<!-- Swap_In_Rate_
Check_Critical&#45;&gt;ESXHSI_Critical_
Clear -->
<g id="${uniqueid}_edge4" class="edge"><title>Swap_In_Rate_
Check_Critical:ne&#45;&gt;ESXHSI_Critical_
Clear:w</title>
<path fill="none" stroke="black" d="M514.534,-228.87C517.38,-231.716 512.587,-235.13 515.534,-237.87 556.011,-275.503 585.232,-246.711 637.499,-243.208"/>
<polygon fill="black" stroke="black" points="637.658,-246.705 647.534,-242.87 637.422,-239.709 637.658,-246.705"/>
<text text-anchor="middle" x="497.534" y="-232.67" font-family="Times,serif" font-size="14.00">false</text>
</g>
<!-- Swap_In_Rate_
Critical -->
<g id="${uniqueid}_node7" class="node"><title>Swap_In_Rate_
Critical</title>
<g id="a_${uniqueid}_node7"><a xlink:href="#2304126504508565" xlink:title="com.watch4net.alerting.action.SNMPTrapAction">
<ellipse fill="#4daf4a" stroke="black" cx="748.65" cy="-170.87" rx="88.2768" ry="26.7407"/>
<text text-anchor="middle" x="748.65" y="-174.67" font-family="Times,serif" font-size="14.00" fill="white">Swap_In_Rate_</text>
<text text-anchor="middle" x="748.65" y="-159.67" font-family="Times,serif" font-size="14.00" fill="white">Critical</text>
</a>
</g>
</g>
<!-- Swap_In_Rate_
Check_Critical&#45;&gt;Swap_In_Rate_
Critical -->
<g id="${uniqueid}_edge5" class="edge"><title>Swap_In_Rate_
Check_Critical:se&#45;&gt;Swap_In_Rate_
Critical:w</title>
<path fill="none" stroke="black" d="M516.534,-170.87C558.754,-128.65 591.706,-166.252 648.54,-170.491"/>
<polygon fill="black" stroke="black" points="648.526,-173.993 658.65,-170.87 648.788,-166.998 648.526,-173.993"/>
<text text-anchor="middle" x="501.034" y="-159.67" font-family="Times,serif" font-size="14.00">true</text>
</g>
<!-- Swap_In_Rate_
Check_Major&#45;&gt;ESXHSI_Major_
Clear -->
<g id="${uniqueid}_edge6" class="edge"><title>Swap_In_Rate_
Check_Major:ne&#45;&gt;ESXHSI_Major_
Clear:w</title>
<path fill="none" stroke="black" d="M514.534,-98.8701C517.38,-101.716 512.535,-105.186 515.534,-107.87 547.326,-136.325 569.104,-112.353 611.534,-107.87 626.703,-106.267 632.286,-101.504 643.614,-99.6348"/>
<polygon fill="black" stroke="black" points="643.945,-103.12 653.65,-98.8701 643.413,-96.1401 643.945,-103.12"/>
<text text-anchor="middle" x="497.534" y="-102.67" font-family="Times,serif" font-size="14.00">false</text>
</g>
<!-- Swap_In_Rate_
Major -->
<g id="${uniqueid}_node8" class="node"><title>Swap_In_Rate_
Major</title>
<g id="a_${uniqueid}_node8"><a xlink:href="#2304126504542728" xlink:title="com.watch4net.alerting.action.SNMPTrapAction">
<ellipse fill="#4daf4a" stroke="black" cx="748.65" cy="-26.8701" rx="88.2768" ry="26.7407"/>
<text text-anchor="middle" x="748.65" y="-30.6701" font-family="Times,serif" font-size="14.00" fill="white">Swap_In_Rate_</text>
<text text-anchor="middle" x="748.65" y="-15.6701" font-family="Times,serif" font-size="14.00" fill="white">Major</text>
</a>
</g>
</g>
<!-- Swap_In_Rate_
Check_Major&#45;&gt;Swap_In_Rate_
Major -->
<g id="${uniqueid}_edge7" class="edge"><title>Swap_In_Rate_
Check_Major:se&#45;&gt;Swap_In_Rate_
Major:w</title>
<path fill="none" stroke="black" d="M516.534,-40.8701C558.959,1.55465 591.455,-23.7192 648.497,-26.6104"/>
<polygon fill="black" stroke="black" points="648.564,-30.1132 658.65,-26.8701 648.743,-23.1155 648.564,-30.1132"/>
<text text-anchor="middle" x="501.034" y="-29.6701" font-family="Times,serif" font-size="14.00">true</text>
</g>
</g>
</svg>
