<?xml version="1.0" encoding="UTF-8" standalone="no"?>
<!DOCTYPE svg PUBLIC "-//W3C//DTD SVG 1.1//EN"
 "http://www.w3.org/Graphics/SVG/1.1/DTD/svg11.dtd">
<!-- Generated by graphviz version 2.38.0 (20140413.2041)
 -->
<!-- Title: EMC M&amp;R Health/Component CPU Utilization Pages: 1 -->
<svg width="1026pt" height="298pt"
 viewBox="0.00 0.00 1025.71 297.87" xmlns="http://www.w3.org/2000/svg" xmlns:xlink="http://www.w3.org/1999/xlink">
<g id="${uniqueid}" class="graph" transform="scale(1 1) rotate(0) translate(4 293.87)">
<title>EMC M&amp;R Health/Component CPU Utilization</title>
<polygon fill="white" stroke="none" points="-4,4 -4,-293.87 1021.71,-293.87 1021.71,4 -4,4"/>
<!-- Action
CLEARMajor -->
<g id="${uniqueid}_node1" class="node"><title>Action
CLEARMajor</title>
<g id="a_${uniqueid}_node1"><a xlink:href="#607736520633487" xlink:title="com.watch4net.alerting.action.SNMPTrapAction">
<ellipse fill="#4daf4a" stroke="black" cx="926.71" cy="-263" rx="65.1077" ry="26.7407"/>
<text text-anchor="middle" x="926.71" y="-266.8" font-family="Times,serif" font-size="14.00" fill="white">Action</text>
<text text-anchor="middle" x="926.71" y="-251.8" font-family="Times,serif" font-size="14.00" fill="white">CLEARMajor</text>
</a>
</g>
</g>
<!-- Action
CLEARMinor -->
<g id="${uniqueid}_node2" class="node"><title>Action
CLEARMinor</title>
<g id="a_${uniqueid}_node2"><a xlink:href="#1412689459806" xlink:title="com.watch4net.alerting.action.SNMPTrapAction">
<ellipse fill="#4daf4a" stroke="black" cx="926.71" cy="-81" rx="65.1077" ry="26.7407"/>
<text text-anchor="middle" x="926.71" y="-84.8" font-family="Times,serif" font-size="14.00" fill="white">Action</text>
<text text-anchor="middle" x="926.71" y="-69.8" font-family="Times,serif" font-size="14.00" fill="white">CLEARMinor</text>
</a>
</g>
</g>
<!-- Action SETMajor -->
<g id="${uniqueid}_node3" class="node"><title>Action SETMajor</title>
<g id="a_${uniqueid}_node3"><a xlink:href="#607736520662487" xlink:title="com.watch4net.alerting.action.SNMPTrapAction">
<ellipse fill="#4daf4a" stroke="black" cx="926.71" cy="-200" rx="83.6854" ry="18"/>
<text text-anchor="middle" x="926.71" y="-196.3" font-family="Times,serif" font-size="14.00" fill="white">Action SETMajor</text>
</a>
</g>
</g>
<!-- Action SETMinor -->
<g id="${uniqueid}_node4" class="node"><title>Action SETMinor</title>
<g id="a_${uniqueid}_node4"><a xlink:href="#1412689438927" xlink:title="com.watch4net.alerting.action.SNMPTrapAction">
<ellipse fill="#4daf4a" stroke="black" cx="926.71" cy="-18" rx="83.6854" ry="18"/>
<text text-anchor="middle" x="926.71" y="-14.3" font-family="Times,serif" font-size="14.00" fill="white">Action SETMinor</text>
</a>
</g>
</g>
<!-- Case -->
<g id="${uniqueid}_node5" class="node"><title>Case</title>
<g id="a_${uniqueid}_node5"><a xlink:href="#1412689393466" xlink:title="com.watch4net.alerting.operation.CaseOperation">
<polygon fill="#377eb8" stroke="black" points="546.593,-163 492.593,-163 492.593,-127 546.593,-127 546.593,-163"/>
<text text-anchor="middle" x="519.593" y="-141.3" font-family="Times,serif" font-size="14.00" fill="white">Case</text>
</a>
</g>
</g>
<!-- ThresholdMajor -->
<g id="${uniqueid}_node10" class="node"><title>ThresholdMajor</title>
<g id="a_${uniqueid}_node10"><a xlink:href="#607736520592487" xlink:title="com.watch4net.alerting.operation.comparator.ConstantComparatorOperation">
<polygon fill="#ff7f00" stroke="black" points="694.73,-198 582.455,-180 694.73,-162 807.005,-180 694.73,-198"/>
<text text-anchor="middle" x="694.73" y="-176.3" font-family="Times,serif" font-size="14.00" fill="white">ThresholdMajor</text>
</a>
</g>
</g>
<!-- Case&#45;&gt;ThresholdMajor -->
<g id="${uniqueid}_edge1" class="edge"><title>Case:e&#45;&gt;ThresholdMajor:w</title>
<path fill="none" stroke="black" d="M546.593,-145C564.724,-145 562.426,-168.105 572.896,-176.77"/>
<polygon fill="black" stroke="black" points="571.999,-180.16 582.593,-180 574.212,-173.519 571.999,-180.16"/>
</g>
<!-- ThresholdMinor -->
<g id="${uniqueid}_node11" class="node"><title>ThresholdMinor</title>
<g id="a_${uniqueid}_node11"><a xlink:href="#1412689422536" xlink:title="com.watch4net.alerting.operation.comparator.ConstantComparatorOperation">
<polygon fill="#ff7f00" stroke="black" points="694.73,-128 582.455,-110 694.73,-92 807.005,-110 694.73,-128"/>
<text text-anchor="middle" x="694.73" y="-106.3" font-family="Times,serif" font-size="14.00" fill="white">ThresholdMinor</text>
</a>
</g>
</g>
<!-- Case&#45;&gt;ThresholdMinor -->
<g id="${uniqueid}_edge2" class="edge"><title>Case:e&#45;&gt;ThresholdMinor:w</title>
<path fill="none" stroke="black" d="M546.593,-145C564.724,-145 562.426,-121.895 572.896,-113.23"/>
<polygon fill="black" stroke="black" points="574.212,-116.481 582.593,-110 571.999,-109.84 574.212,-116.481"/>
</g>
<!-- Custom post&#45;
filter -->
<g id="${uniqueid}_node6" class="node"><title>Custom post&#45;
filter</title>
<g id="a_${uniqueid}_node6"><a xlink:href="#1436288966926" xlink:title="1435689668905">
<polygon fill="#e41a1c" stroke="black" points="980.21,-164 873.21,-164 873.21,-126 980.21,-126 980.21,-164"/>
<text text-anchor="middle" x="926.71" y="-148.8" font-family="Times,serif" font-size="14.00" fill="white">Custom post&#45;</text>
<text text-anchor="middle" x="926.71" y="-133.8" font-family="Times,serif" font-size="14.00" fill="white">filter</text>
</a>
</g>
</g>
<!-- Custom pre&#45;
filter -->
<g id="${uniqueid}_node7" class="node"><title>Custom pre&#45;
filter</title>
<g id="a_${uniqueid}_node7"><a xlink:href="#1436288956748" xlink:title="1435689654812">
<polygon fill="#e41a1c" stroke="black" points="215.593,-164 116.593,-164 116.593,-126 215.593,-126 215.593,-164"/>
<text text-anchor="middle" x="166.093" y="-148.8" font-family="Times,serif" font-size="14.00" fill="white">Custom pre&#45;</text>
<text text-anchor="middle" x="166.093" y="-133.8" font-family="Times,serif" font-size="14.00" fill="white">filter</text>
</a>
</g>
</g>
<!-- Refine -->
<g id="${uniqueid}_node9" class="node"><title>Refine</title>
<g id="a_${uniqueid}_node9"><a xlink:href="#1428002815639" xlink:title="com.watch4net.alerting.operation.RefineFilterOperation">
<polygon fill="#377eb8" stroke="black" points="313.593,-163 251.593,-163 251.593,-127 313.593,-127 313.593,-163"/>
<text text-anchor="middle" x="282.593" y="-141.3" font-family="Times,serif" font-size="14.00" fill="white">Refine</text>
</a>
</g>
</g>
<!-- Custom pre&#45;
filter&#45;&gt;Refine -->
<g id="${uniqueid}_edge3" class="edge"><title>Custom pre&#45;
filter:e&#45;&gt;Refine:w</title>
<path fill="none" stroke="black" d="M215.593,-145C227.593,-145 232.843,-145 241.468,-145"/>
<polygon fill="black" stroke="black" points="241.593,-148.5 251.593,-145 241.593,-141.5 241.593,-148.5"/>
</g>
<!-- Filter -->
<g id="${uniqueid}_node8" class="node"><title>Filter</title>
<g id="a_${uniqueid}_node8"><a xlink:href="#607736520423487" xlink:title="com.watch4net.alerting.operation.FilteredEntryPoint">
<ellipse fill="#984ea3" stroke="black" cx="40.2964" cy="-145" rx="40.0939" ry="18"/>
<text text-anchor="middle" x="40.2964" y="-141.3" font-family="Times,serif" font-size="14.00" fill="white">Filter</text>
</a>
</g>
</g>
<!-- Filter&#45;&gt;Custom pre&#45;
filter -->
<g id="${uniqueid}_edge4" class="edge"><title>Filter:e&#45;&gt;Custom pre&#45;
filter:w</title>
<path fill="none" stroke="black" d="M80.5928,-145C92.5928,-145 97.8428,-145 106.468,-145"/>
<polygon fill="black" stroke="black" points="106.593,-148.5 116.593,-145 106.593,-141.5 106.593,-148.5"/>
</g>
<!-- Wait3polling -->
<g id="${uniqueid}_node12" class="node"><title>Wait3polling</title>
<g id="a_${uniqueid}_node12"><a xlink:href="#1420742604766" xlink:title="com.watch4net.alerting.operation.window.HistoryOperation">
<polygon fill="#377eb8" stroke="black" points="456.593,-163 349.593,-163 349.593,-127 456.593,-127 456.593,-163"/>
<text text-anchor="middle" x="403.093" y="-141.3" font-family="Times,serif" font-size="14.00" fill="white">Wait3polling</text>
</a>
</g>
</g>
<!-- Refine&#45;&gt;Wait3polling -->
<g id="${uniqueid}_edge5" class="edge"><title>Refine:e&#45;&gt;Wait3polling:w</title>
<path fill="none" stroke="black" d="M313.593,-145C325.593,-145 330.843,-145 339.468,-145"/>
<polygon fill="black" stroke="black" points="339.593,-148.5 349.593,-145 339.593,-141.5 339.593,-148.5"/>
</g>
<!-- ThresholdMajor&#45;&gt;Action
CLEARMajor -->
<g id="${uniqueid}_edge6" class="edge"><title>ThresholdMajor:ne&#45;&gt;Action
CLEARMajor:w</title>
<path fill="none" stroke="black" d="M709.73,-196C710.433,-196.703 710.008,-197.317 710.73,-198 760.91,-245.508 785.594,-261.447 850.403,-262.89"/>
<polygon fill="black" stroke="black" points="850.673,-266.393 860.71,-263 850.748,-259.393 850.673,-266.393"/>
<text text-anchor="middle" x="690.73" y="-199.8" font-family="Times,serif" font-size="14.00">false</text>
</g>
<!-- ThresholdMajor&#45;&gt;Action SETMajor -->
<g id="${uniqueid}_edge8" class="edge"><title>ThresholdMajor:se&#45;&gt;Action SETMajor:w</title>
<path fill="none" stroke="black" d="M711.73,-164C751.963,-123.767 779.1,-191.19 832.568,-199.229"/>
<polygon fill="black" stroke="black" points="832.634,-202.744 842.867,-200 833.156,-195.763 832.634,-202.744"/>
<text text-anchor="middle" x="696.23" y="-152.8" font-family="Times,serif" font-size="14.00">true</text>
</g>
<!-- ThresholdMajor&#45;&gt;Custom post&#45;
filter -->
<g id="${uniqueid}_edge7" class="edge"><title>ThresholdMajor:ne&#45;&gt;Custom post&#45;
filter:sw</title>
<path fill="none" stroke="black" d="M709.73,-196C710.433,-196.703 709.885,-197.478 710.73,-198 747.076,-220.463 767.734,-215.154 806.867,-198 843.203,-182.072 843.889,-110.951 866.518,-120.054"/>
<polygon fill="black" stroke="black" points="864.561,-122.958 874.71,-126 868.673,-117.293 864.561,-122.958"/>
<text text-anchor="middle" x="946.21" y="-114.8" font-family="Times,serif" font-size="14.00">1435689620024|entry</text>
</g>
<!-- ThresholdMajor&#45;&gt;Custom post&#45;
filter -->
<g id="${uniqueid}_edge9" class="edge"><title>ThresholdMajor:se&#45;&gt;Custom post&#45;
filter:nw</title>
<path fill="none" stroke="black" d="M711.73,-164C734.753,-140.977 828.266,-180.817 863.955,-169.09"/>
<polygon fill="black" stroke="black" points="865.824,-172.052 872.71,-164 862.306,-166.001 865.824,-172.052"/>
<text text-anchor="middle" x="944.21" y="-167.8" font-family="Times,serif" font-size="14.00">1435689616003|entry</text>
</g>
<!-- ThresholdMinor&#45;&gt;Action
CLEARMinor -->
<g id="${uniqueid}_edge10" class="edge"><title>ThresholdMinor:ne&#45;&gt;Action
CLEARMinor:w</title>
<path fill="none" stroke="black" d="M709.73,-126C710.433,-126.703 709.885,-127.478 710.73,-128 747.076,-150.463 766.861,-143.005 806.867,-128 833.007,-118.196 830.253,-89.3192 850.768,-82.4694"/>
<polygon fill="black" stroke="black" points="851.329,-85.9246 860.71,-81 850.305,-78.9998 851.329,-85.9246"/>
<text text-anchor="middle" x="690.73" y="-129.8" font-family="Times,serif" font-size="14.00">false</text>
</g>
<!-- ThresholdMinor&#45;&gt;Action SETMinor -->
<g id="${uniqueid}_edge12" class="edge"><title>ThresholdMinor:se&#45;&gt;Action SETMinor:w</title>
<path fill="none" stroke="black" d="M711.73,-94C756.851,-48.8786 773.714,-21.0454 832.625,-18.2353"/>
<polygon fill="black" stroke="black" points="832.95,-21.7289 842.867,-18 832.789,-14.7307 832.95,-21.7289"/>
<text text-anchor="middle" x="696.23" y="-82.8" font-family="Times,serif" font-size="14.00">true</text>
</g>
<!-- ThresholdMinor&#45;&gt;Custom post&#45;
filter -->
<g id="${uniqueid}_edge11" class="edge"><title>ThresholdMinor:ne&#45;&gt;Custom post&#45;
filter:sw</title>
<path fill="none" stroke="black" d="M709.73,-126C710.433,-126.703 709.885,-127.478 710.73,-128 747.076,-150.463 764.144,-128.644 806.867,-128 819.003,-127.817 848.631,-119.728 865.299,-122.132"/>
<polygon fill="black" stroke="black" points="864.13,-125.435 874.71,-126 866.791,-118.961 864.13,-125.435"/>
</g>
<!-- ThresholdMinor&#45;&gt;Custom post&#45;
filter -->
<g id="${uniqueid}_edge13" class="edge"><title>ThresholdMinor:se&#45;&gt;Custom post&#45;
filter:nw</title>
<path fill="none" stroke="black" d="M711.73,-94C736.835,-68.8947 826.744,-170.326 863.494,-167.957"/>
<polygon fill="black" stroke="black" points="864.902,-171.162 872.71,-164 862.14,-164.73 864.902,-171.162"/>
</g>
<!-- Wait3polling&#45;&gt;Case -->
<g id="${uniqueid}_edge14" class="edge"><title>Wait3polling:e&#45;&gt;Case:w</title>
<path fill="none" stroke="black" d="M456.593,-145C468.593,-145 473.843,-145 482.468,-145"/>
<polygon fill="black" stroke="black" points="482.593,-148.5 492.593,-145 482.593,-141.5 482.593,-148.5"/>
<text text-anchor="middle" x="479.593" y="-133.8" font-family="Times,serif" font-size="14.00">output</text>
</g>
</g>
</svg>
