<?xml version="1.0" encoding="UTF-8" standalone="no"?>
<!DOCTYPE svg PUBLIC "-//W3C//DTD SVG 1.1//EN"
 "http://www.w3.org/Graphics/SVG/1.1/DTD/svg11.dtd">
<!-- Generated by graphviz version 2.38.0 (20140413.2041)
 -->
<!-- Title: NetApp Filer Alert Definitions/NetApp&#45;LUN/IO Rate Pages: 1 -->
<svg width="946pt" height="272pt"
 viewBox="0.00 0.00 946.23 272.00" xmlns="http://www.w3.org/2000/svg" xmlns:xlink="http://www.w3.org/1999/xlink">
<g id="${uniqueid}" class="graph" transform="scale(1 1) rotate(0) translate(4 268)">
<title>NetApp Filer Alert Definitions/NetApp&#45;LUN/IO Rate</title>
<polygon fill="white" stroke="none" points="-4,4 -4,-268 942.229,-268 942.229,4 -4,4"/>
<!-- LUN IORate Entry -->
<g id="${uniqueid}_node1" class="node"><title>LUN IORate Entry</title>
<g id="a_${uniqueid}_node1"><a xlink:href="#20198175482274" xlink:title="com.watch4net.alerting.operation.FilteredEntryPoint">
<ellipse fill="#984ea3" stroke="black" cx="96.8414" cy="-132" rx="96.6831" ry="18"/>
<text text-anchor="middle" x="96.8414" y="-128.3" font-family="Times,serif" font-size="14.00" fill="white">LUN IORate Entry</text>
</a>
</g>
</g>
<!-- LUN IORate case -->
<g id="${uniqueid}_node3" class="node"><title>LUN IORate case</title>
<g id="a_${uniqueid}_node3"><a xlink:href="#20198175796132" xlink:title="com.watch4net.alerting.operation.CaseOperation">
<polygon fill="#377eb8" stroke="black" points="370.683,-150 229.683,-150 229.683,-114 370.683,-114 370.683,-150"/>
<text text-anchor="middle" x="300.183" y="-128.3" font-family="Times,serif" font-size="14.00" fill="white">LUN IORate case</text>
</a>
</g>
</g>
<!-- LUN IORate Entry&#45;&gt;LUN IORate case -->
<g id="${uniqueid}_edge1" class="edge"><title>LUN IORate Entry:e&#45;&gt;LUN IORate case:w</title>
<path fill="none" stroke="black" d="M193.683,-132C205.683,-132 210.933,-132 219.558,-132"/>
<polygon fill="black" stroke="black" points="219.683,-135.5 229.683,-132 219.683,-128.5 219.683,-135.5"/>
</g>
<!-- LUN IORate MAJ
check -->
<g id="${uniqueid}_node2" class="node"><title>LUN IORate MAJ
check</title>
<g id="a_${uniqueid}_node2"><a xlink:href="#20198175933951" xlink:title="com.watch4net.alerting.operation.comparator.ConstantComparatorOperation">
<polygon fill="#ff7f00" stroke="black" points="547.683,-264 407.683,-226 547.683,-188 687.683,-226 547.683,-264"/>
<text text-anchor="middle" x="547.683" y="-229.8" font-family="Times,serif" font-size="14.00" fill="white">LUN IORate MAJ</text>
<text text-anchor="middle" x="547.683" y="-214.8" font-family="Times,serif" font-size="14.00" fill="white">check</text>
</a>
</g>
</g>
<!-- LUNIORate_Major
trap -->
<g id="${uniqueid}_node7" class="node"><title>LUNIORate_Major
trap</title>
<g id="a_${uniqueid}_node7"><a xlink:href="#20198175941448" xlink:title="com.watch4net.alerting.action.SNMPTrapAction">
<ellipse fill="#4daf4a" stroke="black" cx="831.456" cy="-226" rx="106.132" ry="26.7407"/>
<text text-anchor="middle" x="831.456" y="-229.8" font-family="Times,serif" font-size="14.00" fill="white">LUNIORate_Major</text>
<text text-anchor="middle" x="831.456" y="-214.8" font-family="Times,serif" font-size="14.00" fill="white">trap</text>
</a>
</g>
</g>
<!-- LUN IORate MAJ
check&#45;&gt;LUNIORate_Major
trap -->
<g id="${uniqueid}_edge2" class="edge"><title>LUN IORate MAJ
check:e&#45;&gt;LUNIORate_Major
trap:w</title>
<path fill="none" stroke="black" d="M688.683,-226C700.683,-226 705.933,-226 714.558,-226"/>
<polygon fill="black" stroke="black" points="714.683,-229.5 724.683,-226 714.683,-222.5 714.683,-229.5"/>
<text text-anchor="middle" x="704.183" y="-214.8" font-family="Times,serif" font-size="14.00">true</text>
</g>
<!-- LUN IORate case&#45;&gt;LUN IORate MAJ
check -->
<g id="${uniqueid}_edge3" class="edge"><title>LUN IORate case:e&#45;&gt;LUN IORate MAJ
check:w</title>
<path fill="none" stroke="black" d="M370.683,-132C411.4,-132 370.762,-209.868 396.861,-223.86"/>
<polygon fill="black" stroke="black" points="396.167,-227.291 406.683,-226 397.657,-220.451 396.167,-227.291"/>
</g>
<!-- LUNIORate CRIT
check -->
<g id="${uniqueid}_node4" class="node"><title>LUNIORate CRIT
check</title>
<g id="a_${uniqueid}_node4"><a xlink:href="#20198175809911" xlink:title="com.watch4net.alerting.operation.comparator.ConstantComparatorOperation">
<polygon fill="#ff7f00" stroke="black" points="547.683,-170 406.683,-132 547.683,-94 688.683,-132 547.683,-170"/>
<text text-anchor="middle" x="547.683" y="-135.8" font-family="Times,serif" font-size="14.00" fill="white">LUNIORate CRIT</text>
<text text-anchor="middle" x="547.683" y="-120.8" font-family="Times,serif" font-size="14.00" fill="white">check</text>
</a>
</g>
</g>
<!-- LUN IORate case&#45;&gt;LUNIORate CRIT
check -->
<g id="${uniqueid}_edge4" class="edge"><title>LUN IORate case:e&#45;&gt;LUNIORate CRIT
check:w</title>
<path fill="none" stroke="black" d="M370.683,-132C382.683,-132 387.933,-132 396.558,-132"/>
<polygon fill="black" stroke="black" points="396.683,-135.5 406.683,-132 396.683,-128.5 396.683,-135.5"/>
</g>
<!-- LUNIORate MIN
check -->
<g id="${uniqueid}_node5" class="node"><title>LUNIORate MIN
check</title>
<g id="a_${uniqueid}_node5"><a xlink:href="#20198175957960" xlink:title="com.watch4net.alerting.operation.comparator.ConstantComparatorOperation">
<polygon fill="#ff7f00" stroke="black" points="547.683,-76 409.683,-38 547.683,-7.10543e-15 685.683,-38 547.683,-76"/>
<text text-anchor="middle" x="547.683" y="-41.8" font-family="Times,serif" font-size="14.00" fill="white">LUNIORate MIN</text>
<text text-anchor="middle" x="547.683" y="-26.8" font-family="Times,serif" font-size="14.00" fill="white">check</text>
</a>
</g>
</g>
<!-- LUN IORate case&#45;&gt;LUNIORate MIN
check -->
<g id="${uniqueid}_edge5" class="edge"><title>LUN IORate case:e&#45;&gt;LUNIORate MIN
check:w</title>
<path fill="none" stroke="black" d="M370.683,-132C411.697,-132 372.202,-54.1319 398.75,-40.1399"/>
<polygon fill="black" stroke="black" points="399.644,-43.5276 408.683,-38 398.17,-36.6846 399.644,-43.5276"/>
</g>
<!-- LUNIORate_CRIT
trap -->
<g id="${uniqueid}_node6" class="node"><title>LUNIORate_CRIT
trap</title>
<g id="a_${uniqueid}_node6"><a xlink:href="#20198175879000" xlink:title="com.watch4net.alerting.action.SNMPTrapAction">
<ellipse fill="#4daf4a" stroke="black" cx="831.456" cy="-132" rx="101.647" ry="26.7407"/>
<text text-anchor="middle" x="831.456" y="-135.8" font-family="Times,serif" font-size="14.00" fill="white">LUNIORate_CRIT</text>
<text text-anchor="middle" x="831.456" y="-120.8" font-family="Times,serif" font-size="14.00" fill="white">trap</text>
</a>
</g>
</g>
<!-- LUNIORate CRIT
check&#45;&gt;LUNIORate_CRIT
trap -->
<g id="${uniqueid}_edge6" class="edge"><title>LUNIORate CRIT
check:e&#45;&gt;LUNIORate_CRIT
trap:w</title>
<path fill="none" stroke="black" d="M688.683,-132C702.355,-132 708.096,-132 718.174,-132"/>
<polygon fill="black" stroke="black" points="718.456,-135.5 728.456,-132 718.456,-128.5 718.456,-135.5"/>
<text text-anchor="middle" x="704.183" y="-120.8" font-family="Times,serif" font-size="14.00">true</text>
</g>
<!-- LUNIORate_Minor
trap -->
<g id="${uniqueid}_node8" class="node"><title>LUNIORate_Minor
trap</title>
<g id="a_${uniqueid}_node8"><a xlink:href="#20198175965926" xlink:title="com.watch4net.alerting.action.SNMPTrapAction">
<ellipse fill="#4daf4a" stroke="black" cx="831.456" cy="-38" rx="106.547" ry="26.7407"/>
<text text-anchor="middle" x="831.456" y="-41.8" font-family="Times,serif" font-size="14.00" fill="white">LUNIORate_Minor</text>
<text text-anchor="middle" x="831.456" y="-26.8" font-family="Times,serif" font-size="14.00" fill="white">trap</text>
</a>
</g>
</g>
<!-- LUNIORate MIN
check&#45;&gt;LUNIORate_Minor
trap -->
<g id="${uniqueid}_edge7" class="edge"><title>LUNIORate MIN
check:e&#45;&gt;LUNIORate_Minor
trap:w</title>
<path fill="none" stroke="black" d="M686.683,-38C699.613,-38 705.119,-38 714.569,-38"/>
<polygon fill="black" stroke="black" points="714.683,-41.5001 724.683,-38 714.683,-34.5001 714.683,-41.5001"/>
<text text-anchor="middle" x="702.183" y="-26.8" font-family="Times,serif" font-size="14.00">true</text>
</g>
</g>
</svg>
