<?xml version="1.0" encoding="UTF-8" standalone="no"?>
<!DOCTYPE svg PUBLIC "-//W3C//DTD SVG 1.1//EN"
 "http://www.w3.org/Graphics/SVG/1.1/DTD/svg11.dtd">
<!-- Generated by graphviz version 2.38.0 (20140413.2041)
 -->
<!-- Title: EMC M&amp;R Health/Component Memory Utilization Pages: 1 -->
<svg width="1077pt" height="172pt"
 viewBox="0.00 0.00 1076.80 171.87" xmlns="http://www.w3.org/2000/svg" xmlns:xlink="http://www.w3.org/1999/xlink">
<g id="${uniqueid}" class="graph" transform="scale(1 1) rotate(0) translate(4 167.87)">
<title>EMC M&amp;R Health/Component Memory Utilization</title>
<polygon fill="white" stroke="none" points="-4,4 -4,-167.87 1072.8,-167.87 1072.8,4 -4,4"/>
<!-- Action Clear
Major -->
<g id="${uniqueid}_node1" class="node"><title>Action Clear
Major</title>
<g id="a_${uniqueid}_node1"><a xlink:href="#607963355966487" xlink:title="com.watch4net.alerting.action.SNMPTrapAction">
<ellipse fill="#4daf4a" stroke="black" cx="977.8" cy="-137" rx="75.8212" ry="26.7407"/>
<text text-anchor="middle" x="977.8" y="-140.8" font-family="Times,serif" font-size="14.00" fill="white">Action Clear</text>
<text text-anchor="middle" x="977.8" y="-125.8" font-family="Times,serif" font-size="14.00" fill="white">Major</text>
</a>
</g>
</g>
<!-- Action SETMajor -->
<g id="${uniqueid}_node2" class="node"><title>Action SETMajor</title>
<g id="a_${uniqueid}_node2"><a xlink:href="#607963355979487" xlink:title="com.watch4net.alerting.action.SNMPTrapAction">
<ellipse fill="#4daf4a" stroke="black" cx="977.8" cy="-18" rx="83.6854" ry="18"/>
<text text-anchor="middle" x="977.8" y="-14.3" font-family="Times,serif" font-size="14.00" fill="white">Action SETMajor</text>
</a>
</g>
</g>
<!-- Check -->
<g id="${uniqueid}_node3" class="node"><title>Check</title>
<g id="a_${uniqueid}_node3"><a xlink:href="#607963355957487" xlink:title="com.watch4net.alerting.operation.comparator.ConstantComparatorOperation">
<polygon fill="#ff7f00" stroke="black" points="808.323,-91 758.554,-73 808.323,-55 858.092,-73 808.323,-91"/>
<text text-anchor="middle" x="808.323" y="-69.3" font-family="Times,serif" font-size="14.00" fill="white">Check</text>
</a>
</g>
</g>
<!-- Check&#45;&gt;Action Clear
Major -->
<g id="${uniqueid}_edge1" class="edge"><title>Check:ne&#45;&gt;Action Clear
Major:w</title>
<path fill="none" stroke="black" d="M820.323,-86C821.926,-87.6025 820.003,-89.1579 821.323,-91 842.959,-121.194 857.24,-134.531 890.402,-136.684"/>
<polygon fill="black" stroke="black" points="890.698,-140.195 900.8,-137 890.911,-133.198 890.698,-140.195"/>
<text text-anchor="middle" x="801.323" y="-89.8" font-family="Times,serif" font-size="14.00">false</text>
</g>
<!-- Check&#45;&gt;Action SETMajor -->
<g id="${uniqueid}_edge3" class="edge"><title>Check:se&#45;&gt;Action SETMajor:w</title>
<path fill="none" stroke="black" d="M822.323,-60C845.871,-36.4518 855.199,-21.2033 883.912,-18.4497"/>
<polygon fill="black" stroke="black" points="884.124,-21.9438 893.958,-18 883.811,-14.9508 884.124,-21.9438"/>
<text text-anchor="middle" x="806.823" y="-48.8" font-family="Times,serif" font-size="14.00">true</text>
</g>
<!-- Custom post&#45;
filter -->
<g id="${uniqueid}_node4" class="node"><title>Custom post&#45;
filter</title>
<g id="a_${uniqueid}_node4"><a xlink:href="#1436289129157" xlink:title="1435689668905">
<polygon fill="#e41a1c" stroke="black" points="1031.3,-92 924.3,-92 924.3,-54 1031.3,-54 1031.3,-92"/>
<text text-anchor="middle" x="977.8" y="-76.8" font-family="Times,serif" font-size="14.00" fill="white">Custom post&#45;</text>
<text text-anchor="middle" x="977.8" y="-61.8" font-family="Times,serif" font-size="14.00" fill="white">filter</text>
</a>
</g>
</g>
<!-- Check&#45;&gt;Custom post&#45;
filter -->
<g id="${uniqueid}_edge2" class="edge"><title>Check:ne&#45;&gt;Custom post&#45;
filter:sw</title>
<path fill="none" stroke="black" d="M820.323,-86C821.926,-87.6025 819.571,-89.5632 821.323,-91 833.915,-101.323 842.199,-95.0972 857.958,-91 887.172,-83.4041 898.68,-41.8187 917.527,-48.347"/>
<polygon fill="black" stroke="black" points="915.569,-51.2483 925.8,-54 919.518,-45.4686 915.569,-51.2483"/>
<text text-anchor="middle" x="997.3" y="-42.8" font-family="Times,serif" font-size="14.00">1435689620024|entry</text>
</g>
<!-- Check&#45;&gt;Custom post&#45;
filter -->
<g id="${uniqueid}_edge4" class="edge"><title>Check:se&#45;&gt;Custom post&#45;
filter:nw</title>
<path fill="none" stroke="black" d="M822.323,-60C853.019,-29.3038 884.692,-110.107 915.549,-97.7041"/>
<polygon fill="black" stroke="black" points="917.565,-100.566 923.8,-92 913.584,-94.8075 917.565,-100.566"/>
<text text-anchor="middle" x="995.3" y="-95.8" font-family="Times,serif" font-size="14.00">1435689616003|entry</text>
</g>
<!-- Custom pre&#45;
filter -->
<g id="${uniqueid}_node5" class="node"><title>Custom pre&#45;
filter</title>
<g id="a_${uniqueid}_node5"><a xlink:href="#1436289116230" xlink:title="1435689654812">
<polygon fill="#e41a1c" stroke="black" points="263.689,-92 164.689,-92 164.689,-54 263.689,-54 263.689,-92"/>
<text text-anchor="middle" x="214.189" y="-76.8" font-family="Times,serif" font-size="14.00" fill="white">Custom pre&#45;</text>
<text text-anchor="middle" x="214.189" y="-61.8" font-family="Times,serif" font-size="14.00" fill="white">filter</text>
</a>
</g>
</g>
<!-- Refine -->
<g id="${uniqueid}_node7" class="node"><title>Refine</title>
<g id="a_${uniqueid}_node7"><a xlink:href="#1428413582976" xlink:title="com.watch4net.alerting.operation.RefineFilterOperation">
<polygon fill="#377eb8" stroke="black" points="361.689,-91 299.689,-91 299.689,-55 361.689,-55 361.689,-91"/>
<text text-anchor="middle" x="330.689" y="-69.3" font-family="Times,serif" font-size="14.00" fill="white">Refine</text>
</a>
</g>
</g>
<!-- Custom pre&#45;
filter&#45;&gt;Refine -->
<g id="${uniqueid}_edge5" class="edge"><title>Custom pre&#45;
filter:e&#45;&gt;Refine:w</title>
<path fill="none" stroke="black" d="M263.689,-73C275.689,-73 280.939,-73 289.564,-73"/>
<polygon fill="black" stroke="black" points="289.689,-76.5001 299.689,-73 289.689,-69.5001 289.689,-76.5001"/>
</g>
<!-- Percent -->
<g id="${uniqueid}_node6" class="node"><title>Percent</title>
<g id="a_${uniqueid}_node6"><a xlink:href="#607963355947487" xlink:title="com.watch4net.alerting.operation.arithmetic.ConstantArithmeticOperation">
<polygon fill="#377eb8" stroke="black" points="579.689,-91 510.689,-91 510.689,-55 579.689,-55 579.689,-91"/>
<text text-anchor="middle" x="545.189" y="-69.3" font-family="Times,serif" font-size="14.00" fill="white">Percent</text>
</a>
</g>
</g>
<!-- Wait3polling -->
<g id="${uniqueid}_node10" class="node"><title>Wait3polling</title>
<g id="a_${uniqueid}_node10"><a xlink:href="#1427984272490" xlink:title="com.watch4net.alerting.operation.window.HistoryOperation">
<polygon fill="#377eb8" stroke="black" points="722.689,-91 615.689,-91 615.689,-55 722.689,-55 722.689,-91"/>
<text text-anchor="middle" x="669.189" y="-69.3" font-family="Times,serif" font-size="14.00" fill="white">Wait3polling</text>
</a>
</g>
</g>
<!-- Percent&#45;&gt;Wait3polling -->
<g id="${uniqueid}_edge6" class="edge"><title>Percent:e&#45;&gt;Wait3polling:w</title>
<path fill="none" stroke="black" d="M579.689,-73C591.689,-73 596.939,-73 605.564,-73"/>
<polygon fill="black" stroke="black" points="605.689,-76.5001 615.689,-73 605.689,-69.5001 605.689,-76.5001"/>
</g>
<!-- division -->
<g id="${uniqueid}_node11" class="node"><title>division</title>
<g id="a_${uniqueid}_node11"><a xlink:href="#607963355931487" xlink:title="com.watch4net.alerting.operation.arithmetic.DataArithmeticOperation">
<polygon fill="#377eb8" stroke="black" points="474.689,-91 397.689,-91 397.689,-55 474.689,-55 474.689,-91"/>
<text text-anchor="middle" x="436.189" y="-69.3" font-family="Times,serif" font-size="14.00" fill="white">division</text>
</a>
</g>
</g>
<!-- Refine&#45;&gt;division -->
<g id="${uniqueid}_edge7" class="edge"><title>Refine:e&#45;&gt;division:w</title>
<path fill="none" stroke="black" d="M361.689,-73C373.689,-73 378.939,-73 387.564,-73"/>
<polygon fill="black" stroke="black" points="387.689,-76.5001 397.689,-73 387.689,-69.5001 387.689,-76.5001"/>
</g>
<!-- TotalMemory -->
<g id="${uniqueid}_node8" class="node"><title>TotalMemory</title>
<g id="a_${uniqueid}_node8"><a xlink:href="#607963355992487" xlink:title="com.watch4net.alerting.operation.FilteredEntryPoint">
<ellipse fill="#984ea3" stroke="black" cx="64.3443" cy="-100" rx="64.189" ry="18"/>
<text text-anchor="middle" x="64.3443" y="-96.3" font-family="Times,serif" font-size="14.00" fill="white">TotalMemory</text>
</a>
</g>
</g>
<!-- TotalMemory&#45;&gt;Custom pre&#45;
filter -->
<g id="${uniqueid}_edge8" class="edge"><title>TotalMemory:e&#45;&gt;Custom pre&#45;
filter:w</title>
<path fill="none" stroke="black" d="M128.689,-100C144.626,-100 145.323,-82.8547 155.07,-75.8895"/>
<polygon fill="black" stroke="black" points="156.118,-79.229 164.689,-73 154.104,-72.5249 156.118,-79.229"/>
</g>
<!-- UsedMemory -->
<g id="${uniqueid}_node9" class="node"><title>UsedMemory</title>
<g id="a_${uniqueid}_node9"><a xlink:href="#607963355877487" xlink:title="com.watch4net.alerting.operation.FilteredEntryPoint">
<ellipse fill="#984ea3" stroke="black" cx="64.3443" cy="-46" rx="59.5901" ry="18"/>
<text text-anchor="middle" x="64.3443" y="-42.3" font-family="Times,serif" font-size="14.00" fill="white">UsedMemory</text>
</a>
</g>
</g>
<!-- UsedMemory&#45;&gt;Custom pre&#45;
filter -->
<g id="${uniqueid}_edge9" class="edge"><title>UsedMemory:e&#45;&gt;Custom pre&#45;
filter:w</title>
<path fill="none" stroke="black" d="M125.344,-46C142.576,-46 143.779,-63.8242 155,-70.5083"/>
<polygon fill="black" stroke="black" points="154.132,-73.8989 164.689,-73 155.875,-67.1195 154.132,-73.8989"/>
</g>
<!-- Wait3polling&#45;&gt;Check -->
<g id="${uniqueid}_edge10" class="edge"><title>Wait3polling:e&#45;&gt;Check:w</title>
<path fill="none" stroke="black" d="M722.689,-73C734.689,-73 739.939,-73 748.564,-73"/>
<polygon fill="black" stroke="black" points="748.689,-76.5001 758.689,-73 748.689,-69.5001 748.689,-76.5001"/>
<text text-anchor="middle" x="745.689" y="-61.8" font-family="Times,serif" font-size="14.00">output</text>
</g>
<!-- division&#45;&gt;Percent -->
<g id="${uniqueid}_edge11" class="edge"><title>division:e&#45;&gt;Percent:w</title>
<path fill="none" stroke="black" d="M474.689,-73C486.689,-73 491.939,-73 500.564,-73"/>
<polygon fill="black" stroke="black" points="500.689,-76.5001 510.689,-73 500.689,-69.5001 500.689,-76.5001"/>
</g>
</g>
</svg>
