<?xml version="1.0" encoding="UTF-8" standalone="no"?>
<!DOCTYPE svg PUBLIC "-//W3C//DTD SVG 1.1//EN"
 "http://www.w3.org/Graphics/SVG/1.1/DTD/svg11.dtd">
<!-- Generated by graphviz version 2.38.0 (20140413.2041)
 -->
<!-- Title: EMC ViPR Alert Definitions/VPool Quota Capacity Pages: 1 -->
<svg width="1122pt" height="272pt"
 viewBox="0.00 0.00 1122.15 272.00" xmlns="http://www.w3.org/2000/svg" xmlns:xlink="http://www.w3.org/1999/xlink">
<g id="${uniqueid}" class="graph" transform="scale(1 1) rotate(0) translate(4 268)">
<title>EMC ViPR Alert Definitions/VPool Quota Capacity</title>
<polygon fill="white" stroke="none" points="-4,4 -4,-268 1118.15,-268 1118.15,4 -4,4"/>
<!-- Critical Notify -->
<g id="${uniqueid}_node1" class="node"><title>Critical Notify</title>
<g id="a_${uniqueid}_node1"><a xlink:href="#1724507858471115" xlink:title="com.watch4net.alerting.action.SNMPTrapAction">
<ellipse fill="#4daf4a" stroke="black" cx="1030.31" cy="-226" rx="83.6854" ry="18"/>
<text text-anchor="middle" x="1030.31" y="-222.3" font-family="Times,serif" font-size="14.00" fill="white">Critical Notify</text>
</a>
</g>
</g>
<!-- Info Notify -->
<g id="${uniqueid}_node2" class="node"><title>Info Notify</title>
<g id="a_${uniqueid}_node2"><a xlink:href="#1724507858569088" xlink:title="com.watch4net.alerting.action.SNMPTrapAction">
<ellipse fill="#4daf4a" stroke="black" cx="1030.31" cy="-132" rx="64.189" ry="18"/>
<text text-anchor="middle" x="1030.31" y="-128.3" font-family="Times,serif" font-size="14.00" fill="white">Info Notify</text>
</a>
</g>
</g>
<!-- Quota -->
<g id="${uniqueid}_node3" class="node"><title>Quota</title>
<g id="a_${uniqueid}_node3"><a xlink:href="#1724507858610183" xlink:title="com.watch4net.alerting.operation.FilteredEntryPoint">
<ellipse fill="#984ea3" stroke="black" cx="35.0969" cy="-159" rx="35.194" ry="18"/>
<text text-anchor="middle" x="35.0969" y="-155.3" font-family="Times,serif" font-size="14.00" fill="white">Quota</text>
</a>
</g>
</g>
<!-- Quota Not Zero -->
<g id="${uniqueid}_node4" class="node"><title>Quota Not Zero</title>
<g id="a_${uniqueid}_node4"><a xlink:href="#1417534860717" xlink:title="com.watch4net.alerting.operation.comparator.ConstantComparatorOperation">
<polygon fill="#ff7f00" stroke="black" points="218.331,-177 106.056,-159 218.331,-141 330.605,-159 218.331,-177"/>
<text text-anchor="middle" x="218.331" y="-155.3" font-family="Times,serif" font-size="14.00" fill="white">Quota Not Zero</text>
</a>
</g>
</g>
<!-- Quota&#45;&gt;Quota Not Zero -->
<g id="${uniqueid}_edge1" class="edge"><title>Quota:e&#45;&gt;Quota Not Zero:w</title>
<path fill="none" stroke="black" d="M70.1938,-159C82.1938,-159 87.4438,-159 96.0688,-159"/>
<polygon fill="black" stroke="black" points="96.1938,-162.5 106.194,-159 96.1937,-155.5 96.1938,-162.5"/>
</g>
<!-- divison -->
<g id="${uniqueid}_node11" class="node"><title>divison</title>
<g id="a_${uniqueid}_node11"><a xlink:href="#1724507858403594" xlink:title="com.watch4net.alerting.operation.arithmetic.DataArithmeticOperation">
<polygon fill="#377eb8" stroke="black" points="435.468,-150 366.468,-150 366.468,-114 435.468,-114 435.468,-150"/>
<text text-anchor="middle" x="400.968" y="-128.3" font-family="Times,serif" font-size="14.00" fill="white">divison</text>
</a>
</g>
</g>
<!-- Quota Not Zero&#45;&gt;divison -->
<g id="${uniqueid}_edge2" class="edge"><title>Quota Not Zero:e&#45;&gt;divison:w</title>
<path fill="none" stroke="black" d="M330.468,-159C346.406,-159 347.103,-141.855 356.849,-134.889"/>
<polygon fill="black" stroke="black" points="357.898,-138.229 366.468,-132 355.884,-131.525 357.898,-138.229"/>
<text text-anchor="middle" x="345.968" y="-147.8" font-family="Times,serif" font-size="14.00">true</text>
</g>
<!-- UsedCapacity -->
<g id="${uniqueid}_node5" class="node"><title>UsedCapacity</title>
<g id="a_${uniqueid}_node5"><a xlink:href="#1724507858381341" xlink:title="com.watch4net.alerting.operation.FilteredEntryPoint">
<ellipse fill="#984ea3" stroke="black" cx="218.331" cy="-105" rx="69.5877" ry="18"/>
<text text-anchor="middle" x="218.331" y="-101.3" font-family="Times,serif" font-size="14.00" fill="white">UsedCapacity</text>
</a>
</g>
</g>
<!-- UsedCapacity&#45;&gt;divison -->
<g id="${uniqueid}_edge3" class="edge"><title>UsedCapacity:e&#45;&gt;divison:w</title>
<path fill="none" stroke="black" d="M289.331,-105C321.965,-105 328.905,-126.794 356.319,-131.221"/>
<polygon fill="black" stroke="black" points="356.23,-134.724 366.468,-132 356.765,-127.745 356.23,-134.724"/>
</g>
<!-- Virtual_Pool_
Quota_Critical -->
<g id="${uniqueid}_node6" class="node"><title>Virtual_Pool_
Quota_Critical</title>
<g id="a_${uniqueid}_node6"><a xlink:href="#1724507858454138" xlink:title="com.watch4net.alerting.operation.comparator.ConstantComparatorOperation">
<polygon fill="#ff7f00" stroke="black" points="788.468,-264 666.468,-226 788.468,-188 910.468,-226 788.468,-264"/>
<text text-anchor="middle" x="788.468" y="-229.8" font-family="Times,serif" font-size="14.00" fill="white">Virtual_Pool_</text>
<text text-anchor="middle" x="788.468" y="-214.8" font-family="Times,serif" font-size="14.00" fill="white">Quota_Critical</text>
</a>
</g>
</g>
<!-- Virtual_Pool_
Quota_Critical&#45;&gt;Critical Notify -->
<g id="${uniqueid}_edge4" class="edge"><title>Virtual_Pool_
Quota_Critical:e&#45;&gt;Critical Notify:w</title>
<path fill="none" stroke="black" d="M910.468,-226C922.468,-226 927.718,-226 936.343,-226"/>
<polygon fill="black" stroke="black" points="936.468,-229.5 946.468,-226 936.468,-222.5 936.468,-229.5"/>
<text text-anchor="middle" x="925.968" y="-214.8" font-family="Times,serif" font-size="14.00">true</text>
</g>
<!-- Virtual_Pool_
Quota_Info -->
<g id="${uniqueid}_node7" class="node"><title>Virtual_Pool_
Quota_Info</title>
<g id="a_${uniqueid}_node7"><a xlink:href="#1724507858552857" xlink:title="com.watch4net.alerting.operation.comparator.ConstantComparatorOperation">
<polygon fill="#ff7f00" stroke="black" points="788.468,-170 674.468,-132 788.468,-94 902.468,-132 788.468,-170"/>
<text text-anchor="middle" x="788.468" y="-135.8" font-family="Times,serif" font-size="14.00" fill="white">Virtual_Pool_</text>
<text text-anchor="middle" x="788.468" y="-120.8" font-family="Times,serif" font-size="14.00" fill="white">Quota_Info</text>
</a>
</g>
</g>
<!-- Virtual_Pool_
Quota_Info&#45;&gt;Info Notify -->
<g id="${uniqueid}_edge5" class="edge"><title>Virtual_Pool_
Quota_Info:e&#45;&gt;Info Notify:w</title>
<path fill="none" stroke="black" d="M903.468,-132C926.812,-132 935.042,-132 954.253,-132"/>
<polygon fill="black" stroke="black" points="954.311,-135.5 964.311,-132 954.311,-128.5 954.311,-135.5"/>
<text text-anchor="middle" x="918.968" y="-120.8" font-family="Times,serif" font-size="14.00">true</text>
</g>
<!-- Virtual_Pool_
Quota_Warning -->
<g id="${uniqueid}_node8" class="node"><title>Virtual_Pool_
Quota_Warning</title>
<g id="a_${uniqueid}_node8"><a xlink:href="#1724507858503998" xlink:title="com.watch4net.alerting.operation.comparator.ConstantComparatorOperation">
<polygon fill="#ff7f00" stroke="black" points="788.468,-76 674.468,-38 788.468,-7.10543e-15 902.468,-38 788.468,-76"/>
<text text-anchor="middle" x="788.468" y="-41.8" font-family="Times,serif" font-size="14.00" fill="white">Virtual_Pool_</text>
<text text-anchor="middle" x="788.468" y="-26.8" font-family="Times,serif" font-size="14.00" fill="white">Quota_Warning</text>
</a>
</g>
</g>
<!-- Warning Notify -->
<g id="${uniqueid}_node9" class="node"><title>Warning Notify</title>
<g id="a_${uniqueid}_node9"><a xlink:href="#1724507858520536" xlink:title="com.watch4net.alerting.action.SNMPTrapAction">
<ellipse fill="#4daf4a" stroke="black" cx="1030.31" cy="-38" rx="79.0865" ry="18"/>
<text text-anchor="middle" x="1030.31" y="-34.3" font-family="Times,serif" font-size="14.00" fill="white">Warning Notify</text>
</a>
</g>
</g>
<!-- Virtual_Pool_
Quota_Warning&#45;&gt;Warning Notify -->
<g id="${uniqueid}_edge6" class="edge"><title>Virtual_Pool_
Quota_Warning:e&#45;&gt;Warning Notify:w</title>
<path fill="none" stroke="black" d="M903.468,-38C920.022,-38 926.489,-38 939.26,-38"/>
<polygon fill="black" stroke="black" points="939.311,-41.5001 949.311,-38 939.311,-34.5001 939.311,-41.5001"/>
<text text-anchor="middle" x="918.968" y="-26.8" font-family="Times,serif" font-size="14.00">true</text>
</g>
<!-- case -->
<g id="${uniqueid}_node10" class="node"><title>case</title>
<g id="a_${uniqueid}_node10"><a xlink:href="#1724507858441208" xlink:title="com.watch4net.alerting.operation.CaseOperation">
<polygon fill="#377eb8" stroke="black" points="630.468,-150 576.468,-150 576.468,-114 630.468,-114 630.468,-150"/>
<text text-anchor="middle" x="603.468" y="-128.3" font-family="Times,serif" font-size="14.00" fill="white">case</text>
</a>
</g>
</g>
<!-- case&#45;&gt;Virtual_Pool_
Quota_Critical -->
<g id="${uniqueid}_edge7" class="edge"><title>case:e&#45;&gt;Virtual_Pool_
Quota_Critical:w</title>
<path fill="none" stroke="black" d="M630.468,-132C671.186,-132 630.547,-209.868 656.646,-223.86"/>
<polygon fill="black" stroke="black" points="655.952,-227.291 666.468,-226 657.442,-220.451 655.952,-227.291"/>
</g>
<!-- case&#45;&gt;Virtual_Pool_
Quota_Info -->
<g id="${uniqueid}_edge8" class="edge"><title>case:e&#45;&gt;Virtual_Pool_
Quota_Info:w</title>
<path fill="none" stroke="black" d="M630.468,-132C645.697,-132 651.825,-132 663.356,-132"/>
<polygon fill="black" stroke="black" points="663.468,-135.5 673.468,-132 663.468,-128.5 663.468,-135.5"/>
</g>
<!-- case&#45;&gt;Virtual_Pool_
Quota_Warning -->
<g id="${uniqueid}_edge9" class="edge"><title>case:e&#45;&gt;Virtual_Pool_
Quota_Warning:w</title>
<path fill="none" stroke="black" d="M630.468,-132C672.462,-132 635.228,-53.462 663.604,-39.9633"/>
<polygon fill="black" stroke="black" points="664.344,-43.3849 673.468,-38 662.977,-36.5196 664.344,-43.3849"/>
</g>
<!-- percent -->
<g id="${uniqueid}_node12" class="node"><title>percent</title>
<g id="a_${uniqueid}_node12"><a xlink:href="#1724507858424637" xlink:title="com.watch4net.alerting.operation.arithmetic.ConstantArithmeticOperation">
<polygon fill="#377eb8" stroke="black" points="540.468,-150 471.468,-150 471.468,-114 540.468,-114 540.468,-150"/>
<text text-anchor="middle" x="505.968" y="-128.3" font-family="Times,serif" font-size="14.00" fill="white">percent</text>
</a>
</g>
</g>
<!-- divison&#45;&gt;percent -->
<g id="${uniqueid}_edge10" class="edge"><title>divison:e&#45;&gt;percent:w</title>
<path fill="none" stroke="black" d="M435.468,-132C447.468,-132 452.718,-132 461.343,-132"/>
<polygon fill="black" stroke="black" points="461.468,-135.5 471.468,-132 461.468,-128.5 461.468,-135.5"/>
</g>
<!-- percent&#45;&gt;case -->
<g id="${uniqueid}_edge11" class="edge"><title>percent:e&#45;&gt;case:w</title>
<path fill="none" stroke="black" d="M540.468,-132C552.468,-132 557.718,-132 566.343,-132"/>
<polygon fill="black" stroke="black" points="566.468,-135.5 576.468,-132 566.468,-128.5 566.468,-135.5"/>
</g>
</g>
</svg>
