<?xml version="1.0" encoding="UTF-8" standalone="no"?>
<!DOCTYPE svg PUBLIC "-//W3C//DTD SVG 1.1//EN"
 "http://www.w3.org/Graphics/SVG/1.1/DTD/svg11.dtd">
<!-- Generated by graphviz version 2.38.0 (20140413.2041)
 -->
<!-- Title: EMC VNX Alert Definitions/VNXFile&#45;Quota/Soft Quota Reached Pages: 1 -->
<svg width="1030pt" height="409pt"
 viewBox="0.00 0.00 1030.07 409.48" xmlns="http://www.w3.org/2000/svg" xmlns:xlink="http://www.w3.org/1999/xlink">
<g id="${uniqueid}" class="graph" transform="scale(1 1) rotate(0) translate(4 405.477)">
<title>EMC VNX Alert Definitions/VNXFile&#45;Quota/Soft Quota Reached</title>
<polygon fill="white" stroke="none" points="-4,4 -4,-405.477 1026.07,-405.477 1026.07,4 -4,4"/>
<!-- RoundSoftQuota
Reached -->
<g id="${uniqueid}_node1" class="node"><title>RoundSoftQuota
Reached</title>
<g id="a_${uniqueid}_node1"><a xlink:href="#1443091353554" xlink:title="com.watch4net.alerting.operation.math.ConstantMathOperation">
<polygon fill="#377eb8" stroke="black" points="309.321,-205 187.321,-205 187.321,-167 309.321,-167 309.321,-205"/>
<text text-anchor="middle" x="248.321" y="-189.8" font-family="Times,serif" font-size="14.00" fill="white">RoundSoftQuota</text>
<text text-anchor="middle" x="248.321" y="-174.8" font-family="Times,serif" font-size="14.00" fill="white">Reached</text>
</a>
</g>
</g>
<!-- SoftQuotaReached -->
<g id="${uniqueid}_node2" class="node"><title>SoftQuotaReached</title>
<g id="a_${uniqueid}_node2"><a xlink:href="#695003619415417" xlink:title="com.watch4net.alerting.operation.CaseOperation">
<polygon fill="#377eb8" stroke="black" points="482.321,-204 345.321,-204 345.321,-168 482.321,-168 482.321,-204"/>
<text text-anchor="middle" x="413.821" y="-182.3" font-family="Times,serif" font-size="14.00" fill="white">SoftQuotaReached</text>
</a>
</g>
</g>
<!-- RoundSoftQuota
Reached&#45;&gt;SoftQuotaReached -->
<g id="${uniqueid}_edge1" class="edge"><title>RoundSoftQuota
Reached:e&#45;&gt;SoftQuotaReached:w</title>
<path fill="none" stroke="black" d="M309.321,-186C321.321,-186 326.571,-186 335.196,-186"/>
<polygon fill="black" stroke="black" points="335.321,-189.5 345.321,-186 335.321,-182.5 335.321,-189.5"/>
</g>
<!-- SoftQuotaReached
CRITICAL Alert -->
<g id="${uniqueid}_node4" class="node"><title>SoftQuotaReached
CRITICAL Alert</title>
<g id="a_${uniqueid}_node4"><a xlink:href="#695003619426231" xlink:title="com.watch4net.alerting.operation.comparator.ConstantComparatorOperation">
<polygon fill="#ff7f00" stroke="black" points="655.321,-394 518.321,-356 655.321,-318 792.321,-356 655.321,-394"/>
<text text-anchor="middle" x="655.321" y="-359.8" font-family="Times,serif" font-size="14.00" fill="white">SoftQuotaReached</text>
<text text-anchor="middle" x="655.321" y="-344.8" font-family="Times,serif" font-size="14.00" fill="white">CRITICAL Alert</text>
</a>
</g>
</g>
<!-- SoftQuotaReached&#45;&gt;SoftQuotaReached
CRITICAL Alert -->
<g id="${uniqueid}_edge2" class="edge"><title>SoftQuotaReached:e&#45;&gt;SoftQuotaReached
CRITICAL Alert:w</title>
<path fill="none" stroke="black" d="M482.321,-186C555.781,-186 452.192,-339.804 508.362,-354.824"/>
<polygon fill="black" stroke="black" points="507.979,-358.303 518.321,-356 508.8,-351.351 507.979,-358.303"/>
</g>
<!-- SoftQuotaReached
INFORMATIONAL
Alert -->
<g id="${uniqueid}_node6" class="node"><title>SoftQuotaReached
INFORMATIONAL
Alert</title>
<g id="a_${uniqueid}_node6"><a xlink:href="#695003619522660" xlink:title="com.watch4net.alerting.operation.comparator.ConstantComparatorOperation">
<polygon fill="#ff7f00" stroke="black" points="655.321,-294 518.321,-241 655.321,-188 792.321,-241 655.321,-294"/>
<text text-anchor="middle" x="655.321" y="-252.3" font-family="Times,serif" font-size="14.00" fill="white">SoftQuotaReached</text>
<text text-anchor="middle" x="655.321" y="-237.3" font-family="Times,serif" font-size="14.00" fill="white">INFORMATIONAL</text>
<text text-anchor="middle" x="655.321" y="-222.3" font-family="Times,serif" font-size="14.00" fill="white">Alert</text>
</a>
</g>
</g>
<!-- SoftQuotaReached&#45;&gt;SoftQuotaReached
INFORMATIONAL
Alert -->
<g id="${uniqueid}_edge3" class="edge"><title>SoftQuotaReached:e&#45;&gt;SoftQuotaReached
INFORMATIONAL
Alert:w</title>
<path fill="none" stroke="black" d="M482.321,-186C507.199,-186 494.627,-225.884 508.387,-237.724"/>
<polygon fill="black" stroke="black" points="507.728,-241.192 518.321,-241 509.92,-234.544 507.728,-241.192"/>
</g>
<!-- SoftQuotaReached
MAJOR Alert -->
<g id="${uniqueid}_node8" class="node"><title>SoftQuotaReached
MAJOR Alert</title>
<g id="a_${uniqueid}_node8"><a xlink:href="#695003619470785" xlink:title="com.watch4net.alerting.operation.comparator.ConstantComparatorOperation">
<polygon fill="#ff7f00" stroke="black" points="655.321,-170 518.321,-132 655.321,-94 792.321,-132 655.321,-170"/>
<text text-anchor="middle" x="655.321" y="-135.8" font-family="Times,serif" font-size="14.00" fill="white">SoftQuotaReached</text>
<text text-anchor="middle" x="655.321" y="-120.8" font-family="Times,serif" font-size="14.00" fill="white">MAJOR Alert</text>
</a>
</g>
</g>
<!-- SoftQuotaReached&#45;&gt;SoftQuotaReached
MAJOR Alert -->
<g id="${uniqueid}_edge4" class="edge"><title>SoftQuotaReached:e&#45;&gt;SoftQuotaReached
MAJOR Alert:w</title>
<path fill="none" stroke="black" d="M482.321,-186C506.884,-186 494.802,-146.841 508.486,-135.216"/>
<polygon fill="black" stroke="black" points="509.904,-138.435 518.321,-132 507.728,-131.782 509.904,-138.435"/>
</g>
<!-- SoftQuotaReached
MINOR Alert -->
<g id="${uniqueid}_node10" class="node"><title>SoftQuotaReached
MINOR Alert</title>
<g id="a_${uniqueid}_node10"><a xlink:href="#695003619494627" xlink:title="com.watch4net.alerting.operation.comparator.ConstantComparatorOperation">
<polygon fill="#ff7f00" stroke="black" points="655.321,-76 518.321,-38 655.321,-7.10543e-15 792.321,-38 655.321,-76"/>
<text text-anchor="middle" x="655.321" y="-41.8" font-family="Times,serif" font-size="14.00" fill="white">SoftQuotaReached</text>
<text text-anchor="middle" x="655.321" y="-26.8" font-family="Times,serif" font-size="14.00" fill="white">MINOR Alert</text>
</a>
</g>
</g>
<!-- SoftQuotaReached&#45;&gt;SoftQuotaReached
MINOR Alert -->
<g id="${uniqueid}_edge5" class="edge"><title>SoftQuotaReached:e&#45;&gt;SoftQuotaReached
MINOR Alert:w</title>
<path fill="none" stroke="black" d="M482.321,-186C546.182,-186 461.348,-54.2908 508.365,-39.3706"/>
<polygon fill="black" stroke="black" points="508.892,-42.8313 518.321,-38 507.937,-35.8967 508.892,-42.8313"/>
</g>
<!-- SoftQuotaReached
Alert Clear -->
<g id="${uniqueid}_node3" class="node"><title>SoftQuotaReached
Alert Clear</title>
<g id="a_${uniqueid}_node3"><a xlink:href="#695003619556518" xlink:title="com.watch4net.alerting.action.SNMPTrapAction">
<ellipse fill="#4daf4a" stroke="black" cx="925.194" cy="-282" rx="96.7474" ry="26.7407"/>
<text text-anchor="middle" x="925.194" y="-285.8" font-family="Times,serif" font-size="14.00" fill="white">SoftQuotaReached</text>
<text text-anchor="middle" x="925.194" y="-270.8" font-family="Times,serif" font-size="14.00" fill="white">Alert Clear</text>
</a>
</g>
</g>
<!-- SoftQuotaReached
CRITICAL Alert
trap -->
<g id="${uniqueid}_node5" class="node"><title>SoftQuotaReached
CRITICAL Alert
trap</title>
<g id="a_${uniqueid}_node5"><a xlink:href="#695003619443333" xlink:title="com.watch4net.alerting.action.SNMPTrapAction">
<ellipse fill="#4daf4a" stroke="black" cx="925.194" cy="-364" rx="96.7474" ry="37.4533"/>
<text text-anchor="middle" x="925.194" y="-375.3" font-family="Times,serif" font-size="14.00" fill="white">SoftQuotaReached</text>
<text text-anchor="middle" x="925.194" y="-360.3" font-family="Times,serif" font-size="14.00" fill="white">CRITICAL Alert</text>
<text text-anchor="middle" x="925.194" y="-345.3" font-family="Times,serif" font-size="14.00" fill="white">trap</text>
</a>
</g>
</g>
<!-- SoftQuotaReached
CRITICAL Alert&#45;&gt;SoftQuotaReached
CRITICAL Alert
trap -->
<g id="${uniqueid}_edge6" class="edge"><title>SoftQuotaReached
CRITICAL Alert:e&#45;&gt;SoftQuotaReached
CRITICAL Alert
trap:w</title>
<path fill="none" stroke="black" d="M792.321,-356C804.742,-356 809.599,-360.594 818.356,-362.82"/>
<polygon fill="black" stroke="black" points="817.979,-366.299 828.321,-364 818.802,-359.348 817.979,-366.299"/>
<text text-anchor="middle" x="807.821" y="-344.8" font-family="Times,serif" font-size="14.00">true</text>
</g>
<!-- SoftQuotaReached
INFORMATIONAL
Alert&#45;&gt;SoftQuotaReached
Alert Clear -->
<g id="${uniqueid}_edge7" class="edge"><title>SoftQuotaReached
INFORMATIONAL
Alert:ne&#45;&gt;SoftQuotaReached
Alert Clear:w</title>
<path fill="none" stroke="black" d="M693.321,-280C695.526,-282.205 692.038,-291.875 694.321,-294 726.198,-323.681 749.328,-300.977 792.321,-294 804.937,-291.953 809.42,-286.117 818.192,-283.41"/>
<polygon fill="black" stroke="black" points="818.899,-286.846 828.321,-282 817.934,-279.913 818.899,-286.846"/>
<text text-anchor="middle" x="674.321" y="-283.8" font-family="Times,serif" font-size="14.00">false</text>
</g>
<!-- SoftQuotaReached
INFORMATIONAL
Alert trap -->
<g id="${uniqueid}_node7" class="node"><title>SoftQuotaReached
INFORMATIONAL
Alert trap</title>
<g id="a_${uniqueid}_node7"><a xlink:href="#695003619535374" xlink:title="com.watch4net.alerting.action.SNMPTrapAction">
<ellipse fill="#4daf4a" stroke="black" cx="925.194" cy="-200" rx="96.7474" ry="37.4533"/>
<text text-anchor="middle" x="925.194" y="-211.3" font-family="Times,serif" font-size="14.00" fill="white">SoftQuotaReached</text>
<text text-anchor="middle" x="925.194" y="-196.3" font-family="Times,serif" font-size="14.00" fill="white">INFORMATIONAL</text>
<text text-anchor="middle" x="925.194" y="-181.3" font-family="Times,serif" font-size="14.00" fill="white">Alert trap</text>
</a>
</g>
</g>
<!-- SoftQuotaReached
INFORMATIONAL
Alert&#45;&gt;SoftQuotaReached
INFORMATIONAL
Alert trap -->
<g id="${uniqueid}_edge8" class="edge"><title>SoftQuotaReached
INFORMATIONAL
Alert:se&#45;&gt;SoftQuotaReached
INFORMATIONAL
Alert trap:w</title>
<path fill="none" stroke="black" d="M695.321,-202C734.674,-162.647 765.41,-195.616 818.2,-199.614"/>
<polygon fill="black" stroke="black" points="818.195,-203.117 828.321,-200 818.461,-196.122 818.195,-203.117"/>
<text text-anchor="middle" x="679.821" y="-190.8" font-family="Times,serif" font-size="14.00">true</text>
</g>
<!-- SoftQuotaReached
MAJOR Alert trap -->
<g id="${uniqueid}_node9" class="node"><title>SoftQuotaReached
MAJOR Alert trap</title>
<g id="a_${uniqueid}_node9"><a xlink:href="#695003619484292" xlink:title="com.watch4net.alerting.action.SNMPTrapAction">
<ellipse fill="#4daf4a" stroke="black" cx="925.194" cy="-118" rx="96.7474" ry="26.7407"/>
<text text-anchor="middle" x="925.194" y="-121.8" font-family="Times,serif" font-size="14.00" fill="white">SoftQuotaReached</text>
<text text-anchor="middle" x="925.194" y="-106.8" font-family="Times,serif" font-size="14.00" fill="white">MAJOR Alert trap</text>
</a>
</g>
</g>
<!-- SoftQuotaReached
MAJOR Alert&#45;&gt;SoftQuotaReached
MAJOR Alert trap -->
<g id="${uniqueid}_edge9" class="edge"><title>SoftQuotaReached
MAJOR Alert:e&#45;&gt;SoftQuotaReached
MAJOR Alert trap:w</title>
<path fill="none" stroke="black" d="M792.321,-132C805.465,-132 809.521,-123.793 818.406,-119.947"/>
<polygon fill="black" stroke="black" points="819.182,-123.361 828.321,-118 817.834,-116.492 819.182,-123.361"/>
<text text-anchor="middle" x="807.821" y="-120.8" font-family="Times,serif" font-size="14.00">true</text>
</g>
<!-- SoftQuotaReached
MINOR Alert trap -->
<g id="${uniqueid}_node11" class="node"><title>SoftQuotaReached
MINOR Alert trap</title>
<g id="a_${uniqueid}_node11"><a xlink:href="#695003619505858" xlink:title="com.watch4net.alerting.action.SNMPTrapAction">
<ellipse fill="#4daf4a" stroke="black" cx="925.194" cy="-38" rx="96.7474" ry="26.7407"/>
<text text-anchor="middle" x="925.194" y="-41.8" font-family="Times,serif" font-size="14.00" fill="white">SoftQuotaReached</text>
<text text-anchor="middle" x="925.194" y="-26.8" font-family="Times,serif" font-size="14.00" fill="white">MINOR Alert trap</text>
</a>
</g>
</g>
<!-- SoftQuotaReached
MINOR Alert&#45;&gt;SoftQuotaReached
MINOR Alert trap -->
<g id="${uniqueid}_edge10" class="edge"><title>SoftQuotaReached
MINOR Alert:e&#45;&gt;SoftQuotaReached
MINOR Alert trap:w</title>
<path fill="none" stroke="black" d="M792.321,-38C804.321,-38 809.571,-38 818.196,-38"/>
<polygon fill="black" stroke="black" points="818.321,-41.5001 828.321,-38 818.321,-34.5001 818.321,-41.5001"/>
<text text-anchor="middle" x="807.821" y="-26.8" font-family="Times,serif" font-size="14.00">true</text>
</g>
<!-- VNXFile Soft
QuotaReached
Alert -->
<g id="${uniqueid}_node12" class="node"><title>VNXFile Soft
QuotaReached
Alert</title>
<g id="a_${uniqueid}_node12"><a xlink:href="#695003619371304" xlink:title="com.watch4net.alerting.operation.FilteredEntryPoint">
<ellipse fill="#984ea3" stroke="black" cx="75.6604" cy="-186" rx="75.8212" ry="37.4533"/>
<text text-anchor="middle" x="75.6604" y="-197.3" font-family="Times,serif" font-size="14.00" fill="white">VNXFile Soft</text>
<text text-anchor="middle" x="75.6604" y="-182.3" font-family="Times,serif" font-size="14.00" fill="white">QuotaReached</text>
<text text-anchor="middle" x="75.6604" y="-167.3" font-family="Times,serif" font-size="14.00" fill="white">Alert</text>
</a>
</g>
</g>
<!-- VNXFile Soft
QuotaReached
Alert&#45;&gt;RoundSoftQuota
Reached -->
<g id="${uniqueid}_edge11" class="edge"><title>VNXFile Soft
QuotaReached
Alert:e&#45;&gt;RoundSoftQuota
Reached:w</title>
<path fill="none" stroke="black" d="M151.321,-186C163.321,-186 168.571,-186 177.196,-186"/>
<polygon fill="black" stroke="black" points="177.321,-189.5 187.321,-186 177.321,-182.5 177.321,-189.5"/>
</g>
</g>
</svg>
