<?xml version="1.0" encoding="UTF-8" standalone="no"?>
<!DOCTYPE svg PUBLIC "-//W3C//DTD SVG 1.1//EN"
 "http://www.w3.org/Graphics/SVG/1.1/DTD/svg11.dtd">
<!-- Generated by graphviz version 2.38.0 (20140413.2041)
 -->
<!-- Title: IBMDS5k Alert Definitions/IBMDS5k&#45;Port/Write Bandwidth Pages: 1 -->
<svg width="1006pt" height="422pt"
 viewBox="0.00 0.00 1006.01 421.74" xmlns="http://www.w3.org/2000/svg" xmlns:xlink="http://www.w3.org/1999/xlink">
<g id="${uniqueid}" class="graph" transform="scale(1 1) rotate(0) translate(4 417.74)">
<title>IBMDS5k Alert Definitions/IBMDS5k&#45;Port/Write Bandwidth</title>
<polygon fill="white" stroke="none" points="-4,4 -4,-417.74 1002.01,-417.74 1002.01,4 -4,4"/>
<!-- Port write b/w
entry -->
<g id="${uniqueid}_node1" class="node"><title>Port write b/w
entry</title>
<g id="a_${uniqueid}_node1"><a xlink:href="#2613860761024873" xlink:title="com.watch4net.alerting.operation.FilteredEntryPoint">
<ellipse fill="#984ea3" stroke="black" cx="84.1457" cy="-206.87" rx="84.2917" ry="26.7407"/>
<text text-anchor="middle" x="84.1457" y="-210.67" font-family="Times,serif" font-size="14.00" fill="white">Port write b/w</text>
<text text-anchor="middle" x="84.1457" y="-195.67" font-family="Times,serif" font-size="14.00" fill="white">entry</text>
</a>
</g>
</g>
<!-- Roundoff -->
<g id="${uniqueid}_node2" class="node"><title>Roundoff</title>
<g id="a_${uniqueid}_node2"><a xlink:href="#1441797950251" xlink:title="com.watch4net.alerting.operation.math.ConstantMathOperation">
<polygon fill="#377eb8" stroke="black" points="285.291,-224.87 204.291,-224.87 204.291,-188.87 285.291,-188.87 285.291,-224.87"/>
<text text-anchor="middle" x="244.791" y="-203.17" font-family="Times,serif" font-size="14.00" fill="white">Roundoff</text>
</a>
</g>
</g>
<!-- Port write b/w
entry&#45;&gt;Roundoff -->
<g id="${uniqueid}_edge1" class="edge"><title>Port write b/w
entry:e&#45;&gt;Roundoff:w</title>
<path fill="none" stroke="black" d="M168.291,-206.87C180.291,-206.87 185.541,-206.87 194.166,-206.87"/>
<polygon fill="black" stroke="black" points="194.291,-210.37 204.291,-206.87 194.291,-203.37 194.291,-210.37"/>
</g>
<!-- Write b/w Case -->
<g id="${uniqueid}_node7" class="node"><title>Write b/w Case</title>
<g id="a_${uniqueid}_node7"><a xlink:href="#2613860761335724" xlink:title="com.watch4net.alerting.operation.CaseOperation">
<polygon fill="#377eb8" stroke="black" points="447.291,-224.87 321.291,-224.87 321.291,-188.87 447.291,-188.87 447.291,-224.87"/>
<text text-anchor="middle" x="384.291" y="-203.17" font-family="Times,serif" font-size="14.00" fill="white">Write b/w Case</text>
</a>
</g>
</g>
<!-- Roundoff&#45;&gt;Write b/w Case -->
<g id="${uniqueid}_edge2" class="edge"><title>Roundoff:e&#45;&gt;Write b/w Case:w</title>
<path fill="none" stroke="black" d="M285.291,-206.87C297.291,-206.87 302.541,-206.87 311.166,-206.87"/>
<polygon fill="black" stroke="black" points="311.291,-210.37 321.291,-206.87 311.291,-203.37 311.291,-210.37"/>
</g>
<!-- Write B/W_
Critical Trap -->
<g id="${uniqueid}_node3" class="node"><title>Write B/W_
Critical Trap</title>
<g id="a_${uniqueid}_node3"><a xlink:href="#2613860761367280" xlink:title="com.watch4net.alerting.action.SNMPTrapAction">
<ellipse fill="#4daf4a" stroke="black" cx="892.65" cy="-314.87" rx="76.2353" ry="26.7407"/>
<text text-anchor="middle" x="892.65" y="-318.67" font-family="Times,serif" font-size="14.00" fill="white">Write B/W_</text>
<text text-anchor="middle" x="892.65" y="-303.67" font-family="Times,serif" font-size="14.00" fill="white">Critical Trap</text>
</a>
</g>
</g>
<!-- Write B/W_
Critical_Clear -->
<g id="${uniqueid}_node4" class="node"><title>Write B/W_
Critical_Clear</title>
<g id="a_${uniqueid}_node4"><a xlink:href="#1426753702824" xlink:title="com.watch4net.alerting.action.SNMPTrapAction">
<ellipse fill="#4daf4a" stroke="black" cx="892.65" cy="-386.87" rx="82.9636" ry="26.7407"/>
<text text-anchor="middle" x="892.65" y="-390.67" font-family="Times,serif" font-size="14.00" fill="white">Write B/W_</text>
<text text-anchor="middle" x="892.65" y="-375.67" font-family="Times,serif" font-size="14.00" fill="white">Critical_Clear</text>
</a>
</g>
</g>
<!-- Write B/W_Major
Trap -->
<g id="${uniqueid}_node5" class="node"><title>Write B/W_Major
Trap</title>
<g id="a_${uniqueid}_node5"><a xlink:href="#2613860761401036" xlink:title="com.watch4net.alerting.action.SNMPTrapAction">
<ellipse fill="#4daf4a" stroke="black" cx="892.65" cy="-170.87" rx="99.9045" ry="26.7407"/>
<text text-anchor="middle" x="892.65" y="-174.67" font-family="Times,serif" font-size="14.00" fill="white">Write B/W_Major</text>
<text text-anchor="middle" x="892.65" y="-159.67" font-family="Times,serif" font-size="14.00" fill="white">Trap</text>
</a>
</g>
</g>
<!-- Write B/W_Major_
Clear -->
<g id="${uniqueid}_node6" class="node"><title>Write B/W_Major_
Clear</title>
<g id="a_${uniqueid}_node6"><a xlink:href="#1426753761599" xlink:title="com.watch4net.alerting.action.SNMPTrapAction">
<ellipse fill="#4daf4a" stroke="black" cx="892.65" cy="-242.87" rx="105.218" ry="26.7407"/>
<text text-anchor="middle" x="892.65" y="-246.67" font-family="Times,serif" font-size="14.00" fill="white">Write B/W_Major_</text>
<text text-anchor="middle" x="892.65" y="-231.67" font-family="Times,serif" font-size="14.00" fill="white">Clear</text>
</a>
</g>
</g>
<!-- Write b/w Crit
comp -->
<g id="${uniqueid}_node8" class="node"><title>Write b/w Crit
comp</title>
<g id="a_${uniqueid}_node8"><a xlink:href="#2613860761347519" xlink:title="com.watch4net.alerting.operation.comparator.ConstantComparatorOperation">
<polygon fill="#ff7f00" stroke="black" points="617.291,-381.87 498.291,-343.87 617.291,-305.87 736.291,-343.87 617.291,-381.87"/>
<text text-anchor="middle" x="617.291" y="-347.67" font-family="Times,serif" font-size="14.00" fill="white">Write b/w Crit</text>
<text text-anchor="middle" x="617.291" y="-332.67" font-family="Times,serif" font-size="14.00" fill="white">comp</text>
</a>
</g>
</g>
<!-- Write b/w Case&#45;&gt;Write b/w Crit
comp -->
<g id="${uniqueid}_edge3" class="edge"><title>Write b/w Case:e&#45;&gt;Write b/w Crit
comp:w</title>
<path fill="none" stroke="black" d="M447.291,-206.87C508.311,-206.87 441.31,-328.286 487.327,-342.514"/>
<polygon fill="black" stroke="black" points="486.911,-345.99 497.291,-343.87 487.855,-339.054 486.911,-345.99"/>
</g>
<!-- Write b/w Maj
Comp -->
<g id="${uniqueid}_node9" class="node"><title>Write b/w Maj
Comp</title>
<g id="a_${uniqueid}_node9"><a xlink:href="#2613860761388619" xlink:title="com.watch4net.alerting.operation.comparator.ConstantComparatorOperation">
<polygon fill="#ff7f00" stroke="black" points="617.291,-244.87 498.291,-206.87 617.291,-168.87 736.291,-206.87 617.291,-244.87"/>
<text text-anchor="middle" x="617.291" y="-210.67" font-family="Times,serif" font-size="14.00" fill="white">Write b/w Maj</text>
<text text-anchor="middle" x="617.291" y="-195.67" font-family="Times,serif" font-size="14.00" fill="white">Comp</text>
</a>
</g>
</g>
<!-- Write b/w Case&#45;&gt;Write b/w Maj
Comp -->
<g id="${uniqueid}_edge4" class="edge"><title>Write b/w Case:e&#45;&gt;Write b/w Maj
Comp:w</title>
<path fill="none" stroke="black" d="M447.291,-206.87C465.694,-206.87 472.667,-206.87 487.141,-206.87"/>
<polygon fill="black" stroke="black" points="487.291,-210.37 497.291,-206.87 487.291,-203.37 487.291,-210.37"/>
</g>
<!-- Write b/w Minor
Comp -->
<g id="${uniqueid}_node10" class="node"><title>Write b/w Minor
Comp</title>
<g id="a_${uniqueid}_node10"><a xlink:href="#2613860761417608" xlink:title="com.watch4net.alerting.operation.comparator.ConstantComparatorOperation">
<polygon fill="#ff7f00" stroke="black" points="617.291,-106.87 483.291,-68.8701 617.291,-30.8701 751.291,-68.8701 617.291,-106.87"/>
<text text-anchor="middle" x="617.291" y="-72.6701" font-family="Times,serif" font-size="14.00" fill="white">Write b/w Minor</text>
<text text-anchor="middle" x="617.291" y="-57.6701" font-family="Times,serif" font-size="14.00" fill="white">Comp</text>
</a>
</g>
</g>
<!-- Write b/w Case&#45;&gt;Write b/w Minor
Comp -->
<g id="${uniqueid}_edge5" class="edge"><title>Write b/w Case:e&#45;&gt;Write b/w Minor
Comp:w</title>
<path fill="none" stroke="black" d="M447.291,-206.87C506.716,-206.87 430.65,-85.581 473.138,-70.4199"/>
<polygon fill="black" stroke="black" points="473.934,-73.839 483.291,-68.8701 472.878,-66.9191 473.934,-73.839"/>
</g>
<!-- Write b/w Crit
comp&#45;&gt;Write B/W_
Critical Trap -->
<g id="${uniqueid}_edge7" class="edge"><title>Write b/w Crit
comp:se&#45;&gt;Write B/W_
Critical Trap:w</title>
<path fill="none" stroke="black" d="M647.291,-314.87C697.422,-264.74 736.456,-310.17 804.41,-314.54"/>
<polygon fill="black" stroke="black" points="804.543,-318.046 814.65,-314.87 804.768,-311.049 804.543,-318.046"/>
<text text-anchor="middle" x="631.791" y="-303.67" font-family="Times,serif" font-size="14.00">true</text>
</g>
<!-- Write b/w Crit
comp&#45;&gt;Write B/W_
Critical_Clear -->
<g id="${uniqueid}_edge6" class="edge"><title>Write b/w Crit
comp:ne&#45;&gt;Write B/W_
Critical_Clear:w</title>
<path fill="none" stroke="black" d="M645.291,-372.87C648.137,-375.716 643.334,-379.14 646.291,-381.87 696.747,-428.449 732.794,-390.942 798.32,-387.169"/>
<polygon fill="black" stroke="black" points="798.756,-390.658 808.65,-386.87 798.553,-383.661 798.756,-390.658"/>
<text text-anchor="middle" x="628.291" y="-376.67" font-family="Times,serif" font-size="14.00">false</text>
</g>
<!-- Write b/w Maj
Comp&#45;&gt;Write B/W_Major
Trap -->
<g id="${uniqueid}_edge9" class="edge"><title>Write b/w Maj
Comp:se&#45;&gt;Write B/W_Major
Trap:w</title>
<path fill="none" stroke="black" d="M647.291,-177.87C690.228,-134.933 723.588,-166.919 781.37,-170.545"/>
<polygon fill="black" stroke="black" points="781.545,-174.053 791.65,-170.87 781.766,-167.056 781.545,-174.053"/>
<text text-anchor="middle" x="631.791" y="-166.67" font-family="Times,serif" font-size="14.00">true</text>
</g>
<!-- Write b/w Maj
Comp&#45;&gt;Write B/W_Major_
Clear -->
<g id="${uniqueid}_edge8" class="edge"><title>Write b/w Maj
Comp:ne&#45;&gt;Write B/W_Major_
Clear:w</title>
<path fill="none" stroke="black" d="M645.291,-235.87C648.137,-238.716 643.293,-242.186 646.291,-244.87 676.097,-271.547 696.299,-245.654 736.291,-244.87 755.073,-244.502 762.166,-243.372 776.933,-242.994"/>
<polygon fill="black" stroke="black" points="777.334,-246.49 787.291,-242.87 777.25,-239.49 777.334,-246.49"/>
<text text-anchor="middle" x="628.291" y="-239.67" font-family="Times,serif" font-size="14.00">false</text>
</g>
<!-- WriteB/W_Minor
Trap -->
<g id="${uniqueid}_node11" class="node"><title>WriteB/W_Minor
Trap</title>
<g id="a_${uniqueid}_node11"><a xlink:href="#2613860761484556" xlink:title="com.watch4net.alerting.action.SNMPTrapAction">
<ellipse fill="#4daf4a" stroke="black" cx="892.65" cy="-26.8701" rx="96.7474" ry="26.7407"/>
<text text-anchor="middle" x="892.65" y="-30.6701" font-family="Times,serif" font-size="14.00" fill="white">WriteB/W_Minor</text>
<text text-anchor="middle" x="892.65" y="-15.6701" font-family="Times,serif" font-size="14.00" fill="white">Trap</text>
</a>
</g>
</g>
<!-- Write b/w Minor
Comp&#45;&gt;WriteB/W_Minor
Trap -->
<g id="${uniqueid}_edge11" class="edge"><title>Write b/w Minor
Comp:se&#45;&gt;WriteB/W_Minor
Trap:w</title>
<path fill="none" stroke="black" d="M648.291,-38.8701C692.008,4.84674 725.667,-23.4916 784.572,-26.6019"/>
<polygon fill="black" stroke="black" points="784.561,-30.1028 794.65,-26.8701 784.747,-23.1053 784.561,-30.1028"/>
<text text-anchor="middle" x="632.791" y="-27.6701" font-family="Times,serif" font-size="14.00">true</text>
</g>
<!-- WriteB/W_Minor_
Clear -->
<g id="${uniqueid}_node12" class="node"><title>WriteB/W_Minor_
Clear</title>
<g id="a_${uniqueid}_node12"><a xlink:href="#1426753806790" xlink:title="com.watch4net.alerting.action.SNMPTrapAction">
<ellipse fill="#4daf4a" stroke="black" cx="892.65" cy="-98.8701" rx="102.561" ry="26.7407"/>
<text text-anchor="middle" x="892.65" y="-102.67" font-family="Times,serif" font-size="14.00" fill="white">WriteB/W_Minor_</text>
<text text-anchor="middle" x="892.65" y="-87.6701" font-family="Times,serif" font-size="14.00" fill="white">Clear</text>
</a>
</g>
</g>
<!-- Write b/w Minor
Comp&#45;&gt;WriteB/W_Minor_
Clear -->
<g id="${uniqueid}_edge10" class="edge"><title>Write b/w Minor
Comp:ne&#45;&gt;WriteB/W_Minor_
Clear:w</title>
<path fill="none" stroke="black" d="M646.291,-98.8701C648.825,-101.404 644.605,-104.499 647.291,-106.87 681.943,-137.46 705.326,-111.736 751.291,-106.87 764.22,-105.501 769.297,-101.539 778.588,-99.7569"/>
<polygon fill="black" stroke="black" points="778.996,-103.235 788.65,-98.8701 778.382,-96.2615 778.996,-103.235"/>
<text text-anchor="middle" x="629.291" y="-102.67" font-family="Times,serif" font-size="14.00">false</text>
</g>
</g>
</svg>
