<?xml version="1.0" encoding="UTF-8" standalone="no"?>
<!DOCTYPE svg PUBLIC "-//W3C//DTD SVG 1.1//EN"
 "http://www.w3.org/Graphics/SVG/1.1/DTD/svg11.dtd">
<!-- Generated by graphviz version 2.38.0 (20140413.2041)
 -->
<!-- Title: EMC VMAX Alert Definitions/VMAX&#45;Controller/High Read Throughput Pages: 1 -->
<svg width="949pt" height="429pt"
 viewBox="0.00 0.00 949.06 429.28" xmlns="http://www.w3.org/2000/svg" xmlns:xlink="http://www.w3.org/1999/xlink">
<g id="${uniqueid}" class="graph" transform="scale(1 1) rotate(0) translate(4 425.279)">
<title>EMC VMAX Alert Definitions/VMAX&#45;Controller/High Read Throughput</title>
<polygon fill="white" stroke="none" points="-4,4 -4,-425.279 945.065,-425.279 945.065,4 -4,4"/>
<!-- ControllerRead
IORate -->
<g id="${uniqueid}_node1" class="node"><title>ControllerRead
IORate</title>
<g id="a_${uniqueid}_node1"><a xlink:href="#2007258909573159" xlink:title="com.watch4net.alerting.operation.CaseOperation">
<polygon fill="#377eb8" stroke="black" points="351.783,-238.477 225.783,-238.477 225.783,-200.477 351.783,-200.477 351.783,-238.477"/>
<text text-anchor="middle" x="288.783" y="-223.277" font-family="Times,serif" font-size="14.00" fill="white">ControllerRead</text>
<text text-anchor="middle" x="288.783" y="-208.277" font-family="Times,serif" font-size="14.00" fill="white">IORate</text>
</a>
</g>
</g>
<!-- Controller_High
ReadIORate_Cirt -->
<g id="${uniqueid}_node2" class="node"><title>Controller_High
ReadIORate_Cirt</title>
<g id="a_${uniqueid}_node2"><a xlink:href="#2007258909583027" xlink:title="com.watch4net.alerting.operation.comparator.ConstantComparatorOperation">
<polygon fill="#ff7f00" stroke="black" points="541.783,-397.477 402.783,-359.477 541.783,-321.477 680.783,-359.477 541.783,-397.477"/>
<text text-anchor="middle" x="541.783" y="-363.277" font-family="Times,serif" font-size="14.00" fill="white">Controller_High</text>
<text text-anchor="middle" x="541.783" y="-348.277" font-family="Times,serif" font-size="14.00" fill="white">ReadIORate_Cirt</text>
</a>
</g>
</g>
<!-- ControllerRead
IORate&#45;&gt;Controller_High
ReadIORate_Cirt -->
<g id="${uniqueid}_edge1" class="edge"><title>ControllerRead
IORate:e&#45;&gt;Controller_High
ReadIORate_Cirt:w</title>
<path fill="none" stroke="black" d="M351.783,-219.477C413.983,-219.477 344.829,-343.551 391.636,-358.091"/>
<polygon fill="black" stroke="black" points="391.402,-361.591 401.783,-359.477 392.349,-354.656 391.402,-361.591"/>
</g>
<!-- Controller_High
ReadIORate_Major -->
<g id="${uniqueid}_node3" class="node"><title>Controller_High
ReadIORate_Major</title>
<g id="a_${uniqueid}_node3"><a xlink:href="#2007258909623757" xlink:title="com.watch4net.alerting.operation.comparator.ConstantComparatorOperation">
<polygon fill="#ff7f00" stroke="black" points="541.783,-257.477 388.783,-219.477 541.783,-181.477 694.783,-219.477 541.783,-257.477"/>
<text text-anchor="middle" x="541.783" y="-223.277" font-family="Times,serif" font-size="14.00" fill="white">Controller_High</text>
<text text-anchor="middle" x="541.783" y="-208.277" font-family="Times,serif" font-size="14.00" fill="white">ReadIORate_Major</text>
</a>
</g>
</g>
<!-- ControllerRead
IORate&#45;&gt;Controller_High
ReadIORate_Major -->
<g id="${uniqueid}_edge2" class="edge"><title>ControllerRead
IORate:e&#45;&gt;Controller_High
ReadIORate_Major:w</title>
<path fill="none" stroke="black" d="M351.783,-219.477C363.783,-219.477 369.033,-219.477 377.658,-219.477"/>
<polygon fill="black" stroke="black" points="377.783,-222.977 387.783,-219.477 377.783,-215.977 377.783,-222.977"/>
</g>
<!-- Controller_High
ReadIORate_Minor -->
<g id="${uniqueid}_node4" class="node"><title>Controller_High
ReadIORate_Minor</title>
<g id="a_${uniqueid}_node4"><a xlink:href="#2007258909655802" xlink:title="com.watch4net.alerting.operation.comparator.ConstantComparatorOperation">
<polygon fill="#ff7f00" stroke="black" points="541.783,-117.477 387.783,-79.4767 541.783,-41.4767 695.783,-79.4767 541.783,-117.477"/>
<text text-anchor="middle" x="541.783" y="-83.2767" font-family="Times,serif" font-size="14.00" fill="white">Controller_High</text>
<text text-anchor="middle" x="541.783" y="-68.2767" font-family="Times,serif" font-size="14.00" fill="white">ReadIORate_Minor</text>
</a>
</g>
</g>
<!-- ControllerRead
IORate&#45;&gt;Controller_High
ReadIORate_Minor -->
<g id="${uniqueid}_edge3" class="edge"><title>ControllerRead
IORate:e&#45;&gt;Controller_High
ReadIORate_Minor:w</title>
<path fill="none" stroke="black" d="M351.783,-219.477C412.14,-219.477 334.162,-95.9166 377.768,-80.9542"/>
<polygon fill="black" stroke="black" points="378.401,-84.3987 387.783,-79.4767 377.379,-77.4737 378.401,-84.3987"/>
</g>
<!-- Controller_High_
Read_IO_Rate_
Crit -->
<g id="${uniqueid}_node5" class="node"><title>Controller_High_
Read_IO_Rate_
Crit</title>
<g id="a_${uniqueid}_node5"><a xlink:href="#2007258909600841" xlink:title="com.watch4net.alerting.action.SNMPTrapAction">
<ellipse fill="#4daf4a" stroke="black" cx="836.424" cy="-329.477" rx="98.9899" ry="37.4533"/>
<text text-anchor="middle" x="836.424" y="-340.777" font-family="Times,serif" font-size="14.00" fill="white">Controller_High_</text>
<text text-anchor="middle" x="836.424" y="-325.777" font-family="Times,serif" font-size="14.00" fill="white">Read_IO_Rate_</text>
<text text-anchor="middle" x="836.424" y="-310.777" font-family="Times,serif" font-size="14.00" fill="white">Crit</text>
</a>
</g>
</g>
<!-- Controller_High
ReadIORate_Cirt&#45;&gt;Controller_High_
Read_IO_Rate_
Crit -->
<g id="${uniqueid}_edge5" class="edge"><title>Controller_High
ReadIORate_Cirt:se&#45;&gt;Controller_High_
Read_IO_Rate_
Crit:w</title>
<path fill="none" stroke="black" d="M572.783,-329.477C621.8,-280.46 659.967,-324.881 726.411,-329.154"/>
<polygon fill="black" stroke="black" points="726.316,-332.652 736.424,-329.477 726.542,-325.656 726.316,-332.652"/>
<text text-anchor="middle" x="557.283" y="-318.277" font-family="Times,serif" font-size="14.00">true</text>
</g>
<!-- SNMP_Clear_Crit -->
<g id="${uniqueid}_node9" class="node"><title>SNMP_Clear_Crit</title>
<g id="a_${uniqueid}_node9"><a xlink:href="#2007258909615081" xlink:title="com.watch4net.alerting.action.SNMPTrapAction">
<ellipse fill="#4daf4a" stroke="black" cx="836.424" cy="-402.477" rx="94.7833" ry="18"/>
<text text-anchor="middle" x="836.424" y="-398.777" font-family="Times,serif" font-size="14.00" fill="white">SNMP_Clear_Crit</text>
</a>
</g>
</g>
<!-- Controller_High
ReadIORate_Cirt&#45;&gt;SNMP_Clear_Crit -->
<g id="${uniqueid}_edge4" class="edge"><title>Controller_High
ReadIORate_Cirt:ne&#45;&gt;SNMP_Clear_Crit:w</title>
<path fill="none" stroke="black" d="M570.783,-389.477C573.317,-392.01 569.132,-395.066 571.783,-397.477 624.655,-445.564 661.822,-406.527 730.116,-402.762"/>
<polygon fill="black" stroke="black" points="730.524,-406.252 740.424,-402.477 730.331,-399.255 730.524,-406.252"/>
<text text-anchor="middle" x="553.783" y="-393.277" font-family="Times,serif" font-size="14.00">false</text>
</g>
<!-- Controller_High_
Read_IO_Rate_
Major -->
<g id="${uniqueid}_node6" class="node"><title>Controller_High_
Read_IO_Rate_
Major</title>
<g id="a_${uniqueid}_node6"><a xlink:href="#2007258909635270" xlink:title="com.watch4net.alerting.action.SNMPTrapAction">
<ellipse fill="#4daf4a" stroke="black" cx="836.424" cy="-183.477" rx="98.9899" ry="37.4533"/>
<text text-anchor="middle" x="836.424" y="-194.777" font-family="Times,serif" font-size="14.00" fill="white">Controller_High_</text>
<text text-anchor="middle" x="836.424" y="-179.777" font-family="Times,serif" font-size="14.00" fill="white">Read_IO_Rate_</text>
<text text-anchor="middle" x="836.424" y="-164.777" font-family="Times,serif" font-size="14.00" fill="white">Major</text>
</a>
</g>
</g>
<!-- Controller_High
ReadIORate_Major&#45;&gt;Controller_High_
Read_IO_Rate_
Major -->
<g id="${uniqueid}_edge7" class="edge"><title>Controller_High
ReadIORate_Major:se&#45;&gt;Controller_High_
Read_IO_Rate_
Major:w</title>
<path fill="none" stroke="black" d="M573.783,-188.477C622.423,-139.836 660.25,-179.203 726.062,-183.163"/>
<polygon fill="black" stroke="black" points="726.323,-186.673 736.424,-183.477 726.534,-179.676 726.323,-186.673"/>
<text text-anchor="middle" x="558.283" y="-177.277" font-family="Times,serif" font-size="14.00">true</text>
</g>
<!-- SNMP_Clear_Major -->
<g id="${uniqueid}_node10" class="node"><title>SNMP_Clear_Major</title>
<g id="a_${uniqueid}_node10"><a xlink:href="#2007258909645491" xlink:title="com.watch4net.alerting.action.SNMPTrapAction">
<ellipse fill="#4daf4a" stroke="black" cx="836.424" cy="-256.477" rx="103.982" ry="18"/>
<text text-anchor="middle" x="836.424" y="-252.777" font-family="Times,serif" font-size="14.00" fill="white">SNMP_Clear_Major</text>
</a>
</g>
</g>
<!-- Controller_High
ReadIORate_Major&#45;&gt;SNMP_Clear_Major -->
<g id="${uniqueid}_edge6" class="edge"><title>Controller_High
ReadIORate_Major:ne&#45;&gt;SNMP_Clear_Major:w</title>
<path fill="none" stroke="black" d="M571.783,-250.477C574.005,-252.699 570.409,-255.418 572.783,-257.477 613.746,-293.003 640.566,-258.209 694.783,-257.477 707.248,-257.308 712.622,-256.821 721.653,-256.595"/>
<polygon fill="black" stroke="black" points="721.825,-260.093 731.783,-256.477 721.743,-253.093 721.825,-260.093"/>
<text text-anchor="middle" x="554.783" y="-254.277" font-family="Times,serif" font-size="14.00">false</text>
</g>
<!-- Controller_High_
Read_IO_Rate_
Minor -->
<g id="${uniqueid}_node7" class="node"><title>Controller_High_
Read_IO_Rate_
Minor</title>
<g id="a_${uniqueid}_node7"><a xlink:href="#2007258909666436" xlink:title="com.watch4net.alerting.action.SNMPTrapAction">
<ellipse fill="#4daf4a" stroke="black" cx="836.424" cy="-37.4767" rx="98.9899" ry="37.4533"/>
<text text-anchor="middle" x="836.424" y="-48.7767" font-family="Times,serif" font-size="14.00" fill="white">Controller_High_</text>
<text text-anchor="middle" x="836.424" y="-33.7767" font-family="Times,serif" font-size="14.00" fill="white">Read_IO_Rate_</text>
<text text-anchor="middle" x="836.424" y="-18.7767" font-family="Times,serif" font-size="14.00" fill="white">Minor</text>
</a>
</g>
</g>
<!-- Controller_High
ReadIORate_Minor&#45;&gt;Controller_High_
Read_IO_Rate_
Minor -->
<g id="${uniqueid}_edge9" class="edge"><title>Controller_High
ReadIORate_Minor:se&#45;&gt;Controller_High_
Read_IO_Rate_
Minor:w</title>
<path fill="none" stroke="black" d="M573.783,-48.4767C622.512,0.251701 660.14,-33.766 726.045,-37.2042"/>
<polygon fill="black" stroke="black" points="726.335,-40.713 736.424,-37.4767 726.519,-33.7154 726.335,-40.713"/>
<text text-anchor="middle" x="558.283" y="-37.2767" font-family="Times,serif" font-size="14.00">true</text>
</g>
<!-- SNMP_Clear_Minor -->
<g id="${uniqueid}_node11" class="node"><title>SNMP_Clear_Minor</title>
<g id="a_${uniqueid}_node11"><a xlink:href="#2007258909677138" xlink:title="com.watch4net.alerting.action.SNMPTrapAction">
<ellipse fill="#4daf4a" stroke="black" cx="836.424" cy="-110.477" rx="104.782" ry="18"/>
<text text-anchor="middle" x="836.424" y="-106.777" font-family="Times,serif" font-size="14.00" fill="white">SNMP_Clear_Minor</text>
</a>
</g>
</g>
<!-- Controller_High
ReadIORate_Minor&#45;&gt;SNMP_Clear_Minor -->
<g id="${uniqueid}_edge8" class="edge"><title>Controller_High
ReadIORate_Minor:ne&#45;&gt;SNMP_Clear_Minor:w</title>
<path fill="none" stroke="black" d="M571.783,-110.477C574.005,-112.699 570.409,-115.418 572.783,-117.477 614.081,-153.294 641.368,-122.718 695.783,-117.477 707.952,-116.305 712.949,-112.953 721.563,-111.351"/>
<polygon fill="black" stroke="black" points="722.118,-114.816 731.783,-110.477 721.521,-107.842 722.118,-114.816"/>
<text text-anchor="middle" x="554.783" y="-114.277" font-family="Times,serif" font-size="14.00">false</text>
</g>
<!-- HighReadsIORate -->
<g id="${uniqueid}_node8" class="node"><title>HighReadsIORate</title>
<g id="a_${uniqueid}_node8"><a xlink:href="#2007258909528883" xlink:title="com.watch4net.alerting.operation.FilteredEntryPoint">
<ellipse fill="#984ea3" stroke="black" cx="94.8916" cy="-219.477" rx="94.7833" ry="18"/>
<text text-anchor="middle" x="94.8916" y="-215.777" font-family="Times,serif" font-size="14.00" fill="white">HighReadsIORate</text>
</a>
</g>
</g>
<!-- HighReadsIORate&#45;&gt;ControllerRead
IORate -->
<g id="${uniqueid}_edge10" class="edge"><title>HighReadsIORate:e&#45;&gt;ControllerRead
IORate:w</title>
<path fill="none" stroke="black" d="M189.783,-219.477C201.783,-219.477 207.033,-219.477 215.658,-219.477"/>
<polygon fill="black" stroke="black" points="215.783,-222.977 225.783,-219.477 215.783,-215.977 215.783,-222.977"/>
</g>
</g>
</svg>
