<?xml version="1.0" encoding="UTF-8" standalone="no"?>
<!DOCTYPE svg PUBLIC "-//W3C//DTD SVG 1.1//EN"
 "http://www.w3.org/Graphics/SVG/1.1/DTD/svg11.dtd">
<!-- Generated by graphviz version 2.38.0 (20140413.2041)
 -->
<!-- Title: EMC Centera Alert Definitions/Centera&#45;System/Read Bandwidth Pages: 1 -->
<svg width="774pt" height="442pt"
 viewBox="0.00 0.00 774.21 442.35" xmlns="http://www.w3.org/2000/svg" xmlns:xlink="http://www.w3.org/1999/xlink">
<g id="${uniqueid}" class="graph" transform="scale(1 1) rotate(0) translate(4 438.347)">
<title>EMC Centera Alert Definitions/Centera&#45;System/Read Bandwidth</title>
<polygon fill="white" stroke="none" points="-4,4 -4,-438.347 770.214,-438.347 770.214,4 -4,4"/>
<!-- Critical level -->
<g id="${uniqueid}_node1" class="node"><title>Critical level</title>
<g id="a_${uniqueid}_node1"><a xlink:href="#596553912479498" xlink:title="com.watch4net.alerting.operation.comparator.ConstantComparatorOperation">
<polygon fill="#ff7f00" stroke="black" points="432.036,-348.87 331.659,-330.87 432.036,-312.87 532.413,-330.87 432.036,-348.87"/>
<text text-anchor="middle" x="432.036" y="-327.17" font-family="Times,serif" font-size="14.00" fill="white">Critical level</text>
</a>
</g>
</g>
<!-- ReadBandwidth_
Critical_trap -->
<g id="${uniqueid}_node5" class="node"><title>ReadBandwidth_
Critical_trap</title>
<g id="a_${uniqueid}_node5"><a xlink:href="#1434008276858" xlink:title="com.watch4net.alerting.action.SNMPTrapAction">
<ellipse fill="#4daf4a" stroke="black" cx="667.219" cy="-314.87" rx="96.7474" ry="26.7407"/>
<text text-anchor="middle" x="667.219" y="-318.67" font-family="Times,serif" font-size="14.00" fill="white">ReadBandwidth_</text>
<text text-anchor="middle" x="667.219" y="-303.67" font-family="Times,serif" font-size="14.00" fill="white">Critical_trap</text>
</a>
</g>
</g>
<!-- Critical level&#45;&gt;ReadBandwidth_
Critical_trap -->
<g id="${uniqueid}_edge2" class="edge"><title>Critical level:se&#45;&gt;ReadBandwidth_
Critical_trap:w</title>
<path fill="none" stroke="black" d="M449.036,-314.87C484.371,-279.535 512.03,-310.315 559.186,-314.43"/>
<polygon fill="black" stroke="black" points="559.075,-317.928 569.219,-314.87 559.382,-310.935 559.075,-317.928"/>
<text text-anchor="middle" x="433.536" y="-303.67" font-family="Times,serif" font-size="14.00">true</text>
</g>
<!-- ReadBandwidth_
Critical_trap_
clear -->
<g id="${uniqueid}_node6" class="node"><title>ReadBandwidth_
Critical_trap_
clear</title>
<g id="a_${uniqueid}_node6"><a xlink:href="#1434008315472" xlink:title="com.watch4net.alerting.action.SNMPTrapAction">
<ellipse fill="#4daf4a" stroke="black" cx="667.219" cy="-396.87" rx="96.7474" ry="37.4533"/>
<text text-anchor="middle" x="667.219" y="-408.17" font-family="Times,serif" font-size="14.00" fill="white">ReadBandwidth_</text>
<text text-anchor="middle" x="667.219" y="-393.17" font-family="Times,serif" font-size="14.00" fill="white">Critical_trap_</text>
<text text-anchor="middle" x="667.219" y="-378.17" font-family="Times,serif" font-size="14.00" fill="white">clear</text>
</a>
</g>
</g>
<!-- Critical level&#45;&gt;ReadBandwidth_
Critical_trap_
clear -->
<g id="${uniqueid}_edge1" class="edge"><title>Critical level:ne&#45;&gt;ReadBandwidth_
Critical_trap_
clear:w</title>
<path fill="none" stroke="black" d="M447.036,-346.87C447.739,-347.573 447.303,-348.198 448.036,-348.87 488.147,-385.653 508.718,-395.688 559.094,-396.768"/>
<polygon fill="black" stroke="black" points="559.184,-400.269 569.219,-396.87 559.255,-393.269 559.184,-400.269"/>
<text text-anchor="middle" x="430.036" y="-350.67" font-family="Times,serif" font-size="14.00">false</text>
</g>
<!-- Major level -->
<g id="${uniqueid}_node2" class="node"><title>Major level</title>
<g id="a_${uniqueid}_node2"><a xlink:href="#596553912553333" xlink:title="com.watch4net.alerting.operation.comparator.ConstantComparatorOperation">
<polygon fill="#ff7f00" stroke="black" points="432.036,-224.87 341.881,-206.87 432.036,-188.87 522.191,-206.87 432.036,-224.87"/>
<text text-anchor="middle" x="432.036" y="-203.17" font-family="Times,serif" font-size="14.00" fill="white">Major level</text>
</a>
</g>
</g>
<!-- ReadBandwidth_
major_trap -->
<g id="${uniqueid}_node7" class="node"><title>ReadBandwidth_
major_trap</title>
<g id="a_${uniqueid}_node7"><a xlink:href="#1434008362752" xlink:title="com.watch4net.alerting.action.SNMPTrapAction">
<ellipse fill="#4daf4a" stroke="black" cx="667.219" cy="-170.87" rx="96.7474" ry="26.7407"/>
<text text-anchor="middle" x="667.219" y="-174.67" font-family="Times,serif" font-size="14.00" fill="white">ReadBandwidth_</text>
<text text-anchor="middle" x="667.219" y="-159.67" font-family="Times,serif" font-size="14.00" fill="white">major_trap</text>
</a>
</g>
</g>
<!-- Major level&#45;&gt;ReadBandwidth_
major_trap -->
<g id="${uniqueid}_edge4" class="edge"><title>Major level:se&#45;&gt;ReadBandwidth_
major_trap:w</title>
<path fill="none" stroke="black" d="M448.036,-191.87C484.196,-155.71 510.92,-168.829 558.973,-170.67"/>
<polygon fill="black" stroke="black" points="559.152,-174.174 569.219,-170.87 559.289,-167.175 559.152,-174.174"/>
<text text-anchor="middle" x="432.536" y="-180.67" font-family="Times,serif" font-size="14.00">true</text>
</g>
<!-- ReadBandwidth_
major_trap_clear -->
<g id="${uniqueid}_node8" class="node"><title>ReadBandwidth_
major_trap_clear</title>
<g id="a_${uniqueid}_node8"><a xlink:href="#1434008412500" xlink:title="com.watch4net.alerting.action.SNMPTrapAction">
<ellipse fill="#4daf4a" stroke="black" cx="667.219" cy="-242.87" rx="98.0761" ry="26.7407"/>
<text text-anchor="middle" x="667.219" y="-246.67" font-family="Times,serif" font-size="14.00" fill="white">ReadBandwidth_</text>
<text text-anchor="middle" x="667.219" y="-231.67" font-family="Times,serif" font-size="14.00" fill="white">major_trap_clear</text>
</a>
</g>
</g>
<!-- Major level&#45;&gt;ReadBandwidth_
major_trap_clear -->
<g id="${uniqueid}_edge3" class="edge"><title>Major level:ne&#45;&gt;ReadBandwidth_
major_trap_clear:w</title>
<path fill="none" stroke="black" d="M446.036,-221.87C447.03,-222.864 445.959,-223.967 447.036,-224.87 486.056,-257.62 510.476,-244.846 558.05,-243.064"/>
<polygon fill="black" stroke="black" points="558.292,-246.56 568.224,-242.87 558.159,-239.561 558.292,-246.56"/>
<text text-anchor="middle" x="429.036" y="-225.67" font-family="Times,serif" font-size="14.00">false</text>
</g>
<!-- Minor level -->
<g id="${uniqueid}_node3" class="node"><title>Minor level</title>
<g id="a_${uniqueid}_node3"><a xlink:href="#596553912579574" xlink:title="com.watch4net.alerting.operation.comparator.ConstantComparatorOperation">
<polygon fill="#ff7f00" stroke="black" points="432.036,-101.87 341.881,-83.8701 432.036,-65.8701 522.191,-83.8701 432.036,-101.87"/>
<text text-anchor="middle" x="432.036" y="-80.1701" font-family="Times,serif" font-size="14.00" fill="white">Minor level</text>
</a>
</g>
</g>
<!-- ReadBandwidth_
minor_trap -->
<g id="${uniqueid}_node9" class="node"><title>ReadBandwidth_
minor_trap</title>
<g id="a_${uniqueid}_node9"><a xlink:href="#1434008446434" xlink:title="com.watch4net.alerting.action.SNMPTrapAction">
<ellipse fill="#4daf4a" stroke="black" cx="667.219" cy="-26.8701" rx="96.7474" ry="26.7407"/>
<text text-anchor="middle" x="667.219" y="-30.6701" font-family="Times,serif" font-size="14.00" fill="white">ReadBandwidth_</text>
<text text-anchor="middle" x="667.219" y="-15.6701" font-family="Times,serif" font-size="14.00" fill="white">minor_trap</text>
</a>
</g>
</g>
<!-- Minor level&#45;&gt;ReadBandwidth_
minor_trap -->
<g id="${uniqueid}_edge6" class="edge"><title>Minor level:se&#45;&gt;ReadBandwidth_
minor_trap:w</title>
<path fill="none" stroke="black" d="M448.036,-68.8701C485.902,-31.0038 509.266,-27.2167 559.218,-26.8969"/>
<polygon fill="black" stroke="black" points="559.228,-30.397 569.219,-26.8701 559.21,-23.397 559.228,-30.397"/>
<text text-anchor="middle" x="432.536" y="-57.6701" font-family="Times,serif" font-size="14.00">true</text>
</g>
<!-- ReadBandwidth_
minor_trap_clear -->
<g id="${uniqueid}_node10" class="node"><title>ReadBandwidth_
minor_trap_clear</title>
<g id="a_${uniqueid}_node10"><a xlink:href="#1434008475788" xlink:title="com.watch4net.alerting.action.SNMPTrapAction">
<ellipse fill="#4daf4a" stroke="black" cx="667.219" cy="-98.8701" rx="98.9899" ry="26.7407"/>
<text text-anchor="middle" x="667.219" y="-102.67" font-family="Times,serif" font-size="14.00" fill="white">ReadBandwidth_</text>
<text text-anchor="middle" x="667.219" y="-87.6701" font-family="Times,serif" font-size="14.00" fill="white">minor_trap_clear</text>
</a>
</g>
</g>
<!-- Minor level&#45;&gt;ReadBandwidth_
minor_trap_clear -->
<g id="${uniqueid}_edge5" class="edge"><title>Minor level:ne&#45;&gt;ReadBandwidth_
minor_trap_clear:w</title>
<path fill="none" stroke="black" d="M446.036,-98.8701C447.03,-99.8639 445.896,-101.048 447.036,-101.87 474.105,-121.381 488.763,-102.954 522.113,-101.87 538.791,-101.328 545.25,-99.6864 558.102,-99.0898"/>
<polygon fill="black" stroke="black" points="558.302,-102.586 568.224,-98.8701 558.15,-95.588 558.302,-102.586"/>
<text text-anchor="middle" x="429.036" y="-102.67" font-family="Times,serif" font-size="14.00">false</text>
</g>
<!-- ReadBandwidth
entry -->
<g id="${uniqueid}_node4" class="node"><title>ReadBandwidth
entry</title>
<g id="a_${uniqueid}_node4"><a xlink:href="#596553912431519" xlink:title="com.watch4net.alerting.operation.FilteredEntryPoint">
<ellipse fill="#984ea3" stroke="black" cx="91.9239" cy="-206.87" rx="91.8478" ry="26.7407"/>
<text text-anchor="middle" x="91.9239" y="-210.67" font-family="Times,serif" font-size="14.00" fill="white">ReadBandwidth</text>
<text text-anchor="middle" x="91.9239" y="-195.67" font-family="Times,serif" font-size="14.00" fill="white">entry</text>
</a>
</g>
</g>
<!-- Severity
splitter -->
<g id="${uniqueid}_node11" class="node"><title>Severity
splitter</title>
<g id="a_${uniqueid}_node11"><a xlink:href="#596553912472930" xlink:title="com.watch4net.alerting.operation.CaseOperation">
<polygon fill="#377eb8" stroke="black" points="295.848,-225.87 219.848,-225.87 219.848,-187.87 295.848,-187.87 295.848,-225.87"/>
<text text-anchor="middle" x="257.848" y="-210.67" font-family="Times,serif" font-size="14.00" fill="white">Severity</text>
<text text-anchor="middle" x="257.848" y="-195.67" font-family="Times,serif" font-size="14.00" fill="white">splitter</text>
</a>
</g>
</g>
<!-- ReadBandwidth
entry&#45;&gt;Severity
splitter -->
<g id="${uniqueid}_edge7" class="edge"><title>ReadBandwidth
entry:e&#45;&gt;Severity
splitter:w</title>
<path fill="none" stroke="black" d="M183.848,-206.87C195.848,-206.87 201.098,-206.87 209.723,-206.87"/>
<polygon fill="black" stroke="black" points="209.848,-210.37 219.848,-206.87 209.848,-203.37 209.848,-210.37"/>
</g>
<!-- Severity
splitter&#45;&gt;Critical level -->
<g id="${uniqueid}_edge8" class="edge"><title>Severity
splitter:e&#45;&gt;Critical level:w</title>
<path fill="none" stroke="black" d="M295.848,-206.87C349.199,-206.87 284.865,-314.046 321.668,-329.117"/>
<polygon fill="black" stroke="black" points="321.399,-332.622 331.848,-330.87 322.587,-325.724 321.399,-332.622"/>
</g>
<!-- Severity
splitter&#45;&gt;Major level -->
<g id="${uniqueid}_edge9" class="edge"><title>Severity
splitter:e&#45;&gt;Major level:w</title>
<path fill="none" stroke="black" d="M295.848,-206.87C312.009,-206.87 318.416,-206.87 330.767,-206.87"/>
<polygon fill="black" stroke="black" points="331.036,-210.37 341.036,-206.87 331.036,-203.37 331.036,-210.37"/>
</g>
<!-- Severity
splitter&#45;&gt;Minor level -->
<g id="${uniqueid}_edge10" class="edge"><title>Severity
splitter:e&#45;&gt;Minor level:w</title>
<path fill="none" stroke="black" d="M295.848,-206.87C350.219,-206.87 291.694,-99.6636 331.071,-85.4252"/>
<polygon fill="black" stroke="black" points="331.695,-88.8703 341.036,-83.8701 330.616,-81.954 331.695,-88.8703"/>
</g>
</g>
</svg>
