<?xml version="1.0" encoding="UTF-8" standalone="no"?>
<!DOCTYPE svg PUBLIC "-//W3C//DTD SVG 1.1//EN"
 "http://www.w3.org/Graphics/SVG/1.1/DTD/svg11.dtd">
<!-- Generated by graphviz version 2.38.0 (20140413.2041)
 -->
<!-- Title: EMC Isilon Alert Definitions/Isilon BatteryFailure Pages: 1 -->
<svg width="655pt" height="84pt"
 viewBox="0.00 0.00 655.12 84.00" xmlns="http://www.w3.org/2000/svg" xmlns:xlink="http://www.w3.org/1999/xlink">
<g id="${uniqueid}" class="graph" transform="scale(1 1) rotate(0) translate(4 80)">
<title>EMC Isilon Alert Definitions/Isilon BatteryFailure</title>
<polygon fill="white" stroke="none" points="-4,4 -4,-80 651.12,-80 651.12,4 -4,4"/>
<!-- BatteryFailure -->
<g id="${uniqueid}_node1" class="node"><title>BatteryFailure</title>
<g id="a_${uniqueid}_node1"><a xlink:href="#1729763412966890" xlink:title="com.watch4net.alerting.operation.FilteredEntryPoint">
<ellipse fill="#984ea3" stroke="black" cx="79.293" cy="-38" rx="79.0865" ry="18"/>
<text text-anchor="middle" x="79.293" y="-34.3" font-family="Times,serif" font-size="14.00" fill="white">BatteryFailure</text>
</a>
</g>
</g>
<!-- BlockDuplicate
Alerts -->
<g id="${uniqueid}_node3" class="node"><title>BlockDuplicate
Alerts</title>
<g id="a_${uniqueid}_node3"><a xlink:href="#1435172984788" xlink:title="com.watch4net.alerting.operation.comparator.StringComparatorOperation">
<polygon fill="#ff7f00" stroke="black" points="316.586,-76 194.586,-38 316.586,-7.10543e-15 438.586,-38 316.586,-76"/>
<text text-anchor="middle" x="316.586" y="-41.8" font-family="Times,serif" font-size="14.00" fill="white">BlockDuplicate</text>
<text text-anchor="middle" x="316.586" y="-26.8" font-family="Times,serif" font-size="14.00" fill="white">Alerts</text>
</a>
</g>
</g>
<!-- BatteryFailure&#45;&gt;BlockDuplicate
Alerts -->
<g id="${uniqueid}_edge1" class="edge"><title>BatteryFailure:e&#45;&gt;BlockDuplicate
Alerts:w</title>
<path fill="none" stroke="black" d="M158.586,-38C170.586,-38 175.836,-38 184.461,-38"/>
<polygon fill="black" stroke="black" points="184.586,-41.5001 194.586,-38 184.586,-34.5001 184.586,-41.5001"/>
</g>
<!-- BatteryFailure
Set -->
<g id="${uniqueid}_node2" class="node"><title>BatteryFailure
Set</title>
<g id="a_${uniqueid}_node2"><a xlink:href="#1729763413015152" xlink:title="com.watch4net.alerting.action.SNMPTrapAction">
<ellipse fill="#4daf4a" stroke="black" cx="560.853" cy="-38" rx="86.0347" ry="26.7407"/>
<text text-anchor="middle" x="560.853" y="-41.8" font-family="Times,serif" font-size="14.00" fill="white">BatteryFailure</text>
<text text-anchor="middle" x="560.853" y="-26.8" font-family="Times,serif" font-size="14.00" fill="white">Set</text>
</a>
</g>
</g>
<!-- BlockDuplicate
Alerts&#45;&gt;BatteryFailure
Set -->
<g id="${uniqueid}_edge2" class="edge"><title>BlockDuplicate
Alerts:e&#45;&gt;BatteryFailure
Set:w</title>
<path fill="none" stroke="black" d="M438.586,-38C450.586,-38 455.836,-38 464.461,-38"/>
<polygon fill="black" stroke="black" points="464.586,-41.5001 474.586,-38 464.586,-34.5001 464.586,-41.5001"/>
<text text-anchor="middle" x="454.086" y="-26.8" font-family="Times,serif" font-size="14.00">true</text>
</g>
</g>
</svg>
