<?xml version="1.0" encoding="UTF-8" standalone="no"?>
<!DOCTYPE svg PUBLIC "-//W3C//DTD SVG 1.1//EN"
 "http://www.w3.org/Graphics/SVG/1.1/DTD/svg11.dtd">
<!-- Generated by graphviz version 2.38.0 (20140413.2041)
 -->
<!-- Title: HP 3PAR Alert Definitions/3PAR&#45;Devices/High Read IO Rate Pages: 1 -->
<svg width="954pt" height="422pt"
 viewBox="0.00 0.00 953.62 421.74" xmlns="http://www.w3.org/2000/svg" xmlns:xlink="http://www.w3.org/1999/xlink">
<g id="${uniqueid}" class="graph" transform="scale(1 1) rotate(0) translate(4 417.74)">
<title>HP 3PAR Alert Definitions/3PAR&#45;Devices/High Read IO Rate</title>
<polygon fill="white" stroke="none" points="-4,4 -4,-417.74 949.617,-417.74 949.617,4 -4,4"/>
<!-- Case generator -->
<g id="${uniqueid}_node1" class="node"><title>Case generator</title>
<g id="a_${uniqueid}_node1"><a xlink:href="#1416858893155" xlink:title="com.watch4net.alerting.operation.CaseOperation">
<polygon fill="#377eb8" stroke="black" points="369.475,-224.87 242.475,-224.87 242.475,-188.87 369.475,-188.87 369.475,-224.87"/>
<text text-anchor="middle" x="305.975" y="-203.17" font-family="Times,serif" font-size="14.00" fill="white">Case generator</text>
</a>
</g>
</g>
<!-- ReadRequest_
Major -->
<g id="${uniqueid}_node3" class="node"><title>ReadRequest_
Major</title>
<g id="a_${uniqueid}_node3"><a xlink:href="#1416859099745" xlink:title="com.watch4net.alerting.operation.comparator.ConstantComparatorOperation">
<polygon fill="#ff7f00" stroke="black" points="547.945,-381.87 428.945,-343.87 547.945,-305.87 666.945,-343.87 547.945,-381.87"/>
<text text-anchor="middle" x="547.945" y="-347.67" font-family="Times,serif" font-size="14.00" fill="white">ReadRequest_</text>
<text text-anchor="middle" x="547.945" y="-332.67" font-family="Times,serif" font-size="14.00" fill="white">Major</text>
</a>
</g>
</g>
<!-- Case generator&#45;&gt;ReadRequest_
Major -->
<g id="${uniqueid}_edge1" class="edge"><title>Case generator:e&#45;&gt;ReadRequest_
Major:w</title>
<path fill="none" stroke="black" d="M369.475,-206.87C431.928,-206.87 369.668,-328.79 417.993,-342.601"/>
<polygon fill="black" stroke="black" points="417.582,-346.077 427.945,-343.87 418.468,-339.133 417.582,-346.077"/>
</g>
<!-- ReadRequest_
Minor -->
<g id="${uniqueid}_node6" class="node"><title>ReadRequest_
Minor</title>
<g id="a_${uniqueid}_node6"><a xlink:href="#1416859188656" xlink:title="com.watch4net.alerting.operation.comparator.ConstantComparatorOperation">
<polygon fill="#ff7f00" stroke="black" points="547.945,-244.87 428.945,-206.87 547.945,-168.87 666.945,-206.87 547.945,-244.87"/>
<text text-anchor="middle" x="547.945" y="-210.67" font-family="Times,serif" font-size="14.00" fill="white">ReadRequest_</text>
<text text-anchor="middle" x="547.945" y="-195.67" font-family="Times,serif" font-size="14.00" fill="white">Minor</text>
</a>
</g>
</g>
<!-- Case generator&#45;&gt;ReadRequest_
Minor -->
<g id="${uniqueid}_edge2" class="edge"><title>Case generator:e&#45;&gt;ReadRequest_
Minor:w</title>
<path fill="none" stroke="black" d="M369.475,-206.87C391.604,-206.87 399.6,-206.87 417.533,-206.87"/>
<polygon fill="black" stroke="black" points="417.945,-210.37 427.945,-206.87 417.945,-203.37 417.945,-210.37"/>
</g>
<!-- ReadRequest_CRIT -->
<g id="${uniqueid}_node9" class="node"><title>ReadRequest_CRIT</title>
<g id="a_${uniqueid}_node9"><a xlink:href="#1416858952044" xlink:title="com.watch4net.alerting.operation.comparator.ConstantComparatorOperation">
<polygon fill="#ff7f00" stroke="black" points="547.945,-100.87 405.506,-82.8701 547.945,-64.8701 690.383,-82.8701 547.945,-100.87"/>
<text text-anchor="middle" x="547.945" y="-79.1701" font-family="Times,serif" font-size="14.00" fill="white">ReadRequest_CRIT</text>
</a>
</g>
</g>
<!-- Case generator&#45;&gt;ReadRequest_CRIT -->
<g id="${uniqueid}_edge3" class="edge"><title>Case generator:e&#45;&gt;ReadRequest_CRIT:w</title>
<path fill="none" stroke="black" d="M369.475,-206.87C422.827,-206.87 358.493,-99.6945 395.295,-84.623"/>
<polygon fill="black" stroke="black" points="396.214,-88.0163 405.475,-82.8701 395.026,-81.1178 396.214,-88.0163"/>
</g>
<!-- HighReadRequest
Entry -->
<g id="${uniqueid}_node2" class="node"><title>HighReadRequest
Entry</title>
<g id="a_${uniqueid}_node2"><a xlink:href="#1416858842792" xlink:title="com.watch4net.alerting.operation.FilteredEntryPoint">
<ellipse fill="#984ea3" stroke="black" cx="103.238" cy="-206.87" rx="103.476" ry="26.7407"/>
<text text-anchor="middle" x="103.238" y="-210.67" font-family="Times,serif" font-size="14.00" fill="white">HighReadRequest</text>
<text text-anchor="middle" x="103.238" y="-195.67" font-family="Times,serif" font-size="14.00" fill="white">Entry</text>
</a>
</g>
</g>
<!-- HighReadRequest
Entry&#45;&gt;Case generator -->
<g id="${uniqueid}_edge4" class="edge"><title>HighReadRequest
Entry:e&#45;&gt;Case generator:w</title>
<path fill="none" stroke="black" d="M206.475,-206.87C218.475,-206.87 223.725,-206.87 232.35,-206.87"/>
<polygon fill="black" stroke="black" points="232.475,-210.37 242.475,-206.87 232.475,-203.37 232.475,-210.37"/>
</g>
<!-- ReadRequest_
Major clear trap -->
<g id="${uniqueid}_node4" class="node"><title>ReadRequest_
Major clear trap</title>
<g id="a_${uniqueid}_node4"><a xlink:href="#1416859153609" xlink:title="com.watch4net.alerting.action.SNMPTrapAction">
<ellipse fill="#4daf4a" stroke="black" cx="836.015" cy="-386.87" rx="94.5053" ry="26.7407"/>
<text text-anchor="middle" x="836.015" y="-390.67" font-family="Times,serif" font-size="14.00" fill="white">ReadRequest_</text>
<text text-anchor="middle" x="836.015" y="-375.67" font-family="Times,serif" font-size="14.00" fill="white">Major clear trap</text>
</a>
</g>
</g>
<!-- ReadRequest_
Major&#45;&gt;ReadRequest_
Major clear trap -->
<g id="${uniqueid}_edge5" class="edge"><title>ReadRequest_
Major:ne&#45;&gt;ReadRequest_
Major clear trap:w</title>
<path fill="none" stroke="black" d="M575.945,-372.87C578.79,-375.716 573.987,-379.14 576.945,-381.87 627.625,-428.649 663.827,-390.962 729.64,-387.17"/>
<polygon fill="black" stroke="black" points="730.121,-390.658 740.015,-386.87 729.918,-383.661 730.121,-390.658"/>
<text text-anchor="middle" x="558.945" y="-376.67" font-family="Times,serif" font-size="14.00">false</text>
</g>
<!-- ReadRequest_
Major trap -->
<g id="${uniqueid}_node5" class="node"><title>ReadRequest_
Major trap</title>
<g id="a_${uniqueid}_node5"><a xlink:href="#1416859122086" xlink:title="com.watch4net.alerting.action.SNMPTrapAction">
<ellipse fill="#4daf4a" stroke="black" cx="836.015" cy="-314.87" rx="84.2917" ry="26.7407"/>
<text text-anchor="middle" x="836.015" y="-318.67" font-family="Times,serif" font-size="14.00" fill="white">ReadRequest_</text>
<text text-anchor="middle" x="836.015" y="-303.67" font-family="Times,serif" font-size="14.00" fill="white">Major trap</text>
</a>
</g>
</g>
<!-- ReadRequest_
Major&#45;&gt;ReadRequest_
Major trap -->
<g id="${uniqueid}_edge6" class="edge"><title>ReadRequest_
Major:se&#45;&gt;ReadRequest_
Major trap:w</title>
<path fill="none" stroke="black" d="M577.945,-314.87C629.892,-262.922 670.318,-310.203 740.858,-314.556"/>
<polygon fill="black" stroke="black" points="740.912,-318.059 751.015,-314.87 741.129,-311.062 740.912,-318.059"/>
<text text-anchor="middle" x="562.445" y="-303.67" font-family="Times,serif" font-size="14.00">true</text>
</g>
<!-- ReadRequest_
Minor clear trap -->
<g id="${uniqueid}_node7" class="node"><title>ReadRequest_
Minor clear trap</title>
<g id="a_${uniqueid}_node7"><a xlink:href="#1416859233240" xlink:title="com.watch4net.alerting.action.SNMPTrapAction">
<ellipse fill="#4daf4a" stroke="black" cx="836.015" cy="-242.87" rx="95.4188" ry="26.7407"/>
<text text-anchor="middle" x="836.015" y="-246.67" font-family="Times,serif" font-size="14.00" fill="white">ReadRequest_</text>
<text text-anchor="middle" x="836.015" y="-231.67" font-family="Times,serif" font-size="14.00" fill="white">Minor clear trap</text>
</a>
</g>
</g>
<!-- ReadRequest_
Minor&#45;&gt;ReadRequest_
Minor clear trap -->
<g id="${uniqueid}_edge7" class="edge"><title>ReadRequest_
Minor:ne&#45;&gt;ReadRequest_
Minor clear trap:w</title>
<path fill="none" stroke="black" d="M575.945,-235.87C578.79,-238.716 573.946,-242.186 576.945,-244.87 628,-290.567 663.387,-247.523 728.712,-243.211"/>
<polygon fill="black" stroke="black" points="729.137,-246.699 739.015,-242.87 728.905,-239.703 729.137,-246.699"/>
<text text-anchor="middle" x="558.945" y="-239.67" font-family="Times,serif" font-size="14.00">false</text>
</g>
<!-- ReadRequest_
Minor trap -->
<g id="${uniqueid}_node8" class="node"><title>ReadRequest_
Minor trap</title>
<g id="a_${uniqueid}_node8"><a xlink:href="#1416859208711" xlink:title="com.watch4net.alerting.action.SNMPTrapAction">
<ellipse fill="#4daf4a" stroke="black" cx="836.015" cy="-170.87" rx="84.2917" ry="26.7407"/>
<text text-anchor="middle" x="836.015" y="-174.67" font-family="Times,serif" font-size="14.00" fill="white">ReadRequest_</text>
<text text-anchor="middle" x="836.015" y="-159.67" font-family="Times,serif" font-size="14.00" fill="white">Minor trap</text>
</a>
</g>
</g>
<!-- ReadRequest_
Minor&#45;&gt;ReadRequest_
Minor trap -->
<g id="${uniqueid}_edge8" class="edge"><title>ReadRequest_
Minor:se&#45;&gt;ReadRequest_
Minor trap:w</title>
<path fill="none" stroke="black" d="M577.945,-177.87C629.935,-125.88 670.264,-166.814 740.85,-170.596"/>
<polygon fill="black" stroke="black" points="740.925,-174.1 751.015,-170.87 741.113,-167.102 740.925,-174.1"/>
<text text-anchor="middle" x="562.445" y="-166.67" font-family="Times,serif" font-size="14.00">true</text>
</g>
<!-- ReadRequest_CRIT
clear trap -->
<g id="${uniqueid}_node10" class="node"><title>ReadRequest_CRIT
clear trap</title>
<g id="a_${uniqueid}_node10"><a xlink:href="#1416859052044" xlink:title="com.watch4net.alerting.action.SNMPTrapAction">
<ellipse fill="#4daf4a" stroke="black" cx="836.015" cy="-98.8701" rx="109.703" ry="26.7407"/>
<text text-anchor="middle" x="836.015" y="-102.67" font-family="Times,serif" font-size="14.00" fill="white">ReadRequest_CRIT</text>
<text text-anchor="middle" x="836.015" y="-87.6701" font-family="Times,serif" font-size="14.00" fill="white">clear trap</text>
</a>
</g>
</g>
<!-- ReadRequest_CRIT&#45;&gt;ReadRequest_CRIT
clear trap -->
<g id="${uniqueid}_edge9" class="edge"><title>ReadRequest_CRIT:ne&#45;&gt;ReadRequest_CRIT
clear trap:w</title>
<path fill="none" stroke="black" d="M562.945,-98.8701C563.647,-99.5728 563.099,-100.348 563.945,-100.87 611.758,-130.421 634.227,-102.43 690.414,-100.87 702.428,-100.537 707.657,-99.5783 716.281,-99.12"/>
<polygon fill="black" stroke="black" points="716.503,-102.616 726.414,-98.8701 716.331,-95.6178 716.503,-102.616"/>
<text text-anchor="middle" x="545.945" y="-102.67" font-family="Times,serif" font-size="14.00">false</text>
</g>
<!-- ReadRequest_CRIT
trap -->
<g id="${uniqueid}_node11" class="node"><title>ReadRequest_CRIT
trap</title>
<g id="a_${uniqueid}_node11"><a xlink:href="#1416859036748" xlink:title="com.watch4net.alerting.action.SNMPTrapAction">
<ellipse fill="#4daf4a" stroke="black" cx="836.015" cy="-26.8701" rx="109.703" ry="26.7407"/>
<text text-anchor="middle" x="836.015" y="-30.6701" font-family="Times,serif" font-size="14.00" fill="white">ReadRequest_CRIT</text>
<text text-anchor="middle" x="836.015" y="-15.6701" font-family="Times,serif" font-size="14.00" fill="white">trap</text>
</a>
</g>
</g>
<!-- ReadRequest_CRIT&#45;&gt;ReadRequest_CRIT
trap -->
<g id="${uniqueid}_edge10" class="edge"><title>ReadRequest_CRIT:se&#45;&gt;ReadRequest_CRIT
trap:w</title>
<path fill="none" stroke="black" d="M564.945,-66.8701C614.773,-17.0418 649.138,-25.8608 716.266,-26.797"/>
<polygon fill="black" stroke="black" points="716.389,-30.2979 726.414,-26.8701 716.439,-23.2981 716.389,-30.2979"/>
<text text-anchor="middle" x="549.445" y="-55.6701" font-family="Times,serif" font-size="14.00">true</text>
</g>
</g>
</svg>
