<?xml version="1.0" encoding="UTF-8" standalone="no"?>
<!DOCTYPE svg PUBLIC "-//W3C//DTD SVG 1.1//EN"
 "http://www.w3.org/Graphics/SVG/1.1/DTD/svg11.dtd">
<!-- Generated by graphviz version 2.38.0 (20140413.2041)
 -->
<!-- Title: File System Utilization Pages: 1 -->
<svg width="629pt" height="98pt"
 viewBox="0.00 0.00 629.17 98.00" xmlns="http://www.w3.org/2000/svg" xmlns:xlink="http://www.w3.org/1999/xlink">
<g id="${uniqueid}" class="graph" transform="scale(1 1) rotate(0) translate(4 94)">
<title>File System Utilization</title>
<polygon fill="white" stroke="none" points="-4,4 -4,-94 625.169,-94 625.169,4 -4,4"/>
<!-- FileSystem Check -->
<g id="${uniqueid}_node1" class="node"><title>FileSystem Check</title>
<g id="a_${uniqueid}_node1"><a xlink:href="#17329661918984" xlink:title="com.watch4net.alerting.operation.comparator.ConstantComparatorOperation">
<polygon fill="#ff7f00" stroke="black" points="350.881,-63 216.487,-45 350.881,-27 485.275,-45 350.881,-63"/>
<text text-anchor="middle" x="350.881" y="-41.3" font-family="Times,serif" font-size="14.00" fill="white">FileSystem Check</text>
</a>
</g>
</g>
<!-- Log File -->
<g id="${uniqueid}_node3" class="node"><title>Log File</title>
<g id="a_${uniqueid}_node3"><a xlink:href="#17329661926984" xlink:title="com.watch4net.alerting.action.LogAction">
<ellipse fill="#4daf4a" stroke="black" cx="571.123" cy="-72" rx="48.9926" ry="18"/>
<text text-anchor="middle" x="571.123" y="-68.3" font-family="Times,serif" font-size="14.00" fill="white">Log File</text>
</a>
</g>
</g>
<!-- FileSystem Check&#45;&gt;Log File -->
<g id="${uniqueid}_edge1" class="edge"><title>FileSystem Check:e&#45;&gt;Log File:w</title>
<path fill="none" stroke="black" d="M485.078,-45C501.028,-45 501.737,-62.1453 511.495,-69.1105"/>
<polygon fill="black" stroke="black" points="510.539,-72.478 521.123,-72 512.551,-65.7733 510.539,-72.478"/>
<text text-anchor="middle" x="500.578" y="-33.8" font-family="Times,serif" font-size="14.00">true</text>
</g>
<!-- Mail Me -->
<g id="${uniqueid}_node4" class="node"><title>Mail Me</title>
<g id="a_${uniqueid}_node4"><a xlink:href="#1261085534979" xlink:title="com.watch4net.alerting.action.MailAction">
<ellipse fill="#4daf4a" stroke="black" cx="571.123" cy="-18" rx="50.0912" ry="18"/>
<text text-anchor="middle" x="571.123" y="-14.3" font-family="Times,serif" font-size="14.00" fill="white">Mail Me</text>
</a>
</g>
</g>
<!-- FileSystem Check&#45;&gt;Mail Me -->
<g id="${uniqueid}_edge2" class="edge"><title>FileSystem Check:e&#45;&gt;Mail Me:w</title>
<path fill="none" stroke="black" d="M485.078,-45C501.015,-45 501.713,-27.8547 511.459,-20.8895"/>
<polygon fill="black" stroke="black" points="512.508,-24.229 521.078,-18 510.494,-17.5249 512.508,-24.229"/>
</g>
<!-- FileSystem entry -->
<g id="${uniqueid}_node2" class="node"><title>FileSystem entry</title>
<g id="a_${uniqueid}_node2"><a xlink:href="#17329661906984" xlink:title="com.watch4net.alerting.operation.FilteredEntryPoint">
<ellipse fill="#984ea3" stroke="black" cx="90.342" cy="-45" rx="90.1842" ry="18"/>
<text text-anchor="middle" x="90.342" y="-41.3" font-family="Times,serif" font-size="14.00" fill="white">FileSystem entry</text>
</a>
</g>
</g>
<!-- FileSystem entry&#45;&gt;FileSystem Check -->
<g id="${uniqueid}_edge3" class="edge"><title>FileSystem entry:e&#45;&gt;FileSystem Check:w</title>
<path fill="none" stroke="black" d="M180.684,-45C192.684,-45 197.934,-45 206.559,-45"/>
<polygon fill="black" stroke="black" points="206.684,-48.5001 216.684,-45 206.684,-41.5001 206.684,-48.5001"/>
</g>
</g>
</svg>
