<?xml version="1.0" encoding="UTF-8" standalone="no"?>
<!DOCTYPE svg PUBLIC "-//W3C//DTD SVG 1.1//EN"
 "http://www.w3.org/Graphics/SVG/1.1/DTD/svg11.dtd">
<!-- Generated by graphviz version 2.38.0 (20140413.2041)
 -->
<!-- Title: EMC VNX Alert Definitions/VNXBlock&#45;StorageProcessor/Storage Processor Cache Dirty Pages Pages: 1 -->
<svg width="741pt" height="403pt"
 viewBox="0.00 0.00 740.54 403.48" xmlns="http://www.w3.org/2000/svg" xmlns:xlink="http://www.w3.org/1999/xlink">
<g id="${uniqueid}" class="graph" transform="scale(1 1) rotate(0) translate(4 399.477)">
<title>EMC VNX Alert Definitions/VNXBlock&#45;StorageProcessor/Storage Processor Cache Dirty Pages</title>
<polygon fill="white" stroke="none" points="-4,4 -4,-399.477 736.541,-399.477 736.541,4 -4,4"/>
<!-- Dirty Pages
CRITICAL -->
<g id="${uniqueid}_node1" class="node"><title>Dirty Pages
CRITICAL</title>
<g id="a_${uniqueid}_node1"><a xlink:href="#1416944294657" xlink:title="com.watch4net.alerting.operation.comparator.ConstantComparatorOperation">
<polygon fill="#ff7f00" stroke="black" points="410.007,-376 311.007,-338 410.007,-300 509.007,-338 410.007,-376"/>
<text text-anchor="middle" x="410.007" y="-341.8" font-family="Times,serif" font-size="14.00" fill="white">Dirty Pages</text>
<text text-anchor="middle" x="410.007" y="-326.8" font-family="Times,serif" font-size="14.00" fill="white">CRITICAL</text>
</a>
</g>
</g>
<!-- Dirty Pages
CRITICAL alert
trap -->
<g id="${uniqueid}_node2" class="node"><title>Dirty Pages
CRITICAL alert
trap</title>
<g id="a_${uniqueid}_node2"><a xlink:href="#799868495046142" xlink:title="com.watch4net.alerting.action.SNMPTrapAction">
<ellipse fill="#4daf4a" stroke="black" cx="646.274" cy="-358" rx="86.0347" ry="37.4533"/>
<text text-anchor="middle" x="646.274" y="-369.3" font-family="Times,serif" font-size="14.00" fill="white">Dirty Pages</text>
<text text-anchor="middle" x="646.274" y="-354.3" font-family="Times,serif" font-size="14.00" fill="white">CRITICAL alert</text>
<text text-anchor="middle" x="646.274" y="-339.3" font-family="Times,serif" font-size="14.00" fill="white">trap</text>
</a>
</g>
</g>
<!-- Dirty Pages
CRITICAL&#45;&gt;Dirty Pages
CRITICAL alert
trap -->
<g id="${uniqueid}_edge1" class="edge"><title>Dirty Pages
CRITICAL:e&#45;&gt;Dirty Pages
CRITICAL alert
trap:w</title>
<path fill="none" stroke="black" d="M510.007,-338C530.015,-338 534.787,-351.976 549.795,-356.562"/>
<polygon fill="black" stroke="black" points="549.617,-360.071 560.007,-358 550.593,-353.139 549.617,-360.071"/>
<text text-anchor="middle" x="525.507" y="-326.8" font-family="Times,serif" font-size="14.00">true</text>
</g>
<!-- Dirty Pages
Clear Alert -->
<g id="${uniqueid}_node3" class="node"><title>Dirty Pages
Clear Alert</title>
<g id="a_${uniqueid}_node3"><a xlink:href="#1416328295070" xlink:title="com.watch4net.alerting.action.SNMPTrapAction">
<ellipse fill="#4daf4a" stroke="black" cx="646.274" cy="-276" rx="70.0071" ry="26.7407"/>
<text text-anchor="middle" x="646.274" y="-279.8" font-family="Times,serif" font-size="14.00" fill="white">Dirty Pages</text>
<text text-anchor="middle" x="646.274" y="-264.8" font-family="Times,serif" font-size="14.00" fill="white">Clear Alert</text>
</a>
</g>
</g>
<!-- Dirty Pages
INFORMATIONAL -->
<g id="${uniqueid}_node4" class="node"><title>Dirty Pages
INFORMATIONAL</title>
<g id="a_${uniqueid}_node4"><a xlink:href="#1416944370873" xlink:title="com.watch4net.alerting.operation.comparator.ConstantComparatorOperation">
<polygon fill="#ff7f00" stroke="black" points="410.007,-264 296.007,-226 410.007,-188 524.007,-226 410.007,-264"/>
<text text-anchor="middle" x="410.007" y="-229.8" font-family="Times,serif" font-size="14.00" fill="white">Dirty Pages</text>
<text text-anchor="middle" x="410.007" y="-214.8" font-family="Times,serif" font-size="14.00" fill="white">INFORMATIONAL</text>
</a>
</g>
</g>
<!-- Dirty Pages
INFORMATIONAL&#45;&gt;Dirty Pages
Clear Alert -->
<g id="${uniqueid}_edge2" class="edge"><title>Dirty Pages
INFORMATIONAL:ne&#45;&gt;Dirty Pages
Clear Alert:w</title>
<path fill="none" stroke="black" d="M438.007,-255C440.853,-257.846 436.129,-261.187 439.007,-264 480.023,-304.09 510.816,-279.221 565.213,-276.275"/>
<polygon fill="black" stroke="black" points="565.373,-279.772 575.274,-276 565.182,-272.774 565.373,-279.772"/>
<text text-anchor="middle" x="419.007" y="-258.8" font-family="Times,serif" font-size="14.00">false</text>
</g>
<!-- Dirty Pages
INFORMATIONAL
Alert -->
<g id="${uniqueid}_node5" class="node"><title>Dirty Pages
INFORMATIONAL
Alert</title>
<g id="a_${uniqueid}_node5"><a xlink:href="#1416328109199" xlink:title="com.watch4net.alerting.action.SNMPTrapAction">
<ellipse fill="#4daf4a" stroke="black" cx="646.274" cy="-194" rx="80.7205" ry="37.4533"/>
<text text-anchor="middle" x="646.274" y="-205.3" font-family="Times,serif" font-size="14.00" fill="white">Dirty Pages</text>
<text text-anchor="middle" x="646.274" y="-190.3" font-family="Times,serif" font-size="14.00" fill="white">INFORMATIONAL</text>
<text text-anchor="middle" x="646.274" y="-175.3" font-family="Times,serif" font-size="14.00" fill="white">Alert</text>
</a>
</g>
</g>
<!-- Dirty Pages
INFORMATIONAL&#45;&gt;Dirty Pages
INFORMATIONAL
Alert -->
<g id="${uniqueid}_edge3" class="edge"><title>Dirty Pages
INFORMATIONAL:se&#45;&gt;Dirty Pages
INFORMATIONAL
Alert:w</title>
<path fill="none" stroke="black" d="M440.007,-197C457.479,-179.528 521.026,-190.914 554.008,-193.51"/>
<polygon fill="black" stroke="black" points="554.119,-197.019 564.274,-194 554.452,-190.027 554.119,-197.019"/>
<text text-anchor="middle" x="424.507" y="-185.8" font-family="Times,serif" font-size="14.00">true</text>
</g>
<!-- Dirty Pages
MAJOR -->
<g id="${uniqueid}_node6" class="node"><title>Dirty Pages
MAJOR</title>
<g id="a_${uniqueid}_node6"><a xlink:href="#1416944321790" xlink:title="com.watch4net.alerting.operation.comparator.ConstantComparatorOperation">
<polygon fill="#ff7f00" stroke="black" points="410.007,-170 311.007,-132 410.007,-94 509.007,-132 410.007,-170"/>
<text text-anchor="middle" x="410.007" y="-135.8" font-family="Times,serif" font-size="14.00" fill="white">Dirty Pages</text>
<text text-anchor="middle" x="410.007" y="-120.8" font-family="Times,serif" font-size="14.00" fill="white">MAJOR</text>
</a>
</g>
</g>
<!-- Dirty Pages
MAJOR Alert -->
<g id="${uniqueid}_node7" class="node"><title>Dirty Pages
MAJOR Alert</title>
<g id="a_${uniqueid}_node7"><a xlink:href="#1416327989897" xlink:title="com.watch4net.alerting.action.SNMPTrapAction">
<ellipse fill="#4daf4a" stroke="black" cx="646.274" cy="-112" rx="70.0071" ry="26.7407"/>
<text text-anchor="middle" x="646.274" y="-115.8" font-family="Times,serif" font-size="14.00" fill="white">Dirty Pages</text>
<text text-anchor="middle" x="646.274" y="-100.8" font-family="Times,serif" font-size="14.00" fill="white">MAJOR Alert</text>
</a>
</g>
</g>
<!-- Dirty Pages
MAJOR&#45;&gt;Dirty Pages
MAJOR Alert -->
<g id="${uniqueid}_edge4" class="edge"><title>Dirty Pages
MAJOR:e&#45;&gt;Dirty Pages
MAJOR Alert:w</title>
<path fill="none" stroke="black" d="M510.007,-132C536.672,-132 543.446,-116.55 565.294,-112.809"/>
<polygon fill="black" stroke="black" points="565.59,-116.296 575.274,-112 565.024,-109.319 565.59,-116.296"/>
<text text-anchor="middle" x="525.507" y="-120.8" font-family="Times,serif" font-size="14.00">true</text>
</g>
<!-- Dirty Pages
MINOR -->
<g id="${uniqueid}_node8" class="node"><title>Dirty Pages
MINOR</title>
<g id="a_${uniqueid}_node8"><a xlink:href="#1416944348666" xlink:title="com.watch4net.alerting.operation.comparator.ConstantComparatorOperation">
<polygon fill="#ff7f00" stroke="black" points="410.007,-76 311.007,-38 410.007,-7.10543e-15 509.007,-38 410.007,-76"/>
<text text-anchor="middle" x="410.007" y="-41.8" font-family="Times,serif" font-size="14.00" fill="white">Dirty Pages</text>
<text text-anchor="middle" x="410.007" y="-26.8" font-family="Times,serif" font-size="14.00" fill="white">MINOR</text>
</a>
</g>
</g>
<!-- Dirty Pages
MINOR Alert -->
<g id="${uniqueid}_node9" class="node"><title>Dirty Pages
MINOR Alert</title>
<g id="a_${uniqueid}_node9"><a xlink:href="#1416328034797" xlink:title="com.watch4net.alerting.action.SNMPTrapAction">
<ellipse fill="#4daf4a" stroke="black" cx="646.274" cy="-38" rx="70.0071" ry="26.7407"/>
<text text-anchor="middle" x="646.274" y="-41.8" font-family="Times,serif" font-size="14.00" fill="white">Dirty Pages</text>
<text text-anchor="middle" x="646.274" y="-26.8" font-family="Times,serif" font-size="14.00" fill="white">MINOR Alert</text>
</a>
</g>
</g>
<!-- Dirty Pages
MINOR&#45;&gt;Dirty Pages
MINOR Alert -->
<g id="${uniqueid}_edge5" class="edge"><title>Dirty Pages
MINOR:e&#45;&gt;Dirty Pages
MINOR Alert:w</title>
<path fill="none" stroke="black" d="M510.007,-38C535.275,-38 544.035,-38 565.048,-38"/>
<polygon fill="black" stroke="black" points="565.274,-41.5001 575.274,-38 565.274,-34.5001 565.274,-41.5001"/>
<text text-anchor="middle" x="525.507" y="-26.8" font-family="Times,serif" font-size="14.00">true</text>
</g>
<!-- Dirty pages
Entry -->
<g id="${uniqueid}_node10" class="node"><title>Dirty pages
Entry</title>
<g id="a_${uniqueid}_node10"><a xlink:href="#799868494989360" xlink:title="com.watch4net.alerting.operation.FilteredEntryPoint">
<ellipse fill="#984ea3" stroke="black" cx="70.0036" cy="-179" rx="70.0071" ry="26.7407"/>
<text text-anchor="middle" x="70.0036" y="-182.8" font-family="Times,serif" font-size="14.00" fill="white">Dirty pages</text>
<text text-anchor="middle" x="70.0036" y="-167.8" font-family="Times,serif" font-size="14.00" fill="white">Entry</text>
</a>
</g>
</g>
<!-- DirtyPage -->
<g id="${uniqueid}_node11" class="node"><title>DirtyPage</title>
<g id="a_${uniqueid}_node11"><a xlink:href="#1416943783051" xlink:title="com.watch4net.alerting.operation.CaseOperation">
<polygon fill="#377eb8" stroke="black" points="260.007,-197 176.007,-197 176.007,-161 260.007,-161 260.007,-197"/>
<text text-anchor="middle" x="218.007" y="-175.3" font-family="Times,serif" font-size="14.00" fill="white">DirtyPage</text>
</a>
</g>
</g>
<!-- Dirty pages
Entry&#45;&gt;DirtyPage -->
<g id="${uniqueid}_edge6" class="edge"><title>Dirty pages
Entry:e&#45;&gt;DirtyPage:w</title>
<path fill="none" stroke="black" d="M140.007,-179C152.007,-179 157.257,-179 165.882,-179"/>
<polygon fill="black" stroke="black" points="166.007,-182.5 176.007,-179 166.007,-175.5 166.007,-182.5"/>
</g>
<!-- DirtyPage&#45;&gt;Dirty Pages
CRITICAL -->
<g id="${uniqueid}_edge7" class="edge"><title>DirtyPage:e&#45;&gt;Dirty Pages
CRITICAL:w</title>
<path fill="none" stroke="black" d="M260.007,-179C330.324,-179 245.454,-322.262 300.009,-336.812"/>
<polygon fill="black" stroke="black" points="299.664,-340.295 310.007,-338 300.49,-333.344 299.664,-340.295"/>
</g>
<!-- DirtyPage&#45;&gt;Dirty Pages
INFORMATIONAL -->
<g id="${uniqueid}_edge8" class="edge"><title>DirtyPage:e&#45;&gt;Dirty Pages
INFORMATIONAL:w</title>
<path fill="none" stroke="black" d="M260.007,-179C282.208,-179 273.842,-212.46 286.49,-222.916"/>
<polygon fill="black" stroke="black" points="285.415,-226.247 296.007,-226 287.573,-219.588 285.415,-226.247"/>
</g>
<!-- DirtyPage&#45;&gt;Dirty Pages
MAJOR -->
<g id="${uniqueid}_edge9" class="edge"><title>DirtyPage:e&#45;&gt;Dirty Pages
MAJOR:w</title>
<path fill="none" stroke="black" d="M260.007,-179C286.455,-179 281.698,-143.655 299.857,-134.267"/>
<polygon fill="black" stroke="black" points="301.01,-137.596 310.007,-132 299.485,-130.764 301.01,-137.596"/>
</g>
<!-- DirtyPage&#45;&gt;Dirty Pages
MINOR -->
<g id="${uniqueid}_edge10" class="edge"><title>DirtyPage:e&#45;&gt;Dirty Pages
MINOR:w</title>
<path fill="none" stroke="black" d="M260.007,-179C322.601,-179 252.728,-54.0394 299.799,-39.3955"/>
<polygon fill="black" stroke="black" points="300.573,-42.8223 310.007,-38 299.625,-35.8868 300.573,-42.8223"/>
</g>
</g>
</svg>
