<?xml version="1.0" encoding="UTF-8" standalone="no"?>
<!DOCTYPE svg PUBLIC "-//W3C//DTD SVG 1.1//EN"
 "http://www.w3.org/Graphics/SVG/1.1/DTD/svg11.dtd">
<!-- Generated by graphviz version 2.38.0 (20140413.2041)
 -->
<!-- Title: IBMDS5k Alert Definitions/IBMDS5k&#45;Port/Read Requests Pages: 1 -->
<svg width="983pt" height="422pt"
 viewBox="0.00 0.00 983.21 421.74" xmlns="http://www.w3.org/2000/svg" xmlns:xlink="http://www.w3.org/1999/xlink">
<g id="${uniqueid}" class="graph" transform="scale(1 1) rotate(0) translate(4 417.74)">
<title>IBMDS5k Alert Definitions/IBMDS5k&#45;Port/Read Requests</title>
<polygon fill="white" stroke="none" points="-4,4 -4,-417.74 979.21,-417.74 979.21,4 -4,4"/>
<!-- Port read req
entry -->
<g id="${uniqueid}_node1" class="node"><title>Port read req
entry</title>
<g id="a_${uniqueid}_node1"><a xlink:href="#2613841436220983" xlink:title="com.watch4net.alerting.operation.FilteredEntryPoint">
<ellipse fill="#984ea3" stroke="black" cx="79.196" cy="-206.87" rx="79.3924" ry="26.7407"/>
<text text-anchor="middle" x="79.196" y="-210.67" font-family="Times,serif" font-size="14.00" fill="white">Port read req</text>
<text text-anchor="middle" x="79.196" y="-195.67" font-family="Times,serif" font-size="14.00" fill="white">entry</text>
</a>
</g>
</g>
<!-- Roundoff -->
<g id="${uniqueid}_node12" class="node"><title>Roundoff</title>
<g id="a_${uniqueid}_node12"><a xlink:href="#1441797877196" xlink:title="com.watch4net.alerting.operation.math.ConstantMathOperation">
<polygon fill="#377eb8" stroke="black" points="275.392,-224.87 194.392,-224.87 194.392,-188.87 275.392,-188.87 275.392,-224.87"/>
<text text-anchor="middle" x="234.892" y="-203.17" font-family="Times,serif" font-size="14.00" fill="white">Roundoff</text>
</a>
</g>
</g>
<!-- Port read req
entry&#45;&gt;Roundoff -->
<g id="${uniqueid}_edge1" class="edge"><title>Port read req
entry:e&#45;&gt;Roundoff:w</title>
<path fill="none" stroke="black" d="M158.392,-206.87C170.392,-206.87 175.642,-206.87 184.267,-206.87"/>
<polygon fill="black" stroke="black" points="184.392,-210.37 194.392,-206.87 184.392,-203.37 184.392,-210.37"/>
</g>
<!-- Read Req Case -->
<g id="${uniqueid}_node2" class="node"><title>Read Req Case</title>
<g id="a_${uniqueid}_node2"><a xlink:href="#2613841436265572" xlink:title="com.watch4net.alerting.operation.CaseOperation">
<polygon fill="#377eb8" stroke="black" points="436.392,-224.87 311.392,-224.87 311.392,-188.87 436.392,-188.87 436.392,-224.87"/>
<text text-anchor="middle" x="373.892" y="-203.17" font-family="Times,serif" font-size="14.00" fill="white">Read Req Case</text>
</a>
</g>
</g>
<!-- Read Req Maj
Comp -->
<g id="${uniqueid}_node3" class="node"><title>Read Req Maj
Comp</title>
<g id="a_${uniqueid}_node3"><a xlink:href="#2613841436308975" xlink:title="com.watch4net.alerting.operation.comparator.ConstantComparatorOperation">
<polygon fill="#ff7f00" stroke="black" points="605.392,-381.87 488.392,-343.87 605.392,-305.87 722.392,-343.87 605.392,-381.87"/>
<text text-anchor="middle" x="605.392" y="-347.67" font-family="Times,serif" font-size="14.00" fill="white">Read Req Maj</text>
<text text-anchor="middle" x="605.392" y="-332.67" font-family="Times,serif" font-size="14.00" fill="white">Comp</text>
</a>
</g>
</g>
<!-- Read Req Case&#45;&gt;Read Req Maj
Comp -->
<g id="${uniqueid}_edge2" class="edge"><title>Read Req Case:e&#45;&gt;Read Req Maj
Comp:w</title>
<path fill="none" stroke="black" d="M436.392,-206.87C497.556,-206.87 431.178,-328.286 477.396,-342.514"/>
<polygon fill="black" stroke="black" points="477.012,-345.994 487.392,-343.87 477.953,-339.058 477.012,-345.994"/>
</g>
<!-- Read Req Minor
Comp -->
<g id="${uniqueid}_node4" class="node"><title>Read Req Minor
Comp</title>
<g id="a_${uniqueid}_node4"><a xlink:href="#2613841436358546" xlink:title="com.watch4net.alerting.operation.comparator.ConstantComparatorOperation">
<polygon fill="#ff7f00" stroke="black" points="605.392,-244.87 472.392,-206.87 605.392,-168.87 738.392,-206.87 605.392,-244.87"/>
<text text-anchor="middle" x="605.392" y="-210.67" font-family="Times,serif" font-size="14.00" fill="white">Read Req Minor</text>
<text text-anchor="middle" x="605.392" y="-195.67" font-family="Times,serif" font-size="14.00" fill="white">Comp</text>
</a>
</g>
</g>
<!-- Read Req Case&#45;&gt;Read Req Minor
Comp -->
<g id="${uniqueid}_edge3" class="edge"><title>Read Req Case:e&#45;&gt;Read Req Minor
Comp:w</title>
<path fill="none" stroke="black" d="M436.392,-206.87C448.392,-206.87 453.642,-206.87 462.267,-206.87"/>
<polygon fill="black" stroke="black" points="462.392,-210.37 472.392,-206.87 462.392,-203.37 462.392,-210.37"/>
</g>
<!-- ReadReq Crit
comp -->
<g id="${uniqueid}_node5" class="node"><title>ReadReq Crit
comp</title>
<g id="a_${uniqueid}_node5"><a xlink:href="#2613841436273520" xlink:title="com.watch4net.alerting.operation.comparator.ConstantComparatorOperation">
<polygon fill="#ff7f00" stroke="black" points="605.392,-107.87 492.392,-69.8701 605.392,-31.8701 718.392,-69.8701 605.392,-107.87"/>
<text text-anchor="middle" x="605.392" y="-73.6701" font-family="Times,serif" font-size="14.00" fill="white">ReadReq Crit</text>
<text text-anchor="middle" x="605.392" y="-58.6701" font-family="Times,serif" font-size="14.00" fill="white">comp</text>
</a>
</g>
</g>
<!-- Read Req Case&#45;&gt;ReadReq Crit
comp -->
<g id="${uniqueid}_edge4" class="edge"><title>Read Req Case:e&#45;&gt;ReadReq Crit
comp:w</title>
<path fill="none" stroke="black" d="M436.392,-206.87C498.16,-206.87 434.225,-85.4544 481.262,-71.226"/>
<polygon fill="black" stroke="black" points="481.945,-74.666 491.392,-69.8701 481.016,-67.7278 481.945,-74.666"/>
</g>
<!-- ReadReq_Major
Trap -->
<g id="${uniqueid}_node8" class="node"><title>ReadReq_Major
Trap</title>
<g id="a_${uniqueid}_node8"><a xlink:href="#2613841436343354" xlink:title="com.watch4net.alerting.action.SNMPTrapAction">
<ellipse fill="#4daf4a" stroke="black" cx="874.801" cy="-314.87" rx="92.7622" ry="26.7407"/>
<text text-anchor="middle" x="874.801" y="-318.67" font-family="Times,serif" font-size="14.00" fill="white">ReadReq_Major</text>
<text text-anchor="middle" x="874.801" y="-303.67" font-family="Times,serif" font-size="14.00" fill="white">Trap</text>
</a>
</g>
</g>
<!-- Read Req Maj
Comp&#45;&gt;ReadReq_Major
Trap -->
<g id="${uniqueid}_edge6" class="edge"><title>Read Req Maj
Comp:se&#45;&gt;ReadReq_Major
Trap:w</title>
<path fill="none" stroke="black" d="M635.392,-314.87C678.591,-271.671 712.306,-310.145 770.457,-314.482"/>
<polygon fill="black" stroke="black" points="770.677,-317.993 780.801,-314.87 770.939,-310.998 770.677,-317.993"/>
<text text-anchor="middle" x="619.892" y="-303.67" font-family="Times,serif" font-size="14.00">true</text>
</g>
<!-- ReadReq_Major_
Clear -->
<g id="${uniqueid}_node9" class="node"><title>ReadReq_Major_
Clear</title>
<g id="a_${uniqueid}_node9"><a xlink:href="#1426753357455" xlink:title="com.watch4net.alerting.action.SNMPTrapAction">
<ellipse fill="#4daf4a" stroke="black" cx="874.801" cy="-386.87" rx="97.6615" ry="26.7407"/>
<text text-anchor="middle" x="874.801" y="-390.67" font-family="Times,serif" font-size="14.00" fill="white">ReadReq_Major_</text>
<text text-anchor="middle" x="874.801" y="-375.67" font-family="Times,serif" font-size="14.00" fill="white">Clear</text>
</a>
</g>
</g>
<!-- Read Req Maj
Comp&#45;&gt;ReadReq_Major_
Clear -->
<g id="${uniqueid}_edge5" class="edge"><title>Read Req Maj
Comp:ne&#45;&gt;ReadReq_Major_
Clear:w</title>
<path fill="none" stroke="black" d="M633.392,-372.87C636.238,-375.716 631.441,-379.133 634.392,-381.87 677.981,-422.294 709.327,-390.76 765.75,-387.19"/>
<polygon fill="black" stroke="black" points="765.917,-390.686 775.801,-386.87 765.695,-383.69 765.917,-390.686"/>
<text text-anchor="middle" x="616.392" y="-376.67" font-family="Times,serif" font-size="14.00">false</text>
</g>
<!-- ReadReq_Minor
Trap -->
<g id="${uniqueid}_node10" class="node"><title>ReadReq_Minor
Trap</title>
<g id="a_${uniqueid}_node10"><a xlink:href="#2613841436369539" xlink:title="com.watch4net.alerting.action.SNMPTrapAction">
<ellipse fill="#4daf4a" stroke="black" cx="874.801" cy="-170.87" rx="92.7622" ry="26.7407"/>
<text text-anchor="middle" x="874.801" y="-174.67" font-family="Times,serif" font-size="14.00" fill="white">ReadReq_Minor</text>
<text text-anchor="middle" x="874.801" y="-159.67" font-family="Times,serif" font-size="14.00" fill="white">Trap</text>
</a>
</g>
</g>
<!-- Read Req Minor
Comp&#45;&gt;ReadReq_Minor
Trap -->
<g id="${uniqueid}_edge8" class="edge"><title>Read Req Minor
Comp:se&#45;&gt;ReadReq_Minor
Trap:w</title>
<path fill="none" stroke="black" d="M636.392,-176.87C679.33,-133.932 712.731,-166.812 770.52,-170.537"/>
<polygon fill="black" stroke="black" points="770.693,-174.044 780.801,-170.87 770.92,-167.048 770.693,-174.044"/>
<text text-anchor="middle" x="620.892" y="-165.67" font-family="Times,serif" font-size="14.00">true</text>
</g>
<!-- ReadReq_Minor_
Clear -->
<g id="${uniqueid}_node11" class="node"><title>ReadReq_Minor_
Clear</title>
<g id="a_${uniqueid}_node11"><a xlink:href="#1426753407837" xlink:title="com.watch4net.alerting.action.SNMPTrapAction">
<ellipse fill="#4daf4a" stroke="black" cx="874.801" cy="-242.87" rx="98.0761" ry="26.7407"/>
<text text-anchor="middle" x="874.801" y="-246.67" font-family="Times,serif" font-size="14.00" fill="white">ReadReq_Minor_</text>
<text text-anchor="middle" x="874.801" y="-231.67" font-family="Times,serif" font-size="14.00" fill="white">Clear</text>
</a>
</g>
</g>
<!-- Read Req Minor
Comp&#45;&gt;ReadReq_Minor_
Clear -->
<g id="${uniqueid}_edge7" class="edge"><title>Read Req Minor
Comp:ne&#45;&gt;ReadReq_Minor_
Clear:w</title>
<path fill="none" stroke="black" d="M634.392,-236.87C636.926,-239.404 632.706,-242.499 635.392,-244.87 669.711,-275.166 692.63,-246.092 738.392,-244.87 751.005,-244.533 756.423,-243.558 765.553,-243.106"/>
<polygon fill="black" stroke="black" points="765.884,-246.599 775.801,-242.87 765.723,-239.601 765.884,-246.599"/>
<text text-anchor="middle" x="617.392" y="-240.67" font-family="Times,serif" font-size="14.00">false</text>
</g>
<!-- ReadReq_
Critical_Clear -->
<g id="${uniqueid}_node6" class="node"><title>ReadReq_
Critical_Clear</title>
<g id="a_${uniqueid}_node6"><a xlink:href="#1426753309884" xlink:title="com.watch4net.alerting.action.SNMPTrapAction">
<ellipse fill="#4daf4a" stroke="black" cx="874.801" cy="-98.8701" rx="82.9636" ry="26.7407"/>
<text text-anchor="middle" x="874.801" y="-102.67" font-family="Times,serif" font-size="14.00" fill="white">ReadReq_</text>
<text text-anchor="middle" x="874.801" y="-87.6701" font-family="Times,serif" font-size="14.00" fill="white">Critical_Clear</text>
</a>
</g>
</g>
<!-- ReadReq Crit
comp&#45;&gt;ReadReq_
Critical_Clear -->
<g id="${uniqueid}_edge9" class="edge"><title>ReadReq Crit
comp:ne&#45;&gt;ReadReq_
Critical_Clear:w</title>
<path fill="none" stroke="black" d="M633.392,-98.8701C636.238,-101.716 631.393,-105.186 634.392,-107.87 683.641,-151.95 717.583,-104.238 780.455,-99.2783"/>
<polygon fill="black" stroke="black" points="780.947,-102.762 790.801,-98.8701 780.671,-95.7672 780.947,-102.762"/>
<text text-anchor="middle" x="616.392" y="-102.67" font-family="Times,serif" font-size="14.00">false</text>
</g>
<!-- ReadReq_Critical
Trap -->
<g id="${uniqueid}_node7" class="node"><title>ReadReq_Critical
Trap</title>
<g id="a_${uniqueid}_node7"><a xlink:href="#2613841436288667" xlink:title="com.watch4net.alerting.action.SNMPTrapAction">
<ellipse fill="#4daf4a" stroke="black" cx="874.801" cy="-26.8701" rx="100.318" ry="26.7407"/>
<text text-anchor="middle" x="874.801" y="-30.6701" font-family="Times,serif" font-size="14.00" fill="white">ReadReq_Critical</text>
<text text-anchor="middle" x="874.801" y="-15.6701" font-family="Times,serif" font-size="14.00" fill="white">Trap</text>
</a>
</g>
</g>
<!-- ReadReq Crit
comp&#45;&gt;ReadReq_Critical
Trap -->
<g id="${uniqueid}_edge10" class="edge"><title>ReadReq Crit
comp:se&#45;&gt;ReadReq_Critical
Trap:w</title>
<path fill="none" stroke="black" d="M635.392,-40.8701C676.81,0.547662 708.528,-23.7192 764.114,-26.6011"/>
<polygon fill="black" stroke="black" points="764.304,-30.1072 774.392,-26.8701 764.487,-23.1096 764.304,-30.1072"/>
<text text-anchor="middle" x="619.892" y="-29.6701" font-family="Times,serif" font-size="14.00">true</text>
</g>
<!-- Roundoff&#45;&gt;Read Req Case -->
<g id="${uniqueid}_edge11" class="edge"><title>Roundoff:e&#45;&gt;Read Req Case:w</title>
<path fill="none" stroke="black" d="M275.392,-206.87C287.392,-206.87 292.642,-206.87 301.267,-206.87"/>
<polygon fill="black" stroke="black" points="301.392,-210.37 311.392,-206.87 301.392,-203.37 301.392,-210.37"/>
</g>
</g>
</svg>
