<?xml version="1.0" encoding="UTF-8" standalone="no"?>
<!DOCTYPE svg PUBLIC "-//W3C//DTD SVG 1.1//EN"
 "http://www.w3.org/Graphics/SVG/1.1/DTD/svg11.dtd">
<!-- Generated by graphviz version 2.38.0 (20140413.2041)
 -->
<!-- Title: IBM&#45;XIV Alert Definitions/XIV&#45;Devices/Write Requests Pages: 1 -->
<svg width="890pt" height="422pt"
 viewBox="0.00 0.00 889.94 421.74" xmlns="http://www.w3.org/2000/svg" xmlns:xlink="http://www.w3.org/1999/xlink">
<g id="${uniqueid}" class="graph" transform="scale(1 1) rotate(0) translate(4 417.74)">
<title>IBM&#45;XIV Alert Definitions/XIV&#45;Devices/Write Requests</title>
<polygon fill="white" stroke="none" points="-4,4 -4,-417.74 885.938,-417.74 885.938,4 -4,4"/>
<!-- LUN write req
entry -->
<g id="${uniqueid}_node1" class="node"><title>LUN write req
entry</title>
<g id="a_${uniqueid}_node1"><a xlink:href="#15119907693923" xlink:title="com.watch4net.alerting.operation.FilteredEntryPoint">
<ellipse fill="#984ea3" stroke="black" cx="84.8528" cy="-206.87" rx="84.7059" ry="26.7407"/>
<text text-anchor="middle" x="84.8528" y="-210.67" font-family="Times,serif" font-size="14.00" fill="white">LUN write req</text>
<text text-anchor="middle" x="84.8528" y="-195.67" font-family="Times,serif" font-size="14.00" fill="white">entry</text>
</a>
</g>
</g>
<!-- Write Req Case -->
<g id="${uniqueid}_node2" class="node"><title>Write Req Case</title>
<g id="a_${uniqueid}_node2"><a xlink:href="#15119907730808" xlink:title="com.watch4net.alerting.operation.CaseOperation">
<polygon fill="#377eb8" stroke="black" points="333.706,-224.87 205.706,-224.87 205.706,-188.87 333.706,-188.87 333.706,-224.87"/>
<text text-anchor="middle" x="269.706" y="-203.17" font-family="Times,serif" font-size="14.00" fill="white">Write Req Case</text>
</a>
</g>
</g>
<!-- LUN write req
entry&#45;&gt;Write Req Case -->
<g id="${uniqueid}_edge1" class="edge"><title>LUN write req
entry:e&#45;&gt;Write Req Case:w</title>
<path fill="none" stroke="black" d="M169.706,-206.87C181.706,-206.87 186.956,-206.87 195.581,-206.87"/>
<polygon fill="black" stroke="black" points="195.706,-210.37 205.706,-206.87 195.706,-203.37 195.706,-210.37"/>
</g>
<!-- Write Req Maj
Comp -->
<g id="${uniqueid}_node3" class="node"><title>Write Req Maj
Comp</title>
<g id="a_${uniqueid}_node3"><a xlink:href="#15119907760995" xlink:title="com.watch4net.alerting.operation.comparator.ConstantComparatorOperation">
<polygon fill="#ff7f00" stroke="black" points="506.706,-381.87 385.706,-343.87 506.706,-305.87 627.706,-343.87 506.706,-381.87"/>
<text text-anchor="middle" x="506.706" y="-347.67" font-family="Times,serif" font-size="14.00" fill="white">Write Req Maj</text>
<text text-anchor="middle" x="506.706" y="-332.67" font-family="Times,serif" font-size="14.00" fill="white">Comp</text>
</a>
</g>
</g>
<!-- Write Req Case&#45;&gt;Write Req Maj
Comp -->
<g id="${uniqueid}_edge2" class="edge"><title>Write Req Case:e&#45;&gt;Write Req Maj
Comp:w</title>
<path fill="none" stroke="black" d="M333.706,-206.87C394.87,-206.87 328.492,-328.286 374.709,-342.514"/>
<polygon fill="black" stroke="black" points="374.326,-345.994 384.706,-343.87 375.267,-339.058 374.326,-345.994"/>
</g>
<!-- Write Req Minor
Comp -->
<g id="${uniqueid}_node4" class="node"><title>Write Req Minor
Comp</title>
<g id="a_${uniqueid}_node4"><a xlink:href="#15119907777145" xlink:title="com.watch4net.alerting.operation.comparator.ConstantComparatorOperation">
<polygon fill="#ff7f00" stroke="black" points="506.706,-244.87 369.706,-206.87 506.706,-168.87 643.706,-206.87 506.706,-244.87"/>
<text text-anchor="middle" x="506.706" y="-210.67" font-family="Times,serif" font-size="14.00" fill="white">Write Req Minor</text>
<text text-anchor="middle" x="506.706" y="-195.67" font-family="Times,serif" font-size="14.00" fill="white">Comp</text>
</a>
</g>
</g>
<!-- Write Req Case&#45;&gt;Write Req Minor
Comp -->
<g id="${uniqueid}_edge3" class="edge"><title>Write Req Case:e&#45;&gt;Write Req Minor
Comp:w</title>
<path fill="none" stroke="black" d="M333.706,-206.87C345.706,-206.87 350.956,-206.87 359.581,-206.87"/>
<polygon fill="black" stroke="black" points="359.706,-210.37 369.706,-206.87 359.706,-203.37 359.706,-210.37"/>
</g>
<!-- WriteReq Crit
comp -->
<g id="${uniqueid}_node5" class="node"><title>WriteReq Crit
comp</title>
<g id="a_${uniqueid}_node5"><a xlink:href="#15119907736125" xlink:title="com.watch4net.alerting.operation.comparator.ConstantComparatorOperation">
<polygon fill="#ff7f00" stroke="black" points="506.706,-107.87 389.706,-69.8701 506.706,-31.8701 623.706,-69.8701 506.706,-107.87"/>
<text text-anchor="middle" x="506.706" y="-73.6701" font-family="Times,serif" font-size="14.00" fill="white">WriteReq Crit</text>
<text text-anchor="middle" x="506.706" y="-58.6701" font-family="Times,serif" font-size="14.00" fill="white">comp</text>
</a>
</g>
</g>
<!-- Write Req Case&#45;&gt;WriteReq Crit
comp -->
<g id="${uniqueid}_edge4" class="edge"><title>Write Req Case:e&#45;&gt;WriteReq Crit
comp:w</title>
<path fill="none" stroke="black" d="M333.706,-206.87C395.474,-206.87 331.539,-85.4544 378.576,-71.226"/>
<polygon fill="black" stroke="black" points="379.258,-74.666 388.706,-69.8701 378.33,-67.7278 379.258,-74.666"/>
</g>
<!-- WriteReq_Major
Trap -->
<g id="${uniqueid}_node8" class="node"><title>WriteReq_Major
Trap</title>
<g id="a_${uniqueid}_node8"><a xlink:href="#15119907768235" xlink:title="com.watch4net.alerting.action.SNMPTrapAction">
<ellipse fill="#4daf4a" stroke="black" cx="780.822" cy="-314.87" rx="94.5053" ry="26.7407"/>
<text text-anchor="middle" x="780.822" y="-318.67" font-family="Times,serif" font-size="14.00" fill="white">WriteReq_Major</text>
<text text-anchor="middle" x="780.822" y="-303.67" font-family="Times,serif" font-size="14.00" fill="white">Trap</text>
</a>
</g>
</g>
<!-- Write Req Maj
Comp&#45;&gt;WriteReq_Major
Trap -->
<g id="${uniqueid}_edge6" class="edge"><title>Write Req Maj
Comp:se&#45;&gt;WriteReq_Major
Trap:w</title>
<path fill="none" stroke="black" d="M536.706,-314.87C580.799,-270.776 615.193,-310.22 674.653,-314.502"/>
<polygon fill="black" stroke="black" points="674.702,-318.006 684.822,-314.87 674.955,-311.011 674.702,-318.006"/>
<text text-anchor="middle" x="521.206" y="-303.67" font-family="Times,serif" font-size="14.00">true</text>
</g>
<!-- WriteReq_Major_
Clear -->
<g id="${uniqueid}_node9" class="node"><title>WriteReq_Major_
Clear</title>
<g id="a_${uniqueid}_node9"><a xlink:href="#1425931444991" xlink:title="com.watch4net.alerting.action.SNMPTrapAction">
<ellipse fill="#4daf4a" stroke="black" cx="780.822" cy="-386.87" rx="100.318" ry="26.7407"/>
<text text-anchor="middle" x="780.822" y="-390.67" font-family="Times,serif" font-size="14.00" fill="white">WriteReq_Major_</text>
<text text-anchor="middle" x="780.822" y="-375.67" font-family="Times,serif" font-size="14.00" fill="white">Clear</text>
</a>
</g>
</g>
<!-- Write Req Maj
Comp&#45;&gt;WriteReq_Major_
Clear -->
<g id="${uniqueid}_edge5" class="edge"><title>Write Req Maj
Comp:ne&#45;&gt;WriteReq_Major_
Clear:w</title>
<path fill="none" stroke="black" d="M534.706,-372.87C537.551,-375.716 532.754,-379.134 535.706,-381.87 580.106,-423.02 612.017,-390.839 669.47,-387.196"/>
<polygon fill="black" stroke="black" points="669.822,-390.687 679.706,-386.87 669.599,-383.69 669.822,-390.687"/>
<text text-anchor="middle" x="517.706" y="-376.67" font-family="Times,serif" font-size="14.00">false</text>
</g>
<!-- WriteReq_Minor
Trap -->
<g id="${uniqueid}_node10" class="node"><title>WriteReq_Minor
Trap</title>
<g id="a_${uniqueid}_node10"><a xlink:href="#15119907785001" xlink:title="com.watch4net.alerting.action.SNMPTrapAction">
<ellipse fill="#4daf4a" stroke="black" cx="780.822" cy="-170.87" rx="95.4188" ry="26.7407"/>
<text text-anchor="middle" x="780.822" y="-174.67" font-family="Times,serif" font-size="14.00" fill="white">WriteReq_Minor</text>
<text text-anchor="middle" x="780.822" y="-159.67" font-family="Times,serif" font-size="14.00" fill="white">Trap</text>
</a>
</g>
</g>
<!-- Write Req Minor
Comp&#45;&gt;WriteReq_Minor
Trap -->
<g id="${uniqueid}_edge8" class="edge"><title>Write Req Minor
Comp:se&#45;&gt;WriteReq_Minor
Trap:w</title>
<path fill="none" stroke="black" d="M537.706,-176.87C581.241,-133.335 615.088,-166.895 673.782,-170.555"/>
<polygon fill="black" stroke="black" points="673.717,-174.055 683.822,-170.87 673.937,-167.058 673.717,-174.055"/>
<text text-anchor="middle" x="522.206" y="-165.67" font-family="Times,serif" font-size="14.00">true</text>
</g>
<!-- WriteReq_Minor_
Clear -->
<g id="${uniqueid}_node11" class="node"><title>WriteReq_Minor_
Clear</title>
<g id="a_${uniqueid}_node11"><a xlink:href="#1425931511877" xlink:title="com.watch4net.alerting.action.SNMPTrapAction">
<ellipse fill="#4daf4a" stroke="black" cx="780.822" cy="-242.87" rx="101.233" ry="26.7407"/>
<text text-anchor="middle" x="780.822" y="-246.67" font-family="Times,serif" font-size="14.00" fill="white">WriteReq_Minor_</text>
<text text-anchor="middle" x="780.822" y="-231.67" font-family="Times,serif" font-size="14.00" fill="white">Clear</text>
</a>
</g>
</g>
<!-- Write Req Minor
Comp&#45;&gt;WriteReq_Minor_
Clear -->
<g id="${uniqueid}_edge7" class="edge"><title>Write Req Minor
Comp:ne&#45;&gt;WriteReq_Minor_
Clear:w</title>
<path fill="none" stroke="black" d="M535.706,-236.87C538.239,-239.404 534.019,-242.499 536.706,-244.87 572.357,-276.342 596.168,-246.19 643.706,-244.87 655.72,-244.537 660.949,-243.578 669.573,-243.12"/>
<polygon fill="black" stroke="black" points="669.795,-246.616 679.706,-242.87 669.622,-239.618 669.795,-246.616"/>
<text text-anchor="middle" x="518.706" y="-240.67" font-family="Times,serif" font-size="14.00">false</text>
</g>
<!-- WriteReq_
Critical Trap -->
<g id="${uniqueid}_node6" class="node"><title>WriteReq_
Critical Trap</title>
<g id="a_${uniqueid}_node6"><a xlink:href="#15119907747113" xlink:title="com.watch4net.alerting.action.SNMPTrapAction">
<ellipse fill="#4daf4a" stroke="black" cx="780.822" cy="-26.8701" rx="76.2353" ry="26.7407"/>
<text text-anchor="middle" x="780.822" y="-30.6701" font-family="Times,serif" font-size="14.00" fill="white">WriteReq_</text>
<text text-anchor="middle" x="780.822" y="-15.6701" font-family="Times,serif" font-size="14.00" fill="white">Critical Trap</text>
</a>
</g>
</g>
<!-- WriteReq Crit
comp&#45;&gt;WriteReq_
Critical Trap -->
<g id="${uniqueid}_edge10" class="edge"><title>WriteReq Crit
comp:se&#45;&gt;WriteReq_
Critical Trap:w</title>
<path fill="none" stroke="black" d="M536.706,-40.8701C586.64,9.06452 624.987,-23.4704 692.625,-26.6303"/>
<polygon fill="black" stroke="black" points="692.742,-30.1339 702.822,-26.8701 692.907,-23.1359 692.742,-30.1339"/>
<text text-anchor="middle" x="521.206" y="-29.6701" font-family="Times,serif" font-size="14.00">true</text>
</g>
<!-- WriteReq_
Critical_Clear -->
<g id="${uniqueid}_node7" class="node"><title>WriteReq_
Critical_Clear</title>
<g id="a_${uniqueid}_node7"><a xlink:href="#1425931428135" xlink:title="com.watch4net.alerting.action.SNMPTrapAction">
<ellipse fill="#4daf4a" stroke="black" cx="780.822" cy="-98.8701" rx="82.9636" ry="26.7407"/>
<text text-anchor="middle" x="780.822" y="-102.67" font-family="Times,serif" font-size="14.00" fill="white">WriteReq_</text>
<text text-anchor="middle" x="780.822" y="-87.6701" font-family="Times,serif" font-size="14.00" fill="white">Critical_Clear</text>
</a>
</g>
</g>
<!-- WriteReq Crit
comp&#45;&gt;WriteReq_
Critical_Clear -->
<g id="${uniqueid}_edge9" class="edge"><title>WriteReq Crit
comp:ne&#45;&gt;WriteReq_
Critical_Clear:w</title>
<path fill="none" stroke="black" d="M534.706,-98.8701C537.551,-101.716 532.707,-105.186 535.706,-107.87 586.536,-153.365 621.55,-104.17 686.566,-99.2577"/>
<polygon fill="black" stroke="black" points="686.961,-102.745 696.822,-98.8701 686.697,-95.7504 686.961,-102.745"/>
<text text-anchor="middle" x="517.706" y="-102.67" font-family="Times,serif" font-size="14.00">false</text>
</g>
</g>
</svg>
