<?xml version="1.0" encoding="UTF-8" standalone="no"?>
<!DOCTYPE svg PUBLIC "-//W3C//DTD SVG 1.1//EN"
 "http://www.w3.org/Graphics/SVG/1.1/DTD/svg11.dtd">
<!-- Generated by graphviz version 2.38.0 (20140413.2041)
 -->
<!-- Title: NetApp Filer Alert Definitions/NetApp&#45;Volume/Write IO Rate Pages: 1 -->
<svg width="853pt" height="272pt"
 viewBox="0.00 0.00 852.80 272.00" xmlns="http://www.w3.org/2000/svg" xmlns:xlink="http://www.w3.org/1999/xlink">
<g id="${uniqueid}" class="graph" transform="scale(1 1) rotate(0) translate(4 268)">
<title>NetApp Filer Alert Definitions/NetApp&#45;Volume/Write IO Rate</title>
<polygon fill="white" stroke="none" points="-4,4 -4,-268 848.796,-268 848.796,4 -4,4"/>
<!-- Vol WriteIORate
CRIT check -->
<g id="${uniqueid}_node1" class="node"><title>Vol WriteIORate
CRIT check</title>
<g id="a_${uniqueid}_node1"><a xlink:href="#201419256813362" xlink:title="com.watch4net.alerting.operation.comparator.ConstantComparatorOperation">
<polygon fill="#ff7f00" stroke="black" points="477.806,-264 344.806,-226 477.806,-188 610.806,-226 477.806,-264"/>
<text text-anchor="middle" x="477.806" y="-229.8" font-family="Times,serif" font-size="14.00" fill="white">Vol WriteIORate</text>
<text text-anchor="middle" x="477.806" y="-214.8" font-family="Times,serif" font-size="14.00" fill="white">CRIT check</text>
</a>
</g>
</g>
<!-- Vol WriteIORate_
CRIT trap -->
<g id="${uniqueid}_node4" class="node"><title>Vol WriteIORate_
CRIT trap</title>
<g id="a_${uniqueid}_node4"><a xlink:href="#201419256823183" xlink:title="com.watch4net.alerting.action.SNMPTrapAction">
<ellipse fill="#4daf4a" stroke="black" cx="745.801" cy="-226" rx="98.9899" ry="26.7407"/>
<text text-anchor="middle" x="745.801" y="-229.8" font-family="Times,serif" font-size="14.00" fill="white">Vol WriteIORate_</text>
<text text-anchor="middle" x="745.801" y="-214.8" font-family="Times,serif" font-size="14.00" fill="white">CRIT trap</text>
</a>
</g>
</g>
<!-- Vol WriteIORate
CRIT check&#45;&gt;Vol WriteIORate_
CRIT trap -->
<g id="${uniqueid}_edge1" class="edge"><title>Vol WriteIORate
CRIT check:e&#45;&gt;Vol WriteIORate_
CRIT trap:w</title>
<path fill="none" stroke="black" d="M610.806,-226C622.806,-226 628.056,-226 636.681,-226"/>
<polygon fill="black" stroke="black" points="636.806,-229.5 646.806,-226 636.806,-222.5 636.806,-229.5"/>
<text text-anchor="middle" x="626.306" y="-214.8" font-family="Times,serif" font-size="14.00">true</text>
</g>
<!-- Vol WriteIORate
MAJ check -->
<g id="${uniqueid}_node2" class="node"><title>Vol WriteIORate
MAJ check</title>
<g id="a_${uniqueid}_node2"><a xlink:href="#201419256835182" xlink:title="com.watch4net.alerting.operation.comparator.ConstantComparatorOperation">
<polygon fill="#ff7f00" stroke="black" points="477.806,-170 344.806,-132 477.806,-94 610.806,-132 477.806,-170"/>
<text text-anchor="middle" x="477.806" y="-135.8" font-family="Times,serif" font-size="14.00" fill="white">Vol WriteIORate</text>
<text text-anchor="middle" x="477.806" y="-120.8" font-family="Times,serif" font-size="14.00" fill="white">MAJ check</text>
</a>
</g>
</g>
<!-- Vol WriteIORate_
Major trap -->
<g id="${uniqueid}_node5" class="node"><title>Vol WriteIORate_
Major trap</title>
<g id="a_${uniqueid}_node5"><a xlink:href="#201419256841066" xlink:title="com.watch4net.alerting.action.SNMPTrapAction">
<ellipse fill="#4daf4a" stroke="black" cx="745.801" cy="-132" rx="98.9899" ry="26.7407"/>
<text text-anchor="middle" x="745.801" y="-135.8" font-family="Times,serif" font-size="14.00" fill="white">Vol WriteIORate_</text>
<text text-anchor="middle" x="745.801" y="-120.8" font-family="Times,serif" font-size="14.00" fill="white">Major trap</text>
</a>
</g>
</g>
<!-- Vol WriteIORate
MAJ check&#45;&gt;Vol WriteIORate_
Major trap -->
<g id="${uniqueid}_edge2" class="edge"><title>Vol WriteIORate
MAJ check:e&#45;&gt;Vol WriteIORate_
Major trap:w</title>
<path fill="none" stroke="black" d="M610.806,-132C622.806,-132 628.056,-132 636.681,-132"/>
<polygon fill="black" stroke="black" points="636.806,-135.5 646.806,-132 636.806,-128.5 636.806,-135.5"/>
<text text-anchor="middle" x="626.306" y="-120.8" font-family="Times,serif" font-size="14.00">true</text>
</g>
<!-- Vol WriteIORate
MIN check -->
<g id="${uniqueid}_node3" class="node"><title>Vol WriteIORate
MIN check</title>
<g id="a_${uniqueid}_node3"><a xlink:href="#201419256848784" xlink:title="com.watch4net.alerting.operation.comparator.ConstantComparatorOperation">
<polygon fill="#ff7f00" stroke="black" points="477.806,-76 344.806,-38 477.806,-7.10543e-15 610.806,-38 477.806,-76"/>
<text text-anchor="middle" x="477.806" y="-41.8" font-family="Times,serif" font-size="14.00" fill="white">Vol WriteIORate</text>
<text text-anchor="middle" x="477.806" y="-26.8" font-family="Times,serif" font-size="14.00" fill="white">MIN check</text>
</a>
</g>
</g>
<!-- Vol WriteIORate_
Minor trap -->
<g id="${uniqueid}_node6" class="node"><title>Vol WriteIORate_
Minor trap</title>
<g id="a_${uniqueid}_node6"><a xlink:href="#201419256854270" xlink:title="com.watch4net.alerting.action.SNMPTrapAction">
<ellipse fill="#4daf4a" stroke="black" cx="745.801" cy="-38" rx="98.9899" ry="26.7407"/>
<text text-anchor="middle" x="745.801" y="-41.8" font-family="Times,serif" font-size="14.00" fill="white">Vol WriteIORate_</text>
<text text-anchor="middle" x="745.801" y="-26.8" font-family="Times,serif" font-size="14.00" fill="white">Minor trap</text>
</a>
</g>
</g>
<!-- Vol WriteIORate
MIN check&#45;&gt;Vol WriteIORate_
Minor trap -->
<g id="${uniqueid}_edge3" class="edge"><title>Vol WriteIORate
MIN check:e&#45;&gt;Vol WriteIORate_
Minor trap:w</title>
<path fill="none" stroke="black" d="M610.806,-38C622.806,-38 628.056,-38 636.681,-38"/>
<polygon fill="black" stroke="black" points="636.806,-41.5001 646.806,-38 636.806,-34.5001 636.806,-41.5001"/>
<text text-anchor="middle" x="626.306" y="-26.8" font-family="Times,serif" font-size="14.00">true</text>
</g>
<!-- Volume Write
IORate Entry -->
<g id="${uniqueid}_node7" class="node"><title>Volume Write
IORate Entry</title>
<g id="a_${uniqueid}_node7"><a xlink:href="#201419256778071" xlink:title="com.watch4net.alerting.operation.FilteredEntryPoint">
<ellipse fill="#984ea3" stroke="black" cx="79.9031" cy="-132" rx="79.8063" ry="26.7407"/>
<text text-anchor="middle" x="79.9031" y="-135.8" font-family="Times,serif" font-size="14.00" fill="white">Volume Write</text>
<text text-anchor="middle" x="79.9031" y="-120.8" font-family="Times,serif" font-size="14.00" fill="white">IORate Entry</text>
</a>
</g>
</g>
<!-- Volume Write
IORate case -->
<g id="${uniqueid}_node8" class="node"><title>Volume Write
IORate case</title>
<g id="a_${uniqueid}_node8"><a xlink:href="#201419256808848" xlink:title="com.watch4net.alerting.operation.CaseOperation">
<polygon fill="#377eb8" stroke="black" points="308.806,-151 195.806,-151 195.806,-113 308.806,-113 308.806,-151"/>
<text text-anchor="middle" x="252.306" y="-135.8" font-family="Times,serif" font-size="14.00" fill="white">Volume Write</text>
<text text-anchor="middle" x="252.306" y="-120.8" font-family="Times,serif" font-size="14.00" fill="white">IORate case</text>
</a>
</g>
</g>
<!-- Volume Write
IORate Entry&#45;&gt;Volume Write
IORate case -->
<g id="${uniqueid}_edge4" class="edge"><title>Volume Write
IORate Entry:e&#45;&gt;Volume Write
IORate case:w</title>
<path fill="none" stroke="black" d="M159.806,-132C171.806,-132 177.056,-132 185.681,-132"/>
<polygon fill="black" stroke="black" points="185.806,-135.5 195.806,-132 185.806,-128.5 185.806,-135.5"/>
</g>
<!-- Volume Write
IORate case&#45;&gt;Vol WriteIORate
CRIT check -->
<g id="${uniqueid}_edge5" class="edge"><title>Volume Write
IORate case:e&#45;&gt;Vol WriteIORate
CRIT check:w</title>
<path fill="none" stroke="black" d="M308.806,-132C349.524,-132 308.885,-209.868 334.984,-223.86"/>
<polygon fill="black" stroke="black" points="334.29,-227.291 344.806,-226 335.78,-220.451 334.29,-227.291"/>
</g>
<!-- Volume Write
IORate case&#45;&gt;Vol WriteIORate
MAJ check -->
<g id="${uniqueid}_edge6" class="edge"><title>Volume Write
IORate case:e&#45;&gt;Vol WriteIORate
MAJ check:w</title>
<path fill="none" stroke="black" d="M308.806,-132C320.806,-132 326.056,-132 334.681,-132"/>
<polygon fill="black" stroke="black" points="334.806,-135.5 344.806,-132 334.806,-128.5 334.806,-135.5"/>
</g>
<!-- Volume Write
IORate case&#45;&gt;Vol WriteIORate
MIN check -->
<g id="${uniqueid}_edge7" class="edge"><title>Volume Write
IORate case:e&#45;&gt;Vol WriteIORate
MIN check:w</title>
<path fill="none" stroke="black" d="M308.806,-132C349.524,-132 308.885,-54.1319 334.984,-40.1399"/>
<polygon fill="black" stroke="black" points="335.78,-43.5486 344.806,-38 334.29,-36.709 335.78,-43.5486"/>
</g>
</g>
</svg>
