<?xml version="1.0" encoding="UTF-8" standalone="no"?>
<!DOCTYPE svg PUBLIC "-//W3C//DTD SVG 1.1//EN"
 "http://www.w3.org/Graphics/SVG/1.1/DTD/svg11.dtd">
<!-- Generated by graphviz version 2.38.0 (20140413.2041)
 -->
<!-- Title: NetApp Filer Alert Definitions/NetApp&#45;Volume/Write Bandwidth Pages: 1 -->
<svg width="945pt" height="272pt"
 viewBox="0.00 0.00 945.01 272.00" xmlns="http://www.w3.org/2000/svg" xmlns:xlink="http://www.w3.org/1999/xlink">
<g id="${uniqueid}" class="graph" transform="scale(1 1) rotate(0) translate(4 268)">
<title>NetApp Filer Alert Definitions/NetApp&#45;Volume/Write Bandwidth</title>
<polygon fill="white" stroke="none" points="-4,4 -4,-268 941.009,-268 941.009,4 -4,4"/>
<!-- Vol Write B/W
CRIT check -->
<g id="${uniqueid}_node1" class="node"><title>Vol Write B/W
CRIT check</title>
<g id="a_${uniqueid}_node1"><a xlink:href="#201841006810684" xlink:title="com.watch4net.alerting.operation.comparator.ConstantComparatorOperation">
<polygon fill="#ff7f00" stroke="black" points="580.304,-264 463.304,-226 580.304,-188 697.304,-226 580.304,-264"/>
<text text-anchor="middle" x="580.304" y="-229.8" font-family="Times,serif" font-size="14.00" fill="white">Vol Write B/W</text>
<text text-anchor="middle" x="580.304" y="-214.8" font-family="Times,serif" font-size="14.00" fill="white">CRIT check</text>
</a>
</g>
</g>
<!-- Vol WriteB/W_
CRIT trap -->
<g id="${uniqueid}_node4" class="node"><title>Vol WriteB/W_
CRIT trap</title>
<g id="a_${uniqueid}_node4"><a xlink:href="#201841006820878" xlink:title="com.watch4net.alerting.action.SNMPTrapAction">
<ellipse fill="#4daf4a" stroke="black" cx="852.156" cy="-226" rx="84.7059" ry="26.7407"/>
<text text-anchor="middle" x="852.156" y="-229.8" font-family="Times,serif" font-size="14.00" fill="white">Vol WriteB/W_</text>
<text text-anchor="middle" x="852.156" y="-214.8" font-family="Times,serif" font-size="14.00" fill="white">CRIT trap</text>
</a>
</g>
</g>
<!-- Vol Write B/W
CRIT check&#45;&gt;Vol WriteB/W_
CRIT trap -->
<g id="${uniqueid}_edge1" class="edge"><title>Vol Write B/W
CRIT check:e&#45;&gt;Vol WriteB/W_
CRIT trap:w</title>
<path fill="none" stroke="black" d="M698.304,-226C725.257,-226 734.443,-226 757.093,-226"/>
<polygon fill="black" stroke="black" points="757.304,-229.5 767.304,-226 757.304,-222.5 757.304,-229.5"/>
<text text-anchor="middle" x="713.804" y="-214.8" font-family="Times,serif" font-size="14.00">true</text>
</g>
<!-- Vol Write B/W
MAJ check -->
<g id="${uniqueid}_node2" class="node"><title>Vol Write B/W
MAJ check</title>
<g id="a_${uniqueid}_node2"><a xlink:href="#201841006832787" xlink:title="com.watch4net.alerting.operation.comparator.ConstantComparatorOperation">
<polygon fill="#ff7f00" stroke="black" points="580.304,-170 463.304,-132 580.304,-94 697.304,-132 580.304,-170"/>
<text text-anchor="middle" x="580.304" y="-135.8" font-family="Times,serif" font-size="14.00" fill="white">Vol Write B/W</text>
<text text-anchor="middle" x="580.304" y="-120.8" font-family="Times,serif" font-size="14.00" fill="white">MAJ check</text>
</a>
</g>
</g>
<!-- Vol WriteB/W_
Major trap -->
<g id="${uniqueid}_node5" class="node"><title>Vol WriteB/W_
Major trap</title>
<g id="a_${uniqueid}_node5"><a xlink:href="#201841006837960" xlink:title="com.watch4net.alerting.action.SNMPTrapAction">
<ellipse fill="#4daf4a" stroke="black" cx="852.156" cy="-132" rx="84.7059" ry="26.7407"/>
<text text-anchor="middle" x="852.156" y="-135.8" font-family="Times,serif" font-size="14.00" fill="white">Vol WriteB/W_</text>
<text text-anchor="middle" x="852.156" y="-120.8" font-family="Times,serif" font-size="14.00" fill="white">Major trap</text>
</a>
</g>
</g>
<!-- Vol Write B/W
MAJ check&#45;&gt;Vol WriteB/W_
Major trap -->
<g id="${uniqueid}_edge2" class="edge"><title>Vol Write B/W
MAJ check:e&#45;&gt;Vol WriteB/W_
Major trap:w</title>
<path fill="none" stroke="black" d="M698.304,-132C725.257,-132 734.443,-132 757.093,-132"/>
<polygon fill="black" stroke="black" points="757.304,-135.5 767.304,-132 757.304,-128.5 757.304,-135.5"/>
<text text-anchor="middle" x="713.804" y="-120.8" font-family="Times,serif" font-size="14.00">true</text>
</g>
<!-- Vol WriteB/W MIN
check -->
<g id="${uniqueid}_node3" class="node"><title>Vol WriteB/W MIN
check</title>
<g id="a_${uniqueid}_node3"><a xlink:href="#201841006845148" xlink:title="com.watch4net.alerting.operation.comparator.ConstantComparatorOperation">
<polygon fill="#ff7f00" stroke="black" points="580.304,-76 429.304,-38 580.304,-7.10543e-15 731.304,-38 580.304,-76"/>
<text text-anchor="middle" x="580.304" y="-41.8" font-family="Times,serif" font-size="14.00" fill="white">Vol WriteB/W MIN</text>
<text text-anchor="middle" x="580.304" y="-26.8" font-family="Times,serif" font-size="14.00" fill="white">check</text>
</a>
</g>
</g>
<!-- Vol WriteB/W_
Minor trap -->
<g id="${uniqueid}_node6" class="node"><title>Vol WriteB/W_
Minor trap</title>
<g id="a_${uniqueid}_node6"><a xlink:href="#201841006850621" xlink:title="com.watch4net.alerting.action.SNMPTrapAction">
<ellipse fill="#4daf4a" stroke="black" cx="852.156" cy="-38" rx="84.7059" ry="26.7407"/>
<text text-anchor="middle" x="852.156" y="-41.8" font-family="Times,serif" font-size="14.00" fill="white">Vol WriteB/W_</text>
<text text-anchor="middle" x="852.156" y="-26.8" font-family="Times,serif" font-size="14.00" fill="white">Minor trap</text>
</a>
</g>
</g>
<!-- Vol WriteB/W MIN
check&#45;&gt;Vol WriteB/W_
Minor trap -->
<g id="${uniqueid}_edge3" class="edge"><title>Vol WriteB/W MIN
check:e&#45;&gt;Vol WriteB/W_
Minor trap:w</title>
<path fill="none" stroke="black" d="M731.304,-38C743.304,-38 748.554,-38 757.179,-38"/>
<polygon fill="black" stroke="black" points="757.304,-41.5001 767.304,-38 757.304,-34.5001 757.304,-41.5001"/>
<text text-anchor="middle" x="746.804" y="-26.8" font-family="Times,serif" font-size="14.00">true</text>
</g>
<!-- Volume Write B/W
Entry -->
<g id="${uniqueid}_node7" class="node"><title>Volume Write B/W
Entry</title>
<g id="a_${uniqueid}_node7"><a xlink:href="#201841006773410" xlink:title="com.watch4net.alerting.operation.FilteredEntryPoint">
<ellipse fill="#984ea3" stroke="black" cx="104.652" cy="-132" rx="104.804" ry="26.7407"/>
<text text-anchor="middle" x="104.652" y="-135.8" font-family="Times,serif" font-size="14.00" fill="white">Volume Write B/W</text>
<text text-anchor="middle" x="104.652" y="-120.8" font-family="Times,serif" font-size="14.00" fill="white">Entry</text>
</a>
</g>
</g>
<!-- Volume Write B/W
case -->
<g id="${uniqueid}_node8" class="node"><title>Volume Write B/W
case</title>
<g id="a_${uniqueid}_node8"><a xlink:href="#201841006805913" xlink:title="com.watch4net.alerting.operation.CaseOperation">
<polygon fill="#377eb8" stroke="black" points="393.304,-151 245.304,-151 245.304,-113 393.304,-113 393.304,-151"/>
<text text-anchor="middle" x="319.304" y="-135.8" font-family="Times,serif" font-size="14.00" fill="white">Volume Write B/W</text>
<text text-anchor="middle" x="319.304" y="-120.8" font-family="Times,serif" font-size="14.00" fill="white">case</text>
</a>
</g>
</g>
<!-- Volume Write B/W
Entry&#45;&gt;Volume Write B/W
case -->
<g id="${uniqueid}_edge4" class="edge"><title>Volume Write B/W
Entry:e&#45;&gt;Volume Write B/W
case:w</title>
<path fill="none" stroke="black" d="M209.304,-132C221.304,-132 226.554,-132 235.179,-132"/>
<polygon fill="black" stroke="black" points="235.304,-135.5 245.304,-132 235.304,-128.5 235.304,-135.5"/>
</g>
<!-- Volume Write B/W
case&#45;&gt;Vol Write B/W
CRIT check -->
<g id="${uniqueid}_edge5" class="edge"><title>Volume Write B/W
case:e&#45;&gt;Vol Write B/W
CRIT check:w</title>
<path fill="none" stroke="black" d="M393.304,-132C441.282,-132 415.146,-212.565 452.123,-224.523"/>
<polygon fill="black" stroke="black" points="451.905,-228.028 462.304,-226 452.91,-221.101 451.905,-228.028"/>
</g>
<!-- Volume Write B/W
case&#45;&gt;Vol Write B/W
MAJ check -->
<g id="${uniqueid}_edge6" class="edge"><title>Volume Write B/W
case:e&#45;&gt;Vol Write B/W
MAJ check:w</title>
<path fill="none" stroke="black" d="M393.304,-132C420.257,-132 429.443,-132 452.093,-132"/>
<polygon fill="black" stroke="black" points="452.304,-135.5 462.304,-132 452.304,-128.5 452.304,-135.5"/>
</g>
<!-- Volume Write B/W
case&#45;&gt;Vol WriteB/W MIN
check -->
<g id="${uniqueid}_edge7" class="edge"><title>Volume Write B/W
case:e&#45;&gt;Vol WriteB/W MIN
check:w</title>
<path fill="none" stroke="black" d="M393.304,-132C434.021,-132 393.383,-54.1319 419.481,-40.1399"/>
<polygon fill="black" stroke="black" points="420.278,-43.5486 429.304,-38 418.788,-36.709 420.278,-43.5486"/>
</g>
</g>
</svg>
