<?xml version="1.0" encoding="UTF-8" standalone="no"?>
<!DOCTYPE svg PUBLIC "-//W3C//DTD SVG 1.1//EN"
 "http://www.w3.org/Graphics/SVG/1.1/DTD/svg11.dtd">
<!-- Generated by graphviz version 2.38.0 (20140413.2041)
 -->
<!-- Title: IBMDS5k Alert Definitions/IBMDS5k&#45;Disk/Write Requests Pages: 1 -->
<svg width="1006pt" height="422pt"
 viewBox="0.00 0.00 1005.52 421.74" xmlns="http://www.w3.org/2000/svg" xmlns:xlink="http://www.w3.org/1999/xlink">
<g id="${uniqueid}" class="graph" transform="scale(1 1) rotate(0) translate(4 417.74)">
<title>IBMDS5k Alert Definitions/IBMDS5k&#45;Disk/Write Requests</title>
<polygon fill="white" stroke="none" points="-4,4 -4,-417.74 1001.52,-417.74 1001.52,4 -4,4"/>
<!-- Disk write req
entry -->
<g id="${uniqueid}_node1" class="node"><title>Disk write req
entry</title>
<g id="a_${uniqueid}_node1"><a xlink:href="#2453586993807150" xlink:title="com.watch4net.alerting.operation.FilteredEntryPoint">
<ellipse fill="#984ea3" stroke="black" cx="84.1457" cy="-206.87" rx="84.2917" ry="26.7407"/>
<text text-anchor="middle" x="84.1457" y="-210.67" font-family="Times,serif" font-size="14.00" fill="white">Disk write req</text>
<text text-anchor="middle" x="84.1457" y="-195.67" font-family="Times,serif" font-size="14.00" fill="white">entry</text>
</a>
</g>
</g>
<!-- Roundoff -->
<g id="${uniqueid}_node2" class="node"><title>Roundoff</title>
<g id="a_${uniqueid}_node2"><a xlink:href="#1441797682864" xlink:title="com.watch4net.alerting.operation.math.ConstantMathOperation">
<polygon fill="#377eb8" stroke="black" points="285.291,-224.87 204.291,-224.87 204.291,-188.87 285.291,-188.87 285.291,-224.87"/>
<text text-anchor="middle" x="244.791" y="-203.17" font-family="Times,serif" font-size="14.00" fill="white">Roundoff</text>
</a>
</g>
</g>
<!-- Disk write req
entry&#45;&gt;Roundoff -->
<g id="${uniqueid}_edge1" class="edge"><title>Disk write req
entry:e&#45;&gt;Roundoff:w</title>
<path fill="none" stroke="black" d="M168.291,-206.87C180.291,-206.87 185.541,-206.87 194.166,-206.87"/>
<polygon fill="black" stroke="black" points="194.291,-210.37 204.291,-206.87 194.291,-203.37 194.291,-210.37"/>
</g>
<!-- Write Req Case -->
<g id="${uniqueid}_node3" class="node"><title>Write Req Case</title>
<g id="a_${uniqueid}_node3"><a xlink:href="#2453586993852296" xlink:title="com.watch4net.alerting.operation.CaseOperation">
<polygon fill="#377eb8" stroke="black" points="449.291,-224.87 321.291,-224.87 321.291,-188.87 449.291,-188.87 449.291,-224.87"/>
<text text-anchor="middle" x="385.291" y="-203.17" font-family="Times,serif" font-size="14.00" fill="white">Write Req Case</text>
</a>
</g>
</g>
<!-- Roundoff&#45;&gt;Write Req Case -->
<g id="${uniqueid}_edge2" class="edge"><title>Roundoff:e&#45;&gt;Write Req Case:w</title>
<path fill="none" stroke="black" d="M285.291,-206.87C297.291,-206.87 302.541,-206.87 311.166,-206.87"/>
<polygon fill="black" stroke="black" points="311.291,-210.37 321.291,-206.87 311.291,-203.37 311.291,-210.37"/>
</g>
<!-- Write Req Maj
Comp -->
<g id="${uniqueid}_node4" class="node"><title>Write Req Maj
Comp</title>
<g id="a_${uniqueid}_node4"><a xlink:href="#2453586993900622" xlink:title="com.watch4net.alerting.operation.comparator.ConstantComparatorOperation">
<polygon fill="#ff7f00" stroke="black" points="622.291,-381.87 501.291,-343.87 622.291,-305.87 743.291,-343.87 622.291,-381.87"/>
<text text-anchor="middle" x="622.291" y="-347.67" font-family="Times,serif" font-size="14.00" fill="white">Write Req Maj</text>
<text text-anchor="middle" x="622.291" y="-332.67" font-family="Times,serif" font-size="14.00" fill="white">Comp</text>
</a>
</g>
</g>
<!-- Write Req Case&#45;&gt;Write Req Maj
Comp -->
<g id="${uniqueid}_edge3" class="edge"><title>Write Req Case:e&#45;&gt;Write Req Maj
Comp:w</title>
<path fill="none" stroke="black" d="M449.291,-206.87C510.456,-206.87 444.077,-328.286 490.295,-342.514"/>
<polygon fill="black" stroke="black" points="489.912,-345.994 500.291,-343.87 490.853,-339.058 489.912,-345.994"/>
</g>
<!-- Write Req Minor
Comp -->
<g id="${uniqueid}_node5" class="node"><title>Write Req Minor
Comp</title>
<g id="a_${uniqueid}_node5"><a xlink:href="#2453586993928157" xlink:title="com.watch4net.alerting.operation.comparator.ConstantComparatorOperation">
<polygon fill="#ff7f00" stroke="black" points="622.291,-244.87 485.291,-206.87 622.291,-168.87 759.291,-206.87 622.291,-244.87"/>
<text text-anchor="middle" x="622.291" y="-210.67" font-family="Times,serif" font-size="14.00" fill="white">Write Req Minor</text>
<text text-anchor="middle" x="622.291" y="-195.67" font-family="Times,serif" font-size="14.00" fill="white">Comp</text>
</a>
</g>
</g>
<!-- Write Req Case&#45;&gt;Write Req Minor
Comp -->
<g id="${uniqueid}_edge4" class="edge"><title>Write Req Case:e&#45;&gt;Write Req Minor
Comp:w</title>
<path fill="none" stroke="black" d="M449.291,-206.87C461.291,-206.87 466.541,-206.87 475.166,-206.87"/>
<polygon fill="black" stroke="black" points="475.291,-210.37 485.291,-206.87 475.291,-203.37 475.291,-210.37"/>
</g>
<!-- WriteReq Crit
comp -->
<g id="${uniqueid}_node6" class="node"><title>WriteReq Crit
comp</title>
<g id="a_${uniqueid}_node6"><a xlink:href="#2453586993861221" xlink:title="com.watch4net.alerting.operation.comparator.ConstantComparatorOperation">
<polygon fill="#ff7f00" stroke="black" points="622.291,-107.87 505.291,-69.8701 622.291,-31.8701 739.291,-69.8701 622.291,-107.87"/>
<text text-anchor="middle" x="622.291" y="-73.6701" font-family="Times,serif" font-size="14.00" fill="white">WriteReq Crit</text>
<text text-anchor="middle" x="622.291" y="-58.6701" font-family="Times,serif" font-size="14.00" fill="white">comp</text>
</a>
</g>
</g>
<!-- Write Req Case&#45;&gt;WriteReq Crit
comp -->
<g id="${uniqueid}_edge5" class="edge"><title>Write Req Case:e&#45;&gt;WriteReq Crit
comp:w</title>
<path fill="none" stroke="black" d="M449.291,-206.87C511.059,-206.87 447.125,-85.4544 494.162,-71.226"/>
<polygon fill="black" stroke="black" points="494.844,-74.666 504.291,-69.8701 493.915,-67.7278 494.844,-74.666"/>
</g>
<!-- WriteReq_Major
Trap -->
<g id="${uniqueid}_node9" class="node"><title>WriteReq_Major
Trap</title>
<g id="a_${uniqueid}_node9"><a xlink:href="#2453586993913325" xlink:title="com.watch4net.alerting.action.SNMPTrapAction">
<ellipse fill="#4daf4a" stroke="black" cx="896.408" cy="-314.87" rx="94.5053" ry="26.7407"/>
<text text-anchor="middle" x="896.408" y="-318.67" font-family="Times,serif" font-size="14.00" fill="white">WriteReq_Major</text>
<text text-anchor="middle" x="896.408" y="-303.67" font-family="Times,serif" font-size="14.00" fill="white">Trap</text>
</a>
</g>
</g>
<!-- Write Req Maj
Comp&#45;&gt;WriteReq_Major
Trap -->
<g id="${uniqueid}_edge7" class="edge"><title>Write Req Maj
Comp:se&#45;&gt;WriteReq_Major
Trap:w</title>
<path fill="none" stroke="black" d="M652.291,-314.87C696.385,-270.776 730.779,-310.22 790.238,-314.502"/>
<polygon fill="black" stroke="black" points="790.288,-318.006 800.408,-314.87 790.541,-311.011 790.288,-318.006"/>
<text text-anchor="middle" x="636.791" y="-303.67" font-family="Times,serif" font-size="14.00">true</text>
</g>
<!-- WriteReq_Major_
Clear -->
<g id="${uniqueid}_node10" class="node"><title>WriteReq_Major_
Clear</title>
<g id="a_${uniqueid}_node10"><a xlink:href="#1426747912944" xlink:title="com.watch4net.alerting.action.SNMPTrapAction">
<ellipse fill="#4daf4a" stroke="black" cx="896.408" cy="-386.87" rx="100.318" ry="26.7407"/>
<text text-anchor="middle" x="896.408" y="-390.67" font-family="Times,serif" font-size="14.00" fill="white">WriteReq_Major_</text>
<text text-anchor="middle" x="896.408" y="-375.67" font-family="Times,serif" font-size="14.00" fill="white">Clear</text>
</a>
</g>
</g>
<!-- Write Req Maj
Comp&#45;&gt;WriteReq_Major_
Clear -->
<g id="${uniqueid}_edge6" class="edge"><title>Write Req Maj
Comp:ne&#45;&gt;WriteReq_Major_
Clear:w</title>
<path fill="none" stroke="black" d="M650.291,-372.87C653.137,-375.716 648.34,-379.134 651.291,-381.87 695.691,-423.02 727.602,-390.839 785.056,-387.196"/>
<polygon fill="black" stroke="black" points="785.408,-390.687 795.291,-386.87 785.185,-383.69 785.408,-390.687"/>
<text text-anchor="middle" x="633.291" y="-376.67" font-family="Times,serif" font-size="14.00">false</text>
</g>
<!-- WriteReq_Minor
Trap -->
<g id="${uniqueid}_node11" class="node"><title>WriteReq_Minor
Trap</title>
<g id="a_${uniqueid}_node11"><a xlink:href="#2453586993940090" xlink:title="com.watch4net.alerting.action.SNMPTrapAction">
<ellipse fill="#4daf4a" stroke="black" cx="896.408" cy="-170.87" rx="95.4188" ry="26.7407"/>
<text text-anchor="middle" x="896.408" y="-174.67" font-family="Times,serif" font-size="14.00" fill="white">WriteReq_Minor</text>
<text text-anchor="middle" x="896.408" y="-159.67" font-family="Times,serif" font-size="14.00" fill="white">Trap</text>
</a>
</g>
</g>
<!-- Write Req Minor
Comp&#45;&gt;WriteReq_Minor
Trap -->
<g id="${uniqueid}_edge9" class="edge"><title>Write Req Minor
Comp:se&#45;&gt;WriteReq_Minor
Trap:w</title>
<path fill="none" stroke="black" d="M653.291,-176.87C696.826,-133.335 730.674,-166.895 789.368,-170.555"/>
<polygon fill="black" stroke="black" points="789.303,-174.055 799.408,-170.87 789.522,-167.058 789.303,-174.055"/>
<text text-anchor="middle" x="637.791" y="-165.67" font-family="Times,serif" font-size="14.00">true</text>
</g>
<!-- WriteReq_Minor_
Clear -->
<g id="${uniqueid}_node12" class="node"><title>WriteReq_Minor_
Clear</title>
<g id="a_${uniqueid}_node12"><a xlink:href="#1426747958566" xlink:title="com.watch4net.alerting.action.SNMPTrapAction">
<ellipse fill="#4daf4a" stroke="black" cx="896.408" cy="-242.87" rx="101.233" ry="26.7407"/>
<text text-anchor="middle" x="896.408" y="-246.67" font-family="Times,serif" font-size="14.00" fill="white">WriteReq_Minor_</text>
<text text-anchor="middle" x="896.408" y="-231.67" font-family="Times,serif" font-size="14.00" fill="white">Clear</text>
</a>
</g>
</g>
<!-- Write Req Minor
Comp&#45;&gt;WriteReq_Minor_
Clear -->
<g id="${uniqueid}_edge8" class="edge"><title>Write Req Minor
Comp:ne&#45;&gt;WriteReq_Minor_
Clear:w</title>
<path fill="none" stroke="black" d="M651.291,-236.87C653.825,-239.404 649.605,-242.499 652.291,-244.87 687.943,-276.342 711.754,-246.19 759.291,-244.87 771.305,-244.537 776.534,-243.578 785.159,-243.12"/>
<polygon fill="black" stroke="black" points="785.381,-246.616 795.291,-242.87 785.208,-239.618 785.381,-246.616"/>
<text text-anchor="middle" x="634.291" y="-240.67" font-family="Times,serif" font-size="14.00">false</text>
</g>
<!-- WriteReq_
Critical Trap -->
<g id="${uniqueid}_node7" class="node"><title>WriteReq_
Critical Trap</title>
<g id="a_${uniqueid}_node7"><a xlink:href="#2453586993879864" xlink:title="com.watch4net.alerting.action.SNMPTrapAction">
<ellipse fill="#4daf4a" stroke="black" cx="896.408" cy="-26.8701" rx="76.2353" ry="26.7407"/>
<text text-anchor="middle" x="896.408" y="-30.6701" font-family="Times,serif" font-size="14.00" fill="white">WriteReq_</text>
<text text-anchor="middle" x="896.408" y="-15.6701" font-family="Times,serif" font-size="14.00" fill="white">Critical Trap</text>
</a>
</g>
</g>
<!-- WriteReq Crit
comp&#45;&gt;WriteReq_
Critical Trap -->
<g id="${uniqueid}_edge11" class="edge"><title>WriteReq Crit
comp:se&#45;&gt;WriteReq_
Critical Trap:w</title>
<path fill="none" stroke="black" d="M652.291,-40.8701C702.226,9.06452 740.573,-23.4704 808.211,-26.6303"/>
<polygon fill="black" stroke="black" points="808.328,-30.1339 818.408,-26.8701 808.493,-23.1359 808.328,-30.1339"/>
<text text-anchor="middle" x="636.791" y="-29.6701" font-family="Times,serif" font-size="14.00">true</text>
</g>
<!-- WriteReq_
Critical_Clear -->
<g id="${uniqueid}_node8" class="node"><title>WriteReq_
Critical_Clear</title>
<g id="a_${uniqueid}_node8"><a xlink:href="#1426747869807" xlink:title="com.watch4net.alerting.action.SNMPTrapAction">
<ellipse fill="#4daf4a" stroke="black" cx="896.408" cy="-98.8701" rx="82.9636" ry="26.7407"/>
<text text-anchor="middle" x="896.408" y="-102.67" font-family="Times,serif" font-size="14.00" fill="white">WriteReq_</text>
<text text-anchor="middle" x="896.408" y="-87.6701" font-family="Times,serif" font-size="14.00" fill="white">Critical_Clear</text>
</a>
</g>
</g>
<!-- WriteReq Crit
comp&#45;&gt;WriteReq_
Critical_Clear -->
<g id="${uniqueid}_edge10" class="edge"><title>WriteReq Crit
comp:ne&#45;&gt;WriteReq_
Critical_Clear:w</title>
<path fill="none" stroke="black" d="M650.291,-98.8701C653.137,-101.716 648.293,-105.186 651.291,-107.87 702.122,-153.365 737.136,-104.17 802.152,-99.2577"/>
<polygon fill="black" stroke="black" points="802.547,-102.745 812.408,-98.8701 802.283,-95.7504 802.547,-102.745"/>
<text text-anchor="middle" x="633.291" y="-102.67" font-family="Times,serif" font-size="14.00">false</text>
</g>
</g>
</svg>
