<?xml version="1.0" encoding="UTF-8" standalone="no"?>
<!DOCTYPE svg PUBLIC "-//W3C//DTD SVG 1.1//EN"
 "http://www.w3.org/Graphics/SVG/1.1/DTD/svg11.dtd">
<!-- Generated by graphviz version 2.38.0 (20140413.2041)
 -->
<!-- Title: EMC VMAX Alert Definitions/VMAX&#45;Devices/High Hits Rate Pages: 1 -->
<svg width="936pt" height="422pt"
 viewBox="0.00 0.00 935.80 421.74" xmlns="http://www.w3.org/2000/svg" xmlns:xlink="http://www.w3.org/1999/xlink">
<g id="${uniqueid}" class="graph" transform="scale(1 1) rotate(0) translate(4 417.74)">
<title>EMC VMAX Alert Definitions/VMAX&#45;Devices/High Hits Rate</title>
<polygon fill="white" stroke="none" points="-4,4 -4,-417.74 931.802,-417.74 931.802,4 -4,4"/>
<!-- High_Hits_Case -->
<g id="${uniqueid}_node1" class="node"><title>High_Hits_Case</title>
<g id="a_${uniqueid}_node1"><a xlink:href="#1415977206950" xlink:title="com.watch4net.alerting.operation.CaseOperation">
<polygon fill="#377eb8" stroke="black" points="347.084,-224.87 214.084,-224.87 214.084,-188.87 347.084,-188.87 347.084,-224.87"/>
<text text-anchor="middle" x="280.584" y="-203.17" font-family="Times,serif" font-size="14.00" fill="white">High_Hits_Case</text>
</a>
</g>
</g>
<!-- High_Hits_Crit_
Chk -->
<g id="${uniqueid}_node2" class="node"><title>High_Hits_Crit_
Chk</title>
<g id="a_${uniqueid}_node2"><a xlink:href="#1415977311448" xlink:title="com.watch4net.alerting.operation.comparator.ConstantComparatorOperation">
<polygon fill="#ff7f00" stroke="black" points="532.084,-382.87 398.084,-344.87 532.084,-306.87 666.084,-344.87 532.084,-382.87"/>
<text text-anchor="middle" x="532.084" y="-348.67" font-family="Times,serif" font-size="14.00" fill="white">High_Hits_Crit_</text>
<text text-anchor="middle" x="532.084" y="-333.67" font-family="Times,serif" font-size="14.00" fill="white">Chk</text>
</a>
</g>
</g>
<!-- High_Hits_Case&#45;&gt;High_Hits_Crit_
Chk -->
<g id="${uniqueid}_edge1" class="edge"><title>High_Hits_Case:e&#45;&gt;High_Hits_Crit_
Chk:w</title>
<path fill="none" stroke="black" d="M347.084,-206.87C408.497,-206.87 340.779,-329.172 387.059,-343.504"/>
<polygon fill="black" stroke="black" points="386.703,-346.988 397.084,-344.87 387.648,-340.052 386.703,-346.988"/>
</g>
<!-- High_Hits_Major_
Chk -->
<g id="${uniqueid}_node6" class="node"><title>High_Hits_Major_
Chk</title>
<g id="a_${uniqueid}_node6"><a xlink:href="#1415977441549" xlink:title="com.watch4net.alerting.operation.comparator.ConstantComparatorOperation">
<polygon fill="#ff7f00" stroke="black" points="532.084,-244.87 384.084,-206.87 532.084,-168.87 680.084,-206.87 532.084,-244.87"/>
<text text-anchor="middle" x="532.084" y="-210.67" font-family="Times,serif" font-size="14.00" fill="white">High_Hits_Major_</text>
<text text-anchor="middle" x="532.084" y="-195.67" font-family="Times,serif" font-size="14.00" fill="white">Chk</text>
</a>
</g>
</g>
<!-- High_Hits_Case&#45;&gt;High_Hits_Major_
Chk -->
<g id="${uniqueid}_edge2" class="edge"><title>High_Hits_Case:e&#45;&gt;High_Hits_Major_
Chk:w</title>
<path fill="none" stroke="black" d="M347.084,-206.87C359.084,-206.87 364.334,-206.87 372.959,-206.87"/>
<polygon fill="black" stroke="black" points="373.084,-210.37 383.084,-206.87 373.084,-203.37 373.084,-210.37"/>
</g>
<!-- High_Hits_Minor_
Chk -->
<g id="${uniqueid}_node9" class="node"><title>High_Hits_Minor_
Chk</title>
<g id="a_${uniqueid}_node9"><a xlink:href="#1415977755504" xlink:title="com.watch4net.alerting.operation.comparator.ConstantComparatorOperation">
<polygon fill="#ff7f00" stroke="black" points="532.084,-106.87 383.084,-68.8701 532.084,-30.8701 681.084,-68.8701 532.084,-106.87"/>
<text text-anchor="middle" x="532.084" y="-72.6701" font-family="Times,serif" font-size="14.00" fill="white">High_Hits_Minor_</text>
<text text-anchor="middle" x="532.084" y="-57.6701" font-family="Times,serif" font-size="14.00" fill="white">Chk</text>
</a>
</g>
</g>
<!-- High_Hits_Case&#45;&gt;High_Hits_Minor_
Chk -->
<g id="${uniqueid}_edge3" class="edge"><title>High_Hits_Case:e&#45;&gt;High_Hits_Minor_
Chk:w</title>
<path fill="none" stroke="black" d="M347.084,-206.87C406.509,-206.87 330.443,-85.581 372.931,-70.4199"/>
<polygon fill="black" stroke="black" points="373.727,-73.839 383.084,-68.8701 372.671,-66.9191 373.727,-73.839"/>
</g>
<!-- High_Hits_Crit_
Clear -->
<g id="${uniqueid}_node3" class="node"><title>High_Hits_Crit_
Clear</title>
<g id="a_${uniqueid}_node3"><a xlink:href="#1415977950446" xlink:title="com.watch4net.alerting.action.SNMPTrapAction">
<ellipse fill="#4daf4a" stroke="black" cx="822.443" cy="-386.87" rx="94.5053" ry="26.7407"/>
<text text-anchor="middle" x="822.443" y="-390.67" font-family="Times,serif" font-size="14.00" fill="white">High_Hits_Crit_</text>
<text text-anchor="middle" x="822.443" y="-375.67" font-family="Times,serif" font-size="14.00" fill="white">Clear</text>
</a>
</g>
</g>
<!-- High_Hits_Crit_
Chk&#45;&gt;High_Hits_Crit_
Clear -->
<g id="${uniqueid}_edge4" class="edge"><title>High_Hits_Crit_
Chk:ne&#45;&gt;High_Hits_Crit_
Clear:w</title>
<path fill="none" stroke="black" d="M561.084,-374.87C563.618,-377.404 559.427,-380.466 562.084,-382.87 613.731,-429.593 649.857,-390.884 716.399,-387.153"/>
<polygon fill="black" stroke="black" points="716.545,-390.65 726.443,-386.87 716.349,-383.653 716.545,-390.65"/>
<text text-anchor="middle" x="544.084" y="-378.67" font-family="Times,serif" font-size="14.00">false</text>
</g>
<!-- High_Hits_Crit_
Set -->
<g id="${uniqueid}_node4" class="node"><title>High_Hits_Crit_
Set</title>
<g id="a_${uniqueid}_node4"><a xlink:href="#1415978720642" xlink:title="com.watch4net.alerting.action.SNMPTrapAction">
<ellipse fill="#4daf4a" stroke="black" cx="822.443" cy="-314.87" rx="94.5053" ry="26.7407"/>
<text text-anchor="middle" x="822.443" y="-318.67" font-family="Times,serif" font-size="14.00" fill="white">High_Hits_Crit_</text>
<text text-anchor="middle" x="822.443" y="-303.67" font-family="Times,serif" font-size="14.00" fill="white">Set</text>
</a>
</g>
</g>
<!-- High_Hits_Crit_
Chk&#45;&gt;High_Hits_Crit_
Set -->
<g id="${uniqueid}_edge5" class="edge"><title>High_Hits_Crit_
Chk:se&#45;&gt;High_Hits_Crit_
Set:w</title>
<path fill="none" stroke="black" d="M563.084,-314.87C612.016,-265.938 650.118,-310.283 716.447,-314.548"/>
<polygon fill="black" stroke="black" points="716.335,-318.046 726.443,-314.87 716.561,-311.049 716.335,-318.046"/>
<text text-anchor="middle" x="547.584" y="-303.67" font-family="Times,serif" font-size="14.00">true</text>
</g>
<!-- High_Hits_Filter -->
<g id="${uniqueid}_node5" class="node"><title>High_Hits_Filter</title>
<g id="a_${uniqueid}_node5"><a xlink:href="#1415977171229" xlink:title="com.watch4net.alerting.operation.FilteredEntryPoint">
<ellipse fill="#984ea3" stroke="black" cx="89.0421" cy="-206.87" rx="89.0842" ry="18"/>
<text text-anchor="middle" x="89.0421" y="-203.17" font-family="Times,serif" font-size="14.00" fill="white">High_Hits_Filter</text>
</a>
</g>
</g>
<!-- High_Hits_Filter&#45;&gt;High_Hits_Case -->
<g id="${uniqueid}_edge6" class="edge"><title>High_Hits_Filter:e&#45;&gt;High_Hits_Case:w</title>
<path fill="none" stroke="black" d="M178.084,-206.87C190.084,-206.87 195.334,-206.87 203.959,-206.87"/>
<polygon fill="black" stroke="black" points="204.084,-210.37 214.084,-206.87 204.084,-203.37 204.084,-210.37"/>
</g>
<!-- High_Hits_Major_
Clear -->
<g id="${uniqueid}_node7" class="node"><title>High_Hits_Major_
Clear</title>
<g id="a_${uniqueid}_node7"><a xlink:href="#1415978041896" xlink:title="com.watch4net.alerting.action.SNMPTrapAction">
<ellipse fill="#4daf4a" stroke="black" cx="822.443" cy="-242.87" rx="104.804" ry="26.7407"/>
<text text-anchor="middle" x="822.443" y="-246.67" font-family="Times,serif" font-size="14.00" fill="white">High_Hits_Major_</text>
<text text-anchor="middle" x="822.443" y="-231.67" font-family="Times,serif" font-size="14.00" fill="white">Clear</text>
</a>
</g>
</g>
<!-- High_Hits_Major_
Chk&#45;&gt;High_Hits_Major_
Clear -->
<g id="${uniqueid}_edge7" class="edge"><title>High_Hits_Major_
Chk:ne&#45;&gt;High_Hits_Major_
Clear:w</title>
<path fill="none" stroke="black" d="M562.084,-237.87C564.306,-240.092 560.71,-242.811 563.084,-244.87 602.368,-278.941 628.103,-246.274 680.084,-244.87 692.56,-244.533 697.918,-243.558 706.948,-243.106"/>
<polygon fill="black" stroke="black" points="707.168,-246.602 717.084,-242.87 707.005,-239.604 707.168,-246.602"/>
<text text-anchor="middle" x="545.084" y="-241.67" font-family="Times,serif" font-size="14.00">false</text>
</g>
<!-- High_Hits_Major_
Set -->
<g id="${uniqueid}_node8" class="node"><title>High_Hits_Major_
Set</title>
<g id="a_${uniqueid}_node8"><a xlink:href="#1415978007192" xlink:title="com.watch4net.alerting.action.SNMPTrapAction">
<ellipse fill="#4daf4a" stroke="black" cx="822.443" cy="-170.87" rx="104.804" ry="26.7407"/>
<text text-anchor="middle" x="822.443" y="-174.67" font-family="Times,serif" font-size="14.00" fill="white">High_Hits_Major_</text>
<text text-anchor="middle" x="822.443" y="-159.67" font-family="Times,serif" font-size="14.00" fill="white">Set</text>
</a>
</g>
</g>
<!-- High_Hits_Major_
Chk&#45;&gt;High_Hits_Major_
Set -->
<g id="${uniqueid}_edge8" class="edge"><title>High_Hits_Major_
Chk:se&#45;&gt;High_Hits_Major_
Set:w</title>
<path fill="none" stroke="black" d="M564.084,-175.87C609.75,-130.204 645.276,-166.727 706.955,-170.554"/>
<polygon fill="black" stroke="black" points="706.98,-174.057 717.084,-170.87 707.198,-167.06 706.98,-174.057"/>
<text text-anchor="middle" x="548.584" y="-164.67" font-family="Times,serif" font-size="14.00">true</text>
</g>
<!-- High_Hits_Minor_
Clear -->
<g id="${uniqueid}_node10" class="node"><title>High_Hits_Minor_
Clear</title>
<g id="a_${uniqueid}_node10"><a xlink:href="#1415978758467" xlink:title="com.watch4net.alerting.action.SNMPTrapAction">
<ellipse fill="#4daf4a" stroke="black" cx="822.443" cy="-98.8701" rx="105.218" ry="26.7407"/>
<text text-anchor="middle" x="822.443" y="-102.67" font-family="Times,serif" font-size="14.00" fill="white">High_Hits_Minor_</text>
<text text-anchor="middle" x="822.443" y="-87.6701" font-family="Times,serif" font-size="14.00" fill="white">Clear</text>
</a>
</g>
</g>
<!-- High_Hits_Minor_
Chk&#45;&gt;High_Hits_Minor_
Clear -->
<g id="${uniqueid}_edge9" class="edge"><title>High_Hits_Minor_
Chk:ne&#45;&gt;High_Hits_Minor_
Clear:w</title>
<path fill="none" stroke="black" d="M561.084,-98.8701C563.618,-101.404 559.398,-104.499 562.084,-106.87 601.734,-141.872 628.511,-112.641 681.084,-106.87 693.431,-105.515 698.326,-101.619 707.106,-99.812"/>
<polygon fill="black" stroke="black" points="707.457,-103.294 717.084,-98.8701 706.799,-96.3255 707.457,-103.294"/>
<text text-anchor="middle" x="544.084" y="-102.67" font-family="Times,serif" font-size="14.00">false</text>
</g>
<!-- High_Hits_Minor_
Set -->
<g id="${uniqueid}_node11" class="node"><title>High_Hits_Minor_
Set</title>
<g id="a_${uniqueid}_node11"><a xlink:href="#1415978738366" xlink:title="com.watch4net.alerting.action.SNMPTrapAction">
<ellipse fill="#4daf4a" stroke="black" cx="822.443" cy="-26.8701" rx="105.218" ry="26.7407"/>
<text text-anchor="middle" x="822.443" y="-30.6701" font-family="Times,serif" font-size="14.00" fill="white">High_Hits_Minor_</text>
<text text-anchor="middle" x="822.443" y="-15.6701" font-family="Times,serif" font-size="14.00" fill="white">Set</text>
</a>
</g>
</g>
<!-- High_Hits_Minor_
Chk&#45;&gt;High_Hits_Minor_
Set -->
<g id="${uniqueid}_edge10" class="edge"><title>High_Hits_Minor_
Chk:se&#45;&gt;High_Hits_Minor_
Set:w</title>
<path fill="none" stroke="black" d="M563.084,-38.8701C609.163,7.20904 644.664,-23.378 706.866,-26.6033"/>
<polygon fill="black" stroke="black" points="706.996,-30.1078 717.084,-26.8701 707.179,-23.1102 706.996,-30.1078"/>
<text text-anchor="middle" x="547.584" y="-27.6701" font-family="Times,serif" font-size="14.00">true</text>
</g>
</g>
</svg>
