<?xml version="1.0" encoding="UTF-8" standalone="no"?>
<!DOCTYPE svg PUBLIC "-//W3C//DTD SVG 1.1//EN"
 "http://www.w3.org/Graphics/SVG/1.1/DTD/svg11.dtd">
<!-- Generated by graphviz version 2.38.0 (20140413.2041)
 -->
<!-- Title: EMC VMAX Alert Definitions/VMAX&#45;Devices/Low Hit Percent Pages: 1 -->
<svg width="902pt" height="245pt"
 viewBox="0.00 0.00 901.66 244.83" xmlns="http://www.w3.org/2000/svg" xmlns:xlink="http://www.w3.org/1999/xlink">
<g id="${uniqueid}" class="graph" transform="scale(1 1) rotate(0) translate(4 240.827)">
<title>EMC VMAX Alert Definitions/VMAX&#45;Devices/Low Hit Percent</title>
<polygon fill="white" stroke="none" points="-4,4 -4,-240.827 897.663,-240.827 897.663,4 -4,4"/>
<!-- LUNLowHit
Percent_Crit -->
<g id="${uniqueid}_node1" class="node"><title>LUNLowHit
Percent_Crit</title>
<g id="a_${uniqueid}_node1"><a xlink:href="#2074712113746636" xlink:title="com.watch4net.alerting.operation.comparator.ConstantComparatorOperation">
<polygon fill="#ff7f00" stroke="black" points="525.382,-218.87 417.382,-180.87 525.382,-142.87 633.382,-180.87 525.382,-218.87"/>
<text text-anchor="middle" x="525.382" y="-184.67" font-family="Times,serif" font-size="14.00" fill="white">LUNLowHit</text>
<text text-anchor="middle" x="525.382" y="-169.67" font-family="Times,serif" font-size="14.00" fill="white">Percent_Crit</text>
</a>
</g>
</g>
<!-- LUN_Low_Hit_
Percentage_Crit -->
<g id="${uniqueid}_node5" class="node"><title>LUN_Low_Hit_
Percentage_Crit</title>
<g id="a_${uniqueid}_node5"><a xlink:href="#2074712113764189" xlink:title="com.watch4net.alerting.action.SNMPTrapAction">
<ellipse fill="#4daf4a" stroke="black" cx="789.022" cy="-152.87" rx="94.5053" ry="26.7407"/>
<text text-anchor="middle" x="789.022" y="-156.67" font-family="Times,serif" font-size="14.00" fill="white">LUN_Low_Hit_</text>
<text text-anchor="middle" x="789.022" y="-141.67" font-family="Times,serif" font-size="14.00" fill="white">Percentage_Crit</text>
</a>
</g>
</g>
<!-- LUNLowHit
Percent_Crit&#45;&gt;LUN_Low_Hit_
Percentage_Crit -->
<g id="${uniqueid}_edge2" class="edge"><title>LUNLowHit
Percent_Crit:se&#45;&gt;LUN_Low_Hit_
Percentage_Crit:w</title>
<path fill="none" stroke="black" d="M554.382,-152.87C595.484,-111.767 627.582,-148.214 682.816,-152.474"/>
<polygon fill="black" stroke="black" points="682.894,-155.98 693.022,-152.87 683.166,-148.985 682.894,-155.98"/>
<text text-anchor="middle" x="538.882" y="-141.67" font-family="Times,serif" font-size="14.00">true</text>
</g>
<!-- SNMP_Clear_Crit -->
<g id="${uniqueid}_node7" class="node"><title>SNMP_Clear_Crit</title>
<g id="a_${uniqueid}_node7"><a xlink:href="#2074712113778574" xlink:title="com.watch4net.alerting.action.SNMPTrapAction">
<ellipse fill="#4daf4a" stroke="black" cx="789.022" cy="-215.87" rx="94.7833" ry="18"/>
<text text-anchor="middle" x="789.022" y="-212.17" font-family="Times,serif" font-size="14.00" fill="white">SNMP_Clear_Crit</text>
</a>
</g>
</g>
<!-- LUNLowHit
Percent_Crit&#45;&gt;SNMP_Clear_Crit -->
<g id="${uniqueid}_edge1" class="edge"><title>LUNLowHit
Percent_Crit:ne&#45;&gt;SNMP_Clear_Crit:w</title>
<path fill="none" stroke="black" d="M552.382,-208.87C553.961,-210.449 551.726,-217.371 553.382,-218.87 596.802,-258.165 627.327,-220.652 682.76,-216.276"/>
<polygon fill="black" stroke="black" points="683.169,-219.763 693.022,-215.87 682.892,-212.768 683.169,-219.763"/>
<text text-anchor="middle" x="535.382" y="-212.67" font-family="Times,serif" font-size="14.00">false</text>
</g>
<!-- LUNLowHit
Percent_Minor -->
<g id="${uniqueid}_node2" class="node"><title>LUNLowHit
Percent_Minor</title>
<g id="a_${uniqueid}_node2"><a xlink:href="#2074712113787920" xlink:title="com.watch4net.alerting.operation.comparator.ConstantComparatorOperation">
<polygon fill="#ff7f00" stroke="black" points="525.382,-98.8701 402.382,-60.8701 525.382,-22.8701 648.382,-60.8701 525.382,-98.8701"/>
<text text-anchor="middle" x="525.382" y="-64.6701" font-family="Times,serif" font-size="14.00" fill="white">LUNLowHit</text>
<text text-anchor="middle" x="525.382" y="-49.6701" font-family="Times,serif" font-size="14.00" fill="white">Percent_Minor</text>
</a>
</g>
</g>
<!-- LUN_Low_Hit_
Percent_Minor -->
<g id="${uniqueid}_node4" class="node"><title>LUN_Low_Hit_
Percent_Minor</title>
<g id="a_${uniqueid}_node4"><a xlink:href="#2074712113804166" xlink:title="com.watch4net.alerting.action.SNMPTrapAction">
<ellipse fill="#4daf4a" stroke="black" cx="789.022" cy="-26.8701" rx="88.2768" ry="26.7407"/>
<text text-anchor="middle" x="789.022" y="-30.6701" font-family="Times,serif" font-size="14.00" fill="white">LUN_Low_Hit_</text>
<text text-anchor="middle" x="789.022" y="-15.6701" font-family="Times,serif" font-size="14.00" fill="white">Percent_Minor</text>
</a>
</g>
</g>
<!-- LUNLowHit
Percent_Minor&#45;&gt;LUN_Low_Hit_
Percent_Minor -->
<g id="${uniqueid}_edge4" class="edge"><title>LUNLowHit
Percent_Minor:se&#45;&gt;LUN_Low_Hit_
Percent_Minor:w</title>
<path fill="none" stroke="black" d="M555.382,-31.8701C598.081,10.829 631.328,-22.7318 688.799,-26.5302"/>
<polygon fill="black" stroke="black" points="688.912,-30.0358 699.022,-26.8701 689.144,-23.0396 688.912,-30.0358"/>
<text text-anchor="middle" x="539.882" y="-20.6701" font-family="Times,serif" font-size="14.00">true</text>
</g>
<!-- SNMP_Clear_Minor -->
<g id="${uniqueid}_node8" class="node"><title>SNMP_Clear_Minor</title>
<g id="a_${uniqueid}_node8"><a xlink:href="#2074712113818714" xlink:title="com.watch4net.alerting.action.SNMPTrapAction">
<ellipse fill="#4daf4a" stroke="black" cx="789.022" cy="-89.8701" rx="104.782" ry="18"/>
<text text-anchor="middle" x="789.022" y="-86.1701" font-family="Times,serif" font-size="14.00" fill="white">SNMP_Clear_Minor</text>
</a>
</g>
</g>
<!-- LUNLowHit
Percent_Minor&#45;&gt;SNMP_Clear_Minor -->
<g id="${uniqueid}_edge3" class="edge"><title>LUNLowHit
Percent_Minor:ne&#45;&gt;SNMP_Clear_Minor:w</title>
<path fill="none" stroke="black" d="M553.382,-89.8701C556.228,-92.7159 551.383,-96.186 554.382,-98.8701 585.512,-126.733 606.917,-103.975 648.382,-98.8701 660.786,-97.343 665.593,-92.9619 674.371,-90.9293"/>
<polygon fill="black" stroke="black" points="674.806,-94.403 684.382,-89.8701 674.069,-87.4418 674.806,-94.403"/>
<text text-anchor="middle" x="536.382" y="-93.6701" font-family="Times,serif" font-size="14.00">false</text>
</g>
<!-- LUNLowHitPercent -->
<g id="${uniqueid}_node3" class="node"><title>LUNLowHitPercent</title>
<g id="a_${uniqueid}_node3"><a xlink:href="#2074712113693526" xlink:title="com.watch4net.alerting.operation.FilteredEntryPoint">
<ellipse fill="#984ea3" stroke="black" cx="102.691" cy="-120.87" rx="102.882" ry="18"/>
<text text-anchor="middle" x="102.691" y="-117.17" font-family="Times,serif" font-size="14.00" fill="white">LUNLowHitPercent</text>
</a>
</g>
</g>
<!-- LowHitPercent -->
<g id="${uniqueid}_node6" class="node"><title>LowHitPercent</title>
<g id="a_${uniqueid}_node6"><a xlink:href="#2074712113737913" xlink:title="com.watch4net.alerting.operation.CaseOperation">
<polygon fill="#377eb8" stroke="black" points="366.382,-138.87 241.382,-138.87 241.382,-102.87 366.382,-102.87 366.382,-138.87"/>
<text text-anchor="middle" x="303.882" y="-117.17" font-family="Times,serif" font-size="14.00" fill="white">LowHitPercent</text>
</a>
</g>
</g>
<!-- LUNLowHitPercent&#45;&gt;LowHitPercent -->
<g id="${uniqueid}_edge5" class="edge"><title>LUNLowHitPercent:e&#45;&gt;LowHitPercent:w</title>
<path fill="none" stroke="black" d="M205.382,-120.87C217.382,-120.87 222.632,-120.87 231.257,-120.87"/>
<polygon fill="black" stroke="black" points="231.382,-124.37 241.382,-120.87 231.382,-117.37 231.382,-124.37"/>
</g>
<!-- LowHitPercent&#45;&gt;LUNLowHit
Percent_Crit -->
<g id="${uniqueid}_edge6" class="edge"><title>LowHitPercent:e&#45;&gt;LUNLowHit
Percent_Crit:w</title>
<path fill="none" stroke="black" d="M366.382,-120.87C397.162,-120.87 385.376,-168.046 406.512,-178.735"/>
<polygon fill="black" stroke="black" points="405.868,-182.176 416.382,-180.87 407.348,-175.334 405.868,-182.176"/>
</g>
<!-- LowHitPercent&#45;&gt;LUNLowHit
Percent_Minor -->
<g id="${uniqueid}_edge7" class="edge"><title>LowHitPercent:e&#45;&gt;LUNLowHit
Percent_Minor:w</title>
<path fill="none" stroke="black" d="M366.382,-120.87C393.35,-120.87 377.231,-75.7492 392.754,-63.764"/>
<polygon fill="black" stroke="black" points="393.813,-67.1007 402.382,-60.8701 391.798,-60.397 393.813,-67.1007"/>
</g>
</g>
</svg>
