<?xml version="1.0" encoding="UTF-8" standalone="no"?>
<!DOCTYPE svg PUBLIC "-//W3C//DTD SVG 1.1//EN"
 "http://www.w3.org/Graphics/SVG/1.1/DTD/svg11.dtd">
<!-- Generated by graphviz version 2.38.0 (20140413.2041)
 -->
<!-- Title: EMC VMAX Alert Definitions/VMAX&#45;Devices/High Write Bandwidth Pages: 1 -->
<svg width="917pt" height="388pt"
 viewBox="0.00 0.00 917.38 388.02" xmlns="http://www.w3.org/2000/svg" xmlns:xlink="http://www.w3.org/1999/xlink">
<g id="${uniqueid}" class="graph" transform="scale(1 1) rotate(0) translate(4 384.018)">
<title>EMC VMAX Alert Definitions/VMAX&#45;Devices/High Write Bandwidth</title>
<polygon fill="white" stroke="none" points="-4,4 -4,-384.018 913.382,-384.018 913.382,4 -4,4"/>
<!-- HighWrite
Bandwidth -->
<g id="${uniqueid}_node1" class="node"><title>HighWrite
Bandwidth</title>
<g id="a_${uniqueid}_node1"><a xlink:href="#2074542261275060" xlink:title="com.watch4net.alerting.operation.FilteredEntryPoint">
<ellipse fill="#984ea3" stroke="black" cx="66.468" cy="-201.87" rx="66.4361" ry="26.7407"/>
<text text-anchor="middle" x="66.468" y="-205.67" font-family="Times,serif" font-size="14.00" fill="white">HighWrite</text>
<text text-anchor="middle" x="66.468" y="-190.67" font-family="Times,serif" font-size="14.00" fill="white">Bandwidth</text>
</a>
</g>
</g>
<!-- HighWrite
Throughput_Case -->
<g id="${uniqueid}_node2" class="node"><title>HighWrite
Throughput_Case</title>
<g id="a_${uniqueid}_node2"><a xlink:href="#2074542261317482" xlink:title="com.watch4net.alerting.operation.CaseOperation">
<polygon fill="#377eb8" stroke="black" points="311.936,-220.87 168.936,-220.87 168.936,-182.87 311.936,-182.87 311.936,-220.87"/>
<text text-anchor="middle" x="240.436" y="-205.67" font-family="Times,serif" font-size="14.00" fill="white">HighWrite</text>
<text text-anchor="middle" x="240.436" y="-190.67" font-family="Times,serif" font-size="14.00" fill="white">Throughput_Case</text>
</a>
</g>
</g>
<!-- HighWrite
Bandwidth&#45;&gt;HighWrite
Throughput_Case -->
<g id="${uniqueid}_edge1" class="edge"><title>HighWrite
Bandwidth:e&#45;&gt;HighWrite
Throughput_Case:w</title>
<path fill="none" stroke="black" d="M132.936,-201.87C144.936,-201.87 150.186,-201.87 158.811,-201.87"/>
<polygon fill="black" stroke="black" points="158.936,-205.37 168.936,-201.87 158.936,-198.37 158.936,-205.37"/>
</g>
<!-- HighWrite
Throughput_Crit -->
<g id="${uniqueid}_node3" class="node"><title>HighWrite
Throughput_Crit</title>
<g id="a_${uniqueid}_node3"><a xlink:href="#2074542261326574" xlink:title="com.watch4net.alerting.operation.comparator.ConstantComparatorOperation">
<polygon fill="#ff7f00" stroke="black" points="498.936,-364.87 361.936,-326.87 498.936,-288.87 635.936,-326.87 498.936,-364.87"/>
<text text-anchor="middle" x="498.936" y="-330.67" font-family="Times,serif" font-size="14.00" fill="white">HighWrite</text>
<text text-anchor="middle" x="498.936" y="-315.67" font-family="Times,serif" font-size="14.00" fill="white">Throughput_Crit</text>
</a>
</g>
</g>
<!-- HighWrite
Throughput_Case&#45;&gt;HighWrite
Throughput_Crit -->
<g id="${uniqueid}_edge2" class="edge"><title>HighWrite
Throughput_Case:e&#45;&gt;HighWrite
Throughput_Crit:w</title>
<path fill="none" stroke="black" d="M311.936,-201.87C367.762,-201.87 309.792,-311.276 350.949,-325.379"/>
<polygon fill="black" stroke="black" points="350.529,-328.855 360.936,-326.87 351.562,-321.932 350.529,-328.855"/>
</g>
<!-- HighWrite
Throughput_Major -->
<g id="${uniqueid}_node4" class="node"><title>HighWrite
Throughput_Major</title>
<g id="a_${uniqueid}_node4"><a xlink:href="#2074542261380601" xlink:title="com.watch4net.alerting.operation.comparator.ConstantComparatorOperation">
<polygon fill="#ff7f00" stroke="black" points="498.936,-239.87 347.936,-201.87 498.936,-163.87 649.936,-201.87 498.936,-239.87"/>
<text text-anchor="middle" x="498.936" y="-205.67" font-family="Times,serif" font-size="14.00" fill="white">HighWrite</text>
<text text-anchor="middle" x="498.936" y="-190.67" font-family="Times,serif" font-size="14.00" fill="white">Throughput_Major</text>
</a>
</g>
</g>
<!-- HighWrite
Throughput_Case&#45;&gt;HighWrite
Throughput_Major -->
<g id="${uniqueid}_edge3" class="edge"><title>HighWrite
Throughput_Case:e&#45;&gt;HighWrite
Throughput_Major:w</title>
<path fill="none" stroke="black" d="M311.936,-201.87C323.936,-201.87 329.186,-201.87 337.811,-201.87"/>
<polygon fill="black" stroke="black" points="337.936,-205.37 347.936,-201.87 337.936,-198.37 337.936,-205.37"/>
</g>
<!-- HighWrite
Throughput_minor -->
<g id="${uniqueid}_node5" class="node"><title>HighWrite
Throughput_minor</title>
<g id="a_${uniqueid}_node5"><a xlink:href="#2074542261452333" xlink:title="com.watch4net.alerting.operation.comparator.ConstantComparatorOperation">
<polygon fill="#ff7f00" stroke="black" points="498.936,-105.87 348.936,-67.8701 498.936,-29.8701 648.936,-67.8701 498.936,-105.87"/>
<text text-anchor="middle" x="498.936" y="-71.6701" font-family="Times,serif" font-size="14.00" fill="white">HighWrite</text>
<text text-anchor="middle" x="498.936" y="-56.6701" font-family="Times,serif" font-size="14.00" fill="white">Throughput_minor</text>
</a>
</g>
</g>
<!-- HighWrite
Throughput_Case&#45;&gt;HighWrite
Throughput_minor -->
<g id="${uniqueid}_edge4" class="edge"><title>HighWrite
Throughput_Case:e&#45;&gt;HighWrite
Throughput_minor:w</title>
<path fill="none" stroke="black" d="M311.936,-201.87C369.749,-201.87 296.604,-84.0966 338.047,-69.3749"/>
<polygon fill="black" stroke="black" points="338.576,-72.8347 347.936,-67.8701 337.523,-65.9144 338.576,-72.8347"/>
</g>
<!-- High_Write_
Throughput_Crit -->
<g id="${uniqueid}_node6" class="node"><title>High_Write_
Throughput_Crit</title>
<g id="a_${uniqueid}_node6"><a xlink:href="#2074542261345494" xlink:title="com.watch4net.alerting.action.SNMPTrapAction">
<ellipse fill="#4daf4a" stroke="black" cx="797.659" cy="-296.87" rx="96.7474" ry="26.7407"/>
<text text-anchor="middle" x="797.659" y="-300.67" font-family="Times,serif" font-size="14.00" fill="white">High_Write_</text>
<text text-anchor="middle" x="797.659" y="-285.67" font-family="Times,serif" font-size="14.00" fill="white">Throughput_Crit</text>
</a>
</g>
</g>
<!-- HighWrite
Throughput_Crit&#45;&gt;High_Write_
Throughput_Crit -->
<g id="${uniqueid}_edge6" class="edge"><title>HighWrite
Throughput_Crit:se&#45;&gt;High_Write_
Throughput_Crit:w</title>
<path fill="none" stroke="black" d="M529.936,-296.87C580.775,-246.032 620.36,-292.104 689.274,-296.535"/>
<polygon fill="black" stroke="black" points="689.551,-300.046 699.659,-296.87 689.777,-293.049 689.551,-300.046"/>
<text text-anchor="middle" x="514.436" y="-285.67" font-family="Times,serif" font-size="14.00">true</text>
</g>
<!-- SNMP_Clear_Crit -->
<g id="${uniqueid}_node9" class="node"><title>SNMP_Clear_Crit</title>
<g id="a_${uniqueid}_node9"><a xlink:href="#2074542261366493" xlink:title="com.watch4net.alerting.action.SNMPTrapAction">
<ellipse fill="#4daf4a" stroke="black" cx="797.659" cy="-359.87" rx="94.7833" ry="18"/>
<text text-anchor="middle" x="797.659" y="-356.17" font-family="Times,serif" font-size="14.00" fill="white">SNMP_Clear_Crit</text>
</a>
</g>
</g>
<!-- HighWrite
Throughput_Crit&#45;&gt;SNMP_Clear_Crit -->
<g id="${uniqueid}_edge5" class="edge"><title>HighWrite
Throughput_Crit:ne&#45;&gt;SNMP_Clear_Crit:w</title>
<path fill="none" stroke="black" d="M527.936,-356.87C530.47,-359.404 526.25,-362.499 528.936,-364.87 564.587,-396.342 588.415,-366.675 635.936,-364.87 661.55,-363.897 670.23,-360.799 691.625,-360.039"/>
<polygon fill="black" stroke="black" points="691.719,-363.538 701.659,-359.87 691.601,-356.539 691.719,-363.538"/>
<text text-anchor="middle" x="510.936" y="-360.67" font-family="Times,serif" font-size="14.00">false</text>
</g>
<!-- High_Write_
throughput_Major -->
<g id="${uniqueid}_node7" class="node"><title>High_Write_
throughput_Major</title>
<g id="a_${uniqueid}_node7"><a xlink:href="#2074542261407390" xlink:title="com.watch4net.alerting.action.SNMPTrapAction">
<ellipse fill="#4daf4a" stroke="black" cx="797.659" cy="-170.87" rx="104.804" ry="26.7407"/>
<text text-anchor="middle" x="797.659" y="-174.67" font-family="Times,serif" font-size="14.00" fill="white">High_Write_</text>
<text text-anchor="middle" x="797.659" y="-159.67" font-family="Times,serif" font-size="14.00" fill="white">throughput_Major</text>
</a>
</g>
</g>
<!-- HighWrite
Throughput_Major&#45;&gt;High_Write_
throughput_Major -->
<g id="${uniqueid}_edge8" class="edge"><title>HighWrite
Throughput_Major:se&#45;&gt;High_Write_
throughput_Major:w</title>
<path fill="none" stroke="black" d="M529.936,-171.87C578.28,-123.526 615.942,-166.244 681.36,-170.531"/>
<polygon fill="black" stroke="black" points="681.549,-174.039 691.659,-170.87 681.779,-167.043 681.549,-174.039"/>
<text text-anchor="middle" x="514.436" y="-160.67" font-family="Times,serif" font-size="14.00">true</text>
</g>
<!-- SNMP_Clear_Major -->
<g id="${uniqueid}_node10" class="node"><title>SNMP_Clear_Major</title>
<g id="a_${uniqueid}_node10"><a xlink:href="#2074542261435410" xlink:title="com.watch4net.alerting.action.SNMPTrapAction">
<ellipse fill="#4daf4a" stroke="black" cx="797.659" cy="-233.87" rx="103.982" ry="18"/>
<text text-anchor="middle" x="797.659" y="-230.17" font-family="Times,serif" font-size="14.00" fill="white">SNMP_Clear_Major</text>
</a>
</g>
</g>
<!-- HighWrite
Throughput_Major&#45;&gt;SNMP_Clear_Major -->
<g id="${uniqueid}_edge7" class="edge"><title>HighWrite
Throughput_Major:ne&#45;&gt;SNMP_Clear_Major:w</title>
<path fill="none" stroke="black" d="M527.936,-231.87C530.47,-234.404 526.25,-237.499 528.936,-239.87 569.252,-275.46 596.289,-243.619 649.936,-239.87 665.178,-238.805 671.082,-235.627 682.554,-234.38"/>
<polygon fill="black" stroke="black" points="682.848,-237.87 692.659,-233.87 682.495,-230.879 682.848,-237.87"/>
<text text-anchor="middle" x="510.936" y="-235.67" font-family="Times,serif" font-size="14.00">false</text>
</g>
<!-- High_Write_
throughput_Minor -->
<g id="${uniqueid}_node8" class="node"><title>High_Write_
throughput_Minor</title>
<g id="a_${uniqueid}_node8"><a xlink:href="#2074542261468951" xlink:title="com.watch4net.alerting.action.SNMPTrapAction">
<ellipse fill="#4daf4a" stroke="black" cx="797.659" cy="-26.8701" rx="105.218" ry="26.7407"/>
<text text-anchor="middle" x="797.659" y="-30.6701" font-family="Times,serif" font-size="14.00" fill="white">High_Write_</text>
<text text-anchor="middle" x="797.659" y="-15.6701" font-family="Times,serif" font-size="14.00" fill="white">throughput_Minor</text>
</a>
</g>
</g>
<!-- HighWrite
Throughput_minor&#45;&gt;High_Write_
throughput_Minor -->
<g id="${uniqueid}_edge10" class="edge"><title>HighWrite
Throughput_minor:se&#45;&gt;High_Write_
throughput_Minor:w</title>
<path fill="none" stroke="black" d="M530.936,-36.8701C578.775,10.9685 615.763,-23.151 680.47,-26.5971"/>
<polygon fill="black" stroke="black" points="680.569,-30.1009 690.659,-26.8701 680.756,-23.1034 680.569,-30.1009"/>
<text text-anchor="middle" x="515.436" y="-25.6701" font-family="Times,serif" font-size="14.00">true</text>
</g>
<!-- SNMP_Clear_Trap_
Minor -->
<g id="${uniqueid}_node11" class="node"><title>SNMP_Clear_Trap_
Minor</title>
<g id="a_${uniqueid}_node11"><a xlink:href="#2074542261479760" xlink:title="com.watch4net.alerting.action.SNMPTrapAction">
<ellipse fill="#4daf4a" stroke="black" cx="797.659" cy="-98.8701" rx="111.946" ry="26.7407"/>
<text text-anchor="middle" x="797.659" y="-102.67" font-family="Times,serif" font-size="14.00" fill="white">SNMP_Clear_Trap_</text>
<text text-anchor="middle" x="797.659" y="-87.6701" font-family="Times,serif" font-size="14.00" fill="white">Minor</text>
</a>
</g>
</g>
<!-- HighWrite
Throughput_minor&#45;&gt;SNMP_Clear_Trap_
Minor -->
<g id="${uniqueid}_edge9" class="edge"><title>HighWrite
Throughput_minor:ne&#45;&gt;SNMP_Clear_Trap_
Minor:w</title>
<path fill="none" stroke="black" d="M528.936,-98.8701C531.158,-101.092 527.562,-103.811 529.936,-105.87 569.891,-140.523 596.278,-110.807 648.936,-105.87 661.564,-104.686 666.69,-101.277 675.715,-99.6946"/>
<polygon fill="black" stroke="black" points="676.25,-103.163 685.936,-98.8701 675.687,-96.1856 676.25,-103.163"/>
<text text-anchor="middle" x="511.936" y="-102.67" font-family="Times,serif" font-size="14.00">false</text>
</g>
</g>
</svg>
