<?xml version="1.0" encoding="UTF-8" standalone="no"?>
<!DOCTYPE svg PUBLIC "-//W3C//DTD SVG 1.1//EN"
 "http://www.w3.org/Graphics/SVG/1.1/DTD/svg11.dtd">
<!-- Generated by graphviz version 2.38.0 (20140413.2041)
 -->
<!-- Title: EMC VMAX Alert Definitions/VMAX&#45;Array/High Write Percent Pages: 1 -->
<svg width="938pt" height="428pt"
 viewBox="0.00 0.00 938.30 428.48" xmlns="http://www.w3.org/2000/svg" xmlns:xlink="http://www.w3.org/1999/xlink">
<g id="${uniqueid}" class="graph" transform="scale(1 1) rotate(0) translate(4 424.477)">
<title>EMC VMAX Alert Definitions/VMAX&#45;Array/High Write Percent</title>
<polygon fill="white" stroke="none" points="-4,4 -4,-424.477 934.301,-424.477 934.301,4 -4,4"/>
<!-- ArrayHighWrite
Percent_Critical -->
<g id="${uniqueid}_node1" class="node"><title>ArrayHighWrite
Percent_Critical</title>
<g id="a_${uniqueid}_node1"><a xlink:href="#1993110619057335" xlink:title="com.watch4net.alerting.operation.comparator.ConstantComparatorOperation">
<polygon fill="#ff7f00" stroke="black" points="543.584,-397.477 409.584,-359.477 543.584,-321.477 677.584,-359.477 543.584,-397.477"/>
<text text-anchor="middle" x="543.584" y="-363.277" font-family="Times,serif" font-size="14.00" fill="white">ArrayHighWrite</text>
<text text-anchor="middle" x="543.584" y="-348.277" font-family="Times,serif" font-size="14.00" fill="white">Percent_Critical</text>
</a>
</g>
</g>
<!-- Array_High_
Write_
Percentage_Crit -->
<g id="${uniqueid}_node5" class="node"><title>Array_High_
Write_
Percentage_Crit</title>
<g id="a_${uniqueid}_node5"><a xlink:href="#1993110619083935" xlink:title="com.watch4net.alerting.action.SNMPTrapAction">
<ellipse fill="#4daf4a" stroke="black" cx="824.943" cy="-329.477" rx="94.5053" ry="37.4533"/>
<text text-anchor="middle" x="824.943" y="-340.777" font-family="Times,serif" font-size="14.00" fill="white">Array_High_</text>
<text text-anchor="middle" x="824.943" y="-325.777" font-family="Times,serif" font-size="14.00" fill="white">Write_</text>
<text text-anchor="middle" x="824.943" y="-310.777" font-family="Times,serif" font-size="14.00" fill="white">Percentage_Crit</text>
</a>
</g>
</g>
<!-- ArrayHighWrite
Percent_Critical&#45;&gt;Array_High_
Write_
Percentage_Crit -->
<g id="${uniqueid}_edge2" class="edge"><title>ArrayHighWrite
Percent_Critical:se&#45;&gt;Array_High_
Write_
Percentage_Crit:w</title>
<path fill="none" stroke="black" d="M574.584,-329.477C620.631,-283.43 656.527,-324.8 718.728,-329.12"/>
<polygon fill="black" stroke="black" points="718.827,-332.626 728.943,-329.477 719.071,-325.63 718.827,-332.626"/>
<text text-anchor="middle" x="559.084" y="-318.277" font-family="Times,serif" font-size="14.00">true</text>
</g>
<!-- SNMP_Clear_Crit -->
<g id="${uniqueid}_node9" class="node"><title>SNMP_Clear_Crit</title>
<g id="a_${uniqueid}_node9"><a xlink:href="#1993110619108918" xlink:title="com.watch4net.alerting.action.SNMPTrapAction">
<ellipse fill="#4daf4a" stroke="black" cx="824.943" cy="-402.477" rx="94.7833" ry="18"/>
<text text-anchor="middle" x="824.943" y="-398.777" font-family="Times,serif" font-size="14.00" fill="white">SNMP_Clear_Crit</text>
</a>
</g>
</g>
<!-- ArrayHighWrite
Percent_Critical&#45;&gt;SNMP_Clear_Crit -->
<g id="${uniqueid}_edge1" class="edge"><title>ArrayHighWrite
Percent_Critical:ne&#45;&gt;SNMP_Clear_Crit:w</title>
<path fill="none" stroke="black" d="M572.584,-389.477C575.117,-392.01 570.936,-395.062 573.584,-397.477 622.04,-441.66 656.24,-406.469 718.673,-402.781"/>
<polygon fill="black" stroke="black" points="719.051,-406.272 728.943,-402.477 718.843,-399.275 719.051,-406.272"/>
<text text-anchor="middle" x="555.584" y="-393.277" font-family="Times,serif" font-size="14.00">false</text>
</g>
<!-- ArrayHighWrite
Percent_Major -->
<g id="${uniqueid}_node2" class="node"><title>ArrayHighWrite
Percent_Major</title>
<g id="a_${uniqueid}_node2"><a xlink:href="#1993110619128598" xlink:title="com.watch4net.alerting.operation.comparator.ConstantComparatorOperation">
<polygon fill="#ff7f00" stroke="black" points="543.584,-257.477 411.584,-219.477 543.584,-181.477 675.584,-219.477 543.584,-257.477"/>
<text text-anchor="middle" x="543.584" y="-223.277" font-family="Times,serif" font-size="14.00" fill="white">ArrayHighWrite</text>
<text text-anchor="middle" x="543.584" y="-208.277" font-family="Times,serif" font-size="14.00" fill="white">Percent_Major</text>
</a>
</g>
</g>
<!-- Array_High_
Write_Percent_
Major -->
<g id="${uniqueid}_node7" class="node"><title>Array_High_
Write_Percent_
Major</title>
<g id="a_${uniqueid}_node7"><a xlink:href="#1993110619149425" xlink:title="com.watch4net.alerting.action.SNMPTrapAction">
<ellipse fill="#4daf4a" stroke="black" cx="824.943" cy="-183.477" rx="89.6056" ry="37.4533"/>
<text text-anchor="middle" x="824.943" y="-194.777" font-family="Times,serif" font-size="14.00" fill="white">Array_High_</text>
<text text-anchor="middle" x="824.943" y="-179.777" font-family="Times,serif" font-size="14.00" fill="white">Write_Percent_</text>
<text text-anchor="middle" x="824.943" y="-164.777" font-family="Times,serif" font-size="14.00" fill="white">Major</text>
</a>
</g>
</g>
<!-- ArrayHighWrite
Percent_Major&#45;&gt;Array_High_
Write_Percent_
Major -->
<g id="${uniqueid}_edge4" class="edge"><title>ArrayHighWrite
Percent_Major:se&#45;&gt;Array_High_
Write_Percent_
Major:w</title>
<path fill="none" stroke="black" d="M574.584,-189.477C622.254,-141.807 659.292,-179.393 723.788,-183.177"/>
<polygon fill="black" stroke="black" points="723.844,-186.68 733.943,-183.477 724.05,-179.683 723.844,-186.68"/>
<text text-anchor="middle" x="559.084" y="-178.277" font-family="Times,serif" font-size="14.00">true</text>
</g>
<!-- SNMP_Clear_Major -->
<g id="${uniqueid}_node10" class="node"><title>SNMP_Clear_Major</title>
<g id="a_${uniqueid}_node10"><a xlink:href="#1993110619169874" xlink:title="com.watch4net.alerting.action.SNMPTrapAction">
<ellipse fill="#4daf4a" stroke="black" cx="824.943" cy="-256.477" rx="103.982" ry="18"/>
<text text-anchor="middle" x="824.943" y="-252.777" font-family="Times,serif" font-size="14.00" fill="white">SNMP_Clear_Major</text>
</a>
</g>
</g>
<!-- ArrayHighWrite
Percent_Major&#45;&gt;SNMP_Clear_Major -->
<g id="${uniqueid}_edge3" class="edge"><title>ArrayHighWrite
Percent_Major:ne&#45;&gt;SNMP_Clear_Major:w</title>
<path fill="none" stroke="black" d="M572.584,-249.477C575.117,-252.01 570.897,-255.105 573.584,-257.477 607.569,-287.478 630.253,-257.988 675.584,-257.477 691.451,-257.298 697.736,-256.759 709.861,-256.556"/>
<polygon fill="black" stroke="black" points="709.97,-260.055 719.943,-256.477 709.915,-253.055 709.97,-260.055"/>
<text text-anchor="middle" x="555.584" y="-253.277" font-family="Times,serif" font-size="14.00">false</text>
</g>
<!-- ArrayWriteIORate -->
<g id="${uniqueid}_node3" class="node"><title>ArrayWriteIORate</title>
<g id="a_${uniqueid}_node3"><a xlink:href="#1993110619041277" xlink:title="com.watch4net.alerting.operation.CaseOperation">
<polygon fill="#377eb8" stroke="black" points="367.584,-237.477 220.584,-237.477 220.584,-201.477 367.584,-201.477 367.584,-237.477"/>
<text text-anchor="middle" x="294.084" y="-215.777" font-family="Times,serif" font-size="14.00" fill="white">ArrayWriteIORate</text>
</a>
</g>
</g>
<!-- ArrayWriteIORate&#45;&gt;ArrayHighWrite
Percent_Critical -->
<g id="${uniqueid}_edge5" class="edge"><title>ArrayWriteIORate:e&#45;&gt;ArrayHighWrite
Percent_Critical:w</title>
<path fill="none" stroke="black" d="M367.584,-219.477C428.494,-219.477 353.923,-343.037 398.427,-357.999"/>
<polygon fill="black" stroke="black" points="398.184,-361.501 408.584,-359.477 399.192,-354.573 398.184,-361.501"/>
</g>
<!-- ArrayWriteIORate&#45;&gt;ArrayHighWrite
Percent_Major -->
<g id="${uniqueid}_edge6" class="edge"><title>ArrayWriteIORate:e&#45;&gt;ArrayHighWrite
Percent_Major:w</title>
<path fill="none" stroke="black" d="M367.584,-219.477C382.813,-219.477 388.94,-219.477 400.472,-219.477"/>
<polygon fill="black" stroke="black" points="400.584,-222.977 410.584,-219.477 400.584,-215.977 400.584,-222.977"/>
</g>
<!-- Array_HighWrite
Percent_Minor -->
<g id="${uniqueid}_node4" class="node"><title>Array_HighWrite
Percent_Minor</title>
<g id="a_${uniqueid}_node4"><a xlink:href="#1993110619189477" xlink:title="com.watch4net.alerting.operation.comparator.ConstantComparatorOperation">
<polygon fill="#ff7f00" stroke="black" points="543.584,-118.477 403.584,-80.4767 543.584,-42.4767 683.584,-80.4767 543.584,-118.477"/>
<text text-anchor="middle" x="543.584" y="-84.2767" font-family="Times,serif" font-size="14.00" fill="white">Array_HighWrite</text>
<text text-anchor="middle" x="543.584" y="-69.2767" font-family="Times,serif" font-size="14.00" fill="white">Percent_Minor</text>
</a>
</g>
</g>
<!-- ArrayWriteIORate&#45;&gt;Array_HighWrite
Percent_Minor -->
<g id="${uniqueid}_edge7" class="edge"><title>ArrayWriteIORate:e&#45;&gt;Array_HighWrite
Percent_Minor:w</title>
<path fill="none" stroke="black" d="M367.584,-219.477C427.536,-219.477 350.294,-96.7991 393.633,-81.9436"/>
<polygon fill="black" stroke="black" points="394.201,-85.3978 403.584,-80.4767 393.18,-78.4726 394.201,-85.3978"/>
</g>
<!-- Array_High_
Write_
Percentage_Minor -->
<g id="${uniqueid}_node6" class="node"><title>Array_High_
Write_
Percentage_Minor</title>
<g id="a_${uniqueid}_node6"><a xlink:href="#1993110619318854" xlink:title="com.watch4net.alerting.action.SNMPTrapAction">
<ellipse fill="#4daf4a" stroke="black" cx="824.943" cy="-37.4767" rx="105.218" ry="37.4533"/>
<text text-anchor="middle" x="824.943" y="-48.7767" font-family="Times,serif" font-size="14.00" fill="white">Array_High_</text>
<text text-anchor="middle" x="824.943" y="-33.7767" font-family="Times,serif" font-size="14.00" fill="white">Write_</text>
<text text-anchor="middle" x="824.943" y="-18.7767" font-family="Times,serif" font-size="14.00" fill="white">Percentage_Minor</text>
</a>
</g>
</g>
<!-- Array_HighWrite
Percent_Minor&#45;&gt;Array_High_
Write_
Percentage_Minor -->
<g id="${uniqueid}_edge9" class="edge"><title>Array_HighWrite
Percent_Minor:se&#45;&gt;Array_High_
Write_
Percentage_Minor:w</title>
<path fill="none" stroke="black" d="M574.584,-50.4767C617.833,-7.22683 651.069,-34.1292 709.232,-37.201"/>
<polygon fill="black" stroke="black" points="709.494,-40.7091 719.584,-37.4767 709.68,-33.7116 709.494,-40.7091"/>
<text text-anchor="middle" x="559.084" y="-39.2767" font-family="Times,serif" font-size="14.00">true</text>
</g>
<!-- SNMP_Clear_Minor -->
<g id="${uniqueid}_node11" class="node"><title>SNMP_Clear_Minor</title>
<g id="a_${uniqueid}_node11"><a xlink:href="#1993110619345959" xlink:title="com.watch4net.alerting.action.SNMPTrapAction">
<ellipse fill="#4daf4a" stroke="black" cx="824.943" cy="-110.477" rx="104.782" ry="18"/>
<text text-anchor="middle" x="824.943" y="-106.777" font-family="Times,serif" font-size="14.00" fill="white">SNMP_Clear_Minor</text>
</a>
</g>
</g>
<!-- Array_HighWrite
Percent_Minor&#45;&gt;SNMP_Clear_Minor -->
<g id="${uniqueid}_edge8" class="edge"><title>Array_HighWrite
Percent_Minor:ne&#45;&gt;SNMP_Clear_Minor:w</title>
<path fill="none" stroke="black" d="M572.584,-110.477C575.117,-113.01 570.897,-116.105 573.584,-118.477 610.235,-150.831 634.987,-123.811 683.584,-118.477 695.93,-117.121 700.825,-113.226 709.605,-111.419"/>
<polygon fill="black" stroke="black" points="709.957,-114.901 719.584,-110.477 709.299,-107.932 709.957,-114.901"/>
<text text-anchor="middle" x="555.584" y="-114.277" font-family="Times,serif" font-size="14.00">false</text>
</g>
<!-- HighWriteIORate -->
<g id="${uniqueid}_node8" class="node"><title>HighWriteIORate</title>
<g id="a_${uniqueid}_node8"><a xlink:href="#1993110618983075" xlink:title="com.watch4net.alerting.operation.FilteredEntryPoint">
<ellipse fill="#984ea3" stroke="black" cx="92.2918" cy="-219.477" rx="92.0841" ry="18"/>
<text text-anchor="middle" x="92.2918" y="-215.777" font-family="Times,serif" font-size="14.00" fill="white">HighWriteIORate</text>
</a>
</g>
</g>
<!-- HighWriteIORate&#45;&gt;ArrayWriteIORate -->
<g id="${uniqueid}_edge10" class="edge"><title>HighWriteIORate:e&#45;&gt;ArrayWriteIORate:w</title>
<path fill="none" stroke="black" d="M184.584,-219.477C196.584,-219.477 201.834,-219.477 210.459,-219.477"/>
<polygon fill="black" stroke="black" points="210.584,-222.977 220.584,-219.477 210.584,-215.977 210.584,-222.977"/>
</g>
</g>
</svg>
