<?xml version="1.0" encoding="UTF-8" standalone="no"?>
<!DOCTYPE svg PUBLIC "-//W3C//DTD SVG 1.1//EN"
 "http://www.w3.org/Graphics/SVG/1.1/DTD/svg11.dtd">
<!-- Generated by graphviz version 2.38.0 (20140413.2041)
 -->
<!-- Title: HP 3PAR Alert Definitions/3PAR&#45;Disks/High Write Bandwidth Pages: 1 -->
<svg width="923pt" height="422pt"
 viewBox="0.00 0.00 922.98 421.74" xmlns="http://www.w3.org/2000/svg" xmlns:xlink="http://www.w3.org/1999/xlink">
<g id="${uniqueid}" class="graph" transform="scale(1 1) rotate(0) translate(4 417.74)">
<title>HP 3PAR Alert Definitions/3PAR&#45;Disks/High Write Bandwidth</title>
<polygon fill="white" stroke="none" points="-4,4 -4,-417.74 918.98,-417.74 918.98,4 -4,4"/>
<!-- Case Generator -->
<g id="${uniqueid}_node1" class="node"><title>Case Generator</title>
<g id="a_${uniqueid}_node1"><a xlink:href="#376016988381119" xlink:title="com.watch4net.alerting.operation.CaseOperation">
<polygon fill="#377eb8" stroke="black" points="361.576,-224.87 232.576,-224.87 232.576,-188.87 361.576,-188.87 361.576,-224.87"/>
<text text-anchor="middle" x="297.076" y="-203.17" font-family="Times,serif" font-size="14.00" fill="white">Case Generator</text>
</a>
</g>
</g>
<!-- WriteBandwidth_
CRIT -->
<g id="${uniqueid}_node3" class="node"><title>WriteBandwidth_
CRIT</title>
<g id="a_${uniqueid}_node3"><a xlink:href="#376016988387232" xlink:title="com.watch4net.alerting.operation.comparator.ConstantComparatorOperation">
<polygon fill="#ff7f00" stroke="black" points="538.576,-382.87 397.576,-344.87 538.576,-306.87 679.576,-344.87 538.576,-382.87"/>
<text text-anchor="middle" x="538.576" y="-348.67" font-family="Times,serif" font-size="14.00" fill="white">WriteBandwidth_</text>
<text text-anchor="middle" x="538.576" y="-333.67" font-family="Times,serif" font-size="14.00" fill="white">CRIT</text>
</a>
</g>
</g>
<!-- Case Generator&#45;&gt;WriteBandwidth_
CRIT -->
<g id="${uniqueid}_edge1" class="edge"><title>Case Generator:e&#45;&gt;WriteBandwidth_
CRIT:w</title>
<path fill="none" stroke="black" d="M361.576,-206.87C421,-206.87 344.934,-328.159 387.422,-343.32"/>
<polygon fill="black" stroke="black" points="387.162,-346.821 397.576,-344.87 388.218,-339.901 387.162,-346.821"/>
</g>
<!-- WriteBandwidth_
MAJOR -->
<g id="${uniqueid}_node6" class="node"><title>WriteBandwidth_
MAJOR</title>
<g id="a_${uniqueid}_node6"><a xlink:href="#376016988423331" xlink:title="com.watch4net.alerting.operation.comparator.ConstantComparatorOperation">
<polygon fill="#ff7f00" stroke="black" points="538.576,-244.87 397.576,-206.87 538.576,-168.87 679.576,-206.87 538.576,-244.87"/>
<text text-anchor="middle" x="538.576" y="-210.67" font-family="Times,serif" font-size="14.00" fill="white">WriteBandwidth_</text>
<text text-anchor="middle" x="538.576" y="-195.67" font-family="Times,serif" font-size="14.00" fill="white">MAJOR</text>
</a>
</g>
</g>
<!-- Case Generator&#45;&gt;WriteBandwidth_
MAJOR -->
<g id="${uniqueid}_edge2" class="edge"><title>Case Generator:e&#45;&gt;WriteBandwidth_
MAJOR:w</title>
<path fill="none" stroke="black" d="M361.576,-206.87C373.576,-206.87 378.826,-206.87 387.451,-206.87"/>
<polygon fill="black" stroke="black" points="387.576,-210.37 397.576,-206.87 387.576,-203.37 387.576,-210.37"/>
</g>
<!-- WriteBandwidth_
MINOR -->
<g id="${uniqueid}_node7" class="node"><title>WriteBandwidth_
MINOR</title>
<g id="a_${uniqueid}_node7"><a xlink:href="#376016988448844" xlink:title="com.watch4net.alerting.operation.comparator.ConstantComparatorOperation">
<polygon fill="#ff7f00" stroke="black" points="538.576,-106.87 397.576,-68.8701 538.576,-30.8701 679.576,-68.8701 538.576,-106.87"/>
<text text-anchor="middle" x="538.576" y="-72.6701" font-family="Times,serif" font-size="14.00" fill="white">WriteBandwidth_</text>
<text text-anchor="middle" x="538.576" y="-57.6701" font-family="Times,serif" font-size="14.00" fill="white">MINOR</text>
</a>
</g>
</g>
<!-- Case Generator&#45;&gt;WriteBandwidth_
MINOR -->
<g id="${uniqueid}_edge3" class="edge"><title>Case Generator:e&#45;&gt;WriteBandwidth_
MINOR:w</title>
<path fill="none" stroke="black" d="M361.576,-206.87C421,-206.87 344.934,-85.581 387.422,-70.4199"/>
<polygon fill="black" stroke="black" points="388.218,-73.839 397.576,-68.8701 387.162,-66.9191 388.218,-73.839"/>
</g>
<!-- HighWrite
Bandwidth Entry -->
<g id="${uniqueid}_node2" class="node"><title>HighWrite
Bandwidth Entry</title>
<g id="a_${uniqueid}_node2"><a xlink:href="#376016988341488" xlink:title="com.watch4net.alerting.operation.FilteredEntryPoint">
<ellipse fill="#984ea3" stroke="black" cx="98.2878" cy="-206.87" rx="98.0761" ry="26.7407"/>
<text text-anchor="middle" x="98.2878" y="-210.67" font-family="Times,serif" font-size="14.00" fill="white">HighWrite</text>
<text text-anchor="middle" x="98.2878" y="-195.67" font-family="Times,serif" font-size="14.00" fill="white">Bandwidth Entry</text>
</a>
</g>
</g>
<!-- HighWrite
Bandwidth Entry&#45;&gt;Case Generator -->
<g id="${uniqueid}_edge4" class="edge"><title>HighWrite
Bandwidth Entry:e&#45;&gt;Case Generator:w</title>
<path fill="none" stroke="black" d="M196.576,-206.87C208.576,-206.87 213.826,-206.87 222.451,-206.87"/>
<polygon fill="black" stroke="black" points="222.576,-210.37 232.576,-206.87 222.576,-203.37 222.576,-210.37"/>
</g>
<!-- WriteBandwidth_
CRIT clear trap -->
<g id="${uniqueid}_node4" class="node"><title>WriteBandwidth_
CRIT clear trap</title>
<g id="a_${uniqueid}_node4"><a xlink:href="#376016988414953" xlink:title="com.watch4net.alerting.action.SNMPTrapAction">
<ellipse fill="#4daf4a" stroke="black" cx="815.278" cy="-386.87" rx="99.9045" ry="26.7407"/>
<text text-anchor="middle" x="815.278" y="-390.67" font-family="Times,serif" font-size="14.00" fill="white">WriteBandwidth_</text>
<text text-anchor="middle" x="815.278" y="-375.67" font-family="Times,serif" font-size="14.00" fill="white">CRIT clear trap</text>
</a>
</g>
</g>
<!-- WriteBandwidth_
CRIT&#45;&gt;WriteBandwidth_
CRIT clear trap -->
<g id="${uniqueid}_edge5" class="edge"><title>WriteBandwidth_
CRIT:ne&#45;&gt;WriteBandwidth_
CRIT clear trap:w</title>
<path fill="none" stroke="black" d="M567.576,-374.87C570.109,-377.404 565.922,-380.462 568.576,-382.87 614.427,-424.47 646.67,-390.847 705.497,-387.185"/>
<polygon fill="black" stroke="black" points="705.69,-390.681 715.576,-386.87 705.471,-383.684 705.69,-390.681"/>
<text text-anchor="middle" x="550.576" y="-378.67" font-family="Times,serif" font-size="14.00">false</text>
</g>
<!-- WriteBandwidth_
CRIT trap -->
<g id="${uniqueid}_node5" class="node"><title>WriteBandwidth_
CRIT trap</title>
<g id="a_${uniqueid}_node5"><a xlink:href="#376016988398445" xlink:title="com.watch4net.alerting.action.SNMPTrapAction">
<ellipse fill="#4daf4a" stroke="black" cx="815.278" cy="-314.87" rx="99.9045" ry="26.7407"/>
<text text-anchor="middle" x="815.278" y="-318.67" font-family="Times,serif" font-size="14.00" fill="white">WriteBandwidth_</text>
<text text-anchor="middle" x="815.278" y="-303.67" font-family="Times,serif" font-size="14.00" fill="white">CRIT trap</text>
</a>
</g>
</g>
<!-- WriteBandwidth_
CRIT&#45;&gt;WriteBandwidth_
CRIT trap -->
<g id="${uniqueid}_edge6" class="edge"><title>WriteBandwidth_
CRIT:se&#45;&gt;WriteBandwidth_
CRIT trap:w</title>
<path fill="none" stroke="black" d="M569.576,-314.87C613.039,-271.406 646.942,-310.286 705.552,-314.507"/>
<polygon fill="black" stroke="black" points="705.456,-318.006 715.576,-314.87 705.709,-311.011 705.456,-318.006"/>
<text text-anchor="middle" x="554.076" y="-303.67" font-family="Times,serif" font-size="14.00">true</text>
</g>
<!-- WriteBandwidth_
Major clear trap -->
<g id="${uniqueid}_node8" class="node"><title>WriteBandwidth_
Major clear trap</title>
<g id="a_${uniqueid}_node8"><a xlink:href="#376016988438812" xlink:title="com.watch4net.alerting.action.SNMPTrapAction">
<ellipse fill="#4daf4a" stroke="black" cx="815.278" cy="-242.87" rx="99.9045" ry="26.7407"/>
<text text-anchor="middle" x="815.278" y="-246.67" font-family="Times,serif" font-size="14.00" fill="white">WriteBandwidth_</text>
<text text-anchor="middle" x="815.278" y="-231.67" font-family="Times,serif" font-size="14.00" fill="white">Major clear trap</text>
</a>
</g>
</g>
<!-- WriteBandwidth_
MAJOR&#45;&gt;WriteBandwidth_
Major clear trap -->
<g id="${uniqueid}_edge7" class="edge"><title>WriteBandwidth_
MAJOR:ne&#45;&gt;WriteBandwidth_
Major clear trap:w</title>
<path fill="none" stroke="black" d="M567.576,-236.87C570.109,-239.404 565.889,-242.499 568.576,-244.87 605.56,-277.519 630.261,-246.239 679.576,-244.87 691.59,-244.537 696.819,-243.578 705.443,-243.12"/>
<polygon fill="black" stroke="black" points="705.665,-246.616 715.576,-242.87 705.492,-239.618 705.665,-246.616"/>
<text text-anchor="middle" x="550.576" y="-240.67" font-family="Times,serif" font-size="14.00">false</text>
</g>
<!-- WriteBandwidth_
Major trap -->
<g id="${uniqueid}_node9" class="node"><title>WriteBandwidth_
Major trap</title>
<g id="a_${uniqueid}_node9"><a xlink:href="#376016988429710" xlink:title="com.watch4net.alerting.action.SNMPTrapAction">
<ellipse fill="#4daf4a" stroke="black" cx="815.278" cy="-170.87" rx="99.9045" ry="26.7407"/>
<text text-anchor="middle" x="815.278" y="-174.67" font-family="Times,serif" font-size="14.00" fill="white">WriteBandwidth_</text>
<text text-anchor="middle" x="815.278" y="-159.67" font-family="Times,serif" font-size="14.00" fill="white">Major trap</text>
</a>
</g>
</g>
<!-- WriteBandwidth_
MAJOR&#45;&gt;WriteBandwidth_
Major trap -->
<g id="${uniqueid}_edge8" class="edge"><title>WriteBandwidth_
MAJOR:se&#45;&gt;WriteBandwidth_
Major trap:w</title>
<path fill="none" stroke="black" d="M569.576,-176.87C613.076,-133.37 646.896,-166.898 705.544,-170.555"/>
<polygon fill="black" stroke="black" points="705.471,-174.055 715.576,-170.87 705.69,-167.058 705.471,-174.055"/>
<text text-anchor="middle" x="554.076" y="-165.67" font-family="Times,serif" font-size="14.00">true</text>
</g>
<!-- WriteBandwidth_
Minor clear trap -->
<g id="${uniqueid}_node10" class="node"><title>WriteBandwidth_
Minor clear trap</title>
<g id="a_${uniqueid}_node10"><a xlink:href="#376016988464498" xlink:title="com.watch4net.alerting.action.SNMPTrapAction">
<ellipse fill="#4daf4a" stroke="black" cx="815.278" cy="-98.8701" rx="99.9045" ry="26.7407"/>
<text text-anchor="middle" x="815.278" y="-102.67" font-family="Times,serif" font-size="14.00" fill="white">WriteBandwidth_</text>
<text text-anchor="middle" x="815.278" y="-87.6701" font-family="Times,serif" font-size="14.00" fill="white">Minor clear trap</text>
</a>
</g>
</g>
<!-- WriteBandwidth_
MINOR&#45;&gt;WriteBandwidth_
Minor clear trap -->
<g id="${uniqueid}_edge9" class="edge"><title>WriteBandwidth_
MINOR:ne&#45;&gt;WriteBandwidth_
Minor clear trap:w</title>
<path fill="none" stroke="black" d="M567.576,-98.8701C570.109,-101.404 565.889,-104.499 568.576,-106.87 605.56,-139.519 630.537,-112.253 679.576,-106.87 691.922,-105.515 696.818,-101.619 705.597,-99.812"/>
<polygon fill="black" stroke="black" points="705.949,-103.294 715.576,-98.8701 705.291,-96.3255 705.949,-103.294"/>
<text text-anchor="middle" x="550.576" y="-102.67" font-family="Times,serif" font-size="14.00">false</text>
</g>
<!-- WriteBandwidth_
Minor trap -->
<g id="${uniqueid}_node11" class="node"><title>WriteBandwidth_
Minor trap</title>
<g id="a_${uniqueid}_node11"><a xlink:href="#376016988455321" xlink:title="com.watch4net.alerting.action.SNMPTrapAction">
<ellipse fill="#4daf4a" stroke="black" cx="815.278" cy="-26.8701" rx="99.9045" ry="26.7407"/>
<text text-anchor="middle" x="815.278" y="-30.6701" font-family="Times,serif" font-size="14.00" fill="white">WriteBandwidth_</text>
<text text-anchor="middle" x="815.278" y="-15.6701" font-family="Times,serif" font-size="14.00" fill="white">Minor trap</text>
</a>
</g>
</g>
<!-- WriteBandwidth_
MINOR&#45;&gt;WriteBandwidth_
Minor trap -->
<g id="${uniqueid}_edge10" class="edge"><title>WriteBandwidth_
MINOR:se&#45;&gt;WriteBandwidth_
Minor trap:w</title>
<path fill="none" stroke="black" d="M569.576,-38.8701C613.186,4.74025 646.761,-23.5028 705.522,-26.6028"/>
<polygon fill="black" stroke="black" points="705.486,-30.103 715.576,-26.8701 705.672,-23.1055 705.486,-30.103"/>
<text text-anchor="middle" x="554.076" y="-27.6701" font-family="Times,serif" font-size="14.00">true</text>
</g>
</g>
</svg>
