<?xml version="1.0" encoding="UTF-8" standalone="no"?>
<!DOCTYPE svg PUBLIC "-//W3C//DTD SVG 1.1//EN"
 "http://www.w3.org/Graphics/SVG/1.1/DTD/svg11.dtd">
<!-- Generated by graphviz version 2.38.0 (20140413.2041)
 -->
<!-- Title: IBM SAN Volume Controller Storwize Alert Definitions/SVC&#45;Virtual Pool/Operational Status Pages: 1 -->
<svg width="735pt" height="550pt"
 viewBox="0.00 0.00 734.52 550.48" xmlns="http://www.w3.org/2000/svg" xmlns:xlink="http://www.w3.org/1999/xlink">
<g id="${uniqueid}" class="graph" transform="scale(1 1) rotate(0) translate(4 546.477)">
<title>IBM SAN Volume Controller Storwize Alert Definitions/SVC&#45;Virtual Pool/Operational Status</title>
<polygon fill="white" stroke="none" points="-4,4 -4,-546.477 730.518,-546.477 730.518,4 -4,4"/>
<!-- Alert Severity -->
<g id="${uniqueid}_node1" class="node"><title>Alert Severity</title>
<g id="a_${uniqueid}_node1"><a xlink:href="#381090130870361" xlink:title="com.watch4net.alerting.operation.CaseOperation">
<polygon fill="#377eb8" stroke="black" points="319.22,-304.477 197.22,-304.477 197.22,-268.477 319.22,-268.477 319.22,-304.477"/>
<text text-anchor="middle" x="258.22" y="-282.777" font-family="Times,serif" font-size="14.00" fill="white">Alert Severity</text>
</a>
</g>
</g>
<!-- Info -->
<g id="${uniqueid}_node2" class="node"><title>Info</title>
<g id="a_${uniqueid}_node2"><a xlink:href="#381090130878568" xlink:title="com.watch4net.alerting.operation.comparator.ConstantComparatorOperation">
<polygon fill="#ff7f00" stroke="black" points="425.995,-492.477 382.594,-474.477 425.995,-456.477 469.397,-474.477 425.995,-492.477"/>
<text text-anchor="middle" x="425.995" y="-470.777" font-family="Times,serif" font-size="14.00" fill="white">Info</text>
</a>
</g>
</g>
<!-- Alert Severity&#45;&gt;Info -->
<g id="${uniqueid}_edge1" class="edge"><title>Alert Severity:e&#45;&gt;Info:w</title>
<path fill="none" stroke="black" d="M319.22,-286.477C403.392,-286.477 302.479,-458.668 370.745,-473.465"/>
<polygon fill="black" stroke="black" points="370.7,-476.978 380.995,-474.477 371.388,-470.011 370.7,-476.978"/>
</g>
<!-- critical -->
<g id="${uniqueid}_node8" class="node"><title>critical</title>
<g id="a_${uniqueid}_node8"><a xlink:href="#381090130912672" xlink:title="com.watch4net.alerting.operation.comparator.ConstantComparatorOperation">
<polygon fill="#ff7f00" stroke="black" points="425.995,-349.477 355.445,-331.477 425.995,-313.477 496.546,-331.477 425.995,-349.477"/>
<text text-anchor="middle" x="425.995" y="-327.777" font-family="Times,serif" font-size="14.00" fill="white">critical</text>
</a>
</g>
</g>
<!-- Alert Severity&#45;&gt;critical -->
<g id="${uniqueid}_edge2" class="edge"><title>Alert Severity:e&#45;&gt;critical:w</title>
<path fill="none" stroke="black" d="M319.22,-286.477C340.631,-286.477 333.504,-317.922 345.551,-328.24"/>
<polygon fill="black" stroke="black" points="344.627,-331.622 355.22,-331.477 346.848,-324.984 344.627,-331.622"/>
</g>
<!-- major -->
<g id="${uniqueid}_node11" class="node"><title>major</title>
<g id="a_${uniqueid}_node11"><a xlink:href="#381090130940365" xlink:title="com.watch4net.alerting.operation.comparator.ConstantComparatorOperation">
<polygon fill="#ff7f00" stroke="black" points="425.995,-259.477 376.226,-241.477 425.995,-223.477 475.765,-241.477 425.995,-259.477"/>
<text text-anchor="middle" x="425.995" y="-237.777" font-family="Times,serif" font-size="14.00" fill="white">major</text>
</a>
</g>
</g>
<!-- Alert Severity&#45;&gt;major -->
<g id="${uniqueid}_edge3" class="edge"><title>Alert Severity:e&#45;&gt;major:w</title>
<path fill="none" stroke="black" d="M319.22,-286.477C347.214,-286.477 344.481,-251.715 365.033,-243.296"/>
<polygon fill="black" stroke="black" points="365.787,-246.717 374.995,-241.477 364.529,-239.831 365.787,-246.717"/>
</g>
<!-- warning -->
<g id="${uniqueid}_node13" class="node"><title>warning</title>
<g id="a_${uniqueid}_node13"><a xlink:href="#381090130968930" xlink:title="com.watch4net.alerting.operation.comparator.ConstantComparatorOperation">
<polygon fill="#ff7f00" stroke="black" points="425.995,-123.477 362.652,-105.477 425.995,-87.4767 489.339,-105.477 425.995,-123.477"/>
<text text-anchor="middle" x="425.995" y="-101.777" font-family="Times,serif" font-size="14.00" fill="white">warning</text>
</a>
</g>
</g>
<!-- Alert Severity&#45;&gt;warning -->
<g id="${uniqueid}_edge4" class="edge"><title>Alert Severity:e&#45;&gt;warning:w</title>
<path fill="none" stroke="black" d="M319.22,-286.477C398.006,-286.477 290.373,-122.048 351.682,-106.632"/>
<polygon fill="black" stroke="black" points="352.447,-110.069 361.995,-105.477 351.668,-103.112 352.447,-110.069"/>
</g>
<!-- availability&#45;
info&#45;alert&#45;trap -->
<g id="${uniqueid}_node5" class="node"><title>availability&#45;
info&#45;alert&#45;trap</title>
<g id="a_${uniqueid}_node5"><a xlink:href="#381090130892338" xlink:title="com.watch4net.alerting.action.SNMPTrapAction">
<ellipse fill="#4daf4a" stroke="black" cx="629.644" cy="-461.477" rx="91.4341" ry="26.7407"/>
<text text-anchor="middle" x="629.644" y="-465.277" font-family="Times,serif" font-size="14.00" fill="white">availability&#45;</text>
<text text-anchor="middle" x="629.644" y="-450.277" font-family="Times,serif" font-size="14.00" fill="white">info&#45;alert&#45;trap</text>
</a>
</g>
</g>
<!-- Info&#45;&gt;availability&#45;
info&#45;alert&#45;trap -->
<g id="${uniqueid}_edge6" class="edge"><title>Info:se&#45;&gt;availability&#45;
info&#45;alert&#45;trap:w</title>
<path fill="none" stroke="black" d="M439.995,-461.477C467.878,-433.594 489.816,-456.902 526.455,-460.914"/>
<polygon fill="black" stroke="black" points="526.466,-464.42 536.644,-461.477 526.852,-457.43 526.466,-464.42"/>
<text text-anchor="middle" x="455.495" y="-450.277" font-family="Times,serif" font-size="14.00">true</text>
</g>
<!-- info&#45;clear&#45;trap -->
<g id="${uniqueid}_node10" class="node"><title>info&#45;clear&#45;trap</title>
<g id="a_${uniqueid}_node10"><a xlink:href="#381090130904789" xlink:title="com.watch4net.alerting.action.SNMPTrapAction">
<ellipse fill="#4daf4a" stroke="black" cx="629.644" cy="-524.477" rx="83.6854" ry="18"/>
<text text-anchor="middle" x="629.644" y="-520.777" font-family="Times,serif" font-size="14.00" fill="white">info&#45;clear&#45;trap</text>
</a>
</g>
</g>
<!-- Info&#45;&gt;info&#45;clear&#45;trap -->
<g id="${uniqueid}_edge5" class="edge"><title>Info:ne&#45;&gt;info&#45;clear&#45;trap:w</title>
<path fill="none" stroke="black" d="M437.995,-487.477C439.598,-489.079 437.472,-490.799 438.995,-492.477 469.587,-526.18 492.121,-524.89 534.393,-524.527"/>
<polygon fill="black" stroke="black" points="534.662,-528.026 544.644,-524.477 534.627,-521.026 534.662,-528.026"/>
<text text-anchor="middle" x="456.995" y="-491.277" font-family="Times,serif" font-size="14.00">false</text>
</g>
<!-- SVC&#45;OPStatus&#45;
Filter -->
<g id="${uniqueid}_node3" class="node"><title>SVC&#45;OPStatus&#45;
Filter</title>
<g id="a_${uniqueid}_node3"><a xlink:href="#381090130841788" xlink:title="com.watch4net.alerting.operation.FilteredEntryPoint">
<ellipse fill="#984ea3" stroke="black" cx="80.6102" cy="-286.477" rx="80.7205" ry="26.7407"/>
<text text-anchor="middle" x="80.6102" y="-290.277" font-family="Times,serif" font-size="14.00" fill="white">SVC&#45;OPStatus&#45;</text>
<text text-anchor="middle" x="80.6102" y="-275.277" font-family="Times,serif" font-size="14.00" fill="white">Filter</text>
</a>
</g>
</g>
<!-- SVC&#45;OPStatus&#45;
Filter&#45;&gt;Alert Severity -->
<g id="${uniqueid}_edge7" class="edge"><title>SVC&#45;OPStatus&#45;
Filter:e&#45;&gt;Alert Severity:w</title>
<path fill="none" stroke="black" d="M161.22,-286.477C173.22,-286.477 178.47,-286.477 187.095,-286.477"/>
<polygon fill="black" stroke="black" points="187.22,-289.977 197.22,-286.477 187.22,-282.977 187.22,-289.977"/>
</g>
<!-- availability&#45;
critical&#45;trap -->
<g id="${uniqueid}_node4" class="node"><title>availability&#45;
critical&#45;trap</title>
<g id="a_${uniqueid}_node4"><a xlink:href="#381090130932024" xlink:title="com.watch4net.alerting.action.SNMPTrapAction">
<ellipse fill="#4daf4a" stroke="black" cx="629.644" cy="-317.477" rx="80.7205" ry="26.7407"/>
<text text-anchor="middle" x="629.644" y="-321.277" font-family="Times,serif" font-size="14.00" fill="white">availability&#45;</text>
<text text-anchor="middle" x="629.644" y="-306.277" font-family="Times,serif" font-size="14.00" fill="white">critical&#45;trap</text>
</a>
</g>
</g>
<!-- availability&#45;
major&#45;alert&#45;trap -->
<g id="${uniqueid}_node6" class="node"><title>availability&#45;
major&#45;alert&#45;trap</title>
<g id="a_${uniqueid}_node6"><a xlink:href="#381090130959752" xlink:title="com.watch4net.alerting.action.SNMPTrapAction">
<ellipse fill="#4daf4a" stroke="black" cx="629.644" cy="-191.477" rx="96.7474" ry="26.7407"/>
<text text-anchor="middle" x="629.644" y="-195.277" font-family="Times,serif" font-size="14.00" fill="white">availability&#45;</text>
<text text-anchor="middle" x="629.644" y="-180.277" font-family="Times,serif" font-size="14.00" fill="white">major&#45;alert&#45;trap</text>
</a>
</g>
</g>
<!-- availability&#45;
warning&#45;alert&#45;
trap -->
<g id="${uniqueid}_node7" class="node"><title>availability&#45;
warning&#45;alert&#45;
trap</title>
<g id="a_${uniqueid}_node7"><a xlink:href="#381090130989403" xlink:title="com.watch4net.alerting.action.SNMPTrapAction">
<ellipse fill="#4daf4a" stroke="black" cx="629.644" cy="-37.4767" rx="86.0347" ry="37.4533"/>
<text text-anchor="middle" x="629.644" y="-48.7767" font-family="Times,serif" font-size="14.00" fill="white">availability&#45;</text>
<text text-anchor="middle" x="629.644" y="-33.7767" font-family="Times,serif" font-size="14.00" fill="white">warning&#45;alert&#45;</text>
<text text-anchor="middle" x="629.644" y="-18.7767" font-family="Times,serif" font-size="14.00" fill="white">trap</text>
</a>
</g>
</g>
<!-- critical&#45;&gt;availability&#45;
critical&#45;trap -->
<g id="${uniqueid}_edge9" class="edge"><title>critical:se&#45;&gt;availability&#45;
critical&#45;trap:w</title>
<path fill="none" stroke="black" d="M440.995,-317.477C472.024,-286.448 496.382,-312.871 537.436,-316.964"/>
<polygon fill="black" stroke="black" points="537.481,-320.47 547.644,-317.477 537.832,-313.479 537.481,-320.47"/>
<text text-anchor="middle" x="425.495" y="-306.277" font-family="Times,serif" font-size="14.00">true</text>
</g>
<!-- critical&#45;clear&#45;
trap -->
<g id="${uniqueid}_node9" class="node"><title>critical&#45;clear&#45;
trap</title>
<g id="a_${uniqueid}_node9"><a xlink:href="#381090130922447" xlink:title="com.watch4net.alerting.action.SNMPTrapAction">
<ellipse fill="#4daf4a" stroke="black" cx="629.644" cy="-389.477" rx="91.4341" ry="26.7407"/>
<text text-anchor="middle" x="629.644" y="-393.277" font-family="Times,serif" font-size="14.00" fill="white">critical&#45;clear&#45;</text>
<text text-anchor="middle" x="629.644" y="-378.277" font-family="Times,serif" font-size="14.00" fill="white">trap</text>
</a>
</g>
</g>
<!-- critical&#45;&gt;critical&#45;clear&#45;
trap -->
<g id="${uniqueid}_edge8" class="edge"><title>critical:ne&#45;&gt;critical&#45;clear&#45;
trap:w</title>
<path fill="none" stroke="black" d="M438.995,-345.477C440.291,-346.772 438.799,-348.089 439.995,-349.477 468.045,-381.999 487.078,-388.57 526.469,-389.382"/>
<polygon fill="black" stroke="black" points="526.612,-392.883 536.644,-389.477 526.677,-385.884 526.612,-392.883"/>
<text text-anchor="middle" x="419.995" y="-349.277" font-family="Times,serif" font-size="14.00">false</text>
</g>
<!-- major&#45;&gt;availability&#45;
major&#45;alert&#45;trap -->
<g id="${uniqueid}_edge11" class="edge"><title>major:se&#45;&gt;availability&#45;
major&#45;alert&#45;trap:w</title>
<path fill="none" stroke="black" d="M439.995,-228.477C468.81,-199.662 485.494,-192.571 522.376,-191.601"/>
<polygon fill="black" stroke="black" points="522.813,-195.096 532.771,-191.477 522.729,-188.097 522.813,-195.096"/>
<text text-anchor="middle" x="424.495" y="-217.277" font-family="Times,serif" font-size="14.00">true</text>
</g>
<!-- major&#45;clear&#45;trap -->
<g id="${uniqueid}_node12" class="node"><title>major&#45;clear&#45;trap</title>
<g id="a_${uniqueid}_node12"><a xlink:href="#381090130950041" xlink:title="com.watch4net.alerting.action.SNMPTrapAction">
<ellipse fill="#4daf4a" stroke="black" cx="629.644" cy="-254.477" rx="89.0842" ry="18"/>
<text text-anchor="middle" x="629.644" y="-250.777" font-family="Times,serif" font-size="14.00" fill="white">major&#45;clear&#45;trap</text>
</a>
</g>
</g>
<!-- major&#45;&gt;major&#45;clear&#45;trap -->
<g id="${uniqueid}_edge10" class="edge"><title>major:ne&#45;&gt;major&#45;clear&#45;trap:w</title>
<path fill="none" stroke="black" d="M437.995,-254.477C439.598,-256.079 437.243,-258.04 438.995,-259.477 451.587,-269.799 459.36,-260.111 475.63,-259.477 500.47,-258.508 508.954,-255.433 529.591,-254.656"/>
<polygon fill="black" stroke="black" points="529.708,-258.155 539.644,-254.477 529.583,-251.156 529.708,-258.155"/>
<text text-anchor="middle" x="418.995" y="-258.277" font-family="Times,serif" font-size="14.00">false</text>
</g>
<!-- warning&#45;&gt;availability&#45;
warning&#45;alert&#45;
trap -->
<g id="${uniqueid}_edge13" class="edge"><title>warning:se&#45;&gt;availability&#45;
warning&#45;alert&#45;
trap:w</title>
<path fill="none" stroke="black" d="M440.995,-91.4767C474.367,-58.1048 488.804,-40.1105 531.461,-37.7451"/>
<polygon fill="black" stroke="black" points="531.74,-41.239 541.644,-37.4767 531.555,-34.2415 531.74,-41.239"/>
<text text-anchor="middle" x="425.495" y="-80.2767" font-family="Times,serif" font-size="14.00">true</text>
</g>
<!-- warning&#45;clear&#45;
trap -->
<g id="${uniqueid}_node14" class="node"><title>warning&#45;clear&#45;
trap</title>
<g id="a_${uniqueid}_node14"><a xlink:href="#381090130978927" xlink:title="com.watch4net.alerting.action.SNMPTrapAction">
<ellipse fill="#4daf4a" stroke="black" cx="629.644" cy="-119.477" rx="86.0347" ry="26.7407"/>
<text text-anchor="middle" x="629.644" y="-123.277" font-family="Times,serif" font-size="14.00" fill="white">warning&#45;clear&#45;</text>
<text text-anchor="middle" x="629.644" y="-108.277" font-family="Times,serif" font-size="14.00" fill="white">trap</text>
</a>
</g>
</g>
<!-- warning&#45;&gt;warning&#45;clear&#45;
trap -->
<g id="${uniqueid}_edge12" class="edge"><title>warning:ne&#45;&gt;warning&#45;clear&#45;
trap:w</title>
<path fill="none" stroke="black" d="M438.995,-119.477C440.291,-120.772 438.551,-122.349 439.995,-123.477 472.848,-149.127 493.091,-124.085 531.476,-120.016"/>
<polygon fill="black" stroke="black" points="531.844,-123.501 541.644,-119.477 531.473,-116.511 531.844,-123.501"/>
<text text-anchor="middle" x="419.995" y="-123.277" font-family="Times,serif" font-size="14.00">false</text>
</g>
</g>
</svg>
