<?xml version="1.0" encoding="UTF-8" standalone="no"?>
<!DOCTYPE svg PUBLIC "-//W3C//DTD SVG 1.1//EN"
 "http://www.w3.org/Graphics/SVG/1.1/DTD/svg11.dtd">
<!-- Generated by graphviz version 2.38.0 (20140413.2041)
 -->
<!-- Title: EMC M&amp;R Health/Metric count alert Pages: 1 -->
<svg width="1249pt" height="172pt"
 viewBox="0.00 0.00 1248.56 171.87" xmlns="http://www.w3.org/2000/svg" xmlns:xlink="http://www.w3.org/1999/xlink">
<g id="${uniqueid}" class="graph" transform="scale(1 1) rotate(0) translate(4 167.87)">
<title>EMC M&amp;R Health/Metric count alert</title>
<polygon fill="white" stroke="none" points="-4,4 -4,-167.87 1244.56,-167.87 1244.56,4 -4,4"/>
<!-- Action
CLEARMajor -->
<g id="${uniqueid}_node1" class="node"><title>Action
CLEARMajor</title>
<g id="a_${uniqueid}_node1"><a xlink:href="#bc9b5a60-13db-4a65-8e06-9e510ad0e8a0" xlink:title="com.watch4net.alerting.action.SNMPTrapAction">
<ellipse fill="#4daf4a" stroke="black" cx="1149.56" cy="-137" rx="65.1077" ry="26.7407"/>
<text text-anchor="middle" x="1149.56" y="-140.8" font-family="Times,serif" font-size="14.00" fill="white">Action</text>
<text text-anchor="middle" x="1149.56" y="-125.8" font-family="Times,serif" font-size="14.00" fill="white">CLEARMajor</text>
</a>
</g>
</g>
<!-- Action SETMajor -->
<g id="${uniqueid}_node2" class="node"><title>Action SETMajor</title>
<g id="a_${uniqueid}_node2"><a xlink:href="#bb8ba0e3-3668-4b0c-9ed3-06e9ced54ee4" xlink:title="com.watch4net.alerting.action.SNMPTrapAction">
<ellipse fill="#4daf4a" stroke="black" cx="1149.56" cy="-18" rx="83.6854" ry="18"/>
<text text-anchor="middle" x="1149.56" y="-14.3" font-family="Times,serif" font-size="14.00" fill="white">Action SETMajor</text>
</a>
</g>
</g>
<!-- Custom post&#45;
filter -->
<g id="${uniqueid}_node3" class="node"><title>Custom post&#45;
filter</title>
<g id="a_${uniqueid}_node3"><a xlink:href="#1436290996227" xlink:title="1435689668905">
<polygon fill="#e41a1c" stroke="black" points="1203.06,-92 1096.06,-92 1096.06,-54 1203.06,-54 1203.06,-92"/>
<text text-anchor="middle" x="1149.56" y="-76.8" font-family="Times,serif" font-size="14.00" fill="white">Custom post&#45;</text>
<text text-anchor="middle" x="1149.56" y="-61.8" font-family="Times,serif" font-size="14.00" fill="white">filter</text>
</a>
</g>
</g>
<!-- Custom pre&#45;
filter -->
<g id="${uniqueid}_node4" class="node"><title>Custom pre&#45;
filter</title>
<g id="a_${uniqueid}_node4"><a xlink:href="#1436290986368" xlink:title="1435689654812">
<polygon fill="#e41a1c" stroke="black" points="215.593,-92 116.593,-92 116.593,-54 215.593,-54 215.593,-92"/>
<text text-anchor="middle" x="166.093" y="-76.8" font-family="Times,serif" font-size="14.00" fill="white">Custom pre&#45;</text>
<text text-anchor="middle" x="166.093" y="-61.8" font-family="Times,serif" font-size="14.00" fill="white">filter</text>
</a>
</g>
</g>
<!-- Refine -->
<g id="${uniqueid}_node11" class="node"><title>Refine</title>
<g id="a_${uniqueid}_node11"><a xlink:href="#1428416792950" xlink:title="com.watch4net.alerting.operation.RefineFilterOperation">
<polygon fill="#377eb8" stroke="black" points="313.593,-91 251.593,-91 251.593,-55 313.593,-55 313.593,-91"/>
<text text-anchor="middle" x="282.593" y="-69.3" font-family="Times,serif" font-size="14.00" fill="white">Refine</text>
</a>
</g>
</g>
<!-- Custom pre&#45;
filter&#45;&gt;Refine -->
<g id="${uniqueid}_edge1" class="edge"><title>Custom pre&#45;
filter:e&#45;&gt;Refine:w</title>
<path fill="none" stroke="black" d="M215.593,-73C227.593,-73 232.843,-73 241.468,-73"/>
<polygon fill="black" stroke="black" points="241.593,-76.5001 251.593,-73 241.593,-69.5001 241.593,-76.5001"/>
</g>
<!-- Diff Perc -->
<g id="${uniqueid}_node5" class="node"><title>Diff Perc</title>
<g id="a_${uniqueid}_node5"><a xlink:href="#e33e90a5-fa1c-46ec-a548-4563e4433cc4" xlink:title="com.watch4net.alerting.operation.arithmetic.DataArithmeticOperation">
<polygon fill="#377eb8" stroke="black" points="719.593,-91 635.593,-91 635.593,-55 719.593,-55 719.593,-91"/>
<text text-anchor="middle" x="677.593" y="-69.3" font-family="Times,serif" font-size="14.00" fill="white">Diff Perc</text>
</a>
</g>
</g>
<!-- Percent -->
<g id="${uniqueid}_node8" class="node"><title>Percent</title>
<g id="a_${uniqueid}_node8"><a xlink:href="#3b3b64ce-01ee-4259-89b4-a0cf48ea6536" xlink:title="com.watch4net.alerting.operation.arithmetic.ConstantArithmeticOperation">
<polygon fill="#377eb8" stroke="black" points="824.593,-91 755.593,-91 755.593,-55 824.593,-55 824.593,-91"/>
<text text-anchor="middle" x="790.093" y="-69.3" font-family="Times,serif" font-size="14.00" fill="white">Percent</text>
</a>
</g>
</g>
<!-- Diff Perc&#45;&gt;Percent -->
<g id="${uniqueid}_edge2" class="edge"><title>Diff Perc:e&#45;&gt;Percent:w</title>
<path fill="none" stroke="black" d="M719.593,-73C731.593,-73 736.843,-73 745.468,-73"/>
<polygon fill="black" stroke="black" points="745.593,-76.5001 755.593,-73 745.593,-69.5001 745.593,-76.5001"/>
</g>
<!-- Filter -->
<g id="${uniqueid}_node6" class="node"><title>Filter</title>
<g id="a_${uniqueid}_node6"><a xlink:href="#d2c34712-d261-424f-9ece-b3b20af59af2" xlink:title="com.watch4net.alerting.operation.FilteredEntryPoint">
<ellipse fill="#984ea3" stroke="black" cx="40.2964" cy="-73" rx="40.0939" ry="18"/>
<text text-anchor="middle" x="40.2964" y="-69.3" font-family="Times,serif" font-size="14.00" fill="white">Filter</text>
</a>
</g>
</g>
<!-- Filter&#45;&gt;Custom pre&#45;
filter -->
<g id="${uniqueid}_edge3" class="edge"><title>Filter:e&#45;&gt;Custom pre&#45;
filter:w</title>
<path fill="none" stroke="black" d="M80.5928,-73C92.5928,-73 97.8428,-73 106.468,-73"/>
<polygon fill="black" stroke="black" points="106.593,-76.5001 116.593,-73 106.593,-69.5001 106.593,-76.5001"/>
</g>
<!-- Metric percent -->
<g id="${uniqueid}_node7" class="node"><title>Metric percent</title>
<g id="a_${uniqueid}_node7"><a xlink:href="#3baee66d-aad6-49f0-8742-8b9c4265c9e6" xlink:title="com.watch4net.alerting.operation.window.PreviousPollingOperation">
<polygon fill="#377eb8" stroke="black" points="471.593,-91 349.593,-91 349.593,-55 471.593,-55 471.593,-91"/>
<text text-anchor="middle" x="410.593" y="-69.3" font-family="Times,serif" font-size="14.00" fill="white">Metric percent</text>
</a>
</g>
</g>
<!-- Pollingone -->
<g id="${uniqueid}_node9" class="node"><title>Pollingone</title>
<g id="a_${uniqueid}_node9"><a xlink:href="#e380268e-0cd2-470e-8c6c-1af02535a713" xlink:title="com.watch4net.alerting.operation.NopOperation">
<polygon fill="#377eb8" stroke="black" points="599.593,-64 507.593,-64 507.593,-28 599.593,-28 599.593,-64"/>
<text text-anchor="middle" x="553.593" y="-42.3" font-family="Times,serif" font-size="14.00" fill="white">Pollingone</text>
</a>
</g>
</g>
<!-- Metric percent&#45;&gt;Pollingone -->
<g id="${uniqueid}_edge5" class="edge"><title>Metric percent:se&#45;&gt;Pollingone:w</title>
<path fill="none" stroke="black" d="M471.593,-55C480.613,-45.9802 487.349,-45.5291 497.57,-45.7876"/>
<polygon fill="black" stroke="black" points="497.521,-49.2873 507.593,-46 497.669,-42.2889 497.521,-49.2873"/>
<text text-anchor="middle" x="460.093" y="-43.8" font-family="Times,serif" font-size="14.00">t&#45;1</text>
</g>
<!-- Pollingtwo -->
<g id="${uniqueid}_node10" class="node"><title>Pollingtwo</title>
<g id="a_${uniqueid}_node10"><a xlink:href="#4df8fbbf-dab2-4fc0-bdcb-d621aaf38e1c" xlink:title="com.watch4net.alerting.operation.NopOperation">
<polygon fill="#377eb8" stroke="black" points="599.593,-118 507.593,-118 507.593,-82 599.593,-82 599.593,-118"/>
<text text-anchor="middle" x="553.593" y="-96.3" font-family="Times,serif" font-size="14.00" fill="white">Pollingtwo</text>
</a>
</g>
</g>
<!-- Metric percent&#45;&gt;Pollingtwo -->
<g id="${uniqueid}_edge4" class="edge"><title>Metric percent:ne&#45;&gt;Pollingtwo:w</title>
<path fill="none" stroke="black" d="M470.593,-91C479.849,-100.256 486.796,-100.578 497.3,-100.249"/>
<polygon fill="black" stroke="black" points="497.68,-103.741 507.593,-100 497.511,-96.7427 497.68,-103.741"/>
<text text-anchor="middle" x="459.093" y="-94.8" font-family="Times,serif" font-size="14.00">t&#45;0</text>
</g>
<!-- Test count -->
<g id="${uniqueid}_node12" class="node"><title>Test count</title>
<g id="a_${uniqueid}_node12"><a xlink:href="#5c430a82-4d84-432c-9874-d884d04ce2a9" xlink:title="com.watch4net.alerting.operation.comparator.ConstantComparatorOperation">
<polygon fill="#ff7f00" stroke="black" points="945.155,-91 860.53,-73 945.155,-55 1029.78,-73 945.155,-91"/>
<text text-anchor="middle" x="945.155" y="-69.3" font-family="Times,serif" font-size="14.00" fill="white">Test count</text>
</a>
</g>
</g>
<!-- Percent&#45;&gt;Test count -->
<g id="${uniqueid}_edge6" class="edge"><title>Percent:e&#45;&gt;Test count:w</title>
<path fill="none" stroke="black" d="M824.593,-73C836.593,-73 841.843,-73 850.468,-73"/>
<polygon fill="black" stroke="black" points="850.593,-76.5001 860.593,-73 850.593,-69.5001 850.593,-76.5001"/>
</g>
<!-- Pollingone&#45;&gt;Diff Perc -->
<g id="${uniqueid}_edge7" class="edge"><title>Pollingone:e&#45;&gt;Diff Perc:w</title>
<path fill="none" stroke="black" d="M599.593,-46C615.53,-46 616.228,-63.1453 625.974,-70.1105"/>
<polygon fill="black" stroke="black" points="625.009,-73.4751 635.593,-73 627.023,-66.771 625.009,-73.4751"/>
</g>
<!-- Pollingtwo&#45;&gt;Diff Perc -->
<g id="${uniqueid}_edge8" class="edge"><title>Pollingtwo:e&#45;&gt;Diff Perc:w</title>
<path fill="none" stroke="black" d="M599.593,-100C615.53,-100 616.228,-82.8547 625.974,-75.8895"/>
<polygon fill="black" stroke="black" points="627.023,-79.229 635.593,-73 625.009,-72.5249 627.023,-79.229"/>
</g>
<!-- Refine&#45;&gt;Metric percent -->
<g id="${uniqueid}_edge9" class="edge"><title>Refine:e&#45;&gt;Metric percent:w</title>
<path fill="none" stroke="black" d="M313.593,-73C325.593,-73 330.843,-73 339.468,-73"/>
<polygon fill="black" stroke="black" points="339.593,-76.5001 349.593,-73 339.593,-69.5001 339.593,-76.5001"/>
</g>
<!-- Test count&#45;&gt;Action
CLEARMajor -->
<g id="${uniqueid}_edge10" class="edge"><title>Test count:ne&#45;&gt;Action
CLEARMajor:w</title>
<path fill="none" stroke="black" d="M959.155,-88C960.149,-88.9938 959.179,-89.9889 960.155,-91 998.351,-130.559 1022.03,-136.389 1073.29,-136.95"/>
<polygon fill="black" stroke="black" points="1073.54,-140.451 1083.56,-137 1073.58,-133.451 1073.54,-140.451"/>
<text text-anchor="middle" x="940.155" y="-91.8" font-family="Times,serif" font-size="14.00">false</text>
</g>
<!-- Test count&#45;&gt;Action SETMajor -->
<g id="${uniqueid}_edge12" class="edge"><title>Test count:se&#45;&gt;Action SETMajor:w</title>
<path fill="none" stroke="black" d="M961.155,-58C993.865,-25.2906 1013.12,-18.8275 1055.65,-18.0803"/>
<polygon fill="black" stroke="black" points="1055.75,-21.5798 1065.72,-18 1055.69,-14.58 1055.75,-21.5798"/>
<text text-anchor="middle" x="945.655" y="-46.8" font-family="Times,serif" font-size="14.00">true</text>
</g>
<!-- Test count&#45;&gt;Custom post&#45;
filter -->
<g id="${uniqueid}_edge11" class="edge"><title>Test count:ne&#45;&gt;Custom post&#45;
filter:sw</title>
<path fill="none" stroke="black" d="M959.155,-88C960.149,-88.9938 959.015,-90.1782 960.155,-91 985.236,-109.077 999.796,-98.7798 1029.72,-91 1058.93,-83.4041 1070.44,-41.8187 1089.29,-48.347"/>
<polygon fill="black" stroke="black" points="1087.33,-51.2483 1097.56,-54 1091.28,-45.4686 1087.33,-51.2483"/>
<text text-anchor="middle" x="1169.06" y="-42.8" font-family="Times,serif" font-size="14.00">1435689620024|entry</text>
</g>
<!-- Test count&#45;&gt;Custom post&#45;
filter -->
<g id="${uniqueid}_edge13" class="edge"><title>Test count:se&#45;&gt;Custom post&#45;
filter:nw</title>
<path fill="none" stroke="black" d="M961.155,-58C980.558,-38.5977 1054.73,-98.0051 1086.11,-95.8425"/>
<polygon fill="black" stroke="black" points="1087.62,-99.0102 1095.56,-92 1084.98,-92.5262 1087.62,-99.0102"/>
<text text-anchor="middle" x="1167.06" y="-95.8" font-family="Times,serif" font-size="14.00">1435689616003|entry</text>
</g>
</g>
</svg>
