<?xml version="1.0" encoding="UTF-8" standalone="no"?>
<!DOCTYPE svg PUBLIC "-//W3C//DTD SVG 1.1//EN"
 "http://www.w3.org/Graphics/SVG/1.1/DTD/svg11.dtd">
<!-- Generated by graphviz version 2.38.0 (20140413.2041)
 -->
<!-- Title: HP 3PAR Alert Definitions/3PAR&#45;Devices/High IO Rate Pages: 1 -->
<svg width="809pt" height="422pt"
 viewBox="0.00 0.00 808.80 421.74" xmlns="http://www.w3.org/2000/svg" xmlns:xlink="http://www.w3.org/1999/xlink">
<g id="${uniqueid}" class="graph" transform="scale(1 1) rotate(0) translate(4 417.74)">
<title>HP 3PAR Alert Definitions/3PAR&#45;Devices/High IO Rate</title>
<polygon fill="white" stroke="none" points="-4,4 -4,-417.74 804.805,-417.74 804.805,4 -4,4"/>
<!-- Case generator -->
<g id="${uniqueid}_node1" class="node"><title>Case generator</title>
<g id="a_${uniqueid}_node1"><a xlink:href="#1416858248184" xlink:title="com.watch4net.alerting.operation.CaseOperation">
<polygon fill="#377eb8" stroke="black" points="318.986,-224.87 191.986,-224.87 191.986,-188.87 318.986,-188.87 318.986,-224.87"/>
<text text-anchor="middle" x="255.486" y="-203.17" font-family="Times,serif" font-size="14.00" fill="white">Case generator</text>
</a>
</g>
</g>
<!-- Request_CRIT -->
<g id="${uniqueid}_node3" class="node"><title>Request_CRIT</title>
<g id="a_${uniqueid}_node3"><a xlink:href="#1416858286540" xlink:title="com.watch4net.alerting.operation.comparator.ConstantComparatorOperation">
<polygon fill="#ff7f00" stroke="black" points="470.8,-348.87 361.54,-330.87 470.8,-312.87 580.06,-330.87 470.8,-348.87"/>
<text text-anchor="middle" x="470.8" y="-327.17" font-family="Times,serif" font-size="14.00" fill="white">Request_CRIT</text>
</a>
</g>
</g>
<!-- Case generator&#45;&gt;Request_CRIT -->
<g id="${uniqueid}_edge1" class="edge"><title>Case generator:e&#45;&gt;Request_CRIT:w</title>
<path fill="none" stroke="black" d="M318.986,-206.87C373.284,-206.87 311.95,-314.948 350.891,-329.302"/>
<polygon fill="black" stroke="black" points="350.376,-332.764 360.8,-330.87 351.47,-325.85 350.376,-332.764"/>
</g>
<!-- Request_Major -->
<g id="${uniqueid}_node6" class="node"><title>Request_Major</title>
<g id="a_${uniqueid}_node6"><a xlink:href="#1416858422382" xlink:title="com.watch4net.alerting.operation.comparator.ConstantComparatorOperation">
<polygon fill="#ff7f00" stroke="black" points="470.8,-224.87 356.011,-206.87 470.8,-188.87 585.589,-206.87 470.8,-224.87"/>
<text text-anchor="middle" x="470.8" y="-203.17" font-family="Times,serif" font-size="14.00" fill="white">Request_Major</text>
</a>
</g>
</g>
<!-- Case generator&#45;&gt;Request_Major -->
<g id="${uniqueid}_edge2" class="edge"><title>Case generator:e&#45;&gt;Request_Major:w</title>
<path fill="none" stroke="black" d="M318.986,-206.87C330.986,-206.87 336.236,-206.87 344.861,-206.87"/>
<polygon fill="black" stroke="black" points="344.986,-210.37 354.986,-206.87 344.986,-203.37 344.986,-210.37"/>
</g>
<!-- Request_Minor -->
<g id="${uniqueid}_node9" class="node"><title>Request_Minor</title>
<g id="a_${uniqueid}_node9"><a xlink:href="#1416858522704" xlink:title="com.watch4net.alerting.operation.comparator.ConstantComparatorOperation">
<polygon fill="#ff7f00" stroke="black" points="470.8,-100.87 355.172,-82.8701 470.8,-64.8701 586.428,-82.8701 470.8,-100.87"/>
<text text-anchor="middle" x="470.8" y="-79.1701" font-family="Times,serif" font-size="14.00" fill="white">Request_Minor</text>
</a>
</g>
</g>
<!-- Case generator&#45;&gt;Request_Minor -->
<g id="${uniqueid}_edge3" class="edge"><title>Case generator:e&#45;&gt;Request_Minor:w</title>
<path fill="none" stroke="black" d="M318.986,-206.87C372.338,-206.87 308.004,-99.6945 344.806,-84.623"/>
<polygon fill="black" stroke="black" points="345.725,-88.0163 354.986,-82.8701 344.537,-81.1178 345.725,-88.0163"/>
</g>
<!-- Request Entry -->
<g id="${uniqueid}_node2" class="node"><title>Request Entry</title>
<g id="a_${uniqueid}_node2"><a xlink:href="#1416858225372" xlink:title="com.watch4net.alerting.operation.FilteredEntryPoint">
<ellipse fill="#984ea3" stroke="black" cx="77.9931" cy="-206.87" rx="77.9862" ry="18"/>
<text text-anchor="middle" x="77.9931" y="-203.17" font-family="Times,serif" font-size="14.00" fill="white">Request Entry</text>
</a>
</g>
</g>
<!-- Request Entry&#45;&gt;Case generator -->
<g id="${uniqueid}_edge4" class="edge"><title>Request Entry:e&#45;&gt;Case generator:w</title>
<path fill="none" stroke="black" d="M155.986,-206.87C167.986,-206.87 173.236,-206.87 181.861,-206.87"/>
<polygon fill="black" stroke="black" points="181.986,-210.37 191.986,-206.87 181.986,-203.37 181.986,-210.37"/>
</g>
<!-- Request_CRIT
clear trap -->
<g id="${uniqueid}_node4" class="node"><title>Request_CRIT
clear trap</title>
<g id="a_${uniqueid}_node4"><a xlink:href="#1416858375798" xlink:title="com.watch4net.alerting.action.SNMPTrapAction">
<ellipse fill="#4daf4a" stroke="black" cx="711.709" cy="-386.87" rx="84.2917" ry="26.7407"/>
<text text-anchor="middle" x="711.709" y="-390.67" font-family="Times,serif" font-size="14.00" fill="white">Request_CRIT</text>
<text text-anchor="middle" x="711.709" y="-375.67" font-family="Times,serif" font-size="14.00" fill="white">clear trap</text>
</a>
</g>
</g>
<!-- Request_CRIT&#45;&gt;Request_CRIT
clear trap -->
<g id="${uniqueid}_edge5" class="edge"><title>Request_CRIT:ne&#45;&gt;Request_CRIT
clear trap:w</title>
<path fill="none" stroke="black" d="M485.8,-346.87C486.503,-347.573 486.031,-348.24 486.8,-348.87 533.925,-387.462 559.4,-387.048 616.476,-386.888"/>
<polygon fill="black" stroke="black" points="616.715,-390.387 626.709,-386.87 616.703,-383.387 616.715,-390.387"/>
<text text-anchor="middle" x="468.8" y="-350.67" font-family="Times,serif" font-size="14.00">false</text>
</g>
<!-- Request_CRIT
trap -->
<g id="${uniqueid}_node5" class="node"><title>Request_CRIT
trap</title>
<g id="a_${uniqueid}_node5"><a xlink:href="#1416858360293" xlink:title="com.watch4net.alerting.action.SNMPTrapAction">
<ellipse fill="#4daf4a" stroke="black" cx="711.709" cy="-314.87" rx="84.2917" ry="26.7407"/>
<text text-anchor="middle" x="711.709" y="-318.67" font-family="Times,serif" font-size="14.00" fill="white">Request_CRIT</text>
<text text-anchor="middle" x="711.709" y="-303.67" font-family="Times,serif" font-size="14.00" fill="white">trap</text>
</a>
</g>
</g>
<!-- Request_CRIT&#45;&gt;Request_CRIT
trap -->
<g id="${uniqueid}_edge6" class="edge"><title>Request_CRIT:se&#45;&gt;Request_CRIT
trap:w</title>
<path fill="none" stroke="black" d="M487.8,-314.87C528.982,-273.688 561.142,-310.205 616.483,-314.474"/>
<polygon fill="black" stroke="black" points="616.581,-317.98 626.709,-314.87 616.852,-310.985 616.581,-317.98"/>
<text text-anchor="middle" x="472.3" y="-303.67" font-family="Times,serif" font-size="14.00">true</text>
</g>
<!-- Request_Major
clear trap -->
<g id="${uniqueid}_node7" class="node"><title>Request_Major
clear trap</title>
<g id="a_${uniqueid}_node7"><a xlink:href="#1416858484095" xlink:title="com.watch4net.alerting.action.SNMPTrapAction">
<ellipse fill="#4daf4a" stroke="black" cx="711.709" cy="-242.87" rx="88.2768" ry="26.7407"/>
<text text-anchor="middle" x="711.709" y="-246.67" font-family="Times,serif" font-size="14.00" fill="white">Request_Major</text>
<text text-anchor="middle" x="711.709" y="-231.67" font-family="Times,serif" font-size="14.00" fill="white">clear trap</text>
</a>
</g>
</g>
<!-- Request_Major&#45;&gt;Request_Major
clear trap -->
<g id="${uniqueid}_edge7" class="edge"><title>Request_Major:ne&#45;&gt;Request_Major
clear trap:w</title>
<path fill="none" stroke="black" d="M485.8,-222.87C486.503,-223.573 485.991,-224.293 486.8,-224.87 533.568,-258.22 558.775,-244.667 612.599,-243.024"/>
<polygon fill="black" stroke="black" points="612.669,-246.524 622.614,-242.87 612.561,-239.525 612.669,-246.524"/>
<text text-anchor="middle" x="468.8" y="-226.67" font-family="Times,serif" font-size="14.00">false</text>
</g>
<!-- Request_Major
trap -->
<g id="${uniqueid}_node8" class="node"><title>Request_Major
trap</title>
<g id="a_${uniqueid}_node8"><a xlink:href="#1416858454775" xlink:title="com.watch4net.alerting.action.SNMPTrapAction">
<ellipse fill="#4daf4a" stroke="black" cx="711.709" cy="-170.87" rx="88.2768" ry="26.7407"/>
<text text-anchor="middle" x="711.709" y="-174.67" font-family="Times,serif" font-size="14.00" fill="white">Request_Major</text>
<text text-anchor="middle" x="711.709" y="-159.67" font-family="Times,serif" font-size="14.00" fill="white">trap</text>
</a>
</g>
</g>
<!-- Request_Major&#45;&gt;Request_Major
trap -->
<g id="${uniqueid}_edge8" class="edge"><title>Request_Major:se&#45;&gt;Request_Major
trap:w</title>
<path fill="none" stroke="black" d="M487.8,-190.87C528.206,-150.464 558.446,-168.494 612.594,-170.666"/>
<polygon fill="black" stroke="black" points="612.545,-174.166 622.614,-170.87 612.687,-167.167 612.545,-174.166"/>
<text text-anchor="middle" x="472.3" y="-179.67" font-family="Times,serif" font-size="14.00">true</text>
</g>
<!-- Request_Minor
clear trap -->
<g id="${uniqueid}_node10" class="node"><title>Request_Minor
clear trap</title>
<g id="a_${uniqueid}_node10"><a xlink:href="#1416858582547" xlink:title="com.watch4net.alerting.action.SNMPTrapAction">
<ellipse fill="#4daf4a" stroke="black" cx="711.709" cy="-98.8701" rx="89.191" ry="26.7407"/>
<text text-anchor="middle" x="711.709" y="-102.67" font-family="Times,serif" font-size="14.00" fill="white">Request_Minor</text>
<text text-anchor="middle" x="711.709" y="-87.6701" font-family="Times,serif" font-size="14.00" fill="white">clear trap</text>
</a>
</g>
</g>
<!-- Request_Minor&#45;&gt;Request_Minor
clear trap -->
<g id="${uniqueid}_edge9" class="edge"><title>Request_Minor:ne&#45;&gt;Request_Minor
clear trap:w</title>
<path fill="none" stroke="black" d="M485.8,-98.8701C486.503,-99.5728 485.955,-100.348 486.8,-100.87 524.536,-124.192 542.269,-102.101 586.614,-100.87 598.628,-100.537 603.857,-99.5783 612.481,-99.12"/>
<polygon fill="black" stroke="black" points="612.703,-102.616 622.614,-98.8701 612.53,-95.6178 612.703,-102.616"/>
<text text-anchor="middle" x="468.8" y="-102.67" font-family="Times,serif" font-size="14.00">false</text>
</g>
<!-- Request_Minor
trap -->
<g id="${uniqueid}_node11" class="node"><title>Request_Minor
trap</title>
<g id="a_${uniqueid}_node11"><a xlink:href="#1416858553981" xlink:title="com.watch4net.alerting.action.SNMPTrapAction">
<ellipse fill="#4daf4a" stroke="black" cx="711.709" cy="-26.8701" rx="89.191" ry="26.7407"/>
<text text-anchor="middle" x="711.709" y="-30.6701" font-family="Times,serif" font-size="14.00" fill="white">Request_Minor</text>
<text text-anchor="middle" x="711.709" y="-15.6701" font-family="Times,serif" font-size="14.00" fill="white">trap</text>
</a>
</g>
</g>
<!-- Request_Minor&#45;&gt;Request_Minor
trap -->
<g id="${uniqueid}_edge10" class="edge"><title>Request_Minor:se&#45;&gt;Request_Minor
trap:w</title>
<path fill="none" stroke="black" d="M487.8,-66.8701C529.49,-25.1797 556.878,-26.5502 612.316,-26.8393"/>
<polygon fill="black" stroke="black" points="612.603,-30.34 622.614,-26.8701 612.624,-23.3401 612.603,-30.34"/>
<text text-anchor="middle" x="472.3" y="-55.6701" font-family="Times,serif" font-size="14.00">true</text>
</g>
</g>
</svg>
