<?xml version="1.0" encoding="UTF-8" standalone="no"?>
<!DOCTYPE svg PUBLIC "-//W3C//DTD SVG 1.1//EN"
 "http://www.w3.org/Graphics/SVG/1.1/DTD/svg11.dtd">
<!-- Generated by graphviz version 2.38.0 (20140413.2041)
 -->
<!-- Title: IBM&#45;XIV Alert Definitions/XIV&#45;Devices/Read Bandwidth Pages: 1 -->
<svg width="839pt" height="422pt"
 viewBox="0.00 0.00 839.11 421.74" xmlns="http://www.w3.org/2000/svg" xmlns:xlink="http://www.w3.org/1999/xlink">
<g id="${uniqueid}" class="graph" transform="scale(1 1) rotate(0) translate(4 417.74)">
<title>IBM&#45;XIV Alert Definitions/XIV&#45;Devices/Read Bandwidth</title>
<polygon fill="white" stroke="none" points="-4,4 -4,-417.74 835.11,-417.74 835.11,4 -4,4"/>
<!-- LUN read b/w
entry -->
<g id="${uniqueid}_node1" class="node"><title>LUN read b/w
entry</title>
<g id="a_${uniqueid}_node1"><a xlink:href="#14737014034508" xlink:title="com.watch4net.alerting.operation.FilteredEntryPoint">
<ellipse fill="#984ea3" stroke="black" cx="82.0244" cy="-206.87" rx="82.0488" ry="26.7407"/>
<text text-anchor="middle" x="82.0244" y="-210.67" font-family="Times,serif" font-size="14.00" fill="white">LUN read b/w</text>
<text text-anchor="middle" x="82.0244" y="-195.67" font-family="Times,serif" font-size="14.00" fill="white">entry</text>
</a>
</g>
</g>
<!-- Read b/w Case -->
<g id="${uniqueid}_node6" class="node"><title>Read b/w Case</title>
<g id="a_${uniqueid}_node6"><a xlink:href="#14737014079362" xlink:title="com.watch4net.alerting.operation.CaseOperation">
<polygon fill="#377eb8" stroke="black" points="322.049,-224.87 200.049,-224.87 200.049,-188.87 322.049,-188.87 322.049,-224.87"/>
<text text-anchor="middle" x="261.049" y="-203.17" font-family="Times,serif" font-size="14.00" fill="white">Read b/w Case</text>
</a>
</g>
</g>
<!-- LUN read b/w
entry&#45;&gt;Read b/w Case -->
<g id="${uniqueid}_edge1" class="edge"><title>LUN read b/w
entry:e&#45;&gt;Read b/w Case:w</title>
<path fill="none" stroke="black" d="M164.049,-206.87C176.049,-206.87 181.299,-206.87 189.924,-206.87"/>
<polygon fill="black" stroke="black" points="190.049,-210.37 200.049,-206.87 190.049,-203.37 190.049,-210.37"/>
</g>
<!-- Read B/W_
Critical Trap -->
<g id="${uniqueid}_node2" class="node"><title>Read B/W_
Critical Trap</title>
<g id="a_${uniqueid}_node2"><a xlink:href="#14737014167445" xlink:title="com.watch4net.alerting.action.SNMPTrapAction">
<ellipse fill="#4daf4a" stroke="black" cx="728.579" cy="-314.87" rx="76.2353" ry="26.7407"/>
<text text-anchor="middle" x="728.579" y="-318.67" font-family="Times,serif" font-size="14.00" fill="white">Read B/W_</text>
<text text-anchor="middle" x="728.579" y="-303.67" font-family="Times,serif" font-size="14.00" fill="white">Critical Trap</text>
</a>
</g>
</g>
<!-- Read B/W_
Critical_Clear -->
<g id="${uniqueid}_node3" class="node"><title>Read B/W_
Critical_Clear</title>
<g id="a_${uniqueid}_node3"><a xlink:href="#1425929112863" xlink:title="com.watch4net.alerting.action.SNMPTrapAction">
<ellipse fill="#4daf4a" stroke="black" cx="728.579" cy="-386.87" rx="82.9636" ry="26.7407"/>
<text text-anchor="middle" x="728.579" y="-390.67" font-family="Times,serif" font-size="14.00" fill="white">Read B/W_</text>
<text text-anchor="middle" x="728.579" y="-375.67" font-family="Times,serif" font-size="14.00" fill="white">Critical_Clear</text>
</a>
</g>
</g>
<!-- Read B/W_Major
Trap -->
<g id="${uniqueid}_node4" class="node"><title>Read B/W_Major
Trap</title>
<g id="a_${uniqueid}_node4"><a xlink:href="#14737014200550" xlink:title="com.watch4net.alerting.action.SNMPTrapAction">
<ellipse fill="#4daf4a" stroke="black" cx="728.579" cy="-170.87" rx="96.7474" ry="26.7407"/>
<text text-anchor="middle" x="728.579" y="-174.67" font-family="Times,serif" font-size="14.00" fill="white">Read B/W_Major</text>
<text text-anchor="middle" x="728.579" y="-159.67" font-family="Times,serif" font-size="14.00" fill="white">Trap</text>
</a>
</g>
</g>
<!-- Read B/W_Major_
Clear -->
<g id="${uniqueid}_node5" class="node"><title>Read B/W_Major_
Clear</title>
<g id="a_${uniqueid}_node5"><a xlink:href="#1425929149997" xlink:title="com.watch4net.alerting.action.SNMPTrapAction">
<ellipse fill="#4daf4a" stroke="black" cx="728.579" cy="-242.87" rx="102.561" ry="26.7407"/>
<text text-anchor="middle" x="728.579" y="-246.67" font-family="Times,serif" font-size="14.00" fill="white">Read B/W_Major_</text>
<text text-anchor="middle" x="728.579" y="-231.67" font-family="Times,serif" font-size="14.00" fill="white">Clear</text>
</a>
</g>
</g>
<!-- Read b/w Crit
comp -->
<g id="${uniqueid}_node7" class="node"><title>Read b/w Crit
comp</title>
<g id="a_${uniqueid}_node7"><a xlink:href="#14737014145695" xlink:title="com.watch4net.alerting.operation.comparator.ConstantComparatorOperation">
<polygon fill="#ff7f00" stroke="black" points="474.049,-381.87 358.049,-343.87 474.049,-305.87 590.049,-343.87 474.049,-381.87"/>
<text text-anchor="middle" x="474.049" y="-347.67" font-family="Times,serif" font-size="14.00" fill="white">Read b/w Crit</text>
<text text-anchor="middle" x="474.049" y="-332.67" font-family="Times,serif" font-size="14.00" fill="white">comp</text>
</a>
</g>
</g>
<!-- Read b/w Case&#45;&gt;Read b/w Crit
comp -->
<g id="${uniqueid}_edge2" class="edge"><title>Read b/w Case:e&#45;&gt;Read b/w Crit
comp:w</title>
<path fill="none" stroke="black" d="M322.049,-206.87C381.07,-206.87 305.735,-327.28 347.961,-342.331"/>
<polygon fill="black" stroke="black" points="347.635,-345.822 358.049,-343.87 348.691,-338.902 347.635,-345.822"/>
</g>
<!-- Read b/w Maj
Comp -->
<g id="${uniqueid}_node8" class="node"><title>Read b/w Maj
Comp</title>
<g id="a_${uniqueid}_node8"><a xlink:href="#14737014186298" xlink:title="com.watch4net.alerting.operation.comparator.ConstantComparatorOperation">
<polygon fill="#ff7f00" stroke="black" points="474.049,-244.87 359.049,-206.87 474.049,-168.87 589.049,-206.87 474.049,-244.87"/>
<text text-anchor="middle" x="474.049" y="-210.67" font-family="Times,serif" font-size="14.00" fill="white">Read b/w Maj</text>
<text text-anchor="middle" x="474.049" y="-195.67" font-family="Times,serif" font-size="14.00" fill="white">Comp</text>
</a>
</g>
</g>
<!-- Read b/w Case&#45;&gt;Read b/w Maj
Comp -->
<g id="${uniqueid}_edge3" class="edge"><title>Read b/w Case:e&#45;&gt;Read b/w Maj
Comp:w</title>
<path fill="none" stroke="black" d="M322.049,-206.87C334.049,-206.87 339.299,-206.87 347.924,-206.87"/>
<polygon fill="black" stroke="black" points="348.049,-210.37 358.049,-206.87 348.049,-203.37 348.049,-210.37"/>
</g>
<!-- Read b/w Min
Comp -->
<g id="${uniqueid}_node9" class="node"><title>Read b/w Min
Comp</title>
<g id="a_${uniqueid}_node9"><a xlink:href="#14737014309156" xlink:title="com.watch4net.alerting.operation.comparator.ConstantComparatorOperation">
<polygon fill="#ff7f00" stroke="black" points="474.049,-107.87 358.049,-69.8701 474.049,-31.8701 590.049,-69.8701 474.049,-107.87"/>
<text text-anchor="middle" x="474.049" y="-73.6701" font-family="Times,serif" font-size="14.00" fill="white">Read b/w Min</text>
<text text-anchor="middle" x="474.049" y="-58.6701" font-family="Times,serif" font-size="14.00" fill="white">Comp</text>
</a>
</g>
</g>
<!-- Read b/w Case&#45;&gt;Read b/w Min
Comp -->
<g id="${uniqueid}_edge4" class="edge"><title>Read b/w Case:e&#45;&gt;Read b/w Min
Comp:w</title>
<path fill="none" stroke="black" d="M322.049,-206.87C381.07,-206.87 305.735,-86.4599 347.961,-71.4086"/>
<polygon fill="black" stroke="black" points="348.691,-74.8379 358.049,-69.8701 347.635,-67.918 348.691,-74.8379"/>
</g>
<!-- Read b/w Crit
comp&#45;&gt;Read B/W_
Critical Trap -->
<g id="${uniqueid}_edge6" class="edge"><title>Read b/w Crit
comp:se&#45;&gt;Read B/W_
Critical Trap:w</title>
<path fill="none" stroke="black" d="M504.049,-314.87C547.67,-271.248 581.696,-310.269 640.519,-314.506"/>
<polygon fill="black" stroke="black" points="640.459,-318.006 650.579,-314.87 640.712,-311.011 640.459,-318.006"/>
<text text-anchor="middle" x="488.549" y="-303.67" font-family="Times,serif" font-size="14.00">true</text>
</g>
<!-- Read b/w Crit
comp&#45;&gt;Read B/W_
Critical_Clear -->
<g id="${uniqueid}_edge5" class="edge"><title>Read b/w Crit
comp:ne&#45;&gt;Read B/W_
Critical_Clear:w</title>
<path fill="none" stroke="black" d="M502.049,-372.87C504.895,-375.716 500.098,-379.133 503.049,-381.87 546.676,-422.328 578.049,-390.763 634.519,-387.19"/>
<polygon fill="black" stroke="black" points="634.696,-390.686 644.579,-386.87 634.473,-383.69 634.696,-390.686"/>
<text text-anchor="middle" x="485.049" y="-376.67" font-family="Times,serif" font-size="14.00">false</text>
</g>
<!-- Read b/w Maj
Comp&#45;&gt;Read B/W_Major
Trap -->
<g id="${uniqueid}_edge8" class="edge"><title>Read b/w Maj
Comp:se&#45;&gt;Read B/W_Major
Trap:w</title>
<path fill="none" stroke="black" d="M504.049,-177.87C541.385,-140.534 570.423,-167.051 620.314,-170.511"/>
<polygon fill="black" stroke="black" points="620.463,-174.018 630.579,-170.87 620.708,-167.023 620.463,-174.018"/>
<text text-anchor="middle" x="488.549" y="-166.67" font-family="Times,serif" font-size="14.00">true</text>
</g>
<!-- Read b/w Maj
Comp&#45;&gt;Read B/W_Major_
Clear -->
<g id="${uniqueid}_edge7" class="edge"><title>Read b/w Maj
Comp:ne&#45;&gt;Read B/W_Major_
Clear:w</title>
<path fill="none" stroke="black" d="M502.049,-235.87C504.895,-238.716 500.05,-242.186 503.049,-244.87 531.529,-270.361 550.84,-245.902 589.049,-244.87 601.524,-244.533 606.882,-243.558 615.913,-243.106"/>
<polygon fill="black" stroke="black" points="616.133,-246.602 626.049,-242.87 615.97,-239.604 616.133,-246.602"/>
<text text-anchor="middle" x="485.049" y="-239.67" font-family="Times,serif" font-size="14.00">false</text>
</g>
<!-- ReadB/W_Minor
Trap -->
<g id="${uniqueid}_node10" class="node"><title>ReadB/W_Minor
Trap</title>
<g id="a_${uniqueid}_node10"><a xlink:href="#14737014331787" xlink:title="com.watch4net.alerting.action.SNMPTrapAction">
<ellipse fill="#4daf4a" stroke="black" cx="728.579" cy="-26.8701" rx="94.5053" ry="26.7407"/>
<text text-anchor="middle" x="728.579" y="-30.6701" font-family="Times,serif" font-size="14.00" fill="white">ReadB/W_Minor</text>
<text text-anchor="middle" x="728.579" y="-15.6701" font-family="Times,serif" font-size="14.00" fill="white">Trap</text>
</a>
</g>
</g>
<!-- Read b/w Min
Comp&#45;&gt;ReadB/W_Minor
Trap -->
<g id="${uniqueid}_edge10" class="edge"><title>Read b/w Min
Comp:se&#45;&gt;ReadB/W_Minor
Trap:w</title>
<path fill="none" stroke="black" d="M504.049,-40.8701C542.221,-2.69806 571.394,-23.8917 622.431,-26.598"/>
<polygon fill="black" stroke="black" points="622.489,-30.1007 632.579,-26.8701 622.677,-23.1032 622.489,-30.1007"/>
<text text-anchor="middle" x="488.549" y="-29.6701" font-family="Times,serif" font-size="14.00">true</text>
</g>
<!-- ReadB/W_Minor_
Clear -->
<g id="${uniqueid}_node11" class="node"><title>ReadB/W_Minor_
Clear</title>
<g id="a_${uniqueid}_node11"><a xlink:href="#1425929200357" xlink:title="com.watch4net.alerting.action.SNMPTrapAction">
<ellipse fill="#4daf4a" stroke="black" cx="728.579" cy="-98.8701" rx="99.9045" ry="26.7407"/>
<text text-anchor="middle" x="728.579" y="-102.67" font-family="Times,serif" font-size="14.00" fill="white">ReadB/W_Minor_</text>
<text text-anchor="middle" x="728.579" y="-87.6701" font-family="Times,serif" font-size="14.00" fill="white">Clear</text>
</a>
</g>
</g>
<!-- Read b/w Min
Comp&#45;&gt;ReadB/W_Minor_
Clear -->
<g id="${uniqueid}_edge9" class="edge"><title>Read b/w Min
Comp:ne&#45;&gt;ReadB/W_Minor_
Clear:w</title>
<path fill="none" stroke="black" d="M502.049,-98.8701C504.895,-101.716 500.05,-105.186 503.049,-107.87 531.86,-133.658 551.65,-112.41 590.049,-107.87 603.091,-106.328 608.107,-101.872 617.44,-99.8674"/>
<polygon fill="black" stroke="black" points="617.97,-103.332 627.579,-98.8701 617.285,-96.3659 617.97,-103.332"/>
<text text-anchor="middle" x="485.049" y="-102.67" font-family="Times,serif" font-size="14.00">false</text>
</g>
</g>
</svg>
