<?xml version="1.0" encoding="UTF-8" standalone="no"?>
<!DOCTYPE svg PUBLIC "-//W3C//DTD SVG 1.1//EN"
 "http://www.w3.org/Graphics/SVG/1.1/DTD/svg11.dtd">
<!-- Generated by graphviz version 2.38.0 (20140413.2041)
 -->
<!-- Title: IBMDS5k Alert Definitions/IBMDS5k&#45;Controller/Write Requests Pages: 1 -->
<svg width="1024pt" height="422pt"
 viewBox="0.00 0.00 1023.91 421.74" xmlns="http://www.w3.org/2000/svg" xmlns:xlink="http://www.w3.org/1999/xlink">
<g id="${uniqueid}" class="graph" transform="scale(1 1) rotate(0) translate(4 417.74)">
<title>IBMDS5k Alert Definitions/IBMDS5k&#45;Controller/Write Requests</title>
<polygon fill="white" stroke="none" points="-4,4 -4,-417.74 1019.91,-417.74 1019.91,4 -4,4"/>
<!-- Controller write
req entry -->
<g id="${uniqueid}_node1" class="node"><title>Controller write
req entry</title>
<g id="a_${uniqueid}_node1"><a xlink:href="#2964714970659460" xlink:title="com.watch4net.alerting.operation.FilteredEntryPoint">
<ellipse fill="#984ea3" stroke="black" cx="93.3381" cy="-206.87" rx="93.1765" ry="26.7407"/>
<text text-anchor="middle" x="93.3381" y="-210.67" font-family="Times,serif" font-size="14.00" fill="white">Controller write</text>
<text text-anchor="middle" x="93.3381" y="-195.67" font-family="Times,serif" font-size="14.00" fill="white">req entry</text>
</a>
</g>
</g>
<!-- Roundoff -->
<g id="${uniqueid}_node2" class="node"><title>Roundoff</title>
<g id="a_${uniqueid}_node2"><a xlink:href="#1441797455986" xlink:title="com.watch4net.alerting.operation.math.ConstantMathOperation">
<polygon fill="#377eb8" stroke="black" points="303.676,-224.87 222.676,-224.87 222.676,-188.87 303.676,-188.87 303.676,-224.87"/>
<text text-anchor="middle" x="263.176" y="-203.17" font-family="Times,serif" font-size="14.00" fill="white">Roundoff</text>
</a>
</g>
</g>
<!-- Controller write
req entry&#45;&gt;Roundoff -->
<g id="${uniqueid}_edge1" class="edge"><title>Controller write
req entry:e&#45;&gt;Roundoff:w</title>
<path fill="none" stroke="black" d="M186.676,-206.87C198.676,-206.87 203.926,-206.87 212.551,-206.87"/>
<polygon fill="black" stroke="black" points="212.676,-210.37 222.676,-206.87 212.676,-203.37 212.676,-210.37"/>
</g>
<!-- Write Req Case -->
<g id="${uniqueid}_node3" class="node"><title>Write Req Case</title>
<g id="a_${uniqueid}_node3"><a xlink:href="#2964714970705788" xlink:title="com.watch4net.alerting.operation.CaseOperation">
<polygon fill="#377eb8" stroke="black" points="467.676,-224.87 339.676,-224.87 339.676,-188.87 467.676,-188.87 467.676,-224.87"/>
<text text-anchor="middle" x="403.676" y="-203.17" font-family="Times,serif" font-size="14.00" fill="white">Write Req Case</text>
</a>
</g>
</g>
<!-- Roundoff&#45;&gt;Write Req Case -->
<g id="${uniqueid}_edge2" class="edge"><title>Roundoff:e&#45;&gt;Write Req Case:w</title>
<path fill="none" stroke="black" d="M303.676,-206.87C315.676,-206.87 320.926,-206.87 329.551,-206.87"/>
<polygon fill="black" stroke="black" points="329.676,-210.37 339.676,-206.87 329.676,-203.37 329.676,-210.37"/>
</g>
<!-- Write Req Maj
Comp -->
<g id="${uniqueid}_node4" class="node"><title>Write Req Maj
Comp</title>
<g id="a_${uniqueid}_node4"><a xlink:href="#2964714970751378" xlink:title="com.watch4net.alerting.operation.comparator.ConstantComparatorOperation">
<polygon fill="#ff7f00" stroke="black" points="640.676,-381.87 519.676,-343.87 640.676,-305.87 761.676,-343.87 640.676,-381.87"/>
<text text-anchor="middle" x="640.676" y="-347.67" font-family="Times,serif" font-size="14.00" fill="white">Write Req Maj</text>
<text text-anchor="middle" x="640.676" y="-332.67" font-family="Times,serif" font-size="14.00" fill="white">Comp</text>
</a>
</g>
</g>
<!-- Write Req Case&#45;&gt;Write Req Maj
Comp -->
<g id="${uniqueid}_edge3" class="edge"><title>Write Req Case:e&#45;&gt;Write Req Maj
Comp:w</title>
<path fill="none" stroke="black" d="M467.676,-206.87C528.84,-206.87 462.462,-328.286 508.68,-342.514"/>
<polygon fill="black" stroke="black" points="508.296,-345.994 518.676,-343.87 509.237,-339.058 508.296,-345.994"/>
</g>
<!-- Write Req Minor
Comp -->
<g id="${uniqueid}_node5" class="node"><title>Write Req Minor
Comp</title>
<g id="a_${uniqueid}_node5"><a xlink:href="#2964714970776994" xlink:title="com.watch4net.alerting.operation.comparator.ConstantComparatorOperation">
<polygon fill="#ff7f00" stroke="black" points="640.676,-244.87 503.676,-206.87 640.676,-168.87 777.676,-206.87 640.676,-244.87"/>
<text text-anchor="middle" x="640.676" y="-210.67" font-family="Times,serif" font-size="14.00" fill="white">Write Req Minor</text>
<text text-anchor="middle" x="640.676" y="-195.67" font-family="Times,serif" font-size="14.00" fill="white">Comp</text>
</a>
</g>
</g>
<!-- Write Req Case&#45;&gt;Write Req Minor
Comp -->
<g id="${uniqueid}_edge4" class="edge"><title>Write Req Case:e&#45;&gt;Write Req Minor
Comp:w</title>
<path fill="none" stroke="black" d="M467.676,-206.87C479.676,-206.87 484.926,-206.87 493.551,-206.87"/>
<polygon fill="black" stroke="black" points="493.676,-210.37 503.676,-206.87 493.676,-203.37 493.676,-210.37"/>
</g>
<!-- WriteReq Crit
comp -->
<g id="${uniqueid}_node6" class="node"><title>WriteReq Crit
comp</title>
<g id="a_${uniqueid}_node6"><a xlink:href="#2964714970714130" xlink:title="com.watch4net.alerting.operation.comparator.ConstantComparatorOperation">
<polygon fill="#ff7f00" stroke="black" points="640.676,-107.87 523.676,-69.8701 640.676,-31.8701 757.676,-69.8701 640.676,-107.87"/>
<text text-anchor="middle" x="640.676" y="-73.6701" font-family="Times,serif" font-size="14.00" fill="white">WriteReq Crit</text>
<text text-anchor="middle" x="640.676" y="-58.6701" font-family="Times,serif" font-size="14.00" fill="white">comp</text>
</a>
</g>
</g>
<!-- Write Req Case&#45;&gt;WriteReq Crit
comp -->
<g id="${uniqueid}_edge5" class="edge"><title>Write Req Case:e&#45;&gt;WriteReq Crit
comp:w</title>
<path fill="none" stroke="black" d="M467.676,-206.87C529.444,-206.87 465.509,-85.4544 512.547,-71.226"/>
<polygon fill="black" stroke="black" points="513.229,-74.666 522.676,-69.8701 512.3,-67.7278 513.229,-74.666"/>
</g>
<!-- WriteReq_Major
Trap -->
<g id="${uniqueid}_node9" class="node"><title>WriteReq_Major
Trap</title>
<g id="a_${uniqueid}_node9"><a xlink:href="#2964714970762885" xlink:title="com.watch4net.alerting.action.SNMPTrapAction">
<ellipse fill="#4daf4a" stroke="black" cx="914.792" cy="-314.87" rx="94.5053" ry="26.7407"/>
<text text-anchor="middle" x="914.792" y="-318.67" font-family="Times,serif" font-size="14.00" fill="white">WriteReq_Major</text>
<text text-anchor="middle" x="914.792" y="-303.67" font-family="Times,serif" font-size="14.00" fill="white">Trap</text>
</a>
</g>
</g>
<!-- Write Req Maj
Comp&#45;&gt;WriteReq_Major
Trap -->
<g id="${uniqueid}_edge7" class="edge"><title>Write Req Maj
Comp:se&#45;&gt;WriteReq_Major
Trap:w</title>
<path fill="none" stroke="black" d="M670.676,-314.87C714.77,-270.776 749.164,-310.22 808.623,-314.502"/>
<polygon fill="black" stroke="black" points="808.672,-318.006 818.792,-314.87 808.926,-311.011 808.672,-318.006"/>
<text text-anchor="middle" x="655.176" y="-303.67" font-family="Times,serif" font-size="14.00">true</text>
</g>
<!-- WriteReq_Major_
Clear -->
<g id="${uniqueid}_node10" class="node"><title>WriteReq_Major_
Clear</title>
<g id="a_${uniqueid}_node10"><a xlink:href="#1426747190126" xlink:title="com.watch4net.alerting.action.SNMPTrapAction">
<ellipse fill="#4daf4a" stroke="black" cx="914.792" cy="-386.87" rx="100.318" ry="26.7407"/>
<text text-anchor="middle" x="914.792" y="-390.67" font-family="Times,serif" font-size="14.00" fill="white">WriteReq_Major_</text>
<text text-anchor="middle" x="914.792" y="-375.67" font-family="Times,serif" font-size="14.00" fill="white">Clear</text>
</a>
</g>
</g>
<!-- Write Req Maj
Comp&#45;&gt;WriteReq_Major_
Clear -->
<g id="${uniqueid}_edge6" class="edge"><title>Write Req Maj
Comp:ne&#45;&gt;WriteReq_Major_
Clear:w</title>
<path fill="none" stroke="black" d="M668.676,-372.87C671.522,-375.716 666.724,-379.134 669.676,-381.87 714.076,-423.02 745.987,-390.839 803.441,-387.196"/>
<polygon fill="black" stroke="black" points="803.793,-390.687 813.676,-386.87 803.57,-383.69 803.793,-390.687"/>
<text text-anchor="middle" x="651.676" y="-376.67" font-family="Times,serif" font-size="14.00">false</text>
</g>
<!-- WriteReq_Minor
Trap -->
<g id="${uniqueid}_node11" class="node"><title>WriteReq_Minor
Trap</title>
<g id="a_${uniqueid}_node11"><a xlink:href="#2964714970788075" xlink:title="com.watch4net.alerting.action.SNMPTrapAction">
<ellipse fill="#4daf4a" stroke="black" cx="914.792" cy="-170.87" rx="95.4188" ry="26.7407"/>
<text text-anchor="middle" x="914.792" y="-174.67" font-family="Times,serif" font-size="14.00" fill="white">WriteReq_Minor</text>
<text text-anchor="middle" x="914.792" y="-159.67" font-family="Times,serif" font-size="14.00" fill="white">Trap</text>
</a>
</g>
</g>
<!-- Write Req Minor
Comp&#45;&gt;WriteReq_Minor
Trap -->
<g id="${uniqueid}_edge9" class="edge"><title>Write Req Minor
Comp:se&#45;&gt;WriteReq_Minor
Trap:w</title>
<path fill="none" stroke="black" d="M671.676,-176.87C715.211,-133.335 749.059,-166.895 807.753,-170.555"/>
<polygon fill="black" stroke="black" points="807.688,-174.055 817.792,-170.87 807.907,-167.058 807.688,-174.055"/>
<text text-anchor="middle" x="656.176" y="-165.67" font-family="Times,serif" font-size="14.00">true</text>
</g>
<!-- WriteReq_Minor_
Clear -->
<g id="${uniqueid}_node12" class="node"><title>WriteReq_Minor_
Clear</title>
<g id="a_${uniqueid}_node12"><a xlink:href="#1426747241763" xlink:title="com.watch4net.alerting.action.SNMPTrapAction">
<ellipse fill="#4daf4a" stroke="black" cx="914.792" cy="-242.87" rx="101.233" ry="26.7407"/>
<text text-anchor="middle" x="914.792" y="-246.67" font-family="Times,serif" font-size="14.00" fill="white">WriteReq_Minor_</text>
<text text-anchor="middle" x="914.792" y="-231.67" font-family="Times,serif" font-size="14.00" fill="white">Clear</text>
</a>
</g>
</g>
<!-- Write Req Minor
Comp&#45;&gt;WriteReq_Minor_
Clear -->
<g id="${uniqueid}_edge8" class="edge"><title>Write Req Minor
Comp:ne&#45;&gt;WriteReq_Minor_
Clear:w</title>
<path fill="none" stroke="black" d="M669.676,-236.87C672.21,-239.404 667.99,-242.499 670.676,-244.87 706.328,-276.342 730.139,-246.19 777.676,-244.87 789.69,-244.537 794.919,-243.578 803.543,-243.12"/>
<polygon fill="black" stroke="black" points="803.766,-246.616 813.676,-242.87 803.593,-239.618 803.766,-246.616"/>
<text text-anchor="middle" x="652.676" y="-240.67" font-family="Times,serif" font-size="14.00">false</text>
</g>
<!-- WriteReq_
Critical Trap -->
<g id="${uniqueid}_node7" class="node"><title>WriteReq_
Critical Trap</title>
<g id="a_${uniqueid}_node7"><a xlink:href="#2964714970731873" xlink:title="com.watch4net.alerting.action.SNMPTrapAction">
<ellipse fill="#4daf4a" stroke="black" cx="914.792" cy="-26.8701" rx="76.2353" ry="26.7407"/>
<text text-anchor="middle" x="914.792" y="-30.6701" font-family="Times,serif" font-size="14.00" fill="white">WriteReq_</text>
<text text-anchor="middle" x="914.792" y="-15.6701" font-family="Times,serif" font-size="14.00" fill="white">Critical Trap</text>
</a>
</g>
</g>
<!-- WriteReq Crit
comp&#45;&gt;WriteReq_
Critical Trap -->
<g id="${uniqueid}_edge11" class="edge"><title>WriteReq Crit
comp:se&#45;&gt;WriteReq_
Critical Trap:w</title>
<path fill="none" stroke="black" d="M670.676,-40.8701C720.611,9.06452 758.957,-23.4704 826.596,-26.6303"/>
<polygon fill="black" stroke="black" points="826.713,-30.1339 836.792,-26.8701 826.878,-23.1359 826.713,-30.1339"/>
<text text-anchor="middle" x="655.176" y="-29.6701" font-family="Times,serif" font-size="14.00">true</text>
</g>
<!-- WriteReq_
Critical_Clear -->
<g id="${uniqueid}_node8" class="node"><title>WriteReq_
Critical_Clear</title>
<g id="a_${uniqueid}_node8"><a xlink:href="#1426747131537" xlink:title="com.watch4net.alerting.action.SNMPTrapAction">
<ellipse fill="#4daf4a" stroke="black" cx="914.792" cy="-98.8701" rx="82.9636" ry="26.7407"/>
<text text-anchor="middle" x="914.792" y="-102.67" font-family="Times,serif" font-size="14.00" fill="white">WriteReq_</text>
<text text-anchor="middle" x="914.792" y="-87.6701" font-family="Times,serif" font-size="14.00" fill="white">Critical_Clear</text>
</a>
</g>
</g>
<!-- WriteReq Crit
comp&#45;&gt;WriteReq_
Critical_Clear -->
<g id="${uniqueid}_edge10" class="edge"><title>WriteReq Crit
comp:ne&#45;&gt;WriteReq_
Critical_Clear:w</title>
<path fill="none" stroke="black" d="M668.676,-98.8701C671.522,-101.716 666.677,-105.186 669.676,-107.87 720.507,-153.365 755.52,-104.17 820.536,-99.2577"/>
<polygon fill="black" stroke="black" points="820.932,-102.745 830.792,-98.8701 820.667,-95.7504 820.932,-102.745"/>
<text text-anchor="middle" x="651.676" y="-102.67" font-family="Times,serif" font-size="14.00">false</text>
</g>
</g>
</svg>
