<?xml version="1.0" encoding="UTF-8" standalone="no"?>
<!DOCTYPE svg PUBLIC "-//W3C//DTD SVG 1.1//EN"
 "http://www.w3.org/Graphics/SVG/1.1/DTD/svg11.dtd">
<!-- Generated by graphviz version 2.38.0 (20140413.2041)
 -->
<!-- Title: EMC XtremIO Alert Definitions/Cluster/High SmallIO Percentage Pages: 1 -->
<svg width="1472pt" height="198pt"
 viewBox="0.00 0.00 1471.94 197.87" xmlns="http://www.w3.org/2000/svg" xmlns:xlink="http://www.w3.org/1999/xlink">
<g id="${uniqueid}" class="graph" transform="scale(1 1) rotate(0) translate(4 193.87)">
<title>EMC XtremIO Alert Definitions/Cluster/High SmallIO Percentage</title>
<polygon fill="white" stroke="none" points="-4,4 -4,-193.87 1467.94,-193.87 1467.94,4 -4,4"/>
<!-- Percent -->
<g id="${uniqueid}_node1" class="node"><title>Percent</title>
<g id="a_${uniqueid}_node1"><a xlink:href="#953473275138946" xlink:title="com.watch4net.alerting.operation.arithmetic.ConstantArithmeticOperation">
<polygon fill="#377eb8" stroke="black" points="312.191,-85.8701 240.191,-85.8701 240.191,-49.8701 312.191,-49.8701 312.191,-85.8701"/>
<text text-anchor="middle" x="276.191" y="-64.1701" font-family="Times,serif" font-size="14.00" fill="white">Percent</text>
</a>
</g>
</g>
<!-- SmallIO_CRIT
Threshold check -->
<g id="${uniqueid}_node3" class="node"><title>SmallIO_CRIT
Threshold check</title>
<g id="a_${uniqueid}_node3"><a xlink:href="#953473275149510" xlink:title="com.watch4net.alerting.operation.comparator.ConstantComparatorOperation">
<polygon fill="#ff7f00" stroke="black" points="483.191,-105.87 348.191,-67.8701 483.191,-29.8701 618.191,-67.8701 483.191,-105.87"/>
<text text-anchor="middle" x="483.191" y="-71.6701" font-family="Times,serif" font-size="14.00" fill="white">SmallIO_CRIT</text>
<text text-anchor="middle" x="483.191" y="-56.6701" font-family="Times,serif" font-size="14.00" fill="white">Threshold check</text>
</a>
</g>
</g>
<!-- Percent&#45;&gt;SmallIO_CRIT
Threshold check -->
<g id="${uniqueid}_edge1" class="edge"><title>Percent:e&#45;&gt;SmallIO_CRIT
Threshold check:w</title>
<path fill="none" stroke="black" d="M312.191,-67.8701C324.191,-67.8701 329.441,-67.8701 338.066,-67.8701"/>
<polygon fill="black" stroke="black" points="338.191,-71.3702 348.191,-67.8701 338.191,-64.3702 338.191,-71.3702"/>
</g>
<!-- SmallIO -->
<g id="${uniqueid}_node2" class="node"><title>SmallIO</title>
<g id="a_${uniqueid}_node2"><a xlink:href="#953473275104969" xlink:title="com.watch4net.alerting.operation.FilteredEntryPoint">
<ellipse fill="#984ea3" stroke="black" cx="48.0957" cy="-94.8701" rx="48.1917" ry="18"/>
<text text-anchor="middle" x="48.0957" y="-91.1701" font-family="Times,serif" font-size="14.00" fill="white">SmallIO</text>
</a>
</g>
</g>
<!-- division -->
<g id="${uniqueid}_node10" class="node"><title>division</title>
<g id="a_${uniqueid}_node10"><a xlink:href="#953473275129435" xlink:title="com.watch4net.alerting.operation.arithmetic.DataArithmeticOperation">
<polygon fill="#377eb8" stroke="black" points="204.191,-85.8701 132.191,-85.8701 132.191,-49.8701 204.191,-49.8701 204.191,-85.8701"/>
<text text-anchor="middle" x="168.191" y="-64.1701" font-family="Times,serif" font-size="14.00" fill="white">division</text>
</a>
</g>
</g>
<!-- SmallIO&#45;&gt;division -->
<g id="${uniqueid}_edge2" class="edge"><title>SmallIO:e&#45;&gt;division:w</title>
<path fill="none" stroke="black" d="M96.1915,-94.8701C112.129,-94.8701 112.826,-77.7248 122.572,-70.7595"/>
<polygon fill="black" stroke="black" points="123.621,-74.0991 132.191,-67.8701 121.607,-67.395 123.621,-74.0991"/>
</g>
<!-- SmallIO_CRIT
Threshold trap -->
<g id="${uniqueid}_node4" class="node"><title>SmallIO_CRIT
Threshold trap</title>
<g id="a_${uniqueid}_node4"><a xlink:href="#953473275180720" xlink:title="com.watch4net.alerting.action.SNMPTrapAction">
<ellipse fill="#4daf4a" stroke="black" cx="789.191" cy="-26.8701" rx="86.0347" ry="26.7407"/>
<text text-anchor="middle" x="789.191" y="-30.6701" font-family="Times,serif" font-size="14.00" fill="white">SmallIO_CRIT</text>
<text text-anchor="middle" x="789.191" y="-15.6701" font-family="Times,serif" font-size="14.00" fill="white">Threshold trap</text>
</a>
</g>
</g>
<!-- SmallIO_CRIT
Threshold check&#45;&gt;SmallIO_CRIT
Threshold trap -->
<g id="${uniqueid}_edge4" class="edge"><title>SmallIO_CRIT
Threshold check:se&#45;&gt;SmallIO_CRIT
Threshold trap:w</title>
<path fill="none" stroke="black" d="M514.191,-37.8701C570.647,18.5854 614.232,-23.1228 691.137,-26.6391"/>
<polygon fill="black" stroke="black" points="691.114,-30.1394 701.191,-26.8701 691.275,-23.1413 691.114,-30.1394"/>
<text text-anchor="middle" x="498.691" y="-26.6701" font-family="Times,serif" font-size="14.00">true</text>
</g>
<!-- SmallIO_Major
Threshold check -->
<g id="${uniqueid}_node8" class="node"><title>SmallIO_Major
Threshold check</title>
<g id="a_${uniqueid}_node8"><a xlink:href="#953473275154439" xlink:title="com.watch4net.alerting.operation.comparator.ConstantComparatorOperation">
<polygon fill="#ff7f00" stroke="black" points="789.191,-147.87 654.191,-109.87 789.191,-71.8701 924.191,-109.87 789.191,-147.87"/>
<text text-anchor="middle" x="789.191" y="-113.67" font-family="Times,serif" font-size="14.00" fill="white">SmallIO_Major</text>
<text text-anchor="middle" x="789.191" y="-98.6701" font-family="Times,serif" font-size="14.00" fill="white">Threshold check</text>
</a>
</g>
</g>
<!-- SmallIO_CRIT
Threshold check&#45;&gt;SmallIO_Major
Threshold check -->
<g id="${uniqueid}_edge3" class="edge"><title>SmallIO_CRIT
Threshold check:ne&#45;&gt;SmallIO_Major
Threshold check:w</title>
<path fill="none" stroke="black" d="M512.191,-97.8701C514.725,-100.404 510.539,-103.461 513.191,-105.87 557.059,-145.717 587.967,-113.803 644.175,-110.193"/>
<polygon fill="black" stroke="black" points="644.309,-113.691 654.191,-109.87 644.084,-106.694 644.309,-113.691"/>
<text text-anchor="middle" x="495.191" y="-101.67" font-family="Times,serif" font-size="14.00">false</text>
</g>
<!-- SmallIO_MAJOR
Threshold trap -->
<g id="${uniqueid}_node5" class="node"><title>SmallIO_MAJOR
Threshold trap</title>
<g id="a_${uniqueid}_node5"><a xlink:href="#953473275174378" xlink:title="com.watch4net.alerting.action.SNMPTrapAction">
<ellipse fill="#4daf4a" stroke="black" cx="1097.19" cy="-68.8701" rx="94.5053" ry="26.7407"/>
<text text-anchor="middle" x="1097.19" y="-72.6701" font-family="Times,serif" font-size="14.00" fill="white">SmallIO_MAJOR</text>
<text text-anchor="middle" x="1097.19" y="-57.6701" font-family="Times,serif" font-size="14.00" fill="white">Threshold trap</text>
</a>
</g>
</g>
<!-- SmallIO_MINOR
Threshold check -->
<g id="${uniqueid}_node6" class="node"><title>SmallIO_MINOR
Threshold check</title>
<g id="a_${uniqueid}_node6"><a xlink:href="#953473275158662" xlink:title="com.watch4net.alerting.operation.comparator.ConstantComparatorOperation">
<polygon fill="#ff7f00" stroke="black" points="1097.19,-189.87 960.191,-151.87 1097.19,-113.87 1234.19,-151.87 1097.19,-189.87"/>
<text text-anchor="middle" x="1097.19" y="-155.67" font-family="Times,serif" font-size="14.00" fill="white">SmallIO_MINOR</text>
<text text-anchor="middle" x="1097.19" y="-140.67" font-family="Times,serif" font-size="14.00" fill="white">Threshold check</text>
</a>
</g>
</g>
<!-- SmallIO_MINOR
Threshold trap -->
<g id="${uniqueid}_node7" class="node"><title>SmallIO_MINOR
Threshold trap</title>
<g id="a_${uniqueid}_node7"><a xlink:href="#953473275163136" xlink:title="com.watch4net.alerting.action.SNMPTrapAction">
<ellipse fill="#4daf4a" stroke="black" cx="1367.07" cy="-151.87" rx="96.7474" ry="26.7407"/>
<text text-anchor="middle" x="1367.07" y="-155.67" font-family="Times,serif" font-size="14.00" fill="white">SmallIO_MINOR</text>
<text text-anchor="middle" x="1367.07" y="-140.67" font-family="Times,serif" font-size="14.00" fill="white">Threshold trap</text>
</a>
</g>
</g>
<!-- SmallIO_MINOR
Threshold check&#45;&gt;SmallIO_MINOR
Threshold trap -->
<g id="${uniqueid}_edge5" class="edge"><title>SmallIO_MINOR
Threshold check:e&#45;&gt;SmallIO_MINOR
Threshold trap:w</title>
<path fill="none" stroke="black" d="M1234.19,-151.87C1246.19,-151.87 1251.44,-151.87 1260.07,-151.87"/>
<polygon fill="black" stroke="black" points="1260.19,-155.37 1270.19,-151.87 1260.19,-148.37 1260.19,-155.37"/>
<text text-anchor="middle" x="1249.69" y="-140.67" font-family="Times,serif" font-size="14.00">true</text>
</g>
<!-- SmallIO_Major
Threshold check&#45;&gt;SmallIO_MAJOR
Threshold trap -->
<g id="${uniqueid}_edge7" class="edge"><title>SmallIO_Major
Threshold check:se&#45;&gt;SmallIO_MAJOR
Threshold trap:w</title>
<path fill="none" stroke="black" d="M820.191,-79.8701C846.571,-53.491 944.7,-66.5266 991.094,-68.6069"/>
<polygon fill="black" stroke="black" points="991.104,-72.1083 1001.19,-68.8701 991.286,-65.1106 991.104,-72.1083"/>
<text text-anchor="middle" x="804.691" y="-68.6701" font-family="Times,serif" font-size="14.00">true</text>
</g>
<!-- SmallIO_Major
Threshold check&#45;&gt;SmallIO_MINOR
Threshold check -->
<g id="${uniqueid}_edge6" class="edge"><title>SmallIO_Major
Threshold check:ne&#45;&gt;SmallIO_MINOR
Threshold check:w</title>
<path fill="none" stroke="black" d="M818.191,-139.87C820.725,-142.404 816.539,-145.461 819.191,-147.87 863.059,-187.717 893.967,-155.803 950.175,-152.193"/>
<polygon fill="black" stroke="black" points="950.309,-155.691 960.191,-151.87 950.084,-148.694 950.309,-155.691"/>
<text text-anchor="middle" x="801.191" y="-143.67" font-family="Times,serif" font-size="14.00">false</text>
</g>
<!-- TotalIO -->
<g id="${uniqueid}_node9" class="node"><title>TotalIO</title>
<g id="a_${uniqueid}_node9"><a xlink:href="#953473275188856" xlink:title="com.watch4net.alerting.operation.FilteredEntryPoint">
<ellipse fill="#984ea3" stroke="black" cx="48.0957" cy="-40.8701" rx="44.6926" ry="18"/>
<text text-anchor="middle" x="48.0957" y="-37.1701" font-family="Times,serif" font-size="14.00" fill="white">TotalIO</text>
</a>
</g>
</g>
<!-- TotalIO&#45;&gt;division -->
<g id="${uniqueid}_edge8" class="edge"><title>TotalIO:e&#45;&gt;division:w</title>
<path fill="none" stroke="black" d="M94.0957,-40.8701C110.795,-40.8701 111.849,-58.3532 122.437,-65.1825"/>
<polygon fill="black" stroke="black" points="121.621,-68.5881 132.191,-67.8701 123.48,-61.8395 121.621,-68.5881"/>
</g>
<!-- division&#45;&gt;Percent -->
<g id="${uniqueid}_edge9" class="edge"><title>division:e&#45;&gt;Percent:w</title>
<path fill="none" stroke="black" d="M204.191,-67.8701C216.191,-67.8701 221.441,-67.8701 230.066,-67.8701"/>
<polygon fill="black" stroke="black" points="230.191,-71.3702 240.191,-67.8701 230.191,-64.3702 230.191,-71.3702"/>
</g>
</g>
</svg>
