<?xml version="1.0" encoding="UTF-8" standalone="no"?>
<!DOCTYPE svg PUBLIC "-//W3C//DTD SVG 1.1//EN"
 "http://www.w3.org/Graphics/SVG/1.1/DTD/svg11.dtd">
<!-- Generated by graphviz version 2.38.0 (20140413.2041)
 -->
<!-- Title: VMware vCenter Alert Definitions/ESX/High CPU Utilization Pages: 1 -->
<svg width="870pt" height="278pt"
 viewBox="0.00 0.00 870.35 277.74" xmlns="http://www.w3.org/2000/svg" xmlns:xlink="http://www.w3.org/1999/xlink">
<g id="${uniqueid}" class="graph" transform="scale(1 1) rotate(0) translate(4 273.74)">
<title>VMware vCenter Alert Definitions/ESX/High CPU Utilization</title>
<polygon fill="white" stroke="none" points="-4,4 -4,-273.74 866.352,-273.74 866.352,4 -4,4"/>
<!-- ESXHCU_Case
Statement -->
<g id="${uniqueid}_node1" class="node"><title>ESXHCU_Case
Statement</title>
<g id="a_${uniqueid}_node1"><a xlink:href="#1413925388464" xlink:title="com.watch4net.alerting.operation.CaseOperation">
<polygon fill="#377eb8" stroke="black" points="342.019,-153.87 217.019,-153.87 217.019,-115.87 342.019,-115.87 342.019,-153.87"/>
<text text-anchor="middle" x="279.519" y="-138.67" font-family="Times,serif" font-size="14.00" fill="white">ESXHCU_Case</text>
<text text-anchor="middle" x="279.519" y="-123.67" font-family="Times,serif" font-size="14.00" fill="white">Statement</text>
</a>
</g>
</g>
<!-- ESX_CPU_Util_
Check_Critical -->
<g id="${uniqueid}_node4" class="node"><title>ESX_CPU_Util_
Check_Critical</title>
<g id="a_${uniqueid}_node4"><a xlink:href="#2304088380925807" xlink:title="com.watch4net.alerting.operation.comparator.ConstantComparatorOperation">
<polygon fill="#ff7f00" stroke="black" points="506.019,-237.87 378.019,-199.87 506.019,-161.87 634.019,-199.87 506.019,-237.87"/>
<text text-anchor="middle" x="506.019" y="-203.67" font-family="Times,serif" font-size="14.00" fill="white">ESX_CPU_Util_</text>
<text text-anchor="middle" x="506.019" y="-188.67" font-family="Times,serif" font-size="14.00" fill="white">Check_Critical</text>
</a>
</g>
</g>
<!-- ESXHCU_Case
Statement&#45;&gt;ESX_CPU_Util_
Check_Critical -->
<g id="${uniqueid}_edge1" class="edge"><title>ESXHCU_Case
Statement:e&#45;&gt;ESX_CPU_Util_
Check_Critical:w</title>
<path fill="none" stroke="black" d="M342.019,-134.87C370.915,-134.87 351.522,-184.636 368.346,-197.077"/>
<polygon fill="black" stroke="black" points="367.441,-200.459 378.019,-199.87 369.383,-193.733 367.441,-200.459"/>
</g>
<!-- ESX_CPU_Util_
Check_Major -->
<g id="${uniqueid}_node5" class="node"><title>ESX_CPU_Util_
Check_Major</title>
<g id="a_${uniqueid}_node5"><a xlink:href="#2304088380996368" xlink:title="com.watch4net.alerting.operation.comparator.ConstantComparatorOperation">
<polygon fill="#ff7f00" stroke="black" points="506.019,-107.87 378.019,-69.8701 506.019,-31.8701 634.019,-69.8701 506.019,-107.87"/>
<text text-anchor="middle" x="506.019" y="-73.6701" font-family="Times,serif" font-size="14.00" fill="white">ESX_CPU_Util_</text>
<text text-anchor="middle" x="506.019" y="-58.6701" font-family="Times,serif" font-size="14.00" fill="white">Check_Major</text>
</a>
</g>
</g>
<!-- ESXHCU_Case
Statement&#45;&gt;ESX_CPU_Util_
Check_Major -->
<g id="${uniqueid}_edge2" class="edge"><title>ESXHCU_Case
Statement:e&#45;&gt;ESX_CPU_Util_
Check_Major:w</title>
<path fill="none" stroke="black" d="M342.019,-134.87C370.915,-134.87 351.522,-85.1044 368.346,-72.663"/>
<polygon fill="black" stroke="black" points="369.383,-76.0066 378.019,-69.8701 367.441,-69.2813 369.383,-76.0066"/>
</g>
<!-- ESXHCU_Clear_
Critical -->
<g id="${uniqueid}_node2" class="node"><title>ESXHCU_Clear_
Critical</title>
<g id="a_${uniqueid}_node2"><a xlink:href="#2304088380979606" xlink:title="com.watch4net.alerting.action.SNMPTrapAction">
<ellipse fill="#4daf4a" stroke="black" cx="766.186" cy="-242.87" rx="96.3333" ry="26.7407"/>
<text text-anchor="middle" x="766.186" y="-246.67" font-family="Times,serif" font-size="14.00" fill="white">ESXHCU_Clear_</text>
<text text-anchor="middle" x="766.186" y="-231.67" font-family="Times,serif" font-size="14.00" fill="white">Critical</text>
</a>
</g>
</g>
<!-- ESXHCU_Clear_
Major -->
<g id="${uniqueid}_node3" class="node"><title>ESXHCU_Clear_
Major</title>
<g id="a_${uniqueid}_node3"><a xlink:href="#2304088381035726" xlink:title="com.watch4net.alerting.action.SNMPTrapAction">
<ellipse fill="#4daf4a" stroke="black" cx="766.186" cy="-98.8701" rx="96.3333" ry="26.7407"/>
<text text-anchor="middle" x="766.186" y="-102.67" font-family="Times,serif" font-size="14.00" fill="white">ESXHCU_Clear_</text>
<text text-anchor="middle" x="766.186" y="-87.6701" font-family="Times,serif" font-size="14.00" fill="white">Major</text>
</a>
</g>
</g>
<!-- ESX_CPU_Util_
Check_Critical&#45;&gt;ESXHCU_Clear_
Critical -->
<g id="${uniqueid}_edge3" class="edge"><title>ESX_CPU_Util_
Check_Critical:ne&#45;&gt;ESXHCU_Clear_
Critical:w</title>
<path fill="none" stroke="black" d="M534.019,-228.87C536.865,-231.716 532.071,-235.131 535.019,-237.87 576.431,-276.34 606.304,-246.809 659.756,-243.217"/>
<polygon fill="black" stroke="black" points="660.143,-246.706 670.019,-242.87 659.907,-239.71 660.143,-246.706"/>
<text text-anchor="middle" x="517.019" y="-232.67" font-family="Times,serif" font-size="14.00">false</text>
</g>
<!-- ESX_CPU_Util_
Critical -->
<g id="${uniqueid}_node6" class="node"><title>ESX_CPU_Util_
Critical</title>
<g id="a_${uniqueid}_node6"><a xlink:href="#2304088380953404" xlink:title="com.watch4net.alerting.action.SNMPTrapAction">
<ellipse fill="#4daf4a" stroke="black" cx="766.186" cy="-170.87" rx="90.5193" ry="26.7407"/>
<text text-anchor="middle" x="766.186" y="-174.67" font-family="Times,serif" font-size="14.00" fill="white">ESX_CPU_Util_</text>
<text text-anchor="middle" x="766.186" y="-159.67" font-family="Times,serif" font-size="14.00" fill="white">Critical</text>
</a>
</g>
</g>
<!-- ESX_CPU_Util_
Check_Critical&#45;&gt;ESX_CPU_Util_
Critical -->
<g id="${uniqueid}_edge4" class="edge"><title>ESX_CPU_Util_
Check_Critical:se&#45;&gt;ESX_CPU_Util_
Critical:w</title>
<path fill="none" stroke="black" d="M536.019,-170.87C576.981,-129.908 608.97,-166.23 664.015,-170.476"/>
<polygon fill="black" stroke="black" points="664.058,-173.98 674.186,-170.87 664.329,-166.985 664.058,-173.98"/>
<text text-anchor="middle" x="520.519" y="-159.67" font-family="Times,serif" font-size="14.00">true</text>
</g>
<!-- ESX_CPU_Util_
Check_Major&#45;&gt;ESXHCU_Clear_
Major -->
<g id="${uniqueid}_edge5" class="edge"><title>ESX_CPU_Util_
Check_Major:ne&#45;&gt;ESXHCU_Clear_
Major:w</title>
<path fill="none" stroke="black" d="M534.019,-98.8701C536.865,-101.716 532.02,-105.186 535.019,-107.87 567.805,-137.215 590.349,-113.246 634.019,-107.87 646.424,-106.343 651.231,-101.962 660.009,-99.9293"/>
<polygon fill="black" stroke="black" points="660.443,-103.403 670.019,-98.8701 659.707,-96.4418 660.443,-103.403"/>
<text text-anchor="middle" x="517.019" y="-102.67" font-family="Times,serif" font-size="14.00">false</text>
</g>
<!-- ESX_CPU_Util_
Major -->
<g id="${uniqueid}_node8" class="node"><title>ESX_CPU_Util_
Major</title>
<g id="a_${uniqueid}_node8"><a xlink:href="#2304088381015547" xlink:title="com.watch4net.alerting.action.SNMPTrapAction">
<ellipse fill="#4daf4a" stroke="black" cx="766.186" cy="-26.8701" rx="90.5193" ry="26.7407"/>
<text text-anchor="middle" x="766.186" y="-30.6701" font-family="Times,serif" font-size="14.00" fill="white">ESX_CPU_Util_</text>
<text text-anchor="middle" x="766.186" y="-15.6701" font-family="Times,serif" font-size="14.00" fill="white">Major</text>
</a>
</g>
</g>
<!-- ESX_CPU_Util_
Check_Major&#45;&gt;ESX_CPU_Util_
Major -->
<g id="${uniqueid}_edge6" class="edge"><title>ESX_CPU_Util_
Check_Major:se&#45;&gt;ESX_CPU_Util_
Major:w</title>
<path fill="none" stroke="black" d="M536.019,-40.8701C577.191,0.301813 608.714,-23.7471 663.969,-26.6035"/>
<polygon fill="black" stroke="black" points="664.098,-30.1079 674.186,-26.8701 664.281,-23.1103 664.098,-30.1079"/>
<text text-anchor="middle" x="520.519" y="-29.6701" font-family="Times,serif" font-size="14.00">true</text>
</g>
<!-- ESX_CPU_Util_
Filter -->
<g id="${uniqueid}_node7" class="node"><title>ESX_CPU_Util_
Filter</title>
<g id="a_${uniqueid}_node7"><a xlink:href="#2304088380852171" xlink:title="com.watch4net.alerting.operation.FilteredEntryPoint">
<ellipse fill="#984ea3" stroke="black" cx="90.5097" cy="-134.87" rx="90.5193" ry="26.7407"/>
<text text-anchor="middle" x="90.5097" y="-138.67" font-family="Times,serif" font-size="14.00" fill="white">ESX_CPU_Util_</text>
<text text-anchor="middle" x="90.5097" y="-123.67" font-family="Times,serif" font-size="14.00" fill="white">Filter</text>
</a>
</g>
</g>
<!-- ESX_CPU_Util_
Filter&#45;&gt;ESXHCU_Case
Statement -->
<g id="${uniqueid}_edge7" class="edge"><title>ESX_CPU_Util_
Filter:e&#45;&gt;ESXHCU_Case
Statement:w</title>
<path fill="none" stroke="black" d="M181.019,-134.87C193.019,-134.87 198.269,-134.87 206.894,-134.87"/>
<polygon fill="black" stroke="black" points="207.019,-138.37 217.019,-134.87 207.019,-131.37 207.019,-138.37"/>
</g>
</g>
</svg>
