<?xml version="1.0" encoding="UTF-8" standalone="no"?>
<!DOCTYPE svg PUBLIC "-//W3C//DTD SVG 1.1//EN"
 "http://www.w3.org/Graphics/SVG/1.1/DTD/svg11.dtd">
<!-- Generated by graphviz version 2.38.0 (20140413.2041)
 -->
<!-- Title: Physical Hosts Alert Definitions/Filesystem Free Space Pages: 1 -->
<svg width="822pt" height="368pt"
 viewBox="0.00 0.00 822.17 367.87" xmlns="http://www.w3.org/2000/svg" xmlns:xlink="http://www.w3.org/1999/xlink">
<g id="${uniqueid}" class="graph" transform="scale(1 1) rotate(0) translate(4 363.87)">
<title>Physical Hosts Alert Definitions/Filesystem Free Space</title>
<polygon fill="white" stroke="none" points="-4,4 -4,-363.87 818.166,-363.87 818.166,4 -4,4"/>
<!-- 200MB Threshold -->
<g id="${uniqueid}_node1" class="node"><title>200MB Threshold</title>
<g id="a_${uniqueid}_node1"><a xlink:href="#38000bb0-0bfa-49a6-b2dc-bd5025a942fe" xlink:title="com.watch4net.alerting.operation.comparator.ConstantComparatorOperation">
<polygon fill="#ff7f00" stroke="black" points="477.161,-312.87 358.518,-294.87 477.161,-276.87 595.803,-294.87 477.161,-312.87"/>
<text text-anchor="middle" x="477.161" y="-291.17" font-family="Times,serif" font-size="14.00" fill="white">200MB Threshold</text>
</a>
</g>
</g>
<!-- Clear Minor -->
<g id="${uniqueid}_node7" class="node"><title>Clear Minor</title>
<g id="a_${uniqueid}_node7"><a xlink:href="#a7e4b295-25b6-4bf6-b139-d005c161c4f6" xlink:title="com.watch4net.alerting.action.SNMPTrapAction">
<ellipse fill="#4daf4a" stroke="black" cx="722.949" cy="-341.87" rx="64.189" ry="18"/>
<text text-anchor="middle" x="722.949" y="-338.17" font-family="Times,serif" font-size="14.00" fill="white">Clear Minor</text>
</a>
</g>
</g>
<!-- 200MB Threshold&#45;&gt;Clear Minor -->
<g id="${uniqueid}_edge1" class="edge"><title>200MB Threshold:ne&#45;&gt;Clear Minor:w</title>
<path fill="none" stroke="black" d="M492.161,-310.87C492.863,-311.573 492.364,-312.276 493.161,-312.87 549.627,-355.017 580.089,-343.166 646.831,-341.963"/>
<polygon fill="black" stroke="black" points="646.981,-345.462 656.949,-341.87 646.917,-338.462 646.981,-345.462"/>
<text text-anchor="middle" x="473.161" y="-314.67" font-family="Times,serif" font-size="14.00">false</text>
</g>
<!-- Minor FreeSpace
Trap -->
<g id="${uniqueid}_node12" class="node"><title>Minor FreeSpace
Trap</title>
<g id="a_${uniqueid}_node12"><a xlink:href="#02763c7d-e717-4c79-829a-4505cd5b72bc" xlink:title="com.watch4net.alerting.action.SNMPTrapAction">
<ellipse fill="#4daf4a" stroke="black" cx="722.949" cy="-278.87" rx="91.4341" ry="26.7407"/>
<text text-anchor="middle" x="722.949" y="-282.67" font-family="Times,serif" font-size="14.00" fill="white">Minor FreeSpace</text>
<text text-anchor="middle" x="722.949" y="-267.67" font-family="Times,serif" font-size="14.00" fill="white">Trap</text>
</a>
</g>
</g>
<!-- 200MB Threshold&#45;&gt;Minor FreeSpace
Trap -->
<g id="${uniqueid}_edge2" class="edge"><title>200MB Threshold:se&#45;&gt;Minor FreeSpace
Trap:w</title>
<path fill="none" stroke="black" d="M494.161,-278.87C534.946,-238.084 566.797,-274.25 621.605,-278.478"/>
<polygon fill="black" stroke="black" points="621.604,-281.98 631.732,-278.87 621.875,-274.985 621.604,-281.98"/>
<text text-anchor="middle" x="478.661" y="-267.67" font-family="Times,serif" font-size="14.00">true</text>
</g>
<!-- 25MB Threshold -->
<g id="${uniqueid}_node2" class="node"><title>25MB Threshold</title>
<g id="a_${uniqueid}_node2"><a xlink:href="#f9bfae6a-0bdd-43a4-97fb-0014f57d198b" xlink:title="com.watch4net.alerting.operation.comparator.ConstantComparatorOperation">
<polygon fill="#ff7f00" stroke="black" points="477.161,-201.87 364.886,-183.87 477.161,-165.87 589.435,-183.87 477.161,-201.87"/>
<text text-anchor="middle" x="477.161" y="-180.17" font-family="Times,serif" font-size="14.00" fill="white">25MB Threshold</text>
</a>
</g>
</g>
<!-- Clear Critical -->
<g id="${uniqueid}_node5" class="node"><title>Clear Critical</title>
<g id="a_${uniqueid}_node5"><a xlink:href="#1416341977723" xlink:title="com.watch4net.alerting.action.SNMPTrapAction">
<ellipse fill="#4daf4a" stroke="black" cx="722.949" cy="-215.87" rx="79.0865" ry="18"/>
<text text-anchor="middle" x="722.949" y="-212.17" font-family="Times,serif" font-size="14.00" fill="white">Clear Critical</text>
</a>
</g>
</g>
<!-- 25MB Threshold&#45;&gt;Clear Critical -->
<g id="${uniqueid}_edge3" class="edge"><title>25MB Threshold:ne&#45;&gt;Clear Critical:w</title>
<path fill="none" stroke="black" d="M492.161,-199.87C492.863,-200.573 492.341,-201.309 493.161,-201.87 545.072,-237.421 572.545,-218.182 631.755,-216.054"/>
<polygon fill="black" stroke="black" points="632.014,-219.55 641.949,-215.87 631.887,-212.551 632.014,-219.55"/>
<text text-anchor="middle" x="473.161" y="-203.67" font-family="Times,serif" font-size="14.00">false</text>
</g>
<!-- Critical Free
Space Trap -->
<g id="${uniqueid}_node8" class="node"><title>Critical Free
Space Trap</title>
<g id="a_${uniqueid}_node8"><a xlink:href="#70954c1f-3079-45f8-914d-bdf8a7ee5314" xlink:title="com.watch4net.alerting.action.SNMPTrapAction">
<ellipse fill="#4daf4a" stroke="black" cx="722.949" cy="-152.87" rx="80.7205" ry="26.7407"/>
<text text-anchor="middle" x="722.949" y="-156.67" font-family="Times,serif" font-size="14.00" fill="white">Critical Free</text>
<text text-anchor="middle" x="722.949" y="-141.67" font-family="Times,serif" font-size="14.00" fill="white">Space Trap</text>
</a>
</g>
</g>
<!-- 25MB Threshold&#45;&gt;Critical Free
Space Trap -->
<g id="${uniqueid}_edge4" class="edge"><title>25MB Threshold:se&#45;&gt;Critical Free
Space Trap:w</title>
<path fill="none" stroke="black" d="M494.161,-167.87C538.087,-123.944 571.663,-149.778 630.824,-152.624"/>
<polygon fill="black" stroke="black" points="630.867,-156.126 640.949,-152.87 631.037,-149.128 630.867,-156.126"/>
<text text-anchor="middle" x="478.661" y="-156.67" font-family="Times,serif" font-size="14.00">true</text>
</g>
<!-- 50MB Threshold -->
<g id="${uniqueid}_node3" class="node"><title>50MB Threshold</title>
<g id="a_${uniqueid}_node3"><a xlink:href="#4f338801-0fe5-4a94-af1b-7d8c49ffe3bf" xlink:title="com.watch4net.alerting.operation.comparator.ConstantComparatorOperation">
<polygon fill="#ff7f00" stroke="black" points="477.161,-91.8701 364.886,-73.8701 477.161,-55.8701 589.435,-73.8701 477.161,-91.8701"/>
<text text-anchor="middle" x="477.161" y="-70.1701" font-family="Times,serif" font-size="14.00" fill="white">50MB Threshold</text>
</a>
</g>
</g>
<!-- Clear Major -->
<g id="${uniqueid}_node6" class="node"><title>Clear Major</title>
<g id="a_${uniqueid}_node6"><a xlink:href="#1416342032440" xlink:title="com.watch4net.alerting.action.SNMPTrapAction">
<ellipse fill="#4daf4a" stroke="black" cx="722.949" cy="-89.8701" rx="64.189" ry="18"/>
<text text-anchor="middle" x="722.949" y="-86.1701" font-family="Times,serif" font-size="14.00" fill="white">Clear Major</text>
</a>
</g>
</g>
<!-- 50MB Threshold&#45;&gt;Clear Major -->
<g id="${uniqueid}_edge5" class="edge"><title>50MB Threshold:ne&#45;&gt;Clear Major:w</title>
<path fill="none" stroke="black" d="M492.161,-89.8701C492.863,-90.5728 492.315,-91.3476 493.161,-91.8701 529.507,-114.333 546.575,-92.5014 589.298,-91.8701 615.733,-91.4794 624.722,-90.2305 646.935,-89.9338"/>
<polygon fill="black" stroke="black" points="646.971,-93.4337 656.949,-89.8701 646.927,-86.4338 646.971,-93.4337"/>
<text text-anchor="middle" x="473.161" y="-93.6701" font-family="Times,serif" font-size="14.00">false</text>
</g>
<!-- Major FreeSpace
Trap -->
<g id="${uniqueid}_node11" class="node"><title>Major FreeSpace
Trap</title>
<g id="a_${uniqueid}_node11"><a xlink:href="#8ddd0859-50cf-498c-9e4c-81205a00bd81" xlink:title="com.watch4net.alerting.action.SNMPTrapAction">
<ellipse fill="#4daf4a" stroke="black" cx="722.949" cy="-26.8701" rx="91.4341" ry="26.7407"/>
<text text-anchor="middle" x="722.949" y="-30.6701" font-family="Times,serif" font-size="14.00" fill="white">Major FreeSpace</text>
<text text-anchor="middle" x="722.949" y="-15.6701" font-family="Times,serif" font-size="14.00" fill="white">Trap</text>
</a>
</g>
</g>
<!-- 50MB Threshold&#45;&gt;Major FreeSpace
Trap -->
<g id="${uniqueid}_edge6" class="edge"><title>50MB Threshold:se&#45;&gt;Major FreeSpace
Trap:w</title>
<path fill="none" stroke="black" d="M494.161,-57.8701C536.056,-15.9752 565.671,-25.5857 621.73,-26.7622"/>
<polygon fill="black" stroke="black" points="621.695,-30.2619 631.732,-26.8701 621.77,-23.2623 621.695,-30.2619"/>
<text text-anchor="middle" x="478.661" y="-46.6701" font-family="Times,serif" font-size="14.00">true</text>
</g>
<!-- Case -->
<g id="${uniqueid}_node4" class="node"><title>Case</title>
<g id="a_${uniqueid}_node4"><a xlink:href="#1416342047901" xlink:title="com.watch4net.alerting.operation.CaseOperation">
<polygon fill="#377eb8" stroke="black" points="322.589,-201.87 268.589,-201.87 268.589,-165.87 322.589,-165.87 322.589,-201.87"/>
<text text-anchor="middle" x="295.589" y="-180.17" font-family="Times,serif" font-size="14.00" fill="white">Case</text>
</a>
</g>
</g>
<!-- Case&#45;&gt;200MB Threshold -->
<g id="${uniqueid}_edge7" class="edge"><title>Case:e&#45;&gt;200MB Threshold:w</title>
<path fill="none" stroke="black" d="M322.589,-183.87C370.401,-183.87 316.579,-278.204 348.51,-292.943"/>
<polygon fill="black" stroke="black" points="348.11,-296.43 358.589,-294.87 349.424,-289.555 348.11,-296.43"/>
</g>
<!-- Case&#45;&gt;25MB Threshold -->
<g id="${uniqueid}_edge8" class="edge"><title>Case:e&#45;&gt;25MB Threshold:w</title>
<path fill="none" stroke="black" d="M322.589,-183.87C337.168,-183.87 343.119,-183.87 354.058,-183.87"/>
<polygon fill="black" stroke="black" points="354.161,-187.37 364.161,-183.87 354.161,-180.37 354.161,-187.37"/>
</g>
<!-- Case&#45;&gt;50MB Threshold -->
<g id="${uniqueid}_edge9" class="edge"><title>Case:e&#45;&gt;50MB Threshold:w</title>
<path fill="none" stroke="black" d="M322.589,-183.87C370.77,-183.87 321.031,-90.3862 353.911,-75.7793"/>
<polygon fill="black" stroke="black" points="354.971,-79.1422 364.161,-73.8701 353.689,-72.2606 354.971,-79.1422"/>
</g>
<!-- Filesystem -->
<g id="${uniqueid}_node9" class="node"><title>Filesystem</title>
<g id="a_${uniqueid}_node9"><a xlink:href="#ab6fbe3c-1b61-49a1-962e-1133d9c388c3" xlink:title="com.watch4net.alerting.operation.FilteredEntryPoint">
<ellipse fill="#984ea3" stroke="black" cx="59.7947" cy="-183.87" rx="59.5901" ry="18"/>
<text text-anchor="middle" x="59.7947" y="-180.17" font-family="Times,serif" font-size="14.00" fill="white">Filesystem</text>
</a>
</g>
</g>
<!-- GB to MB -->
<g id="${uniqueid}_node10" class="node"><title>GB to MB</title>
<g id="a_${uniqueid}_node10"><a xlink:href="#1415918348882" xlink:title="com.watch4net.alerting.operation.arithmetic.ConstantArithmeticOperation">
<polygon fill="#377eb8" stroke="black" points="232.589,-201.87 155.589,-201.87 155.589,-165.87 232.589,-165.87 232.589,-201.87"/>
<text text-anchor="middle" x="194.089" y="-180.17" font-family="Times,serif" font-size="14.00" fill="white">GB to MB</text>
</a>
</g>
</g>
<!-- Filesystem&#45;&gt;GB to MB -->
<g id="${uniqueid}_edge10" class="edge"><title>Filesystem:e&#45;&gt;GB to MB:w</title>
<path fill="none" stroke="black" d="M119.589,-183.87C131.589,-183.87 136.839,-183.87 145.464,-183.87"/>
<polygon fill="black" stroke="black" points="145.589,-187.37 155.589,-183.87 145.589,-180.37 145.589,-187.37"/>
</g>
<!-- GB to MB&#45;&gt;Case -->
<g id="${uniqueid}_edge11" class="edge"><title>GB to MB:e&#45;&gt;Case:w</title>
<path fill="none" stroke="black" d="M232.589,-183.87C244.589,-183.87 249.839,-183.87 258.464,-183.87"/>
<polygon fill="black" stroke="black" points="258.589,-187.37 268.589,-183.87 258.589,-180.37 258.589,-187.37"/>
</g>
</g>
</svg>
