<?xml version="1.0" encoding="UTF-8" standalone="no"?>
<!DOCTYPE svg PUBLIC "-//W3C//DTD SVG 1.1//EN"
 "http://www.w3.org/Graphics/SVG/1.1/DTD/svg11.dtd">
<!-- Generated by graphviz version 2.38.0 (20140413.2041)
 -->
<!-- Title: EMC M&amp;R Health/LoadBalancer error count Pages: 1 -->
<svg width="822pt" height="172pt"
 viewBox="0.00 0.00 821.95 171.87" xmlns="http://www.w3.org/2000/svg" xmlns:xlink="http://www.w3.org/1999/xlink">
<g id="${uniqueid}" class="graph" transform="scale(1 1) rotate(0) translate(4 167.87)">
<title>EMC M&amp;R Health/LoadBalancer error count</title>
<polygon fill="white" stroke="none" points="-4,4 -4,-167.87 817.953,-167.87 817.953,4 -4,4"/>
<!-- Action
CLEARMajor -->
<g id="${uniqueid}_node1" class="node"><title>Action
CLEARMajor</title>
<g id="a_${uniqueid}_node1"><a xlink:href="#1564729107744487" xlink:title="com.watch4net.alerting.action.SNMPTrapAction">
<ellipse fill="#4daf4a" stroke="black" cx="722.953" cy="-137" rx="65.1077" ry="26.7407"/>
<text text-anchor="middle" x="722.953" y="-140.8" font-family="Times,serif" font-size="14.00" fill="white">Action</text>
<text text-anchor="middle" x="722.953" y="-125.8" font-family="Times,serif" font-size="14.00" fill="white">CLEARMajor</text>
</a>
</g>
</g>
<!-- Action SETMajor -->
<g id="${uniqueid}_node2" class="node"><title>Action SETMajor</title>
<g id="a_${uniqueid}_node2"><a xlink:href="#1564729107792487" xlink:title="com.watch4net.alerting.action.SNMPTrapAction">
<ellipse fill="#4daf4a" stroke="black" cx="722.953" cy="-18" rx="83.6854" ry="18"/>
<text text-anchor="middle" x="722.953" y="-14.3" font-family="Times,serif" font-size="14.00" fill="white">Action SETMajor</text>
</a>
</g>
</g>
<!-- Custom post&#45;
filter -->
<g id="${uniqueid}_node3" class="node"><title>Custom post&#45;
filter</title>
<g id="a_${uniqueid}_node3"><a xlink:href="#1436290974761" xlink:title="1435689668905">
<polygon fill="#e41a1c" stroke="black" points="776.453,-92 669.453,-92 669.453,-54 776.453,-54 776.453,-92"/>
<text text-anchor="middle" x="722.953" y="-76.8" font-family="Times,serif" font-size="14.00" fill="white">Custom post&#45;</text>
<text text-anchor="middle" x="722.953" y="-61.8" font-family="Times,serif" font-size="14.00" fill="white">filter</text>
</a>
</g>
</g>
<!-- Custom pre&#45;
filter -->
<g id="${uniqueid}_node4" class="node"><title>Custom pre&#45;
filter</title>
<g id="a_${uniqueid}_node4"><a xlink:href="#1436290964536" xlink:title="1435689654812">
<polygon fill="#e41a1c" stroke="black" points="224.692,-92 125.692,-92 125.692,-54 224.692,-54 224.692,-92"/>
<text text-anchor="middle" x="175.192" y="-76.8" font-family="Times,serif" font-size="14.00" fill="white">Custom pre&#45;</text>
<text text-anchor="middle" x="175.192" y="-61.8" font-family="Times,serif" font-size="14.00" fill="white">filter</text>
</a>
</g>
</g>
<!-- Refine -->
<g id="${uniqueid}_node7" class="node"><title>Refine</title>
<g id="a_${uniqueid}_node7"><a xlink:href="#1428416478313" xlink:title="com.watch4net.alerting.operation.RefineFilterOperation">
<polygon fill="#377eb8" stroke="black" points="322.692,-91 260.692,-91 260.692,-55 322.692,-55 322.692,-91"/>
<text text-anchor="middle" x="291.692" y="-69.3" font-family="Times,serif" font-size="14.00" fill="white">Refine</text>
</a>
</g>
</g>
<!-- Custom pre&#45;
filter&#45;&gt;Refine -->
<g id="${uniqueid}_edge1" class="edge"><title>Custom pre&#45;
filter:e&#45;&gt;Refine:w</title>
<path fill="none" stroke="black" d="M224.692,-73C236.692,-73 241.942,-73 250.567,-73"/>
<polygon fill="black" stroke="black" points="250.692,-76.5001 260.692,-73 250.692,-69.5001 250.692,-76.5001"/>
</g>
<!-- Filter1 -->
<g id="${uniqueid}_node5" class="node"><title>Filter1</title>
<g id="a_${uniqueid}_node5"><a xlink:href="#1564729107475487" xlink:title="com.watch4net.alerting.operation.FilteredEntryPoint">
<ellipse fill="#984ea3" stroke="black" cx="44.846" cy="-100" rx="44.6926" ry="18"/>
<text text-anchor="middle" x="44.846" y="-96.3" font-family="Times,serif" font-size="14.00" fill="white">Filter1</text>
</a>
</g>
</g>
<!-- Filter1&#45;&gt;Custom pre&#45;
filter -->
<g id="${uniqueid}_edge2" class="edge"><title>Filter1:e&#45;&gt;Custom pre&#45;
filter:w</title>
<path fill="none" stroke="black" d="M89.692,-100C105.63,-100 106.327,-82.8547 116.073,-75.8895"/>
<polygon fill="black" stroke="black" points="117.122,-79.229 125.692,-73 115.108,-72.5249 117.122,-79.229"/>
</g>
<!-- Filter2 -->
<g id="${uniqueid}_node6" class="node"><title>Filter2</title>
<g id="a_${uniqueid}_node6"><a xlink:href="#1406658761271" xlink:title="com.watch4net.alerting.operation.FilteredEntryPoint">
<ellipse fill="#984ea3" stroke="black" cx="44.846" cy="-46" rx="44.6926" ry="18"/>
<text text-anchor="middle" x="44.846" y="-42.3" font-family="Times,serif" font-size="14.00" fill="white">Filter2</text>
</a>
</g>
</g>
<!-- Filter2&#45;&gt;Custom pre&#45;
filter -->
<g id="${uniqueid}_edge3" class="edge"><title>Filter2:e&#45;&gt;Custom pre&#45;
filter:w</title>
<path fill="none" stroke="black" d="M89.692,-46C105.63,-46 106.327,-63.1453 116.073,-70.1105"/>
<polygon fill="black" stroke="black" points="115.108,-73.4751 125.692,-73 117.122,-66.771 115.108,-73.4751"/>
</g>
<!-- Sum -->
<g id="${uniqueid}_node8" class="node"><title>Sum</title>
<g id="a_${uniqueid}_node8"><a xlink:href="#1406658497442" xlink:title="com.watch4net.alerting.operation.arithmetic.DataArithmeticOperation">
<polygon fill="#377eb8" stroke="black" points="412.692,-91 358.692,-91 358.692,-55 412.692,-55 412.692,-91"/>
<text text-anchor="middle" x="385.692" y="-69.3" font-family="Times,serif" font-size="14.00" fill="white">Sum</text>
</a>
</g>
</g>
<!-- Refine&#45;&gt;Sum -->
<g id="${uniqueid}_edge4" class="edge"><title>Refine:e&#45;&gt;Sum:w</title>
<path fill="none" stroke="black" d="M322.692,-73C334.692,-73 339.942,-73 348.567,-73"/>
<polygon fill="black" stroke="black" points="348.692,-76.5001 358.692,-73 348.692,-69.5001 348.692,-76.5001"/>
</g>
<!-- Threshold -->
<g id="${uniqueid}_node9" class="node"><title>Threshold</title>
<g id="a_${uniqueid}_node9"><a xlink:href="#1564729107665487" xlink:title="com.watch4net.alerting.operation.comparator.ConstantComparatorOperation">
<polygon fill="#ff7f00" stroke="black" points="525.901,-91 448.482,-73 525.901,-55 603.32,-73 525.901,-91"/>
<text text-anchor="middle" x="525.901" y="-69.3" font-family="Times,serif" font-size="14.00" fill="white">Threshold</text>
</a>
</g>
</g>
<!-- Sum&#45;&gt;Threshold -->
<g id="${uniqueid}_edge5" class="edge"><title>Sum:e&#45;&gt;Threshold:w</title>
<path fill="none" stroke="black" d="M412.692,-73C424.692,-73 429.942,-73 438.567,-73"/>
<polygon fill="black" stroke="black" points="438.692,-76.5001 448.692,-73 438.692,-69.5001 438.692,-76.5001"/>
</g>
<!-- Threshold&#45;&gt;Action
CLEARMajor -->
<g id="${uniqueid}_edge6" class="edge"><title>Threshold:ne&#45;&gt;Action
CLEARMajor:w</title>
<path fill="none" stroke="black" d="M539.901,-88C540.895,-88.9938 539.935,-89.9789 540.901,-91 576.644,-128.789 598.604,-136.153 646.925,-136.926"/>
<polygon fill="black" stroke="black" points="646.928,-140.426 656.953,-137 646.979,-133.426 646.928,-140.426"/>
<text text-anchor="middle" x="520.901" y="-91.8" font-family="Times,serif" font-size="14.00">false</text>
</g>
<!-- Threshold&#45;&gt;Action SETMajor -->
<g id="${uniqueid}_edge8" class="edge"><title>Threshold:se&#45;&gt;Action SETMajor:w</title>
<path fill="none" stroke="black" d="M541.901,-58C572.42,-27.4812 589.642,-19.2123 628.924,-18.1297"/>
<polygon fill="black" stroke="black" points="629.156,-21.6271 639.11,-18 629.067,-14.6277 629.156,-21.6271"/>
<text text-anchor="middle" x="526.401" y="-46.8" font-family="Times,serif" font-size="14.00">true</text>
</g>
<!-- Threshold&#45;&gt;Custom post&#45;
filter -->
<g id="${uniqueid}_edge7" class="edge"><title>Threshold:ne&#45;&gt;Custom post&#45;
filter:sw</title>
<path fill="none" stroke="black" d="M539.901,-88C540.895,-88.9938 539.761,-90.1782 540.901,-91 563.331,-107.166 576.352,-97.9574 603.11,-91 632.325,-83.4041 643.833,-41.8187 662.68,-48.347"/>
<polygon fill="black" stroke="black" points="660.722,-51.2483 670.953,-54 664.671,-45.4686 660.722,-51.2483"/>
<text text-anchor="middle" x="742.453" y="-42.8" font-family="Times,serif" font-size="14.00">1435689620024|entry</text>
</g>
<!-- Threshold&#45;&gt;Custom post&#45;
filter -->
<g id="${uniqueid}_edge9" class="edge"><title>Threshold:se&#45;&gt;Custom post&#45;
filter:nw</title>
<path fill="none" stroke="black" d="M541.901,-58C560.227,-39.6744 629.701,-96.8309 659.614,-95.6068"/>
<polygon fill="black" stroke="black" points="660.886,-98.8678 668.953,-92 658.364,-92.3379 660.886,-98.8678"/>
<text text-anchor="middle" x="740.453" y="-95.8" font-family="Times,serif" font-size="14.00">1435689616003|entry</text>
</g>
</g>
</svg>
