<?xml version="1.0" encoding="UTF-8" standalone="no"?>
<!DOCTYPE svg PUBLIC "-//W3C//DTD SVG 1.1//EN"
 "http://www.w3.org/Graphics/SVG/1.1/DTD/svg11.dtd">
<!-- Generated by graphviz version 2.38.0 (20140413.2041)
 -->
<!-- Title: EMC VMAX Alert Definitions/VMAX&#45;Array/High IO Rate Pages: 1 -->
<svg width="798pt" height="374pt"
 viewBox="0.00 0.00 798.31 373.55" xmlns="http://www.w3.org/2000/svg" xmlns:xlink="http://www.w3.org/1999/xlink">
<g id="${uniqueid}" class="graph" transform="scale(1 1) rotate(0) translate(4 369.554)">
<title>EMC VMAX Alert Definitions/VMAX&#45;Array/High IO Rate</title>
<polygon fill="white" stroke="none" points="-4,4 -4,-369.554 794.311,-369.554 794.311,4 -4,4"/>
<!-- Comparator IO_
CRIT -->
<g id="${uniqueid}_node1" class="node"><title>Comparator IO_
CRIT</title>
<g id="a_${uniqueid}_node1"><a xlink:href="#96497024696149" xlink:title="com.watch4net.alerting.operation.comparator.ConstantComparatorOperation">
<polygon fill="#ff7f00" stroke="black" points="415.836,-343.684 283.836,-305.684 415.836,-267.684 547.836,-305.684 415.836,-343.684"/>
<text text-anchor="middle" x="415.836" y="-309.484" font-family="Times,serif" font-size="14.00" fill="white">Comparator IO_</text>
<text text-anchor="middle" x="415.836" y="-294.484" font-family="Times,serif" font-size="14.00" fill="white">CRIT</text>
</a>
</g>
</g>
<!-- IO_Crit -->
<g id="${uniqueid}_node6" class="node"><title>IO_Crit</title>
<g id="a_${uniqueid}_node6"><a xlink:href="#96497024749661" xlink:title="com.watch4net.alerting.action.SNMPTrapAction">
<ellipse fill="#4daf4a" stroke="black" cx="687.073" cy="-275.684" rx="45.4919" ry="18"/>
<text text-anchor="middle" x="687.073" y="-271.984" font-family="Times,serif" font-size="14.00" fill="white">IO_Crit</text>
</a>
</g>
</g>
<!-- Comparator IO_
CRIT&#45;&gt;IO_Crit -->
<g id="${uniqueid}_edge2" class="edge"><title>Comparator IO_
CRIT:se&#45;&gt;IO_Crit:w</title>
<path fill="none" stroke="black" d="M446.836,-275.684C505.073,-217.446 550.341,-270.906 629.7,-275.39"/>
<polygon fill="black" stroke="black" points="629.978,-278.899 640.073,-275.684 630.176,-271.902 629.978,-278.899"/>
<text text-anchor="middle" x="431.336" y="-264.484" font-family="Times,serif" font-size="14.00">true</text>
</g>
<!-- SNMP_IO_Crit_
Clear -->
<g id="${uniqueid}_node9" class="node"><title>SNMP_IO_Crit_
Clear</title>
<g id="a_${uniqueid}_node9"><a xlink:href="#96497024729944" xlink:title="com.watch4net.alerting.action.SNMPTrapAction">
<ellipse fill="#4daf4a" stroke="black" cx="687.073" cy="-338.684" rx="92.7622" ry="26.7407"/>
<text text-anchor="middle" x="687.073" y="-342.484" font-family="Times,serif" font-size="14.00" fill="white">SNMP_IO_Crit_</text>
<text text-anchor="middle" x="687.073" y="-327.484" font-family="Times,serif" font-size="14.00" fill="white">Clear</text>
</a>
</g>
</g>
<!-- Comparator IO_
CRIT&#45;&gt;SNMP_IO_Crit_
Clear -->
<g id="${uniqueid}_edge1" class="edge"><title>Comparator IO_
CRIT:ne&#45;&gt;SNMP_IO_Crit_
Clear:w</title>
<path fill="none" stroke="black" d="M444.836,-335.684C447.369,-338.217 443.149,-341.312 445.836,-343.684 479.821,-373.685 502.571,-346.177 547.836,-343.684 564.088,-342.788 570.378,-340.096 582.756,-339.079"/>
<polygon fill="black" stroke="black" points="583.214,-342.564 593.073,-338.684 582.946,-335.569 583.214,-342.564"/>
<text text-anchor="middle" x="427.836" y="-339.484" font-family="Times,serif" font-size="14.00">false</text>
</g>
<!-- Comparator IO_
MINOR -->
<g id="${uniqueid}_node2" class="node"><title>Comparator IO_
MINOR</title>
<g id="a_${uniqueid}_node2"><a xlink:href="#96497024802355" xlink:title="com.watch4net.alerting.operation.comparator.ConstantComparatorOperation">
<polygon fill="#ff7f00" stroke="black" points="415.836,-218.684 283.836,-180.684 415.836,-142.684 547.836,-180.684 415.836,-218.684"/>
<text text-anchor="middle" x="415.836" y="-184.484" font-family="Times,serif" font-size="14.00" fill="white">Comparator IO_</text>
<text text-anchor="middle" x="415.836" y="-169.484" font-family="Times,serif" font-size="14.00" fill="white">MINOR</text>
</a>
</g>
</g>
<!-- IO_Minor -->
<g id="${uniqueid}_node8" class="node"><title>IO_Minor</title>
<g id="a_${uniqueid}_node8"><a xlink:href="#96497024816278" xlink:title="com.watch4net.alerting.action.SNMPTrapAction">
<ellipse fill="#4daf4a" stroke="black" cx="687.073" cy="-149.684" rx="55.4913" ry="18"/>
<text text-anchor="middle" x="687.073" y="-145.984" font-family="Times,serif" font-size="14.00" fill="white">IO_Minor</text>
</a>
</g>
</g>
<!-- Comparator IO_
MINOR&#45;&gt;IO_Minor -->
<g id="${uniqueid}_edge4" class="edge"><title>Comparator IO_
MINOR:se&#45;&gt;IO_Minor:w</title>
<path fill="none" stroke="black" d="M446.836,-150.684C502.249,-95.2703 545.344,-145.006 620.721,-149.382"/>
<polygon fill="black" stroke="black" points="620.975,-152.891 631.073,-149.684 621.179,-145.894 620.975,-152.891"/>
<text text-anchor="middle" x="431.336" y="-139.484" font-family="Times,serif" font-size="14.00">true</text>
</g>
<!-- SNMP_IO_Minor_
Clear -->
<g id="${uniqueid}_node11" class="node"><title>SNMP_IO_Minor_
Clear</title>
<g id="a_${uniqueid}_node11"><a xlink:href="#96497024871471" xlink:title="com.watch4net.alerting.action.SNMPTrapAction">
<ellipse fill="#4daf4a" stroke="black" cx="687.073" cy="-212.684" rx="103.476" ry="26.7407"/>
<text text-anchor="middle" x="687.073" y="-216.484" font-family="Times,serif" font-size="14.00" fill="white">SNMP_IO_Minor_</text>
<text text-anchor="middle" x="687.073" y="-201.484" font-family="Times,serif" font-size="14.00" fill="white">Clear</text>
</a>
</g>
</g>
<!-- Comparator IO_
MINOR&#45;&gt;SNMP_IO_Minor_
Clear -->
<g id="${uniqueid}_edge3" class="edge"><title>Comparator IO_
MINOR:ne&#45;&gt;SNMP_IO_Minor_
Clear:w</title>
<path fill="none" stroke="black" d="M444.836,-210.684C447.369,-213.217 443.149,-216.312 445.836,-218.684 479.821,-248.685 502.657,-222.423 547.836,-218.684 559.96,-217.68 565.023,-214.807 573.641,-213.433"/>
<polygon fill="black" stroke="black" points="574.119,-216.907 583.836,-212.684 573.606,-209.926 574.119,-216.907"/>
<text text-anchor="middle" x="427.836" y="-214.484" font-family="Times,serif" font-size="14.00">false</text>
</g>
<!-- Comparator IO_
Major -->
<g id="${uniqueid}_node3" class="node"><title>Comparator IO_
Major</title>
<g id="a_${uniqueid}_node3"><a xlink:href="#96497024761046" xlink:title="com.watch4net.alerting.operation.comparator.ConstantComparatorOperation">
<polygon fill="#ff7f00" stroke="black" points="415.836,-94.6835 283.836,-56.6835 415.836,-18.6835 547.836,-56.6835 415.836,-94.6835"/>
<text text-anchor="middle" x="415.836" y="-60.4835" font-family="Times,serif" font-size="14.00" fill="white">Comparator IO_</text>
<text text-anchor="middle" x="415.836" y="-45.4835" font-family="Times,serif" font-size="14.00" fill="white">Major</text>
</a>
</g>
</g>
<!-- IO_Major -->
<g id="${uniqueid}_node7" class="node"><title>IO_Major</title>
<g id="a_${uniqueid}_node7"><a xlink:href="#96497024775790" xlink:title="com.watch4net.alerting.action.SNMPTrapAction">
<ellipse fill="#4daf4a" stroke="black" cx="687.073" cy="-23.6835" rx="54.6905" ry="18"/>
<text text-anchor="middle" x="687.073" y="-19.9835" font-family="Times,serif" font-size="14.00" fill="white">IO_Major</text>
</a>
</g>
</g>
<!-- Comparator IO_
Major&#45;&gt;IO_Major -->
<g id="${uniqueid}_edge6" class="edge"><title>Comparator IO_
Major:se&#45;&gt;IO_Major:w</title>
<path fill="none" stroke="black" d="M446.836,-26.6835C502.255,28.7362 545.335,-19.1731 620.72,-23.3927"/>
<polygon fill="black" stroke="black" points="620.979,-26.9012 631.073,-23.6835 621.175,-19.904 620.979,-26.9012"/>
<text text-anchor="middle" x="431.336" y="-15.4835" font-family="Times,serif" font-size="14.00">true</text>
</g>
<!-- SNMP_IO_Major_
Clear -->
<g id="${uniqueid}_node10" class="node"><title>SNMP_IO_Major_
Clear</title>
<g id="a_${uniqueid}_node10"><a xlink:href="#96497024790328" xlink:title="com.watch4net.alerting.action.SNMPTrapAction">
<ellipse fill="#4daf4a" stroke="black" cx="687.073" cy="-86.6835" rx="103.476" ry="26.7407"/>
<text text-anchor="middle" x="687.073" y="-90.4835" font-family="Times,serif" font-size="14.00" fill="white">SNMP_IO_Major_</text>
<text text-anchor="middle" x="687.073" y="-75.4835" font-family="Times,serif" font-size="14.00" fill="white">Clear</text>
</a>
</g>
</g>
<!-- Comparator IO_
Major&#45;&gt;SNMP_IO_Major_
Clear -->
<g id="${uniqueid}_edge5" class="edge"><title>Comparator IO_
Major:ne&#45;&gt;SNMP_IO_Major_
Clear:w</title>
<path fill="none" stroke="black" d="M444.836,-86.6835C447.369,-89.2172 443.149,-92.3121 445.836,-94.6835 479.821,-124.685 502.773,-99.6301 547.836,-94.6835 560.182,-93.3282 565.077,-89.4328 573.857,-87.6254"/>
<polygon fill="black" stroke="black" points="574.209,-91.1079 583.836,-86.6835 573.551,-84.1389 574.209,-91.1079"/>
<text text-anchor="middle" x="427.836" y="-90.4835" font-family="Times,serif" font-size="14.00">false</text>
</g>
<!-- I/O of Array
filter -->
<g id="${uniqueid}_node4" class="node"><title>I/O of Array
filter</title>
<g id="a_${uniqueid}_node4"><a xlink:href="#96497024609496" xlink:title="com.watch4net.alerting.operation.FilteredEntryPoint">
<ellipse fill="#984ea3" stroke="black" cx="71.4178" cy="-180.684" rx="71.3357" ry="26.7407"/>
<text text-anchor="middle" x="71.4178" y="-184.484" font-family="Times,serif" font-size="14.00" fill="white">I/O of Array</text>
<text text-anchor="middle" x="71.4178" y="-169.484" font-family="Times,serif" font-size="14.00" fill="white">filter</text>
</a>
</g>
</g>
<!-- IOCase -->
<g id="${uniqueid}_node5" class="node"><title>IOCase</title>
<g id="a_${uniqueid}_node5"><a xlink:href="#96497024672431" xlink:title="com.watch4net.alerting.operation.CaseOperation">
<polygon fill="#377eb8" stroke="black" points="247.836,-198.684 178.836,-198.684 178.836,-162.684 247.836,-162.684 247.836,-198.684"/>
<text text-anchor="middle" x="213.336" y="-176.984" font-family="Times,serif" font-size="14.00" fill="white">IOCase</text>
</a>
</g>
</g>
<!-- I/O of Array
filter&#45;&gt;IOCase -->
<g id="${uniqueid}_edge7" class="edge"><title>I/O of Array
filter:e&#45;&gt;IOCase:w</title>
<path fill="none" stroke="black" d="M142.836,-180.684C154.836,-180.684 160.086,-180.684 168.711,-180.684"/>
<polygon fill="black" stroke="black" points="168.836,-184.184 178.836,-180.684 168.836,-177.184 168.836,-184.184"/>
</g>
<!-- IOCase&#45;&gt;Comparator IO_
CRIT -->
<g id="${uniqueid}_edge8" class="edge"><title>IOCase:e&#45;&gt;Comparator IO_
CRIT:w</title>
<path fill="none" stroke="black" d="M247.836,-180.684C301.584,-180.684 236.54,-288.723 273.583,-303.916"/>
<polygon fill="black" stroke="black" points="273.386,-307.434 283.836,-305.684 274.575,-300.536 273.386,-307.434"/>
</g>
<!-- IOCase&#45;&gt;Comparator IO_
MINOR -->
<g id="${uniqueid}_edge9" class="edge"><title>IOCase:e&#45;&gt;Comparator IO_
MINOR:w</title>
<path fill="none" stroke="black" d="M247.836,-180.684C259.836,-180.684 265.086,-180.684 273.711,-180.684"/>
<polygon fill="black" stroke="black" points="273.836,-184.184 283.836,-180.684 273.836,-177.184 273.836,-184.184"/>
</g>
<!-- IOCase&#45;&gt;Comparator IO_
Major -->
<g id="${uniqueid}_edge10" class="edge"><title>IOCase:e&#45;&gt;Comparator IO_
Major:w</title>
<path fill="none" stroke="black" d="M247.836,-180.684C301.187,-180.684 236.853,-73.508 273.655,-58.4364"/>
<polygon fill="black" stroke="black" points="274.575,-61.8297 283.836,-56.6835 273.387,-54.9312 274.575,-61.8297"/>
</g>
</g>
</svg>
