<?xml version="1.0" encoding="UTF-8" standalone="no"?>
<!DOCTYPE svg PUBLIC "-//W3C//DTD SVG 1.1//EN"
 "http://www.w3.org/Graphics/SVG/1.1/DTD/svg11.dtd">
<!-- Generated by graphviz version 2.38.0 (20140413.2041)
 -->
<!-- Title: EMC Data Domain Alert Definitions/System/Availability Pages: 1 -->
<svg width="726pt" height="129pt"
 viewBox="0.00 0.00 726.48 129.26" xmlns="http://www.w3.org/2000/svg" xmlns:xlink="http://www.w3.org/1999/xlink">
<g id="${uniqueid}" class="graph" transform="scale(1 1) rotate(0) translate(4 125.257)">
<title>EMC Data Domain Alert Definitions/System/Availability</title>
<polygon fill="white" stroke="none" points="-4,4 -4,-125.257 722.478,-125.257 722.478,4 -4,4"/>
<!-- Action Clear
Major -->
<g id="${uniqueid}_node1" class="node"><title>Action Clear
Major</title>
<g id="a_${uniqueid}_node1"><a xlink:href="#79005728466163" xlink:title="com.watch4net.alerting.action.SNMPTrapAction">
<ellipse fill="#4daf4a" stroke="black" cx="628.136" cy="-92" rx="75.8212" ry="26.7407"/>
<text text-anchor="middle" x="628.136" y="-95.8" font-family="Times,serif" font-size="14.00" fill="white">Action Clear</text>
<text text-anchor="middle" x="628.136" y="-80.8" font-family="Times,serif" font-size="14.00" fill="white">Major</text>
</a>
</g>
</g>
<!-- Action SETMajor -->
<g id="${uniqueid}_node2" class="node"><title>Action SETMajor</title>
<g id="a_${uniqueid}_node2"><a xlink:href="#79005728444287" xlink:title="com.watch4net.alerting.action.SNMPTrapAction">
<ellipse fill="#4daf4a" stroke="black" cx="628.136" cy="-18" rx="90.1842" ry="18"/>
<text text-anchor="middle" x="628.136" y="-14.3" font-family="Times,serif" font-size="14.00" fill="white">Action SETMajor</text>
</a>
</g>
</g>
<!-- Filter -->
<g id="${uniqueid}_node3" class="node"><title>Filter</title>
<g id="a_${uniqueid}_node3"><a xlink:href="#79005728351139" xlink:title="com.watch4net.alerting.operation.FilteredEntryPoint">
<ellipse fill="#984ea3" stroke="black" cx="36.3968" cy="-55" rx="36.2938" ry="18"/>
<text text-anchor="middle" x="36.3968" y="-51.3" font-family="Times,serif" font-size="14.00" fill="white">Filter</text>
</a>
</g>
</g>
<!-- Wait for 2
polling cycles -->
<g id="${uniqueid}_node5" class="node"><title>Wait for 2
polling cycles</title>
<g id="a_${uniqueid}_node5"><a xlink:href="#79005728400752" xlink:title="com.watch4net.alerting.operation.window.HistoryOperation">
<polygon fill="#377eb8" stroke="black" points="223.794,-74 108.794,-74 108.794,-36 223.794,-36 223.794,-74"/>
<text text-anchor="middle" x="166.294" y="-58.8" font-family="Times,serif" font-size="14.00" fill="white">Wait for 2</text>
<text text-anchor="middle" x="166.294" y="-43.8" font-family="Times,serif" font-size="14.00" fill="white">polling cycles</text>
</a>
</g>
</g>
<!-- Filter&#45;&gt;Wait for 2
polling cycles -->
<g id="${uniqueid}_edge1" class="edge"><title>Filter:e&#45;&gt;Wait for 2
polling cycles:w</title>
<path fill="none" stroke="black" d="M72.7935,-55C84.7935,-55 90.0435,-55 98.6685,-55"/>
<polygon fill="black" stroke="black" points="98.7936,-58.5001 108.794,-55 98.7935,-51.5001 98.7936,-58.5001"/>
</g>
<!-- System
Availability
Critical Check -->
<g id="${uniqueid}_node4" class="node"><title>System
Availability
Critical Check</title>
<g id="a_${uniqueid}_node4"><a xlink:href="#79005728419993" xlink:title="com.watch4net.alerting.operation.comparator.ConstantComparatorOperation">
<polygon fill="#ff7f00" stroke="black" points="380.794,-108 259.794,-55 380.794,-2 501.794,-55 380.794,-108"/>
<text text-anchor="middle" x="380.794" y="-66.3" font-family="Times,serif" font-size="14.00" fill="white">System</text>
<text text-anchor="middle" x="380.794" y="-51.3" font-family="Times,serif" font-size="14.00" fill="white">Availability</text>
<text text-anchor="middle" x="380.794" y="-36.3" font-family="Times,serif" font-size="14.00" fill="white">Critical Check</text>
</a>
</g>
</g>
<!-- System
Availability
Critical Check&#45;&gt;Action Clear
Major -->
<g id="${uniqueid}_edge2" class="edge"><title>System
Availability
Critical Check:ne&#45;&gt;Action Clear
Major:w</title>
<path fill="none" stroke="black" d="M416.794,-92C419.313,-94.5191 415.197,-105.561 417.794,-108 445.003,-133.562 464.918,-113.829 501.794,-108 520.651,-105.019 526.304,-96.0026 540.783,-92.9913"/>
<polygon fill="black" stroke="black" points="541.515,-96.4373 551.136,-92 540.847,-89.4692 541.515,-96.4373"/>
<text text-anchor="middle" x="399.794" y="-80.8" font-family="Times,serif" font-size="14.00">false</text>
</g>
<!-- System
Availability
Critical Check&#45;&gt;Action SETMajor -->
<g id="${uniqueid}_edge3" class="edge"><title>System
Availability
Critical Check:se&#45;&gt;Action SETMajor:w</title>
<path fill="none" stroke="black" d="M418.794,-18C453.708,16.9146 481.053,-13.3629 527.567,-17.5381"/>
<polygon fill="black" stroke="black" points="527.646,-21.0451 537.794,-18 527.962,-14.0523 527.646,-21.0451"/>
<text text-anchor="middle" x="403.294" y="-6.8" font-family="Times,serif" font-size="14.00">true</text>
</g>
<!-- Wait for 2
polling cycles&#45;&gt;System
Availability
Critical Check -->
<g id="${uniqueid}_edge4" class="edge"><title>Wait for 2
polling cycles:e&#45;&gt;System
Availability
Critical Check:w</title>
<path fill="none" stroke="black" d="M223.794,-55C235.794,-55 241.044,-55 249.669,-55"/>
<polygon fill="black" stroke="black" points="249.794,-58.5001 259.794,-55 249.794,-51.5001 249.794,-58.5001"/>
<text text-anchor="middle" x="247.794" y="-43.8" font-family="Times,serif" font-size="14.00">output</text>
</g>
</g>
</svg>
