<?xml version="1.0" encoding="UTF-8" standalone="no"?>
<!DOCTYPE svg PUBLIC "-//W3C//DTD SVG 1.1//EN"
 "http://www.w3.org/Graphics/SVG/1.1/DTD/svg11.dtd">
<!-- Generated by graphviz version 2.38.0 (20140413.2041)
 -->
<!-- Title: HP 3PAR Alert Definitions/3PAR&#45;Devices/High Write Response Time Pages: 1 -->
<svg width="1063pt" height="422pt"
 viewBox="0.00 0.00 1062.98 422.00" xmlns="http://www.w3.org/2000/svg" xmlns:xlink="http://www.w3.org/1999/xlink">
<g id="${uniqueid}" class="graph" transform="scale(1 1) rotate(0) translate(4 418)">
<title>HP 3PAR Alert Definitions/3PAR&#45;Devices/High Write Response Time</title>
<polygon fill="white" stroke="none" points="-4,4 -4,-418 1058.98,-418 1058.98,4 -4,4"/>
<!-- Bronze lvl chk -->
<g id="${uniqueid}_node1" class="node"><title>Bronze lvl chk</title>
<g id="a_${uniqueid}_node1"><a xlink:href="#372714085149936" xlink:title="com.watch4net.alerting.operation.comparator.StringComparatorOperation">
<polygon fill="#ff7f00" stroke="black" points="476.902,-349 367.643,-331 476.902,-313 586.162,-331 476.902,-349"/>
<text text-anchor="middle" x="476.902" y="-327.3" font-family="Times,serif" font-size="14.00" fill="white">Bronze lvl chk</text>
</a>
</g>
</g>
<!-- Bronze_Maj_Chk -->
<g id="${uniqueid}_node3" class="node"><title>Bronze_Maj_Chk</title>
<g id="a_${uniqueid}_node3"><a xlink:href="#372714085157041" xlink:title="com.watch4net.alerting.operation.comparator.ConstantComparatorOperation">
<polygon fill="#ff7f00" stroke="black" points="763.832,-376 636.306,-358 763.832,-340 891.358,-358 763.832,-376"/>
<text text-anchor="middle" x="763.832" y="-354.3" font-family="Times,serif" font-size="14.00" fill="white">Bronze_Maj_Chk</text>
</a>
</g>
</g>
<!-- Bronze lvl chk&#45;&gt;Bronze_Maj_Chk -->
<g id="${uniqueid}_edge1" class="edge"><title>Bronze lvl chk:e&#45;&gt;Bronze_Maj_Chk:w</title>
<path fill="none" stroke="black" d="M586.902,-331C607.937,-331 610.73,-350.222 626.064,-356.228"/>
<polygon fill="black" stroke="black" points="625.612,-359.703 636.069,-358 626.833,-352.81 625.612,-359.703"/>
<text text-anchor="middle" x="602.402" y="-319.8" font-family="Times,serif" font-size="14.00">true</text>
</g>
<!-- Bronze_Clr -->
<g id="${uniqueid}_node2" class="node"><title>Bronze_Clr</title>
<g id="a_${uniqueid}_node2"><a xlink:href="#372714085172554" xlink:title="com.watch4net.alerting.action.SNMPTrapAction">
<ellipse fill="#4daf4a" stroke="black" cx="991.289" cy="-396" rx="63.0888" ry="18"/>
<text text-anchor="middle" x="991.289" y="-392.3" font-family="Times,serif" font-size="14.00" fill="white">Bronze_Clr</text>
</a>
</g>
</g>
<!-- Bronze_Maj_Chk&#45;&gt;Bronze_Clr -->
<g id="${uniqueid}_edge2" class="edge"><title>Bronze_Maj_Chk:ne&#45;&gt;Bronze_Clr:w</title>
<path fill="none" stroke="black" d="M778.832,-374C779.535,-374.703 779.024,-375.422 779.832,-376 830.894,-412.518 858.341,-397.798 917.424,-396.144"/>
<polygon fill="black" stroke="black" points="917.645,-399.641 927.595,-396 917.546,-392.642 917.645,-399.641"/>
<text text-anchor="middle" x="761.832" y="-377.8" font-family="Times,serif" font-size="14.00">false</text>
</g>
<!-- Bronze_Set -->
<g id="${uniqueid}_node4" class="node"><title>Bronze_Set</title>
<g id="a_${uniqueid}_node4"><a xlink:href="#372714085163176" xlink:title="com.watch4net.alerting.action.SNMPTrapAction">
<ellipse fill="#4daf4a" stroke="black" cx="991.289" cy="-342" rx="63.8893" ry="18"/>
<text text-anchor="middle" x="991.289" y="-338.3" font-family="Times,serif" font-size="14.00" fill="white">Bronze_Set</text>
</a>
</g>
</g>
<!-- Bronze_Maj_Chk&#45;&gt;Bronze_Set -->
<g id="${uniqueid}_edge3" class="edge"><title>Bronze_Maj_Chk:se&#45;&gt;Bronze_Set:w</title>
<path fill="none" stroke="black" d="M780.832,-342C824.523,-298.309 858.602,-337.392 917.518,-341.635"/>
<polygon fill="black" stroke="black" points="917.475,-345.136 927.595,-342 917.728,-338.141 917.475,-345.136"/>
<text text-anchor="middle" x="765.332" y="-330.8" font-family="Times,serif" font-size="14.00">true</text>
</g>
<!-- Case Generator -->
<g id="${uniqueid}_node5" class="node"><title>Case Generator</title>
<g id="a_${uniqueid}_node5"><a xlink:href="#372714084925193" xlink:title="com.watch4net.alerting.operation.CaseOperation">
<polygon fill="#377eb8" stroke="black" points="317.735,-241 188.735,-241 188.735,-205 317.735,-205 317.735,-241"/>
<text text-anchor="middle" x="253.235" y="-219.3" font-family="Times,serif" font-size="14.00" fill="white">Case Generator</text>
</a>
</g>
</g>
<!-- Case Generator&#45;&gt;Bronze lvl chk -->
<g id="${uniqueid}_edge4" class="edge"><title>Case Generator:e&#45;&gt;Bronze lvl chk:w</title>
<path fill="none" stroke="black" d="M317.735,-223C366.561,-223 321.92,-315.564 356.872,-329.304"/>
<polygon fill="black" stroke="black" points="356.458,-332.783 366.902,-331 357.626,-325.881 356.458,-332.783"/>
</g>
<!-- Gold lvl chk -->
<g id="${uniqueid}_node6" class="node"><title>Gold lvl chk</title>
<g id="a_${uniqueid}_node6"><a xlink:href="#372714084978902" xlink:title="com.watch4net.alerting.operation.comparator.StringComparatorOperation">
<polygon fill="#ff7f00" stroke="black" points="476.902,-260 383.393,-242 476.902,-224 570.411,-242 476.902,-260"/>
<text text-anchor="middle" x="476.902" y="-238.3" font-family="Times,serif" font-size="14.00" fill="white">Gold lvl chk</text>
</a>
</g>
</g>
<!-- Case Generator&#45;&gt;Gold lvl chk -->
<g id="${uniqueid}_edge5" class="edge"><title>Case Generator:e&#45;&gt;Gold lvl chk:w</title>
<path fill="none" stroke="black" d="M317.735,-223C343.76,-223 350.597,-237.547 371.825,-241.184"/>
<polygon fill="black" stroke="black" points="371.652,-244.681 381.902,-242 372.217,-237.704 371.652,-244.681"/>
</g>
<!-- Platinum lvl chk -->
<g id="${uniqueid}_node14" class="node"><title>Platinum lvl chk</title>
<g id="a_${uniqueid}_node14"><a xlink:href="#372714084931513" xlink:title="com.watch4net.alerting.operation.comparator.StringComparatorOperation">
<polygon fill="#ff7f00" stroke="black" points="476.902,-198 353.568,-180 476.902,-162 600.237,-180 476.902,-198"/>
<text text-anchor="middle" x="476.902" y="-176.3" font-family="Times,serif" font-size="14.00" fill="white">Platinum lvl chk</text>
</a>
</g>
</g>
<!-- Case Generator&#45;&gt;Platinum lvl chk -->
<g id="${uniqueid}_edge6" class="edge"><title>Case Generator:e&#45;&gt;Platinum lvl chk:w</title>
<path fill="none" stroke="black" d="M317.735,-223C338.376,-223 332.426,-193.511 343.926,-183.374"/>
<polygon fill="black" stroke="black" points="345.417,-186.562 353.735,-180 343.14,-179.943 345.417,-186.562"/>
</g>
<!-- Silver lvl chk -->
<g id="${uniqueid}_node15" class="node"><title>Silver lvl chk</title>
<g id="a_${uniqueid}_node15"><a xlink:href="#372714085111236" xlink:title="com.watch4net.alerting.operation.comparator.StringComparatorOperation">
<polygon fill="#ff7f00" stroke="black" points="476.902,-117 375.687,-99 476.902,-81 578.117,-99 476.902,-117"/>
<text text-anchor="middle" x="476.902" y="-95.3" font-family="Times,serif" font-size="14.00" fill="white">Silver lvl chk</text>
</a>
</g>
</g>
<!-- Case Generator&#45;&gt;Silver lvl chk -->
<g id="${uniqueid}_edge7" class="edge"><title>Case Generator:e&#45;&gt;Silver lvl chk:w</title>
<path fill="none" stroke="black" d="M317.735,-223C374.628,-223 321.754,-114.016 364.926,-100.393"/>
<polygon fill="black" stroke="black" points="365.482,-103.849 374.902,-99 364.514,-96.9162 365.482,-103.849"/>
</g>
<!-- Gold_Maj_Chk -->
<g id="${uniqueid}_node8" class="node"><title>Gold_Maj_Chk</title>
<g id="a_${uniqueid}_node8"><a xlink:href="#372714084987003" xlink:title="com.watch4net.alerting.operation.comparator.ConstantComparatorOperation">
<polygon fill="#ff7f00" stroke="black" points="763.832,-268 651.558,-250 763.832,-232 876.107,-250 763.832,-268"/>
<text text-anchor="middle" x="763.832" y="-246.3" font-family="Times,serif" font-size="14.00" fill="white">Gold_Maj_Chk</text>
</a>
</g>
</g>
<!-- Gold lvl chk&#45;&gt;Gold_Maj_Chk -->
<g id="${uniqueid}_edge8" class="edge"><title>Gold lvl chk:e&#45;&gt;Gold_Maj_Chk:w</title>
<path fill="none" stroke="black" d="M571.902,-242C603.443,-242 613.5,-248.401 640.509,-249.752"/>
<polygon fill="black" stroke="black" points="640.751,-253.259 650.832,-250 640.919,-246.261 640.751,-253.259"/>
<text text-anchor="middle" x="587.402" y="-230.8" font-family="Times,serif" font-size="14.00">true</text>
</g>
<!-- Gold_Clr -->
<g id="${uniqueid}_node7" class="node"><title>Gold_Clr</title>
<g id="a_${uniqueid}_node7"><a xlink:href="#372714085001933" xlink:title="com.watch4net.alerting.action.SNMPTrapAction">
<ellipse fill="#4daf4a" stroke="black" cx="991.289" cy="-288" rx="51.9908" ry="18"/>
<text text-anchor="middle" x="991.289" y="-284.3" font-family="Times,serif" font-size="14.00" fill="white">Gold_Clr</text>
</a>
</g>
</g>
<!-- Gold_Maj_Chk&#45;&gt;Gold_Clr -->
<g id="${uniqueid}_edge9" class="edge"><title>Gold_Maj_Chk:ne&#45;&gt;Gold_Clr:w</title>
<path fill="none" stroke="black" d="M778.832,-266C779.535,-266.703 779.021,-267.426 779.832,-268 834.926,-307.03 864.352,-289.906 928.179,-288.141"/>
<polygon fill="black" stroke="black" points="928.339,-291.639 938.289,-288 928.241,-284.64 928.339,-291.639"/>
<text text-anchor="middle" x="761.832" y="-269.8" font-family="Times,serif" font-size="14.00">false</text>
</g>
<!-- Gold_Set -->
<g id="${uniqueid}_node9" class="node"><title>Gold_Set</title>
<g id="a_${uniqueid}_node9"><a xlink:href="#372714084993332" xlink:title="com.watch4net.alerting.action.SNMPTrapAction">
<ellipse fill="#4daf4a" stroke="black" cx="991.289" cy="-234" rx="51.9908" ry="18"/>
<text text-anchor="middle" x="991.289" y="-230.3" font-family="Times,serif" font-size="14.00" fill="white">Gold_Set</text>
</a>
</g>
</g>
<!-- Gold_Maj_Chk&#45;&gt;Gold_Set -->
<g id="${uniqueid}_edge10" class="edge"><title>Gold_Maj_Chk:se&#45;&gt;Gold_Set:w</title>
<path fill="none" stroke="black" d="M780.832,-234C827.9,-186.932 864.571,-229.404 928.262,-233.663"/>
<polygon fill="black" stroke="black" points="928.177,-237.162 938.289,-234 928.412,-230.166 928.177,-237.162"/>
<text text-anchor="middle" x="765.332" y="-222.8" font-family="Times,serif" font-size="14.00">true</text>
</g>
<!-- HighWrite
Resonsetime
Entry -->
<g id="${uniqueid}_node10" class="node"><title>HighWrite
Resonsetime
Entry</title>
<g id="a_${uniqueid}_node10"><a xlink:href="#372714084882080" xlink:title="com.watch4net.alerting.operation.FilteredEntryPoint">
<ellipse fill="#984ea3" stroke="black" cx="76.3675" cy="-223" rx="76.2353" ry="37.4533"/>
<text text-anchor="middle" x="76.3675" y="-234.3" font-family="Times,serif" font-size="14.00" fill="white">HighWrite</text>
<text text-anchor="middle" x="76.3675" y="-219.3" font-family="Times,serif" font-size="14.00" fill="white">Resonsetime</text>
<text text-anchor="middle" x="76.3675" y="-204.3" font-family="Times,serif" font-size="14.00" fill="white">Entry</text>
</a>
</g>
</g>
<!-- HighWrite
Resonsetime
Entry&#45;&gt;Case Generator -->
<g id="${uniqueid}_edge11" class="edge"><title>HighWrite
Resonsetime
Entry:e&#45;&gt;Case Generator:w</title>
<path fill="none" stroke="black" d="M152.735,-223C164.735,-223 169.985,-223 178.61,-223"/>
<polygon fill="black" stroke="black" points="178.735,-226.5 188.735,-223 178.735,-219.5 178.735,-226.5"/>
</g>
<!-- Plat_Clr -->
<g id="${uniqueid}_node11" class="node"><title>Plat_Clr</title>
<g id="a_${uniqueid}_node11"><a xlink:href="#372714084970303" xlink:title="com.watch4net.alerting.action.SNMPTrapAction">
<ellipse fill="#4daf4a" stroke="black" cx="991.289" cy="-180" rx="48.9926" ry="18"/>
<text text-anchor="middle" x="991.289" y="-176.3" font-family="Times,serif" font-size="14.00" fill="white">Plat_Clr</text>
</a>
</g>
</g>
<!-- Plat_Maj_Chk -->
<g id="${uniqueid}_node12" class="node"><title>Plat_Maj_Chk</title>
<g id="a_${uniqueid}_node12"><a xlink:href="#372714084946288" xlink:title="com.watch4net.alerting.operation.comparator.ConstantComparatorOperation">
<polygon fill="#ff7f00" stroke="black" points="763.832,-182 656.249,-164 763.832,-146 871.415,-164 763.832,-182"/>
<text text-anchor="middle" x="763.832" y="-160.3" font-family="Times,serif" font-size="14.00" fill="white">Plat_Maj_Chk</text>
</a>
</g>
</g>
<!-- Plat_Maj_Chk&#45;&gt;Plat_Clr -->
<g id="${uniqueid}_edge12" class="edge"><title>Plat_Maj_Chk:ne&#45;&gt;Plat_Clr:w</title>
<path fill="none" stroke="black" d="M778.832,-180C779.535,-180.703 778.987,-181.478 779.832,-182 814.441,-203.389 830.693,-182.582 871.373,-182 898.814,-181.608 908.067,-180.349 931.247,-180.06"/>
<polygon fill="black" stroke="black" points="931.31,-183.56 941.289,-180 931.269,-176.56 931.31,-183.56"/>
<text text-anchor="middle" x="761.832" y="-183.8" font-family="Times,serif" font-size="14.00">false</text>
</g>
<!-- Plat_Set -->
<g id="${uniqueid}_node13" class="node"><title>Plat_Set</title>
<g id="a_${uniqueid}_node13"><a xlink:href="#372714084953883" xlink:title="com.watch4net.alerting.action.SNMPTrapAction">
<ellipse fill="#4daf4a" stroke="black" cx="991.289" cy="-126" rx="49.2915" ry="18"/>
<text text-anchor="middle" x="991.289" y="-122.3" font-family="Times,serif" font-size="14.00" fill="white">Plat_Set</text>
</a>
</g>
</g>
<!-- Plat_Maj_Chk&#45;&gt;Plat_Set -->
<g id="${uniqueid}_edge13" class="edge"><title>Plat_Maj_Chk:se&#45;&gt;Plat_Set:w</title>
<path fill="none" stroke="black" d="M780.832,-148C828.949,-99.8828 865.071,-123.397 930.049,-125.808"/>
<polygon fill="black" stroke="black" points="930.225,-129.312 940.289,-126 930.357,-122.313 930.225,-129.312"/>
<text text-anchor="middle" x="765.332" y="-136.8" font-family="Times,serif" font-size="14.00">true</text>
</g>
<!-- Platinum lvl chk&#45;&gt;Plat_Maj_Chk -->
<g id="${uniqueid}_edge14" class="edge"><title>Platinum lvl chk:e&#45;&gt;Plat_Maj_Chk:w</title>
<path fill="none" stroke="black" d="M600.069,-180C621.662,-180 627.804,-168.397 644.809,-164.953"/>
<polygon fill="black" stroke="black" points="645.208,-168.431 654.832,-164 644.546,-161.462 645.208,-168.431"/>
<text text-anchor="middle" x="615.569" y="-168.8" font-family="Times,serif" font-size="14.00">true</text>
</g>
<!-- Silver_Maj_Chk -->
<g id="${uniqueid}_node17" class="node"><title>Silver_Maj_Chk</title>
<g id="a_${uniqueid}_node17"><a xlink:href="#372714085122758" xlink:title="com.watch4net.alerting.operation.comparator.ConstantComparatorOperation">
<polygon fill="#ff7f00" stroke="black" points="763.832,-74 644.351,-56 763.832,-38 883.313,-56 763.832,-74"/>
<text text-anchor="middle" x="763.832" y="-52.3" font-family="Times,serif" font-size="14.00" fill="white">Silver_Maj_Chk</text>
</a>
</g>
</g>
<!-- Silver lvl chk&#45;&gt;Silver_Maj_Chk -->
<g id="${uniqueid}_edge15" class="edge"><title>Silver lvl chk:e&#45;&gt;Silver_Maj_Chk:w</title>
<path fill="none" stroke="black" d="M578.902,-99C609.399,-99 609.122,-64.8918 632.887,-57.4307"/>
<polygon fill="black" stroke="black" points="633.432,-60.8884 642.832,-56 632.436,-53.9597 633.432,-60.8884"/>
<text text-anchor="middle" x="594.402" y="-87.8" font-family="Times,serif" font-size="14.00">true</text>
</g>
<!-- Silver_Clr -->
<g id="${uniqueid}_node16" class="node"><title>Silver_Clr</title>
<g id="a_${uniqueid}_node16"><a xlink:href="#372714085139896" xlink:title="com.watch4net.alerting.action.SNMPTrapAction">
<ellipse fill="#4daf4a" stroke="black" cx="991.289" cy="-72" rx="57.3905" ry="18"/>
<text text-anchor="middle" x="991.289" y="-68.3" font-family="Times,serif" font-size="14.00" fill="white">Silver_Clr</text>
</a>
</g>
</g>
<!-- Silver_Maj_Chk&#45;&gt;Silver_Clr -->
<g id="${uniqueid}_edge16" class="edge"><title>Silver_Maj_Chk:ne&#45;&gt;Silver_Clr:w</title>
<path fill="none" stroke="black" d="M778.832,-72C779.535,-72.7027 778.987,-73.4775 779.832,-74 818.958,-98.1814 837.336,-74.92 883.323,-74 901.724,-73.6319 908.673,-72.5019 923.14,-72.1243"/>
<polygon fill="black" stroke="black" points="923.333,-75.6223 933.289,-72 923.247,-68.6228 923.333,-75.6223"/>
<text text-anchor="middle" x="761.832" y="-75.8" font-family="Times,serif" font-size="14.00">false</text>
</g>
<!-- Silver_Set -->
<g id="${uniqueid}_node18" class="node"><title>Silver_Set</title>
<g id="a_${uniqueid}_node18"><a xlink:href="#372714085129545" xlink:title="com.watch4net.alerting.action.SNMPTrapAction">
<ellipse fill="#4daf4a" stroke="black" cx="991.289" cy="-18" rx="57.6901" ry="18"/>
<text text-anchor="middle" x="991.289" y="-14.3" font-family="Times,serif" font-size="14.00" fill="white">Silver_Set</text>
</a>
</g>
</g>
<!-- Silver_Maj_Chk&#45;&gt;Silver_Set -->
<g id="${uniqueid}_edge17" class="edge"><title>Silver_Maj_Chk:se&#45;&gt;Silver_Set:w</title>
<path fill="none" stroke="black" d="M780.832,-40C826.488,5.65546 860.647,-15.5408 922.174,-17.8112"/>
<polygon fill="black" stroke="black" points="922.226,-21.3127 932.289,-18 922.356,-14.3139 922.226,-21.3127"/>
<text text-anchor="middle" x="765.332" y="-28.8" font-family="Times,serif" font-size="14.00">true</text>
</g>
</g>
</svg>
