<?xml version="1.0" encoding="UTF-8" standalone="no"?>
<!DOCTYPE svg PUBLIC "-//W3C//DTD SVG 1.1//EN"
 "http://www.w3.org/Graphics/SVG/1.1/DTD/svg11.dtd">
<!-- Generated by graphviz version 2.38.0 (20140413.2041)
 -->
<!-- Title: NetApp Filer Alert Definitions/NetApp&#45;LUN/Read Bandwidth Pages: 1 -->
<svg width="972pt" height="272pt"
 viewBox="0.00 0.00 971.71 272.00" xmlns="http://www.w3.org/2000/svg" xmlns:xlink="http://www.w3.org/1999/xlink">
<g id="${uniqueid}" class="graph" transform="scale(1 1) rotate(0) translate(4 268)">
<title>NetApp Filer Alert Definitions/NetApp&#45;LUN/Read Bandwidth</title>
<polygon fill="white" stroke="none" points="-4,4 -4,-268 967.708,-268 967.708,4 -4,4"/>
<!-- LUN Read B/W
Entry -->
<g id="${uniqueid}_node1" class="node"><title>LUN Read B/W
Entry</title>
<g id="a_${uniqueid}_node1"><a xlink:href="#202211156715673" xlink:title="com.watch4net.alerting.operation.FilteredEntryPoint">
<ellipse fill="#984ea3" stroke="black" cx="88.3883" cy="-132" rx="88.2768" ry="26.7407"/>
<text text-anchor="middle" x="88.3883" y="-135.8" font-family="Times,serif" font-size="14.00" fill="white">LUN Read B/W</text>
<text text-anchor="middle" x="88.3883" y="-120.8" font-family="Times,serif" font-size="14.00" fill="white">Entry</text>
</a>
</g>
</g>
<!-- LUN Read B/W
case -->
<g id="${uniqueid}_node2" class="node"><title>LUN Read B/W
case</title>
<g id="a_${uniqueid}_node2"><a xlink:href="#202211156760616" xlink:title="com.watch4net.alerting.operation.CaseOperation">
<polygon fill="#377eb8" stroke="black" points="337.777,-151 212.777,-151 212.777,-113 337.777,-113 337.777,-151"/>
<text text-anchor="middle" x="275.277" y="-135.8" font-family="Times,serif" font-size="14.00" fill="white">LUN Read B/W</text>
<text text-anchor="middle" x="275.277" y="-120.8" font-family="Times,serif" font-size="14.00" fill="white">case</text>
</a>
</g>
</g>
<!-- LUN Read B/W
Entry&#45;&gt;LUN Read B/W
case -->
<g id="${uniqueid}_edge1" class="edge"><title>LUN Read B/W
Entry:e&#45;&gt;LUN Read B/W
case:w</title>
<path fill="none" stroke="black" d="M176.777,-132C188.777,-132 194.027,-132 202.652,-132"/>
<polygon fill="black" stroke="black" points="202.777,-135.5 212.777,-132 202.777,-128.5 202.777,-135.5"/>
</g>
<!-- LUN ReadB/W CRIT
check -->
<g id="${uniqueid}_node3" class="node"><title>LUN ReadB/W CRIT
check</title>
<g id="a_${uniqueid}_node3"><a xlink:href="#202211156771331" xlink:title="com.watch4net.alerting.operation.comparator.ConstantComparatorOperation">
<polygon fill="#ff7f00" stroke="black" points="534.777,-264 373.777,-226 534.777,-188 695.777,-226 534.777,-264"/>
<text text-anchor="middle" x="534.777" y="-229.8" font-family="Times,serif" font-size="14.00" fill="white">LUN ReadB/W CRIT</text>
<text text-anchor="middle" x="534.777" y="-214.8" font-family="Times,serif" font-size="14.00" fill="white">check</text>
</a>
</g>
</g>
<!-- LUN Read B/W
case&#45;&gt;LUN ReadB/W CRIT
check -->
<g id="${uniqueid}_edge2" class="edge"><title>LUN Read B/W
case:e&#45;&gt;LUN ReadB/W CRIT
check:w</title>
<path fill="none" stroke="black" d="M337.777,-132C378.494,-132 337.856,-209.868 363.955,-223.86"/>
<polygon fill="black" stroke="black" points="363.261,-227.291 373.777,-226 364.751,-220.451 363.261,-227.291"/>
</g>
<!-- LUN ReadB/W MAJ
check -->
<g id="${uniqueid}_node4" class="node"><title>LUN ReadB/W MAJ
check</title>
<g id="a_${uniqueid}_node4"><a xlink:href="#202211156809297" xlink:title="com.watch4net.alerting.operation.comparator.ConstantComparatorOperation">
<polygon fill="#ff7f00" stroke="black" points="534.777,-170 378.777,-132 534.777,-94 690.777,-132 534.777,-170"/>
<text text-anchor="middle" x="534.777" y="-135.8" font-family="Times,serif" font-size="14.00" fill="white">LUN ReadB/W MAJ</text>
<text text-anchor="middle" x="534.777" y="-120.8" font-family="Times,serif" font-size="14.00" fill="white">check</text>
</a>
</g>
</g>
<!-- LUN Read B/W
case&#45;&gt;LUN ReadB/W MAJ
check -->
<g id="${uniqueid}_edge3" class="edge"><title>LUN Read B/W
case:e&#45;&gt;LUN ReadB/W MAJ
check:w</title>
<path fill="none" stroke="black" d="M337.777,-132C351.666,-132 357.416,-132 367.745,-132"/>
<polygon fill="black" stroke="black" points="367.777,-135.5 377.777,-132 367.777,-128.5 367.777,-135.5"/>
</g>
<!-- LUN ReadB/W MIN
check -->
<g id="${uniqueid}_node5" class="node"><title>LUN ReadB/W MIN
check</title>
<g id="a_${uniqueid}_node5"><a xlink:href="#202211156836660" xlink:title="com.watch4net.alerting.operation.comparator.ConstantComparatorOperation">
<polygon fill="#ff7f00" stroke="black" points="534.777,-76 376.777,-38 534.777,-7.10543e-15 692.777,-38 534.777,-76"/>
<text text-anchor="middle" x="534.777" y="-41.8" font-family="Times,serif" font-size="14.00" fill="white">LUN ReadB/W MIN</text>
<text text-anchor="middle" x="534.777" y="-26.8" font-family="Times,serif" font-size="14.00" fill="white">check</text>
</a>
</g>
</g>
<!-- LUN Read B/W
case&#45;&gt;LUN ReadB/W MIN
check -->
<g id="${uniqueid}_edge4" class="edge"><title>LUN Read B/W
case:e&#45;&gt;LUN ReadB/W MIN
check:w</title>
<path fill="none" stroke="black" d="M337.777,-132C378.79,-132 339.296,-54.1319 365.843,-40.1399"/>
<polygon fill="black" stroke="black" points="366.738,-43.5276 375.777,-38 365.264,-36.6846 366.738,-43.5276"/>
</g>
<!-- LUN ReadB/W_CRIT
trap -->
<g id="${uniqueid}_node8" class="node"><title>LUN ReadB/W_CRIT
trap</title>
<g id="a_${uniqueid}_node8"><a xlink:href="#202211156788621" xlink:title="com.watch4net.alerting.action.SNMPTrapAction">
<ellipse fill="#4daf4a" stroke="black" cx="847.742" cy="-226" rx="115.931" ry="26.7407"/>
<text text-anchor="middle" x="847.742" y="-229.8" font-family="Times,serif" font-size="14.00" fill="white">LUN ReadB/W_CRIT</text>
<text text-anchor="middle" x="847.742" y="-214.8" font-family="Times,serif" font-size="14.00" fill="white">trap</text>
</a>
</g>
</g>
<!-- LUN ReadB/W CRIT
check&#45;&gt;LUN ReadB/W_CRIT
trap -->
<g id="${uniqueid}_edge5" class="edge"><title>LUN ReadB/W CRIT
check:e&#45;&gt;LUN ReadB/W_CRIT
trap:w</title>
<path fill="none" stroke="black" d="M695.777,-226C707.777,-226 713.027,-226 721.652,-226"/>
<polygon fill="black" stroke="black" points="721.777,-229.5 731.777,-226 721.777,-222.5 721.777,-229.5"/>
<text text-anchor="middle" x="711.277" y="-214.8" font-family="Times,serif" font-size="14.00">true</text>
</g>
<!-- LUN ReadB/W_
Major trap -->
<g id="${uniqueid}_node6" class="node"><title>LUN ReadB/W_
Major trap</title>
<g id="a_${uniqueid}_node6"><a xlink:href="#202211156822577" xlink:title="com.watch4net.alerting.action.SNMPTrapAction">
<ellipse fill="#4daf4a" stroke="black" cx="847.742" cy="-132" rx="90.5193" ry="26.7407"/>
<text text-anchor="middle" x="847.742" y="-135.8" font-family="Times,serif" font-size="14.00" fill="white">LUN ReadB/W_</text>
<text text-anchor="middle" x="847.742" y="-120.8" font-family="Times,serif" font-size="14.00" fill="white">Major trap</text>
</a>
</g>
</g>
<!-- LUN ReadB/W MAJ
check&#45;&gt;LUN ReadB/W_
Major trap -->
<g id="${uniqueid}_edge6" class="edge"><title>LUN ReadB/W MAJ
check:e&#45;&gt;LUN ReadB/W_
Major trap:w</title>
<path fill="none" stroke="black" d="M691.777,-132C716.541,-132 725.126,-132 745.72,-132"/>
<polygon fill="black" stroke="black" points="745.742,-135.5 755.742,-132 745.742,-128.5 745.742,-135.5"/>
<text text-anchor="middle" x="707.277" y="-120.8" font-family="Times,serif" font-size="14.00">true</text>
</g>
<!-- LUN ReadB/W_
Minor trap -->
<g id="${uniqueid}_node7" class="node"><title>LUN ReadB/W_
Minor trap</title>
<g id="a_${uniqueid}_node7"><a xlink:href="#202211156847632" xlink:title="com.watch4net.alerting.action.SNMPTrapAction">
<ellipse fill="#4daf4a" stroke="black" cx="847.742" cy="-38" rx="90.5193" ry="26.7407"/>
<text text-anchor="middle" x="847.742" y="-41.8" font-family="Times,serif" font-size="14.00" fill="white">LUN ReadB/W_</text>
<text text-anchor="middle" x="847.742" y="-26.8" font-family="Times,serif" font-size="14.00" fill="white">Minor trap</text>
</a>
</g>
</g>
<!-- LUN ReadB/W MIN
check&#45;&gt;LUN ReadB/W_
Minor trap -->
<g id="${uniqueid}_edge7" class="edge"><title>LUN ReadB/W MIN
check:e&#45;&gt;LUN ReadB/W_
Minor trap:w</title>
<path fill="none" stroke="black" d="M693.777,-38C717.552,-38 725.933,-38 745.499,-38"/>
<polygon fill="black" stroke="black" points="745.742,-41.5001 755.742,-38 745.742,-34.5001 745.742,-41.5001"/>
<text text-anchor="middle" x="709.277" y="-26.8" font-family="Times,serif" font-size="14.00">true</text>
</g>
</g>
</svg>
