<?xml version="1.0" encoding="UTF-8" standalone="no"?>
<!DOCTYPE svg PUBLIC "-//W3C//DTD SVG 1.1//EN"
 "http://www.w3.org/Graphics/SVG/1.1/DTD/svg11.dtd">
<!-- Generated by graphviz version 2.38.0 (20140413.2041)
 -->
<!-- Title: EMC VPLEX Alert Definitions/VPLEX&#45;Cluster/Health Pages: 1 -->
<svg width="703pt" height="566pt"
 viewBox="0.00 0.00 702.84 565.74" xmlns="http://www.w3.org/2000/svg" xmlns:xlink="http://www.w3.org/1999/xlink">
<g id="${uniqueid}" class="graph" transform="scale(1 1) rotate(0) translate(4 561.74)">
<title>EMC VPLEX Alert Definitions/VPLEX&#45;Cluster/Health</title>
<polygon fill="white" stroke="none" points="-4,4 -4,-561.74 698.837,-561.74 698.837,4 -4,4"/>
<!--  health major
clear trap -->
<g id="${uniqueid}_node1" class="node"><title> health major
clear trap</title>
<g id="a_${uniqueid}_node1"><a xlink:href="#406462075491411-80936071123164" xlink:title="com.watch4net.alerting.action.SNMPTrapAction">
<ellipse fill="#4daf4a" stroke="black" cx="606.449" cy="-242.87" rx="79.3924" ry="26.7407"/>
<text text-anchor="middle" x="606.449" y="-246.67" font-family="Times,serif" font-size="14.00" fill="white"> health major</text>
<text text-anchor="middle" x="606.449" y="-231.67" font-family="Times,serif" font-size="14.00" fill="white">clear trap</text>
</a>
</g>
</g>
<!-- Alert Severity -->
<g id="${uniqueid}_node2" class="node"><title>Alert Severity</title>
<g id="a_${uniqueid}_node2"><a xlink:href="#1436891733717" xlink:title="com.watch4net.alerting.operation.CaseOperation">
<polygon fill="#377eb8" stroke="black" points="236.493,-296.87 120.493,-296.87 120.493,-260.87 236.493,-260.87 236.493,-296.87"/>
<text text-anchor="middle" x="178.493" y="-275.17" font-family="Times,serif" font-size="14.00" fill="white">Alert Severity</text>
</a>
</g>
</g>
<!-- Critical -->
<g id="${uniqueid}_node3" class="node"><title>Critical</title>
<g id="a_${uniqueid}_node3"><a xlink:href="#406462075395773-80936058496824" xlink:title="com.watch4net.alerting.operation.comparator.ConstantComparatorOperation">
<polygon fill="#ff7f00" stroke="black" points="377.276,-490.87 312.255,-472.87 377.276,-454.87 442.298,-472.87 377.276,-490.87"/>
<text text-anchor="middle" x="377.276" y="-469.17" font-family="Times,serif" font-size="14.00" fill="white">Critical</text>
</a>
</g>
</g>
<!-- Alert Severity&#45;&gt;Critical -->
<g id="${uniqueid}_edge1" class="edge"><title>Alert Severity:e&#45;&gt;Critical:w</title>
<path fill="none" stroke="black" d="M236.493,-278.87C279.086,-278.87 267.437,-443.742 301.555,-469.503"/>
<polygon fill="black" stroke="black" points="300.682,-472.904 311.276,-472.87 302.973,-466.29 300.682,-472.904"/>
</g>
<!-- Informational -->
<g id="${uniqueid}_node5" class="node"><title>Informational</title>
<g id="a_${uniqueid}_node5"><a xlink:href="#406462075558608-80936058779241" xlink:title="com.watch4net.alerting.operation.comparator.ConstantComparatorOperation">
<polygon fill="#ff7f00" stroke="black" points="377.276,-347.87 272.708,-329.87 377.276,-311.87 481.845,-329.87 377.276,-347.87"/>
<text text-anchor="middle" x="377.276" y="-326.17" font-family="Times,serif" font-size="14.00" fill="white">Informational</text>
</a>
</g>
</g>
<!-- Alert Severity&#45;&gt;Informational -->
<g id="${uniqueid}_edge2" class="edge"><title>Alert Severity:e&#45;&gt;Informational:w</title>
<path fill="none" stroke="black" d="M236.493,-278.87C260.119,-278.87 249.493,-315.853 262.951,-326.833"/>
<polygon fill="black" stroke="black" points="261.902,-330.172 272.493,-329.87 264.025,-323.501 261.902,-330.172"/>
</g>
<!-- Major -->
<g id="${uniqueid}_node6" class="node"><title>Major</title>
<g id="a_${uniqueid}_node6"><a xlink:href="#406462075456378-80936058586166" xlink:title="com.watch4net.alerting.operation.comparator.ConstantComparatorOperation">
<polygon fill="#ff7f00" stroke="black" points="377.276,-246.87 322.815,-228.87 377.276,-210.87 431.738,-228.87 377.276,-246.87"/>
<text text-anchor="middle" x="377.276" y="-225.17" font-family="Times,serif" font-size="14.00" fill="white">Major</text>
</a>
</g>
</g>
<!-- Alert Severity&#45;&gt;Major -->
<g id="${uniqueid}_edge3" class="edge"><title>Alert Severity:e&#45;&gt;Major:w</title>
<path fill="none" stroke="black" d="M236.493,-278.87C277.002,-278.87 278.239,-236.737 312.306,-229.824"/>
<polygon fill="black" stroke="black" points="312.655,-233.307 322.276,-228.87 311.988,-226.339 312.655,-233.307"/>
</g>
<!-- Warning -->
<g id="${uniqueid}_node7" class="node"><title>Warning</title>
<g id="a_${uniqueid}_node7"><a xlink:href="#406462075506595-80936058685229" xlink:title="com.watch4net.alerting.operation.comparator.ConstantComparatorOperation">
<polygon fill="#ff7f00" stroke="black" points="377.276,-102.87 306.726,-84.8701 377.276,-66.8701 447.827,-84.8701 377.276,-102.87"/>
<text text-anchor="middle" x="377.276" y="-81.1701" font-family="Times,serif" font-size="14.00" fill="white">Warning</text>
</a>
</g>
</g>
<!-- Alert Severity&#45;&gt;Warning -->
<g id="${uniqueid}_edge4" class="edge"><title>Alert Severity:e&#45;&gt;Warning:w</title>
<path fill="none" stroke="black" d="M236.493,-278.87C278.66,-278.87 262.665,-113.998 295.744,-88.2373"/>
<polygon fill="black" stroke="black" points="297.013,-91.5009 305.276,-84.8701 294.682,-84.9006 297.013,-91.5009"/>
</g>
<!-- health critical
alert trap -->
<g id="${uniqueid}_node8" class="node"><title>health critical
alert trap</title>
<g id="a_${uniqueid}_node8"><a xlink:href="#406462075417797-80936071011328" xlink:title="com.watch4net.alerting.action.SNMPTrapAction">
<ellipse fill="#4daf4a" stroke="black" cx="606.449" cy="-458.87" rx="82.9636" ry="26.7407"/>
<text text-anchor="middle" x="606.449" y="-462.67" font-family="Times,serif" font-size="14.00" fill="white">health critical</text>
<text text-anchor="middle" x="606.449" y="-447.67" font-family="Times,serif" font-size="14.00" fill="white">alert trap</text>
</a>
</g>
</g>
<!-- Critical&#45;&gt;health critical
alert trap -->
<g id="${uniqueid}_edge6" class="edge"><title>Critical:se&#45;&gt;health critical
alert trap:w</title>
<path fill="none" stroke="black" d="M392.276,-458.87C430.709,-420.438 460.756,-454.216 512.223,-458.447"/>
<polygon fill="black" stroke="black" points="512.313,-461.954 522.449,-458.87 512.602,-454.96 512.313,-461.954"/>
<text text-anchor="middle" x="376.776" y="-447.67" font-family="Times,serif" font-size="14.00">true</text>
</g>
<!-- health critical
clear trap -->
<g id="${uniqueid}_node9" class="node"><title>health critical
clear trap</title>
<g id="a_${uniqueid}_node9"><a xlink:href="#406462075441408-80936070947597" xlink:title="com.watch4net.alerting.action.SNMPTrapAction">
<ellipse fill="#4daf4a" stroke="black" cx="606.449" cy="-530.87" rx="82.9636" ry="26.7407"/>
<text text-anchor="middle" x="606.449" y="-534.67" font-family="Times,serif" font-size="14.00" fill="white">health critical</text>
<text text-anchor="middle" x="606.449" y="-519.67" font-family="Times,serif" font-size="14.00" fill="white">clear trap</text>
</a>
</g>
</g>
<!-- Critical&#45;&gt;health critical
clear trap -->
<g id="${uniqueid}_edge5" class="edge"><title>Critical:ne&#45;&gt;health critical
clear trap:w</title>
<path fill="none" stroke="black" d="M390.276,-486.87C391.572,-488.166 390.014,-489.542 391.276,-490.87 430.883,-532.55 458.257,-531.189 512.398,-530.901"/>
<polygon fill="black" stroke="black" points="512.459,-534.401 522.449,-530.87 512.438,-527.401 512.459,-534.401"/>
<text text-anchor="middle" x="373.276" y="-490.67" font-family="Times,serif" font-size="14.00">false</text>
</g>
<!-- Health -->
<g id="${uniqueid}_node4" class="node"><title>Health</title>
<g id="a_${uniqueid}_node4"><a xlink:href="#406462075330588-80936057378636" xlink:title="com.watch4net.alerting.operation.FilteredEntryPoint">
<ellipse fill="#984ea3" stroke="black" cx="42.2463" cy="-278.87" rx="42.4939" ry="18"/>
<text text-anchor="middle" x="42.2463" y="-275.17" font-family="Times,serif" font-size="14.00" fill="white">Health</text>
</a>
</g>
</g>
<!-- Health&#45;&gt;Alert Severity -->
<g id="${uniqueid}_edge7" class="edge"><title>Health:e&#45;&gt;Alert Severity:w</title>
<path fill="none" stroke="black" d="M84.4925,-278.87C96.4925,-278.87 101.743,-278.87 110.368,-278.87"/>
<polygon fill="black" stroke="black" points="110.493,-282.37 120.493,-278.87 110.492,-275.37 110.493,-282.37"/>
</g>
<!-- health info
alert trap -->
<g id="${uniqueid}_node10" class="node"><title>health info
alert trap</title>
<g id="a_${uniqueid}_node10"><a xlink:href="#406462075574978-80936071304494" xlink:title="com.watch4net.alerting.action.SNMPTrapAction">
<ellipse fill="#4daf4a" stroke="black" cx="606.449" cy="-314.87" rx="65.5227" ry="26.7407"/>
<text text-anchor="middle" x="606.449" y="-318.67" font-family="Times,serif" font-size="14.00" fill="white">health info</text>
<text text-anchor="middle" x="606.449" y="-303.67" font-family="Times,serif" font-size="14.00" fill="white">alert trap</text>
</a>
</g>
</g>
<!-- Informational&#45;&gt;health info
alert trap -->
<g id="${uniqueid}_edge9" class="edge"><title>Informational:se&#45;&gt;health info
alert trap:w</title>
<path fill="none" stroke="black" d="M393.276,-314.87C436.791,-271.355 470.734,-310.281 529.413,-314.507"/>
<polygon fill="black" stroke="black" points="529.329,-318.006 539.449,-314.87 529.582,-311.011 529.329,-318.006"/>
<text text-anchor="middle" x="377.776" y="-303.67" font-family="Times,serif" font-size="14.00">true</text>
</g>
<!-- health info
clear trap -->
<g id="${uniqueid}_node11" class="node"><title>health info
clear trap</title>
<g id="a_${uniqueid}_node11"><a xlink:href="#406462075592946-80936071363554" xlink:title="com.watch4net.alerting.action.SNMPTrapAction">
<ellipse fill="#4daf4a" stroke="black" cx="606.449" cy="-386.87" rx="65.5227" ry="26.7407"/>
<text text-anchor="middle" x="606.449" y="-390.67" font-family="Times,serif" font-size="14.00" fill="white">health info</text>
<text text-anchor="middle" x="606.449" y="-375.67" font-family="Times,serif" font-size="14.00" fill="white">clear trap</text>
</a>
</g>
</g>
<!-- Informational&#45;&gt;health info
clear trap -->
<g id="${uniqueid}_edge8" class="edge"><title>Informational:ne&#45;&gt;health info
clear trap:w</title>
<path fill="none" stroke="black" d="M391.276,-344.87C392.27,-345.864 391.252,-346.908 392.276,-347.87 439.096,-391.842 468.667,-387.476 529.423,-386.919"/>
<polygon fill="black" stroke="black" points="529.466,-390.419 539.449,-386.87 529.432,-383.419 529.466,-390.419"/>
<text text-anchor="middle" x="374.276" y="-348.67" font-family="Times,serif" font-size="14.00">false</text>
</g>
<!-- Major&#45;&gt; health major
clear trap -->
<g id="${uniqueid}_edge10" class="edge"><title>Major:ne&#45;&gt; health major
clear trap:w</title>
<path fill="none" stroke="black" d="M390.276,-242.87C391.572,-244.166 389.832,-245.742 391.276,-246.87 405.37,-257.874 413.631,-247.25 431.507,-246.87 469.697,-246.057 481.644,-243.388 515.331,-242.936"/>
<polygon fill="black" stroke="black" points="515.472,-246.435 525.449,-242.87 515.426,-239.435 515.472,-246.435"/>
<text text-anchor="middle" x="373.276" y="-246.67" font-family="Times,serif" font-size="14.00">false</text>
</g>
<!-- health major
alert trap -->
<g id="${uniqueid}_node12" class="node"><title>health major
alert trap</title>
<g id="a_${uniqueid}_node12"><a xlink:href="#406462075473455-80936071069660" xlink:title="com.watch4net.alerting.action.SNMPTrapAction">
<ellipse fill="#4daf4a" stroke="black" cx="606.449" cy="-170.87" rx="75.8212" ry="26.7407"/>
<text text-anchor="middle" x="606.449" y="-174.67" font-family="Times,serif" font-size="14.00" fill="white">health major</text>
<text text-anchor="middle" x="606.449" y="-159.67" font-family="Times,serif" font-size="14.00" fill="white">alert trap</text>
</a>
</g>
</g>
<!-- Major&#45;&gt;health major
alert trap -->
<g id="${uniqueid}_edge11" class="edge"><title>Major:se&#45;&gt;health major
alert trap:w</title>
<path fill="none" stroke="black" d="M392.276,-214.87C435.073,-172.073 462.323,-170.87 519.26,-170.866"/>
<polygon fill="black" stroke="black" points="519.447,-174.366 529.449,-170.87 519.45,-167.366 519.447,-174.366"/>
<text text-anchor="middle" x="376.776" y="-203.67" font-family="Times,serif" font-size="14.00">true</text>
</g>
<!-- health warning
alert trap -->
<g id="${uniqueid}_node13" class="node"><title>health warning
alert trap</title>
<g id="a_${uniqueid}_node13"><a xlink:href="#406462075523608-80936071240110" xlink:title="com.watch4net.alerting.action.SNMPTrapAction">
<ellipse fill="#4daf4a" stroke="black" cx="606.449" cy="-26.8701" rx="88.2768" ry="26.7407"/>
<text text-anchor="middle" x="606.449" y="-30.6701" font-family="Times,serif" font-size="14.00" fill="white">health warning</text>
<text text-anchor="middle" x="606.449" y="-15.6701" font-family="Times,serif" font-size="14.00" fill="white">alert trap</text>
</a>
</g>
</g>
<!-- Warning&#45;&gt;health warning
alert trap -->
<g id="${uniqueid}_edge13" class="edge"><title>Warning:se&#45;&gt;health warning
alert trap:w</title>
<path fill="none" stroke="black" d="M392.276,-70.8701C431.701,-31.4451 455.884,-27.2551 507.995,-26.8995"/>
<polygon fill="black" stroke="black" points="508.071,-30.3994 518.06,-26.8701 508.05,-23.3994 508.071,-30.3994"/>
<text text-anchor="middle" x="376.776" y="-59.6701" font-family="Times,serif" font-size="14.00">true</text>
</g>
<!-- health warning
clear trap -->
<g id="${uniqueid}_node14" class="node"><title>health warning
clear trap</title>
<g id="a_${uniqueid}_node14"><a xlink:href="#406462075541876-80936071178859" xlink:title="com.watch4net.alerting.action.SNMPTrapAction">
<ellipse fill="#4daf4a" stroke="black" cx="606.449" cy="-98.8701" rx="88.2768" ry="26.7407"/>
<text text-anchor="middle" x="606.449" y="-102.67" font-family="Times,serif" font-size="14.00" fill="white">health warning</text>
<text text-anchor="middle" x="606.449" y="-87.6701" font-family="Times,serif" font-size="14.00" fill="white">clear trap</text>
</a>
</g>
</g>
<!-- Warning&#45;&gt;health warning
clear trap -->
<g id="${uniqueid}_edge12" class="edge"><title>Warning:ne&#45;&gt;health warning
clear trap:w</title>
<path fill="none" stroke="black" d="M390.276,-98.8701C391.572,-100.166 389.832,-101.742 391.276,-102.87 397.147,-107.454 478.459,-101.579 507.773,-99.5279"/>
<polygon fill="black" stroke="black" points="508.304,-103.001 518.06,-98.8701 507.857,-96.0154 508.304,-103.001"/>
<text text-anchor="middle" x="373.276" y="-102.67" font-family="Times,serif" font-size="14.00">false</text>
</g>
</g>
</svg>
