<?xml version="1.0" encoding="UTF-8" standalone="no"?>
<!DOCTYPE svg PUBLIC "-//W3C//DTD SVG 1.1//EN"
 "http://www.w3.org/Graphics/SVG/1.1/DTD/svg11.dtd">
<!-- Generated by graphviz version 2.38.0 (20140413.2041)
 -->
<!-- Title: Physical Hosts Alert Definitions/Volume Group Utilization Pages: 1 -->
<svg width="662pt" height="314pt"
 viewBox="0.00 0.00 661.77 314.00" xmlns="http://www.w3.org/2000/svg" xmlns:xlink="http://www.w3.org/1999/xlink">
<g id="${uniqueid}" class="graph" transform="scale(1 1) rotate(0) translate(4 310)">
<title>Physical Hosts Alert Definitions/Volume Group Utilization</title>
<polygon fill="white" stroke="none" points="-4,4 -4,-310 657.773,-310 657.773,4 -4,4"/>
<!-- Case -->
<g id="${uniqueid}_node1" class="node"><title>Case</title>
<g id="a_${uniqueid}_node1"><a xlink:href="#1416343025410" xlink:title="com.watch4net.alerting.operation.CaseOperation">
<polygon fill="#377eb8" stroke="black" points="236.887,-171 182.887,-171 182.887,-135 236.887,-135 236.887,-171"/>
<text text-anchor="middle" x="209.887" y="-149.3" font-family="Times,serif" font-size="14.00" fill="white">Case</text>
</a>
</g>
</g>
<!-- Critical 20% -->
<g id="${uniqueid}_node5" class="node"><title>Critical 20%</title>
<g id="a_${uniqueid}_node5"><a xlink:href="#a9779040-ecde-4ec6-a795-365ca03bbfec" xlink:title="com.watch4net.alerting.operation.comparator.ConstantComparatorOperation">
<polygon fill="#ff7f00" stroke="black" points="371.237,-267 273.037,-249 371.237,-231 469.437,-249 371.237,-267"/>
<text text-anchor="middle" x="371.237" y="-245.3" font-family="Times,serif" font-size="14.00" fill="white">Critical 20%</text>
</a>
</g>
</g>
<!-- Case&#45;&gt;Critical 20% -->
<g id="${uniqueid}_edge1" class="edge"><title>Case:e&#45;&gt;Critical 20%:w</title>
<path fill="none" stroke="black" d="M236.887,-153C278.361,-153 236.413,-232.525 262.898,-246.815"/>
<polygon fill="black" stroke="black" points="262.37,-250.282 272.887,-249 263.866,-243.444 262.37,-250.282"/>
</g>
<!-- Major 50% -->
<g id="${uniqueid}_node7" class="node"><title>Major 50%</title>
<g id="a_${uniqueid}_node7"><a xlink:href="#544e1e34-2d41-4640-a667-5a5b31e8f796" xlink:title="com.watch4net.alerting.operation.comparator.ConstantComparatorOperation">
<polygon fill="#ff7f00" stroke="black" points="371.237,-171 284.097,-153 371.237,-135 458.377,-153 371.237,-171"/>
<text text-anchor="middle" x="371.237" y="-149.3" font-family="Times,serif" font-size="14.00" fill="white">Major 50%</text>
</a>
</g>
</g>
<!-- Case&#45;&gt;Major 50% -->
<g id="${uniqueid}_edge2" class="edge"><title>Case:e&#45;&gt;Major 50%:w</title>
<path fill="none" stroke="black" d="M236.887,-153C253.624,-153 260.162,-153 273.075,-153"/>
<polygon fill="black" stroke="black" points="273.237,-156.5 283.237,-153 273.237,-149.5 273.237,-156.5"/>
</g>
<!-- Minor 80% -->
<g id="${uniqueid}_node9" class="node"><title>Minor 80%</title>
<g id="a_${uniqueid}_node9"><a xlink:href="#b1207f83-8e97-4f6a-ad24-8ba6aa8db5ec" xlink:title="com.watch4net.alerting.operation.comparator.ConstantComparatorOperation">
<polygon fill="#ff7f00" stroke="black" points="371.237,-75 282.758,-57 371.237,-39 459.716,-57 371.237,-75"/>
<text text-anchor="middle" x="371.237" y="-53.3" font-family="Times,serif" font-size="14.00" fill="white">Minor 80%</text>
</a>
</g>
</g>
<!-- Case&#45;&gt;Minor 80% -->
<g id="${uniqueid}_edge3" class="edge"><title>Case:e&#45;&gt;Minor 80%:w</title>
<path fill="none" stroke="black" d="M236.887,-153C279.848,-153 242.057,-72.791 271.138,-59.0051"/>
<polygon fill="black" stroke="black" points="272.11,-62.3806 281.237,-57 270.747,-55.5146 272.11,-62.3806"/>
</g>
<!-- Clear Critical -->
<g id="${uniqueid}_node2" class="node"><title>Clear Critical</title>
<g id="a_${uniqueid}_node2"><a xlink:href="#1416342946731" xlink:title="com.watch4net.alerting.action.SNMPTrapAction">
<ellipse fill="#4daf4a" stroke="black" cx="579.68" cy="-288" rx="74.187" ry="18"/>
<text text-anchor="middle" x="579.68" y="-284.3" font-family="Times,serif" font-size="14.00" fill="white">Clear Critical</text>
</a>
</g>
</g>
<!-- Clear Major -->
<g id="${uniqueid}_node3" class="node"><title>Clear Major</title>
<g id="a_${uniqueid}_node3"><a xlink:href="#1416342990672" xlink:title="com.watch4net.alerting.action.SNMPTrapAction">
<ellipse fill="#4daf4a" stroke="black" cx="579.68" cy="-180" rx="66.8882" ry="18"/>
<text text-anchor="middle" x="579.68" y="-176.3" font-family="Times,serif" font-size="14.00" fill="white">Clear Major</text>
</a>
</g>
</g>
<!-- Clear Minor -->
<g id="${uniqueid}_node4" class="node"><title>Clear Minor</title>
<g id="a_${uniqueid}_node4"><a xlink:href="#90c87c89-8aec-45ee-8c27-ba4f148dca57" xlink:title="com.watch4net.alerting.action.SNMPTrapAction">
<ellipse fill="#4daf4a" stroke="black" cx="579.68" cy="-72" rx="67.6881" ry="18"/>
<text text-anchor="middle" x="579.68" y="-68.3" font-family="Times,serif" font-size="14.00" fill="white">Clear Minor</text>
</a>
</g>
</g>
<!-- Critical 20%&#45;&gt;Clear Critical -->
<g id="${uniqueid}_edge4" class="edge"><title>Critical 20%:ne&#45;&gt;Clear Critical:w</title>
<path fill="none" stroke="black" d="M385.237,-264C386.231,-264.994 385.172,-266.082 386.237,-267 424.396,-299.906 448.476,-289.622 495.524,-288.16"/>
<polygon fill="black" stroke="black" points="495.643,-291.658 505.587,-288 495.532,-284.659 495.643,-291.658"/>
<text text-anchor="middle" x="368.237" y="-267.8" font-family="Times,serif" font-size="14.00">false</text>
</g>
<!-- Critical Trap -->
<g id="${uniqueid}_node6" class="node"><title>Critical Trap</title>
<g id="a_${uniqueid}_node6"><a xlink:href="#ee1d60ef-6300-4f1f-bb79-4bb5e253054f" xlink:title="com.watch4net.alerting.action.SNMPTrapAction">
<ellipse fill="#4daf4a" stroke="black" cx="579.68" cy="-234" rx="70.3881" ry="18"/>
<text text-anchor="middle" x="579.68" y="-230.3" font-family="Times,serif" font-size="14.00" fill="white">Critical Trap</text>
</a>
</g>
</g>
<!-- Critical 20%&#45;&gt;Critical Trap -->
<g id="${uniqueid}_edge5" class="edge"><title>Critical 20%:se&#45;&gt;Critical Trap:w</title>
<path fill="none" stroke="black" d="M387.237,-234C422.943,-198.294 450.891,-229.397 498.542,-233.555"/>
<polygon fill="black" stroke="black" points="498.536,-237.058 508.68,-234 498.843,-230.065 498.536,-237.058"/>
<text text-anchor="middle" x="371.737" y="-222.8" font-family="Times,serif" font-size="14.00">true</text>
</g>
<!-- Major 50%&#45;&gt;Clear Major -->
<g id="${uniqueid}_edge6" class="edge"><title>Major 50%:ne&#45;&gt;Clear Major:w</title>
<path fill="none" stroke="black" d="M385.237,-168C386.231,-168.994 385.127,-170.138 386.237,-171 427.624,-203.143 452.536,-182.928 501.545,-180.276"/>
<polygon fill="black" stroke="black" points="501.779,-183.771 511.68,-180 501.589,-176.773 501.779,-183.771"/>
<text text-anchor="middle" x="368.237" y="-171.8" font-family="Times,serif" font-size="14.00">false</text>
</g>
<!-- Major Trap -->
<g id="${uniqueid}_node8" class="node"><title>Major Trap</title>
<g id="a_${uniqueid}_node8"><a xlink:href="#4a3517bd-14f3-4807-ad01-a2f59d29f5f7" xlink:title="com.watch4net.alerting.action.SNMPTrapAction">
<ellipse fill="#4daf4a" stroke="black" cx="579.68" cy="-126" rx="63.0888" ry="18"/>
<text text-anchor="middle" x="579.68" y="-122.3" font-family="Times,serif" font-size="14.00" fill="white">Major Trap</text>
</a>
</g>
</g>
<!-- Major 50%&#45;&gt;Major Trap -->
<g id="${uniqueid}_edge7" class="edge"><title>Major 50%:se&#45;&gt;Major Trap:w</title>
<path fill="none" stroke="black" d="M387.237,-138C425.324,-99.9131 454.608,-122.797 505.552,-125.708"/>
<polygon fill="black" stroke="black" points="505.583,-129.21 515.68,-126 505.785,-122.213 505.583,-129.21"/>
<text text-anchor="middle" x="371.737" y="-126.8" font-family="Times,serif" font-size="14.00">true</text>
</g>
<!-- Minor 80%&#45;&gt;Clear Minor -->
<g id="${uniqueid}_edge8" class="edge"><title>Minor 80%:ne&#45;&gt;Clear Minor:w</title>
<path fill="none" stroke="black" d="M385.237,-72C386.231,-72.9938 385.097,-74.1782 386.237,-75 412.643,-94.0327 426.939,-75.9523 459.476,-75 478.346,-74.4477 485.444,-72.7528 500.273,-72.1865"/>
<polygon fill="black" stroke="black" points="500.744,-75.6787 510.68,-72 500.619,-68.6798 500.744,-75.6787"/>
<text text-anchor="middle" x="368.237" y="-75.8" font-family="Times,serif" font-size="14.00">false</text>
</g>
<!-- Minor Trap -->
<g id="${uniqueid}_node10" class="node"><title>Minor Trap</title>
<g id="a_${uniqueid}_node10"><a xlink:href="#1d3a3fdc-1a1d-4725-9ba9-f0cf38436bfe" xlink:title="com.watch4net.alerting.action.SNMPTrapAction">
<ellipse fill="#4daf4a" stroke="black" cx="579.68" cy="-18" rx="63.8893" ry="18"/>
<text text-anchor="middle" x="579.68" y="-14.3" font-family="Times,serif" font-size="14.00" fill="white">Minor Trap</text>
</a>
</g>
</g>
<!-- Minor 80%&#45;&gt;Minor Trap -->
<g id="${uniqueid}_edge9" class="edge"><title>Minor 80%:se&#45;&gt;Minor Trap:w</title>
<path fill="none" stroke="black" d="M387.237,-42C425.525,-3.71206 453.482,-16.1818 504.516,-17.8322"/>
<polygon fill="black" stroke="black" points="504.624,-21.3344 514.68,-18 504.739,-14.3353 504.624,-21.3344"/>
<text text-anchor="middle" x="371.737" y="-30.8" font-family="Times,serif" font-size="14.00">true</text>
</g>
<!-- VolumeGroup -->
<g id="${uniqueid}_node11" class="node"><title>VolumeGroup</title>
<g id="a_${uniqueid}_node11"><a xlink:href="#dc7df87b-2664-4a0e-950c-660e7b06353b" xlink:title="com.watch4net.alerting.operation.FilteredEntryPoint">
<ellipse fill="#984ea3" stroke="black" cx="73.4435" cy="-153" rx="73.387" ry="18"/>
<text text-anchor="middle" x="73.4435" y="-149.3" font-family="Times,serif" font-size="14.00" fill="white">VolumeGroup</text>
</a>
</g>
</g>
<!-- VolumeGroup&#45;&gt;Case -->
<g id="${uniqueid}_edge10" class="edge"><title>VolumeGroup:e&#45;&gt;Case:w</title>
<path fill="none" stroke="black" d="M146.887,-153C158.887,-153 164.137,-153 172.762,-153"/>
<polygon fill="black" stroke="black" points="172.887,-156.5 182.887,-153 172.887,-149.5 172.887,-156.5"/>
</g>
</g>
</svg>
