<?xml version="1.0" encoding="UTF-8" standalone="no"?>
<!DOCTYPE svg PUBLIC "-//W3C//DTD SVG 1.1//EN"
 "http://www.w3.org/Graphics/SVG/1.1/DTD/svg11.dtd">
<!-- Generated by graphviz version 2.38.0 (20140413.2041)
 -->
<!-- Title: EMC VPLEX Alert Definitions/VPLEX&#45;Cluster/Connectivity Pages: 1 -->
<svg width="659pt" height="134pt"
 viewBox="0.00 0.00 658.94 133.74" xmlns="http://www.w3.org/2000/svg" xmlns:xlink="http://www.w3.org/1999/xlink">
<g id="${uniqueid}" class="graph" transform="scale(1 1) rotate(0) translate(4 129.74)">
<title>EMC VPLEX Alert Definitions/VPLEX&#45;Cluster/Connectivity</title>
<polygon fill="white" stroke="none" points="-4,4 -4,-129.74 654.942,-129.74 654.942,4 -4,4"/>
<!-- Alert Severity -->
<g id="${uniqueid}_node1" class="node"><title>Alert Severity</title>
<g id="a_${uniqueid}_node1"><a xlink:href="#406371142119315-80936058205932" xlink:title="com.watch4net.alerting.operation.CaseOperation">
<polygon fill="#377eb8" stroke="black" points="311.806,-80.8701 195.806,-80.8701 195.806,-44.8701 311.806,-44.8701 311.806,-80.8701"/>
<text text-anchor="middle" x="253.806" y="-59.1701" font-family="Times,serif" font-size="14.00" fill="white">Alert Severity</text>
</a>
</g>
</g>
<!-- warn -->
<g id="${uniqueid}_node4" class="node"><title>warn</title>
<g id="a_${uniqueid}_node4"><a xlink:href="#406371142130101-80936058295397" xlink:title="com.watch4net.alerting.operation.comparator.ConstantComparatorOperation">
<polygon fill="#ff7f00" stroke="black" points="396.521,-80.8701 347.59,-62.8701 396.521,-44.8701 445.453,-62.8701 396.521,-80.8701"/>
<text text-anchor="middle" x="396.521" y="-59.1701" font-family="Times,serif" font-size="14.00" fill="white">warn</text>
</a>
</g>
</g>
<!-- Alert Severity&#45;&gt;warn -->
<g id="${uniqueid}_edge1" class="edge"><title>Alert Severity:e&#45;&gt;warn:w</title>
<path fill="none" stroke="black" d="M311.806,-62.8701C323.806,-62.8701 329.056,-62.8701 337.681,-62.8701"/>
<polygon fill="black" stroke="black" points="337.806,-66.3702 347.806,-62.8701 337.806,-59.3702 337.806,-66.3702"/>
</g>
<!-- VPLEX&#45;
Connectivity&#45;
Filter -->
<g id="${uniqueid}_node2" class="node"><title>VPLEX&#45;
Connectivity&#45;
Filter</title>
<g id="a_${uniqueid}_node2"><a xlink:href="#406371142076118-80936057360781" xlink:title="com.watch4net.alerting.operation.FilteredEntryPoint">
<ellipse fill="#984ea3" stroke="black" cx="79.9031" cy="-62.8701" rx="79.8063" ry="37.4533"/>
<text text-anchor="middle" x="79.9031" y="-74.1701" font-family="Times,serif" font-size="14.00" fill="white">VPLEX&#45;</text>
<text text-anchor="middle" x="79.9031" y="-59.1701" font-family="Times,serif" font-size="14.00" fill="white">Connectivity&#45;</text>
<text text-anchor="middle" x="79.9031" y="-44.1701" font-family="Times,serif" font-size="14.00" fill="white">Filter</text>
</a>
</g>
</g>
<!-- VPLEX&#45;
Connectivity&#45;
Filter&#45;&gt;Alert Severity -->
<g id="${uniqueid}_edge2" class="edge"><title>VPLEX&#45;
Connectivity&#45;
Filter:e&#45;&gt;Alert Severity:w</title>
<path fill="none" stroke="black" d="M159.806,-62.8701C171.806,-62.8701 177.056,-62.8701 185.681,-62.8701"/>
<polygon fill="black" stroke="black" points="185.806,-66.3702 195.806,-62.8701 185.806,-59.3702 185.806,-66.3702"/>
</g>
<!-- connectivity&#45;
warning&#45;trap -->
<g id="${uniqueid}_node3" class="node"><title>connectivity&#45;
warning&#45;trap</title>
<g id="a_${uniqueid}_node3"><a xlink:href="#406371142149618-80936070830114" xlink:title="com.watch4net.alerting.action.SNMPTrapAction">
<ellipse fill="#4daf4a" stroke="black" cx="566.09" cy="-26.8701" rx="77.5641" ry="26.7407"/>
<text text-anchor="middle" x="566.09" y="-30.6701" font-family="Times,serif" font-size="14.00" fill="white">connectivity&#45;</text>
<text text-anchor="middle" x="566.09" y="-15.6701" font-family="Times,serif" font-size="14.00" fill="white">warning&#45;trap</text>
</a>
</g>
</g>
<!-- warn&#45;&gt;connectivity&#45;
warning&#45;trap -->
<g id="${uniqueid}_edge4" class="edge"><title>warn:se&#45;&gt;connectivity&#45;
warning&#45;trap:w</title>
<path fill="none" stroke="black" d="M410.521,-49.8701C433.095,-27.2966 448.23,-26.7195 476.84,-26.8351"/>
<polygon fill="black" stroke="black" points="477.078,-30.3358 487.09,-26.8701 477.102,-23.3358 477.078,-30.3358"/>
<text text-anchor="middle" x="395.021" y="-38.6701" font-family="Times,serif" font-size="14.00">true</text>
</g>
<!-- warning&#45;clear&#45;
trap -->
<g id="${uniqueid}_node5" class="node"><title>warning&#45;clear&#45;
trap</title>
<g id="a_${uniqueid}_node5"><a xlink:href="#406371142165832-80936070888626" xlink:title="com.watch4net.alerting.action.SNMPTrapAction">
<ellipse fill="#4daf4a" stroke="black" cx="566.09" cy="-98.8701" rx="84.7059" ry="26.7407"/>
<text text-anchor="middle" x="566.09" y="-102.67" font-family="Times,serif" font-size="14.00" fill="white">warning&#45;clear&#45;</text>
<text text-anchor="middle" x="566.09" y="-87.6701" font-family="Times,serif" font-size="14.00" fill="white">trap</text>
</a>
</g>
</g>
<!-- warn&#45;&gt;warning&#45;clear&#45;
trap -->
<g id="${uniqueid}_edge3" class="edge"><title>warn:ne&#45;&gt;warning&#45;clear&#45;
trap:w</title>
<path fill="none" stroke="black" d="M408.521,-75.8701C410.124,-77.4725 407.958,-79.2292 409.521,-80.8701 429.709,-102.061 444.756,-99.7835 471.022,-99.0317"/>
<polygon fill="black" stroke="black" points="471.293,-102.528 481.237,-98.8701 471.183,-95.5288 471.293,-102.528"/>
<text text-anchor="middle" x="391.521" y="-79.6701" font-family="Times,serif" font-size="14.00">false</text>
</g>
</g>
</svg>
