<?xml version="1.0" encoding="UTF-8" standalone="no"?>
<!DOCTYPE svg PUBLIC "-//W3C//DTD SVG 1.1//EN"
 "http://www.w3.org/Graphics/SVG/1.1/DTD/svg11.dtd">
<!-- Generated by graphviz version 2.38.0 (20140413.2041)
 -->
<!-- Title: Physical Hosts Alert Definitions/Volume Group Free Space Pages: 1 -->
<svg width="869pt" height="314pt"
 viewBox="0.00 0.00 868.83 314.00" xmlns="http://www.w3.org/2000/svg" xmlns:xlink="http://www.w3.org/1999/xlink">
<g id="${uniqueid}" class="graph" transform="scale(1 1) rotate(0) translate(4 310)">
<title>Physical Hosts Alert Definitions/Volume Group Free Space</title>
<polygon fill="white" stroke="none" points="-4,4 -4,-310 864.833,-310 864.833,4 -4,4"/>
<!-- Case -->
<g id="${uniqueid}_node1" class="node"><title>Case</title>
<g id="a_${uniqueid}_node1"><a xlink:href="#1416342417687" xlink:title="com.watch4net.alerting.operation.CaseOperation">
<polygon fill="#377eb8" stroke="black" points="421.887,-171 367.887,-171 367.887,-135 421.887,-135 421.887,-171"/>
<text text-anchor="middle" x="394.887" y="-149.3" font-family="Times,serif" font-size="14.00" fill="white">Case</text>
</a>
</g>
</g>
<!-- Critical 25MB -->
<g id="${uniqueid}_node6" class="node"><title>Critical 25MB</title>
<g id="a_${uniqueid}_node6"><a xlink:href="#acd44d8a-cb24-473e-8c13-17748b2e20b6" xlink:title="com.watch4net.alerting.operation.comparator.ConstantComparatorOperation">
<polygon fill="#ff7f00" stroke="black" points="567.267,-268 458.007,-250 567.267,-232 676.526,-250 567.267,-268"/>
<text text-anchor="middle" x="567.267" y="-246.3" font-family="Times,serif" font-size="14.00" fill="white">Critical 25MB</text>
</a>
</g>
</g>
<!-- Case&#45;&gt;Critical 25MB -->
<g id="${uniqueid}_edge1" class="edge"><title>Case:e&#45;&gt;Critical 25MB:w</title>
<path fill="none" stroke="black" d="M421.887,-153C463.74,-153 421.136,-233.353 447.814,-247.792"/>
<polygon fill="black" stroke="black" points="447.369,-251.277 457.887,-250 448.868,-244.44 447.369,-251.277"/>
</g>
<!-- Major 50MB -->
<g id="${uniqueid}_node8" class="node"><title>Major 50MB</title>
<g id="a_${uniqueid}_node8"><a xlink:href="#a9cf3419-b56b-4f9d-91a1-82b79310bcf6" xlink:title="com.watch4net.alerting.operation.comparator.ConstantComparatorOperation">
<polygon fill="#ff7f00" stroke="black" points="567.267,-171 469.067,-153 567.267,-135 665.467,-153 567.267,-171"/>
<text text-anchor="middle" x="567.267" y="-149.3" font-family="Times,serif" font-size="14.00" fill="white">Major 50MB</text>
</a>
</g>
</g>
<!-- Case&#45;&gt;Major 50MB -->
<g id="${uniqueid}_edge2" class="edge"><title>Case:e&#45;&gt;Major 50MB:w</title>
<path fill="none" stroke="black" d="M421.887,-153C438.635,-153 445.177,-153 458.098,-153"/>
<polygon fill="black" stroke="black" points="458.267,-156.5 468.267,-153 458.267,-149.5 458.267,-156.5"/>
</g>
<!-- Minor 200MB -->
<g id="${uniqueid}_node10" class="node"><title>Minor 200MB</title>
<g id="a_${uniqueid}_node10"><a xlink:href="#1ca6cde3-87a3-4d01-9c90-cf55f2cba5d4" xlink:title="com.watch4net.alerting.operation.comparator.ConstantComparatorOperation">
<polygon fill="#ff7f00" stroke="black" points="567.267,-74 459.684,-56 567.267,-38 674.849,-56 567.267,-74"/>
<text text-anchor="middle" x="567.267" y="-52.3" font-family="Times,serif" font-size="14.00" fill="white">Minor 200MB</text>
</a>
</g>
</g>
<!-- Case&#45;&gt;Minor 200MB -->
<g id="${uniqueid}_edge3" class="edge"><title>Case:e&#45;&gt;Minor 200MB:w</title>
<path fill="none" stroke="black" d="M421.887,-153C463.794,-153 421.412,-72.6467 448.173,-58.2082"/>
<polygon fill="black" stroke="black" points="449.246,-61.5564 458.267,-56 447.75,-54.7181 449.246,-61.5564"/>
</g>
<!-- Clear Critical -->
<g id="${uniqueid}_node2" class="node"><title>Clear Critical</title>
<g id="a_${uniqueid}_node2"><a xlink:href="#1416342362095" xlink:title="com.watch4net.alerting.action.SNMPTrapAction">
<ellipse fill="#4daf4a" stroke="black" cx="786.74" cy="-288" rx="74.187" ry="18"/>
<text text-anchor="middle" x="786.74" y="-284.3" font-family="Times,serif" font-size="14.00" fill="white">Clear Critical</text>
</a>
</g>
</g>
<!-- Clear Major -->
<g id="${uniqueid}_node3" class="node"><title>Clear Major</title>
<g id="a_${uniqueid}_node3"><a xlink:href="#1416342395303" xlink:title="com.watch4net.alerting.action.SNMPTrapAction">
<ellipse fill="#4daf4a" stroke="black" cx="786.74" cy="-180" rx="66.8882" ry="18"/>
<text text-anchor="middle" x="786.74" y="-176.3" font-family="Times,serif" font-size="14.00" fill="white">Clear Major</text>
</a>
</g>
</g>
<!-- Clear Minor -->
<g id="${uniqueid}_node4" class="node"><title>Clear Minor</title>
<g id="a_${uniqueid}_node4"><a xlink:href="#3a49c9b2-c6b1-43b2-a92b-8e7fa6118f2a" xlink:title="com.watch4net.alerting.action.SNMPTrapAction">
<ellipse fill="#4daf4a" stroke="black" cx="786.74" cy="-72" rx="67.6881" ry="18"/>
<text text-anchor="middle" x="786.74" y="-68.3" font-family="Times,serif" font-size="14.00" fill="white">Clear Minor</text>
</a>
</g>
</g>
<!-- Convert GB to MB -->
<g id="${uniqueid}_node5" class="node"><title>Convert GB to MB</title>
<g id="a_${uniqueid}_node5"><a xlink:href="#56037d1f-049c-42ca-93a0-4f2a1cea177f" xlink:title="com.watch4net.alerting.operation.arithmetic.ConstantArithmeticOperation">
<polygon fill="#377eb8" stroke="black" points="331.887,-171 182.887,-171 182.887,-135 331.887,-135 331.887,-171"/>
<text text-anchor="middle" x="257.387" y="-149.3" font-family="Times,serif" font-size="14.00" fill="white">Convert GB to MB</text>
</a>
</g>
</g>
<!-- Convert GB to MB&#45;&gt;Case -->
<g id="${uniqueid}_edge4" class="edge"><title>Convert GB to MB:e&#45;&gt;Case:w</title>
<path fill="none" stroke="black" d="M331.887,-153C343.887,-153 349.137,-153 357.762,-153"/>
<polygon fill="black" stroke="black" points="357.887,-156.5 367.887,-153 357.887,-149.5 357.887,-156.5"/>
</g>
<!-- Critical 25MB&#45;&gt;Clear Critical -->
<g id="${uniqueid}_edge5" class="edge"><title>Critical 25MB:ne&#45;&gt;Clear Critical:w</title>
<path fill="none" stroke="black" d="M582.267,-266C582.969,-266.703 582.464,-267.414 583.267,-268 627.427,-300.215 651.449,-289.553 702.439,-288.143"/>
<polygon fill="black" stroke="black" points="702.697,-291.64 712.646,-288 702.598,-284.641 702.697,-291.64"/>
<text text-anchor="middle" x="565.267" y="-269.8" font-family="Times,serif" font-size="14.00">false</text>
</g>
<!-- Critical Trap -->
<g id="${uniqueid}_node7" class="node"><title>Critical Trap</title>
<g id="a_${uniqueid}_node7"><a xlink:href="#eb34edf8-a2a0-4bdd-8451-e45727929862" xlink:title="com.watch4net.alerting.action.SNMPTrapAction">
<ellipse fill="#4daf4a" stroke="black" cx="786.74" cy="-234" rx="70.3881" ry="18"/>
<text text-anchor="middle" x="786.74" y="-230.3" font-family="Times,serif" font-size="14.00" fill="white">Critical Trap</text>
</a>
</g>
</g>
<!-- Critical 25MB&#45;&gt;Critical Trap -->
<g id="${uniqueid}_edge6" class="edge"><title>Critical 25MB:se&#45;&gt;Critical Trap:w</title>
<path fill="none" stroke="black" d="M584.267,-234C623.164,-195.103 653.557,-229.442 705.736,-233.599"/>
<polygon fill="black" stroke="black" points="705.608,-237.097 715.74,-234 705.888,-230.103 705.608,-237.097"/>
<text text-anchor="middle" x="568.767" y="-222.8" font-family="Times,serif" font-size="14.00">true</text>
</g>
<!-- Major 50MB&#45;&gt;Clear Major -->
<g id="${uniqueid}_edge7" class="edge"><title>Major 50MB:ne&#45;&gt;Clear Major:w</title>
<path fill="none" stroke="black" d="M581.267,-168C582.26,-168.994 581.154,-170.141 582.267,-171 627.657,-206.043 654.764,-182.979 708.721,-180.254"/>
<polygon fill="black" stroke="black" points="708.832,-183.752 718.74,-180 708.654,-176.755 708.832,-183.752"/>
<text text-anchor="middle" x="564.267" y="-171.8" font-family="Times,serif" font-size="14.00">false</text>
</g>
<!-- Major Trap -->
<g id="${uniqueid}_node9" class="node"><title>Major Trap</title>
<g id="a_${uniqueid}_node9"><a xlink:href="#ed0c8420-f2c6-4efe-855b-b44a46aa00b1" xlink:title="com.watch4net.alerting.action.SNMPTrapAction">
<ellipse fill="#4daf4a" stroke="black" cx="786.74" cy="-126" rx="63.0888" ry="18"/>
<text text-anchor="middle" x="786.74" y="-122.3" font-family="Times,serif" font-size="14.00" fill="white">Major Trap</text>
</a>
</g>
</g>
<!-- Major 50MB&#45;&gt;Major Trap -->
<g id="${uniqueid}_edge8" class="edge"><title>Major 50MB:se&#45;&gt;Major Trap:w</title>
<path fill="none" stroke="black" d="M583.267,-138C624.769,-96.4977 656.72,-122.619 712.439,-125.712"/>
<polygon fill="black" stroke="black" points="712.646,-129.219 722.74,-126 712.842,-122.221 712.646,-129.219"/>
<text text-anchor="middle" x="567.767" y="-126.8" font-family="Times,serif" font-size="14.00">true</text>
</g>
<!-- Minor 200MB&#45;&gt;Clear Minor -->
<g id="${uniqueid}_edge9" class="edge"><title>Minor 200MB:ne&#45;&gt;Clear Minor:w</title>
<path fill="none" stroke="black" d="M582.267,-72C582.969,-72.7027 582.421,-73.4775 583.267,-74 617.875,-95.3894 634.134,-74.9469 674.808,-74 690.025,-73.6457 696.123,-72.5861 707.637,-72.1702"/>
<polygon fill="black" stroke="black" points="707.8,-75.668 717.74,-72 707.682,-68.669 707.8,-75.668"/>
<text text-anchor="middle" x="565.267" y="-75.8" font-family="Times,serif" font-size="14.00">false</text>
</g>
<!-- Minor Trap -->
<g id="${uniqueid}_node11" class="node"><title>Minor Trap</title>
<g id="a_${uniqueid}_node11"><a xlink:href="#067c6397-2525-48cd-a90b-b72eddf1a59d" xlink:title="com.watch4net.alerting.action.SNMPTrapAction">
<ellipse fill="#4daf4a" stroke="black" cx="786.74" cy="-18" rx="63.8893" ry="18"/>
<text text-anchor="middle" x="786.74" y="-14.3" font-family="Times,serif" font-size="14.00" fill="white">Minor Trap</text>
</a>
</g>
</g>
<!-- Minor 200MB&#45;&gt;Minor Trap -->
<g id="${uniqueid}_edge10" class="edge"><title>Minor 200MB:se&#45;&gt;Minor Trap:w</title>
<path fill="none" stroke="black" d="M584.267,-40C625.542,1.27515 656.218,-15.7459 711.507,-17.8065"/>
<polygon fill="black" stroke="black" points="711.675,-21.3102 721.74,-18 711.808,-14.3115 711.675,-21.3102"/>
<text text-anchor="middle" x="568.767" y="-28.8" font-family="Times,serif" font-size="14.00">true</text>
</g>
<!-- VolumeGroup -->
<g id="${uniqueid}_node12" class="node"><title>VolumeGroup</title>
<g id="a_${uniqueid}_node12"><a xlink:href="#4ec57b37-3c1d-4505-abed-a03f14f70c52" xlink:title="com.watch4net.alerting.operation.FilteredEntryPoint">
<ellipse fill="#984ea3" stroke="black" cx="73.4435" cy="-153" rx="73.387" ry="18"/>
<text text-anchor="middle" x="73.4435" y="-149.3" font-family="Times,serif" font-size="14.00" fill="white">VolumeGroup</text>
</a>
</g>
</g>
<!-- VolumeGroup&#45;&gt;Convert GB to MB -->
<g id="${uniqueid}_edge11" class="edge"><title>VolumeGroup:e&#45;&gt;Convert GB to MB:w</title>
<path fill="none" stroke="black" d="M146.887,-153C158.887,-153 164.137,-153 172.762,-153"/>
<polygon fill="black" stroke="black" points="172.887,-156.5 182.887,-153 172.887,-149.5 172.887,-156.5"/>
</g>
</g>
</svg>
