<?xml version="1.0" encoding="UTF-8" standalone="no"?>
<!DOCTYPE svg PUBLIC "-//W3C//DTD SVG 1.1//EN"
 "http://www.w3.org/Graphics/SVG/1.1/DTD/svg11.dtd">
<!-- Generated by graphviz version 2.38.0 (20140413.2041)
 -->
<!-- Title: EMC VMAX Alert Definitions/VMAX&#45;Controller/High IO Rate Pages: 1 -->
<svg width="898pt" height="386pt"
 viewBox="0.00 0.00 897.87 385.87" xmlns="http://www.w3.org/2000/svg" xmlns:xlink="http://www.w3.org/1999/xlink">
<g id="${uniqueid}" class="graph" transform="scale(1 1) rotate(0) translate(4 381.87)">
<title>EMC VMAX Alert Definitions/VMAX&#45;Controller/High IO Rate</title>
<polygon fill="white" stroke="none" points="-4,4 -4,-381.87 893.867,-381.87 893.867,4 -4,4"/>
<!-- Cntrl_IO_Rate_
Case -->
<g id="${uniqueid}_node1" class="node"><title>Cntrl_IO_Rate_
Case</title>
<g id="a_${uniqueid}_node1"><a xlink:href="#1415745261123" xlink:title="com.watch4net.alerting.operation.CaseOperation">
<polygon fill="#377eb8" stroke="black" points="339.777,-225.87 212.777,-225.87 212.777,-187.87 339.777,-187.87 339.777,-225.87"/>
<text text-anchor="middle" x="276.277" y="-210.67" font-family="Times,serif" font-size="14.00" fill="white">Cntrl_IO_Rate_</text>
<text text-anchor="middle" x="276.277" y="-195.67" font-family="Times,serif" font-size="14.00" fill="white">Case</text>
</a>
</g>
</g>
<!-- IO_Rate_CRIT_Chk -->
<g id="${uniqueid}_node3" class="node"><title>IO_Rate_CRIT_Chk</title>
<g id="a_${uniqueid}_node3"><a xlink:href="#1415745298883" xlink:title="com.watch4net.alerting.operation.comparator.ConstantComparatorOperation">
<polygon fill="#ff7f00" stroke="black" points="520.777,-339.87 378.338,-321.87 520.777,-303.87 663.215,-321.87 520.777,-339.87"/>
<text text-anchor="middle" x="520.777" y="-318.17" font-family="Times,serif" font-size="14.00" fill="white">IO_Rate_CRIT_Chk</text>
</a>
</g>
</g>
<!-- Cntrl_IO_Rate_
Case&#45;&gt;IO_Rate_CRIT_Chk -->
<g id="${uniqueid}_edge1" class="edge"><title>Cntrl_IO_Rate_
Case:e&#45;&gt;IO_Rate_CRIT_Chk:w</title>
<path fill="none" stroke="black" d="M339.777,-206.87C389.483,-206.87 332.849,-305.433 366.771,-320.064"/>
<polygon fill="black" stroke="black" points="366.314,-323.538 376.777,-321.87 367.558,-316.649 366.314,-323.538"/>
</g>
<!-- IO_Rate_MAJOR_
Chk -->
<g id="${uniqueid}_node6" class="node"><title>IO_Rate_MAJOR_
Chk</title>
<g id="a_${uniqueid}_node6"><a xlink:href="#1415746517843" xlink:title="com.watch4net.alerting.operation.comparator.ConstantComparatorOperation">
<polygon fill="#ff7f00" stroke="black" points="520.777,-244.87 377.777,-206.87 520.777,-168.87 663.777,-206.87 520.777,-244.87"/>
<text text-anchor="middle" x="520.777" y="-210.67" font-family="Times,serif" font-size="14.00" fill="white">IO_Rate_MAJOR_</text>
<text text-anchor="middle" x="520.777" y="-195.67" font-family="Times,serif" font-size="14.00" fill="white">Chk</text>
</a>
</g>
</g>
<!-- Cntrl_IO_Rate_
Case&#45;&gt;IO_Rate_MAJOR_
Chk -->
<g id="${uniqueid}_edge2" class="edge"><title>Cntrl_IO_Rate_
Case:e&#45;&gt;IO_Rate_MAJOR_
Chk:w</title>
<path fill="none" stroke="black" d="M339.777,-206.87C352.239,-206.87 357.618,-206.87 366.649,-206.87"/>
<polygon fill="black" stroke="black" points="366.777,-210.37 376.777,-206.87 366.777,-203.37 366.777,-210.37"/>
</g>
<!-- IO_Rate_MINOR_
Chk -->
<g id="${uniqueid}_node7" class="node"><title>IO_Rate_MINOR_
Chk</title>
<g id="a_${uniqueid}_node7"><a xlink:href="#1415746566252" xlink:title="com.watch4net.alerting.operation.comparator.ConstantComparatorOperation">
<polygon fill="#ff7f00" stroke="black" points="520.777,-106.87 375.777,-68.8701 520.777,-30.8701 665.777,-68.8701 520.777,-106.87"/>
<text text-anchor="middle" x="520.777" y="-72.6701" font-family="Times,serif" font-size="14.00" fill="white">IO_Rate_MINOR_</text>
<text text-anchor="middle" x="520.777" y="-57.6701" font-family="Times,serif" font-size="14.00" fill="white">Chk</text>
</a>
</g>
</g>
<!-- Cntrl_IO_Rate_
Case&#45;&gt;IO_Rate_MINOR_
Chk -->
<g id="${uniqueid}_edge3" class="edge"><title>Cntrl_IO_Rate_
Case:e&#45;&gt;IO_Rate_MINOR_
Chk:w</title>
<path fill="none" stroke="black" d="M339.777,-206.87C399.201,-206.87 323.135,-85.581 365.623,-70.4199"/>
<polygon fill="black" stroke="black" points="366.419,-73.839 375.777,-68.8701 365.363,-66.9191 366.419,-73.839"/>
</g>
<!-- High_IO_Rate_
Filter -->
<g id="${uniqueid}_node2" class="node"><title>High_IO_Rate_
Filter</title>
<g id="a_${uniqueid}_node2"><a xlink:href="#1415745208795" xlink:title="com.watch4net.alerting.operation.FilteredEntryPoint">
<ellipse fill="#984ea3" stroke="black" cx="88.3883" cy="-206.87" rx="88.2768" ry="26.7407"/>
<text text-anchor="middle" x="88.3883" y="-210.67" font-family="Times,serif" font-size="14.00" fill="white">High_IO_Rate_</text>
<text text-anchor="middle" x="88.3883" y="-195.67" font-family="Times,serif" font-size="14.00" fill="white">Filter</text>
</a>
</g>
</g>
<!-- High_IO_Rate_
Filter&#45;&gt;Cntrl_IO_Rate_
Case -->
<g id="${uniqueid}_edge4" class="edge"><title>High_IO_Rate_
Filter:e&#45;&gt;Cntrl_IO_Rate_
Case:w</title>
<path fill="none" stroke="black" d="M176.777,-206.87C188.777,-206.87 194.027,-206.87 202.652,-206.87"/>
<polygon fill="black" stroke="black" points="202.777,-210.37 212.777,-206.87 202.777,-203.37 202.777,-210.37"/>
</g>
<!-- IO_Rate_Crit_Clr -->
<g id="${uniqueid}_node4" class="node"><title>IO_Rate_Crit_Clr</title>
<g id="a_${uniqueid}_node4"><a xlink:href="#1415746729113" xlink:title="com.watch4net.alerting.action.SNMPTrapAction">
<ellipse fill="#4daf4a" stroke="black" cx="795.822" cy="-359.87" rx="90.9839" ry="18"/>
<text text-anchor="middle" x="795.822" y="-356.17" font-family="Times,serif" font-size="14.00" fill="white">IO_Rate_Crit_Clr</text>
</a>
</g>
</g>
<!-- IO_Rate_CRIT_Chk&#45;&gt;IO_Rate_Crit_Clr -->
<g id="${uniqueid}_edge5" class="edge"><title>IO_Rate_CRIT_Chk:ne&#45;&gt;IO_Rate_Crit_Clr:w</title>
<path fill="none" stroke="black" d="M535.777,-337.87C536.479,-338.573 535.964,-339.298 536.777,-339.87 595.062,-380.881 626.066,-361.884 693.587,-360.013"/>
<polygon fill="black" stroke="black" points="693.872,-363.509 703.822,-359.87 693.774,-356.51 693.872,-363.509"/>
<text text-anchor="middle" x="518.777" y="-341.67" font-family="Times,serif" font-size="14.00">false</text>
</g>
<!-- IO_Rate_Crit_Set -->
<g id="${uniqueid}_node5" class="node"><title>IO_Rate_Crit_Set</title>
<g id="a_${uniqueid}_node5"><a xlink:href="#1415746680541" xlink:title="com.watch4net.alerting.action.SNMPTrapAction">
<ellipse fill="#4daf4a" stroke="black" cx="795.822" cy="-305.87" rx="91.784" ry="18"/>
<text text-anchor="middle" x="795.822" y="-302.17" font-family="Times,serif" font-size="14.00" fill="white">IO_Rate_Crit_Set</text>
</a>
</g>
</g>
<!-- IO_Rate_CRIT_Chk&#45;&gt;IO_Rate_Crit_Set -->
<g id="${uniqueid}_edge6" class="edge"><title>IO_Rate_CRIT_Chk:se&#45;&gt;IO_Rate_Crit_Set:w</title>
<path fill="none" stroke="black" d="M537.777,-305.87C587.214,-256.433 625.709,-301.235 692.723,-305.544"/>
<polygon fill="black" stroke="black" points="692.714,-309.046 702.822,-305.87 692.94,-302.049 692.714,-309.046"/>
<text text-anchor="middle" x="522.277" y="-294.67" font-family="Times,serif" font-size="14.00">true</text>
</g>
<!-- IO_Rate_Major_
Clr -->
<g id="${uniqueid}_node8" class="node"><title>IO_Rate_Major_
Clr</title>
<g id="a_${uniqueid}_node8"><a xlink:href="#1415746894980" xlink:title="com.watch4net.alerting.action.SNMPTrapAction">
<ellipse fill="#4daf4a" stroke="black" cx="795.822" cy="-242.87" rx="93.1765" ry="26.7407"/>
<text text-anchor="middle" x="795.822" y="-246.67" font-family="Times,serif" font-size="14.00" fill="white">IO_Rate_Major_</text>
<text text-anchor="middle" x="795.822" y="-231.67" font-family="Times,serif" font-size="14.00" fill="white">Clr</text>
</a>
</g>
</g>
<!-- IO_Rate_MAJOR_
Chk&#45;&gt;IO_Rate_Major_
Clr -->
<g id="${uniqueid}_edge7" class="edge"><title>IO_Rate_MAJOR_
Chk:ne&#45;&gt;IO_Rate_Major_
Clr:w</title>
<path fill="none" stroke="black" d="M549.777,-236.87C552.31,-239.404 548.09,-242.499 550.777,-244.87 588.427,-278.107 613.572,-246.19 663.777,-244.87 676.721,-244.53 682.205,-243.538 691.656,-243.092"/>
<polygon fill="black" stroke="black" points="691.856,-246.589 701.777,-242.87 691.702,-239.59 691.856,-246.589"/>
<text text-anchor="middle" x="532.777" y="-240.67" font-family="Times,serif" font-size="14.00">false</text>
</g>
<!-- IO_Rate_Major_
Set -->
<g id="${uniqueid}_node9" class="node"><title>IO_Rate_Major_
Set</title>
<g id="a_${uniqueid}_node9"><a xlink:href="#1415746844783" xlink:title="com.watch4net.alerting.action.SNMPTrapAction">
<ellipse fill="#4daf4a" stroke="black" cx="795.822" cy="-170.87" rx="93.1765" ry="26.7407"/>
<text text-anchor="middle" x="795.822" y="-174.67" font-family="Times,serif" font-size="14.00" fill="white">IO_Rate_Major_</text>
<text text-anchor="middle" x="795.822" y="-159.67" font-family="Times,serif" font-size="14.00" fill="white">Set</text>
</a>
</g>
</g>
<!-- IO_Rate_MAJOR_
Chk&#45;&gt;IO_Rate_Major_
Set -->
<g id="${uniqueid}_edge8" class="edge"><title>IO_Rate_MAJOR_
Chk:se&#45;&gt;IO_Rate_Major_
Set:w</title>
<path fill="none" stroke="black" d="M551.777,-176.87C596.467,-132.18 631.218,-166.773 691.471,-170.546"/>
<polygon fill="black" stroke="black" points="691.671,-174.053 701.777,-170.87 691.892,-167.057 691.671,-174.053"/>
<text text-anchor="middle" x="536.277" y="-165.67" font-family="Times,serif" font-size="14.00">true</text>
</g>
<!-- IO_Rate_Minor_
Clr -->
<g id="${uniqueid}_node10" class="node"><title>IO_Rate_Minor_
Clr</title>
<g id="a_${uniqueid}_node10"><a xlink:href="#1415747275554" xlink:title="com.watch4net.alerting.action.SNMPTrapAction">
<ellipse fill="#4daf4a" stroke="black" cx="795.822" cy="-98.8701" rx="94.0904" ry="26.7407"/>
<text text-anchor="middle" x="795.822" y="-102.67" font-family="Times,serif" font-size="14.00" fill="white">IO_Rate_Minor_</text>
<text text-anchor="middle" x="795.822" y="-87.6701" font-family="Times,serif" font-size="14.00" fill="white">Clr</text>
</a>
</g>
</g>
<!-- IO_Rate_MINOR_
Chk&#45;&gt;IO_Rate_Minor_
Clr -->
<g id="${uniqueid}_edge9" class="edge"><title>IO_Rate_MINOR_
Chk:ne&#45;&gt;IO_Rate_Minor_
Clr:w</title>
<path fill="none" stroke="black" d="M549.777,-98.8701C552.31,-101.404 548.09,-104.499 550.777,-106.87 589.094,-140.696 614.971,-112.447 665.777,-106.87 678.123,-105.515 683.019,-101.619 691.798,-99.812"/>
<polygon fill="black" stroke="black" points="692.15,-103.294 701.777,-98.8701 691.492,-96.3255 692.15,-103.294"/>
<text text-anchor="middle" x="532.777" y="-102.67" font-family="Times,serif" font-size="14.00">false</text>
</g>
<!-- IO_Rate_Minor_
Set -->
<g id="${uniqueid}_node11" class="node"><title>IO_Rate_Minor_
Set</title>
<g id="a_${uniqueid}_node11"><a xlink:href="#1415747216770" xlink:title="com.watch4net.alerting.action.SNMPTrapAction">
<ellipse fill="#4daf4a" stroke="black" cx="795.822" cy="-26.8701" rx="94.0904" ry="26.7407"/>
<text text-anchor="middle" x="795.822" y="-30.6701" font-family="Times,serif" font-size="14.00" fill="white">IO_Rate_Minor_</text>
<text text-anchor="middle" x="795.822" y="-15.6701" font-family="Times,serif" font-size="14.00" fill="white">Set</text>
</a>
</g>
</g>
<!-- IO_Rate_MINOR_
Chk&#45;&gt;IO_Rate_Minor_
Set -->
<g id="${uniqueid}_edge10" class="edge"><title>IO_Rate_MINOR_
Chk:se&#45;&gt;IO_Rate_Minor_
Set:w</title>
<path fill="none" stroke="black" d="M551.777,-38.8701C596.574,5.92714 631.086,-23.3776 691.449,-26.5929"/>
<polygon fill="black" stroke="black" points="691.686,-30.1005 701.777,-26.8701 691.874,-23.103 691.686,-30.1005"/>
<text text-anchor="middle" x="536.277" y="-27.6701" font-family="Times,serif" font-size="14.00">true</text>
</g>
</g>
</svg>
