<?xml version="1.0" encoding="UTF-8" standalone="no"?>
<!DOCTYPE svg PUBLIC "-//W3C//DTD SVG 1.1//EN"
 "http://www.w3.org/Graphics/SVG/1.1/DTD/svg11.dtd">
<!-- Generated by graphviz version 2.38.0 (20140413.2041)
 -->
<!-- Title: Examples/Alert on APG Report Pages: 1 -->
<svg width="606pt" height="278pt"
 viewBox="0.00 0.00 606.45 277.74" xmlns="http://www.w3.org/2000/svg" xmlns:xlink="http://www.w3.org/1999/xlink">
<g id="${uniqueid}" class="graph" transform="scale(1 1) rotate(0) translate(4 273.74)">
<title>Examples/Alert on APG Report</title>
<polygon fill="white" stroke="none" points="-4,4 -4,-273.74 602.45,-273.74 602.45,4 -4,4"/>
<!-- Baseline max
comparator -->
<g id="${uniqueid}_node1" class="node"><title>Baseline max
comparator</title>
<g id="a_${uniqueid}_node1"><a xlink:href="#1317732685830" xlink:title="com.watch4net.alerting.operation.comparator.PropertyComparatorOperation">
<polygon fill="#ff7f00" stroke="black" points="294.887,-237.87 182.887,-199.87 294.887,-161.87 406.887,-199.87 294.887,-237.87"/>
<text text-anchor="middle" x="294.887" y="-203.67" font-family="Times,serif" font-size="14.00" fill="white">Baseline max</text>
<text text-anchor="middle" x="294.887" y="-188.67" font-family="Times,serif" font-size="14.00" fill="white">comparator</text>
</a>
</g>
</g>
<!-- Clear over
baseline max -->
<g id="${uniqueid}_node3" class="node"><title>Clear over
baseline max</title>
<g id="a_${uniqueid}_node3"><a xlink:href="#1317732784761" xlink:title="com.watch4net.alerting.action.LogAction">
<ellipse fill="#4daf4a" stroke="black" cx="520.669" cy="-242.87" rx="77.5641" ry="26.7407"/>
<text text-anchor="middle" x="520.669" y="-246.67" font-family="Times,serif" font-size="14.00" fill="white">Clear over</text>
<text text-anchor="middle" x="520.669" y="-231.67" font-family="Times,serif" font-size="14.00" fill="white">baseline max</text>
</a>
</g>
</g>
<!-- Baseline max
comparator&#45;&gt;Clear over
baseline max -->
<g id="${uniqueid}_edge1" class="edge"><title>Baseline max
comparator:ne&#45;&gt;Clear over
baseline max:w</title>
<path fill="none" stroke="black" d="M322.887,-228.87C325.733,-231.716 320.945,-235.124 323.887,-237.87 360.011,-271.595 386.266,-246.707 432.669,-243.253"/>
<polygon fill="black" stroke="black" points="433.025,-246.742 442.887,-242.87 432.763,-239.747 433.025,-246.742"/>
<text text-anchor="middle" x="305.887" y="-232.67" font-family="Times,serif" font-size="14.00">false</text>
</g>
<!-- Fire over
baseline max -->
<g id="${uniqueid}_node5" class="node"><title>Fire over
baseline max</title>
<g id="a_${uniqueid}_node5"><a xlink:href="#1317732770280" xlink:title="com.watch4net.alerting.action.LogAction">
<ellipse fill="#4daf4a" stroke="black" cx="520.669" cy="-170.87" rx="77.5641" ry="26.7407"/>
<text text-anchor="middle" x="520.669" y="-174.67" font-family="Times,serif" font-size="14.00" fill="white">Fire over</text>
<text text-anchor="middle" x="520.669" y="-159.67" font-family="Times,serif" font-size="14.00" fill="white">baseline max</text>
</a>
</g>
</g>
<!-- Baseline max
comparator&#45;&gt;Fire over
baseline max -->
<g id="${uniqueid}_edge2" class="edge"><title>Baseline max
comparator:se&#45;&gt;Fire over
baseline max:w</title>
<path fill="none" stroke="black" d="M324.887,-170.87C359.508,-136.249 386.623,-166.272 432.747,-170.412"/>
<polygon fill="black" stroke="black" points="432.739,-173.915 442.887,-170.87 433.055,-166.922 432.739,-173.915"/>
<text text-anchor="middle" x="309.387" y="-159.67" font-family="Times,serif" font-size="14.00">true</text>
</g>
<!-- Baseline min
comparator -->
<g id="${uniqueid}_node2" class="node"><title>Baseline min
comparator</title>
<g id="a_${uniqueid}_node2"><a xlink:href="#1317732696389" xlink:title="com.watch4net.alerting.operation.comparator.PropertyComparatorOperation">
<polygon fill="#ff7f00" stroke="black" points="294.887,-108.87 185.887,-70.8701 294.887,-32.8701 403.887,-70.8701 294.887,-108.87"/>
<text text-anchor="middle" x="294.887" y="-74.6701" font-family="Times,serif" font-size="14.00" fill="white">Baseline min</text>
<text text-anchor="middle" x="294.887" y="-59.6701" font-family="Times,serif" font-size="14.00" fill="white">comparator</text>
</a>
</g>
</g>
<!-- Clear under
baseline min -->
<g id="${uniqueid}_node4" class="node"><title>Clear under
baseline min</title>
<g id="a_${uniqueid}_node4"><a xlink:href="#1317732874049" xlink:title="com.watch4net.alerting.action.LogAction">
<ellipse fill="#4daf4a" stroke="black" cx="520.669" cy="-98.8701" rx="75.8212" ry="26.7407"/>
<text text-anchor="middle" x="520.669" y="-102.67" font-family="Times,serif" font-size="14.00" fill="white">Clear under</text>
<text text-anchor="middle" x="520.669" y="-87.6701" font-family="Times,serif" font-size="14.00" fill="white">baseline min</text>
</a>
</g>
</g>
<!-- Baseline min
comparator&#45;&gt;Clear under
baseline min -->
<g id="${uniqueid}_edge3" class="edge"><title>Baseline min
comparator:ne&#45;&gt;Clear under
baseline min:w</title>
<path fill="none" stroke="black" d="M321.887,-98.8701C323.466,-100.449 321.231,-107.371 322.887,-108.87 349.579,-133.026 368.16,-113.292 403.887,-108.87 418.022,-107.121 423.225,-102.001 433.518,-99.8451"/>
<polygon fill="black" stroke="black" points="434.049,-103.31 443.669,-98.8701 433.38,-96.3423 434.049,-103.31"/>
<text text-anchor="middle" x="304.887" y="-102.67" font-family="Times,serif" font-size="14.00">false</text>
</g>
<!-- Fire under
baseline min -->
<g id="${uniqueid}_node6" class="node"><title>Fire under
baseline min</title>
<g id="a_${uniqueid}_node6"><a xlink:href="#1317732864885" xlink:title="com.watch4net.alerting.action.LogAction">
<ellipse fill="#4daf4a" stroke="black" cx="520.669" cy="-26.8701" rx="75.8212" ry="26.7407"/>
<text text-anchor="middle" x="520.669" y="-30.6701" font-family="Times,serif" font-size="14.00" fill="white">Fire under</text>
<text text-anchor="middle" x="520.669" y="-15.6701" font-family="Times,serif" font-size="14.00" fill="white">baseline min</text>
</a>
</g>
</g>
<!-- Baseline min
comparator&#45;&gt;Fire under
baseline min -->
<g id="${uniqueid}_edge4" class="edge"><title>Baseline min
comparator:se&#45;&gt;Fire under
baseline min:w</title>
<path fill="none" stroke="black" d="M323.887,-42.8701C359.417,-7.33975 386.297,-24.286 433.593,-26.6181"/>
<polygon fill="black" stroke="black" points="433.584,-30.1189 443.669,-26.8701 433.759,-23.1211 433.584,-30.1189"/>
<text text-anchor="middle" x="308.387" y="-31.6701" font-family="Times,serif" font-size="14.00">true</text>
</g>
<!-- Report Name -->
<g id="${uniqueid}_node7" class="node"><title>Report Name</title>
<g id="a_${uniqueid}_node7"><a xlink:href="#1317732160400" xlink:title="com.watch4net.alerting.operation.FilteredEntryPoint">
<ellipse fill="#984ea3" stroke="black" cx="73.4435" cy="-134.87" rx="73.387" ry="18"/>
<text text-anchor="middle" x="73.4435" y="-131.17" font-family="Times,serif" font-size="14.00" fill="white">Report Name</text>
</a>
</g>
</g>
<!-- Report Name&#45;&gt;Baseline max
comparator -->
<g id="${uniqueid}_edge5" class="edge"><title>Report Name:e&#45;&gt;Baseline max
comparator:w</title>
<path fill="none" stroke="black" d="M146.887,-134.87C175.783,-134.87 156.39,-184.636 173.213,-197.077"/>
<polygon fill="black" stroke="black" points="172.309,-200.459 182.887,-199.87 174.25,-193.733 172.309,-200.459"/>
</g>
<!-- Report Name&#45;&gt;Baseline min
comparator -->
<g id="${uniqueid}_edge6" class="edge"><title>Report Name:e&#45;&gt;Baseline min
comparator:w</title>
<path fill="none" stroke="black" d="M146.887,-134.87C175.832,-134.87 157.89,-85.8701 175.113,-73.6201"/>
<polygon fill="black" stroke="black" points="176.209,-76.9478 184.887,-70.8701 174.313,-70.2094 176.209,-76.9478"/>
</g>
</g>
</svg>
