<?xml version="1.0" encoding="UTF-8" standalone="no"?>
<!DOCTYPE svg PUBLIC "-//W3C//DTD SVG 1.1//EN"
 "http://www.w3.org/Graphics/SVG/1.1/DTD/svg11.dtd">
<!-- Generated by graphviz version 2.38.0 (20140413.2041)
 -->
<!-- Title: EMC VNX Alert Definitions/VNXBlock&#45;StorageProcessor/Storage Processor Utilization Pages: 1 -->
<svg width="774pt" height="403pt"
 viewBox="0.00 0.00 774.12 403.48" xmlns="http://www.w3.org/2000/svg" xmlns:xlink="http://www.w3.org/1999/xlink">
<g id="${uniqueid}" class="graph" transform="scale(1 1) rotate(0) translate(4 399.477)">
<title>EMC VNX Alert Definitions/VNXBlock&#45;StorageProcessor/Storage Processor Utilization</title>
<polygon fill="white" stroke="none" points="-4,4 -4,-399.477 770.12,-399.477 770.12,4 -4,4"/>
<!-- SP Utilization -->
<g id="${uniqueid}_node1" class="node"><title>SP Utilization</title>
<g id="a_${uniqueid}_node1"><a xlink:href="#8847768075545" xlink:title="com.watch4net.alerting.operation.FilteredEntryPoint">
<ellipse fill="#984ea3" stroke="black" cx="79.293" cy="-179" rx="79.0865" ry="18"/>
<text text-anchor="middle" x="79.293" y="-175.3" font-family="Times,serif" font-size="14.00" fill="white">SP Utilization</text>
</a>
</g>
</g>
<!-- Utilization -->
<g id="${uniqueid}_node2" class="node"><title>Utilization</title>
<g id="a_${uniqueid}_node2"><a xlink:href="#1416943920617" xlink:title="com.watch4net.alerting.operation.CaseOperation">
<polygon fill="#377eb8" stroke="black" points="293.586,-197 194.586,-197 194.586,-161 293.586,-161 293.586,-197"/>
<text text-anchor="middle" x="244.086" y="-175.3" font-family="Times,serif" font-size="14.00" fill="white">Utilization</text>
</a>
</g>
</g>
<!-- SP Utilization&#45;&gt;Utilization -->
<g id="${uniqueid}_edge1" class="edge"><title>SP Utilization:e&#45;&gt;Utilization:w</title>
<path fill="none" stroke="black" d="M158.586,-179C170.586,-179 175.836,-179 184.461,-179"/>
<polygon fill="black" stroke="black" points="184.586,-182.5 194.586,-179 184.586,-175.5 184.586,-182.5"/>
</g>
<!-- Utilization
CRITICAL -->
<g id="${uniqueid}_node3" class="node"><title>Utilization
CRITICAL</title>
<g id="a_${uniqueid}_node3"><a xlink:href="#8847768291530" xlink:title="com.watch4net.alerting.operation.comparator.ConstantComparatorOperation">
<polygon fill="#ff7f00" stroke="black" points="443.586,-376 344.586,-338 443.586,-300 542.586,-338 443.586,-376"/>
<text text-anchor="middle" x="443.586" y="-341.8" font-family="Times,serif" font-size="14.00" fill="white">Utilization</text>
<text text-anchor="middle" x="443.586" y="-326.8" font-family="Times,serif" font-size="14.00" fill="white">CRITICAL</text>
</a>
</g>
</g>
<!-- Utilization&#45;&gt;Utilization
CRITICAL -->
<g id="${uniqueid}_edge2" class="edge"><title>Utilization:e&#45;&gt;Utilization
CRITICAL:w</title>
<path fill="none" stroke="black" d="M293.586,-179C363.903,-179 279.032,-322.262 333.588,-336.812"/>
<polygon fill="black" stroke="black" points="333.243,-340.295 343.586,-338 334.069,-333.344 333.243,-340.295"/>
</g>
<!-- Utilization
INFORMATIONAL -->
<g id="${uniqueid}_node6" class="node"><title>Utilization
INFORMATIONAL</title>
<g id="a_${uniqueid}_node6"><a xlink:href="#8847768423529" xlink:title="com.watch4net.alerting.operation.comparator.ConstantComparatorOperation">
<polygon fill="#ff7f00" stroke="black" points="443.586,-264 329.586,-226 443.586,-188 557.586,-226 443.586,-264"/>
<text text-anchor="middle" x="443.586" y="-229.8" font-family="Times,serif" font-size="14.00" fill="white">Utilization</text>
<text text-anchor="middle" x="443.586" y="-214.8" font-family="Times,serif" font-size="14.00" fill="white">INFORMATIONAL</text>
</a>
</g>
</g>
<!-- Utilization&#45;&gt;Utilization
INFORMATIONAL -->
<g id="${uniqueid}_edge3" class="edge"><title>Utilization:e&#45;&gt;Utilization
INFORMATIONAL:w</title>
<path fill="none" stroke="black" d="M293.586,-179C315.787,-179 307.42,-212.46 320.069,-222.916"/>
<polygon fill="black" stroke="black" points="318.994,-226.247 329.586,-226 321.152,-219.588 318.994,-226.247"/>
</g>
<!-- Utilization
MAJOR -->
<g id="${uniqueid}_node8" class="node"><title>Utilization
MAJOR</title>
<g id="a_${uniqueid}_node8"><a xlink:href="#8847768394683" xlink:title="com.watch4net.alerting.operation.comparator.ConstantComparatorOperation">
<polygon fill="#ff7f00" stroke="black" points="443.586,-170 344.586,-132 443.586,-94 542.586,-132 443.586,-170"/>
<text text-anchor="middle" x="443.586" y="-135.8" font-family="Times,serif" font-size="14.00" fill="white">Utilization</text>
<text text-anchor="middle" x="443.586" y="-120.8" font-family="Times,serif" font-size="14.00" fill="white">MAJOR</text>
</a>
</g>
</g>
<!-- Utilization&#45;&gt;Utilization
MAJOR -->
<g id="${uniqueid}_edge4" class="edge"><title>Utilization:e&#45;&gt;Utilization
MAJOR:w</title>
<path fill="none" stroke="black" d="M293.586,-179C320.034,-179 315.276,-143.655 333.436,-134.267"/>
<polygon fill="black" stroke="black" points="334.589,-137.596 343.586,-132 333.063,-130.764 334.589,-137.596"/>
</g>
<!-- Utilization
MINOR -->
<g id="${uniqueid}_node10" class="node"><title>Utilization
MINOR</title>
<g id="a_${uniqueid}_node10"><a xlink:href="#8847768411303" xlink:title="com.watch4net.alerting.operation.comparator.ConstantComparatorOperation">
<polygon fill="#ff7f00" stroke="black" points="443.586,-76 344.586,-38 443.586,-7.10543e-15 542.586,-38 443.586,-76"/>
<text text-anchor="middle" x="443.586" y="-41.8" font-family="Times,serif" font-size="14.00" fill="white">Utilization</text>
<text text-anchor="middle" x="443.586" y="-26.8" font-family="Times,serif" font-size="14.00" fill="white">MINOR</text>
</a>
</g>
</g>
<!-- Utilization&#45;&gt;Utilization
MINOR -->
<g id="${uniqueid}_edge5" class="edge"><title>Utilization:e&#45;&gt;Utilization
MINOR:w</title>
<path fill="none" stroke="black" d="M293.586,-179C356.18,-179 286.307,-54.0394 333.378,-39.3955"/>
<polygon fill="black" stroke="black" points="334.152,-42.8223 343.586,-38 333.204,-35.8868 334.152,-42.8223"/>
</g>
<!-- Utilization
CRITICAL alert
trap -->
<g id="${uniqueid}_node4" class="node"><title>Utilization
CRITICAL alert
trap</title>
<g id="a_${uniqueid}_node4"><a xlink:href="#8847768750186" xlink:title="com.watch4net.alerting.action.SNMPTrapAction">
<ellipse fill="#4daf4a" stroke="black" cx="679.853" cy="-358" rx="86.0347" ry="37.4533"/>
<text text-anchor="middle" x="679.853" y="-369.3" font-family="Times,serif" font-size="14.00" fill="white">Utilization</text>
<text text-anchor="middle" x="679.853" y="-354.3" font-family="Times,serif" font-size="14.00" fill="white">CRITICAL alert</text>
<text text-anchor="middle" x="679.853" y="-339.3" font-family="Times,serif" font-size="14.00" fill="white">trap</text>
</a>
</g>
</g>
<!-- Utilization
CRITICAL&#45;&gt;Utilization
CRITICAL alert
trap -->
<g id="${uniqueid}_edge6" class="edge"><title>Utilization
CRITICAL:e&#45;&gt;Utilization
CRITICAL alert
trap:w</title>
<path fill="none" stroke="black" d="M543.586,-338C563.593,-338 568.366,-351.976 583.374,-356.562"/>
<polygon fill="black" stroke="black" points="583.195,-360.071 593.586,-358 584.172,-353.139 583.195,-360.071"/>
<text text-anchor="middle" x="559.086" y="-326.8" font-family="Times,serif" font-size="14.00">true</text>
</g>
<!-- Utilization
Clear Alert -->
<g id="${uniqueid}_node5" class="node"><title>Utilization
Clear Alert</title>
<g id="a_${uniqueid}_node5"><a xlink:href="#8847768696243" xlink:title="com.watch4net.alerting.action.SNMPTrapAction">
<ellipse fill="#4daf4a" stroke="black" cx="679.853" cy="-276" rx="70.0071" ry="26.7407"/>
<text text-anchor="middle" x="679.853" y="-279.8" font-family="Times,serif" font-size="14.00" fill="white">Utilization</text>
<text text-anchor="middle" x="679.853" y="-264.8" font-family="Times,serif" font-size="14.00" fill="white">Clear Alert</text>
</a>
</g>
</g>
<!-- Utilization
INFORMATIONAL&#45;&gt;Utilization
Clear Alert -->
<g id="${uniqueid}_edge7" class="edge"><title>Utilization
INFORMATIONAL:ne&#45;&gt;Utilization
Clear Alert:w</title>
<path fill="none" stroke="black" d="M471.586,-255C474.432,-257.846 469.708,-261.187 472.586,-264 513.601,-304.09 544.395,-279.221 598.792,-276.275"/>
<polygon fill="black" stroke="black" points="598.952,-279.772 608.853,-276 598.761,-272.774 598.952,-279.772"/>
<text text-anchor="middle" x="452.586" y="-258.8" font-family="Times,serif" font-size="14.00">false</text>
</g>
<!-- Utilization
INFORMATIONAL
Alert -->
<g id="${uniqueid}_node7" class="node"><title>Utilization
INFORMATIONAL
Alert</title>
<g id="a_${uniqueid}_node7"><a xlink:href="#8847768493718" xlink:title="com.watch4net.alerting.action.SNMPTrapAction">
<ellipse fill="#4daf4a" stroke="black" cx="679.853" cy="-194" rx="80.7205" ry="37.4533"/>
<text text-anchor="middle" x="679.853" y="-205.3" font-family="Times,serif" font-size="14.00" fill="white">Utilization</text>
<text text-anchor="middle" x="679.853" y="-190.3" font-family="Times,serif" font-size="14.00" fill="white">INFORMATIONAL</text>
<text text-anchor="middle" x="679.853" y="-175.3" font-family="Times,serif" font-size="14.00" fill="white">Alert</text>
</a>
</g>
</g>
<!-- Utilization
INFORMATIONAL&#45;&gt;Utilization
INFORMATIONAL
Alert -->
<g id="${uniqueid}_edge8" class="edge"><title>Utilization
INFORMATIONAL:se&#45;&gt;Utilization
INFORMATIONAL
Alert:w</title>
<path fill="none" stroke="black" d="M473.586,-197C491.058,-179.528 554.605,-190.914 587.587,-193.51"/>
<polygon fill="black" stroke="black" points="587.697,-197.019 597.853,-194 588.031,-190.027 587.697,-197.019"/>
<text text-anchor="middle" x="458.086" y="-185.8" font-family="Times,serif" font-size="14.00">true</text>
</g>
<!-- Utilization
MAJOR Alert -->
<g id="${uniqueid}_node9" class="node"><title>Utilization
MAJOR Alert</title>
<g id="a_${uniqueid}_node9"><a xlink:href="#8847768734267" xlink:title="com.watch4net.alerting.action.SNMPTrapAction">
<ellipse fill="#4daf4a" stroke="black" cx="679.853" cy="-112" rx="70.0071" ry="26.7407"/>
<text text-anchor="middle" x="679.853" y="-115.8" font-family="Times,serif" font-size="14.00" fill="white">Utilization</text>
<text text-anchor="middle" x="679.853" y="-100.8" font-family="Times,serif" font-size="14.00" fill="white">MAJOR Alert</text>
</a>
</g>
</g>
<!-- Utilization
MAJOR&#45;&gt;Utilization
MAJOR Alert -->
<g id="${uniqueid}_edge9" class="edge"><title>Utilization
MAJOR:e&#45;&gt;Utilization
MAJOR Alert:w</title>
<path fill="none" stroke="black" d="M543.586,-132C570.251,-132 577.025,-116.55 598.873,-112.809"/>
<polygon fill="black" stroke="black" points="599.168,-116.296 608.853,-112 598.603,-109.319 599.168,-116.296"/>
<text text-anchor="middle" x="559.086" y="-120.8" font-family="Times,serif" font-size="14.00">true</text>
</g>
<!-- Utilization
MINOR Alert -->
<g id="${uniqueid}_node11" class="node"><title>Utilization
MINOR Alert</title>
<g id="a_${uniqueid}_node11"><a xlink:href="#8847768718393" xlink:title="com.watch4net.alerting.action.SNMPTrapAction">
<ellipse fill="#4daf4a" stroke="black" cx="679.853" cy="-38" rx="70.0071" ry="26.7407"/>
<text text-anchor="middle" x="679.853" y="-41.8" font-family="Times,serif" font-size="14.00" fill="white">Utilization</text>
<text text-anchor="middle" x="679.853" y="-26.8" font-family="Times,serif" font-size="14.00" fill="white">MINOR Alert</text>
</a>
</g>
</g>
<!-- Utilization
MINOR&#45;&gt;Utilization
MINOR Alert -->
<g id="${uniqueid}_edge10" class="edge"><title>Utilization
MINOR:e&#45;&gt;Utilization
MINOR Alert:w</title>
<path fill="none" stroke="black" d="M543.586,-38C568.854,-38 577.614,-38 598.627,-38"/>
<polygon fill="black" stroke="black" points="598.853,-41.5001 608.853,-38 598.853,-34.5001 598.853,-41.5001"/>
<text text-anchor="middle" x="559.086" y="-26.8" font-family="Times,serif" font-size="14.00">true</text>
</g>
</g>
</svg>
