<?xml version="1.0" encoding="UTF-8" standalone="no"?>
<!DOCTYPE svg PUBLIC "-//W3C//DTD SVG 1.1//EN"
 "http://www.w3.org/Graphics/SVG/1.1/DTD/svg11.dtd">
<!-- Generated by graphviz version 2.38.0 (20140413.2041)
 -->
<!-- Title: IBMDS8k Alert Definitions/IBMDS8k&#45;Rank/Read Bandwidth Pages: 1 -->
<svg width="962pt" height="422pt"
 viewBox="0.00 0.00 961.77 421.74" xmlns="http://www.w3.org/2000/svg" xmlns:xlink="http://www.w3.org/1999/xlink">
<g id="${uniqueid}" class="graph" transform="scale(1 1) rotate(0) translate(4 417.74)">
<title>IBMDS8k Alert Definitions/IBMDS8k&#45;Rank/Read Bandwidth</title>
<polygon fill="white" stroke="none" points="-4,4 -4,-417.74 957.767,-417.74 957.767,4 -4,4"/>
<!-- Rank read b/w
entry -->
<g id="${uniqueid}_node1" class="node"><title>Rank read b/w
entry</title>
<g id="a_${uniqueid}_node1"><a xlink:href="#1284902705717605" xlink:title="com.watch4net.alerting.operation.FilteredEntryPoint">
<ellipse fill="#984ea3" stroke="black" cx="84.8528" cy="-206.87" rx="84.7059" ry="26.7407"/>
<text text-anchor="middle" x="84.8528" y="-210.67" font-family="Times,serif" font-size="14.00" fill="white">Rank read b/w</text>
<text text-anchor="middle" x="84.8528" y="-195.67" font-family="Times,serif" font-size="14.00" fill="white">entry</text>
</a>
</g>
</g>
<!-- Roundoff -->
<g id="${uniqueid}_node12" class="node"><title>Roundoff</title>
<g id="a_${uniqueid}_node12"><a xlink:href="#1441789784731" xlink:title="com.watch4net.alerting.operation.math.ConstantMathOperation">
<polygon fill="#377eb8" stroke="black" points="286.706,-224.87 205.706,-224.87 205.706,-188.87 286.706,-188.87 286.706,-224.87"/>
<text text-anchor="middle" x="246.206" y="-203.17" font-family="Times,serif" font-size="14.00" fill="white">Roundoff</text>
</a>
</g>
</g>
<!-- Rank read b/w
entry&#45;&gt;Roundoff -->
<g id="${uniqueid}_edge1" class="edge"><title>Rank read b/w
entry:e&#45;&gt;Roundoff:w</title>
<path fill="none" stroke="black" d="M169.706,-206.87C181.706,-206.87 186.956,-206.87 195.581,-206.87"/>
<polygon fill="black" stroke="black" points="195.706,-210.37 205.706,-206.87 195.706,-203.37 195.706,-210.37"/>
</g>
<!-- Read B/W_
Critical Clear -->
<g id="${uniqueid}_node2" class="node"><title>Read B/W_
Critical Clear</title>
<g id="a_${uniqueid}_node2"><a xlink:href="#1284902709142972" xlink:title="com.watch4net.alerting.action.SNMPTrapAction">
<ellipse fill="#4daf4a" stroke="black" cx="851.236" cy="-386.87" rx="80.7205" ry="26.7407"/>
<text text-anchor="middle" x="851.236" y="-390.67" font-family="Times,serif" font-size="14.00" fill="white">Read B/W_</text>
<text text-anchor="middle" x="851.236" y="-375.67" font-family="Times,serif" font-size="14.00" fill="white">Critical Clear</text>
</a>
</g>
</g>
<!-- Read B/W_
Critical Trap -->
<g id="${uniqueid}_node3" class="node"><title>Read B/W_
Critical Trap</title>
<g id="a_${uniqueid}_node3"><a xlink:href="#1284902705770394" xlink:title="com.watch4net.alerting.action.SNMPTrapAction">
<ellipse fill="#4daf4a" stroke="black" cx="851.236" cy="-314.87" rx="76.2353" ry="26.7407"/>
<text text-anchor="middle" x="851.236" y="-318.67" font-family="Times,serif" font-size="14.00" fill="white">Read B/W_</text>
<text text-anchor="middle" x="851.236" y="-303.67" font-family="Times,serif" font-size="14.00" fill="white">Critical Trap</text>
</a>
</g>
</g>
<!-- Read B/W_Major
Trap -->
<g id="${uniqueid}_node4" class="node"><title>Read B/W_Major
Trap</title>
<g id="a_${uniqueid}_node4"><a xlink:href="#1284902709166335" xlink:title="com.watch4net.alerting.action.SNMPTrapAction">
<ellipse fill="#4daf4a" stroke="black" cx="851.236" cy="-170.87" rx="96.7474" ry="26.7407"/>
<text text-anchor="middle" x="851.236" y="-174.67" font-family="Times,serif" font-size="14.00" fill="white">Read B/W_Major</text>
<text text-anchor="middle" x="851.236" y="-159.67" font-family="Times,serif" font-size="14.00" fill="white">Trap</text>
</a>
</g>
</g>
<!-- Read B/W_Major_
Clear -->
<g id="${uniqueid}_node5" class="node"><title>Read B/W_Major_
Clear</title>
<g id="a_${uniqueid}_node5"><a xlink:href="#1284902709175897" xlink:title="com.watch4net.alerting.action.SNMPTrapAction">
<ellipse fill="#4daf4a" stroke="black" cx="851.236" cy="-242.87" rx="102.561" ry="26.7407"/>
<text text-anchor="middle" x="851.236" y="-246.67" font-family="Times,serif" font-size="14.00" fill="white">Read B/W_Major_</text>
<text text-anchor="middle" x="851.236" y="-231.67" font-family="Times,serif" font-size="14.00" fill="white">Clear</text>
</a>
</g>
</g>
<!-- Read b/w Case -->
<g id="${uniqueid}_node6" class="node"><title>Read b/w Case</title>
<g id="a_${uniqueid}_node6"><a xlink:href="#1284902705752808" xlink:title="com.watch4net.alerting.operation.CaseOperation">
<polygon fill="#377eb8" stroke="black" points="444.706,-224.87 322.706,-224.87 322.706,-188.87 444.706,-188.87 444.706,-224.87"/>
<text text-anchor="middle" x="383.706" y="-203.17" font-family="Times,serif" font-size="14.00" fill="white">Read b/w Case</text>
</a>
</g>
</g>
<!-- Read b/w Crit
comp -->
<g id="${uniqueid}_node7" class="node"><title>Read b/w Crit
comp</title>
<g id="a_${uniqueid}_node7"><a xlink:href="#1284902705758363" xlink:title="com.watch4net.alerting.operation.comparator.ConstantComparatorOperation">
<polygon fill="#ff7f00" stroke="black" points="596.706,-381.87 480.706,-343.87 596.706,-305.87 712.706,-343.87 596.706,-381.87"/>
<text text-anchor="middle" x="596.706" y="-347.67" font-family="Times,serif" font-size="14.00" fill="white">Read b/w Crit</text>
<text text-anchor="middle" x="596.706" y="-332.67" font-family="Times,serif" font-size="14.00" fill="white">comp</text>
</a>
</g>
</g>
<!-- Read b/w Case&#45;&gt;Read b/w Crit
comp -->
<g id="${uniqueid}_edge2" class="edge"><title>Read b/w Case:e&#45;&gt;Read b/w Crit
comp:w</title>
<path fill="none" stroke="black" d="M444.706,-206.87C503.727,-206.87 428.391,-327.28 470.618,-342.331"/>
<polygon fill="black" stroke="black" points="470.292,-345.822 480.706,-343.87 471.348,-338.902 470.292,-345.822"/>
</g>
<!-- Read b/w Maj
Comp -->
<g id="${uniqueid}_node8" class="node"><title>Read b/w Maj
Comp</title>
<g id="a_${uniqueid}_node8"><a xlink:href="#1284902709156139" xlink:title="com.watch4net.alerting.operation.comparator.ConstantComparatorOperation">
<polygon fill="#ff7f00" stroke="black" points="596.706,-244.87 481.706,-206.87 596.706,-168.87 711.706,-206.87 596.706,-244.87"/>
<text text-anchor="middle" x="596.706" y="-210.67" font-family="Times,serif" font-size="14.00" fill="white">Read b/w Maj</text>
<text text-anchor="middle" x="596.706" y="-195.67" font-family="Times,serif" font-size="14.00" fill="white">Comp</text>
</a>
</g>
</g>
<!-- Read b/w Case&#45;&gt;Read b/w Maj
Comp -->
<g id="${uniqueid}_edge3" class="edge"><title>Read b/w Case:e&#45;&gt;Read b/w Maj
Comp:w</title>
<path fill="none" stroke="black" d="M444.706,-206.87C456.706,-206.87 461.956,-206.87 470.581,-206.87"/>
<polygon fill="black" stroke="black" points="470.706,-210.37 480.706,-206.87 470.706,-203.37 470.706,-210.37"/>
</g>
<!-- Read b/w Min
Comp -->
<g id="${uniqueid}_node9" class="node"><title>Read b/w Min
Comp</title>
<g id="a_${uniqueid}_node9"><a xlink:href="#1284902709185042" xlink:title="com.watch4net.alerting.operation.comparator.ConstantComparatorOperation">
<polygon fill="#ff7f00" stroke="black" points="596.706,-107.87 480.706,-69.8701 596.706,-31.8701 712.706,-69.8701 596.706,-107.87"/>
<text text-anchor="middle" x="596.706" y="-73.6701" font-family="Times,serif" font-size="14.00" fill="white">Read b/w Min</text>
<text text-anchor="middle" x="596.706" y="-58.6701" font-family="Times,serif" font-size="14.00" fill="white">Comp</text>
</a>
</g>
</g>
<!-- Read b/w Case&#45;&gt;Read b/w Min
Comp -->
<g id="${uniqueid}_edge4" class="edge"><title>Read b/w Case:e&#45;&gt;Read b/w Min
Comp:w</title>
<path fill="none" stroke="black" d="M444.706,-206.87C503.727,-206.87 428.391,-86.4599 470.618,-71.4086"/>
<polygon fill="black" stroke="black" points="471.348,-74.8379 480.706,-69.8701 470.292,-67.918 471.348,-74.8379"/>
</g>
<!-- Read b/w Crit
comp&#45;&gt;Read B/W_
Critical Clear -->
<g id="${uniqueid}_edge5" class="edge"><title>Read b/w Crit
comp:ne&#45;&gt;Read B/W_
Critical Clear:w</title>
<path fill="none" stroke="black" d="M624.706,-372.87C627.551,-375.716 622.754,-379.134 625.706,-381.87 669.959,-422.888 701.767,-390.825 759.034,-387.195"/>
<polygon fill="black" stroke="black" points="759.353,-390.687 769.236,-386.87 759.13,-383.69 759.353,-390.687"/>
<text text-anchor="middle" x="607.706" y="-376.67" font-family="Times,serif" font-size="14.00">false</text>
</g>
<!-- Read b/w Crit
comp&#45;&gt;Read B/W_
Critical Trap -->
<g id="${uniqueid}_edge6" class="edge"><title>Read b/w Crit
comp:se&#45;&gt;Read B/W_
Critical Trap:w</title>
<path fill="none" stroke="black" d="M626.706,-314.87C670.327,-271.248 704.353,-310.269 763.176,-314.506"/>
<polygon fill="black" stroke="black" points="763.116,-318.006 773.236,-314.87 763.369,-311.011 763.116,-318.006"/>
<text text-anchor="middle" x="611.206" y="-303.67" font-family="Times,serif" font-size="14.00">true</text>
</g>
<!-- Read b/w Maj
Comp&#45;&gt;Read B/W_Major
Trap -->
<g id="${uniqueid}_edge8" class="edge"><title>Read b/w Maj
Comp:se&#45;&gt;Read B/W_Major
Trap:w</title>
<path fill="none" stroke="black" d="M626.706,-177.87C664.042,-140.534 693.08,-167.051 742.971,-170.511"/>
<polygon fill="black" stroke="black" points="743.12,-174.018 753.236,-170.87 743.365,-167.023 743.12,-174.018"/>
<text text-anchor="middle" x="611.206" y="-166.67" font-family="Times,serif" font-size="14.00">true</text>
</g>
<!-- Read b/w Maj
Comp&#45;&gt;Read B/W_Major_
Clear -->
<g id="${uniqueid}_edge7" class="edge"><title>Read b/w Maj
Comp:ne&#45;&gt;Read B/W_Major_
Clear:w</title>
<path fill="none" stroke="black" d="M624.706,-235.87C627.551,-238.716 622.707,-242.186 625.706,-244.87 654.186,-270.361 673.497,-245.902 711.706,-244.87 724.181,-244.533 729.539,-243.558 738.57,-243.106"/>
<polygon fill="black" stroke="black" points="738.79,-246.602 748.706,-242.87 738.627,-239.604 738.79,-246.602"/>
<text text-anchor="middle" x="607.706" y="-239.67" font-family="Times,serif" font-size="14.00">false</text>
</g>
<!-- ReadB/W_Minor
Trap -->
<g id="${uniqueid}_node10" class="node"><title>ReadB/W_Minor
Trap</title>
<g id="a_${uniqueid}_node10"><a xlink:href="#1284902709193164" xlink:title="com.watch4net.alerting.action.SNMPTrapAction">
<ellipse fill="#4daf4a" stroke="black" cx="851.236" cy="-26.8701" rx="94.5053" ry="26.7407"/>
<text text-anchor="middle" x="851.236" y="-30.6701" font-family="Times,serif" font-size="14.00" fill="white">ReadB/W_Minor</text>
<text text-anchor="middle" x="851.236" y="-15.6701" font-family="Times,serif" font-size="14.00" fill="white">Trap</text>
</a>
</g>
</g>
<!-- Read b/w Min
Comp&#45;&gt;ReadB/W_Minor
Trap -->
<g id="${uniqueid}_edge10" class="edge"><title>Read b/w Min
Comp:se&#45;&gt;ReadB/W_Minor
Trap:w</title>
<path fill="none" stroke="black" d="M626.706,-40.8701C664.878,-2.69806 694.051,-23.8917 745.088,-26.598"/>
<polygon fill="black" stroke="black" points="745.146,-30.1007 755.236,-26.8701 745.334,-23.1032 745.146,-30.1007"/>
<text text-anchor="middle" x="611.206" y="-29.6701" font-family="Times,serif" font-size="14.00">true</text>
</g>
<!-- ReadB/W_Minor_
Clear -->
<g id="${uniqueid}_node11" class="node"><title>ReadB/W_Minor_
Clear</title>
<g id="a_${uniqueid}_node11"><a xlink:href="#1284902709201733" xlink:title="com.watch4net.alerting.action.SNMPTrapAction">
<ellipse fill="#4daf4a" stroke="black" cx="851.236" cy="-98.8701" rx="99.9045" ry="26.7407"/>
<text text-anchor="middle" x="851.236" y="-102.67" font-family="Times,serif" font-size="14.00" fill="white">ReadB/W_Minor_</text>
<text text-anchor="middle" x="851.236" y="-87.6701" font-family="Times,serif" font-size="14.00" fill="white">Clear</text>
</a>
</g>
</g>
<!-- Read b/w Min
Comp&#45;&gt;ReadB/W_Minor_
Clear -->
<g id="${uniqueid}_edge9" class="edge"><title>Read b/w Min
Comp:ne&#45;&gt;ReadB/W_Minor_
Clear:w</title>
<path fill="none" stroke="black" d="M624.706,-98.8701C627.551,-101.716 622.707,-105.186 625.706,-107.87 654.517,-133.658 674.306,-112.41 712.706,-107.87 725.748,-106.328 730.764,-101.872 740.097,-99.8674"/>
<polygon fill="black" stroke="black" points="740.627,-103.332 750.236,-98.8701 739.941,-96.3659 740.627,-103.332"/>
<text text-anchor="middle" x="607.706" y="-102.67" font-family="Times,serif" font-size="14.00">false</text>
</g>
<!-- Roundoff&#45;&gt;Read b/w Case -->
<g id="${uniqueid}_edge11" class="edge"><title>Roundoff:e&#45;&gt;Read b/w Case:w</title>
<path fill="none" stroke="black" d="M286.706,-206.87C298.706,-206.87 303.956,-206.87 312.581,-206.87"/>
<polygon fill="black" stroke="black" points="312.706,-210.37 322.706,-206.87 312.706,-203.37 312.706,-210.37"/>
</g>
</g>
</svg>
