<?xml version="1.0" encoding="UTF-8" standalone="no"?>
<!DOCTYPE svg PUBLIC "-//W3C//DTD SVG 1.1//EN"
 "http://www.w3.org/Graphics/SVG/1.1/DTD/svg11.dtd">
<!-- Generated by graphviz version 2.38.0 (20140413.2041)
 -->
<!-- Title: IBMDS8k Alert Definitions/IBMDS8k&#45;StoragePool/Utilization Pages: 1 -->
<svg width="1184pt" height="586pt"
 viewBox="0.00 0.00 1183.72 585.74" xmlns="http://www.w3.org/2000/svg" xmlns:xlink="http://www.w3.org/1999/xlink">
<g id="${uniqueid}" class="graph" transform="scale(1 1) rotate(0) translate(4 581.74)">
<title>IBMDS8k Alert Definitions/IBMDS8k&#45;StoragePool/Utilization</title>
<polygon fill="white" stroke="none" points="-4,4 -4,-581.74 1179.72,-581.74 1179.72,4 -4,4"/>
<!-- Capacity entry -->
<g id="${uniqueid}_node1" class="node"><title>Capacity entry</title>
<g id="a_${uniqueid}_node1"><a xlink:href="#511904542872528" xlink:title="com.watch4net.alerting.operation.FilteredEntryPoint">
<ellipse fill="#984ea3" stroke="black" cx="82.0244" cy="-325.87" rx="79.8859" ry="18"/>
<text text-anchor="middle" x="82.0244" y="-322.17" font-family="Times,serif" font-size="14.00" fill="white">Capacity entry</text>
</a>
</g>
</g>
<!-- Ratio -->
<g id="${uniqueid}_node3" class="node"><title>Ratio</title>
<g id="a_${uniqueid}_node3"><a xlink:href="#511904542653111" xlink:title="com.watch4net.alerting.operation.arithmetic.DataArithmeticOperation">
<polygon fill="#377eb8" stroke="black" points="254.049,-311.87 200.049,-311.87 200.049,-275.87 254.049,-275.87 254.049,-311.87"/>
<text text-anchor="middle" x="227.049" y="-290.17" font-family="Times,serif" font-size="14.00" fill="white">Ratio</text>
</a>
</g>
</g>
<!-- Capacity entry&#45;&gt;Ratio -->
<g id="${uniqueid}_edge1" class="edge"><title>Capacity entry:e&#45;&gt;Ratio:w</title>
<path fill="none" stroke="black" d="M163.024,-325.87C180.696,-325.87 179.735,-304.745 190.419,-296.823"/>
<polygon fill="black" stroke="black" points="191.514,-300.148 200.049,-293.87 189.462,-293.456 191.514,-300.148"/>
</g>
<!-- Percentage -->
<g id="${uniqueid}_node2" class="node"><title>Percentage</title>
<g id="a_${uniqueid}_node2"><a xlink:href="#511904542675409" xlink:title="com.watch4net.alerting.operation.arithmetic.ConstantArithmeticOperation">
<polygon fill="#377eb8" stroke="black" points="388.049,-311.87 290.049,-311.87 290.049,-275.87 388.049,-275.87 388.049,-311.87"/>
<text text-anchor="middle" x="339.049" y="-290.17" font-family="Times,serif" font-size="14.00" fill="white">Percentage</text>
</a>
</g>
</g>
<!-- Roundoff -->
<g id="${uniqueid}_node4" class="node"><title>Roundoff</title>
<g id="a_${uniqueid}_node4"><a xlink:href="#1441789739552" xlink:title="com.watch4net.alerting.operation.math.ConstantMathOperation">
<polygon fill="#377eb8" stroke="black" points="505.049,-311.87 424.049,-311.87 424.049,-275.87 505.049,-275.87 505.049,-311.87"/>
<text text-anchor="middle" x="464.549" y="-290.17" font-family="Times,serif" font-size="14.00" fill="white">Roundoff</text>
</a>
</g>
</g>
<!-- Percentage&#45;&gt;Roundoff -->
<g id="${uniqueid}_edge2" class="edge"><title>Percentage:e&#45;&gt;Roundoff:w</title>
<path fill="none" stroke="black" d="M388.049,-293.87C400.049,-293.87 405.299,-293.87 413.924,-293.87"/>
<polygon fill="black" stroke="black" points="414.049,-297.37 424.049,-293.87 414.049,-290.37 414.049,-297.37"/>
</g>
<!-- Ratio&#45;&gt;Percentage -->
<g id="${uniqueid}_edge3" class="edge"><title>Ratio:e&#45;&gt;Percentage:w</title>
<path fill="none" stroke="black" d="M254.049,-293.87C266.049,-293.87 271.299,-293.87 279.924,-293.87"/>
<polygon fill="black" stroke="black" points="280.049,-297.37 290.049,-293.87 280.049,-290.37 280.049,-297.37"/>
</g>
<!-- Utilization case -->
<g id="${uniqueid}_node10" class="node"><title>Utilization case</title>
<g id="a_${uniqueid}_node10"><a xlink:href="#511904542688120" xlink:title="com.watch4net.alerting.operation.CaseOperation">
<polygon fill="#377eb8" stroke="black" points="669.049,-311.87 541.049,-311.87 541.049,-275.87 669.049,-275.87 669.049,-311.87"/>
<text text-anchor="middle" x="605.049" y="-290.17" font-family="Times,serif" font-size="14.00" fill="white">Utilization case</text>
</a>
</g>
</g>
<!-- Roundoff&#45;&gt;Utilization case -->
<g id="${uniqueid}_edge4" class="edge"><title>Roundoff:e&#45;&gt;Utilization case:w</title>
<path fill="none" stroke="black" d="M505.049,-293.87C517.049,-293.87 522.299,-293.87 530.924,-293.87"/>
<polygon fill="black" stroke="black" points="531.049,-297.37 541.049,-293.87 531.049,-290.37 531.049,-297.37"/>
</g>
<!-- UsedCapacity
entry -->
<g id="${uniqueid}_node5" class="node"><title>UsedCapacity
entry</title>
<g id="a_${uniqueid}_node5"><a xlink:href="#511904542605222" xlink:title="com.watch4net.alerting.operation.FilteredEntryPoint">
<ellipse fill="#984ea3" stroke="black" cx="82.0244" cy="-262.87" rx="82.0488" ry="26.7407"/>
<text text-anchor="middle" x="82.0244" y="-266.67" font-family="Times,serif" font-size="14.00" fill="white">UsedCapacity</text>
<text text-anchor="middle" x="82.0244" y="-251.67" font-family="Times,serif" font-size="14.00" fill="white">entry</text>
</a>
</g>
</g>
<!-- UsedCapacity
entry&#45;&gt;Ratio -->
<g id="${uniqueid}_edge5" class="edge"><title>UsedCapacity
entry:e&#45;&gt;Ratio:w</title>
<path fill="none" stroke="black" d="M164.049,-262.87C181.039,-262.87 180.324,-282.943 190.399,-290.784"/>
<polygon fill="black" stroke="black" points="189.458,-294.158 200.049,-293.87 191.59,-287.491 189.458,-294.158"/>
</g>
<!-- Utilization
Major check -->
<g id="${uniqueid}_node6" class="node"><title>Utilization
Major check</title>
<g id="a_${uniqueid}_node6"><a xlink:href="#511904542744213" xlink:title="com.watch4net.alerting.operation.comparator.ConstantComparatorOperation">
<polygon fill="#ff7f00" stroke="black" points="829.049,-544.87 722.049,-506.87 829.049,-468.87 936.049,-506.87 829.049,-544.87"/>
<text text-anchor="middle" x="829.049" y="-510.67" font-family="Times,serif" font-size="14.00" fill="white">Utilization</text>
<text text-anchor="middle" x="829.049" y="-495.67" font-family="Times,serif" font-size="14.00" fill="white">Major check</text>
</a>
</g>
</g>
<!-- Utilization_
MajorClearTrap -->
<g id="${uniqueid}_node15" class="node"><title>Utilization_
MajorClearTrap</title>
<g id="a_${uniqueid}_node15"><a xlink:href="#511904542771323" xlink:title="com.watch4net.alerting.action.SNMPTrapAction">
<ellipse fill="#4daf4a" stroke="black" cx="1082.39" cy="-550.87" rx="92.7622" ry="26.7407"/>
<text text-anchor="middle" x="1082.39" y="-554.67" font-family="Times,serif" font-size="14.00" fill="white">Utilization_</text>
<text text-anchor="middle" x="1082.39" y="-539.67" font-family="Times,serif" font-size="14.00" fill="white">MajorClearTrap</text>
</a>
</g>
</g>
<!-- Utilization
Major check&#45;&gt;Utilization_
MajorClearTrap -->
<g id="${uniqueid}_edge6" class="edge"><title>Utilization
Major check:ne&#45;&gt;Utilization_
MajorClearTrap:w</title>
<path fill="none" stroke="black" d="M856.049,-534.87C857.628,-536.449 855.427,-543.334 857.049,-544.87 897.188,-582.889 926.69,-554.643 979.007,-551.202"/>
<polygon fill="black" stroke="black" points="979.17,-554.699 989.049,-550.87 978.938,-547.703 979.17,-554.699"/>
<text text-anchor="middle" x="839.049" y="-538.67" font-family="Times,serif" font-size="14.00">false</text>
</g>
<!-- Utilization_
MajorTrap -->
<g id="${uniqueid}_node16" class="node"><title>Utilization_
MajorTrap</title>
<g id="a_${uniqueid}_node16"><a xlink:href="#511904542756347" xlink:title="com.watch4net.alerting.action.SNMPTrapAction">
<ellipse fill="#4daf4a" stroke="black" cx="1082.39" cy="-478.87" rx="69.0935" ry="26.7407"/>
<text text-anchor="middle" x="1082.39" y="-482.67" font-family="Times,serif" font-size="14.00" fill="white">Utilization_</text>
<text text-anchor="middle" x="1082.39" y="-467.67" font-family="Times,serif" font-size="14.00" fill="white">MajorTrap</text>
</a>
</g>
</g>
<!-- Utilization
Major check&#45;&gt;Utilization_
MajorTrap -->
<g id="${uniqueid}_edge7" class="edge"><title>Utilization
Major check:se&#45;&gt;Utilization_
MajorTrap:w</title>
<path fill="none" stroke="black" d="M858.049,-478.87C903.791,-433.128 939.45,-474.224 1001.24,-478.516"/>
<polygon fill="black" stroke="black" points="1001.27,-482.019 1011.39,-478.87 1001.51,-475.024 1001.27,-482.019"/>
<text text-anchor="middle" x="842.549" y="-467.67" font-family="Times,serif" font-size="14.00">true</text>
</g>
<!-- Utilization
Minor check -->
<g id="${uniqueid}_node7" class="node"><title>Utilization
Minor check</title>
<g id="a_${uniqueid}_node7"><a xlink:href="#511904542785873" xlink:title="com.watch4net.alerting.operation.comparator.ConstantComparatorOperation">
<polygon fill="#ff7f00" stroke="black" points="829.049,-400.87 722.049,-362.87 829.049,-324.87 936.049,-362.87 829.049,-400.87"/>
<text text-anchor="middle" x="829.049" y="-366.67" font-family="Times,serif" font-size="14.00" fill="white">Utilization</text>
<text text-anchor="middle" x="829.049" y="-351.67" font-family="Times,serif" font-size="14.00" fill="white">Minor check</text>
</a>
</g>
</g>
<!-- Utilization_
MinorClearTrap -->
<g id="${uniqueid}_node17" class="node"><title>Utilization_
MinorClearTrap</title>
<g id="a_${uniqueid}_node17"><a xlink:href="#511904542810870" xlink:title="com.watch4net.alerting.action.SNMPTrapAction">
<ellipse fill="#4daf4a" stroke="black" cx="1082.39" cy="-406.87" rx="93.1765" ry="26.7407"/>
<text text-anchor="middle" x="1082.39" y="-410.67" font-family="Times,serif" font-size="14.00" fill="white">Utilization_</text>
<text text-anchor="middle" x="1082.39" y="-395.67" font-family="Times,serif" font-size="14.00" fill="white">MinorClearTrap</text>
</a>
</g>
</g>
<!-- Utilization
Minor check&#45;&gt;Utilization_
MinorClearTrap -->
<g id="${uniqueid}_edge8" class="edge"><title>Utilization
Minor check:ne&#45;&gt;Utilization_
MinorClearTrap:w</title>
<path fill="none" stroke="black" d="M856.049,-390.87C857.628,-392.449 855.427,-399.334 857.049,-400.87 897.188,-438.889 926.69,-410.643 979.007,-407.202"/>
<polygon fill="black" stroke="black" points="979.17,-410.699 989.049,-406.87 978.938,-403.703 979.17,-410.699"/>
<text text-anchor="middle" x="839.049" y="-394.67" font-family="Times,serif" font-size="14.00">false</text>
</g>
<!-- Utilization_
MinorTrap -->
<g id="${uniqueid}_node18" class="node"><title>Utilization_
MinorTrap</title>
<g id="a_${uniqueid}_node18"><a xlink:href="#511904542797485" xlink:title="com.watch4net.alerting.action.SNMPTrapAction">
<ellipse fill="#4daf4a" stroke="black" cx="1082.39" cy="-334.87" rx="69.0935" ry="26.7407"/>
<text text-anchor="middle" x="1082.39" y="-338.67" font-family="Times,serif" font-size="14.00" fill="white">Utilization_</text>
<text text-anchor="middle" x="1082.39" y="-323.67" font-family="Times,serif" font-size="14.00" fill="white">MinorTrap</text>
</a>
</g>
</g>
<!-- Utilization
Minor check&#45;&gt;Utilization_
MinorTrap -->
<g id="${uniqueid}_edge9" class="edge"><title>Utilization
Minor check:se&#45;&gt;Utilization_
MinorTrap:w</title>
<path fill="none" stroke="black" d="M858.049,-334.87C903.791,-289.128 939.45,-330.224 1001.24,-334.516"/>
<polygon fill="black" stroke="black" points="1001.27,-338.019 1011.39,-334.87 1001.51,-331.024 1001.27,-338.019"/>
<text text-anchor="middle" x="842.549" y="-323.67" font-family="Times,serif" font-size="14.00">true</text>
</g>
<!-- Utilization
critical comp -->
<g id="${uniqueid}_node8" class="node"><title>Utilization
critical comp</title>
<g id="a_${uniqueid}_node8"><a xlink:href="#511904542696925" xlink:title="com.watch4net.alerting.operation.comparator.ConstantComparatorOperation">
<polygon fill="#ff7f00" stroke="black" points="829.049,-262.87 718.049,-224.87 829.049,-186.87 940.049,-224.87 829.049,-262.87"/>
<text text-anchor="middle" x="829.049" y="-228.67" font-family="Times,serif" font-size="14.00" fill="white">Utilization</text>
<text text-anchor="middle" x="829.049" y="-213.67" font-family="Times,serif" font-size="14.00" fill="white">critical comp</text>
</a>
</g>
</g>
<!-- Utilization_
CriticalClear
Trap -->
<g id="${uniqueid}_node11" class="node"><title>Utilization_
CriticalClear
Trap</title>
<g id="a_${uniqueid}_node11"><a xlink:href="#511904542730321" xlink:title="com.watch4net.alerting.action.SNMPTrapAction">
<ellipse fill="#4daf4a" stroke="black" cx="1082.39" cy="-252.87" rx="77.5641" ry="37.4533"/>
<text text-anchor="middle" x="1082.39" y="-264.17" font-family="Times,serif" font-size="14.00" fill="white">Utilization_</text>
<text text-anchor="middle" x="1082.39" y="-249.17" font-family="Times,serif" font-size="14.00" fill="white">CriticalClear</text>
<text text-anchor="middle" x="1082.39" y="-234.17" font-family="Times,serif" font-size="14.00" fill="white">Trap</text>
</a>
</g>
</g>
<!-- Utilization
critical comp&#45;&gt;Utilization_
CriticalClear
Trap -->
<g id="${uniqueid}_edge10" class="edge"><title>Utilization
critical comp:ne&#45;&gt;Utilization_
CriticalClear
Trap:w</title>
<path fill="none" stroke="black" d="M856.049,-252.87C857.628,-254.449 855.393,-261.371 857.049,-262.87 884.4,-287.623 903.273,-265.755 940.049,-262.87 964.798,-260.928 972.866,-254.781 993.372,-253.229"/>
<polygon fill="black" stroke="black" points="993.519,-256.726 1003.39,-252.87 993.268,-249.73 993.519,-256.726"/>
<text text-anchor="middle" x="839.049" y="-256.67" font-family="Times,serif" font-size="14.00">false</text>
</g>
<!-- Utilization_
CriticalTrap -->
<g id="${uniqueid}_node12" class="node"><title>Utilization_
CriticalTrap</title>
<g id="a_${uniqueid}_node12"><a xlink:href="#511904542710142" xlink:title="com.watch4net.alerting.action.SNMPTrapAction">
<ellipse fill="#4daf4a" stroke="black" cx="1082.39" cy="-170.87" rx="73.5782" ry="26.7407"/>
<text text-anchor="middle" x="1082.39" y="-174.67" font-family="Times,serif" font-size="14.00" fill="white">Utilization_</text>
<text text-anchor="middle" x="1082.39" y="-159.67" font-family="Times,serif" font-size="14.00" fill="white">CriticalTrap</text>
</a>
</g>
</g>
<!-- Utilization
critical comp&#45;&gt;Utilization_
CriticalTrap -->
<g id="${uniqueid}_edge11" class="edge"><title>Utilization
critical comp:se&#45;&gt;Utilization_
CriticalTrap:w</title>
<path fill="none" stroke="black" d="M858.049,-196.87C903.268,-151.651 936.495,-168.851 997.373,-170.715"/>
<polygon fill="black" stroke="black" points="997.334,-174.214 1007.39,-170.87 997.442,-167.215 997.334,-174.214"/>
<text text-anchor="middle" x="842.549" y="-185.67" font-family="Times,serif" font-size="14.00">true</text>
</g>
<!-- Utilization Info
check -->
<g id="${uniqueid}_node9" class="node"><title>Utilization Info
check</title>
<g id="a_${uniqueid}_node9"><a xlink:href="#511904542825741" xlink:title="com.watch4net.alerting.operation.comparator.ConstantComparatorOperation">
<polygon fill="#ff7f00" stroke="black" points="829.049,-107.87 705.049,-69.8701 829.049,-31.8701 953.049,-69.8701 829.049,-107.87"/>
<text text-anchor="middle" x="829.049" y="-73.6701" font-family="Times,serif" font-size="14.00" fill="white">Utilization Info</text>
<text text-anchor="middle" x="829.049" y="-58.6701" font-family="Times,serif" font-size="14.00" fill="white">check</text>
</a>
</g>
</g>
<!-- Utilization_
INFOClearTrap -->
<g id="${uniqueid}_node13" class="node"><title>Utilization_
INFOClearTrap</title>
<g id="a_${uniqueid}_node13"><a xlink:href="#511904542850832" xlink:title="com.watch4net.alerting.action.SNMPTrapAction">
<ellipse fill="#4daf4a" stroke="black" cx="1082.39" cy="-98.8701" rx="90.5193" ry="26.7407"/>
<text text-anchor="middle" x="1082.39" y="-102.67" font-family="Times,serif" font-size="14.00" fill="white">Utilization_</text>
<text text-anchor="middle" x="1082.39" y="-87.6701" font-family="Times,serif" font-size="14.00" fill="white">INFOClearTrap</text>
</a>
</g>
</g>
<!-- Utilization Info
check&#45;&gt;Utilization_
INFOClearTrap -->
<g id="${uniqueid}_edge12" class="edge"><title>Utilization Info
check:ne&#45;&gt;Utilization_
INFOClearTrap:w</title>
<path fill="none" stroke="black" d="M857.049,-98.8701C859.895,-101.716 855.05,-105.186 858.049,-107.87 889.51,-136.029 911.121,-112.852 953.049,-107.87 966.027,-106.328 971.013,-101.872 980.298,-99.8674"/>
<polygon fill="black" stroke="black" points="980.78,-103.337 990.387,-98.8701 980.091,-96.3709 980.78,-103.337"/>
<text text-anchor="middle" x="840.049" y="-102.67" font-family="Times,serif" font-size="14.00">false</text>
</g>
<!-- Utilization_
INFOTrap -->
<g id="${uniqueid}_node14" class="node"><title>Utilization_
INFOTrap</title>
<g id="a_${uniqueid}_node14"><a xlink:href="#511904542837517" xlink:title="com.watch4net.alerting.action.SNMPTrapAction">
<ellipse fill="#4daf4a" stroke="black" cx="1082.39" cy="-26.8701" rx="69.0935" ry="26.7407"/>
<text text-anchor="middle" x="1082.39" y="-30.6701" font-family="Times,serif" font-size="14.00" fill="white">Utilization_</text>
<text text-anchor="middle" x="1082.39" y="-15.6701" font-family="Times,serif" font-size="14.00" fill="white">INFOTrap</text>
</a>
</g>
</g>
<!-- Utilization Info
check&#45;&gt;Utilization_
INFOTrap -->
<g id="${uniqueid}_edge13" class="edge"><title>Utilization Info
check:se&#45;&gt;Utilization_
INFOTrap:w</title>
<path fill="none" stroke="black" d="M859.049,-40.8701C904.684,4.76552 939.682,-23.621 1001.27,-26.6217"/>
<polygon fill="black" stroke="black" points="1001.3,-30.1235 1011.39,-26.8701 1001.48,-23.1256 1001.3,-30.1235"/>
<text text-anchor="middle" x="843.549" y="-29.6701" font-family="Times,serif" font-size="14.00">true</text>
</g>
<!-- Utilization case&#45;&gt;Utilization
Major check -->
<g id="${uniqueid}_edge14" class="edge"><title>Utilization case:e&#45;&gt;Utilization
Major check:w</title>
<path fill="none" stroke="black" d="M669.049,-293.87C762.689,-293.87 634.399,-490.554 710.701,-505.92"/>
<polygon fill="black" stroke="black" points="710.771,-509.441 721.049,-506.87 711.411,-502.471 710.771,-509.441"/>
</g>
<!-- Utilization case&#45;&gt;Utilization
Minor check -->
<g id="${uniqueid}_edge15" class="edge"><title>Utilization case:e&#45;&gt;Utilization
Minor check:w</title>
<path fill="none" stroke="black" d="M669.049,-293.87C703.549,-293.87 687.034,-349.566 711.172,-360.879"/>
<polygon fill="black" stroke="black" points="710.554,-364.325 721.049,-362.87 711.937,-357.463 710.554,-364.325"/>
</g>
<!-- Utilization case&#45;&gt;Utilization
critical comp -->
<g id="${uniqueid}_edge16" class="edge"><title>Utilization case:e&#45;&gt;Utilization
critical comp:w</title>
<path fill="none" stroke="black" d="M669.049,-293.87C702.466,-293.87 684.614,-238.657 707.217,-227.011"/>
<polygon fill="black" stroke="black" points="708.022,-230.417 717.049,-224.87 706.533,-223.578 708.022,-230.417"/>
</g>
<!-- Utilization case&#45;&gt;Utilization Info
check -->
<g id="${uniqueid}_edge17" class="edge"><title>Utilization case:e&#45;&gt;Utilization Info
check:w</title>
<path fill="none" stroke="black" d="M669.049,-293.87C766.14,-293.87 616.144,-86.1866 694.897,-70.7726"/>
<polygon fill="black" stroke="black" points="695.398,-74.2419 705.049,-69.8701 694.778,-67.2694 695.398,-74.2419"/>
</g>
</g>
</svg>
