<?xml version="1.0" encoding="UTF-8" standalone="no"?>
<!DOCTYPE svg PUBLIC "-//W3C//DTD SVG 1.1//EN"
 "http://www.w3.org/Graphics/SVG/1.1/DTD/svg11.dtd">
<!-- Generated by graphviz version 2.38.0 (20140413.2041)
 -->
<!-- Title: HP 3PAR Alert Definitions/3PAR&#45;Controllers/High Write Percent Pages: 1 -->
<svg width="908pt" height="362pt"
 viewBox="0.00 0.00 907.81 361.95" xmlns="http://www.w3.org/2000/svg" xmlns:xlink="http://www.w3.org/1999/xlink">
<g id="${uniqueid}" class="graph" transform="scale(1 1) rotate(0) translate(4 357.953)">
<title>HP 3PAR Alert Definitions/3PAR&#45;Controllers/High Write Percent</title>
<polygon fill="white" stroke="none" points="-4,4 -4,-357.953 903.808,-357.953 903.808,4 -4,4"/>
<!-- Copy of High
WritePercent_
Minor clear trap -->
<g id="${uniqueid}_node1" class="node"><title>Copy of High
WritePercent_
Minor clear trap</title>
<g id="a_${uniqueid}_node1"><a xlink:href="#363354442247708" xlink:title="com.watch4net.alerting.action.SNMPTrapAction">
<ellipse fill="#4daf4a" stroke="black" cx="804.349" cy="-130.477" rx="95.4188" ry="37.4533"/>
<text text-anchor="middle" x="804.349" y="-141.777" font-family="Times,serif" font-size="14.00" fill="white">Copy of High</text>
<text text-anchor="middle" x="804.349" y="-126.777" font-family="Times,serif" font-size="14.00" fill="white">WritePercent_</text>
<text text-anchor="middle" x="804.349" y="-111.777" font-family="Times,serif" font-size="14.00" fill="white">Minor clear trap</text>
</a>
</g>
</g>
<!-- HighWrite
Percent_Major -->
<g id="${uniqueid}_node2" class="node"><title>HighWrite
Percent_Major</title>
<g id="a_${uniqueid}_node2"><a xlink:href="#363354442159175" xlink:title="com.watch4net.alerting.operation.comparator.ConstantComparatorOperation">
<polygon fill="#ff7f00" stroke="black" points="549.889,-290.477 427.889,-252.477 549.889,-214.477 671.889,-252.477 549.889,-290.477"/>
<text text-anchor="middle" x="549.889" y="-256.277" font-family="Times,serif" font-size="14.00" fill="white">HighWrite</text>
<text text-anchor="middle" x="549.889" y="-241.277" font-family="Times,serif" font-size="14.00" fill="white">Percent_Major</text>
</a>
</g>
</g>
<!-- HighWrite
Percent_Major
clear trap -->
<g id="${uniqueid}_node3" class="node"><title>HighWrite
Percent_Major
clear trap</title>
<g id="a_${uniqueid}_node3"><a xlink:href="#363354442193306" xlink:title="com.watch4net.alerting.action.SNMPTrapAction">
<ellipse fill="#4daf4a" stroke="black" cx="804.349" cy="-316.477" rx="86.0347" ry="37.4533"/>
<text text-anchor="middle" x="804.349" y="-327.777" font-family="Times,serif" font-size="14.00" fill="white">HighWrite</text>
<text text-anchor="middle" x="804.349" y="-312.777" font-family="Times,serif" font-size="14.00" fill="white">Percent_Major</text>
<text text-anchor="middle" x="804.349" y="-297.777" font-family="Times,serif" font-size="14.00" fill="white">clear trap</text>
</a>
</g>
</g>
<!-- HighWrite
Percent_Major&#45;&gt;HighWrite
Percent_Major
clear trap -->
<g id="${uniqueid}_edge1" class="edge"><title>HighWrite
Percent_Major:ne&#45;&gt;HighWrite
Percent_Major
clear trap:w</title>
<path fill="none" stroke="black" d="M577.889,-281.477C580.735,-284.322 576.154,-287.524 578.889,-290.477 618.753,-333.503 650.402,-318.489 706.057,-316.65"/>
<polygon fill="black" stroke="black" points="706.409,-320.145 716.349,-316.477 706.291,-313.146 706.409,-320.145"/>
<text text-anchor="middle" x="560.889" y="-285.277" font-family="Times,serif" font-size="14.00">false</text>
</g>
<!-- HighWrite
Percent_Major
trap -->
<g id="${uniqueid}_node4" class="node"><title>HighWrite
Percent_Major
trap</title>
<g id="a_${uniqueid}_node4"><a xlink:href="#363354442174633" xlink:title="com.watch4net.alerting.action.SNMPTrapAction">
<ellipse fill="#4daf4a" stroke="black" cx="804.349" cy="-223.477" rx="86.0347" ry="37.4533"/>
<text text-anchor="middle" x="804.349" y="-234.777" font-family="Times,serif" font-size="14.00" fill="white">HighWrite</text>
<text text-anchor="middle" x="804.349" y="-219.777" font-family="Times,serif" font-size="14.00" fill="white">Percent_Major</text>
<text text-anchor="middle" x="804.349" y="-204.777" font-family="Times,serif" font-size="14.00" fill="white">trap</text>
</a>
</g>
</g>
<!-- HighWrite
Percent_Major&#45;&gt;HighWrite
Percent_Major
trap -->
<g id="${uniqueid}_edge2" class="edge"><title>HighWrite
Percent_Major:se&#45;&gt;HighWrite
Percent_Major
trap:w</title>
<path fill="none" stroke="black" d="M579.889,-223.477C620.345,-183.021 651.938,-218.894 706.303,-223.087"/>
<polygon fill="black" stroke="black" points="706.221,-226.587 716.349,-223.477 706.492,-219.592 706.221,-226.587"/>
<text text-anchor="middle" x="564.389" y="-212.277" font-family="Times,serif" font-size="14.00">true</text>
</g>
<!-- HighWrite
Percent_Minor -->
<g id="${uniqueid}_node5" class="node"><title>HighWrite
Percent_Minor</title>
<g id="a_${uniqueid}_node5"><a xlink:href="#363354442205806" xlink:title="com.watch4net.alerting.operation.comparator.ConstantComparatorOperation">
<polygon fill="#ff7f00" stroke="black" points="549.889,-139.477 426.889,-101.477 549.889,-63.4767 672.889,-101.477 549.889,-139.477"/>
<text text-anchor="middle" x="549.889" y="-105.277" font-family="Times,serif" font-size="14.00" fill="white">HighWrite</text>
<text text-anchor="middle" x="549.889" y="-90.2767" font-family="Times,serif" font-size="14.00" fill="white">Percent_Minor</text>
</a>
</g>
</g>
<!-- HighWrite
Percent_Minor&#45;&gt;Copy of High
WritePercent_
Minor clear trap -->
<g id="${uniqueid}_edge3" class="edge"><title>HighWrite
Percent_Minor:ne&#45;&gt;Copy of High
WritePercent_
Minor clear trap:w</title>
<path fill="none" stroke="black" d="M577.889,-130.477C580.735,-133.322 575.891,-136.793 578.889,-139.477 610.019,-167.339 631.425,-144.581 672.889,-139.477 685.294,-137.95 690.101,-133.568 698.879,-131.536"/>
<polygon fill="black" stroke="black" points="699.313,-135.01 708.889,-130.477 698.577,-128.048 699.313,-135.01"/>
<text text-anchor="middle" x="560.889" y="-134.277" font-family="Times,serif" font-size="14.00">false</text>
</g>
<!-- HighWrite
Percent_Minor
trap -->
<g id="${uniqueid}_node6" class="node"><title>HighWrite
Percent_Minor
trap</title>
<g id="a_${uniqueid}_node6"><a xlink:href="#363354442233236" xlink:title="com.watch4net.alerting.action.SNMPTrapAction">
<ellipse fill="#4daf4a" stroke="black" cx="804.349" cy="-37.4767" rx="86.9483" ry="37.4533"/>
<text text-anchor="middle" x="804.349" y="-48.7767" font-family="Times,serif" font-size="14.00" fill="white">HighWrite</text>
<text text-anchor="middle" x="804.349" y="-33.7767" font-family="Times,serif" font-size="14.00" fill="white">Percent_Minor</text>
<text text-anchor="middle" x="804.349" y="-18.7767" font-family="Times,serif" font-size="14.00" fill="white">trap</text>
</a>
</g>
</g>
<!-- HighWrite
Percent_Minor&#45;&gt;HighWrite
Percent_Minor
trap -->
<g id="${uniqueid}_edge4" class="edge"><title>HighWrite
Percent_Minor:se&#45;&gt;HighWrite
Percent_Minor
trap:w</title>
<path fill="none" stroke="black" d="M579.889,-72.4767C621.655,-30.7111 650.34,-36.598 706.019,-37.3988"/>
<polygon fill="black" stroke="black" points="706.323,-40.9011 716.349,-37.4767 706.375,-33.9013 706.323,-40.9011"/>
<text text-anchor="middle" x="564.389" y="-61.2767" font-family="Times,serif" font-size="14.00">true</text>
</g>
<!-- HighWritePercent
Case -->
<g id="${uniqueid}_node7" class="node"><title>HighWritePercent
Case</title>
<g id="a_${uniqueid}_node7"><a xlink:href="#363354442149103" xlink:title="com.watch4net.alerting.operation.CaseOperation">
<polygon fill="#377eb8" stroke="black" points="390.889,-195.477 243.889,-195.477 243.889,-157.477 390.889,-157.477 390.889,-195.477"/>
<text text-anchor="middle" x="317.389" y="-180.277" font-family="Times,serif" font-size="14.00" fill="white">HighWritePercent</text>
<text text-anchor="middle" x="317.389" y="-165.277" font-family="Times,serif" font-size="14.00" fill="white">Case</text>
</a>
</g>
</g>
<!-- HighWritePercent
Case&#45;&gt;HighWrite
Percent_Major -->
<g id="${uniqueid}_edge5" class="edge"><title>HighWritePercent
Case:e&#45;&gt;HighWrite
Percent_Major:w</title>
<path fill="none" stroke="black" d="M390.889,-176.477C424.177,-176.477 397.08,-236.761 417.158,-249.948"/>
<polygon fill="black" stroke="black" points="416.331,-253.349 426.889,-252.477 418.091,-246.574 416.331,-253.349"/>
</g>
<!-- HighWritePercent
Case&#45;&gt;HighWrite
Percent_Minor -->
<g id="${uniqueid}_edge6" class="edge"><title>HighWritePercent
Case:e&#45;&gt;HighWrite
Percent_Minor:w</title>
<path fill="none" stroke="black" d="M390.889,-176.477C423.675,-176.477 397.551,-117.506 416.99,-104.146"/>
<polygon fill="black" stroke="black" points="418.146,-107.46 426.889,-101.477 416.323,-100.701 418.146,-107.46"/>
</g>
<!-- HighWritePercent
Entry -->
<g id="${uniqueid}_node8" class="node"><title>HighWritePercent
Entry</title>
<g id="a_${uniqueid}_node8"><a xlink:href="#363354442098246" xlink:title="com.watch4net.alerting.operation.FilteredEntryPoint">
<ellipse fill="#984ea3" stroke="black" cx="103.945" cy="-176.477" rx="103.889" ry="26.7407"/>
<text text-anchor="middle" x="103.945" y="-180.277" font-family="Times,serif" font-size="14.00" fill="white">HighWritePercent</text>
<text text-anchor="middle" x="103.945" y="-165.277" font-family="Times,serif" font-size="14.00" fill="white">Entry</text>
</a>
</g>
</g>
<!-- HighWritePercent
Entry&#45;&gt;HighWritePercent
Case -->
<g id="${uniqueid}_edge7" class="edge"><title>HighWritePercent
Entry:e&#45;&gt;HighWritePercent
Case:w</title>
<path fill="none" stroke="black" d="M207.889,-176.477C219.889,-176.477 225.139,-176.477 233.764,-176.477"/>
<polygon fill="black" stroke="black" points="233.889,-179.977 243.889,-176.477 233.889,-172.977 233.889,-179.977"/>
</g>
</g>
</svg>
