<?xml version="1.0" encoding="UTF-8" standalone="no"?>
<!DOCTYPE svg PUBLIC "-//W3C//DTD SVG 1.1//EN"
 "http://www.w3.org/Graphics/SVG/1.1/DTD/svg11.dtd">
<!-- Generated by graphviz version 2.38.0 (20140413.2041)
 -->
<!-- Title: Physical Hosts Alert Definitions/Filesystem Utilization Pages: 1 -->
<svg width="665pt" height="314pt"
 viewBox="0.00 0.00 665.29 314.00" xmlns="http://www.w3.org/2000/svg" xmlns:xlink="http://www.w3.org/1999/xlink">
<g id="${uniqueid}" class="graph" transform="scale(1 1) rotate(0) translate(4 310)">
<title>Physical Hosts Alert Definitions/Filesystem Utilization</title>
<polygon fill="white" stroke="none" points="-4,4 -4,-310 661.293,-310 661.293,4 -4,4"/>
<!-- Case -->
<g id="${uniqueid}_node1" class="node"><title>Case</title>
<g id="a_${uniqueid}_node1"><a xlink:href="#1416342207027" xlink:title="com.watch4net.alerting.operation.CaseOperation">
<polygon fill="#377eb8" stroke="black" points="230.007,-171 176.007,-171 176.007,-135 230.007,-135 230.007,-171"/>
<text text-anchor="middle" x="203.007" y="-149.3" font-family="Times,serif" font-size="14.00" fill="white">Case</text>
</a>
</g>
</g>
<!-- Critical 98% -->
<g id="${uniqueid}_node5" class="node"><title>Critical 98%</title>
<g id="a_${uniqueid}_node5"><a xlink:href="#5712693a-0803-4b0d-8f61-56e40116473c" xlink:title="com.watch4net.alerting.operation.comparator.ConstantComparatorOperation">
<polygon fill="#ff7f00" stroke="black" points="364.357,-267 266.157,-249 364.357,-231 462.557,-249 364.357,-267"/>
<text text-anchor="middle" x="364.357" y="-245.3" font-family="Times,serif" font-size="14.00" fill="white">Critical 98%</text>
</a>
</g>
</g>
<!-- Case&#45;&gt;Critical 98% -->
<g id="${uniqueid}_edge1" class="edge"><title>Case:e&#45;&gt;Critical 98%:w</title>
<path fill="none" stroke="black" d="M230.007,-153C271.481,-153 229.534,-232.525 256.018,-246.815"/>
<polygon fill="black" stroke="black" points="255.49,-250.282 266.007,-249 256.986,-243.444 255.49,-250.282"/>
</g>
<!-- Major 95% -->
<g id="${uniqueid}_node8" class="node"><title>Major 95%</title>
<g id="a_${uniqueid}_node8"><a xlink:href="#3f9fc970-2f42-4ed2-b791-4556f3734278" xlink:title="com.watch4net.alerting.operation.comparator.ConstantComparatorOperation">
<polygon fill="#ff7f00" stroke="black" points="364.357,-171 286.938,-153 364.357,-135 441.776,-153 364.357,-171"/>
<text text-anchor="middle" x="364.357" y="-149.3" font-family="Times,serif" font-size="14.00" fill="white">Major 95%</text>
</a>
</g>
</g>
<!-- Case&#45;&gt;Major 95% -->
<g id="${uniqueid}_edge2" class="edge"><title>Case:e&#45;&gt;Major 95%:w</title>
<path fill="none" stroke="black" d="M230.007,-153C250.763,-153 258.385,-153 275.036,-153"/>
<polygon fill="black" stroke="black" points="275.357,-156.5 285.357,-153 275.357,-149.5 275.357,-156.5"/>
</g>
<!-- Minor 90% -->
<g id="${uniqueid}_node10" class="node"><title>Minor 90%</title>
<g id="a_${uniqueid}_node10"><a xlink:href="#a2db360d-eebc-4512-8f14-eb5f8977d3ee" xlink:title="com.watch4net.alerting.operation.comparator.ConstantComparatorOperation">
<polygon fill="#ff7f00" stroke="black" points="364.357,-75 286.938,-57 364.357,-39 441.776,-57 364.357,-75"/>
<text text-anchor="middle" x="364.357" y="-53.3" font-family="Times,serif" font-size="14.00" fill="white">Minor 90%</text>
</a>
</g>
</g>
<!-- Case&#45;&gt;Minor 90% -->
<g id="${uniqueid}_edge3" class="edge"><title>Case:e&#45;&gt;Minor 90%:w</title>
<path fill="none" stroke="black" d="M230.007,-153C275.41,-153 242.285,-71.4141 275.418,-58.6663"/>
<polygon fill="black" stroke="black" points="276.073,-62.1053 285.357,-57 274.916,-55.2016 276.073,-62.1053"/>
</g>
<!-- Clear Critical -->
<g id="${uniqueid}_node2" class="node"><title>Clear Critical</title>
<g id="a_${uniqueid}_node2"><a xlink:href="#1416342159889" xlink:title="com.watch4net.alerting.action.SNMPTrapAction">
<ellipse fill="#4daf4a" stroke="black" cx="578" cy="-288" rx="79.0865" ry="18"/>
<text text-anchor="middle" x="578" y="-284.3" font-family="Times,serif" font-size="14.00" fill="white">Clear Critical</text>
</a>
</g>
</g>
<!-- Clear Major -->
<g id="${uniqueid}_node3" class="node"><title>Clear Major</title>
<g id="a_${uniqueid}_node3"><a xlink:href="#1416342194475" xlink:title="com.watch4net.alerting.action.SNMPTrapAction">
<ellipse fill="#4daf4a" stroke="black" cx="578" cy="-180" rx="64.189" ry="18"/>
<text text-anchor="middle" x="578" y="-176.3" font-family="Times,serif" font-size="14.00" fill="white">Clear Major</text>
</a>
</g>
</g>
<!-- Clear Minor -->
<g id="${uniqueid}_node4" class="node"><title>Clear Minor</title>
<g id="a_${uniqueid}_node4"><a xlink:href="#f7981b74-d785-443b-b5cf-8868861f66a6" xlink:title="com.watch4net.alerting.action.SNMPTrapAction">
<ellipse fill="#4daf4a" stroke="black" cx="578" cy="-72" rx="64.189" ry="18"/>
<text text-anchor="middle" x="578" y="-68.3" font-family="Times,serif" font-size="14.00" fill="white">Clear Minor</text>
</a>
</g>
</g>
<!-- Critical 98%&#45;&gt;Clear Critical -->
<g id="${uniqueid}_edge4" class="edge"><title>Critical 98%:ne&#45;&gt;Clear Critical:w</title>
<path fill="none" stroke="black" d="M378.357,-264C379.351,-264.994 378.293,-266.082 379.357,-267 417.516,-299.906 441.596,-289.622 488.644,-288.16"/>
<polygon fill="black" stroke="black" points="488.764,-291.658 498.707,-288 488.653,-284.659 488.764,-291.658"/>
<text text-anchor="middle" x="359.357" y="-267.8" font-family="Times,serif" font-size="14.00">false</text>
</g>
<!-- Critical Trap -->
<g id="${uniqueid}_node6" class="node"><title>Critical Trap</title>
<g id="a_${uniqueid}_node6"><a xlink:href="#89a839e4-25c7-45c2-880c-e078ff6f223c" xlink:title="com.watch4net.alerting.action.SNMPTrapAction">
<ellipse fill="#4daf4a" stroke="black" cx="578" cy="-234" rx="74.187" ry="18"/>
<text text-anchor="middle" x="578" y="-230.3" font-family="Times,serif" font-size="14.00" fill="white">Critical Trap</text>
</a>
</g>
</g>
<!-- Critical 98%&#45;&gt;Critical Trap -->
<g id="${uniqueid}_edge5" class="edge"><title>Critical 98%:se&#45;&gt;Critical Trap:w</title>
<path fill="none" stroke="black" d="M380.357,-234C416.416,-197.941 444.64,-229.352 492.762,-233.551"/>
<polygon fill="black" stroke="black" points="492.856,-237.058 503,-234 493.163,-230.065 492.856,-237.058"/>
<text text-anchor="middle" x="364.857" y="-222.8" font-family="Times,serif" font-size="14.00">true</text>
</g>
<!-- Filesystem
Utilization -->
<g id="${uniqueid}_node7" class="node"><title>Filesystem
Utilization</title>
<g id="a_${uniqueid}_node7"><a xlink:href="#35013aff-573c-456f-b491-9ff21f32c47b" xlink:title="com.watch4net.alerting.operation.FilteredEntryPoint">
<ellipse fill="#984ea3" stroke="black" cx="70.0036" cy="-153" rx="70.0071" ry="26.7407"/>
<text text-anchor="middle" x="70.0036" y="-156.8" font-family="Times,serif" font-size="14.00" fill="white">Filesystem</text>
<text text-anchor="middle" x="70.0036" y="-141.8" font-family="Times,serif" font-size="14.00" fill="white">Utilization</text>
</a>
</g>
</g>
<!-- Filesystem
Utilization&#45;&gt;Case -->
<g id="${uniqueid}_edge6" class="edge"><title>Filesystem
Utilization:e&#45;&gt;Case:w</title>
<path fill="none" stroke="black" d="M140.007,-153C152.007,-153 157.257,-153 165.882,-153"/>
<polygon fill="black" stroke="black" points="166.007,-156.5 176.007,-153 166.007,-149.5 166.007,-156.5"/>
</g>
<!-- Major 95%&#45;&gt;Clear Major -->
<g id="${uniqueid}_edge7" class="edge"><title>Major 95%:ne&#45;&gt;Clear Major:w</title>
<path fill="none" stroke="black" d="M378.357,-168C379.351,-168.994 378.245,-170.14 379.357,-171 423.355,-205.035 449.701,-182.965 501.935,-180.261"/>
<polygon fill="black" stroke="black" points="502.094,-183.759 512,-180 501.912,-176.761 502.094,-183.759"/>
<text text-anchor="middle" x="359.357" y="-171.8" font-family="Times,serif" font-size="14.00">false</text>
</g>
<!-- Major Trap -->
<g id="${uniqueid}_node9" class="node"><title>Major Trap</title>
<g id="a_${uniqueid}_node9"><a xlink:href="#0ea7ef47-963a-40c3-a042-f13d87456d89" xlink:title="com.watch4net.alerting.action.SNMPTrapAction">
<ellipse fill="#4daf4a" stroke="black" cx="578" cy="-126" rx="59.5901" ry="18"/>
<text text-anchor="middle" x="578" y="-122.3" font-family="Times,serif" font-size="14.00" fill="white">Major Trap</text>
</a>
</g>
</g>
<!-- Major 95%&#45;&gt;Major Trap -->
<g id="${uniqueid}_edge8" class="edge"><title>Major 95%:se&#45;&gt;Major Trap:w</title>
<path fill="none" stroke="black" d="M380.357,-138C421.023,-97.3337 452.312,-122.714 506.907,-125.72"/>
<polygon fill="black" stroke="black" points="506.906,-129.221 517,-126 507.101,-122.224 506.906,-129.221"/>
<text text-anchor="middle" x="364.857" y="-126.8" font-family="Times,serif" font-size="14.00">true</text>
</g>
<!-- Minor 90%&#45;&gt;Clear Minor -->
<g id="${uniqueid}_edge9" class="edge"><title>Minor 90%:ne&#45;&gt;Clear Minor:w</title>
<path fill="none" stroke="black" d="M378.357,-72C379.351,-72.9938 378.217,-74.1782 379.357,-75 384.605,-78.7829 471.587,-74.243 501.779,-72.5707"/>
<polygon fill="black" stroke="black" points="502.21,-76.0521 512,-72 501.82,-69.063 502.21,-76.0521"/>
<text text-anchor="middle" x="359.357" y="-75.8" font-family="Times,serif" font-size="14.00">false</text>
</g>
<!-- Minor Trap -->
<g id="${uniqueid}_node11" class="node"><title>Minor Trap</title>
<g id="a_${uniqueid}_node11"><a xlink:href="#a413a3d1-a6fa-446c-ac96-585076ec59fc" xlink:title="com.watch4net.alerting.action.SNMPTrapAction">
<ellipse fill="#4daf4a" stroke="black" cx="578" cy="-18" rx="59.5901" ry="18"/>
<text text-anchor="middle" x="578" y="-14.3" font-family="Times,serif" font-size="14.00" fill="white">Minor Trap</text>
</a>
</g>
</g>
<!-- Minor 90%&#45;&gt;Minor Trap -->
<g id="${uniqueid}_edge10" class="edge"><title>Minor 90%:se&#45;&gt;Minor Trap:w</title>
<path fill="none" stroke="black" d="M380.357,-42C421.487,-0.869497 451.746,-15.9824 506.806,-17.8264"/>
<polygon fill="black" stroke="black" points="506.942,-21.3291 517,-18 507.061,-14.3301 506.942,-21.3291"/>
<text text-anchor="middle" x="364.857" y="-30.8" font-family="Times,serif" font-size="14.00">true</text>
</g>
</g>
</svg>
