<?xml version="1.0" encoding="UTF-8" standalone="no"?>
<!DOCTYPE svg PUBLIC "-//W3C//DTD SVG 1.1//EN"
 "http://www.w3.org/Graphics/SVG/1.1/DTD/svg11.dtd">
<!-- Generated by graphviz version 2.38.0 (20140413.2041)
 -->
<!-- Title: Physical Hosts Alert Definitions/Host Path Health Pages: 1 -->
<svg width="578pt" height="84pt"
 viewBox="0.00 0.00 578.47 84.00" xmlns="http://www.w3.org/2000/svg" xmlns:xlink="http://www.w3.org/1999/xlink">
<g id="${uniqueid}" class="graph" transform="scale(1 1) rotate(0) translate(4 80)">
<title>Physical Hosts Alert Definitions/Host Path Health</title>
<polygon fill="white" stroke="none" points="-4,4 -4,-80 574.474,-80 574.474,4 -4,4"/>
<!-- Path Down -->
<g id="${uniqueid}_node1" class="node"><title>Path Down</title>
<g id="a_${uniqueid}_node1"><a xlink:href="#358441221261753" xlink:title="com.watch4net.alerting.operation.FilteredEntryPoint">
<ellipse fill="#984ea3" stroke="black" cx="61.0946" cy="-38" rx="61.1893" ry="18"/>
<text text-anchor="middle" x="61.0946" y="-34.3" font-family="Times,serif" font-size="14.00" fill="white">Path Down</text>
</a>
</g>
</g>
<!-- PathHealth
Comparator -->
<g id="${uniqueid}_node3" class="node"><title>PathHealth
Comparator</title>
<g id="a_${uniqueid}_node3"><a xlink:href="#1386046905988" xlink:title="com.watch4net.alerting.operation.comparator.StringComparatorOperation">
<polygon fill="#ff7f00" stroke="black" points="261.189,-76 158.189,-38 261.189,-7.10543e-15 364.189,-38 261.189,-76"/>
<text text-anchor="middle" x="261.189" y="-41.8" font-family="Times,serif" font-size="14.00" fill="white">PathHealth</text>
<text text-anchor="middle" x="261.189" y="-26.8" font-family="Times,serif" font-size="14.00" fill="white">Comparator</text>
</a>
</g>
</g>
<!-- Path Down&#45;&gt;PathHealth
Comparator -->
<g id="${uniqueid}_edge1" class="edge"><title>Path Down:e&#45;&gt;PathHealth
Comparator:w</title>
<path fill="none" stroke="black" d="M122.189,-38C134.189,-38 139.439,-38 148.064,-38"/>
<polygon fill="black" stroke="black" points="148.189,-41.5001 158.189,-38 148.189,-34.5001 148.189,-41.5001"/>
</g>
<!-- Path Down Trap -->
<g id="${uniqueid}_node2" class="node"><title>Path Down Trap</title>
<g id="a_${uniqueid}_node2"><a xlink:href="#358441221454371" xlink:title="com.watch4net.alerting.action.SNMPTrapAction">
<ellipse fill="#4daf4a" stroke="black" cx="485.332" cy="-38" rx="85.2851" ry="18"/>
<text text-anchor="middle" x="485.332" y="-34.3" font-family="Times,serif" font-size="14.00" fill="white">Path Down Trap</text>
</a>
</g>
</g>
<!-- PathHealth
Comparator&#45;&gt;Path Down Trap -->
<g id="${uniqueid}_edge2" class="edge"><title>PathHealth
Comparator:e&#45;&gt;Path Down Trap:w</title>
<path fill="none" stroke="black" d="M364.189,-38C376.189,-38 381.439,-38 390.064,-38"/>
<polygon fill="black" stroke="black" points="390.189,-41.5001 400.189,-38 390.189,-34.5001 390.189,-41.5001"/>
<text text-anchor="middle" x="379.689" y="-26.8" font-family="Times,serif" font-size="14.00">true</text>
</g>
</g>
</svg>
