<?xml version="1.0" encoding="UTF-8" standalone="no"?>
<!DOCTYPE svg PUBLIC "-//W3C//DTD SVG 1.1//EN"
 "http://www.w3.org/Graphics/SVG/1.1/DTD/svg11.dtd">
<!-- Generated by graphviz version 2.38.0 (20140413.2041)
 -->
<!-- Title: VMware vCenter Alert Definitions/Virtual Machines/High Memory Utilization Pages: 1 -->
<svg width="969pt" height="278pt"
 viewBox="0.00 0.00 969.09 277.74" xmlns="http://www.w3.org/2000/svg" xmlns:xlink="http://www.w3.org/1999/xlink">
<g id="${uniqueid}" class="graph" transform="scale(1 1) rotate(0) translate(4 273.74)">
<title>VMware vCenter Alert Definitions/Virtual Machines/High Memory Utilization</title>
<polygon fill="white" stroke="none" points="-4,4 -4,-273.74 965.092,-273.74 965.092,4 -4,4"/>
<!-- VMHMU_Case
Statement -->
<g id="${uniqueid}_node1" class="node"><title>VMHMU_Case
Statement</title>
<g id="a_${uniqueid}_node1"><a xlink:href="#1413925610784" xlink:title="com.watch4net.alerting.operation.CaseOperation">
<polygon fill="#377eb8" stroke="black" points="373.546,-153.87 249.546,-153.87 249.546,-115.87 373.546,-115.87 373.546,-153.87"/>
<text text-anchor="middle" x="311.546" y="-138.67" font-family="Times,serif" font-size="14.00" fill="white">VMHMU_Case</text>
<text text-anchor="middle" x="311.546" y="-123.67" font-family="Times,serif" font-size="14.00" fill="white">Statement</text>
</a>
</g>
</g>
<!-- VM_Memory_Util_
Critical_Check -->
<g id="${uniqueid}_node5" class="node"><title>VM_Memory_Util_
Critical_Check</title>
<g id="a_${uniqueid}_node5"><a xlink:href="#2304223426029212" xlink:title="com.watch4net.alerting.operation.comparator.ConstantComparatorOperation">
<polygon fill="#ff7f00" stroke="black" points="560.546,-238.87 409.546,-200.87 560.546,-162.87 711.546,-200.87 560.546,-238.87"/>
<text text-anchor="middle" x="560.546" y="-204.67" font-family="Times,serif" font-size="14.00" fill="white">VM_Memory_Util_</text>
<text text-anchor="middle" x="560.546" y="-189.67" font-family="Times,serif" font-size="14.00" fill="white">Critical_Check</text>
</a>
</g>
</g>
<!-- VMHMU_Case
Statement&#45;&gt;VM_Memory_Util_
Critical_Check -->
<g id="${uniqueid}_edge1" class="edge"><title>VMHMU_Case
Statement:e&#45;&gt;VM_Memory_Util_
Critical_Check:w</title>
<path fill="none" stroke="black" d="M373.546,-134.87C402.783,-134.87 382.836,-185.401 399.777,-198.034"/>
<polygon fill="black" stroke="black" points="398.967,-201.444 409.546,-200.87 400.918,-194.721 398.967,-201.444"/>
</g>
<!-- VM_Memory_Util_
Major_Check -->
<g id="${uniqueid}_node8" class="node"><title>VM_Memory_Util_
Major_Check</title>
<g id="a_${uniqueid}_node8"><a xlink:href="#2304223426086065" xlink:title="com.watch4net.alerting.operation.comparator.ConstantComparatorOperation">
<polygon fill="#ff7f00" stroke="black" points="560.546,-106.87 409.546,-68.8701 560.546,-30.8701 711.546,-68.8701 560.546,-106.87"/>
<text text-anchor="middle" x="560.546" y="-72.6701" font-family="Times,serif" font-size="14.00" fill="white">VM_Memory_Util_</text>
<text text-anchor="middle" x="560.546" y="-57.6701" font-family="Times,serif" font-size="14.00" fill="white">Major_Check</text>
</a>
</g>
</g>
<!-- VMHMU_Case
Statement&#45;&gt;VM_Memory_Util_
Major_Check -->
<g id="${uniqueid}_edge2" class="edge"><title>VMHMU_Case
Statement:e&#45;&gt;VM_Memory_Util_
Major_Check:w</title>
<path fill="none" stroke="black" d="M373.546,-134.87C402.783,-134.87 382.836,-84.3388 399.777,-71.706"/>
<polygon fill="black" stroke="black" points="400.918,-75.0191 409.546,-68.8701 398.967,-68.2966 400.918,-75.0191"/>
</g>
<!-- VMHMU_Critical_
Clear -->
<g id="${uniqueid}_node2" class="node"><title>VMHMU_Critical_
Clear</title>
<g id="a_${uniqueid}_node2"><a xlink:href="#2304223426072302" xlink:title="com.watch4net.alerting.action.SNMPTrapAction">
<ellipse fill="#4daf4a" stroke="black" cx="854.319" cy="-242.87" rx="106.132" ry="26.7407"/>
<text text-anchor="middle" x="854.319" y="-246.67" font-family="Times,serif" font-size="14.00" fill="white">VMHMU_Critical_</text>
<text text-anchor="middle" x="854.319" y="-231.67" font-family="Times,serif" font-size="14.00" fill="white">Clear</text>
</a>
</g>
</g>
<!-- VMHMU_Major_
Clear -->
<g id="${uniqueid}_node3" class="node"><title>VMHMU_Major_
Clear</title>
<g id="a_${uniqueid}_node3"><a xlink:href="#2304223426119471" xlink:title="com.watch4net.alerting.action.SNMPTrapAction">
<ellipse fill="#4daf4a" stroke="black" cx="854.319" cy="-98.8701" rx="98.0761" ry="26.7407"/>
<text text-anchor="middle" x="854.319" y="-102.67" font-family="Times,serif" font-size="14.00" fill="white">VMHMU_Major_</text>
<text text-anchor="middle" x="854.319" y="-87.6701" font-family="Times,serif" font-size="14.00" fill="white">Clear</text>
</a>
</g>
</g>
<!-- VM_Memory_Util_
Critical -->
<g id="${uniqueid}_node4" class="node"><title>VM_Memory_Util_
Critical</title>
<g id="a_${uniqueid}_node4"><a xlink:href="#2304223426051424" xlink:title="com.watch4net.alerting.action.SNMPTrapAction">
<ellipse fill="#4daf4a" stroke="black" cx="854.319" cy="-170.87" rx="106.547" ry="26.7407"/>
<text text-anchor="middle" x="854.319" y="-174.67" font-family="Times,serif" font-size="14.00" fill="white">VM_Memory_Util_</text>
<text text-anchor="middle" x="854.319" y="-159.67" font-family="Times,serif" font-size="14.00" fill="white">Critical</text>
</a>
</g>
</g>
<!-- VM_Memory_Util_
Critical_Check&#45;&gt;VMHMU_Critical_
Clear -->
<g id="${uniqueid}_edge3" class="edge"><title>VM_Memory_Util_
Critical_Check:ne&#45;&gt;VMHMU_Critical_
Clear:w</title>
<path fill="none" stroke="black" d="M589.546,-230.87C592.08,-233.404 587.89,-236.465 590.546,-238.87 639.654,-283.347 674.102,-246.991 737.172,-243.184"/>
<polygon fill="black" stroke="black" points="737.657,-246.671 747.546,-242.87 737.445,-239.674 737.657,-246.671"/>
<text text-anchor="middle" x="572.546" y="-234.67" font-family="Times,serif" font-size="14.00">false</text>
</g>
<!-- VM_Memory_Util_
Critical_Check&#45;&gt;VM_Memory_Util_
Critical -->
<g id="${uniqueid}_edge4" class="edge"><title>VM_Memory_Util_
Critical_Check:se&#45;&gt;VM_Memory_Util_
Critical:w</title>
<path fill="none" stroke="black" d="M591.546,-170.87C638.083,-124.334 674.361,-166.144 737.223,-170.51"/>
<polygon fill="black" stroke="black" points="737.43,-174.019 747.546,-170.87 737.674,-167.024 737.43,-174.019"/>
<text text-anchor="middle" x="576.046" y="-159.67" font-family="Times,serif" font-size="14.00">true</text>
</g>
<!-- VM_Memory_Util_
Filter -->
<g id="${uniqueid}_node6" class="node"><title>VM_Memory_Util_
Filter</title>
<g id="a_${uniqueid}_node6"><a xlink:href="#2304223425964705" xlink:title="com.watch4net.alerting.operation.FilteredEntryPoint">
<ellipse fill="#984ea3" stroke="black" cx="106.773" cy="-134.87" rx="106.547" ry="26.7407"/>
<text text-anchor="middle" x="106.773" y="-138.67" font-family="Times,serif" font-size="14.00" fill="white">VM_Memory_Util_</text>
<text text-anchor="middle" x="106.773" y="-123.67" font-family="Times,serif" font-size="14.00" fill="white">Filter</text>
</a>
</g>
</g>
<!-- VM_Memory_Util_
Filter&#45;&gt;VMHMU_Case
Statement -->
<g id="${uniqueid}_edge5" class="edge"><title>VM_Memory_Util_
Filter:e&#45;&gt;VMHMU_Case
Statement:w</title>
<path fill="none" stroke="black" d="M213.546,-134.87C225.546,-134.87 230.796,-134.87 239.421,-134.87"/>
<polygon fill="black" stroke="black" points="239.546,-138.37 249.546,-134.87 239.546,-131.37 239.546,-138.37"/>
</g>
<!-- VM_Memory_Util_
Major -->
<g id="${uniqueid}_node7" class="node"><title>VM_Memory_Util_
Major</title>
<g id="a_${uniqueid}_node7"><a xlink:href="#2304223426102450" xlink:title="com.watch4net.alerting.action.SNMPTrapAction">
<ellipse fill="#4daf4a" stroke="black" cx="854.319" cy="-26.8701" rx="106.547" ry="26.7407"/>
<text text-anchor="middle" x="854.319" y="-30.6701" font-family="Times,serif" font-size="14.00" fill="white">VM_Memory_Util_</text>
<text text-anchor="middle" x="854.319" y="-15.6701" font-family="Times,serif" font-size="14.00" fill="white">Major</text>
</a>
</g>
</g>
<!-- VM_Memory_Util_
Major_Check&#45;&gt;VMHMU_Major_
Clear -->
<g id="${uniqueid}_edge6" class="edge"><title>VM_Memory_Util_
Major_Check:ne&#45;&gt;VMHMU_Major_
Clear:w</title>
<path fill="none" stroke="black" d="M589.546,-98.8701C592.08,-101.404 587.86,-104.499 590.546,-106.87 630.862,-142.46 657.988,-111.724 711.546,-106.87 727.396,-105.434 733.275,-101.129 745.272,-99.502"/>
<polygon fill="black" stroke="black" points="745.559,-102.991 755.319,-98.8701 745.119,-96.0048 745.559,-102.991"/>
<text text-anchor="middle" x="572.546" y="-102.67" font-family="Times,serif" font-size="14.00">false</text>
</g>
<!-- VM_Memory_Util_
Major_Check&#45;&gt;VM_Memory_Util_
Major -->
<g id="${uniqueid}_edge7" class="edge"><title>VM_Memory_Util_
Major_Check:se&#45;&gt;VM_Memory_Util_
Major:w</title>
<path fill="none" stroke="black" d="M591.546,-38.8701C638.22,7.80389 674.19,-23.3175 737.196,-26.5987"/>
<polygon fill="black" stroke="black" points="737.458,-30.1066 747.546,-26.8701 737.641,-23.109 737.458,-30.1066"/>
<text text-anchor="middle" x="576.046" y="-27.6701" font-family="Times,serif" font-size="14.00">true</text>
</g>
</g>
</svg>
