<?xml version="1.0" encoding="UTF-8" standalone="no"?>
<!DOCTYPE svg PUBLIC "-//W3C//DTD SVG 1.1//EN"
 "http://www.w3.org/Graphics/SVG/1.1/DTD/svg11.dtd">
<!-- Generated by graphviz version 2.38.0 (20140413.2041)
 -->
<!-- Title: IBMDS5k Alert Definitions/IBMDS5k&#45;Lun/Read Requests Pages: 1 -->
<svg width="987pt" height="422pt"
 viewBox="0.00 0.00 987.45 421.74" xmlns="http://www.w3.org/2000/svg" xmlns:xlink="http://www.w3.org/1999/xlink">
<g id="${uniqueid}" class="graph" transform="scale(1 1) rotate(0) translate(4 417.74)">
<title>IBMDS5k Alert Definitions/IBMDS5k&#45;Lun/Read Requests</title>
<polygon fill="white" stroke="none" points="-4,4 -4,-417.74 983.453,-417.74 983.453,4 -4,4"/>
<!-- LUN read req
entry -->
<g id="${uniqueid}_node1" class="node"><title>LUN read req
entry</title>
<g id="a_${uniqueid}_node1"><a xlink:href="#2452003926852911" xlink:title="com.watch4net.alerting.operation.FilteredEntryPoint">
<ellipse fill="#984ea3" stroke="black" cx="81.3173" cy="-206.87" rx="81.135" ry="26.7407"/>
<text text-anchor="middle" x="81.3173" y="-210.67" font-family="Times,serif" font-size="14.00" fill="white">LUN read req</text>
<text text-anchor="middle" x="81.3173" y="-195.67" font-family="Times,serif" font-size="14.00" fill="white">entry</text>
</a>
</g>
</g>
<!-- Roundoff -->
<g id="${uniqueid}_node12" class="node"><title>Roundoff</title>
<g id="a_${uniqueid}_node12"><a xlink:href="#1441797742366" xlink:title="com.watch4net.alerting.operation.math.ConstantMathOperation">
<polygon fill="#377eb8" stroke="black" points="279.635,-224.87 198.635,-224.87 198.635,-188.87 279.635,-188.87 279.635,-224.87"/>
<text text-anchor="middle" x="239.135" y="-203.17" font-family="Times,serif" font-size="14.00" fill="white">Roundoff</text>
</a>
</g>
</g>
<!-- LUN read req
entry&#45;&gt;Roundoff -->
<g id="${uniqueid}_edge1" class="edge"><title>LUN read req
entry:e&#45;&gt;Roundoff:w</title>
<path fill="none" stroke="black" d="M162.635,-206.87C174.635,-206.87 179.885,-206.87 188.51,-206.87"/>
<polygon fill="black" stroke="black" points="188.635,-210.37 198.635,-206.87 188.635,-203.37 188.635,-210.37"/>
</g>
<!-- Read Req Case -->
<g id="${uniqueid}_node2" class="node"><title>Read Req Case</title>
<g id="a_${uniqueid}_node2"><a xlink:href="#2452003926902284" xlink:title="com.watch4net.alerting.operation.CaseOperation">
<polygon fill="#377eb8" stroke="black" points="440.635,-224.87 315.635,-224.87 315.635,-188.87 440.635,-188.87 440.635,-224.87"/>
<text text-anchor="middle" x="378.135" y="-203.17" font-family="Times,serif" font-size="14.00" fill="white">Read Req Case</text>
</a>
</g>
</g>
<!-- Read Req Maj
Comp -->
<g id="${uniqueid}_node3" class="node"><title>Read Req Maj
Comp</title>
<g id="a_${uniqueid}_node3"><a xlink:href="#2452003926952415" xlink:title="com.watch4net.alerting.operation.comparator.ConstantComparatorOperation">
<polygon fill="#ff7f00" stroke="black" points="609.635,-381.87 492.635,-343.87 609.635,-305.87 726.635,-343.87 609.635,-381.87"/>
<text text-anchor="middle" x="609.635" y="-347.67" font-family="Times,serif" font-size="14.00" fill="white">Read Req Maj</text>
<text text-anchor="middle" x="609.635" y="-332.67" font-family="Times,serif" font-size="14.00" fill="white">Comp</text>
</a>
</g>
</g>
<!-- Read Req Case&#45;&gt;Read Req Maj
Comp -->
<g id="${uniqueid}_edge2" class="edge"><title>Read Req Case:e&#45;&gt;Read Req Maj
Comp:w</title>
<path fill="none" stroke="black" d="M440.635,-206.87C501.799,-206.87 435.42,-328.286 481.638,-342.514"/>
<polygon fill="black" stroke="black" points="481.255,-345.994 491.635,-343.87 482.196,-339.058 481.255,-345.994"/>
</g>
<!-- Read Req Minor
Comp -->
<g id="${uniqueid}_node4" class="node"><title>Read Req Minor
Comp</title>
<g id="a_${uniqueid}_node4"><a xlink:href="#2452003926983787" xlink:title="com.watch4net.alerting.operation.comparator.ConstantComparatorOperation">
<polygon fill="#ff7f00" stroke="black" points="609.635,-244.87 476.635,-206.87 609.635,-168.87 742.635,-206.87 609.635,-244.87"/>
<text text-anchor="middle" x="609.635" y="-210.67" font-family="Times,serif" font-size="14.00" fill="white">Read Req Minor</text>
<text text-anchor="middle" x="609.635" y="-195.67" font-family="Times,serif" font-size="14.00" fill="white">Comp</text>
</a>
</g>
</g>
<!-- Read Req Case&#45;&gt;Read Req Minor
Comp -->
<g id="${uniqueid}_edge3" class="edge"><title>Read Req Case:e&#45;&gt;Read Req Minor
Comp:w</title>
<path fill="none" stroke="black" d="M440.635,-206.87C452.635,-206.87 457.885,-206.87 466.51,-206.87"/>
<polygon fill="black" stroke="black" points="466.635,-210.37 476.635,-206.87 466.635,-203.37 466.635,-210.37"/>
</g>
<!-- ReadReq Crit
comp -->
<g id="${uniqueid}_node5" class="node"><title>ReadReq Crit
comp</title>
<g id="a_${uniqueid}_node5"><a xlink:href="#2452003926913082" xlink:title="com.watch4net.alerting.operation.comparator.ConstantComparatorOperation">
<polygon fill="#ff7f00" stroke="black" points="609.635,-107.87 496.635,-69.8701 609.635,-31.8701 722.635,-69.8701 609.635,-107.87"/>
<text text-anchor="middle" x="609.635" y="-73.6701" font-family="Times,serif" font-size="14.00" fill="white">ReadReq Crit</text>
<text text-anchor="middle" x="609.635" y="-58.6701" font-family="Times,serif" font-size="14.00" fill="white">comp</text>
</a>
</g>
</g>
<!-- Read Req Case&#45;&gt;ReadReq Crit
comp -->
<g id="${uniqueid}_edge4" class="edge"><title>Read Req Case:e&#45;&gt;ReadReq Crit
comp:w</title>
<path fill="none" stroke="black" d="M440.635,-206.87C502.402,-206.87 438.468,-85.4544 485.505,-71.226"/>
<polygon fill="black" stroke="black" points="486.187,-74.666 495.635,-69.8701 485.259,-67.7278 486.187,-74.666"/>
</g>
<!-- ReadReq_Major
Trap -->
<g id="${uniqueid}_node8" class="node"><title>ReadReq_Major
Trap</title>
<g id="a_${uniqueid}_node8"><a xlink:href="#2452003926966813" xlink:title="com.watch4net.alerting.action.SNMPTrapAction">
<ellipse fill="#4daf4a" stroke="black" cx="879.044" cy="-314.87" rx="92.7622" ry="26.7407"/>
<text text-anchor="middle" x="879.044" y="-318.67" font-family="Times,serif" font-size="14.00" fill="white">ReadReq_Major</text>
<text text-anchor="middle" x="879.044" y="-303.67" font-family="Times,serif" font-size="14.00" fill="white">Trap</text>
</a>
</g>
</g>
<!-- Read Req Maj
Comp&#45;&gt;ReadReq_Major
Trap -->
<g id="${uniqueid}_edge6" class="edge"><title>Read Req Maj
Comp:se&#45;&gt;ReadReq_Major
Trap:w</title>
<path fill="none" stroke="black" d="M639.635,-314.87C682.833,-271.671 716.548,-310.145 774.699,-314.482"/>
<polygon fill="black" stroke="black" points="774.92,-317.993 785.044,-314.87 775.182,-310.998 774.92,-317.993"/>
<text text-anchor="middle" x="624.135" y="-303.67" font-family="Times,serif" font-size="14.00">true</text>
</g>
<!-- ReadReq_Major_
Clear -->
<g id="${uniqueid}_node9" class="node"><title>ReadReq_Major_
Clear</title>
<g id="a_${uniqueid}_node9"><a xlink:href="#1426752478406" xlink:title="com.watch4net.alerting.action.SNMPTrapAction">
<ellipse fill="#4daf4a" stroke="black" cx="879.044" cy="-386.87" rx="97.6615" ry="26.7407"/>
<text text-anchor="middle" x="879.044" y="-390.67" font-family="Times,serif" font-size="14.00" fill="white">ReadReq_Major_</text>
<text text-anchor="middle" x="879.044" y="-375.67" font-family="Times,serif" font-size="14.00" fill="white">Clear</text>
</a>
</g>
</g>
<!-- Read Req Maj
Comp&#45;&gt;ReadReq_Major_
Clear -->
<g id="${uniqueid}_edge5" class="edge"><title>Read Req Maj
Comp:ne&#45;&gt;ReadReq_Major_
Clear:w</title>
<path fill="none" stroke="black" d="M637.635,-372.87C640.48,-375.716 635.684,-379.133 638.635,-381.87 682.224,-422.294 713.57,-390.76 769.992,-387.19"/>
<polygon fill="black" stroke="black" points="770.16,-390.686 780.044,-386.87 769.938,-383.69 770.16,-390.686"/>
<text text-anchor="middle" x="620.635" y="-376.67" font-family="Times,serif" font-size="14.00">false</text>
</g>
<!-- ReadReq_Minor
Trap -->
<g id="${uniqueid}_node10" class="node"><title>ReadReq_Minor
Trap</title>
<g id="a_${uniqueid}_node10"><a xlink:href="#2452003926997716" xlink:title="com.watch4net.alerting.action.SNMPTrapAction">
<ellipse fill="#4daf4a" stroke="black" cx="879.044" cy="-170.87" rx="92.7622" ry="26.7407"/>
<text text-anchor="middle" x="879.044" y="-174.67" font-family="Times,serif" font-size="14.00" fill="white">ReadReq_Minor</text>
<text text-anchor="middle" x="879.044" y="-159.67" font-family="Times,serif" font-size="14.00" fill="white">Trap</text>
</a>
</g>
</g>
<!-- Read Req Minor
Comp&#45;&gt;ReadReq_Minor
Trap -->
<g id="${uniqueid}_edge8" class="edge"><title>Read Req Minor
Comp:se&#45;&gt;ReadReq_Minor
Trap:w</title>
<path fill="none" stroke="black" d="M640.635,-176.87C683.573,-133.932 716.974,-166.812 774.763,-170.537"/>
<polygon fill="black" stroke="black" points="774.936,-174.044 785.044,-170.87 775.162,-167.048 774.936,-174.044"/>
<text text-anchor="middle" x="625.135" y="-165.67" font-family="Times,serif" font-size="14.00">true</text>
</g>
<!-- ReadReq_Minor_
Clear -->
<g id="${uniqueid}_node11" class="node"><title>ReadReq_Minor_
Clear</title>
<g id="a_${uniqueid}_node11"><a xlink:href="#1426752537801" xlink:title="com.watch4net.alerting.action.SNMPTrapAction">
<ellipse fill="#4daf4a" stroke="black" cx="879.044" cy="-242.87" rx="98.0761" ry="26.7407"/>
<text text-anchor="middle" x="879.044" y="-246.67" font-family="Times,serif" font-size="14.00" fill="white">ReadReq_Minor_</text>
<text text-anchor="middle" x="879.044" y="-231.67" font-family="Times,serif" font-size="14.00" fill="white">Clear</text>
</a>
</g>
</g>
<!-- Read Req Minor
Comp&#45;&gt;ReadReq_Minor_
Clear -->
<g id="${uniqueid}_edge7" class="edge"><title>Read Req Minor
Comp:ne&#45;&gt;ReadReq_Minor_
Clear:w</title>
<path fill="none" stroke="black" d="M638.635,-236.87C641.168,-239.404 636.948,-242.499 639.635,-244.87 673.953,-275.166 696.873,-246.092 742.635,-244.87 755.248,-244.533 760.666,-243.558 769.796,-243.106"/>
<polygon fill="black" stroke="black" points="770.127,-246.599 780.044,-242.87 769.966,-239.601 770.127,-246.599"/>
<text text-anchor="middle" x="621.635" y="-240.67" font-family="Times,serif" font-size="14.00">false</text>
</g>
<!-- ReadReq_
Critical_Clear -->
<g id="${uniqueid}_node6" class="node"><title>ReadReq_
Critical_Clear</title>
<g id="a_${uniqueid}_node6"><a xlink:href="#1426752428166" xlink:title="com.watch4net.alerting.action.SNMPTrapAction">
<ellipse fill="#4daf4a" stroke="black" cx="879.044" cy="-98.8701" rx="82.9636" ry="26.7407"/>
<text text-anchor="middle" x="879.044" y="-102.67" font-family="Times,serif" font-size="14.00" fill="white">ReadReq_</text>
<text text-anchor="middle" x="879.044" y="-87.6701" font-family="Times,serif" font-size="14.00" fill="white">Critical_Clear</text>
</a>
</g>
</g>
<!-- ReadReq Crit
comp&#45;&gt;ReadReq_
Critical_Clear -->
<g id="${uniqueid}_edge9" class="edge"><title>ReadReq Crit
comp:ne&#45;&gt;ReadReq_
Critical_Clear:w</title>
<path fill="none" stroke="black" d="M637.635,-98.8701C640.48,-101.716 635.636,-105.186 638.635,-107.87 687.883,-151.95 721.826,-104.238 784.698,-99.2783"/>
<polygon fill="black" stroke="black" points="785.19,-102.762 795.044,-98.8701 784.913,-95.7672 785.19,-102.762"/>
<text text-anchor="middle" x="620.635" y="-102.67" font-family="Times,serif" font-size="14.00">false</text>
</g>
<!-- ReadReq_Critical
Trap -->
<g id="${uniqueid}_node7" class="node"><title>ReadReq_Critical
Trap</title>
<g id="a_${uniqueid}_node7"><a xlink:href="#2452003926931922" xlink:title="com.watch4net.alerting.action.SNMPTrapAction">
<ellipse fill="#4daf4a" stroke="black" cx="879.044" cy="-26.8701" rx="100.318" ry="26.7407"/>
<text text-anchor="middle" x="879.044" y="-30.6701" font-family="Times,serif" font-size="14.00" fill="white">ReadReq_Critical</text>
<text text-anchor="middle" x="879.044" y="-15.6701" font-family="Times,serif" font-size="14.00" fill="white">Trap</text>
</a>
</g>
</g>
<!-- ReadReq Crit
comp&#45;&gt;ReadReq_Critical
Trap -->
<g id="${uniqueid}_edge10" class="edge"><title>ReadReq Crit
comp:se&#45;&gt;ReadReq_Critical
Trap:w</title>
<path fill="none" stroke="black" d="M639.635,-40.8701C681.052,0.547662 712.77,-23.7192 768.357,-26.6011"/>
<polygon fill="black" stroke="black" points="768.546,-30.1072 778.635,-26.8701 768.73,-23.1096 768.546,-30.1072"/>
<text text-anchor="middle" x="624.135" y="-29.6701" font-family="Times,serif" font-size="14.00">true</text>
</g>
<!-- Roundoff&#45;&gt;Read Req Case -->
<g id="${uniqueid}_edge11" class="edge"><title>Roundoff:e&#45;&gt;Read Req Case:w</title>
<path fill="none" stroke="black" d="M279.635,-206.87C291.635,-206.87 296.885,-206.87 305.51,-206.87"/>
<polygon fill="black" stroke="black" points="305.635,-210.37 315.635,-206.87 305.635,-203.37 305.635,-210.37"/>
</g>
</g>
</svg>
