<?xml version="1.0" encoding="UTF-8" standalone="no"?>
<!DOCTYPE svg PUBLIC "-//W3C//DTD SVG 1.1//EN"
 "http://www.w3.org/Graphics/SVG/1.1/DTD/svg11.dtd">
<!-- Generated by graphviz version 2.38.0 (20140413.2041)
 -->
<!-- Title: EMC VMAX Alert Definitions/VMAX&#45;SRDF(A)/SRDF links failure Pages: 1 -->
<svg width="633pt" height="103pt"
 viewBox="0.00 0.00 633.06 103.47" xmlns="http://www.w3.org/2000/svg" xmlns:xlink="http://www.w3.org/1999/xlink">
<g id="${uniqueid}" class="graph" transform="scale(1 1) rotate(0) translate(4 99.4693)">
<title>EMC VMAX Alert Definitions/VMAX&#45;SRDF(A)/SRDF links failure</title>
<polygon fill="white" stroke="none" points="-4,4 -4,-99.4693 629.062,-99.4693 629.062,4 -4,4"/>
<!-- 1064_alert_trap -->
<g id="${uniqueid}_node1" class="node"><title>1064_alert_trap</title>
<g id="a_${uniqueid}_node1"><a xlink:href="#239609989696326" xlink:title="com.watch4net.alerting.action.SNMPTrapAction">
<ellipse fill="#4daf4a" stroke="black" cx="539.919" cy="-18" rx="85.2851" ry="18"/>
<text text-anchor="middle" x="539.919" y="-14.3" font-family="Times,serif" font-size="14.00" fill="white">1064_alert_trap</text>
</a>
</g>
</g>
<!-- 1065_alert_trap -->
<g id="${uniqueid}_node2" class="node"><title>1065_alert_trap</title>
<g id="a_${uniqueid}_node2"><a xlink:href="#239609989714577" xlink:title="com.watch4net.alerting.action.SNMPTrapAction">
<ellipse fill="#4daf4a" stroke="black" cx="539.919" cy="-74" rx="85.2851" ry="18"/>
<text text-anchor="middle" x="539.919" y="-70.3" font-family="Times,serif" font-size="14.00" fill="white">1065_alert_trap</text>
</a>
</g>
</g>
<!-- SRDF Links
Comparator -->
<g id="${uniqueid}_node3" class="node"><title>SRDF Links
Comparator</title>
<g id="a_${uniqueid}_node3"><a xlink:href="#239609989672245" xlink:title="com.watch4net.alerting.operation.comparator.StringComparatorOperation">
<polygon fill="#ff7f00" stroke="black" points="315.777,-84 212.777,-46 315.777,-8 418.777,-46 315.777,-84"/>
<text text-anchor="middle" x="315.777" y="-49.8" font-family="Times,serif" font-size="14.00" fill="white">SRDF Links</text>
<text text-anchor="middle" x="315.777" y="-34.8" font-family="Times,serif" font-size="14.00" fill="white">Comparator</text>
</a>
</g>
</g>
<!-- SRDF Links
Comparator&#45;&gt;1064_alert_trap -->
<g id="${uniqueid}_edge2" class="edge"><title>SRDF Links
Comparator:se&#45;&gt;1064_alert_trap:w</title>
<path fill="none" stroke="black" d="M344.777,-18C376.916,14.139 402.116,-13.4805 444.785,-17.5233"/>
<polygon fill="black" stroke="black" points="444.621,-21.0194 454.777,-18 444.955,-14.0274 444.621,-21.0194"/>
<text text-anchor="middle" x="329.277" y="-6.8" font-family="Times,serif" font-size="14.00">true</text>
</g>
<!-- SRDF Links
Comparator&#45;&gt;1065_alert_trap -->
<g id="${uniqueid}_edge1" class="edge"><title>SRDF Links
Comparator:ne&#45;&gt;1065_alert_trap:w</title>
<path fill="none" stroke="black" d="M342.777,-74C344.356,-75.5792 342.121,-82.5014 343.777,-84 368.492,-106.367 385.749,-88.502 418.777,-84 431.245,-82.3004 435.954,-77.434 444.73,-75.1765"/>
<polygon fill="black" stroke="black" points="445.252,-78.6394 454.777,-74 444.437,-71.6869 445.252,-78.6394"/>
<text text-anchor="middle" x="325.777" y="-77.8" font-family="Times,serif" font-size="14.00">false</text>
</g>
<!-- SRDF link RDF
group filter -->
<g id="${uniqueid}_node4" class="node"><title>SRDF link RDF
group filter</title>
<g id="a_${uniqueid}_node4"><a xlink:href="#239609989620750" xlink:title="com.watch4net.alerting.operation.FilteredEntryPoint">
<ellipse fill="#984ea3" stroke="black" cx="88.3883" cy="-46" rx="88.2768" ry="26.7407"/>
<text text-anchor="middle" x="88.3883" y="-49.8" font-family="Times,serif" font-size="14.00" fill="white">SRDF link RDF</text>
<text text-anchor="middle" x="88.3883" y="-34.8" font-family="Times,serif" font-size="14.00" fill="white">group filter</text>
</a>
</g>
</g>
<!-- SRDF link RDF
group filter&#45;&gt;SRDF Links
Comparator -->
<g id="${uniqueid}_edge3" class="edge"><title>SRDF link RDF
group filter:e&#45;&gt;SRDF Links
Comparator:w</title>
<path fill="none" stroke="black" d="M176.777,-46C188.777,-46 194.027,-46 202.652,-46"/>
<polygon fill="black" stroke="black" points="202.777,-49.5001 212.777,-46 202.777,-42.5001 202.777,-49.5001"/>
</g>
</g>
</svg>
