<?xml version="1.0" encoding="UTF-8" standalone="no"?>
<!DOCTYPE svg PUBLIC "-//W3C//DTD SVG 1.1//EN"
 "http://www.w3.org/Graphics/SVG/1.1/DTD/svg11.dtd">
<!-- Generated by graphviz version 2.38.0 (20140413.2041)
 -->
<!-- Title: NetApp Filer Alert Definitions/NetApp&#45;LUN/Read IO Rate Pages: 1 -->
<svg width="955pt" height="272pt"
 viewBox="0.00 0.00 955.36 272.00" xmlns="http://www.w3.org/2000/svg" xmlns:xlink="http://www.w3.org/1999/xlink">
<g id="${uniqueid}" class="graph" transform="scale(1 1) rotate(0) translate(4 268)">
<title>NetApp Filer Alert Definitions/NetApp&#45;LUN/Read IO Rate</title>
<polygon fill="white" stroke="none" points="-4,4 -4,-268 951.365,-268 951.365,4 -4,4"/>
<!-- LUN Read IORate
Entry -->
<g id="${uniqueid}_node1" class="node"><title>LUN Read IORate
Entry</title>
<g id="a_${uniqueid}_node1"><a xlink:href="#202237078493591" xlink:title="com.watch4net.alerting.operation.FilteredEntryPoint">
<ellipse fill="#984ea3" stroke="black" cx="102.53" cy="-132" rx="102.561" ry="26.7407"/>
<text text-anchor="middle" x="102.53" y="-135.8" font-family="Times,serif" font-size="14.00" fill="white">LUN Read IORate</text>
<text text-anchor="middle" x="102.53" y="-120.8" font-family="Times,serif" font-size="14.00" fill="white">Entry</text>
</a>
</g>
</g>
<!-- LUN Read IORate
case -->
<g id="${uniqueid}_node2" class="node"><title>LUN Read IORate
case</title>
<g id="a_${uniqueid}_node2"><a xlink:href="#202237078534928" xlink:title="com.watch4net.alerting.operation.CaseOperation">
<polygon fill="#377eb8" stroke="black" points="386.061,-151 241.061,-151 241.061,-113 386.061,-113 386.061,-151"/>
<text text-anchor="middle" x="313.561" y="-135.8" font-family="Times,serif" font-size="14.00" fill="white">LUN Read IORate</text>
<text text-anchor="middle" x="313.561" y="-120.8" font-family="Times,serif" font-size="14.00" fill="white">case</text>
</a>
</g>
</g>
<!-- LUN Read IORate
Entry&#45;&gt;LUN Read IORate
case -->
<g id="${uniqueid}_edge1" class="edge"><title>LUN Read IORate
Entry:e&#45;&gt;LUN Read IORate
case:w</title>
<path fill="none" stroke="black" d="M205.061,-132C217.061,-132 222.311,-132 230.936,-132"/>
<polygon fill="black" stroke="black" points="231.061,-135.5 241.061,-132 231.061,-128.5 231.061,-135.5"/>
</g>
<!-- LUN ReadIORate
CRIT check -->
<g id="${uniqueid}_node3" class="node"><title>LUN ReadIORate
CRIT check</title>
<g id="a_${uniqueid}_node3"><a xlink:href="#202237078543994" xlink:title="com.watch4net.alerting.operation.comparator.ConstantComparatorOperation">
<polygon fill="#ff7f00" stroke="black" points="562.061,-264 422.061,-226 562.061,-188 702.061,-226 562.061,-264"/>
<text text-anchor="middle" x="562.061" y="-229.8" font-family="Times,serif" font-size="14.00" fill="white">LUN ReadIORate</text>
<text text-anchor="middle" x="562.061" y="-214.8" font-family="Times,serif" font-size="14.00" fill="white">CRIT check</text>
</a>
</g>
</g>
<!-- LUN Read IORate
case&#45;&gt;LUN ReadIORate
CRIT check -->
<g id="${uniqueid}_edge2" class="edge"><title>LUN Read IORate
case:e&#45;&gt;LUN ReadIORate
CRIT check:w</title>
<path fill="none" stroke="black" d="M386.061,-132C426.778,-132 386.14,-209.868 412.239,-223.86"/>
<polygon fill="black" stroke="black" points="411.545,-227.291 422.061,-226 413.035,-220.451 411.545,-227.291"/>
</g>
<!-- LUN ReadIORate
MAJ check -->
<g id="${uniqueid}_node4" class="node"><title>LUN ReadIORate
MAJ check</title>
<g id="a_${uniqueid}_node4"><a xlink:href="#202237078613575" xlink:title="com.watch4net.alerting.operation.comparator.ConstantComparatorOperation">
<polygon fill="#ff7f00" stroke="black" points="562.061,-170 422.061,-132 562.061,-94 702.061,-132 562.061,-170"/>
<text text-anchor="middle" x="562.061" y="-135.8" font-family="Times,serif" font-size="14.00" fill="white">LUN ReadIORate</text>
<text text-anchor="middle" x="562.061" y="-120.8" font-family="Times,serif" font-size="14.00" fill="white">MAJ check</text>
</a>
</g>
</g>
<!-- LUN Read IORate
case&#45;&gt;LUN ReadIORate
MAJ check -->
<g id="${uniqueid}_edge3" class="edge"><title>LUN Read IORate
case:e&#45;&gt;LUN ReadIORate
MAJ check:w</title>
<path fill="none" stroke="black" d="M386.061,-132C398.061,-132 403.311,-132 411.936,-132"/>
<polygon fill="black" stroke="black" points="412.061,-135.5 422.061,-132 412.061,-128.5 412.061,-135.5"/>
</g>
<!-- LUN ReadIORate
MIN check -->
<g id="${uniqueid}_node5" class="node"><title>LUN ReadIORate
MIN check</title>
<g id="a_${uniqueid}_node5"><a xlink:href="#202237078637870" xlink:title="com.watch4net.alerting.operation.comparator.ConstantComparatorOperation">
<polygon fill="#ff7f00" stroke="black" points="562.061,-76 422.061,-38 562.061,-7.10543e-15 702.061,-38 562.061,-76"/>
<text text-anchor="middle" x="562.061" y="-41.8" font-family="Times,serif" font-size="14.00" fill="white">LUN ReadIORate</text>
<text text-anchor="middle" x="562.061" y="-26.8" font-family="Times,serif" font-size="14.00" fill="white">MIN check</text>
</a>
</g>
</g>
<!-- LUN Read IORate
case&#45;&gt;LUN ReadIORate
MIN check -->
<g id="${uniqueid}_edge4" class="edge"><title>LUN Read IORate
case:e&#45;&gt;LUN ReadIORate
MIN check:w</title>
<path fill="none" stroke="black" d="M386.061,-132C426.778,-132 386.14,-54.1319 412.239,-40.1399"/>
<polygon fill="black" stroke="black" points="413.035,-43.5486 422.061,-38 411.545,-36.709 413.035,-43.5486"/>
</g>
<!-- LUN ReadIORate_
CRIT trap -->
<g id="${uniqueid}_node6" class="node"><title>LUN ReadIORate_
CRIT trap</title>
<g id="a_${uniqueid}_node6"><a xlink:href="#202237078573400" xlink:title="com.watch4net.alerting.action.SNMPTrapAction">
<ellipse fill="#4daf4a" stroke="black" cx="842.713" cy="-226" rx="104.804" ry="26.7407"/>
<text text-anchor="middle" x="842.713" y="-229.8" font-family="Times,serif" font-size="14.00" fill="white">LUN ReadIORate_</text>
<text text-anchor="middle" x="842.713" y="-214.8" font-family="Times,serif" font-size="14.00" fill="white">CRIT trap</text>
</a>
</g>
</g>
<!-- LUN ReadIORate
CRIT check&#45;&gt;LUN ReadIORate_
CRIT trap -->
<g id="${uniqueid}_edge5" class="edge"><title>LUN ReadIORate
CRIT check:e&#45;&gt;LUN ReadIORate_
CRIT trap:w</title>
<path fill="none" stroke="black" d="M702.061,-226C714.061,-226 719.311,-226 727.936,-226"/>
<polygon fill="black" stroke="black" points="728.061,-229.5 738.061,-226 728.061,-222.5 728.061,-229.5"/>
<text text-anchor="middle" x="717.561" y="-214.8" font-family="Times,serif" font-size="14.00">true</text>
</g>
<!-- LUN ReadIORate_
Major trap -->
<g id="${uniqueid}_node7" class="node"><title>LUN ReadIORate_
Major trap</title>
<g id="a_${uniqueid}_node7"><a xlink:href="#202237078625809" xlink:title="com.watch4net.alerting.action.SNMPTrapAction">
<ellipse fill="#4daf4a" stroke="black" cx="842.713" cy="-132" rx="104.804" ry="26.7407"/>
<text text-anchor="middle" x="842.713" y="-135.8" font-family="Times,serif" font-size="14.00" fill="white">LUN ReadIORate_</text>
<text text-anchor="middle" x="842.713" y="-120.8" font-family="Times,serif" font-size="14.00" fill="white">Major trap</text>
</a>
</g>
</g>
<!-- LUN ReadIORate
MAJ check&#45;&gt;LUN ReadIORate_
Major trap -->
<g id="${uniqueid}_edge6" class="edge"><title>LUN ReadIORate
MAJ check:e&#45;&gt;LUN ReadIORate_
Major trap:w</title>
<path fill="none" stroke="black" d="M702.061,-132C714.061,-132 719.311,-132 727.936,-132"/>
<polygon fill="black" stroke="black" points="728.061,-135.5 738.061,-132 728.061,-128.5 728.061,-135.5"/>
<text text-anchor="middle" x="717.561" y="-120.8" font-family="Times,serif" font-size="14.00">true</text>
</g>
<!-- LUN ReadIORate_
Minor trap -->
<g id="${uniqueid}_node8" class="node"><title>LUN ReadIORate_
Minor trap</title>
<g id="a_${uniqueid}_node8"><a xlink:href="#202237078647853" xlink:title="com.watch4net.alerting.action.SNMPTrapAction">
<ellipse fill="#4daf4a" stroke="black" cx="842.713" cy="-38" rx="104.804" ry="26.7407"/>
<text text-anchor="middle" x="842.713" y="-41.8" font-family="Times,serif" font-size="14.00" fill="white">LUN ReadIORate_</text>
<text text-anchor="middle" x="842.713" y="-26.8" font-family="Times,serif" font-size="14.00" fill="white">Minor trap</text>
</a>
</g>
</g>
<!-- LUN ReadIORate
MIN check&#45;&gt;LUN ReadIORate_
Minor trap -->
<g id="${uniqueid}_edge7" class="edge"><title>LUN ReadIORate
MIN check:e&#45;&gt;LUN ReadIORate_
Minor trap:w</title>
<path fill="none" stroke="black" d="M702.061,-38C714.061,-38 719.311,-38 727.936,-38"/>
<polygon fill="black" stroke="black" points="728.061,-41.5001 738.061,-38 728.061,-34.5001 728.061,-41.5001"/>
<text text-anchor="middle" x="717.561" y="-26.8" font-family="Times,serif" font-size="14.00">true</text>
</g>
</g>
</svg>
