<?xml version="1.0" encoding="UTF-8" standalone="no"?>
<!DOCTYPE svg PUBLIC "-//W3C//DTD SVG 1.1//EN"
 "http://www.w3.org/Graphics/SVG/1.1/DTD/svg11.dtd">
<!-- Generated by graphviz version 2.38.0 (20140413.2041)
 -->
<!-- Title: EMC VPLEX Alert Definitions/VPLEX&#45;Virtual Volumes/Operational Status Pages: 1 -->
<svg width="646pt" height="424pt"
 viewBox="0.00 0.00 645.59 424.35" xmlns="http://www.w3.org/2000/svg" xmlns:xlink="http://www.w3.org/1999/xlink">
<g id="${uniqueid}" class="graph" transform="scale(1 1) rotate(0) translate(4 420.347)">
<title>EMC VPLEX Alert Definitions/VPLEX&#45;Virtual Volumes/Operational Status</title>
<polygon fill="white" stroke="none" points="-4,4 -4,-420.347 641.594,-420.347 641.594,4 -4,4"/>
<!-- Severity -->
<g id="${uniqueid}_node1" class="node"><title>Severity</title>
<g id="a_${uniqueid}_node1"><a xlink:href="#1436963837542" xlink:title="com.watch4net.alerting.operation.CaseOperation">
<polygon fill="#377eb8" stroke="black" points="254.836,-240.477 178.836,-240.477 178.836,-204.477 254.836,-204.477 254.836,-240.477"/>
<text text-anchor="middle" x="216.836" y="-218.777" font-family="Times,serif" font-size="14.00" fill="white">Severity</text>
</a>
</g>
</g>
<!-- critical -->
<g id="${uniqueid}_node6" class="node"><title>critical</title>
<g id="a_${uniqueid}_node6"><a xlink:href="#495903663018951-80936064547819" xlink:title="com.watch4net.alerting.operation.comparator.ConstantComparatorOperation">
<polygon fill="#ff7f00" stroke="black" points="359.772,-349.477 297.267,-331.477 359.772,-313.477 422.278,-331.477 359.772,-349.477"/>
<text text-anchor="middle" x="359.772" y="-327.777" font-family="Times,serif" font-size="14.00" fill="white">critical</text>
</a>
</g>
</g>
<!-- Severity&#45;&gt;critical -->
<g id="${uniqueid}_edge1" class="edge"><title>Severity:e&#45;&gt;critical:w</title>
<path fill="none" stroke="black" d="M254.836,-222.477C302.541,-222.477 253.101,-315.111 285.628,-329.585"/>
<polygon fill="black" stroke="black" points="285.3,-333.084 295.772,-331.477 286.584,-326.203 285.3,-333.084"/>
</g>
<!-- major -->
<g id="${uniqueid}_node8" class="node"><title>major</title>
<g id="a_${uniqueid}_node8"><a xlink:href="#1414014574475-80936064446715" xlink:title="com.watch4net.alerting.operation.comparator.ConstantComparatorOperation">
<polygon fill="#ff7f00" stroke="black" points="359.772,-240.477 306.649,-222.477 359.772,-204.477 412.895,-222.477 359.772,-240.477"/>
<text text-anchor="middle" x="359.772" y="-218.777" font-family="Times,serif" font-size="14.00" fill="white">major</text>
</a>
</g>
</g>
<!-- Severity&#45;&gt;major -->
<g id="${uniqueid}_edge2" class="edge"><title>Severity:e&#45;&gt;major:w</title>
<path fill="none" stroke="black" d="M254.836,-222.477C273.583,-222.477 280.687,-222.477 295.432,-222.477"/>
<polygon fill="black" stroke="black" points="295.772,-225.977 305.772,-222.477 295.772,-218.977 295.772,-225.977"/>
</g>
<!-- warning -->
<g id="${uniqueid}_node10" class="node"><title>warning</title>
<g id="a_${uniqueid}_node10"><a xlink:href="#495903663069168-80936064642397" xlink:title="com.watch4net.alerting.operation.comparator.ConstantComparatorOperation">
<polygon fill="#ff7f00" stroke="black" points="359.772,-123.477 290.899,-105.477 359.772,-87.4767 428.646,-105.477 359.772,-123.477"/>
<text text-anchor="middle" x="359.772" y="-101.777" font-family="Times,serif" font-size="14.00" fill="white">warning</text>
</a>
</g>
</g>
<!-- Severity&#45;&gt;warning -->
<g id="${uniqueid}_edge3" class="edge"><title>Severity:e&#45;&gt;warning:w</title>
<path fill="none" stroke="black" d="M254.836,-222.477C305.204,-222.477 246.537,-122.199 280.72,-107.314"/>
<polygon fill="black" stroke="black" points="281.622,-110.708 290.836,-105.477 280.371,-103.821 281.622,-110.708"/>
</g>
<!-- VPLEX&#45;
Availability&#45;
Filter -->
<g id="${uniqueid}_node2" class="node"><title>VPLEX&#45;
Availability&#45;
Filter</title>
<g id="a_${uniqueid}_node2"><a xlink:href="#495903662966925-80936057686085" xlink:title="com.watch4net.alerting.operation.FilteredEntryPoint">
<ellipse fill="#984ea3" stroke="black" cx="71.4178" cy="-222.477" rx="71.3357" ry="37.4533"/>
<text text-anchor="middle" x="71.4178" y="-233.777" font-family="Times,serif" font-size="14.00" fill="white">VPLEX&#45;</text>
<text text-anchor="middle" x="71.4178" y="-218.777" font-family="Times,serif" font-size="14.00" fill="white">Availability&#45;</text>
<text text-anchor="middle" x="71.4178" y="-203.777" font-family="Times,serif" font-size="14.00" fill="white">Filter</text>
</a>
</g>
</g>
<!-- VPLEX&#45;
Availability&#45;
Filter&#45;&gt;Severity -->
<g id="${uniqueid}_edge4" class="edge"><title>VPLEX&#45;
Availability&#45;
Filter:e&#45;&gt;Severity:w</title>
<path fill="none" stroke="black" d="M142.836,-222.477C154.836,-222.477 160.086,-222.477 168.711,-222.477"/>
<polygon fill="black" stroke="black" points="168.836,-225.977 178.836,-222.477 168.836,-218.977 168.836,-225.977"/>
</g>
<!-- availability&#45;
critical&#45;trap -->
<g id="${uniqueid}_node3" class="node"><title>availability&#45;
critical&#45;trap</title>
<g id="a_${uniqueid}_node3"><a xlink:href="#495903663060568-80936077540152" xlink:title="com.watch4net.alerting.action.SNMPTrapAction">
<ellipse fill="#4daf4a" stroke="black" cx="551.151" cy="-317.477" rx="72.25" ry="26.7407"/>
<text text-anchor="middle" x="551.151" y="-321.277" font-family="Times,serif" font-size="14.00" fill="white">availability&#45;</text>
<text text-anchor="middle" x="551.151" y="-306.277" font-family="Times,serif" font-size="14.00" fill="white">critical&#45;trap</text>
</a>
</g>
</g>
<!-- availability&#45;
major&#45;trap -->
<g id="${uniqueid}_node4" class="node"><title>availability&#45;
major&#45;trap</title>
<g id="a_${uniqueid}_node4"><a xlink:href="#1414014732331-80936077399309" xlink:title="com.watch4net.alerting.action.SNMPTrapAction">
<ellipse fill="#4daf4a" stroke="black" cx="551.151" cy="-191.477" rx="70.922" ry="26.7407"/>
<text text-anchor="middle" x="551.151" y="-195.277" font-family="Times,serif" font-size="14.00" fill="white">availability&#45;</text>
<text text-anchor="middle" x="551.151" y="-180.277" font-family="Times,serif" font-size="14.00" fill="white">major&#45;trap</text>
</a>
</g>
</g>
<!-- availability&#45;
warning&#45;alert&#45;
trap -->
<g id="${uniqueid}_node5" class="node"><title>availability&#45;
warning&#45;alert&#45;
trap</title>
<g id="a_${uniqueid}_node5"><a xlink:href="#495903663080569-80936077608334" xlink:title="com.watch4net.alerting.action.SNMPTrapAction">
<ellipse fill="#4daf4a" stroke="black" cx="551.151" cy="-37.4767" rx="83.3772" ry="37.4533"/>
<text text-anchor="middle" x="551.151" y="-48.7767" font-family="Times,serif" font-size="14.00" fill="white">availability&#45;</text>
<text text-anchor="middle" x="551.151" y="-33.7767" font-family="Times,serif" font-size="14.00" fill="white">warning&#45;alert&#45;</text>
<text text-anchor="middle" x="551.151" y="-18.7767" font-family="Times,serif" font-size="14.00" fill="white">trap</text>
</a>
</g>
</g>
<!-- critical&#45;&gt;availability&#45;
critical&#45;trap -->
<g id="${uniqueid}_edge6" class="edge"><title>critical:se&#45;&gt;availability&#45;
critical&#45;trap:w</title>
<path fill="none" stroke="black" d="M374.772,-317.477C404.787,-287.462 428.361,-312.904 468.005,-316.954"/>
<polygon fill="black" stroke="black" points="467.985,-320.458 478.151,-317.477 468.345,-313.467 467.985,-320.458"/>
<text text-anchor="middle" x="359.272" y="-306.277" font-family="Times,serif" font-size="14.00">true</text>
</g>
<!-- critical&#45;clear&#45;
trap -->
<g id="${uniqueid}_node7" class="node"><title>critical&#45;clear&#45;
trap</title>
<g id="a_${uniqueid}_node7"><a xlink:href="#495903663044975-80936077471541" xlink:title="com.watch4net.alerting.action.SNMPTrapAction">
<ellipse fill="#4daf4a" stroke="black" cx="551.151" cy="-389.477" rx="79.8062" ry="26.7407"/>
<text text-anchor="middle" x="551.151" y="-393.277" font-family="Times,serif" font-size="14.00" fill="white">critical&#45;clear&#45;</text>
<text text-anchor="middle" x="551.151" y="-378.277" font-family="Times,serif" font-size="14.00" fill="white">trap</text>
</a>
</g>
</g>
<!-- critical&#45;&gt;critical&#45;clear&#45;
trap -->
<g id="${uniqueid}_edge5" class="edge"><title>critical:ne&#45;&gt;critical&#45;clear&#45;
trap:w</title>
<path fill="none" stroke="black" d="M372.772,-345.477C374.068,-346.772 372.576,-348.088 373.772,-349.477 401.739,-381.935 420.707,-388.56 460.001,-389.381"/>
<polygon fill="black" stroke="black" points="460.119,-392.882 470.151,-389.477 460.185,-385.882 460.119,-392.882"/>
<text text-anchor="middle" x="355.772" y="-349.277" font-family="Times,serif" font-size="14.00">false</text>
</g>
<!-- major&#45;&gt;availability&#45;
major&#45;trap -->
<g id="${uniqueid}_edge8" class="edge"><title>major:se&#45;&gt;availability&#45;
major&#45;trap:w</title>
<path fill="none" stroke="black" d="M374.772,-208.477C405.541,-177.708 428.516,-189.339 469.051,-191.235"/>
<polygon fill="black" stroke="black" points="469.071,-194.737 479.151,-191.477 469.238,-187.739 469.071,-194.737"/>
<text text-anchor="middle" x="359.272" y="-197.277" font-family="Times,serif" font-size="14.00">true</text>
</g>
<!-- major&#45;clear&#45;trap -->
<g id="${uniqueid}_node9" class="node"><title>major&#45;clear&#45;trap</title>
<g id="a_${uniqueid}_node9"><a xlink:href="#1414014908759-80936077338233" xlink:title="com.watch4net.alerting.action.SNMPTrapAction">
<ellipse fill="#4daf4a" stroke="black" cx="551.151" cy="-254.477" rx="86.3847" ry="18"/>
<text text-anchor="middle" x="551.151" y="-250.777" font-family="Times,serif" font-size="14.00" fill="white">major&#45;clear&#45;trap</text>
</a>
</g>
</g>
<!-- major&#45;&gt;major&#45;clear&#45;trap -->
<g id="${uniqueid}_edge7" class="edge"><title>major:ne&#45;&gt;major&#45;clear&#45;trap:w</title>
<path fill="none" stroke="black" d="M372.772,-236.477C374.068,-237.772 372.418,-239.242 373.772,-240.477 401.393,-265.661 420.332,-256.502 454.613,-254.742"/>
<polygon fill="black" stroke="black" points="454.805,-258.238 464.709,-254.477 454.621,-251.241 454.805,-258.238"/>
<text text-anchor="middle" x="355.772" y="-240.277" font-family="Times,serif" font-size="14.00">false</text>
</g>
<!-- warning&#45;&gt;availability&#45;
warning&#45;alert&#45;
trap -->
<g id="${uniqueid}_edge10" class="edge"><title>warning:se&#45;&gt;availability&#45;
warning&#45;alert&#45;
trap:w</title>
<path fill="none" stroke="black" d="M374.772,-91.4767C405.524,-60.7255 417.145,-40.7797 455.732,-37.8509"/>
<polygon fill="black" stroke="black" points="456.284,-41.3334 466.151,-37.4767 456.032,-34.3379 456.284,-41.3334"/>
<text text-anchor="middle" x="359.272" y="-80.2767" font-family="Times,serif" font-size="14.00">true</text>
</g>
<!-- warning&#45;clear&#45;
trap -->
<g id="${uniqueid}_node11" class="node"><title>warning&#45;clear&#45;
trap</title>
<g id="a_${uniqueid}_node11"><a xlink:href="#495903663091766-80936077670591" xlink:title="com.watch4net.alerting.action.SNMPTrapAction">
<ellipse fill="#4daf4a" stroke="black" cx="551.151" cy="-119.477" rx="84.7059" ry="26.7407"/>
<text text-anchor="middle" x="551.151" y="-123.277" font-family="Times,serif" font-size="14.00" fill="white">warning&#45;clear&#45;</text>
<text text-anchor="middle" x="551.151" y="-108.277" font-family="Times,serif" font-size="14.00" fill="white">trap</text>
</a>
</g>
</g>
<!-- warning&#45;&gt;warning&#45;clear&#45;
trap -->
<g id="${uniqueid}_edge9" class="edge"><title>warning:ne&#45;&gt;warning&#45;clear&#45;
trap:w</title>
<path fill="none" stroke="black" d="M372.772,-119.477C374.068,-120.772 372.328,-122.349 373.772,-123.477 393.017,-138.503 404.329,-124.811 428.709,-123.477 441.038,-122.802 446.252,-120.853 455.145,-119.948"/>
<polygon fill="black" stroke="black" points="455.327,-123.444 465.151,-119.477 454.998,-116.451 455.327,-123.444"/>
<text text-anchor="middle" x="355.772" y="-123.277" font-family="Times,serif" font-size="14.00">false</text>
</g>
</g>
</svg>
