<?xml version="1.0" encoding="UTF-8" standalone="no"?>
<!DOCTYPE svg PUBLIC "-//W3C//DTD SVG 1.1//EN"
 "http://www.w3.org/Graphics/SVG/1.1/DTD/svg11.dtd">
<!-- Generated by graphviz version 2.38.0 (20140413.2041)
 -->
<!-- Title: EMC Isilon Alert Definitions/Isilon SoftQuotaReached Alert Pages: 1 -->
<svg width="845pt" height="367pt"
 viewBox="0.00 0.00 845.49 367.00" xmlns="http://www.w3.org/2000/svg" xmlns:xlink="http://www.w3.org/1999/xlink">
<g id="${uniqueid}" class="graph" transform="scale(1 1) rotate(0) translate(4 363)">
<title>EMC Isilon Alert Definitions/Isilon SoftQuotaReached Alert</title>
<polygon fill="white" stroke="none" points="-4,4 -4,-363 841.495,-363 841.495,4 -4,4"/>
<!-- Critical Soft
QuotaReach -->
<g id="${uniqueid}_node1" class="node"><title>Critical Soft
QuotaReach</title>
<g id="a_${uniqueid}_node1"><a xlink:href="#1416865175969" xlink:title="com.watch4net.alerting.operation.comparator.ConstantComparatorOperation">
<polygon fill="#ff7f00" stroke="black" points="478.747,-359 364.747,-321 478.747,-283 592.747,-321 478.747,-359"/>
<text text-anchor="middle" x="478.747" y="-324.8" font-family="Times,serif" font-size="14.00" fill="white">Critical Soft</text>
<text text-anchor="middle" x="478.747" y="-309.8" font-family="Times,serif" font-size="14.00" fill="white">QuotaReach</text>
</a>
</g>
</g>
<!-- Critical Soft
QuotaReach Alert -->
<g id="${uniqueid}_node2" class="node"><title>Critical Soft
QuotaReach Alert</title>
<g id="a_${uniqueid}_node2"><a xlink:href="#1721499882217540" xlink:title="com.watch4net.alerting.action.SNMPTrapAction">
<ellipse fill="#4daf4a" stroke="black" cx="740.621" cy="-322" rx="96.7474" ry="26.7407"/>
<text text-anchor="middle" x="740.621" y="-325.8" font-family="Times,serif" font-size="14.00" fill="white">Critical Soft</text>
<text text-anchor="middle" x="740.621" y="-310.8" font-family="Times,serif" font-size="14.00" fill="white">QuotaReach Alert</text>
</a>
</g>
</g>
<!-- Critical Soft
QuotaReach&#45;&gt;Critical Soft
QuotaReach Alert -->
<g id="${uniqueid}_edge1" class="edge"><title>Critical Soft
QuotaReach:e&#45;&gt;Critical Soft
QuotaReach Alert:w</title>
<path fill="none" stroke="black" d="M593.747,-321C612.154,-321 619.121,-321.686 633.595,-321.922"/>
<polygon fill="black" stroke="black" points="633.72,-325.423 643.747,-322 633.775,-318.423 633.72,-325.423"/>
<text text-anchor="middle" x="609.247" y="-309.8" font-family="Times,serif" font-size="14.00">true</text>
</g>
<!-- Info SoftQuota
Reach -->
<g id="${uniqueid}_node3" class="node"><title>Info SoftQuota
Reach</title>
<g id="a_${uniqueid}_node3"><a xlink:href="#1416865271334" xlink:title="com.watch4net.alerting.operation.comparator.ConstantComparatorOperation">
<polygon fill="#ff7f00" stroke="black" points="478.747,-264 356.747,-226 478.747,-188 600.747,-226 478.747,-264"/>
<text text-anchor="middle" x="478.747" y="-229.8" font-family="Times,serif" font-size="14.00" fill="white">Info SoftQuota</text>
<text text-anchor="middle" x="478.747" y="-214.8" font-family="Times,serif" font-size="14.00" fill="white">Reach</text>
</a>
</g>
</g>
<!-- SoftQuota Clear -->
<g id="${uniqueid}_node9" class="node"><title>SoftQuota Clear</title>
<g id="a_${uniqueid}_node9"><a xlink:href="#1721499882200932" xlink:title="com.watch4net.alerting.action.SNMPTrapAction">
<ellipse fill="#4daf4a" stroke="black" cx="740.621" cy="-259" rx="83.6854" ry="18"/>
<text text-anchor="middle" x="740.621" y="-255.3" font-family="Times,serif" font-size="14.00" fill="white">SoftQuota Clear</text>
</a>
</g>
</g>
<!-- Info SoftQuota
Reach&#45;&gt;SoftQuota Clear -->
<g id="${uniqueid}_edge2" class="edge"><title>Info SoftQuota
Reach:ne&#45;&gt;SoftQuota Clear:w</title>
<path fill="none" stroke="black" d="M506.747,-255C509.593,-257.846 504.748,-261.316 507.747,-264 523.147,-277.783 580.102,-264.939 600.747,-264 621.389,-263.062 628.829,-260.147 645.36,-259.259"/>
<polygon fill="black" stroke="black" points="645.713,-262.752 655.621,-259 645.536,-255.754 645.713,-262.752"/>
<text text-anchor="middle" x="487.747" y="-258.8" font-family="Times,serif" font-size="14.00">false</text>
</g>
<!-- SoftQuota Info
Alert Set -->
<g id="${uniqueid}_node10" class="node"><title>SoftQuota Info
Alert Set</title>
<g id="a_${uniqueid}_node10"><a xlink:href="#1415904310652" xlink:title="com.watch4net.alerting.action.SNMPTrapAction">
<ellipse fill="#4daf4a" stroke="black" cx="740.621" cy="-196" rx="86.0347" ry="26.7407"/>
<text text-anchor="middle" x="740.621" y="-199.8" font-family="Times,serif" font-size="14.00" fill="white">SoftQuota Info</text>
<text text-anchor="middle" x="740.621" y="-184.8" font-family="Times,serif" font-size="14.00" fill="white">Alert Set</text>
</a>
</g>
</g>
<!-- Info SoftQuota
Reach&#45;&gt;SoftQuota Info
Alert Set -->
<g id="${uniqueid}_edge3" class="edge"><title>Info SoftQuota
Reach:se&#45;&gt;SoftQuota Info
Alert Set:w</title>
<path fill="none" stroke="black" d="M508.747,-197C529.236,-176.511 604.492,-192.337 642.219,-195.484"/>
<polygon fill="black" stroke="black" points="642.46,-199.001 652.621,-196 642.806,-192.009 642.46,-199.001"/>
<text text-anchor="middle" x="493.247" y="-185.8" font-family="Times,serif" font-size="14.00">true</text>
</g>
<!-- Isilon SoftQuota
Reach Alert -->
<g id="${uniqueid}_node4" class="node"><title>Isilon SoftQuota
Reach Alert</title>
<g id="a_${uniqueid}_node4"><a xlink:href="#1721499882093529" xlink:title="com.watch4net.alerting.operation.FilteredEntryPoint">
<ellipse fill="#984ea3" stroke="black" cx="96.8736" cy="-179" rx="96.7474" ry="26.7407"/>
<text text-anchor="middle" x="96.8736" y="-182.8" font-family="Times,serif" font-size="14.00" fill="white">Isilon SoftQuota</text>
<text text-anchor="middle" x="96.8736" y="-167.8" font-family="Times,serif" font-size="14.00" fill="white">Reach Alert</text>
</a>
</g>
</g>
<!-- SoftQuota
Threshold -->
<g id="${uniqueid}_node8" class="node"><title>SoftQuota
Threshold</title>
<g id="a_${uniqueid}_node8"><a xlink:href="#1416862341818" xlink:title="com.watch4net.alerting.operation.CaseOperation">
<polygon fill="#377eb8" stroke="black" points="313.747,-198 229.747,-198 229.747,-160 313.747,-160 313.747,-198"/>
<text text-anchor="middle" x="271.747" y="-182.8" font-family="Times,serif" font-size="14.00" fill="white">SoftQuota</text>
<text text-anchor="middle" x="271.747" y="-167.8" font-family="Times,serif" font-size="14.00" fill="white">Threshold</text>
</a>
</g>
</g>
<!-- Isilon SoftQuota
Reach Alert&#45;&gt;SoftQuota
Threshold -->
<g id="${uniqueid}_edge4" class="edge"><title>Isilon SoftQuota
Reach Alert:e&#45;&gt;SoftQuota
Threshold:w</title>
<path fill="none" stroke="black" d="M193.747,-179C205.747,-179 210.997,-179 219.622,-179"/>
<polygon fill="black" stroke="black" points="219.747,-182.5 229.747,-179 219.747,-175.5 219.747,-182.5"/>
</g>
<!-- Major SoftQuota
Reach -->
<g id="${uniqueid}_node5" class="node"><title>Major SoftQuota
Reach</title>
<g id="a_${uniqueid}_node5"><a xlink:href="#1416865219289" xlink:title="com.watch4net.alerting.operation.comparator.ConstantComparatorOperation">
<polygon fill="#ff7f00" stroke="black" points="478.747,-170 349.747,-132 478.747,-94 607.747,-132 478.747,-170"/>
<text text-anchor="middle" x="478.747" y="-135.8" font-family="Times,serif" font-size="14.00" fill="white">Major SoftQuota</text>
<text text-anchor="middle" x="478.747" y="-120.8" font-family="Times,serif" font-size="14.00" fill="white">Reach</text>
</a>
</g>
</g>
<!-- Major SoftQuota
Reach Alert -->
<g id="${uniqueid}_node6" class="node"><title>Major SoftQuota
Reach Alert</title>
<g id="a_${uniqueid}_node6"><a xlink:href="#1721499882180216" xlink:title="com.watch4net.alerting.action.SNMPTrapAction">
<ellipse fill="#4daf4a" stroke="black" cx="740.621" cy="-124" rx="91.4341" ry="26.7407"/>
<text text-anchor="middle" x="740.621" y="-127.8" font-family="Times,serif" font-size="14.00" fill="white">Major SoftQuota</text>
<text text-anchor="middle" x="740.621" y="-112.8" font-family="Times,serif" font-size="14.00" fill="white">Reach Alert</text>
</a>
</g>
</g>
<!-- Major SoftQuota
Reach&#45;&gt;Major SoftQuota
Reach Alert -->
<g id="${uniqueid}_edge5" class="edge"><title>Major SoftQuota
Reach:e&#45;&gt;Major SoftQuota
Reach Alert:w</title>
<path fill="none" stroke="black" d="M607.747,-132C621.868,-132 627.23,-127.117 637.519,-124.981"/>
<polygon fill="black" stroke="black" points="638.006,-128.45 647.621,-124 637.329,-121.483 638.006,-128.45"/>
<text text-anchor="middle" x="623.247" y="-120.8" font-family="Times,serif" font-size="14.00">true</text>
</g>
<!-- Minor SoftQuota
Reach -->
<g id="${uniqueid}_node7" class="node"><title>Minor SoftQuota
Reach</title>
<g id="a_${uniqueid}_node7"><a xlink:href="#1416865245940" xlink:title="com.watch4net.alerting.operation.comparator.ConstantComparatorOperation">
<polygon fill="#ff7f00" stroke="black" points="478.747,-76 349.747,-38 478.747,-7.10543e-15 607.747,-38 478.747,-76"/>
<text text-anchor="middle" x="478.747" y="-41.8" font-family="Times,serif" font-size="14.00" fill="white">Minor SoftQuota</text>
<text text-anchor="middle" x="478.747" y="-26.8" font-family="Times,serif" font-size="14.00" fill="white">Reach</text>
</a>
</g>
</g>
<!-- SoftQuota Minor
Alert Set -->
<g id="${uniqueid}_node11" class="node"><title>SoftQuota Minor
Alert Set</title>
<g id="a_${uniqueid}_node11"><a xlink:href="#1415904288079" xlink:title="com.watch4net.alerting.action.SNMPTrapAction">
<ellipse fill="#4daf4a" stroke="black" cx="740.621" cy="-38" rx="91.4341" ry="26.7407"/>
<text text-anchor="middle" x="740.621" y="-41.8" font-family="Times,serif" font-size="14.00" fill="white">SoftQuota Minor</text>
<text text-anchor="middle" x="740.621" y="-26.8" font-family="Times,serif" font-size="14.00" fill="white">Alert Set</text>
</a>
</g>
</g>
<!-- Minor SoftQuota
Reach&#45;&gt;SoftQuota Minor
Alert Set -->
<g id="${uniqueid}_edge6" class="edge"><title>Minor SoftQuota
Reach:e&#45;&gt;SoftQuota Minor
Alert Set:w</title>
<path fill="none" stroke="black" d="M607.747,-38C621.592,-38 627.325,-38 637.621,-38"/>
<polygon fill="black" stroke="black" points="637.621,-41.5001 647.621,-38 637.621,-34.5001 637.621,-41.5001"/>
<text text-anchor="middle" x="623.247" y="-26.8" font-family="Times,serif" font-size="14.00">true</text>
</g>
<!-- SoftQuota
Threshold&#45;&gt;Critical Soft
QuotaReach -->
<g id="${uniqueid}_edge7" class="edge"><title>SoftQuota
Threshold:e&#45;&gt;Critical Soft
QuotaReach:w</title>
<path fill="none" stroke="black" d="M313.747,-179C376.867,-179 305.85,-305.37 353.774,-319.685"/>
<polygon fill="black" stroke="black" points="353.376,-323.163 363.747,-321 354.291,-316.223 353.376,-323.163"/>
</g>
<!-- SoftQuota
Threshold&#45;&gt;Info SoftQuota
Reach -->
<g id="${uniqueid}_edge8" class="edge"><title>SoftQuota
Threshold:e&#45;&gt;Info SoftQuota
Reach:w</title>
<path fill="none" stroke="black" d="M313.747,-179C337.603,-179 330.971,-213.082 345.776,-223.201"/>
<polygon fill="black" stroke="black" points="345.173,-226.667 355.747,-226 347.066,-219.927 345.173,-226.667"/>
</g>
<!-- SoftQuota
Threshold&#45;&gt;Major SoftQuota
Reach -->
<g id="${uniqueid}_edge9" class="edge"><title>SoftQuota
Threshold:e&#45;&gt;Major SoftQuota
Reach:w</title>
<path fill="none" stroke="black" d="M313.747,-179C335.948,-179 327.582,-145.54 340.231,-135.084"/>
<polygon fill="black" stroke="black" points="341.313,-138.412 349.747,-132 339.155,-131.753 341.313,-138.412"/>
</g>
<!-- SoftQuota
Threshold&#45;&gt;Minor SoftQuota
Reach -->
<g id="${uniqueid}_edge10" class="edge"><title>SoftQuota
Threshold:e&#45;&gt;Minor SoftQuota
Reach:w</title>
<path fill="none" stroke="black" d="M313.747,-179C374.508,-179 295.796,-54.5573 339.667,-39.4881"/>
<polygon fill="black" stroke="black" points="340.366,-42.923 349.747,-38 339.343,-35.998 340.366,-42.923"/>
</g>
</g>
</svg>
