<?xml version="1.0" encoding="UTF-8" standalone="no"?>
<!DOCTYPE svg PUBLIC "-//W3C//DTD SVG 1.1//EN"
 "http://www.w3.org/Graphics/SVG/1.1/DTD/svg11.dtd">
<!-- Generated by graphviz version 2.38.0 (20140413.2041)
 -->
<!-- Title: Examples/Multiple Overflows Comparator Pages: 1 -->
<svg width="809pt" height="98pt"
 viewBox="0.00 0.00 809.07 98.00" xmlns="http://www.w3.org/2000/svg" xmlns:xlink="http://www.w3.org/1999/xlink">
<g id="${uniqueid}" class="graph" transform="scale(1 1) rotate(0) translate(4 94)">
<title>Examples/Multiple Overflows Comparator</title>
<polygon fill="white" stroke="none" points="-4,4 -4,-94 805.074,-94 805.074,4 -4,4"/>
<!-- Check min of
last 3 -->
<g id="${uniqueid}_node1" class="node"><title>Check min of
last 3</title>
<g id="a_${uniqueid}_node1"><a xlink:href="#1383234643816" xlink:title="com.watch4net.alerting.operation.window.HistoryOperation">
<polygon fill="#377eb8" stroke="black" points="318.285,-64 206.285,-64 206.285,-26 318.285,-26 318.285,-64"/>
<text text-anchor="middle" x="262.285" y="-48.8" font-family="Times,serif" font-size="14.00" fill="white">Check min of</text>
<text text-anchor="middle" x="262.285" y="-33.8" font-family="Times,serif" font-size="14.00" fill="white">last 3</text>
</a>
</g>
</g>
<!-- Overflow check -->
<g id="${uniqueid}_node5" class="node"><title>Overflow check</title>
<g id="a_${uniqueid}_node5"><a xlink:href="#1383234751485" xlink:title="com.watch4net.alerting.operation.comparator.ConstantComparatorOperation">
<polygon fill="#ff7f00" stroke="black" points="471.937,-63 354.133,-45 471.937,-27 589.741,-45 471.937,-63"/>
<text text-anchor="middle" x="471.937" y="-41.3" font-family="Times,serif" font-size="14.00" fill="white">Overflow check</text>
</a>
</g>
</g>
<!-- Check min of
last 3&#45;&gt;Overflow check -->
<g id="${uniqueid}_edge1" class="edge"><title>Check min of
last 3:e&#45;&gt;Overflow check:w</title>
<path fill="none" stroke="black" d="M318.285,-45C330.285,-45 335.535,-45 344.16,-45"/>
<polygon fill="black" stroke="black" points="344.285,-48.5001 354.285,-45 344.285,-41.5001 344.285,-48.5001"/>
<text text-anchor="middle" x="342.285" y="-33.8" font-family="Times,serif" font-size="14.00">output</text>
</g>
<!-- CustomVariable -->
<g id="${uniqueid}_node2" class="node"><title>CustomVariable</title>
<g id="a_${uniqueid}_node2"><a xlink:href="#87027271961984" xlink:title="com.watch4net.alerting.operation.FilteredEntryPoint">
<ellipse fill="#984ea3" stroke="black" cx="85.1424" cy="-45" rx="85.2851" ry="18"/>
<text text-anchor="middle" x="85.1424" y="-41.3" font-family="Times,serif" font-size="14.00" fill="white">CustomVariable</text>
</a>
</g>
</g>
<!-- CustomVariable&#45;&gt;Check min of
last 3 -->
<g id="${uniqueid}_edge2" class="edge"><title>CustomVariable:e&#45;&gt;Check min of
last 3:w</title>
<path fill="none" stroke="black" d="M170.285,-45C182.285,-45 187.535,-45 196.16,-45"/>
<polygon fill="black" stroke="black" points="196.285,-48.5001 206.285,-45 196.285,-41.5001 196.285,-48.5001"/>
</g>
<!-- Log Alarm Clear -->
<g id="${uniqueid}_node3" class="node"><title>Log Alarm Clear</title>
<g id="a_${uniqueid}_node3"><a xlink:href="#87027272010984" xlink:title="com.watch4net.alerting.action.LogAction">
<ellipse fill="#4daf4a" stroke="black" cx="713.331" cy="-72" rx="87.9851" ry="18"/>
<text text-anchor="middle" x="713.331" y="-68.3" font-family="Times,serif" font-size="14.00" fill="white">Log Alarm Clear</text>
</a>
</g>
</g>
<!-- Log Alarm Set -->
<g id="${uniqueid}_node4" class="node"><title>Log Alarm Set</title>
<g id="a_${uniqueid}_node4"><a xlink:href="#87027272018984" xlink:title="com.watch4net.alerting.action.LogAction">
<ellipse fill="#4daf4a" stroke="black" cx="713.331" cy="-18" rx="77.1866" ry="18"/>
<text text-anchor="middle" x="713.331" y="-14.3" font-family="Times,serif" font-size="14.00" fill="white">Log Alarm Set</text>
</a>
</g>
</g>
<!-- Overflow check&#45;&gt;Log Alarm Clear -->
<g id="${uniqueid}_edge3" class="edge"><title>Overflow check:ne&#45;&gt;Log Alarm Clear:w</title>
<path fill="none" stroke="black" d="M486.937,-61C487.64,-61.7027 487.109,-62.4502 487.937,-63 536.117,-94.9962 561.334,-74.6339 615.507,-72.2246"/>
<polygon fill="black" stroke="black" points="615.67,-75.7219 625.589,-72 615.514,-68.7237 615.67,-75.7219"/>
<text text-anchor="middle" x="469.937" y="-64.8" font-family="Times,serif" font-size="14.00">false</text>
</g>
<!-- Overflow check&#45;&gt;Log Alarm Set -->
<g id="${uniqueid}_edge4" class="edge"><title>Overflow check:se&#45;&gt;Log Alarm Set:w</title>
<path fill="none" stroke="black" d="M488.937,-29C532.344,14.4071 565.829,-14.5515 624.324,-17.7264"/>
<polygon fill="black" stroke="black" points="624.239,-21.2253 634.331,-18 624.431,-14.2279 624.239,-21.2253"/>
<text text-anchor="middle" x="473.437" y="-17.8" font-family="Times,serif" font-size="14.00">true</text>
</g>
</g>
</svg>
