<?xml version="1.0" encoding="UTF-8" standalone="no"?>
<!DOCTYPE svg PUBLIC "-//W3C//DTD SVG 1.1//EN"
 "http://www.w3.org/Graphics/SVG/1.1/DTD/svg11.dtd">
<!-- Generated by graphviz version 2.38.0 (20140413.2041)
 -->
<!-- Title: EMC VMAX Alert Definitions/VMAX&#45;Array/High Hits Rate Pages: 1 -->
<svg width="880pt" height="482pt"
 viewBox="0.00 0.00 879.52 482.35" xmlns="http://www.w3.org/2000/svg" xmlns:xlink="http://www.w3.org/1999/xlink">
<g id="${uniqueid}" class="graph" transform="scale(1 1) rotate(0) translate(4 478.347)">
<title>EMC VMAX Alert Definitions/VMAX&#45;Array/High Hits Rate</title>
<polygon fill="white" stroke="none" points="-4,4 -4,-478.347 875.524,-478.347 875.524,4 -4,4"/>
<!-- Comparator
HitsperSecond_
CRIT -->
<g id="${uniqueid}_node1" class="node"><title>Comparator
HitsperSecond_
CRIT</title>
<g id="a_${uniqueid}_node1"><a xlink:href="#91993201835840" xlink:title="com.watch4net.alerting.operation.comparator.ConstantComparatorOperation">
<polygon fill="#ff7f00" stroke="black" points="519.262,-445.87 388.262,-392.87 519.262,-339.87 650.262,-392.87 519.262,-445.87"/>
<text text-anchor="middle" x="519.262" y="-404.17" font-family="Times,serif" font-size="14.00" fill="white">Comparator</text>
<text text-anchor="middle" x="519.262" y="-389.17" font-family="Times,serif" font-size="14.00" fill="white">HitsperSecond_</text>
<text text-anchor="middle" x="519.262" y="-374.17" font-family="Times,serif" font-size="14.00" fill="white">CRIT</text>
</a>
</g>
</g>
<!-- HitsperSecond_
Crit -->
<g id="${uniqueid}_node6" class="node"><title>HitsperSecond_
Crit</title>
<g id="a_${uniqueid}_node6"><a xlink:href="#91993201853295" xlink:title="com.watch4net.alerting.action.SNMPTrapAction">
<ellipse fill="#4daf4a" stroke="black" cx="778.893" cy="-354.87" rx="92.7622" ry="26.7407"/>
<text text-anchor="middle" x="778.893" y="-358.67" font-family="Times,serif" font-size="14.00" fill="white">HitsperSecond_</text>
<text text-anchor="middle" x="778.893" y="-343.67" font-family="Times,serif" font-size="14.00" fill="white">Crit</text>
</a>
</g>
</g>
<!-- Comparator
HitsperSecond_
CRIT&#45;&gt;HitsperSecond_
Crit -->
<g id="${uniqueid}_edge2" class="edge"><title>Comparator
HitsperSecond_
CRIT:se&#45;&gt;HitsperSecond_
Crit:w</title>
<path fill="none" stroke="black" d="M558.262,-354.87C596.053,-317.079 625.599,-350.294 676.207,-354.454"/>
<polygon fill="black" stroke="black" points="676.126,-357.954 686.262,-354.87 676.415,-350.96 676.126,-357.954"/>
<text text-anchor="middle" x="542.762" y="-343.67" font-family="Times,serif" font-size="14.00">true</text>
</g>
<!-- SNMP_Hitper
Second_CRIT_
Clear -->
<g id="${uniqueid}_node9" class="node"><title>SNMP_Hitper
Second_CRIT_
Clear</title>
<g id="a_${uniqueid}_node9"><a xlink:href="#91993201869729" xlink:title="com.watch4net.alerting.action.SNMPTrapAction">
<ellipse fill="#4daf4a" stroke="black" cx="778.893" cy="-436.87" rx="84.7059" ry="37.4533"/>
<text text-anchor="middle" x="778.893" y="-448.17" font-family="Times,serif" font-size="14.00" fill="white">SNMP_Hitper</text>
<text text-anchor="middle" x="778.893" y="-433.17" font-family="Times,serif" font-size="14.00" fill="white">Second_CRIT_</text>
<text text-anchor="middle" x="778.893" y="-418.17" font-family="Times,serif" font-size="14.00" fill="white">Clear</text>
</a>
</g>
</g>
<!-- Comparator
HitsperSecond_
CRIT&#45;&gt;SNMP_Hitper
Second_CRIT_
Clear -->
<g id="${uniqueid}_edge1" class="edge"><title>Comparator
HitsperSecond_
CRIT:ne&#45;&gt;SNMP_Hitper
Second_CRIT_
Clear:w</title>
<path fill="none" stroke="black" d="M556.262,-430.87C558.624,-433.232 554.822,-443.588 557.262,-445.87 587.445,-474.108 609.152,-450.162 650.262,-445.87 665.61,-444.268 671.271,-439.504 682.737,-437.635"/>
<polygon fill="black" stroke="black" points="683.184,-441.111 692.893,-436.87 682.658,-434.131 683.184,-441.111"/>
<text text-anchor="middle" x="539.262" y="-419.67" font-family="Times,serif" font-size="14.00">false</text>
</g>
<!-- Comparator
HitsperSecond_
MINOR -->
<g id="${uniqueid}_node2" class="node"><title>Comparator
HitsperSecond_
MINOR</title>
<g id="a_${uniqueid}_node2"><a xlink:href="#91993201914056" xlink:title="com.watch4net.alerting.operation.comparator.ConstantComparatorOperation">
<polygon fill="#ff7f00" stroke="black" points="519.262,-284.87 388.262,-231.87 519.262,-178.87 650.262,-231.87 519.262,-284.87"/>
<text text-anchor="middle" x="519.262" y="-243.17" font-family="Times,serif" font-size="14.00" fill="white">Comparator</text>
<text text-anchor="middle" x="519.262" y="-228.17" font-family="Times,serif" font-size="14.00" fill="white">HitsperSecond_</text>
<text text-anchor="middle" x="519.262" y="-213.17" font-family="Times,serif" font-size="14.00" fill="white">MINOR</text>
</a>
</g>
</g>
<!-- HitsperSecond_
Minor -->
<g id="${uniqueid}_node8" class="node"><title>HitsperSecond_
Minor</title>
<g id="a_${uniqueid}_node8"><a xlink:href="#91993201926466" xlink:title="com.watch4net.alerting.action.SNMPTrapAction">
<ellipse fill="#4daf4a" stroke="black" cx="778.893" cy="-190.87" rx="92.7622" ry="26.7407"/>
<text text-anchor="middle" x="778.893" y="-194.67" font-family="Times,serif" font-size="14.00" fill="white">HitsperSecond_</text>
<text text-anchor="middle" x="778.893" y="-179.67" font-family="Times,serif" font-size="14.00" fill="white">Minor</text>
</a>
</g>
</g>
<!-- Comparator
HitsperSecond_
MINOR&#45;&gt;HitsperSecond_
Minor -->
<g id="${uniqueid}_edge4" class="edge"><title>Comparator
HitsperSecond_
MINOR:se&#45;&gt;HitsperSecond_
Minor:w</title>
<path fill="none" stroke="black" d="M558.262,-193.87C596.063,-156.069 625.586,-186.645 676.204,-190.486"/>
<polygon fill="black" stroke="black" points="676.136,-193.986 686.262,-190.87 676.403,-186.991 676.136,-193.986"/>
<text text-anchor="middle" x="542.762" y="-182.67" font-family="Times,serif" font-size="14.00">true</text>
</g>
<!-- SNMP_Hitsper
Second_Minor_
Clear -->
<g id="${uniqueid}_node11" class="node"><title>SNMP_Hitsper
Second_Minor_
Clear</title>
<g id="a_${uniqueid}_node11"><a xlink:href="#91993201938923" xlink:title="com.watch4net.alerting.action.SNMPTrapAction">
<ellipse fill="#4daf4a" stroke="black" cx="778.893" cy="-272.87" rx="89.6056" ry="37.4533"/>
<text text-anchor="middle" x="778.893" y="-284.17" font-family="Times,serif" font-size="14.00" fill="white">SNMP_Hitsper</text>
<text text-anchor="middle" x="778.893" y="-269.17" font-family="Times,serif" font-size="14.00" fill="white">Second_Minor_</text>
<text text-anchor="middle" x="778.893" y="-254.17" font-family="Times,serif" font-size="14.00" fill="white">Clear</text>
</a>
</g>
</g>
<!-- Comparator
HitsperSecond_
MINOR&#45;&gt;SNMP_Hitsper
Second_Minor_
Clear -->
<g id="${uniqueid}_edge3" class="edge"><title>Comparator
HitsperSecond_
MINOR:ne&#45;&gt;SNMP_Hitsper
Second_Minor_
Clear:w</title>
<path fill="none" stroke="black" d="M556.262,-269.87C558.624,-272.232 554.822,-282.588 557.262,-284.87 587.445,-313.108 609.42,-291.224 650.262,-284.87 663.678,-282.783 668.351,-276.746 677.902,-274.117"/>
<polygon fill="black" stroke="black" points="678.404,-277.582 687.893,-272.87 677.536,-270.636 678.404,-277.582"/>
<text text-anchor="middle" x="539.262" y="-258.67" font-family="Times,serif" font-size="14.00">false</text>
</g>
<!-- Comparator
HitsperSecond_
Major -->
<g id="${uniqueid}_node3" class="node"><title>Comparator
HitsperSecond_
Major</title>
<g id="a_${uniqueid}_node3"><a xlink:href="#91993201879176" xlink:title="com.watch4net.alerting.operation.comparator.ConstantComparatorOperation">
<polygon fill="#ff7f00" stroke="black" points="519.262,-123.87 388.262,-70.8701 519.262,-17.8701 650.262,-70.8701 519.262,-123.87"/>
<text text-anchor="middle" x="519.262" y="-82.1701" font-family="Times,serif" font-size="14.00" fill="white">Comparator</text>
<text text-anchor="middle" x="519.262" y="-67.1701" font-family="Times,serif" font-size="14.00" fill="white">HitsperSecond_</text>
<text text-anchor="middle" x="519.262" y="-52.1701" font-family="Times,serif" font-size="14.00" fill="white">Major</text>
</a>
</g>
</g>
<!-- HitsperSecond_
Major -->
<g id="${uniqueid}_node7" class="node"><title>HitsperSecond_
Major</title>
<g id="a_${uniqueid}_node7"><a xlink:href="#91993201891224" xlink:title="com.watch4net.alerting.action.SNMPTrapAction">
<ellipse fill="#4daf4a" stroke="black" cx="778.893" cy="-26.8701" rx="92.7622" ry="26.7407"/>
<text text-anchor="middle" x="778.893" y="-30.6701" font-family="Times,serif" font-size="14.00" fill="white">HitsperSecond_</text>
<text text-anchor="middle" x="778.893" y="-15.6701" font-family="Times,serif" font-size="14.00" fill="white">Major</text>
</a>
</g>
</g>
<!-- Comparator
HitsperSecond_
Major&#45;&gt;HitsperSecond_
Major -->
<g id="${uniqueid}_edge6" class="edge"><title>Comparator
HitsperSecond_
Major:se&#45;&gt;HitsperSecond_
Major:w</title>
<path fill="none" stroke="black" d="M558.262,-32.8701C596.094,4.96237 625.549,-22.9934 676.197,-26.5173"/>
<polygon fill="black" stroke="black" points="676.145,-30.0175 686.262,-26.8701 676.391,-23.0218 676.145,-30.0175"/>
<text text-anchor="middle" x="542.762" y="-21.6701" font-family="Times,serif" font-size="14.00">true</text>
</g>
<!-- SNMP_Hitsper
Second_Major_
Clear -->
<g id="${uniqueid}_node10" class="node"><title>SNMP_Hitsper
Second_Major_
Clear</title>
<g id="a_${uniqueid}_node10"><a xlink:href="#91993201903540" xlink:title="com.watch4net.alerting.action.SNMPTrapAction">
<ellipse fill="#4daf4a" stroke="black" cx="778.893" cy="-108.87" rx="89.191" ry="37.4533"/>
<text text-anchor="middle" x="778.893" y="-120.17" font-family="Times,serif" font-size="14.00" fill="white">SNMP_Hitsper</text>
<text text-anchor="middle" x="778.893" y="-105.17" font-family="Times,serif" font-size="14.00" fill="white">Second_Major_</text>
<text text-anchor="middle" x="778.893" y="-90.1701" font-family="Times,serif" font-size="14.00" fill="white">Clear</text>
</a>
</g>
</g>
<!-- Comparator
HitsperSecond_
Major&#45;&gt;SNMP_Hitsper
Second_Major_
Clear -->
<g id="${uniqueid}_edge5" class="edge"><title>Comparator
HitsperSecond_
Major:ne&#45;&gt;SNMP_Hitsper
Second_Major_
Clear:w</title>
<path fill="none" stroke="black" d="M556.262,-108.87C558.624,-111.232 554.822,-121.588 557.262,-123.87 587.445,-152.108 609.635,-131.481 650.262,-123.87 664.405,-121.221 668.787,-113.556 678.809,-110.329"/>
<polygon fill="black" stroke="black" points="679.497,-113.766 688.893,-108.87 678.495,-106.838 679.497,-113.766"/>
<text text-anchor="middle" x="539.262" y="-97.6701" font-family="Times,serif" font-size="14.00">false</text>
</g>
<!-- Hits per second
Case -->
<g id="${uniqueid}_node4" class="node"><title>Hits per second
Case</title>
<g id="a_${uniqueid}_node4"><a xlink:href="#91993201826271" xlink:title="com.watch4net.alerting.operation.CaseOperation">
<polygon fill="#377eb8" stroke="black" points="352.262,-250.87 221.262,-250.87 221.262,-212.87 352.262,-212.87 352.262,-250.87"/>
<text text-anchor="middle" x="286.762" y="-235.67" font-family="Times,serif" font-size="14.00" fill="white">Hits per second</text>
<text text-anchor="middle" x="286.762" y="-220.67" font-family="Times,serif" font-size="14.00" fill="white">Case</text>
</a>
</g>
</g>
<!-- Hits per second
Case&#45;&gt;Comparator
HitsperSecond_
CRIT -->
<g id="${uniqueid}_edge7" class="edge"><title>Hits per second
Case:e&#45;&gt;Comparator
HitsperSecond_
CRIT:w</title>
<path fill="none" stroke="black" d="M352.262,-231.87C421.718,-231.87 326.097,-376.337 378.143,-391.574"/>
<polygon fill="black" stroke="black" points="377.898,-395.071 388.262,-392.87 378.788,-388.128 377.898,-395.071"/>
</g>
<!-- Hits per second
Case&#45;&gt;Comparator
HitsperSecond_
MINOR -->
<g id="${uniqueid}_edge8" class="edge"><title>Hits per second
Case:e&#45;&gt;Comparator
HitsperSecond_
MINOR:w</title>
<path fill="none" stroke="black" d="M352.262,-231.87C364.262,-231.87 369.512,-231.87 378.137,-231.87"/>
<polygon fill="black" stroke="black" points="378.262,-235.37 388.262,-231.87 378.262,-228.37 378.262,-235.37"/>
</g>
<!-- Hits per second
Case&#45;&gt;Comparator
HitsperSecond_
Major -->
<g id="${uniqueid}_edge9" class="edge"><title>Hits per second
Case:e&#45;&gt;Comparator
HitsperSecond_
Major:w</title>
<path fill="none" stroke="black" d="M352.262,-231.87C421.718,-231.87 326.097,-87.4028 378.143,-72.166"/>
<polygon fill="black" stroke="black" points="378.788,-75.6121 388.262,-70.8701 377.898,-68.6688 378.788,-75.6121"/>
</g>
<!-- Hits per second
for Array filter -->
<g id="${uniqueid}_node5" class="node"><title>Hits per second
for Array filter</title>
<g id="a_${uniqueid}_node5"><a xlink:href="#91993201785785" xlink:title="com.watch4net.alerting.operation.FilteredEntryPoint">
<ellipse fill="#984ea3" stroke="black" cx="92.631" cy="-231.87" rx="92.7622" ry="26.7407"/>
<text text-anchor="middle" x="92.631" y="-235.67" font-family="Times,serif" font-size="14.00" fill="white">Hits per second</text>
<text text-anchor="middle" x="92.631" y="-220.67" font-family="Times,serif" font-size="14.00" fill="white">for Array filter</text>
</a>
</g>
</g>
<!-- Hits per second
for Array filter&#45;&gt;Hits per second
Case -->
<g id="${uniqueid}_edge10" class="edge"><title>Hits per second
for Array filter:e&#45;&gt;Hits per second
Case:w</title>
<path fill="none" stroke="black" d="M185.262,-231.87C197.262,-231.87 202.512,-231.87 211.137,-231.87"/>
<polygon fill="black" stroke="black" points="211.262,-235.37 221.262,-231.87 211.262,-228.37 211.262,-235.37"/>
</g>
</g>
</svg>
