<?xml version="1.0" encoding="UTF-8" standalone="no"?>
<!DOCTYPE svg PUBLIC "-//W3C//DTD SVG 1.1//EN"
 "http://www.w3.org/Graphics/SVG/1.1/DTD/svg11.dtd">
<!-- Generated by graphviz version 2.38.0 (20140413.2041)
 -->
<!-- Title: IBMDS5k Alert Definitions/IBMDS5k&#45;Controller/Write Bandwidth Pages: 1 -->
<svg width="1024pt" height="422pt"
 viewBox="0.00 0.00 1024.39 421.74" xmlns="http://www.w3.org/2000/svg" xmlns:xlink="http://www.w3.org/1999/xlink">
<g id="${uniqueid}" class="graph" transform="scale(1 1) rotate(0) translate(4 417.74)">
<title>IBMDS5k Alert Definitions/IBMDS5k&#45;Controller/Write Bandwidth</title>
<polygon fill="white" stroke="none" points="-4,4 -4,-417.74 1020.39,-417.74 1020.39,4 -4,4"/>
<!-- Controller write
b/w entry -->
<g id="${uniqueid}_node1" class="node"><title>Controller write
b/w entry</title>
<g id="a_${uniqueid}_node1"><a xlink:href="#2964619989825652" xlink:title="com.watch4net.alerting.operation.FilteredEntryPoint">
<ellipse fill="#984ea3" stroke="black" cx="93.3381" cy="-206.87" rx="93.1765" ry="26.7407"/>
<text text-anchor="middle" x="93.3381" y="-210.67" font-family="Times,serif" font-size="14.00" fill="white">Controller write</text>
<text text-anchor="middle" x="93.3381" y="-195.67" font-family="Times,serif" font-size="14.00" fill="white">b/w entry</text>
</a>
</g>
</g>
<!-- Roundoff -->
<g id="${uniqueid}_node2" class="node"><title>Roundoff</title>
<g id="a_${uniqueid}_node2"><a xlink:href="#1441797410767" xlink:title="com.watch4net.alerting.operation.math.ConstantMathOperation">
<polygon fill="#377eb8" stroke="black" points="303.676,-224.87 222.676,-224.87 222.676,-188.87 303.676,-188.87 303.676,-224.87"/>
<text text-anchor="middle" x="263.176" y="-203.17" font-family="Times,serif" font-size="14.00" fill="white">Roundoff</text>
</a>
</g>
</g>
<!-- Controller write
b/w entry&#45;&gt;Roundoff -->
<g id="${uniqueid}_edge1" class="edge"><title>Controller write
b/w entry:e&#45;&gt;Roundoff:w</title>
<path fill="none" stroke="black" d="M186.676,-206.87C198.676,-206.87 203.926,-206.87 212.551,-206.87"/>
<polygon fill="black" stroke="black" points="212.676,-210.37 222.676,-206.87 212.676,-203.37 212.676,-210.37"/>
</g>
<!-- Write b/w Case -->
<g id="${uniqueid}_node7" class="node"><title>Write b/w Case</title>
<g id="a_${uniqueid}_node7"><a xlink:href="#2964619989873251" xlink:title="com.watch4net.alerting.operation.CaseOperation">
<polygon fill="#377eb8" stroke="black" points="465.676,-224.87 339.676,-224.87 339.676,-188.87 465.676,-188.87 465.676,-224.87"/>
<text text-anchor="middle" x="402.676" y="-203.17" font-family="Times,serif" font-size="14.00" fill="white">Write b/w Case</text>
</a>
</g>
</g>
<!-- Roundoff&#45;&gt;Write b/w Case -->
<g id="${uniqueid}_edge2" class="edge"><title>Roundoff:e&#45;&gt;Write b/w Case:w</title>
<path fill="none" stroke="black" d="M303.676,-206.87C315.676,-206.87 320.926,-206.87 329.551,-206.87"/>
<polygon fill="black" stroke="black" points="329.676,-210.37 339.676,-206.87 329.676,-203.37 329.676,-210.37"/>
</g>
<!-- Write B/W_
Critical Trap -->
<g id="${uniqueid}_node3" class="node"><title>Write B/W_
Critical Trap</title>
<g id="a_${uniqueid}_node3"><a xlink:href="#2964619989902772" xlink:title="com.watch4net.alerting.action.SNMPTrapAction">
<ellipse fill="#4daf4a" stroke="black" cx="911.035" cy="-314.87" rx="76.2353" ry="26.7407"/>
<text text-anchor="middle" x="911.035" y="-318.67" font-family="Times,serif" font-size="14.00" fill="white">Write B/W_</text>
<text text-anchor="middle" x="911.035" y="-303.67" font-family="Times,serif" font-size="14.00" fill="white">Critical Trap</text>
</a>
</g>
</g>
<!-- Write B/W_
Critical_Clear -->
<g id="${uniqueid}_node4" class="node"><title>Write B/W_
Critical_Clear</title>
<g id="a_${uniqueid}_node4"><a xlink:href="#1426746912577" xlink:title="com.watch4net.alerting.action.SNMPTrapAction">
<ellipse fill="#4daf4a" stroke="black" cx="911.035" cy="-386.87" rx="82.9636" ry="26.7407"/>
<text text-anchor="middle" x="911.035" y="-390.67" font-family="Times,serif" font-size="14.00" fill="white">Write B/W_</text>
<text text-anchor="middle" x="911.035" y="-375.67" font-family="Times,serif" font-size="14.00" fill="white">Critical_Clear</text>
</a>
</g>
</g>
<!-- Write B/W_Major
Trap -->
<g id="${uniqueid}_node5" class="node"><title>Write B/W_Major
Trap</title>
<g id="a_${uniqueid}_node5"><a xlink:href="#2964619989939150" xlink:title="com.watch4net.alerting.action.SNMPTrapAction">
<ellipse fill="#4daf4a" stroke="black" cx="911.035" cy="-170.87" rx="99.9045" ry="26.7407"/>
<text text-anchor="middle" x="911.035" y="-174.67" font-family="Times,serif" font-size="14.00" fill="white">Write B/W_Major</text>
<text text-anchor="middle" x="911.035" y="-159.67" font-family="Times,serif" font-size="14.00" fill="white">Trap</text>
</a>
</g>
</g>
<!-- Write B/W_Major_
Clear -->
<g id="${uniqueid}_node6" class="node"><title>Write B/W_Major_
Clear</title>
<g id="a_${uniqueid}_node6"><a xlink:href="#1426746971111" xlink:title="com.watch4net.alerting.action.SNMPTrapAction">
<ellipse fill="#4daf4a" stroke="black" cx="911.035" cy="-242.87" rx="105.218" ry="26.7407"/>
<text text-anchor="middle" x="911.035" y="-246.67" font-family="Times,serif" font-size="14.00" fill="white">Write B/W_Major_</text>
<text text-anchor="middle" x="911.035" y="-231.67" font-family="Times,serif" font-size="14.00" fill="white">Clear</text>
</a>
</g>
</g>
<!-- Write b/w Crit
comp -->
<g id="${uniqueid}_node8" class="node"><title>Write b/w Crit
comp</title>
<g id="a_${uniqueid}_node8"><a xlink:href="#2964619989883594" xlink:title="com.watch4net.alerting.operation.comparator.ConstantComparatorOperation">
<polygon fill="#ff7f00" stroke="black" points="635.676,-381.87 516.676,-343.87 635.676,-305.87 754.676,-343.87 635.676,-381.87"/>
<text text-anchor="middle" x="635.676" y="-347.67" font-family="Times,serif" font-size="14.00" fill="white">Write b/w Crit</text>
<text text-anchor="middle" x="635.676" y="-332.67" font-family="Times,serif" font-size="14.00" fill="white">comp</text>
</a>
</g>
</g>
<!-- Write b/w Case&#45;&gt;Write b/w Crit
comp -->
<g id="${uniqueid}_edge3" class="edge"><title>Write b/w Case:e&#45;&gt;Write b/w Crit
comp:w</title>
<path fill="none" stroke="black" d="M465.676,-206.87C526.696,-206.87 459.695,-328.286 505.712,-342.514"/>
<polygon fill="black" stroke="black" points="505.296,-345.99 515.676,-343.87 506.239,-339.054 505.296,-345.99"/>
</g>
<!-- Write b/w Maj
Comp -->
<g id="${uniqueid}_node9" class="node"><title>Write b/w Maj
Comp</title>
<g id="a_${uniqueid}_node9"><a xlink:href="#2964619989924861" xlink:title="com.watch4net.alerting.operation.comparator.ConstantComparatorOperation">
<polygon fill="#ff7f00" stroke="black" points="635.676,-244.87 516.676,-206.87 635.676,-168.87 754.676,-206.87 635.676,-244.87"/>
<text text-anchor="middle" x="635.676" y="-210.67" font-family="Times,serif" font-size="14.00" fill="white">Write b/w Maj</text>
<text text-anchor="middle" x="635.676" y="-195.67" font-family="Times,serif" font-size="14.00" fill="white">Comp</text>
</a>
</g>
</g>
<!-- Write b/w Case&#45;&gt;Write b/w Maj
Comp -->
<g id="${uniqueid}_edge4" class="edge"><title>Write b/w Case:e&#45;&gt;Write b/w Maj
Comp:w</title>
<path fill="none" stroke="black" d="M465.676,-206.87C484.079,-206.87 491.052,-206.87 505.526,-206.87"/>
<polygon fill="black" stroke="black" points="505.676,-210.37 515.676,-206.87 505.676,-203.37 505.676,-210.37"/>
</g>
<!-- Write b/w Minor
Comp -->
<g id="${uniqueid}_node10" class="node"><title>Write b/w Minor
Comp</title>
<g id="a_${uniqueid}_node10"><a xlink:href="#2964619989956406" xlink:title="com.watch4net.alerting.operation.comparator.ConstantComparatorOperation">
<polygon fill="#ff7f00" stroke="black" points="635.676,-106.87 501.676,-68.8701 635.676,-30.8701 769.676,-68.8701 635.676,-106.87"/>
<text text-anchor="middle" x="635.676" y="-72.6701" font-family="Times,serif" font-size="14.00" fill="white">Write b/w Minor</text>
<text text-anchor="middle" x="635.676" y="-57.6701" font-family="Times,serif" font-size="14.00" fill="white">Comp</text>
</a>
</g>
</g>
<!-- Write b/w Case&#45;&gt;Write b/w Minor
Comp -->
<g id="${uniqueid}_edge5" class="edge"><title>Write b/w Case:e&#45;&gt;Write b/w Minor
Comp:w</title>
<path fill="none" stroke="black" d="M465.676,-206.87C525.101,-206.87 449.035,-85.581 491.523,-70.4199"/>
<polygon fill="black" stroke="black" points="492.319,-73.839 501.676,-68.8701 491.263,-66.9191 492.319,-73.839"/>
</g>
<!-- Write b/w Crit
comp&#45;&gt;Write B/W_
Critical Trap -->
<g id="${uniqueid}_edge7" class="edge"><title>Write b/w Crit
comp:se&#45;&gt;Write B/W_
Critical Trap:w</title>
<path fill="none" stroke="black" d="M665.676,-314.87C715.807,-264.74 754.841,-310.17 822.795,-314.54"/>
<polygon fill="black" stroke="black" points="822.927,-318.046 833.035,-314.87 823.153,-311.049 822.927,-318.046"/>
<text text-anchor="middle" x="650.176" y="-303.67" font-family="Times,serif" font-size="14.00">true</text>
</g>
<!-- Write b/w Crit
comp&#45;&gt;Write B/W_
Critical_Clear -->
<g id="${uniqueid}_edge6" class="edge"><title>Write b/w Crit
comp:ne&#45;&gt;Write B/W_
Critical_Clear:w</title>
<path fill="none" stroke="black" d="M663.676,-372.87C666.522,-375.716 661.719,-379.14 664.676,-381.87 715.132,-428.449 751.178,-390.942 816.705,-387.169"/>
<polygon fill="black" stroke="black" points="817.14,-390.658 827.035,-386.87 816.938,-383.661 817.14,-390.658"/>
<text text-anchor="middle" x="646.676" y="-376.67" font-family="Times,serif" font-size="14.00">false</text>
</g>
<!-- Write b/w Maj
Comp&#45;&gt;Write B/W_Major
Trap -->
<g id="${uniqueid}_edge9" class="edge"><title>Write b/w Maj
Comp:se&#45;&gt;Write B/W_Major
Trap:w</title>
<path fill="none" stroke="black" d="M665.676,-177.87C708.613,-134.933 741.972,-166.919 799.755,-170.545"/>
<polygon fill="black" stroke="black" points="799.93,-174.053 810.035,-170.87 800.151,-167.056 799.93,-174.053"/>
<text text-anchor="middle" x="650.176" y="-166.67" font-family="Times,serif" font-size="14.00">true</text>
</g>
<!-- Write b/w Maj
Comp&#45;&gt;Write B/W_Major_
Clear -->
<g id="${uniqueid}_edge8" class="edge"><title>Write b/w Maj
Comp:ne&#45;&gt;Write B/W_Major_
Clear:w</title>
<path fill="none" stroke="black" d="M663.676,-235.87C666.522,-238.716 661.677,-242.186 664.676,-244.87 694.481,-271.547 714.684,-245.654 754.676,-244.87 773.458,-244.502 780.551,-243.372 795.317,-242.994"/>
<polygon fill="black" stroke="black" points="795.719,-246.49 805.676,-242.87 795.635,-239.49 795.719,-246.49"/>
<text text-anchor="middle" x="646.676" y="-239.67" font-family="Times,serif" font-size="14.00">false</text>
</g>
<!-- WriteB/W_Minor
Trap -->
<g id="${uniqueid}_node11" class="node"><title>WriteB/W_Minor
Trap</title>
<g id="a_${uniqueid}_node11"><a xlink:href="#2964619989969529" xlink:title="com.watch4net.alerting.action.SNMPTrapAction">
<ellipse fill="#4daf4a" stroke="black" cx="911.035" cy="-26.8701" rx="96.7474" ry="26.7407"/>
<text text-anchor="middle" x="911.035" y="-30.6701" font-family="Times,serif" font-size="14.00" fill="white">WriteB/W_Minor</text>
<text text-anchor="middle" x="911.035" y="-15.6701" font-family="Times,serif" font-size="14.00" fill="white">Trap</text>
</a>
</g>
</g>
<!-- Write b/w Minor
Comp&#45;&gt;WriteB/W_Minor
Trap -->
<g id="${uniqueid}_edge11" class="edge"><title>Write b/w Minor
Comp:se&#45;&gt;WriteB/W_Minor
Trap:w</title>
<path fill="none" stroke="black" d="M666.676,-38.8701C710.393,4.84674 744.052,-23.4916 802.957,-26.6019"/>
<polygon fill="black" stroke="black" points="802.946,-30.1028 813.035,-26.8701 803.132,-23.1053 802.946,-30.1028"/>
<text text-anchor="middle" x="651.176" y="-27.6701" font-family="Times,serif" font-size="14.00">true</text>
</g>
<!-- WriteB/W_Minor_
Clear -->
<g id="${uniqueid}_node12" class="node"><title>WriteB/W_Minor_
Clear</title>
<g id="a_${uniqueid}_node12"><a xlink:href="#1426747022964" xlink:title="com.watch4net.alerting.action.SNMPTrapAction">
<ellipse fill="#4daf4a" stroke="black" cx="911.035" cy="-98.8701" rx="102.561" ry="26.7407"/>
<text text-anchor="middle" x="911.035" y="-102.67" font-family="Times,serif" font-size="14.00" fill="white">WriteB/W_Minor_</text>
<text text-anchor="middle" x="911.035" y="-87.6701" font-family="Times,serif" font-size="14.00" fill="white">Clear</text>
</a>
</g>
</g>
<!-- Write b/w Minor
Comp&#45;&gt;WriteB/W_Minor_
Clear -->
<g id="${uniqueid}_edge10" class="edge"><title>Write b/w Minor
Comp:ne&#45;&gt;WriteB/W_Minor_
Clear:w</title>
<path fill="none" stroke="black" d="M664.676,-98.8701C667.21,-101.404 662.99,-104.499 665.676,-106.87 700.328,-137.46 723.711,-111.736 769.676,-106.87 782.605,-105.501 787.682,-101.539 796.972,-99.7569"/>
<polygon fill="black" stroke="black" points="797.381,-103.235 807.035,-98.8701 796.766,-96.2615 797.381,-103.235"/>
<text text-anchor="middle" x="647.676" y="-102.67" font-family="Times,serif" font-size="14.00">false</text>
</g>
</g>
</svg>
