<?xml version="1.0" encoding="UTF-8" standalone="no"?>
<!DOCTYPE svg PUBLIC "-//W3C//DTD SVG 1.1//EN"
 "http://www.w3.org/Graphics/SVG/1.1/DTD/svg11.dtd">
<!-- Generated by graphviz version 2.38.0 (20140413.2041)
 -->
<!-- Title: EMC Data Domain Alert Definitions/System/CPU Utilization Pages: 1 -->
<svg width="822pt" height="131pt"
 viewBox="0.00 0.00 822.48 131.20" xmlns="http://www.w3.org/2000/svg" xmlns:xlink="http://www.w3.org/1999/xlink">
<g id="${uniqueid}" class="graph" transform="scale(1 1) rotate(0) translate(4 127.202)">
<title>EMC Data Domain Alert Definitions/System/CPU Utilization</title>
<polygon fill="white" stroke="none" points="-4,4 -4,-127.202 818.478,-127.202 818.478,4 -4,4"/>
<!-- Action
CLEARMajor -->
<g id="${uniqueid}_node1" class="node"><title>Action
CLEARMajor</title>
<g id="a_${uniqueid}_node1"><a xlink:href="#78837312519706" xlink:title="com.watch4net.alerting.action.SNMPTrapAction">
<ellipse fill="#4daf4a" stroke="black" cx="724.136" cy="-94" rx="79.3924" ry="26.7407"/>
<text text-anchor="middle" x="724.136" y="-97.8" font-family="Times,serif" font-size="14.00" fill="white">Action</text>
<text text-anchor="middle" x="724.136" y="-82.8" font-family="Times,serif" font-size="14.00" fill="white">CLEARMajor</text>
</a>
</g>
</g>
<!-- Action SETMajor -->
<g id="${uniqueid}_node2" class="node"><title>Action SETMajor</title>
<g id="a_${uniqueid}_node2"><a xlink:href="#78837312576677" xlink:title="com.watch4net.alerting.action.SNMPTrapAction">
<ellipse fill="#4daf4a" stroke="black" cx="724.136" cy="-18" rx="90.1842" ry="18"/>
<text text-anchor="middle" x="724.136" y="-14.3" font-family="Times,serif" font-size="14.00" fill="white">Action SETMajor</text>
</a>
</g>
</g>
<!-- CPU Utilization
Threshold
Critical Check -->
<g id="${uniqueid}_node3" class="node"><title>CPU Utilization
Threshold
Critical Check</title>
<g id="a_${uniqueid}_node3"><a xlink:href="#78837312509264" xlink:title="com.watch4net.alerting.operation.comparator.ConstantComparatorOperation">
<polygon fill="#ff7f00" stroke="black" points="469.794,-109 341.794,-56 469.794,-3 597.794,-56 469.794,-109"/>
<text text-anchor="middle" x="469.794" y="-67.3" font-family="Times,serif" font-size="14.00" fill="white">CPU Utilization</text>
<text text-anchor="middle" x="469.794" y="-52.3" font-family="Times,serif" font-size="14.00" fill="white">Threshold</text>
<text text-anchor="middle" x="469.794" y="-37.3" font-family="Times,serif" font-size="14.00" fill="white">Critical Check</text>
</a>
</g>
</g>
<!-- CPU Utilization
Threshold
Critical Check&#45;&gt;Action
CLEARMajor -->
<g id="${uniqueid}_edge1" class="edge"><title>CPU Utilization
Threshold
Critical Check:ne&#45;&gt;Action
CLEARMajor:w</title>
<path fill="none" stroke="black" d="M506.794,-94C509.156,-96.3623 505.354,-106.718 507.794,-109 537.003,-136.327 558.303,-115.363 597.794,-109 614.82,-106.257 620.099,-98.0689 632.865,-95.0949"/>
<polygon fill="black" stroke="black" points="633.563,-98.5405 643.136,-94 632.821,-91.5799 633.563,-98.5405"/>
<text text-anchor="middle" x="489.794" y="-82.8" font-family="Times,serif" font-size="14.00">false</text>
</g>
<!-- CPU Utilization
Threshold
Critical Check&#45;&gt;Action SETMajor -->
<g id="${uniqueid}_edge2" class="edge"><title>CPU Utilization
Threshold
Critical Check:se&#45;&gt;Action SETMajor:w</title>
<path fill="none" stroke="black" d="M508.794,-18C545.622,18.8285 574.432,-13.3964 623.666,-17.5684"/>
<polygon fill="black" stroke="black" points="623.654,-21.071 633.794,-18 623.952,-14.0773 623.654,-21.071"/>
<text text-anchor="middle" x="493.294" y="-6.8" font-family="Times,serif" font-size="14.00">true</text>
</g>
<!-- Case -->
<g id="${uniqueid}_node4" class="node"><title>Case</title>
<g id="a_${uniqueid}_node4"><a xlink:href="#78837312500220" xlink:title="com.watch4net.alerting.operation.CaseOperation">
<polygon fill="#377eb8" stroke="black" points="305.794,-74 251.794,-74 251.794,-38 305.794,-38 305.794,-74"/>
<text text-anchor="middle" x="278.794" y="-52.3" font-family="Times,serif" font-size="14.00" fill="white">Case</text>
</a>
</g>
</g>
<!-- Case&#45;&gt;CPU Utilization
Threshold
Critical Check -->
<g id="${uniqueid}_edge3" class="edge"><title>Case:e&#45;&gt;CPU Utilization
Threshold
Critical Check:w</title>
<path fill="none" stroke="black" d="M305.794,-56C317.794,-56 323.044,-56 331.669,-56"/>
<polygon fill="black" stroke="black" points="331.794,-59.5001 341.794,-56 331.794,-52.5001 331.794,-59.5001"/>
</g>
<!-- Filter -->
<g id="${uniqueid}_node5" class="node"><title>Filter</title>
<g id="a_${uniqueid}_node5"><a xlink:href="#78837312192855" xlink:title="com.watch4net.alerting.operation.FilteredEntryPoint">
<ellipse fill="#984ea3" stroke="black" cx="36.3968" cy="-56" rx="36.2938" ry="18"/>
<text text-anchor="middle" x="36.3968" y="-52.3" font-family="Times,serif" font-size="14.00" fill="white">Filter</text>
</a>
</g>
</g>
<!-- Wait3polling -->
<g id="${uniqueid}_node6" class="node"><title>Wait3polling</title>
<g id="a_${uniqueid}_node6"><a xlink:href="#78837312436585" xlink:title="com.watch4net.alerting.operation.window.HistoryOperation">
<polygon fill="#377eb8" stroke="black" points="215.794,-74 108.794,-74 108.794,-38 215.794,-38 215.794,-74"/>
<text text-anchor="middle" x="162.294" y="-52.3" font-family="Times,serif" font-size="14.00" fill="white">Wait3polling</text>
</a>
</g>
</g>
<!-- Filter&#45;&gt;Wait3polling -->
<g id="${uniqueid}_edge4" class="edge"><title>Filter:e&#45;&gt;Wait3polling:w</title>
<path fill="none" stroke="black" d="M72.7935,-56C84.7935,-56 90.0435,-56 98.6685,-56"/>
<polygon fill="black" stroke="black" points="98.7936,-59.5001 108.794,-56 98.7935,-52.5001 98.7936,-59.5001"/>
</g>
<!-- Wait3polling&#45;&gt;Case -->
<g id="${uniqueid}_edge5" class="edge"><title>Wait3polling:e&#45;&gt;Case:w</title>
<path fill="none" stroke="black" d="M215.794,-56C227.794,-56 233.044,-56 241.669,-56"/>
<polygon fill="black" stroke="black" points="241.794,-59.5001 251.794,-56 241.794,-52.5001 241.794,-59.5001"/>
<text text-anchor="middle" x="239.794" y="-44.8" font-family="Times,serif" font-size="14.00">output</text>
</g>
</g>
</svg>
