<?xml version="1.0" encoding="UTF-8" standalone="no"?>
<!DOCTYPE svg PUBLIC "-//W3C//DTD SVG 1.1//EN"
 "http://www.w3.org/Graphics/SVG/1.1/DTD/svg11.dtd">
<!-- Generated by graphviz version 2.38.0 (20140413.2041)
 -->
<!-- Title: VMware vCenter Alert Definitions/Virtual Machines/High CPU Utilization Pages: 1 -->
<svg width="864pt" height="278pt"
 viewBox="0.00 0.00 864.42 277.74" xmlns="http://www.w3.org/2000/svg" xmlns:xlink="http://www.w3.org/1999/xlink">
<g id="${uniqueid}" class="graph" transform="scale(1 1) rotate(0) translate(4 273.74)">
<title>VMware vCenter Alert Definitions/Virtual Machines/High CPU Utilization</title>
<polygon fill="white" stroke="none" points="-4,4 -4,-273.74 860.423,-273.74 860.423,4 -4,4"/>
<!-- VMHCU_Case
Statement -->
<g id="${uniqueid}_node1" class="node"><title>VMHCU_Case
Statement</title>
<g id="a_${uniqueid}_node1"><a xlink:href="#1413925578193" xlink:title="com.watch4net.alerting.operation.CaseOperation">
<polygon fill="#377eb8" stroke="black" points="329.948,-153.87 209.948,-153.87 209.948,-115.87 329.948,-115.87 329.948,-153.87"/>
<text text-anchor="middle" x="269.948" y="-138.67" font-family="Times,serif" font-size="14.00" fill="white">VMHCU_Case</text>
<text text-anchor="middle" x="269.948" y="-123.67" font-family="Times,serif" font-size="14.00" fill="white">Statement</text>
</a>
</g>
</g>
<!-- VM_CPU_Util_
Check_Critical -->
<g id="${uniqueid}_node4" class="node"><title>VM_CPU_Util_
Check_Critical</title>
<g id="a_${uniqueid}_node4"><a xlink:href="#2304208033600788" xlink:title="com.watch4net.alerting.operation.comparator.ConstantComparatorOperation">
<polygon fill="#ff7f00" stroke="black" points="489.948,-237.87 365.948,-199.87 489.948,-161.87 613.948,-199.87 489.948,-237.87"/>
<text text-anchor="middle" x="489.948" y="-203.67" font-family="Times,serif" font-size="14.00" fill="white">VM_CPU_Util_</text>
<text text-anchor="middle" x="489.948" y="-188.67" font-family="Times,serif" font-size="14.00" fill="white">Check_Critical</text>
</a>
</g>
</g>
<!-- VMHCU_Case
Statement&#45;&gt;VM_CPU_Util_
Check_Critical -->
<g id="${uniqueid}_edge1" class="edge"><title>VMHCU_Case
Statement:e&#45;&gt;VM_CPU_Util_
Check_Critical:w</title>
<path fill="none" stroke="black" d="M329.948,-134.87C358.844,-134.87 339.451,-184.636 356.274,-197.077"/>
<polygon fill="black" stroke="black" points="355.37,-200.459 365.948,-199.87 357.312,-193.733 355.37,-200.459"/>
</g>
<!-- VM_CPU_Util_
Check_Major -->
<g id="${uniqueid}_node5" class="node"><title>VM_CPU_Util_
Check_Major</title>
<g id="a_${uniqueid}_node5"><a xlink:href="#2304208033669524" xlink:title="com.watch4net.alerting.operation.comparator.ConstantComparatorOperation">
<polygon fill="#ff7f00" stroke="black" points="489.948,-107.87 366.948,-69.8701 489.948,-31.8701 612.948,-69.8701 489.948,-107.87"/>
<text text-anchor="middle" x="489.948" y="-73.6701" font-family="Times,serif" font-size="14.00" fill="white">VM_CPU_Util_</text>
<text text-anchor="middle" x="489.948" y="-58.6701" font-family="Times,serif" font-size="14.00" fill="white">Check_Major</text>
</a>
</g>
</g>
<!-- VMHCU_Case
Statement&#45;&gt;VM_CPU_Util_
Check_Major -->
<g id="${uniqueid}_edge2" class="edge"><title>VMHCU_Case
Statement:e&#45;&gt;VM_CPU_Util_
Check_Major:w</title>
<path fill="none" stroke="black" d="M329.948,-134.87C358.844,-134.87 339.451,-85.1044 356.274,-72.663"/>
<polygon fill="black" stroke="black" points="357.312,-76.0066 365.948,-69.8701 355.37,-69.2813 357.312,-76.0066"/>
</g>
<!-- VMHCU_Critical_
Clear -->
<g id="${uniqueid}_node2" class="node"><title>VMHCU_Critical_
Clear</title>
<g id="a_${uniqueid}_node2"><a xlink:href="#2304208033654818" xlink:title="com.watch4net.alerting.action.SNMPTrapAction">
<ellipse fill="#4daf4a" stroke="black" cx="753.186" cy="-242.87" rx="103.476" ry="26.7407"/>
<text text-anchor="middle" x="753.186" y="-246.67" font-family="Times,serif" font-size="14.00" fill="white">VMHCU_Critical_</text>
<text text-anchor="middle" x="753.186" y="-231.67" font-family="Times,serif" font-size="14.00" fill="white">Clear</text>
</a>
</g>
</g>
<!-- VMHCU_Major_
Clear -->
<g id="${uniqueid}_node3" class="node"><title>VMHCU_Major_
Clear</title>
<g id="a_${uniqueid}_node3"><a xlink:href="#2304208033707637" xlink:title="com.watch4net.alerting.action.SNMPTrapAction">
<ellipse fill="#4daf4a" stroke="black" cx="753.186" cy="-98.8701" rx="95.4188" ry="26.7407"/>
<text text-anchor="middle" x="753.186" y="-102.67" font-family="Times,serif" font-size="14.00" fill="white">VMHCU_Major_</text>
<text text-anchor="middle" x="753.186" y="-87.6701" font-family="Times,serif" font-size="14.00" fill="white">Clear</text>
</a>
</g>
</g>
<!-- VM_CPU_Util_
Check_Critical&#45;&gt;VMHCU_Critical_
Clear -->
<g id="${uniqueid}_edge3" class="edge"><title>VM_CPU_Util_
Check_Critical:ne&#45;&gt;VMHCU_Critical_
Clear:w</title>
<path fill="none" stroke="black" d="M517.948,-228.87C520.794,-231.716 516.001,-235.129 518.948,-237.87 559.031,-275.147 587.996,-246.797 639.666,-243.227"/>
<polygon fill="black" stroke="black" points="640.076,-246.715 649.948,-242.87 639.833,-239.719 640.076,-246.715"/>
<text text-anchor="middle" x="500.948" y="-232.67" font-family="Times,serif" font-size="14.00">false</text>
</g>
<!-- VM_CPU_Util_
Critical -->
<g id="${uniqueid}_node6" class="node"><title>VM_CPU_Util_
Critical</title>
<g id="a_${uniqueid}_node6"><a xlink:href="#2304208033629423" xlink:title="com.watch4net.alerting.action.SNMPTrapAction">
<ellipse fill="#4daf4a" stroke="black" cx="753.186" cy="-170.87" rx="86.9483" ry="26.7407"/>
<text text-anchor="middle" x="753.186" y="-174.67" font-family="Times,serif" font-size="14.00" fill="white">VM_CPU_Util_</text>
<text text-anchor="middle" x="753.186" y="-159.67" font-family="Times,serif" font-size="14.00" fill="white">Critical</text>
</a>
</g>
</g>
<!-- VM_CPU_Util_
Check_Critical&#45;&gt;VM_CPU_Util_
Critical -->
<g id="${uniqueid}_edge4" class="edge"><title>VM_CPU_Util_
Check_Critical:se&#45;&gt;VM_CPU_Util_
Critical:w</title>
<path fill="none" stroke="black" d="M519.948,-170.87C563.096,-127.722 596.771,-166.151 654.854,-170.483"/>
<polygon fill="black" stroke="black" points="655.062,-173.993 665.186,-170.87 655.324,-166.998 655.062,-173.993"/>
<text text-anchor="middle" x="504.448" y="-159.67" font-family="Times,serif" font-size="14.00">true</text>
</g>
<!-- VM_CPU_Util_
Check_Major&#45;&gt;VMHCU_Major_
Clear -->
<g id="${uniqueid}_edge5" class="edge"><title>VM_CPU_Util_
Check_Major:ne&#45;&gt;VMHCU_Major_
Clear:w</title>
<path fill="none" stroke="black" d="M517.948,-98.8701C520.794,-101.716 515.949,-105.186 518.948,-107.87 550.078,-135.733 571.39,-112.149 612.948,-107.87 628.508,-106.268 634.261,-101.504 645.889,-99.6349"/>
<polygon fill="black" stroke="black" points="646.473,-103.101 656.186,-98.8701 645.954,-96.1205 646.473,-103.101"/>
<text text-anchor="middle" x="500.948" y="-102.67" font-family="Times,serif" font-size="14.00">false</text>
</g>
<!-- VM_CPU_Util_
Major -->
<g id="${uniqueid}_node8" class="node"><title>VM_CPU_Util_
Major</title>
<g id="a_${uniqueid}_node8"><a xlink:href="#2304208033688297" xlink:title="com.watch4net.alerting.action.SNMPTrapAction">
<ellipse fill="#4daf4a" stroke="black" cx="753.186" cy="-26.8701" rx="86.9483" ry="26.7407"/>
<text text-anchor="middle" x="753.186" y="-30.6701" font-family="Times,serif" font-size="14.00" fill="white">VM_CPU_Util_</text>
<text text-anchor="middle" x="753.186" y="-15.6701" font-family="Times,serif" font-size="14.00" fill="white">Major</text>
</a>
</g>
</g>
<!-- VM_CPU_Util_
Check_Major&#45;&gt;VM_CPU_Util_
Major -->
<g id="${uniqueid}_edge6" class="edge"><title>VM_CPU_Util_
Check_Major:se&#45;&gt;VM_CPU_Util_
Major:w</title>
<path fill="none" stroke="black" d="M519.948,-40.8701C563.385,2.56713 596.663,-23.7264 655.173,-26.6204"/>
<polygon fill="black" stroke="black" points="655.102,-30.1196 665.186,-26.8701 655.276,-23.1217 655.102,-30.1196"/>
<text text-anchor="middle" x="504.448" y="-29.6701" font-family="Times,serif" font-size="14.00">true</text>
</g>
<!-- VM_CPU_Util_
Filter -->
<g id="${uniqueid}_node7" class="node"><title>VM_CPU_Util_
Filter</title>
<g id="a_${uniqueid}_node7"><a xlink:href="#2304208033494500" xlink:title="com.watch4net.alerting.operation.FilteredEntryPoint">
<ellipse fill="#984ea3" stroke="black" cx="86.9741" cy="-134.87" rx="86.9483" ry="26.7407"/>
<text text-anchor="middle" x="86.9741" y="-138.67" font-family="Times,serif" font-size="14.00" fill="white">VM_CPU_Util_</text>
<text text-anchor="middle" x="86.9741" y="-123.67" font-family="Times,serif" font-size="14.00" fill="white">Filter</text>
</a>
</g>
</g>
<!-- VM_CPU_Util_
Filter&#45;&gt;VMHCU_Case
Statement -->
<g id="${uniqueid}_edge7" class="edge"><title>VM_CPU_Util_
Filter:e&#45;&gt;VMHCU_Case
Statement:w</title>
<path fill="none" stroke="black" d="M173.948,-134.87C185.948,-134.87 191.198,-134.87 199.823,-134.87"/>
<polygon fill="black" stroke="black" points="199.948,-138.37 209.948,-134.87 199.948,-131.37 199.948,-138.37"/>
</g>
</g>
</svg>
