<?xml version="1.0" encoding="UTF-8" standalone="no"?>
<!DOCTYPE svg PUBLIC "-//W3C//DTD SVG 1.1//EN"
 "http://www.w3.org/Graphics/SVG/1.1/DTD/svg11.dtd">
<!-- Generated by graphviz version 2.38.0 (20140413.2041)
 -->
<!-- Title: IBMDS5k Alert Definitions/IBMDS5k&#45;Controller/Read Bandwidth Pages: 1 -->
<svg width="972pt" height="422pt"
 viewBox="0.00 0.00 971.67 421.74" xmlns="http://www.w3.org/2000/svg" xmlns:xlink="http://www.w3.org/1999/xlink">
<g id="${uniqueid}" class="graph" transform="scale(1 1) rotate(0) translate(4 417.74)">
<title>IBMDS5k Alert Definitions/IBMDS5k&#45;Controller/Read Bandwidth</title>
<polygon fill="white" stroke="none" points="-4,4 -4,-417.74 967.666,-417.74 967.666,4 -4,4"/>
<!-- Controller read
b/w entry -->
<g id="${uniqueid}_node1" class="node"><title>Controller read
b/w entry</title>
<g id="a_${uniqueid}_node1"><a xlink:href="#2964521047093790" xlink:title="com.watch4net.alerting.operation.FilteredEntryPoint">
<ellipse fill="#984ea3" stroke="black" cx="89.8026" cy="-206.87" rx="89.6056" ry="26.7407"/>
<text text-anchor="middle" x="89.8026" y="-210.67" font-family="Times,serif" font-size="14.00" fill="white">Controller read</text>
<text text-anchor="middle" x="89.8026" y="-195.67" font-family="Times,serif" font-size="14.00" fill="white">b/w entry</text>
</a>
</g>
</g>
<!-- Roundoff -->
<g id="${uniqueid}_node12" class="node"><title>Roundoff</title>
<g id="a_${uniqueid}_node12"><a xlink:href="#1441797358302" xlink:title="com.watch4net.alerting.operation.math.ConstantMathOperation">
<polygon fill="#377eb8" stroke="black" points="296.605,-224.87 215.605,-224.87 215.605,-188.87 296.605,-188.87 296.605,-224.87"/>
<text text-anchor="middle" x="256.105" y="-203.17" font-family="Times,serif" font-size="14.00" fill="white">Roundoff</text>
</a>
</g>
</g>
<!-- Controller read
b/w entry&#45;&gt;Roundoff -->
<g id="${uniqueid}_edge1" class="edge"><title>Controller read
b/w entry:e&#45;&gt;Roundoff:w</title>
<path fill="none" stroke="black" d="M179.605,-206.87C191.605,-206.87 196.855,-206.87 205.48,-206.87"/>
<polygon fill="black" stroke="black" points="205.605,-210.37 215.605,-206.87 205.605,-203.37 205.605,-210.37"/>
</g>
<!-- Read B/W_
Critical Clear -->
<g id="${uniqueid}_node2" class="node"><title>Read B/W_
Critical Clear</title>
<g id="a_${uniqueid}_node2"><a xlink:href="#1426672586735" xlink:title="com.watch4net.alerting.action.SNMPTrapAction">
<ellipse fill="#4daf4a" stroke="black" cx="861.136" cy="-386.87" rx="80.7205" ry="26.7407"/>
<text text-anchor="middle" x="861.136" y="-390.67" font-family="Times,serif" font-size="14.00" fill="white">Read B/W_</text>
<text text-anchor="middle" x="861.136" y="-375.67" font-family="Times,serif" font-size="14.00" fill="white">Critical Clear</text>
</a>
</g>
</g>
<!-- Read B/W_
Critical Trap -->
<g id="${uniqueid}_node3" class="node"><title>Read B/W_
Critical Trap</title>
<g id="a_${uniqueid}_node3"><a xlink:href="#2964521047163057" xlink:title="com.watch4net.alerting.action.SNMPTrapAction">
<ellipse fill="#4daf4a" stroke="black" cx="861.136" cy="-314.87" rx="76.2353" ry="26.7407"/>
<text text-anchor="middle" x="861.136" y="-318.67" font-family="Times,serif" font-size="14.00" fill="white">Read B/W_</text>
<text text-anchor="middle" x="861.136" y="-303.67" font-family="Times,serif" font-size="14.00" fill="white">Critical Trap</text>
</a>
</g>
</g>
<!-- Read B/W_Major
Trap -->
<g id="${uniqueid}_node4" class="node"><title>Read B/W_Major
Trap</title>
<g id="a_${uniqueid}_node4"><a xlink:href="#2964521047194964" xlink:title="com.watch4net.alerting.action.SNMPTrapAction">
<ellipse fill="#4daf4a" stroke="black" cx="861.136" cy="-170.87" rx="96.7474" ry="26.7407"/>
<text text-anchor="middle" x="861.136" y="-174.67" font-family="Times,serif" font-size="14.00" fill="white">Read B/W_Major</text>
<text text-anchor="middle" x="861.136" y="-159.67" font-family="Times,serif" font-size="14.00" fill="white">Trap</text>
</a>
</g>
</g>
<!-- Read B/W_Major_
Clear -->
<g id="${uniqueid}_node5" class="node"><title>Read B/W_Major_
Clear</title>
<g id="a_${uniqueid}_node5"><a xlink:href="#1426672813125" xlink:title="com.watch4net.alerting.action.SNMPTrapAction">
<ellipse fill="#4daf4a" stroke="black" cx="861.136" cy="-242.87" rx="102.561" ry="26.7407"/>
<text text-anchor="middle" x="861.136" y="-246.67" font-family="Times,serif" font-size="14.00" fill="white">Read B/W_Major_</text>
<text text-anchor="middle" x="861.136" y="-231.67" font-family="Times,serif" font-size="14.00" fill="white">Clear</text>
</a>
</g>
</g>
<!-- Read b/w Case -->
<g id="${uniqueid}_node6" class="node"><title>Read b/w Case</title>
<g id="a_${uniqueid}_node6"><a xlink:href="#2964521047136100" xlink:title="com.watch4net.alerting.operation.CaseOperation">
<polygon fill="#377eb8" stroke="black" points="454.605,-224.87 332.605,-224.87 332.605,-188.87 454.605,-188.87 454.605,-224.87"/>
<text text-anchor="middle" x="393.605" y="-203.17" font-family="Times,serif" font-size="14.00" fill="white">Read b/w Case</text>
</a>
</g>
</g>
<!-- Read b/w Crit
comp -->
<g id="${uniqueid}_node7" class="node"><title>Read b/w Crit
comp</title>
<g id="a_${uniqueid}_node7"><a xlink:href="#2964521047145271" xlink:title="com.watch4net.alerting.operation.comparator.ConstantComparatorOperation">
<polygon fill="#ff7f00" stroke="black" points="606.605,-381.87 490.605,-343.87 606.605,-305.87 722.605,-343.87 606.605,-381.87"/>
<text text-anchor="middle" x="606.605" y="-347.67" font-family="Times,serif" font-size="14.00" fill="white">Read b/w Crit</text>
<text text-anchor="middle" x="606.605" y="-332.67" font-family="Times,serif" font-size="14.00" fill="white">comp</text>
</a>
</g>
</g>
<!-- Read b/w Case&#45;&gt;Read b/w Crit
comp -->
<g id="${uniqueid}_edge2" class="edge"><title>Read b/w Case:e&#45;&gt;Read b/w Crit
comp:w</title>
<path fill="none" stroke="black" d="M454.605,-206.87C513.626,-206.87 438.291,-327.28 480.518,-342.331"/>
<polygon fill="black" stroke="black" points="480.192,-345.822 490.605,-343.87 481.247,-338.902 480.192,-345.822"/>
</g>
<!-- Read b/w Maj
Comp -->
<g id="${uniqueid}_node8" class="node"><title>Read b/w Maj
Comp</title>
<g id="a_${uniqueid}_node8"><a xlink:href="#2964521047183025" xlink:title="com.watch4net.alerting.operation.comparator.ConstantComparatorOperation">
<polygon fill="#ff7f00" stroke="black" points="606.605,-244.87 491.605,-206.87 606.605,-168.87 721.605,-206.87 606.605,-244.87"/>
<text text-anchor="middle" x="606.605" y="-210.67" font-family="Times,serif" font-size="14.00" fill="white">Read b/w Maj</text>
<text text-anchor="middle" x="606.605" y="-195.67" font-family="Times,serif" font-size="14.00" fill="white">Comp</text>
</a>
</g>
</g>
<!-- Read b/w Case&#45;&gt;Read b/w Maj
Comp -->
<g id="${uniqueid}_edge3" class="edge"><title>Read b/w Case:e&#45;&gt;Read b/w Maj
Comp:w</title>
<path fill="none" stroke="black" d="M454.605,-206.87C466.605,-206.87 471.855,-206.87 480.48,-206.87"/>
<polygon fill="black" stroke="black" points="480.605,-210.37 490.605,-206.87 480.605,-203.37 480.605,-210.37"/>
</g>
<!-- Read b/w Min
Comp -->
<g id="${uniqueid}_node9" class="node"><title>Read b/w Min
Comp</title>
<g id="a_${uniqueid}_node9"><a xlink:href="#2964521047208938" xlink:title="com.watch4net.alerting.operation.comparator.ConstantComparatorOperation">
<polygon fill="#ff7f00" stroke="black" points="606.605,-107.87 490.605,-69.8701 606.605,-31.8701 722.605,-69.8701 606.605,-107.87"/>
<text text-anchor="middle" x="606.605" y="-73.6701" font-family="Times,serif" font-size="14.00" fill="white">Read b/w Min</text>
<text text-anchor="middle" x="606.605" y="-58.6701" font-family="Times,serif" font-size="14.00" fill="white">Comp</text>
</a>
</g>
</g>
<!-- Read b/w Case&#45;&gt;Read b/w Min
Comp -->
<g id="${uniqueid}_edge4" class="edge"><title>Read b/w Case:e&#45;&gt;Read b/w Min
Comp:w</title>
<path fill="none" stroke="black" d="M454.605,-206.87C513.626,-206.87 438.291,-86.4599 480.518,-71.4086"/>
<polygon fill="black" stroke="black" points="481.247,-74.8379 490.605,-69.8701 480.192,-67.918 481.247,-74.8379"/>
</g>
<!-- Read b/w Crit
comp&#45;&gt;Read B/W_
Critical Clear -->
<g id="${uniqueid}_edge5" class="edge"><title>Read b/w Crit
comp:ne&#45;&gt;Read B/W_
Critical Clear:w</title>
<path fill="none" stroke="black" d="M634.605,-372.87C637.451,-375.716 632.653,-379.134 635.605,-381.87 679.858,-422.888 711.667,-390.825 768.934,-387.195"/>
<polygon fill="black" stroke="black" points="769.252,-390.687 779.136,-386.87 769.029,-383.69 769.252,-390.687"/>
<text text-anchor="middle" x="617.605" y="-376.67" font-family="Times,serif" font-size="14.00">false</text>
</g>
<!-- Read b/w Crit
comp&#45;&gt;Read B/W_
Critical Trap -->
<g id="${uniqueid}_edge6" class="edge"><title>Read b/w Crit
comp:se&#45;&gt;Read B/W_
Critical Trap:w</title>
<path fill="none" stroke="black" d="M636.605,-314.87C680.227,-271.248 714.252,-310.269 773.075,-314.506"/>
<polygon fill="black" stroke="black" points="773.016,-318.006 783.136,-314.87 773.269,-311.011 773.016,-318.006"/>
<text text-anchor="middle" x="621.105" y="-303.67" font-family="Times,serif" font-size="14.00">true</text>
</g>
<!-- Read b/w Maj
Comp&#45;&gt;Read B/W_Major
Trap -->
<g id="${uniqueid}_edge8" class="edge"><title>Read b/w Maj
Comp:se&#45;&gt;Read B/W_Major
Trap:w</title>
<path fill="none" stroke="black" d="M636.605,-177.87C673.942,-140.534 702.979,-167.051 752.871,-170.511"/>
<polygon fill="black" stroke="black" points="753.019,-174.018 763.136,-170.87 753.264,-167.023 753.019,-174.018"/>
<text text-anchor="middle" x="621.105" y="-166.67" font-family="Times,serif" font-size="14.00">true</text>
</g>
<!-- Read b/w Maj
Comp&#45;&gt;Read B/W_Major_
Clear -->
<g id="${uniqueid}_edge7" class="edge"><title>Read b/w Maj
Comp:ne&#45;&gt;Read B/W_Major_
Clear:w</title>
<path fill="none" stroke="black" d="M634.605,-235.87C637.451,-238.716 632.606,-242.186 635.605,-244.87 664.086,-270.361 683.397,-245.902 721.605,-244.87 734.081,-244.533 739.439,-243.558 748.469,-243.106"/>
<polygon fill="black" stroke="black" points="748.689,-246.602 758.605,-242.87 748.526,-239.604 748.689,-246.602"/>
<text text-anchor="middle" x="617.605" y="-239.67" font-family="Times,serif" font-size="14.00">false</text>
</g>
<!-- ReadB/W_Minor
Trap -->
<g id="${uniqueid}_node10" class="node"><title>ReadB/W_Minor
Trap</title>
<g id="a_${uniqueid}_node10"><a xlink:href="#2964521047222065" xlink:title="com.watch4net.alerting.action.SNMPTrapAction">
<ellipse fill="#4daf4a" stroke="black" cx="861.136" cy="-26.8701" rx="94.5053" ry="26.7407"/>
<text text-anchor="middle" x="861.136" y="-30.6701" font-family="Times,serif" font-size="14.00" fill="white">ReadB/W_Minor</text>
<text text-anchor="middle" x="861.136" y="-15.6701" font-family="Times,serif" font-size="14.00" fill="white">Trap</text>
</a>
</g>
</g>
<!-- Read b/w Min
Comp&#45;&gt;ReadB/W_Minor
Trap -->
<g id="${uniqueid}_edge10" class="edge"><title>Read b/w Min
Comp:se&#45;&gt;ReadB/W_Minor
Trap:w</title>
<path fill="none" stroke="black" d="M636.605,-40.8701C674.777,-2.69806 703.95,-23.8917 754.987,-26.598"/>
<polygon fill="black" stroke="black" points="755.045,-30.1007 765.136,-26.8701 755.233,-23.1032 755.045,-30.1007"/>
<text text-anchor="middle" x="621.105" y="-29.6701" font-family="Times,serif" font-size="14.00">true</text>
</g>
<!-- ReadB/W_Minor_
Clear -->
<g id="${uniqueid}_node11" class="node"><title>ReadB/W_Minor_
Clear</title>
<g id="a_${uniqueid}_node11"><a xlink:href="#1426672978693" xlink:title="com.watch4net.alerting.action.SNMPTrapAction">
<ellipse fill="#4daf4a" stroke="black" cx="861.136" cy="-98.8701" rx="99.9045" ry="26.7407"/>
<text text-anchor="middle" x="861.136" y="-102.67" font-family="Times,serif" font-size="14.00" fill="white">ReadB/W_Minor_</text>
<text text-anchor="middle" x="861.136" y="-87.6701" font-family="Times,serif" font-size="14.00" fill="white">Clear</text>
</a>
</g>
</g>
<!-- Read b/w Min
Comp&#45;&gt;ReadB/W_Minor_
Clear -->
<g id="${uniqueid}_edge9" class="edge"><title>Read b/w Min
Comp:ne&#45;&gt;ReadB/W_Minor_
Clear:w</title>
<path fill="none" stroke="black" d="M634.605,-98.8701C637.451,-101.716 632.606,-105.186 635.605,-107.87 664.417,-133.658 684.206,-112.41 722.605,-107.87 735.647,-106.328 740.663,-101.872 749.997,-99.8674"/>
<polygon fill="black" stroke="black" points="750.526,-103.332 760.136,-98.8701 749.841,-96.3659 750.526,-103.332"/>
<text text-anchor="middle" x="617.605" y="-102.67" font-family="Times,serif" font-size="14.00">false</text>
</g>
<!-- Roundoff&#45;&gt;Read b/w Case -->
<g id="${uniqueid}_edge11" class="edge"><title>Roundoff:e&#45;&gt;Read b/w Case:w</title>
<path fill="none" stroke="black" d="M296.605,-206.87C308.605,-206.87 313.855,-206.87 322.48,-206.87"/>
<polygon fill="black" stroke="black" points="322.605,-210.37 332.605,-206.87 322.605,-203.37 322.605,-210.37"/>
</g>
</g>
</svg>
