<?xml version="1.0" encoding="UTF-8" standalone="no"?>
<!DOCTYPE svg PUBLIC "-//W3C//DTD SVG 1.1//EN"
 "http://www.w3.org/Graphics/SVG/1.1/DTD/svg11.dtd">
<!-- Generated by graphviz version 2.38.0 (20140413.2041)
 -->
<!-- Title: IBM SAN Volume Controller Storwize Alert Definitions/SVC&#45;Virtual Disk/Operational Status Pages: 1 -->
<svg width="690pt" height="550pt"
 viewBox="0.00 0.00 689.52 550.48" xmlns="http://www.w3.org/2000/svg" xmlns:xlink="http://www.w3.org/1999/xlink">
<g id="${uniqueid}" class="graph" transform="scale(1 1) rotate(0) translate(4 546.477)">
<title>IBM SAN Volume Controller Storwize Alert Definitions/SVC&#45;Virtual Disk/Operational Status</title>
<polygon fill="white" stroke="none" points="-4,4 -4,-546.477 685.518,-546.477 685.518,4 -4,4"/>
<!-- Info -->
<g id="${uniqueid}_node1" class="node"><title>Info</title>
<g id="a_${uniqueid}_node1"><a xlink:href="#381790067713794" xlink:title="com.watch4net.alerting.operation.comparator.ConstantComparatorOperation">
<polygon fill="#ff7f00" stroke="black" points="380.995,-492.477 337.594,-474.477 380.995,-456.477 424.397,-474.477 380.995,-492.477"/>
<text text-anchor="middle" x="380.995" y="-470.777" font-family="Times,serif" font-size="14.00" fill="white">Info</text>
</a>
</g>
</g>
<!-- availability&#45;
info&#45;alert&#45;trap -->
<g id="${uniqueid}_node5" class="node"><title>availability&#45;
info&#45;alert&#45;trap</title>
<g id="a_${uniqueid}_node5"><a xlink:href="#381790067727211" xlink:title="com.watch4net.alerting.action.SNMPTrapAction">
<ellipse fill="#4daf4a" stroke="black" cx="584.644" cy="-461.477" rx="91.4341" ry="26.7407"/>
<text text-anchor="middle" x="584.644" y="-465.277" font-family="Times,serif" font-size="14.00" fill="white">availability&#45;</text>
<text text-anchor="middle" x="584.644" y="-450.277" font-family="Times,serif" font-size="14.00" fill="white">info&#45;alert&#45;trap</text>
</a>
</g>
</g>
<!-- Info&#45;&gt;availability&#45;
info&#45;alert&#45;trap -->
<g id="${uniqueid}_edge2" class="edge"><title>Info:se&#45;&gt;availability&#45;
info&#45;alert&#45;trap:w</title>
<path fill="none" stroke="black" d="M394.995,-461.477C422.878,-433.594 444.816,-456.902 481.455,-460.914"/>
<polygon fill="black" stroke="black" points="481.466,-464.42 491.644,-461.477 481.852,-457.43 481.466,-464.42"/>
<text text-anchor="middle" x="410.495" y="-450.277" font-family="Times,serif" font-size="14.00">true</text>
</g>
<!-- info&#45;clear&#45;trap -->
<g id="${uniqueid}_node10" class="node"><title>info&#45;clear&#45;trap</title>
<g id="a_${uniqueid}_node10"><a xlink:href="#381790067739704" xlink:title="com.watch4net.alerting.action.SNMPTrapAction">
<ellipse fill="#4daf4a" stroke="black" cx="584.644" cy="-524.477" rx="83.6854" ry="18"/>
<text text-anchor="middle" x="584.644" y="-520.777" font-family="Times,serif" font-size="14.00" fill="white">info&#45;clear&#45;trap</text>
</a>
</g>
</g>
<!-- Info&#45;&gt;info&#45;clear&#45;trap -->
<g id="${uniqueid}_edge1" class="edge"><title>Info:ne&#45;&gt;info&#45;clear&#45;trap:w</title>
<path fill="none" stroke="black" d="M392.995,-487.477C394.598,-489.079 392.472,-490.799 393.995,-492.477 424.587,-526.18 447.121,-524.89 489.393,-524.527"/>
<polygon fill="black" stroke="black" points="489.662,-528.026 499.644,-524.477 489.627,-521.026 489.662,-528.026"/>
<text text-anchor="middle" x="411.995" y="-491.277" font-family="Times,serif" font-size="14.00">false</text>
</g>
<!-- SVC&#45;OPStatus&#45;
Filter -->
<g id="${uniqueid}_node2" class="node"><title>SVC&#45;OPStatus&#45;
Filter</title>
<g id="a_${uniqueid}_node2"><a xlink:href="#381790067676993" xlink:title="com.watch4net.alerting.operation.FilteredEntryPoint">
<ellipse fill="#984ea3" stroke="black" cx="80.6102" cy="-286.477" rx="80.7205" ry="26.7407"/>
<text text-anchor="middle" x="80.6102" y="-290.277" font-family="Times,serif" font-size="14.00" fill="white">SVC&#45;OPStatus&#45;</text>
<text text-anchor="middle" x="80.6102" y="-275.277" font-family="Times,serif" font-size="14.00" fill="white">Filter</text>
</a>
</g>
</g>
<!-- Severity -->
<g id="${uniqueid}_node3" class="node"><title>Severity</title>
<g id="a_${uniqueid}_node3"><a xlink:href="#1437054553778" xlink:title="com.watch4net.alerting.operation.CaseOperation">
<polygon fill="#377eb8" stroke="black" points="274.22,-304.477 197.22,-304.477 197.22,-268.477 274.22,-268.477 274.22,-304.477"/>
<text text-anchor="middle" x="235.72" y="-282.777" font-family="Times,serif" font-size="14.00" fill="white">Severity</text>
</a>
</g>
</g>
<!-- SVC&#45;OPStatus&#45;
Filter&#45;&gt;Severity -->
<g id="${uniqueid}_edge3" class="edge"><title>SVC&#45;OPStatus&#45;
Filter:e&#45;&gt;Severity:w</title>
<path fill="none" stroke="black" d="M161.22,-286.477C173.22,-286.477 178.47,-286.477 187.095,-286.477"/>
<polygon fill="black" stroke="black" points="187.22,-289.977 197.22,-286.477 187.22,-282.977 187.22,-289.977"/>
</g>
<!-- Severity&#45;&gt;Info -->
<g id="${uniqueid}_edge4" class="edge"><title>Severity:e&#45;&gt;Info:w</title>
<path fill="none" stroke="black" d="M274.22,-286.477C358.392,-286.477 257.479,-458.668 325.745,-473.465"/>
<polygon fill="black" stroke="black" points="325.7,-476.978 335.995,-474.477 326.388,-470.011 325.7,-476.978"/>
</g>
<!-- critical -->
<g id="${uniqueid}_node8" class="node"><title>critical</title>
<g id="a_${uniqueid}_node8"><a xlink:href="#381790067747801" xlink:title="com.watch4net.alerting.operation.comparator.ConstantComparatorOperation">
<polygon fill="#ff7f00" stroke="black" points="380.995,-349.477 310.445,-331.477 380.995,-313.477 451.546,-331.477 380.995,-349.477"/>
<text text-anchor="middle" x="380.995" y="-327.777" font-family="Times,serif" font-size="14.00" fill="white">critical</text>
</a>
</g>
</g>
<!-- Severity&#45;&gt;critical -->
<g id="${uniqueid}_edge5" class="edge"><title>Severity:e&#45;&gt;critical:w</title>
<path fill="none" stroke="black" d="M274.22,-286.477C295.631,-286.477 288.504,-317.922 300.551,-328.24"/>
<polygon fill="black" stroke="black" points="299.627,-331.622 310.22,-331.477 301.848,-324.984 299.627,-331.622"/>
</g>
<!-- major -->
<g id="${uniqueid}_node11" class="node"><title>major</title>
<g id="a_${uniqueid}_node11"><a xlink:href="#381790067775773" xlink:title="com.watch4net.alerting.operation.comparator.ConstantComparatorOperation">
<polygon fill="#ff7f00" stroke="black" points="380.995,-259.477 331.226,-241.477 380.995,-223.477 430.765,-241.477 380.995,-259.477"/>
<text text-anchor="middle" x="380.995" y="-237.777" font-family="Times,serif" font-size="14.00" fill="white">major</text>
</a>
</g>
</g>
<!-- Severity&#45;&gt;major -->
<g id="${uniqueid}_edge6" class="edge"><title>Severity:e&#45;&gt;major:w</title>
<path fill="none" stroke="black" d="M274.22,-286.477C302.214,-286.477 299.481,-251.715 320.033,-243.296"/>
<polygon fill="black" stroke="black" points="320.787,-246.717 329.995,-241.477 319.529,-239.831 320.787,-246.717"/>
</g>
<!-- warning -->
<g id="${uniqueid}_node13" class="node"><title>warning</title>
<g id="a_${uniqueid}_node13"><a xlink:href="#381790067805001" xlink:title="com.watch4net.alerting.operation.comparator.ConstantComparatorOperation">
<polygon fill="#ff7f00" stroke="black" points="380.995,-123.477 317.652,-105.477 380.995,-87.4767 444.339,-105.477 380.995,-123.477"/>
<text text-anchor="middle" x="380.995" y="-101.777" font-family="Times,serif" font-size="14.00" fill="white">warning</text>
</a>
</g>
</g>
<!-- Severity&#45;&gt;warning -->
<g id="${uniqueid}_edge7" class="edge"><title>Severity:e&#45;&gt;warning:w</title>
<path fill="none" stroke="black" d="M274.22,-286.477C353.006,-286.477 245.373,-122.048 306.682,-106.632"/>
<polygon fill="black" stroke="black" points="307.447,-110.069 316.995,-105.477 306.668,-103.112 307.447,-110.069"/>
</g>
<!-- availability&#45;
critical&#45;trap -->
<g id="${uniqueid}_node4" class="node"><title>availability&#45;
critical&#45;trap</title>
<g id="a_${uniqueid}_node4"><a xlink:href="#381790067767540" xlink:title="com.watch4net.alerting.action.SNMPTrapAction">
<ellipse fill="#4daf4a" stroke="black" cx="584.644" cy="-317.477" rx="80.7205" ry="26.7407"/>
<text text-anchor="middle" x="584.644" y="-321.277" font-family="Times,serif" font-size="14.00" fill="white">availability&#45;</text>
<text text-anchor="middle" x="584.644" y="-306.277" font-family="Times,serif" font-size="14.00" fill="white">critical&#45;trap</text>
</a>
</g>
</g>
<!-- availability&#45;
major&#45;alert&#45;trap -->
<g id="${uniqueid}_node6" class="node"><title>availability&#45;
major&#45;alert&#45;trap</title>
<g id="a_${uniqueid}_node6"><a xlink:href="#381790067795581" xlink:title="com.watch4net.alerting.action.SNMPTrapAction">
<ellipse fill="#4daf4a" stroke="black" cx="584.644" cy="-191.477" rx="96.7474" ry="26.7407"/>
<text text-anchor="middle" x="584.644" y="-195.277" font-family="Times,serif" font-size="14.00" fill="white">availability&#45;</text>
<text text-anchor="middle" x="584.644" y="-180.277" font-family="Times,serif" font-size="14.00" fill="white">major&#45;alert&#45;trap</text>
</a>
</g>
</g>
<!-- availability&#45;
warning&#45;alert&#45;
trap -->
<g id="${uniqueid}_node7" class="node"><title>availability&#45;
warning&#45;alert&#45;
trap</title>
<g id="a_${uniqueid}_node7"><a xlink:href="#381790067825207" xlink:title="com.watch4net.alerting.action.SNMPTrapAction">
<ellipse fill="#4daf4a" stroke="black" cx="584.644" cy="-37.4767" rx="86.0347" ry="37.4533"/>
<text text-anchor="middle" x="584.644" y="-48.7767" font-family="Times,serif" font-size="14.00" fill="white">availability&#45;</text>
<text text-anchor="middle" x="584.644" y="-33.7767" font-family="Times,serif" font-size="14.00" fill="white">warning&#45;alert&#45;</text>
<text text-anchor="middle" x="584.644" y="-18.7767" font-family="Times,serif" font-size="14.00" fill="white">trap</text>
</a>
</g>
</g>
<!-- critical&#45;&gt;availability&#45;
critical&#45;trap -->
<g id="${uniqueid}_edge9" class="edge"><title>critical:se&#45;&gt;availability&#45;
critical&#45;trap:w</title>
<path fill="none" stroke="black" d="M395.995,-317.477C427.024,-286.448 451.382,-312.871 492.436,-316.964"/>
<polygon fill="black" stroke="black" points="492.481,-320.47 502.644,-317.477 492.832,-313.479 492.481,-320.47"/>
<text text-anchor="middle" x="380.495" y="-306.277" font-family="Times,serif" font-size="14.00">true</text>
</g>
<!-- critical&#45;clear&#45;
trap -->
<g id="${uniqueid}_node9" class="node"><title>critical&#45;clear&#45;
trap</title>
<g id="a_${uniqueid}_node9"><a xlink:href="#381790067757813" xlink:title="com.watch4net.alerting.action.SNMPTrapAction">
<ellipse fill="#4daf4a" stroke="black" cx="584.644" cy="-389.477" rx="91.4341" ry="26.7407"/>
<text text-anchor="middle" x="584.644" y="-393.277" font-family="Times,serif" font-size="14.00" fill="white">critical&#45;clear&#45;</text>
<text text-anchor="middle" x="584.644" y="-378.277" font-family="Times,serif" font-size="14.00" fill="white">trap</text>
</a>
</g>
</g>
<!-- critical&#45;&gt;critical&#45;clear&#45;
trap -->
<g id="${uniqueid}_edge8" class="edge"><title>critical:ne&#45;&gt;critical&#45;clear&#45;
trap:w</title>
<path fill="none" stroke="black" d="M393.995,-345.477C395.291,-346.772 393.799,-348.089 394.995,-349.477 423.045,-381.999 442.078,-388.57 481.469,-389.382"/>
<polygon fill="black" stroke="black" points="481.612,-392.883 491.644,-389.477 481.677,-385.884 481.612,-392.883"/>
<text text-anchor="middle" x="374.995" y="-349.277" font-family="Times,serif" font-size="14.00">false</text>
</g>
<!-- major&#45;&gt;availability&#45;
major&#45;alert&#45;trap -->
<g id="${uniqueid}_edge11" class="edge"><title>major:se&#45;&gt;availability&#45;
major&#45;alert&#45;trap:w</title>
<path fill="none" stroke="black" d="M394.995,-228.477C423.81,-199.662 440.494,-192.571 477.376,-191.601"/>
<polygon fill="black" stroke="black" points="477.813,-195.096 487.771,-191.477 477.729,-188.097 477.813,-195.096"/>
<text text-anchor="middle" x="379.495" y="-217.277" font-family="Times,serif" font-size="14.00">true</text>
</g>
<!-- major&#45;clear&#45;trap -->
<g id="${uniqueid}_node12" class="node"><title>major&#45;clear&#45;trap</title>
<g id="a_${uniqueid}_node12"><a xlink:href="#381790067785728" xlink:title="com.watch4net.alerting.action.SNMPTrapAction">
<ellipse fill="#4daf4a" stroke="black" cx="584.644" cy="-254.477" rx="89.0842" ry="18"/>
<text text-anchor="middle" x="584.644" y="-250.777" font-family="Times,serif" font-size="14.00" fill="white">major&#45;clear&#45;trap</text>
</a>
</g>
</g>
<!-- major&#45;&gt;major&#45;clear&#45;trap -->
<g id="${uniqueid}_edge10" class="edge"><title>major:ne&#45;&gt;major&#45;clear&#45;trap:w</title>
<path fill="none" stroke="black" d="M392.995,-254.477C394.598,-256.079 392.243,-258.04 393.995,-259.477 406.587,-269.799 414.36,-260.111 430.63,-259.477 455.47,-258.508 463.954,-255.433 484.591,-254.656"/>
<polygon fill="black" stroke="black" points="484.708,-258.155 494.644,-254.477 484.583,-251.156 484.708,-258.155"/>
<text text-anchor="middle" x="373.995" y="-258.277" font-family="Times,serif" font-size="14.00">false</text>
</g>
<!-- warning&#45;&gt;availability&#45;
warning&#45;alert&#45;
trap -->
<g id="${uniqueid}_edge13" class="edge"><title>warning:se&#45;&gt;availability&#45;
warning&#45;alert&#45;
trap:w</title>
<path fill="none" stroke="black" d="M395.995,-91.4767C429.367,-58.1048 443.804,-40.1105 486.461,-37.7451"/>
<polygon fill="black" stroke="black" points="486.74,-41.239 496.644,-37.4767 486.555,-34.2415 486.74,-41.239"/>
<text text-anchor="middle" x="380.495" y="-80.2767" font-family="Times,serif" font-size="14.00">true</text>
</g>
<!-- warning&#45;clear&#45;
trap -->
<g id="${uniqueid}_node14" class="node"><title>warning&#45;clear&#45;
trap</title>
<g id="a_${uniqueid}_node14"><a xlink:href="#381790067814970" xlink:title="com.watch4net.alerting.action.SNMPTrapAction">
<ellipse fill="#4daf4a" stroke="black" cx="584.644" cy="-119.477" rx="86.0347" ry="26.7407"/>
<text text-anchor="middle" x="584.644" y="-123.277" font-family="Times,serif" font-size="14.00" fill="white">warning&#45;clear&#45;</text>
<text text-anchor="middle" x="584.644" y="-108.277" font-family="Times,serif" font-size="14.00" fill="white">trap</text>
</a>
</g>
</g>
<!-- warning&#45;&gt;warning&#45;clear&#45;
trap -->
<g id="${uniqueid}_edge12" class="edge"><title>warning:ne&#45;&gt;warning&#45;clear&#45;
trap:w</title>
<path fill="none" stroke="black" d="M393.995,-119.477C395.291,-120.772 393.551,-122.349 394.995,-123.477 427.848,-149.127 448.091,-124.085 486.476,-120.016"/>
<polygon fill="black" stroke="black" points="486.844,-123.501 496.644,-119.477 486.473,-116.511 486.844,-123.501"/>
<text text-anchor="middle" x="374.995" y="-123.277" font-family="Times,serif" font-size="14.00">false</text>
</g>
</g>
</svg>
