<?xml version="1.0" encoding="UTF-8" standalone="no"?>
<!DOCTYPE svg PUBLIC "-//W3C//DTD SVG 1.1//EN"
 "http://www.w3.org/Graphics/SVG/1.1/DTD/svg11.dtd">
<!-- Generated by graphviz version 2.38.0 (20140413.2041)
 -->
<!-- Title: EMC Isilon Alert Definitions/Isilon Shutdown Alert Pages: 1 -->
<svg width="544pt" height="84pt"
 viewBox="0.00 0.00 543.68 84.00" xmlns="http://www.w3.org/2000/svg" xmlns:xlink="http://www.w3.org/1999/xlink">
<g id="${uniqueid}" class="graph" transform="scale(1 1) rotate(0) translate(4 80)">
<title>EMC Isilon Alert Definitions/Isilon Shutdown Alert</title>
<polygon fill="white" stroke="none" points="-4,4 -4,-80 539.681,-80 539.681,4 -4,4"/>
<!-- BlockDuplicate
Alerts -->
<g id="${uniqueid}_node1" class="node"><title>BlockDuplicate
Alerts</title>
<g id="a_${uniqueid}_node1"><a xlink:href="#1435173230148" xlink:title="com.watch4net.alerting.operation.comparator.StringComparatorOperation">
<polygon fill="#ff7f00" stroke="black" points="258.091,-76 136.091,-38 258.091,-7.10543e-15 380.091,-38 258.091,-76"/>
<text text-anchor="middle" x="258.091" y="-41.8" font-family="Times,serif" font-size="14.00" fill="white">BlockDuplicate</text>
<text text-anchor="middle" x="258.091" y="-26.8" font-family="Times,serif" font-size="14.00" fill="white">Alerts</text>
</a>
</g>
</g>
<!-- RestartSet -->
<g id="${uniqueid}_node2" class="node"><title>RestartSet</title>
<g id="a_${uniqueid}_node2"><a xlink:href="#1821403281317735" xlink:title="com.watch4net.alerting.action.SNMPTrapAction">
<ellipse fill="#4daf4a" stroke="black" cx="475.886" cy="-38" rx="59.5901" ry="18"/>
<text text-anchor="middle" x="475.886" y="-34.3" font-family="Times,serif" font-size="14.00" fill="white">RestartSet</text>
</a>
</g>
</g>
<!-- BlockDuplicate
Alerts&#45;&gt;RestartSet -->
<g id="${uniqueid}_edge1" class="edge"><title>BlockDuplicate
Alerts:e&#45;&gt;RestartSet:w</title>
<path fill="none" stroke="black" d="M380.091,-38C392.091,-38 397.341,-38 405.966,-38"/>
<polygon fill="black" stroke="black" points="406.091,-41.5001 416.091,-38 406.091,-34.5001 406.091,-41.5001"/>
<text text-anchor="middle" x="395.591" y="-26.8" font-family="Times,serif" font-size="14.00">true</text>
</g>
<!-- Shutdown -->
<g id="${uniqueid}_node3" class="node"><title>Shutdown</title>
<g id="a_${uniqueid}_node3"><a xlink:href="#1821403281272873" xlink:title="com.watch4net.alerting.operation.FilteredEntryPoint">
<ellipse fill="#984ea3" stroke="black" cx="50.0456" cy="-38" rx="50.0912" ry="18"/>
<text text-anchor="middle" x="50.0456" y="-34.3" font-family="Times,serif" font-size="14.00" fill="white">Shutdown</text>
</a>
</g>
</g>
<!-- Shutdown&#45;&gt;BlockDuplicate
Alerts -->
<g id="${uniqueid}_edge2" class="edge"><title>Shutdown:e&#45;&gt;BlockDuplicate
Alerts:w</title>
<path fill="none" stroke="black" d="M100.091,-38C112.091,-38 117.341,-38 125.966,-38"/>
<polygon fill="black" stroke="black" points="126.091,-41.5001 136.091,-38 126.091,-34.5001 126.091,-41.5001"/>
</g>
</g>
</svg>
