<?xml version="1.0" encoding="UTF-8" standalone="no"?>
<!DOCTYPE svg PUBLIC "-//W3C//DTD SVG 1.1//EN"
 "http://www.w3.org/Graphics/SVG/1.1/DTD/svg11.dtd">
<!-- Generated by graphviz version 2.38.0 (20140413.2041)
 -->
<!-- Title: EMC M&amp;R Health/Percentage of File System Free Space Alert Pages: 1 -->
<svg width="1290pt" height="406pt"
 viewBox="0.00 0.00 1289.97 405.87" xmlns="http://www.w3.org/2000/svg" xmlns:xlink="http://www.w3.org/1999/xlink">
<g id="${uniqueid}" class="graph" transform="scale(1 1) rotate(0) translate(4 401.87)">
<title>EMC M&amp;R Health/Percentage of File System Free Space Alert</title>
<polygon fill="white" stroke="none" points="-4,4 -4,-401.87 1285.97,-401.87 1285.97,4 -4,4"/>
<!-- Action
CLEARMajor -->
<g id="${uniqueid}_node1" class="node"><title>Action
CLEARMajor</title>
<g id="a_${uniqueid}_node1"><a xlink:href="#0bd49932-6b7d-4194-932b-9f87e71fe4e6" xlink:title="com.watch4net.alerting.action.SNMPTrapAction">
<ellipse fill="#4daf4a" stroke="black" cx="1192.93" cy="-371" rx="65.1077" ry="26.7407"/>
<text text-anchor="middle" x="1192.93" y="-374.8" font-family="Times,serif" font-size="14.00" fill="white">Action</text>
<text text-anchor="middle" x="1192.93" y="-359.8" font-family="Times,serif" font-size="14.00" fill="white">CLEARMajor</text>
</a>
</g>
</g>
<!-- Action
CLEARMinor -->
<g id="${uniqueid}_node2" class="node"><title>Action
CLEARMinor</title>
<g id="a_${uniqueid}_node2"><a xlink:href="#1424789491646" xlink:title="com.watch4net.alerting.action.SNMPTrapAction">
<ellipse fill="#4daf4a" stroke="black" cx="1192.93" cy="-81" rx="65.1077" ry="26.7407"/>
<text text-anchor="middle" x="1192.93" y="-84.8" font-family="Times,serif" font-size="14.00" fill="white">Action</text>
<text text-anchor="middle" x="1192.93" y="-69.8" font-family="Times,serif" font-size="14.00" fill="white">CLEARMinor</text>
</a>
</g>
</g>
<!-- Action CLEARInfo -->
<g id="${uniqueid}_node3" class="node"><title>Action CLEARInfo</title>
<g id="a_${uniqueid}_node3"><a xlink:href="#1424789515673" xlink:title="com.watch4net.alerting.action.SNMPTrapAction">
<ellipse fill="#4daf4a" stroke="black" cx="1192.93" cy="-254" rx="89.0842" ry="18"/>
<text text-anchor="middle" x="1192.93" y="-250.3" font-family="Times,serif" font-size="14.00" fill="white">Action CLEARInfo</text>
</a>
</g>
</g>
<!-- Action SETInfo -->
<g id="${uniqueid}_node4" class="node"><title>Action SETInfo</title>
<g id="a_${uniqueid}_node4"><a xlink:href="#1424789504909" xlink:title="com.watch4net.alerting.action.SNMPTrapAction">
<ellipse fill="#4daf4a" stroke="black" cx="1192.93" cy="-144" rx="79.0865" ry="18"/>
<text text-anchor="middle" x="1192.93" y="-140.3" font-family="Times,serif" font-size="14.00" fill="white">Action SETInfo</text>
</a>
</g>
</g>
<!-- Action SETMajor -->
<g id="${uniqueid}_node5" class="node"><title>Action SETMajor</title>
<g id="a_${uniqueid}_node5"><a xlink:href="#f1f056b8-3a54-4fbe-8dae-970e0d63e4ef" xlink:title="com.watch4net.alerting.action.SNMPTrapAction">
<ellipse fill="#4daf4a" stroke="black" cx="1192.93" cy="-308" rx="83.6854" ry="18"/>
<text text-anchor="middle" x="1192.93" y="-304.3" font-family="Times,serif" font-size="14.00" fill="white">Action SETMajor</text>
</a>
</g>
</g>
<!-- Action SETMinor -->
<g id="${uniqueid}_node6" class="node"><title>Action SETMinor</title>
<g id="a_${uniqueid}_node6"><a xlink:href="#1424789475781" xlink:title="com.watch4net.alerting.action.SNMPTrapAction">
<ellipse fill="#4daf4a" stroke="black" cx="1192.93" cy="-18" rx="83.6854" ry="18"/>
<text text-anchor="middle" x="1192.93" y="-14.3" font-family="Times,serif" font-size="14.00" fill="white">Action SETMinor</text>
</a>
</g>
</g>
<!-- Case -->
<g id="${uniqueid}_node7" class="node"><title>Case</title>
<g id="a_${uniqueid}_node7"><a xlink:href="#1424789398951" xlink:title="com.watch4net.alerting.operation.CaseOperation">
<polygon fill="#377eb8" stroke="black" points="794.747,-217 740.747,-217 740.747,-181 794.747,-181 794.747,-217"/>
<text text-anchor="middle" x="767.747" y="-195.3" font-family="Times,serif" font-size="14.00" fill="white">Case</text>
</a>
</g>
</g>
<!-- ComparatorInfo -->
<g id="${uniqueid}_node8" class="node"><title>ComparatorInfo</title>
<g id="a_${uniqueid}_node8"><a xlink:href="#1424789438505" xlink:title="com.watch4net.alerting.operation.comparator.ConstantComparatorOperation">
<polygon fill="#ff7f00" stroke="black" points="949.319,-217 837.044,-199 949.319,-181 1061.59,-199 949.319,-217"/>
<text text-anchor="middle" x="949.319" y="-195.3" font-family="Times,serif" font-size="14.00" fill="white">ComparatorInfo</text>
</a>
</g>
</g>
<!-- Case&#45;&gt;ComparatorInfo -->
<g id="${uniqueid}_edge1" class="edge"><title>Case:e&#45;&gt;ComparatorInfo:w</title>
<path fill="none" stroke="black" d="M794.747,-199C809.326,-199 815.277,-199 826.216,-199"/>
<polygon fill="black" stroke="black" points="826.319,-202.5 836.319,-199 826.319,-195.5 826.319,-202.5"/>
</g>
<!-- ComparatorMajor -->
<g id="${uniqueid}_node9" class="node"><title>ComparatorMajor</title>
<g id="a_${uniqueid}_node9"><a xlink:href="#cf64439b-ff6e-4631-9505-07ff4d256599" xlink:title="com.watch4net.alerting.operation.comparator.ConstantComparatorOperation">
<polygon fill="#ff7f00" stroke="black" points="949.319,-271 830.676,-253 949.319,-235 1067.96,-253 949.319,-271"/>
<text text-anchor="middle" x="949.319" y="-249.3" font-family="Times,serif" font-size="14.00" fill="white">ComparatorMajor</text>
</a>
</g>
</g>
<!-- Case&#45;&gt;ComparatorMajor -->
<g id="${uniqueid}_edge2" class="edge"><title>Case:e&#45;&gt;ComparatorMajor:w</title>
<path fill="none" stroke="black" d="M794.747,-199C819.31,-199 807.228,-238.159 820.912,-249.784"/>
<polygon fill="black" stroke="black" points="820.155,-253.218 830.747,-253 822.33,-246.565 820.155,-253.218"/>
</g>
<!-- ComparatorMinor -->
<g id="${uniqueid}_node10" class="node"><title>ComparatorMinor</title>
<g id="a_${uniqueid}_node10"><a xlink:href="#1424789430444" xlink:title="com.watch4net.alerting.operation.comparator.ConstantComparatorOperation">
<polygon fill="#ff7f00" stroke="black" points="949.319,-163 830.676,-145 949.319,-127 1067.96,-145 949.319,-163"/>
<text text-anchor="middle" x="949.319" y="-141.3" font-family="Times,serif" font-size="14.00" fill="white">ComparatorMinor</text>
</a>
</g>
</g>
<!-- Case&#45;&gt;ComparatorMinor -->
<g id="${uniqueid}_edge3" class="edge"><title>Case:e&#45;&gt;ComparatorMinor:w</title>
<path fill="none" stroke="black" d="M794.747,-199C819.31,-199 807.228,-159.841 820.912,-148.216"/>
<polygon fill="black" stroke="black" points="822.33,-151.435 830.747,-145 820.155,-144.782 822.33,-151.435"/>
</g>
<!-- ComparatorInfo&#45;&gt;Action CLEARInfo -->
<g id="${uniqueid}_edge4" class="edge"><title>ComparatorInfo:ne&#45;&gt;Action CLEARInfo:w</title>
<path fill="none" stroke="black" d="M964.319,-215C965.021,-215.703 964.497,-216.441 965.319,-217 984.238,-229.869 1046.59,-217.635 1067.89,-226 1082.92,-231.905 1083.99,-246.179 1094.05,-251.734"/>
<polygon fill="black" stroke="black" points="1093.36,-255.166 1103.89,-254 1094.93,-248.345 1093.36,-255.166"/>
<text text-anchor="middle" x="945.319" y="-218.8" font-family="Times,serif" font-size="14.00">false</text>
</g>
<!-- ComparatorInfo&#45;&gt;Action SETInfo -->
<g id="${uniqueid}_edge6" class="edge"><title>ComparatorInfo:se&#45;&gt;Action SETInfo:w</title>
<path fill="none" stroke="black" d="M966.319,-183C982.372,-166.946 1046.46,-179.509 1067.89,-172 1086.02,-165.647 1088.42,-150.614 1101.88,-145.634"/>
<polygon fill="black" stroke="black" points="1102.62,-149.059 1111.93,-144 1101.5,-142.15 1102.62,-149.059"/>
<text text-anchor="middle" x="950.819" y="-171.8" font-family="Times,serif" font-size="14.00">true</text>
</g>
<!-- Custom post&#45;
filter -->
<g id="${uniqueid}_node11" class="node"><title>Custom post&#45;
filter</title>
<g id="a_${uniqueid}_node11"><a xlink:href="#1436291020504" xlink:title="1435689668905">
<polygon fill="#e41a1c" stroke="black" points="1246.43,-218 1139.43,-218 1139.43,-180 1246.43,-180 1246.43,-218"/>
<text text-anchor="middle" x="1192.93" y="-202.8" font-family="Times,serif" font-size="14.00" fill="white">Custom post&#45;</text>
<text text-anchor="middle" x="1192.93" y="-187.8" font-family="Times,serif" font-size="14.00" fill="white">filter</text>
</a>
</g>
</g>
<!-- ComparatorInfo&#45;&gt;Custom post&#45;
filter -->
<g id="${uniqueid}_edge5" class="edge"><title>ComparatorInfo:ne&#45;&gt;Custom post&#45;
filter:sw</title>
<path fill="none" stroke="black" d="M964.319,-215C965.021,-215.703 964.473,-216.478 965.319,-217 983.492,-228.232 1040.61,-221.694 1061.46,-217 1095.46,-209.342 1110.18,-163.732 1132.63,-173.917"/>
<polygon fill="black" stroke="black" points="1130.8,-176.915 1140.93,-180 1134.93,-171.268 1130.8,-176.915"/>
<text text-anchor="middle" x="1069.43" y="-168.8" font-family="Times,serif" font-size="14.00">1435689620024|entry</text>
</g>
<!-- ComparatorInfo&#45;&gt;Custom post&#45;
filter -->
<g id="${uniqueid}_edge7" class="edge"><title>ComparatorInfo:se&#45;&gt;Custom post&#45;
filter:nw</title>
<path fill="none" stroke="black" d="M966.319,-183C991.616,-157.703 1091.76,-231.018 1129.93,-222.67"/>
<polygon fill="black" stroke="black" points="1131.67,-225.71 1138.93,-218 1128.44,-219.496 1131.67,-225.71"/>
<text text-anchor="middle" x="1067.43" y="-221.8" font-family="Times,serif" font-size="14.00">1435689616003|entry</text>
</g>
<!-- ComparatorMajor&#45;&gt;Action
CLEARMajor -->
<g id="${uniqueid}_edge8" class="edge"><title>ComparatorMajor:ne&#45;&gt;Action
CLEARMajor:w</title>
<path fill="none" stroke="black" d="M964.319,-269C965.021,-269.703 964.648,-270.266 965.319,-271 1019.95,-330.808 1040.75,-367.871 1116.86,-370.811"/>
<polygon fill="black" stroke="black" points="1116.87,-374.312 1126.93,-371 1117,-367.313 1116.87,-374.312"/>
<text text-anchor="middle" x="945.319" y="-272.8" font-family="Times,serif" font-size="14.00">false</text>
</g>
<!-- ComparatorMajor&#45;&gt;Action SETMajor -->
<g id="${uniqueid}_edge10" class="edge"><title>ComparatorMajor:se&#45;&gt;Action SETMajor:w</title>
<path fill="none" stroke="black" d="M966.319,-237C989.072,-214.247 1059.14,-292.41 1097.9,-306.013"/>
<polygon fill="black" stroke="black" points="1097.44,-309.491 1107.93,-308 1098.8,-302.624 1097.44,-309.491"/>
<text text-anchor="middle" x="981.819" y="-225.8" font-family="Times,serif" font-size="14.00">true</text>
</g>
<!-- ComparatorMajor&#45;&gt;Custom post&#45;
filter -->
<g id="${uniqueid}_edge9" class="edge"><title>ComparatorMajor:ne&#45;&gt;Custom post&#45;
filter:sw</title>
<path fill="none" stroke="black" d="M964.319,-269C965.021,-269.703 964.473,-270.478 965.319,-271 1004.1,-294.967 1026.89,-290.922 1067.89,-271 1110.71,-250.195 1105.56,-160.002 1132.8,-173.712"/>
<polygon fill="black" stroke="black" points="1130.88,-176.653 1140.93,-180 1135.16,-171.115 1130.88,-176.653"/>
</g>
<!-- ComparatorMajor&#45;&gt;Custom post&#45;
filter -->
<g id="${uniqueid}_edge11" class="edge"><title>ComparatorMajor:se&#45;&gt;Custom post&#45;
filter:nw</title>
<path fill="none" stroke="black" d="M966.319,-237C978.417,-224.902 1094.05,-230.048 1129.61,-221.856"/>
<polygon fill="black" stroke="black" points="1131.03,-225.056 1138.93,-218 1128.35,-218.588 1131.03,-225.056"/>
</g>
<!-- ComparatorMinor&#45;&gt;Action
CLEARMinor -->
<g id="${uniqueid}_edge12" class="edge"><title>ComparatorMinor:ne&#45;&gt;Action
CLEARMinor:w</title>
<path fill="none" stroke="black" d="M964.319,-161C965.021,-161.703 964.473,-162.478 965.319,-163 984.708,-174.983 1047.6,-173.392 1067.89,-163 1104.43,-144.286 1085.98,-91.2717 1116.83,-82.2981"/>
<polygon fill="black" stroke="black" points="1117.46,-85.7466 1126.93,-81 1116.57,-78.8037 1117.46,-85.7466"/>
<text text-anchor="middle" x="983.319" y="-164.8" font-family="Times,serif" font-size="14.00">false</text>
</g>
<!-- ComparatorMinor&#45;&gt;Action SETMinor -->
<g id="${uniqueid}_edge14" class="edge"><title>ComparatorMinor:se&#45;&gt;Action SETMinor:w</title>
<path fill="none" stroke="black" d="M966.319,-129C1020.33,-74.9932 1027.4,-22.8965 1097.6,-18.3249"/>
<polygon fill="black" stroke="black" points="1098.05,-21.8126 1107.93,-18 1097.83,-14.816 1098.05,-21.8126"/>
<text text-anchor="middle" x="950.819" y="-117.8" font-family="Times,serif" font-size="14.00">true</text>
</g>
<!-- ComparatorMinor&#45;&gt;Custom post&#45;
filter -->
<g id="${uniqueid}_edge13" class="edge"><title>ComparatorMinor:ne&#45;&gt;Custom post&#45;
filter:sw</title>
<path fill="none" stroke="black" d="M964.319,-161C965.021,-161.703 964.499,-162.437 965.319,-163 979.647,-172.841 1095.75,-167.697 1131.53,-176.07"/>
<polygon fill="black" stroke="black" points="1130.36,-179.373 1140.93,-180 1133.06,-172.914 1130.36,-179.373"/>
</g>
<!-- ComparatorMinor&#45;&gt;Custom post&#45;
filter -->
<g id="${uniqueid}_edge15" class="edge"><title>ComparatorMinor:se&#45;&gt;Custom post&#45;
filter:nw</title>
<path fill="none" stroke="black" d="M966.319,-129C1000.98,-94.3366 1024.58,-149.036 1067.89,-172 1097.49,-187.694 1109.62,-233.019 1130.71,-223.955"/>
<polygon fill="black" stroke="black" points="1132.89,-226.7 1138.93,-218 1128.78,-221.03 1132.89,-226.7"/>
</g>
<!-- Custom pre&#45;
filter -->
<g id="${uniqueid}_node12" class="node"><title>Custom pre&#45;
filter</title>
<g id="a_${uniqueid}_node12"><a xlink:href="#1436291007521" xlink:title="1435689654812">
<polygon fill="#e41a1c" stroke="black" points="328.747,-218 229.747,-218 229.747,-180 328.747,-180 328.747,-218"/>
<text text-anchor="middle" x="279.247" y="-202.8" font-family="Times,serif" font-size="14.00" fill="white">Custom pre&#45;</text>
<text text-anchor="middle" x="279.247" y="-187.8" font-family="Times,serif" font-size="14.00" fill="white">filter</text>
</a>
</g>
</g>
<!-- Refine -->
<g id="${uniqueid}_node17" class="node"><title>Refine</title>
<g id="a_${uniqueid}_node17"><a xlink:href="#1428417071769" xlink:title="com.watch4net.alerting.operation.RefineFilterOperation">
<polygon fill="#377eb8" stroke="black" points="426.747,-217 364.747,-217 364.747,-181 426.747,-181 426.747,-217"/>
<text text-anchor="middle" x="395.747" y="-195.3" font-family="Times,serif" font-size="14.00" fill="white">Refine</text>
</a>
</g>
</g>
<!-- Custom pre&#45;
filter&#45;&gt;Refine -->
<g id="${uniqueid}_edge16" class="edge"><title>Custom pre&#45;
filter:e&#45;&gt;Refine:w</title>
<path fill="none" stroke="black" d="M328.747,-199C340.747,-199 345.997,-199 354.622,-199"/>
<polygon fill="black" stroke="black" points="354.747,-202.5 364.747,-199 354.747,-195.5 354.747,-202.5"/>
</g>
<!-- File system
total space -->
<g id="${uniqueid}_node13" class="node"><title>File system
total space</title>
<g id="a_${uniqueid}_node13"><a xlink:href="#a0d7758d-8cd4-4673-be83-82364aec4fd0" xlink:title="com.watch4net.alerting.operation.FilteredEntryPoint">
<ellipse fill="#984ea3" stroke="black" cx="96.8736" cy="-235" rx="70.0071" ry="26.7407"/>
<text text-anchor="middle" x="96.8736" y="-238.8" font-family="Times,serif" font-size="14.00" fill="white">File system</text>
<text text-anchor="middle" x="96.8736" y="-223.8" font-family="Times,serif" font-size="14.00" fill="white">total space</text>
</a>
</g>
</g>
<!-- File system
total space&#45;&gt;Custom pre&#45;
filter -->
<g id="${uniqueid}_edge17" class="edge"><title>File system
total space:e&#45;&gt;Custom pre&#45;
filter:w</title>
<path fill="none" stroke="black" d="M167.874,-235C195.961,-235 197.883,-206.943 219.837,-200.367"/>
<polygon fill="black" stroke="black" points="220.319,-203.834 229.747,-199 219.363,-196.9 220.319,-203.834"/>
</g>
<!-- File system free
space -->
<g id="${uniqueid}_node14" class="node"><title>File system free
space</title>
<g id="a_${uniqueid}_node14"><a xlink:href="#203266d2-a6c3-4264-be21-591df70b23f0" xlink:title="com.watch4net.alerting.operation.FilteredEntryPoint">
<ellipse fill="#984ea3" stroke="black" cx="96.8736" cy="-163" rx="96.7474" ry="26.7407"/>
<text text-anchor="middle" x="96.8736" y="-166.8" font-family="Times,serif" font-size="14.00" fill="white">File system free</text>
<text text-anchor="middle" x="96.8736" y="-151.8" font-family="Times,serif" font-size="14.00" fill="white">space</text>
</a>
</g>
</g>
<!-- File system free
space&#45;&gt;Custom pre&#45;
filter -->
<g id="${uniqueid}_edge18" class="edge"><title>File system free
space:e&#45;&gt;Custom pre&#45;
filter:w</title>
<path fill="none" stroke="black" d="M193.747,-163C212.132,-163 209.47,-186.766 219.962,-195.678"/>
<polygon fill="black" stroke="black" points="219.153,-199.099 229.747,-199 221.403,-192.471 219.153,-199.099"/>
</g>
<!-- File system free
space percent -->
<g id="${uniqueid}_node15" class="node"><title>File system free
space percent</title>
<g id="a_${uniqueid}_node15"><a xlink:href="#e8957d8f-9a9d-4e7c-89b2-2938726cfa78" xlink:title="com.watch4net.alerting.operation.arithmetic.DataArithmeticOperation">
<polygon fill="#377eb8" stroke="black" points="599.747,-218 462.747,-218 462.747,-180 599.747,-180 599.747,-218"/>
<text text-anchor="middle" x="531.247" y="-202.8" font-family="Times,serif" font-size="14.00" fill="white">File system free</text>
<text text-anchor="middle" x="531.247" y="-187.8" font-family="Times,serif" font-size="14.00" fill="white">space percent</text>
</a>
</g>
</g>
<!-- Percent -->
<g id="${uniqueid}_node16" class="node"><title>Percent</title>
<g id="a_${uniqueid}_node16"><a xlink:href="#dfe73e20-f2fe-4356-905d-a5635f5947ce" xlink:title="com.watch4net.alerting.operation.arithmetic.ConstantArithmeticOperation">
<polygon fill="#377eb8" stroke="black" points="704.747,-217 635.747,-217 635.747,-181 704.747,-181 704.747,-217"/>
<text text-anchor="middle" x="670.247" y="-195.3" font-family="Times,serif" font-size="14.00" fill="white">Percent</text>
</a>
</g>
</g>
<!-- File system free
space percent&#45;&gt;Percent -->
<g id="${uniqueid}_edge19" class="edge"><title>File system free
space percent:e&#45;&gt;Percent:w</title>
<path fill="none" stroke="black" d="M599.747,-199C611.747,-199 616.997,-199 625.622,-199"/>
<polygon fill="black" stroke="black" points="625.747,-202.5 635.747,-199 625.747,-195.5 625.747,-202.5"/>
</g>
<!-- Percent&#45;&gt;Case -->
<g id="${uniqueid}_edge20" class="edge"><title>Percent:e&#45;&gt;Case:w</title>
<path fill="none" stroke="black" d="M704.747,-199C716.747,-199 721.997,-199 730.622,-199"/>
<polygon fill="black" stroke="black" points="730.747,-202.5 740.747,-199 730.747,-195.5 730.747,-202.5"/>
</g>
<!-- Refine&#45;&gt;File system free
space percent -->
<g id="${uniqueid}_edge21" class="edge"><title>Refine:e&#45;&gt;File system free
space percent:w</title>
<path fill="none" stroke="black" d="M426.747,-199C438.747,-199 443.997,-199 452.622,-199"/>
<polygon fill="black" stroke="black" points="452.747,-202.5 462.747,-199 452.747,-195.5 452.747,-202.5"/>
</g>
</g>
</svg>
