<?xml version="1.0" encoding="UTF-8" standalone="no"?>
<!DOCTYPE svg PUBLIC "-//W3C//DTD SVG 1.1//EN"
 "http://www.w3.org/Graphics/SVG/1.1/DTD/svg11.dtd">
<!-- Generated by graphviz version 2.38.0 (20140413.2041)
 -->
<!-- Title: HP 3PAR Alert Definitions/3PAR&#45;Ports/High Bandwidth Pages: 1 -->
<svg width="899pt" height="422pt"
 viewBox="0.00 0.00 899.05 421.74" xmlns="http://www.w3.org/2000/svg" xmlns:xlink="http://www.w3.org/1999/xlink">
<g id="${uniqueid}" class="graph" transform="scale(1 1) rotate(0) translate(4 417.74)">
<title>HP 3PAR Alert Definitions/3PAR&#45;Ports/High Bandwidth</title>
<polygon fill="white" stroke="none" points="-4,4 -4,-417.74 895.05,-417.74 895.05,4 -4,4"/>
<!-- Bandwidth_CRIT -->
<g id="${uniqueid}_node1" class="node"><title>Bandwidth_CRIT</title>
<g id="a_${uniqueid}_node1"><a xlink:href="#378089036586775" xlink:title="com.watch4net.alerting.operation.comparator.ConstantComparatorOperation">
<polygon fill="#ff7f00" stroke="black" points="516.711,-348.87 390.024,-330.87 516.711,-312.87 643.399,-330.87 516.711,-348.87"/>
<text text-anchor="middle" x="516.711" y="-327.17" font-family="Times,serif" font-size="14.00" fill="white">Bandwidth_CRIT</text>
</a>
</g>
</g>
<!-- Bandwidth_CRIT
clear trap -->
<g id="${uniqueid}_node2" class="node"><title>Bandwidth_CRIT
clear trap</title>
<g id="a_${uniqueid}_node2"><a xlink:href="#378089036597161" xlink:title="com.watch4net.alerting.action.SNMPTrapAction">
<ellipse fill="#4daf4a" stroke="black" cx="788.52" cy="-386.87" rx="97.6615" ry="26.7407"/>
<text text-anchor="middle" x="788.52" y="-390.67" font-family="Times,serif" font-size="14.00" fill="white">Bandwidth_CRIT</text>
<text text-anchor="middle" x="788.52" y="-375.67" font-family="Times,serif" font-size="14.00" fill="white">clear trap</text>
</a>
</g>
</g>
<!-- Bandwidth_CRIT&#45;&gt;Bandwidth_CRIT
clear trap -->
<g id="${uniqueid}_edge1" class="edge"><title>Bandwidth_CRIT:ne&#45;&gt;Bandwidth_CRIT
clear trap:w</title>
<path fill="none" stroke="black" d="M531.711,-346.87C532.414,-347.573 531.934,-348.251 532.711,-348.87 586.071,-391.357 614.913,-387.399 679.313,-386.911"/>
<polygon fill="black" stroke="black" points="679.534,-390.41 689.52,-386.87 679.506,-383.41 679.534,-390.41"/>
<text text-anchor="middle" x="514.711" y="-350.67" font-family="Times,serif" font-size="14.00">false</text>
</g>
<!-- Bandwidth_CRIT
trap -->
<g id="${uniqueid}_node3" class="node"><title>Bandwidth_CRIT
trap</title>
<g id="a_${uniqueid}_node3"><a xlink:href="#378089036611978" xlink:title="com.watch4net.alerting.action.SNMPTrapAction">
<ellipse fill="#4daf4a" stroke="black" cx="788.52" cy="-314.87" rx="97.6615" ry="26.7407"/>
<text text-anchor="middle" x="788.52" y="-318.67" font-family="Times,serif" font-size="14.00" fill="white">Bandwidth_CRIT</text>
<text text-anchor="middle" x="788.52" y="-303.67" font-family="Times,serif" font-size="14.00" fill="white">trap</text>
</a>
</g>
</g>
<!-- Bandwidth_CRIT&#45;&gt;Bandwidth_CRIT
trap -->
<g id="${uniqueid}_edge2" class="edge"><title>Bandwidth_CRIT:se&#45;&gt;Bandwidth_CRIT
trap:w</title>
<path fill="none" stroke="black" d="M533.711,-314.87C580.191,-268.391 616.424,-310.15 679.209,-314.51"/>
<polygon fill="black" stroke="black" points="679.404,-318.019 689.52,-314.87 679.648,-311.024 679.404,-318.019"/>
<text text-anchor="middle" x="518.211" y="-303.67" font-family="Times,serif" font-size="14.00">true</text>
</g>
<!-- Bandwidth_Major -->
<g id="${uniqueid}_node4" class="node"><title>Bandwidth_Major</title>
<g id="a_${uniqueid}_node4"><a xlink:href="#378089036619826" xlink:title="com.watch4net.alerting.operation.comparator.ConstantComparatorOperation">
<polygon fill="#ff7f00" stroke="black" points="516.711,-224.87 384.494,-206.87 516.711,-188.87 648.929,-206.87 516.711,-224.87"/>
<text text-anchor="middle" x="516.711" y="-203.17" font-family="Times,serif" font-size="14.00" fill="white">Bandwidth_Major</text>
</a>
</g>
</g>
<!-- Bandwidth_Major
clear trap -->
<g id="${uniqueid}_node5" class="node"><title>Bandwidth_Major
clear trap</title>
<g id="a_${uniqueid}_node5"><a xlink:href="#378089036635873" xlink:title="com.watch4net.alerting.action.SNMPTrapAction">
<ellipse fill="#4daf4a" stroke="black" cx="788.52" cy="-242.87" rx="101.647" ry="26.7407"/>
<text text-anchor="middle" x="788.52" y="-246.67" font-family="Times,serif" font-size="14.00" fill="white">Bandwidth_Major</text>
<text text-anchor="middle" x="788.52" y="-231.67" font-family="Times,serif" font-size="14.00" fill="white">clear trap</text>
</a>
</g>
</g>
<!-- Bandwidth_Major&#45;&gt;Bandwidth_Major
clear trap -->
<g id="${uniqueid}_edge3" class="edge"><title>Bandwidth_Major:ne&#45;&gt;Bandwidth_Major
clear trap:w</title>
<path fill="none" stroke="black" d="M531.711,-222.87C532.414,-223.573 531.898,-224.299 532.711,-224.87 586.002,-262.276 614.427,-244.887 675.841,-243.025"/>
<polygon fill="black" stroke="black" points="676.044,-246.522 685.989,-242.87 675.937,-239.523 676.044,-246.522"/>
<text text-anchor="middle" x="514.711" y="-226.67" font-family="Times,serif" font-size="14.00">false</text>
</g>
<!-- Bandwidth_Major
trap -->
<g id="${uniqueid}_node6" class="node"><title>Bandwidth_Major
trap</title>
<g id="a_${uniqueid}_node6"><a xlink:href="#378089036626932" xlink:title="com.watch4net.alerting.action.SNMPTrapAction">
<ellipse fill="#4daf4a" stroke="black" cx="788.52" cy="-170.87" rx="101.647" ry="26.7407"/>
<text text-anchor="middle" x="788.52" y="-174.67" font-family="Times,serif" font-size="14.00" fill="white">Bandwidth_Major</text>
<text text-anchor="middle" x="788.52" y="-159.67" font-family="Times,serif" font-size="14.00" fill="white">trap</text>
</a>
</g>
</g>
<!-- Bandwidth_Major&#45;&gt;Bandwidth_Major
trap -->
<g id="${uniqueid}_edge4" class="edge"><title>Bandwidth_Major:se&#45;&gt;Bandwidth_Major
trap:w</title>
<path fill="none" stroke="black" d="M533.711,-190.87C579.528,-145.054 614.066,-168.197 675.836,-170.665"/>
<polygon fill="black" stroke="black" points="675.921,-174.167 685.989,-170.87 676.062,-167.169 675.921,-174.167"/>
<text text-anchor="middle" x="518.211" y="-179.67" font-family="Times,serif" font-size="14.00">true</text>
</g>
<!-- Bandwidth_Minor -->
<g id="${uniqueid}_node7" class="node"><title>Bandwidth_Minor</title>
<g id="a_${uniqueid}_node7"><a xlink:href="#378089036644504" xlink:title="com.watch4net.alerting.operation.comparator.ConstantComparatorOperation">
<polygon fill="#ff7f00" stroke="black" points="516.711,-100.87 383.655,-82.8701 516.711,-64.8701 649.767,-82.8701 516.711,-100.87"/>
<text text-anchor="middle" x="516.711" y="-79.1701" font-family="Times,serif" font-size="14.00" fill="white">Bandwidth_Minor</text>
</a>
</g>
</g>
<!-- Bandwidth_Minor
clear trap -->
<g id="${uniqueid}_node8" class="node"><title>Bandwidth_Minor
clear trap</title>
<g id="a_${uniqueid}_node8"><a xlink:href="#378089036660494" xlink:title="com.watch4net.alerting.action.SNMPTrapAction">
<ellipse fill="#4daf4a" stroke="black" cx="788.52" cy="-98.8701" rx="102.561" ry="26.7407"/>
<text text-anchor="middle" x="788.52" y="-102.67" font-family="Times,serif" font-size="14.00" fill="white">Bandwidth_Minor</text>
<text text-anchor="middle" x="788.52" y="-87.6701" font-family="Times,serif" font-size="14.00" fill="white">clear trap</text>
</a>
</g>
</g>
<!-- Bandwidth_Minor&#45;&gt;Bandwidth_Minor
clear trap -->
<g id="${uniqueid}_edge5" class="edge"><title>Bandwidth_Minor:ne&#45;&gt;Bandwidth_Minor
clear trap:w</title>
<path fill="none" stroke="black" d="M531.711,-98.8701C532.414,-99.5728 531.866,-100.348 532.711,-100.87 577.05,-128.273 597.886,-102.316 649.989,-100.87 662.003,-100.537 667.232,-99.5783 675.856,-99.12"/>
<polygon fill="black" stroke="black" points="676.079,-102.616 685.989,-98.8701 675.906,-95.6178 676.079,-102.616"/>
<text text-anchor="middle" x="514.711" y="-102.67" font-family="Times,serif" font-size="14.00">false</text>
</g>
<!-- Bandwidth_Minor
trap -->
<g id="${uniqueid}_node9" class="node"><title>Bandwidth_Minor
trap</title>
<g id="a_${uniqueid}_node9"><a xlink:href="#378089036650940" xlink:title="com.watch4net.alerting.action.SNMPTrapAction">
<ellipse fill="#4daf4a" stroke="black" cx="788.52" cy="-26.8701" rx="102.561" ry="26.7407"/>
<text text-anchor="middle" x="788.52" y="-30.6701" font-family="Times,serif" font-size="14.00" fill="white">Bandwidth_Minor</text>
<text text-anchor="middle" x="788.52" y="-15.6701" font-family="Times,serif" font-size="14.00" fill="white">trap</text>
</a>
</g>
</g>
<!-- Bandwidth_Minor&#45;&gt;Bandwidth_Minor
trap -->
<g id="${uniqueid}_edge6" class="edge"><title>Bandwidth_Minor:se&#45;&gt;Bandwidth_Minor
trap:w</title>
<path fill="none" stroke="black" d="M533.711,-66.8701C580.678,-19.9029 612.638,-26.0593 675.609,-26.8057"/>
<polygon fill="black" stroke="black" points="675.968,-30.3079 685.989,-26.8701 676.011,-23.308 675.968,-30.3079"/>
<text text-anchor="middle" x="518.211" y="-55.6701" font-family="Times,serif" font-size="14.00">true</text>
</g>
<!-- Case Generator -->
<g id="${uniqueid}_node10" class="node"><title>Case Generator</title>
<g id="a_${uniqueid}_node10"><a xlink:href="#378089036580527" xlink:title="com.watch4net.alerting.operation.CaseOperation">
<polygon fill="#377eb8" stroke="black" points="347.434,-224.87 218.434,-224.87 218.434,-188.87 347.434,-188.87 347.434,-224.87"/>
<text text-anchor="middle" x="282.934" y="-203.17" font-family="Times,serif" font-size="14.00" fill="white">Case Generator</text>
</a>
</g>
</g>
<!-- Case Generator&#45;&gt;Bandwidth_CRIT -->
<g id="${uniqueid}_edge7" class="edge"><title>Case Generator:e&#45;&gt;Bandwidth_CRIT:w</title>
<path fill="none" stroke="black" d="M347.434,-206.87C401.661,-206.87 339.987,-314.948 378.821,-329.302"/>
<polygon fill="black" stroke="black" points="378.287,-332.761 388.711,-330.87 379.383,-325.847 378.287,-332.761"/>
</g>
<!-- Case Generator&#45;&gt;Bandwidth_Major -->
<g id="${uniqueid}_edge8" class="edge"><title>Case Generator:e&#45;&gt;Bandwidth_Major:w</title>
<path fill="none" stroke="black" d="M347.434,-206.87C359.526,-206.87 364.817,-206.87 373.508,-206.87"/>
<polygon fill="black" stroke="black" points="373.711,-210.37 383.711,-206.87 373.711,-203.37 373.711,-210.37"/>
</g>
<!-- Case Generator&#45;&gt;Bandwidth_Minor -->
<g id="${uniqueid}_edge9" class="edge"><title>Case Generator:e&#45;&gt;Bandwidth_Minor:w</title>
<path fill="none" stroke="black" d="M347.434,-206.87C400.785,-206.87 336.451,-99.6945 373.253,-84.623"/>
<polygon fill="black" stroke="black" points="374.173,-88.0163 383.434,-82.8701 372.985,-81.1178 374.173,-88.0163"/>
</g>
<!-- HighBandwidth
Entry -->
<g id="${uniqueid}_node11" class="node"><title>HighBandwidth
Entry</title>
<g id="a_${uniqueid}_node11"><a xlink:href="#378089036541333" xlink:title="com.watch4net.alerting.operation.FilteredEntryPoint">
<ellipse fill="#984ea3" stroke="black" cx="91.2168" cy="-206.87" rx="91.4341" ry="26.7407"/>
<text text-anchor="middle" x="91.2168" y="-210.67" font-family="Times,serif" font-size="14.00" fill="white">HighBandwidth</text>
<text text-anchor="middle" x="91.2168" y="-195.67" font-family="Times,serif" font-size="14.00" fill="white">Entry</text>
</a>
</g>
</g>
<!-- HighBandwidth
Entry&#45;&gt;Case Generator -->
<g id="${uniqueid}_edge10" class="edge"><title>HighBandwidth
Entry:e&#45;&gt;Case Generator:w</title>
<path fill="none" stroke="black" d="M182.434,-206.87C194.434,-206.87 199.684,-206.87 208.309,-206.87"/>
<polygon fill="black" stroke="black" points="208.434,-210.37 218.434,-206.87 208.434,-203.37 208.434,-210.37"/>
</g>
</g>
</svg>
