<?xml version="1.0" encoding="UTF-8" standalone="no"?>
<!DOCTYPE svg PUBLIC "-//W3C//DTD SVG 1.1//EN"
 "http://www.w3.org/Graphics/SVG/1.1/DTD/svg11.dtd">
<!-- Generated by graphviz version 2.38.0 (20140413.2041)
 -->
<!-- Title: VMware vCenter Alert Definitions/ESX/High Memory Utilization Pages: 1 -->
<svg width="992pt" height="278pt"
 viewBox="0.00 0.00 992.41 277.74" xmlns="http://www.w3.org/2000/svg" xmlns:xlink="http://www.w3.org/1999/xlink">
<g id="${uniqueid}" class="graph" transform="scale(1 1) rotate(0) translate(4 273.74)">
<title>VMware vCenter Alert Definitions/ESX/High Memory Utilization</title>
<polygon fill="white" stroke="none" points="-4,4 -4,-273.74 988.406,-273.74 988.406,4 -4,4"/>
<!-- ESXHMU_Case
Statement -->
<g id="${uniqueid}_node1" class="node"><title>ESXHMU_Case
Statement</title>
<g id="a_${uniqueid}_node1"><a xlink:href="#1413925416275" xlink:title="com.watch4net.alerting.operation.CaseOperation">
<polygon fill="#377eb8" stroke="black" points="383.203,-153.87 255.203,-153.87 255.203,-115.87 383.203,-115.87 383.203,-153.87"/>
<text text-anchor="middle" x="319.203" y="-138.67" font-family="Times,serif" font-size="14.00" fill="white">ESXHMU_Case</text>
<text text-anchor="middle" x="319.203" y="-123.67" font-family="Times,serif" font-size="14.00" fill="white">Statement</text>
</a>
</g>
</g>
<!-- ESX_Memory_Util_
Critical_Check -->
<g id="${uniqueid}_node5" class="node"><title>ESX_Memory_Util_
Critical_Check</title>
<g id="a_${uniqueid}_node5"><a xlink:href="#2304105735485020" xlink:title="com.watch4net.alerting.operation.comparator.ConstantComparatorOperation">
<polygon fill="#ff7f00" stroke="black" points="574.203,-239.87 419.203,-201.87 574.203,-163.87 729.203,-201.87 574.203,-239.87"/>
<text text-anchor="middle" x="574.203" y="-205.67" font-family="Times,serif" font-size="14.00" fill="white">ESX_Memory_Util_</text>
<text text-anchor="middle" x="574.203" y="-190.67" font-family="Times,serif" font-size="14.00" fill="white">Critical_Check</text>
</a>
</g>
</g>
<!-- ESXHMU_Case
Statement&#45;&gt;ESX_Memory_Util_
Critical_Check -->
<g id="${uniqueid}_edge1" class="edge"><title>ESXHMU_Case
Statement:e&#45;&gt;ESX_Memory_Util_
Critical_Check:w</title>
<path fill="none" stroke="black" d="M383.203,-134.87C412.782,-134.87 392.279,-186.167 409.337,-198.991"/>
<polygon fill="black" stroke="black" points="408.623,-202.429 419.203,-201.87 410.584,-195.709 408.623,-202.429"/>
</g>
<!-- ESX_Memory_Util_
Major_Check -->
<g id="${uniqueid}_node8" class="node"><title>ESX_Memory_Util_
Major_Check</title>
<g id="a_${uniqueid}_node8"><a xlink:href="#2304105735536044" xlink:title="com.watch4net.alerting.operation.comparator.ConstantComparatorOperation">
<polygon fill="#ff7f00" stroke="black" points="574.203,-105.87 419.203,-67.8701 574.203,-29.8701 729.203,-67.8701 574.203,-105.87"/>
<text text-anchor="middle" x="574.203" y="-71.6701" font-family="Times,serif" font-size="14.00" fill="white">ESX_Memory_Util_</text>
<text text-anchor="middle" x="574.203" y="-56.6701" font-family="Times,serif" font-size="14.00" fill="white">Major_Check</text>
</a>
</g>
</g>
<!-- ESXHMU_Case
Statement&#45;&gt;ESX_Memory_Util_
Major_Check -->
<g id="${uniqueid}_edge2" class="edge"><title>ESXHMU_Case
Statement:e&#45;&gt;ESX_Memory_Util_
Major_Check:w</title>
<path fill="none" stroke="black" d="M383.203,-134.87C412.782,-134.87 392.279,-83.5732 409.337,-70.749"/>
<polygon fill="black" stroke="black" points="410.584,-74.0312 419.203,-67.8701 408.623,-67.3115 410.584,-74.0312"/>
</g>
<!-- ESXHMU_Clear_
Critical -->
<g id="${uniqueid}_node2" class="node"><title>ESXHMU_Clear_
Critical</title>
<g id="a_${uniqueid}_node2"><a xlink:href="#2304105735526843" xlink:title="com.watch4net.alerting.action.SNMPTrapAction">
<ellipse fill="#4daf4a" stroke="black" cx="874.805" cy="-242.87" rx="98.9899" ry="26.7407"/>
<text text-anchor="middle" x="874.805" y="-246.67" font-family="Times,serif" font-size="14.00" fill="white">ESXHMU_Clear_</text>
<text text-anchor="middle" x="874.805" y="-231.67" font-family="Times,serif" font-size="14.00" fill="white">Critical</text>
</a>
</g>
</g>
<!-- ESXHMU_Clear_
Major -->
<g id="${uniqueid}_node3" class="node"><title>ESXHMU_Clear_
Major</title>
<g id="a_${uniqueid}_node3"><a xlink:href="#2304105735556588" xlink:title="com.watch4net.alerting.action.SNMPTrapAction">
<ellipse fill="#4daf4a" stroke="black" cx="874.805" cy="-98.8701" rx="98.9899" ry="26.7407"/>
<text text-anchor="middle" x="874.805" y="-102.67" font-family="Times,serif" font-size="14.00" fill="white">ESXHMU_Clear_</text>
<text text-anchor="middle" x="874.805" y="-87.6701" font-family="Times,serif" font-size="14.00" fill="white">Major</text>
</a>
</g>
</g>
<!-- ESX_Memory_Util_
Critical -->
<g id="${uniqueid}_node4" class="node"><title>ESX_Memory_Util_
Critical</title>
<g id="a_${uniqueid}_node4"><a xlink:href="#2304105735512255" xlink:title="com.watch4net.alerting.action.SNMPTrapAction">
<ellipse fill="#4daf4a" stroke="black" cx="874.805" cy="-170.87" rx="109.703" ry="26.7407"/>
<text text-anchor="middle" x="874.805" y="-174.67" font-family="Times,serif" font-size="14.00" fill="white">ESX_Memory_Util_</text>
<text text-anchor="middle" x="874.805" y="-159.67" font-family="Times,serif" font-size="14.00" fill="white">Critical</text>
</a>
</g>
</g>
<!-- ESX_Memory_Util_
Critical_Check&#45;&gt;ESXHMU_Clear_
Critical -->
<g id="${uniqueid}_edge3" class="edge"><title>ESX_Memory_Util_
Critical_Check:ne&#45;&gt;ESXHMU_Clear_
Critical:w</title>
<path fill="none" stroke="black" d="M604.203,-232.87C606.425,-235.092 602.847,-237.79 605.203,-239.87 659.069,-287.429 695.839,-247.054 764.446,-243.164"/>
<polygon fill="black" stroke="black" points="764.908,-246.653 774.805,-242.87 764.709,-239.656 764.908,-246.653"/>
<text text-anchor="middle" x="587.203" y="-236.67" font-family="Times,serif" font-size="14.00">false</text>
</g>
<!-- ESX_Memory_Util_
Critical_Check&#45;&gt;ESX_Memory_Util_
Critical -->
<g id="${uniqueid}_edge4" class="edge"><title>ESX_Memory_Util_
Critical_Check:se&#45;&gt;ESX_Memory_Util_
Critical:w</title>
<path fill="none" stroke="black" d="M606.203,-170.87C653.732,-123.341 690.762,-166.229 755.077,-170.53"/>
<polygon fill="black" stroke="black" points="755.091,-174.032 765.203,-170.87 755.326,-167.036 755.091,-174.032"/>
<text text-anchor="middle" x="590.703" y="-159.67" font-family="Times,serif" font-size="14.00">true</text>
</g>
<!-- ESX_Memory_Util_
Filter -->
<g id="${uniqueid}_node6" class="node"><title>ESX_Memory_Util_
Filter</title>
<g id="a_${uniqueid}_node6"><a xlink:href="#2304105735122161" xlink:title="com.watch4net.alerting.operation.FilteredEntryPoint">
<ellipse fill="#984ea3" stroke="black" cx="109.602" cy="-134.87" rx="109.703" ry="26.7407"/>
<text text-anchor="middle" x="109.602" y="-138.67" font-family="Times,serif" font-size="14.00" fill="white">ESX_Memory_Util_</text>
<text text-anchor="middle" x="109.602" y="-123.67" font-family="Times,serif" font-size="14.00" fill="white">Filter</text>
</a>
</g>
</g>
<!-- ESX_Memory_Util_
Filter&#45;&gt;ESXHMU_Case
Statement -->
<g id="${uniqueid}_edge5" class="edge"><title>ESX_Memory_Util_
Filter:e&#45;&gt;ESXHMU_Case
Statement:w</title>
<path fill="none" stroke="black" d="M219.203,-134.87C231.203,-134.87 236.453,-134.87 245.078,-134.87"/>
<polygon fill="black" stroke="black" points="245.203,-138.37 255.203,-134.87 245.203,-131.37 245.203,-138.37"/>
</g>
<!-- ESX_Memory_Util_
Major -->
<g id="${uniqueid}_node7" class="node"><title>ESX_Memory_Util_
Major</title>
<g id="a_${uniqueid}_node7"><a xlink:href="#2304105735546688" xlink:title="com.watch4net.alerting.action.SNMPTrapAction">
<ellipse fill="#4daf4a" stroke="black" cx="874.805" cy="-26.8701" rx="109.703" ry="26.7407"/>
<text text-anchor="middle" x="874.805" y="-30.6701" font-family="Times,serif" font-size="14.00" fill="white">ESX_Memory_Util_</text>
<text text-anchor="middle" x="874.805" y="-15.6701" font-family="Times,serif" font-size="14.00" fill="white">Major</text>
</a>
</g>
</g>
<!-- ESX_Memory_Util_
Major_Check&#45;&gt;ESXHMU_Clear_
Major -->
<g id="${uniqueid}_edge6" class="edge"><title>ESX_Memory_Util_
Major_Check:ne&#45;&gt;ESXHMU_Clear_
Major:w</title>
<path fill="none" stroke="black" d="M604.203,-98.8701C606.425,-101.092 602.829,-103.811 605.203,-105.87 646.837,-141.979 674.252,-110.063 729.203,-105.87 745.815,-104.602 752,-100.774 764.734,-99.3824"/>
<polygon fill="black" stroke="black" points="764.995,-102.874 774.805,-98.8701 764.64,-95.8827 764.995,-102.874"/>
<text text-anchor="middle" x="587.203" y="-102.67" font-family="Times,serif" font-size="14.00">false</text>
</g>
<!-- ESX_Memory_Util_
Major_Check&#45;&gt;ESX_Memory_Util_
Major -->
<g id="${uniqueid}_edge7" class="edge"><title>ESX_Memory_Util_
Major_Check:se&#45;&gt;ESX_Memory_Util_
Major:w</title>
<path fill="none" stroke="black" d="M606.203,-36.8701C653.826,10.7528 690.645,-23.1721 755.06,-26.5986"/>
<polygon fill="black" stroke="black" points="755.113,-30.1012 765.203,-26.8701 755.3,-23.1037 755.113,-30.1012"/>
<text text-anchor="middle" x="590.703" y="-25.6701" font-family="Times,serif" font-size="14.00">true</text>
</g>
</g>
</svg>
