<?xml version="1.0" encoding="UTF-8" standalone="no"?>
<!DOCTYPE svg PUBLIC "-//W3C//DTD SVG 1.1//EN"
 "http://www.w3.org/Graphics/SVG/1.1/DTD/svg11.dtd">
<!-- Generated by graphviz version 2.38.0 (20140413.2041)
 -->
<!-- Title: IBMDS8k Alert Definitions/IBMDS8k&#45;Lun/Read Bandwidth Pages: 1 -->
<svg width="956pt" height="422pt"
 viewBox="0.00 0.00 956.11 421.74" xmlns="http://www.w3.org/2000/svg" xmlns:xlink="http://www.w3.org/1999/xlink">
<g id="${uniqueid}" class="graph" transform="scale(1 1) rotate(0) translate(4 417.74)">
<title>IBMDS8k Alert Definitions/IBMDS8k&#45;Lun/Read Bandwidth</title>
<polygon fill="white" stroke="none" points="-4,4 -4,-417.74 952.11,-417.74 952.11,4 -4,4"/>
<!-- LUN read b/w
entry -->
<g id="${uniqueid}_node1" class="node"><title>LUN read b/w
entry</title>
<g id="a_${uniqueid}_node1"><a xlink:href="#1537942163693694" xlink:title="com.watch4net.alerting.operation.FilteredEntryPoint">
<ellipse fill="#984ea3" stroke="black" cx="82.0244" cy="-206.87" rx="82.0488" ry="26.7407"/>
<text text-anchor="middle" x="82.0244" y="-210.67" font-family="Times,serif" font-size="14.00" fill="white">LUN read b/w</text>
<text text-anchor="middle" x="82.0244" y="-195.67" font-family="Times,serif" font-size="14.00" fill="white">entry</text>
</a>
</g>
</g>
<!-- Roundoff -->
<g id="${uniqueid}_node12" class="node"><title>Roundoff</title>
<g id="a_${uniqueid}_node12"><a xlink:href="#1441790903428" xlink:title="com.watch4net.alerting.operation.math.ConstantMathOperation">
<polygon fill="#377eb8" stroke="black" points="281.049,-224.87 200.049,-224.87 200.049,-188.87 281.049,-188.87 281.049,-224.87"/>
<text text-anchor="middle" x="240.549" y="-203.17" font-family="Times,serif" font-size="14.00" fill="white">Roundoff</text>
</a>
</g>
</g>
<!-- LUN read b/w
entry&#45;&gt;Roundoff -->
<g id="${uniqueid}_edge1" class="edge"><title>LUN read b/w
entry:e&#45;&gt;Roundoff:w</title>
<path fill="none" stroke="black" d="M164.049,-206.87C176.049,-206.87 181.299,-206.87 189.924,-206.87"/>
<polygon fill="black" stroke="black" points="190.049,-210.37 200.049,-206.87 190.049,-203.37 190.049,-210.37"/>
</g>
<!-- Read B/W_
Critical Trap -->
<g id="${uniqueid}_node2" class="node"><title>Read B/W_
Critical Trap</title>
<g id="a_${uniqueid}_node2"><a xlink:href="#1537942163823872" xlink:title="com.watch4net.alerting.action.SNMPTrapAction">
<ellipse fill="#4daf4a" stroke="black" cx="845.579" cy="-314.87" rx="76.2353" ry="26.7407"/>
<text text-anchor="middle" x="845.579" y="-318.67" font-family="Times,serif" font-size="14.00" fill="white">Read B/W_</text>
<text text-anchor="middle" x="845.579" y="-303.67" font-family="Times,serif" font-size="14.00" fill="white">Critical Trap</text>
</a>
</g>
</g>
<!-- Read B/W_
Critical_Clear -->
<g id="${uniqueid}_node3" class="node"><title>Read B/W_
Critical_Clear</title>
<g id="a_${uniqueid}_node3"><a xlink:href="#1537942163847843" xlink:title="com.watch4net.alerting.action.SNMPTrapAction">
<ellipse fill="#4daf4a" stroke="black" cx="845.579" cy="-386.87" rx="82.9636" ry="26.7407"/>
<text text-anchor="middle" x="845.579" y="-390.67" font-family="Times,serif" font-size="14.00" fill="white">Read B/W_</text>
<text text-anchor="middle" x="845.579" y="-375.67" font-family="Times,serif" font-size="14.00" fill="white">Critical_Clear</text>
</a>
</g>
</g>
<!-- Read B/W_Major
Trap -->
<g id="${uniqueid}_node4" class="node"><title>Read B/W_Major
Trap</title>
<g id="a_${uniqueid}_node4"><a xlink:href="#1537942163875665" xlink:title="com.watch4net.alerting.action.SNMPTrapAction">
<ellipse fill="#4daf4a" stroke="black" cx="845.579" cy="-170.87" rx="96.7474" ry="26.7407"/>
<text text-anchor="middle" x="845.579" y="-174.67" font-family="Times,serif" font-size="14.00" fill="white">Read B/W_Major</text>
<text text-anchor="middle" x="845.579" y="-159.67" font-family="Times,serif" font-size="14.00" fill="white">Trap</text>
</a>
</g>
</g>
<!-- Read B/W_Major_
Clear -->
<g id="${uniqueid}_node5" class="node"><title>Read B/W_Major_
Clear</title>
<g id="a_${uniqueid}_node5"><a xlink:href="#1537942163890189" xlink:title="com.watch4net.alerting.action.SNMPTrapAction">
<ellipse fill="#4daf4a" stroke="black" cx="845.579" cy="-242.87" rx="102.561" ry="26.7407"/>
<text text-anchor="middle" x="845.579" y="-246.67" font-family="Times,serif" font-size="14.00" fill="white">Read B/W_Major_</text>
<text text-anchor="middle" x="845.579" y="-231.67" font-family="Times,serif" font-size="14.00" fill="white">Clear</text>
</a>
</g>
</g>
<!-- Read b/w Case -->
<g id="${uniqueid}_node6" class="node"><title>Read b/w Case</title>
<g id="a_${uniqueid}_node6"><a xlink:href="#1537942163792894" xlink:title="com.watch4net.alerting.operation.CaseOperation">
<polygon fill="#377eb8" stroke="black" points="439.049,-224.87 317.049,-224.87 317.049,-188.87 439.049,-188.87 439.049,-224.87"/>
<text text-anchor="middle" x="378.049" y="-203.17" font-family="Times,serif" font-size="14.00" fill="white">Read b/w Case</text>
</a>
</g>
</g>
<!-- Read b/w Crit
comp -->
<g id="${uniqueid}_node7" class="node"><title>Read b/w Crit
comp</title>
<g id="a_${uniqueid}_node7"><a xlink:href="#1537942163805178" xlink:title="com.watch4net.alerting.operation.comparator.ConstantComparatorOperation">
<polygon fill="#ff7f00" stroke="black" points="591.049,-381.87 475.049,-343.87 591.049,-305.87 707.049,-343.87 591.049,-381.87"/>
<text text-anchor="middle" x="591.049" y="-347.67" font-family="Times,serif" font-size="14.00" fill="white">Read b/w Crit</text>
<text text-anchor="middle" x="591.049" y="-332.67" font-family="Times,serif" font-size="14.00" fill="white">comp</text>
</a>
</g>
</g>
<!-- Read b/w Case&#45;&gt;Read b/w Crit
comp -->
<g id="${uniqueid}_edge2" class="edge"><title>Read b/w Case:e&#45;&gt;Read b/w Crit
comp:w</title>
<path fill="none" stroke="black" d="M439.049,-206.87C498.07,-206.87 422.735,-327.28 464.961,-342.331"/>
<polygon fill="black" stroke="black" points="464.635,-345.822 475.049,-343.87 465.691,-338.902 464.635,-345.822"/>
</g>
<!-- Read b/w Maj
Comp -->
<g id="${uniqueid}_node8" class="node"><title>Read b/w Maj
Comp</title>
<g id="a_${uniqueid}_node8"><a xlink:href="#1537942163863026" xlink:title="com.watch4net.alerting.operation.comparator.ConstantComparatorOperation">
<polygon fill="#ff7f00" stroke="black" points="591.049,-244.87 476.049,-206.87 591.049,-168.87 706.049,-206.87 591.049,-244.87"/>
<text text-anchor="middle" x="591.049" y="-210.67" font-family="Times,serif" font-size="14.00" fill="white">Read b/w Maj</text>
<text text-anchor="middle" x="591.049" y="-195.67" font-family="Times,serif" font-size="14.00" fill="white">Comp</text>
</a>
</g>
</g>
<!-- Read b/w Case&#45;&gt;Read b/w Maj
Comp -->
<g id="${uniqueid}_edge3" class="edge"><title>Read b/w Case:e&#45;&gt;Read b/w Maj
Comp:w</title>
<path fill="none" stroke="black" d="M439.049,-206.87C451.049,-206.87 456.299,-206.87 464.924,-206.87"/>
<polygon fill="black" stroke="black" points="465.049,-210.37 475.049,-206.87 465.049,-203.37 465.049,-210.37"/>
</g>
<!-- Read b/w Min
Comp -->
<g id="${uniqueid}_node9" class="node"><title>Read b/w Min
Comp</title>
<g id="a_${uniqueid}_node9"><a xlink:href="#1537942163903750" xlink:title="com.watch4net.alerting.operation.comparator.ConstantComparatorOperation">
<polygon fill="#ff7f00" stroke="black" points="591.049,-107.87 475.049,-69.8701 591.049,-31.8701 707.049,-69.8701 591.049,-107.87"/>
<text text-anchor="middle" x="591.049" y="-73.6701" font-family="Times,serif" font-size="14.00" fill="white">Read b/w Min</text>
<text text-anchor="middle" x="591.049" y="-58.6701" font-family="Times,serif" font-size="14.00" fill="white">Comp</text>
</a>
</g>
</g>
<!-- Read b/w Case&#45;&gt;Read b/w Min
Comp -->
<g id="${uniqueid}_edge4" class="edge"><title>Read b/w Case:e&#45;&gt;Read b/w Min
Comp:w</title>
<path fill="none" stroke="black" d="M439.049,-206.87C498.07,-206.87 422.735,-86.4599 464.961,-71.4086"/>
<polygon fill="black" stroke="black" points="465.691,-74.8379 475.049,-69.8701 464.635,-67.918 465.691,-74.8379"/>
</g>
<!-- Read b/w Crit
comp&#45;&gt;Read B/W_
Critical Trap -->
<g id="${uniqueid}_edge6" class="edge"><title>Read b/w Crit
comp:se&#45;&gt;Read B/W_
Critical Trap:w</title>
<path fill="none" stroke="black" d="M621.049,-314.87C664.67,-271.248 698.696,-310.269 757.519,-314.506"/>
<polygon fill="black" stroke="black" points="757.459,-318.006 767.579,-314.87 757.712,-311.011 757.459,-318.006"/>
<text text-anchor="middle" x="605.549" y="-303.67" font-family="Times,serif" font-size="14.00">true</text>
</g>
<!-- Read b/w Crit
comp&#45;&gt;Read B/W_
Critical_Clear -->
<g id="${uniqueid}_edge5" class="edge"><title>Read b/w Crit
comp:ne&#45;&gt;Read B/W_
Critical_Clear:w</title>
<path fill="none" stroke="black" d="M619.049,-372.87C621.895,-375.716 617.098,-379.133 620.049,-381.87 663.676,-422.328 695.049,-390.763 751.519,-387.19"/>
<polygon fill="black" stroke="black" points="751.696,-390.686 761.579,-386.87 751.473,-383.69 751.696,-390.686"/>
<text text-anchor="middle" x="602.049" y="-376.67" font-family="Times,serif" font-size="14.00">false</text>
</g>
<!-- Read b/w Maj
Comp&#45;&gt;Read B/W_Major
Trap -->
<g id="${uniqueid}_edge8" class="edge"><title>Read b/w Maj
Comp:se&#45;&gt;Read B/W_Major
Trap:w</title>
<path fill="none" stroke="black" d="M621.049,-177.87C658.385,-140.534 687.423,-167.051 737.314,-170.511"/>
<polygon fill="black" stroke="black" points="737.463,-174.018 747.579,-170.87 737.708,-167.023 737.463,-174.018"/>
<text text-anchor="middle" x="605.549" y="-166.67" font-family="Times,serif" font-size="14.00">true</text>
</g>
<!-- Read b/w Maj
Comp&#45;&gt;Read B/W_Major_
Clear -->
<g id="${uniqueid}_edge7" class="edge"><title>Read b/w Maj
Comp:ne&#45;&gt;Read B/W_Major_
Clear:w</title>
<path fill="none" stroke="black" d="M619.049,-235.87C621.895,-238.716 617.05,-242.186 620.049,-244.87 648.529,-270.361 667.84,-245.902 706.049,-244.87 718.524,-244.533 723.882,-243.558 732.913,-243.106"/>
<polygon fill="black" stroke="black" points="733.133,-246.602 743.049,-242.87 732.97,-239.604 733.133,-246.602"/>
<text text-anchor="middle" x="602.049" y="-239.67" font-family="Times,serif" font-size="14.00">false</text>
</g>
<!-- ReadB/W_Minor
Trap -->
<g id="${uniqueid}_node10" class="node"><title>ReadB/W_Minor
Trap</title>
<g id="a_${uniqueid}_node10"><a xlink:href="#1537942163915599" xlink:title="com.watch4net.alerting.action.SNMPTrapAction">
<ellipse fill="#4daf4a" stroke="black" cx="845.579" cy="-26.8701" rx="94.5053" ry="26.7407"/>
<text text-anchor="middle" x="845.579" y="-30.6701" font-family="Times,serif" font-size="14.00" fill="white">ReadB/W_Minor</text>
<text text-anchor="middle" x="845.579" y="-15.6701" font-family="Times,serif" font-size="14.00" fill="white">Trap</text>
</a>
</g>
</g>
<!-- Read b/w Min
Comp&#45;&gt;ReadB/W_Minor
Trap -->
<g id="${uniqueid}_edge10" class="edge"><title>Read b/w Min
Comp:se&#45;&gt;ReadB/W_Minor
Trap:w</title>
<path fill="none" stroke="black" d="M621.049,-40.8701C659.221,-2.69806 688.394,-23.8917 739.431,-26.598"/>
<polygon fill="black" stroke="black" points="739.489,-30.1007 749.579,-26.8701 739.677,-23.1032 739.489,-30.1007"/>
<text text-anchor="middle" x="605.549" y="-29.6701" font-family="Times,serif" font-size="14.00">true</text>
</g>
<!-- ReadB/W_Minor_
Clear -->
<g id="${uniqueid}_node11" class="node"><title>ReadB/W_Minor_
Clear</title>
<g id="a_${uniqueid}_node11"><a xlink:href="#1537942163929802" xlink:title="com.watch4net.alerting.action.SNMPTrapAction">
<ellipse fill="#4daf4a" stroke="black" cx="845.579" cy="-98.8701" rx="99.9045" ry="26.7407"/>
<text text-anchor="middle" x="845.579" y="-102.67" font-family="Times,serif" font-size="14.00" fill="white">ReadB/W_Minor_</text>
<text text-anchor="middle" x="845.579" y="-87.6701" font-family="Times,serif" font-size="14.00" fill="white">Clear</text>
</a>
</g>
</g>
<!-- Read b/w Min
Comp&#45;&gt;ReadB/W_Minor_
Clear -->
<g id="${uniqueid}_edge9" class="edge"><title>Read b/w Min
Comp:ne&#45;&gt;ReadB/W_Minor_
Clear:w</title>
<path fill="none" stroke="black" d="M619.049,-98.8701C621.895,-101.716 617.05,-105.186 620.049,-107.87 648.86,-133.658 668.65,-112.41 707.049,-107.87 720.091,-106.328 725.107,-101.872 734.44,-99.8674"/>
<polygon fill="black" stroke="black" points="734.97,-103.332 744.579,-98.8701 734.285,-96.3659 734.97,-103.332"/>
<text text-anchor="middle" x="602.049" y="-102.67" font-family="Times,serif" font-size="14.00">false</text>
</g>
<!-- Roundoff&#45;&gt;Read b/w Case -->
<g id="${uniqueid}_edge11" class="edge"><title>Roundoff:e&#45;&gt;Read b/w Case:w</title>
<path fill="none" stroke="black" d="M281.049,-206.87C293.049,-206.87 298.299,-206.87 306.924,-206.87"/>
<polygon fill="black" stroke="black" points="307.049,-210.37 317.049,-206.87 307.049,-203.37 307.049,-210.37"/>
</g>
</g>
</svg>
