<?xml version="1.0" encoding="UTF-8" standalone="no"?>
<!DOCTYPE svg PUBLIC "-//W3C//DTD SVG 1.1//EN"
 "http://www.w3.org/Graphics/SVG/1.1/DTD/svg11.dtd">
<!-- Generated by graphviz version 2.38.0 (20140413.2041)
 -->
<!-- Title: Physical Hosts Alert Definitions/Disk Queue Length Pages: 1 -->
<svg width="655pt" height="314pt"
 viewBox="0.00 0.00 654.59 314.00" xmlns="http://www.w3.org/2000/svg" xmlns:xlink="http://www.w3.org/1999/xlink">
<g id="${uniqueid}" class="graph" transform="scale(1 1) rotate(0) translate(4 310)">
<title>Physical Hosts Alert Definitions/Disk Queue Length</title>
<polygon fill="white" stroke="none" points="-4,4 -4,-310 650.589,-310 650.589,4 -4,4"/>
<!-- Case -->
<g id="${uniqueid}_node1" class="node"><title>Case</title>
<g id="a_${uniqueid}_node1"><a xlink:href="#1416341430668" xlink:title="com.watch4net.alerting.operation.CaseOperation">
<polygon fill="#377eb8" stroke="black" points="236.887,-171 182.887,-171 182.887,-135 236.887,-135 236.887,-171"/>
<text text-anchor="middle" x="209.887" y="-149.3" font-family="Times,serif" font-size="14.00" fill="white">Case</text>
</a>
</g>
</g>
<!-- Critical 5 -->
<g id="${uniqueid}_node5" class="node"><title>Critical 5</title>
<g id="a_${uniqueid}_node5"><a xlink:href="#91b1d2a8-5e11-4c35-9ddd-898f95a55ea5" xlink:title="com.watch4net.alerting.operation.comparator.ConstantComparatorOperation">
<polygon fill="#ff7f00" stroke="black" points="350.096,-267 272.677,-249 350.096,-231 427.515,-249 350.096,-267"/>
<text text-anchor="middle" x="350.096" y="-245.3" font-family="Times,serif" font-size="14.00" fill="white">Critical 5</text>
</a>
</g>
</g>
<!-- Case&#45;&gt;Critical 5 -->
<g id="${uniqueid}_edge1" class="edge"><title>Case:e&#45;&gt;Critical 5:w</title>
<path fill="none" stroke="black" d="M236.887,-153C278.361,-153 236.413,-232.525 262.898,-246.815"/>
<polygon fill="black" stroke="black" points="262.37,-250.282 272.887,-249 263.866,-243.444 262.37,-250.282"/>
</g>
<!-- Major 3 -->
<g id="${uniqueid}_node7" class="node"><title>Major 3</title>
<g id="a_${uniqueid}_node7"><a xlink:href="#4886b30d-6dfb-4f22-a3bb-c5674d621b3e" xlink:title="com.watch4net.alerting.operation.comparator.ConstantComparatorOperation">
<polygon fill="#ff7f00" stroke="black" points="350.096,-171 282.899,-153 350.096,-135 417.293,-153 350.096,-171"/>
<text text-anchor="middle" x="350.096" y="-149.3" font-family="Times,serif" font-size="14.00" fill="white">Major 3</text>
</a>
</g>
</g>
<!-- Case&#45;&gt;Major 3 -->
<g id="${uniqueid}_edge2" class="edge"><title>Case:e&#45;&gt;Major 3:w</title>
<path fill="none" stroke="black" d="M236.887,-153C253.056,-153 259.466,-153 271.823,-153"/>
<polygon fill="black" stroke="black" points="272.096,-156.5 282.096,-153 272.096,-149.5 272.096,-156.5"/>
</g>
<!-- Minor 2 -->
<g id="${uniqueid}_node9" class="node"><title>Minor 2</title>
<g id="a_${uniqueid}_node9"><a xlink:href="#d43d3fa3-3167-4ba4-b8c0-b11ae6742be5" xlink:title="com.watch4net.alerting.operation.comparator.ConstantComparatorOperation">
<polygon fill="#ff7f00" stroke="black" points="350.096,-76 282.061,-58 350.096,-40 418.131,-58 350.096,-76"/>
<text text-anchor="middle" x="350.096" y="-54.3" font-family="Times,serif" font-size="14.00" fill="white">Minor 2</text>
</a>
</g>
</g>
<!-- Case&#45;&gt;Minor 2 -->
<g id="${uniqueid}_edge3" class="edge"><title>Case:e&#45;&gt;Minor 2:w</title>
<path fill="none" stroke="black" d="M236.887,-153C279.455,-153 242.231,-73.6265 271.084,-59.9842"/>
<polygon fill="black" stroke="black" points="271.967,-63.3774 281.096,-58 270.607,-56.5109 271.967,-63.3774"/>
</g>
<!-- Clear Critical -->
<g id="${uniqueid}_node2" class="node"><title>Clear Critical</title>
<g id="a_${uniqueid}_node2"><a xlink:href="#1416341561240" xlink:title="com.watch4net.alerting.action.SNMPTrapAction">
<ellipse fill="#4daf4a" stroke="black" cx="554.947" cy="-288" rx="74.187" ry="18"/>
<text text-anchor="middle" x="554.947" y="-284.3" font-family="Times,serif" font-size="14.00" fill="white">Clear Critical</text>
</a>
</g>
</g>
<!-- Clear Major -->
<g id="${uniqueid}_node3" class="node"><title>Clear Major</title>
<g id="a_${uniqueid}_node3"><a xlink:href="#1416341647671" xlink:title="com.watch4net.alerting.action.SNMPTrapAction">
<ellipse fill="#4daf4a" stroke="black" cx="554.947" cy="-180" rx="66.8882" ry="18"/>
<text text-anchor="middle" x="554.947" y="-176.3" font-family="Times,serif" font-size="14.00" fill="white">Clear Major</text>
</a>
</g>
</g>
<!-- Clear Minor Trap -->
<g id="${uniqueid}_node4" class="node"><title>Clear Minor Trap</title>
<g id="a_${uniqueid}_node4"><a xlink:href="#e146456f-3e90-4895-b8b7-c56f0e80632e" xlink:title="com.watch4net.alerting.action.SNMPTrapAction">
<ellipse fill="#4daf4a" stroke="black" cx="554.947" cy="-72" rx="91.784" ry="18"/>
<text text-anchor="middle" x="554.947" y="-68.3" font-family="Times,serif" font-size="14.00" fill="white">Clear Minor Trap</text>
</a>
</g>
</g>
<!-- Critical 5&#45;&gt;Clear Critical -->
<g id="${uniqueid}_edge4" class="edge"><title>Critical 5:ne&#45;&gt;Clear Critical:w</title>
<path fill="none" stroke="black" d="M364.096,-264C365.09,-264.994 364.035,-266.079 365.096,-267 401.602,-298.693 424.734,-289.56 469.686,-288.163"/>
<polygon fill="black" stroke="black" points="470.004,-291.659 479.947,-288 469.893,-284.66 470.004,-291.659"/>
<text text-anchor="middle" x="347.096" y="-267.8" font-family="Times,serif" font-size="14.00">false</text>
</g>
<!-- Critical Trap 5 -->
<g id="${uniqueid}_node6" class="node"><title>Critical Trap 5</title>
<g id="a_${uniqueid}_node6"><a xlink:href="#eb0e1e9c-03bb-410b-bad2-6483978f0b1b" xlink:title="com.watch4net.alerting.action.SNMPTrapAction">
<ellipse fill="#4daf4a" stroke="black" cx="554.947" cy="-234" rx="79.0865" ry="18"/>
<text text-anchor="middle" x="554.947" y="-230.3" font-family="Times,serif" font-size="14.00" fill="white">Critical Trap 5</text>
</a>
</g>
</g>
<!-- Critical 5&#45;&gt;Critical Trap 5 -->
<g id="${uniqueid}_edge5" class="edge"><title>Critical 5:se&#45;&gt;Critical Trap 5:w</title>
<path fill="none" stroke="black" d="M366.096,-234C397.541,-202.555 422.211,-229.455 463.887,-233.507"/>
<polygon fill="black" stroke="black" points="463.788,-237.007 473.947,-234 464.13,-230.015 463.788,-237.007"/>
<text text-anchor="middle" x="350.596" y="-222.8" font-family="Times,serif" font-size="14.00">true</text>
</g>
<!-- Major 3&#45;&gt;Clear Major -->
<g id="${uniqueid}_edge6" class="edge"><title>Major 3:ne&#45;&gt;Clear Major:w</title>
<path fill="none" stroke="black" d="M363.096,-167C364.392,-168.296 362.694,-169.82 364.096,-171 403.287,-203.975 428.756,-183.128 476.705,-180.304"/>
<polygon fill="black" stroke="black" points="477.055,-183.795 486.947,-180 476.848,-176.798 477.055,-183.795"/>
<text text-anchor="middle" x="346.096" y="-170.8" font-family="Times,serif" font-size="14.00">false</text>
</g>
<!-- Major Trap 3 -->
<g id="${uniqueid}_node8" class="node"><title>Major Trap 3</title>
<g id="a_${uniqueid}_node8"><a xlink:href="#bab80635-892d-4819-a624-29c3eae679ff" xlink:title="com.watch4net.alerting.action.SNMPTrapAction">
<ellipse fill="#4daf4a" stroke="black" cx="554.947" cy="-126" rx="71.4873" ry="18"/>
<text text-anchor="middle" x="554.947" y="-122.3" font-family="Times,serif" font-size="14.00" fill="white">Major Trap 3</text>
</a>
</g>
</g>
<!-- Major 3&#45;&gt;Major Trap 3 -->
<g id="${uniqueid}_edge7" class="edge"><title>Major 3:se&#45;&gt;Major Trap 3:w</title>
<path fill="none" stroke="black" d="M365.096,-139C399.592,-104.504 425.98,-123.088 471.853,-125.708"/>
<polygon fill="black" stroke="black" points="471.85,-129.209 481.947,-126 472.053,-122.212 471.85,-129.209"/>
<text text-anchor="middle" x="349.596" y="-127.8" font-family="Times,serif" font-size="14.00">true</text>
</g>
<!-- Minor 2&#45;&gt;Clear Minor Trap -->
<g id="${uniqueid}_edge8" class="edge"><title>Minor 2:ne&#45;&gt;Clear Minor Trap:w</title>
<path fill="none" stroke="black" d="M363.096,-72C364.392,-73.2958 362.652,-74.8723 364.096,-76 396.025,-100.93 415.749,-76.7194 452.905,-72.5796"/>
<polygon fill="black" stroke="black" points="453.516,-76.0511 463.305,-72 453.126,-69.062 453.516,-76.0511"/>
<text text-anchor="middle" x="346.096" y="-75.8" font-family="Times,serif" font-size="14.00">false</text>
</g>
<!-- Minor Trap 2 -->
<g id="${uniqueid}_node10" class="node"><title>Minor Trap 2</title>
<g id="a_${uniqueid}_node10"><a xlink:href="#50af507c-e833-4d3e-94fe-1299d5788ba0" xlink:title="com.watch4net.alerting.action.SNMPTrapAction">
<ellipse fill="#4daf4a" stroke="black" cx="554.947" cy="-18" rx="72.2875" ry="18"/>
<text text-anchor="middle" x="554.947" y="-14.3" font-family="Times,serif" font-size="14.00" fill="white">Minor Trap 2</text>
</a>
</g>
</g>
<!-- Minor 2&#45;&gt;Minor Trap 2 -->
<g id="${uniqueid}_edge9" class="edge"><title>Minor 2:se&#45;&gt;Minor Trap 2:w</title>
<path fill="none" stroke="black" d="M365.096,-44C400.219,-8.87744 425.236,-16.6738 471.696,-17.8641"/>
<polygon fill="black" stroke="black" points="471.902,-21.367 481.947,-18 471.995,-14.3676 471.902,-21.367"/>
<text text-anchor="middle" x="349.596" y="-32.8" font-family="Times,serif" font-size="14.00">true</text>
</g>
<!-- QueueLength -->
<g id="${uniqueid}_node11" class="node"><title>QueueLength</title>
<g id="a_${uniqueid}_node11"><a xlink:href="#9ff85f26-a55e-40e7-a9b1-301d8baa4a95" xlink:title="com.watch4net.alerting.operation.FilteredEntryPoint">
<ellipse fill="#984ea3" stroke="black" cx="73.4435" cy="-153" rx="73.387" ry="18"/>
<text text-anchor="middle" x="73.4435" y="-149.3" font-family="Times,serif" font-size="14.00" fill="white">QueueLength</text>
</a>
</g>
</g>
<!-- QueueLength&#45;&gt;Case -->
<g id="${uniqueid}_edge10" class="edge"><title>QueueLength:e&#45;&gt;Case:w</title>
<path fill="none" stroke="black" d="M146.887,-153C158.887,-153 164.137,-153 172.762,-153"/>
<polygon fill="black" stroke="black" points="172.887,-156.5 182.887,-153 172.887,-149.5 172.887,-156.5"/>
</g>
</g>
</svg>
