<?xml version="1.0" encoding="UTF-8" standalone="no"?>
<!DOCTYPE svg PUBLIC "-//W3C//DTD SVG 1.1//EN"
 "http://www.w3.org/Graphics/SVG/1.1/DTD/svg11.dtd">
<!-- Generated by graphviz version 2.38.0 (20140413.2041)
 -->
<!-- Title: IBMDS5k Alert Definitions/IBMDS5k&#45;Controller/Read Requests Pages: 1 -->
<svg width="1004pt" height="422pt"
 viewBox="0.00 0.00 1004.42 421.74" xmlns="http://www.w3.org/2000/svg" xmlns:xlink="http://www.w3.org/1999/xlink">
<g id="${uniqueid}" class="graph" transform="scale(1 1) rotate(0) translate(4 417.74)">
<title>IBMDS5k Alert Definitions/IBMDS5k&#45;Controller/Read Requests</title>
<polygon fill="white" stroke="none" points="-4,4 -4,-417.74 1000.42,-417.74 1000.42,4 -4,4"/>
<!-- Controller read
req entry -->
<g id="${uniqueid}_node1" class="node"><title>Controller read
req entry</title>
<g id="a_${uniqueid}_node1"><a xlink:href="#2964584636359974" xlink:title="com.watch4net.alerting.operation.FilteredEntryPoint">
<ellipse fill="#984ea3" stroke="black" cx="89.8026" cy="-206.87" rx="89.6056" ry="26.7407"/>
<text text-anchor="middle" x="89.8026" y="-210.67" font-family="Times,serif" font-size="14.00" fill="white">Controller read</text>
<text text-anchor="middle" x="89.8026" y="-195.67" font-family="Times,serif" font-size="14.00" fill="white">req entry</text>
</a>
</g>
</g>
<!-- Roundoff -->
<g id="${uniqueid}_node12" class="node"><title>Roundoff</title>
<g id="a_${uniqueid}_node12"><a xlink:href="#1441797385219" xlink:title="com.watch4net.alerting.operation.math.ConstantMathOperation">
<polygon fill="#377eb8" stroke="black" points="296.605,-224.87 215.605,-224.87 215.605,-188.87 296.605,-188.87 296.605,-224.87"/>
<text text-anchor="middle" x="256.105" y="-203.17" font-family="Times,serif" font-size="14.00" fill="white">Roundoff</text>
</a>
</g>
</g>
<!-- Controller read
req entry&#45;&gt;Roundoff -->
<g id="${uniqueid}_edge1" class="edge"><title>Controller read
req entry:e&#45;&gt;Roundoff:w</title>
<path fill="none" stroke="black" d="M179.605,-206.87C191.605,-206.87 196.855,-206.87 205.48,-206.87"/>
<polygon fill="black" stroke="black" points="205.605,-210.37 215.605,-206.87 205.605,-203.37 205.605,-210.37"/>
</g>
<!-- Read Req Case -->
<g id="${uniqueid}_node2" class="node"><title>Read Req Case</title>
<g id="a_${uniqueid}_node2"><a xlink:href="#2964584636417983" xlink:title="com.watch4net.alerting.operation.CaseOperation">
<polygon fill="#377eb8" stroke="black" points="457.605,-224.87 332.605,-224.87 332.605,-188.87 457.605,-188.87 457.605,-224.87"/>
<text text-anchor="middle" x="395.105" y="-203.17" font-family="Times,serif" font-size="14.00" fill="white">Read Req Case</text>
</a>
</g>
</g>
<!-- Read Req Maj
Comp -->
<g id="${uniqueid}_node3" class="node"><title>Read Req Maj
Comp</title>
<g id="a_${uniqueid}_node3"><a xlink:href="#2964584636477934" xlink:title="com.watch4net.alerting.operation.comparator.ConstantComparatorOperation">
<polygon fill="#ff7f00" stroke="black" points="626.605,-381.87 509.605,-343.87 626.605,-305.87 743.605,-343.87 626.605,-381.87"/>
<text text-anchor="middle" x="626.605" y="-347.67" font-family="Times,serif" font-size="14.00" fill="white">Read Req Maj</text>
<text text-anchor="middle" x="626.605" y="-332.67" font-family="Times,serif" font-size="14.00" fill="white">Comp</text>
</a>
</g>
</g>
<!-- Read Req Case&#45;&gt;Read Req Maj
Comp -->
<g id="${uniqueid}_edge2" class="edge"><title>Read Req Case:e&#45;&gt;Read Req Maj
Comp:w</title>
<path fill="none" stroke="black" d="M457.605,-206.87C518.769,-206.87 452.391,-328.286 498.609,-342.514"/>
<polygon fill="black" stroke="black" points="498.225,-345.994 508.605,-343.87 499.166,-339.058 498.225,-345.994"/>
</g>
<!-- Read Req Minor
Comp -->
<g id="${uniqueid}_node4" class="node"><title>Read Req Minor
Comp</title>
<g id="a_${uniqueid}_node4"><a xlink:href="#2964584636510719" xlink:title="com.watch4net.alerting.operation.comparator.ConstantComparatorOperation">
<polygon fill="#ff7f00" stroke="black" points="626.605,-244.87 493.605,-206.87 626.605,-168.87 759.605,-206.87 626.605,-244.87"/>
<text text-anchor="middle" x="626.605" y="-210.67" font-family="Times,serif" font-size="14.00" fill="white">Read Req Minor</text>
<text text-anchor="middle" x="626.605" y="-195.67" font-family="Times,serif" font-size="14.00" fill="white">Comp</text>
</a>
</g>
</g>
<!-- Read Req Case&#45;&gt;Read Req Minor
Comp -->
<g id="${uniqueid}_edge3" class="edge"><title>Read Req Case:e&#45;&gt;Read Req Minor
Comp:w</title>
<path fill="none" stroke="black" d="M457.605,-206.87C469.605,-206.87 474.855,-206.87 483.48,-206.87"/>
<polygon fill="black" stroke="black" points="483.605,-210.37 493.605,-206.87 483.605,-203.37 483.605,-210.37"/>
</g>
<!-- ReadReq Crit
comp -->
<g id="${uniqueid}_node5" class="node"><title>ReadReq Crit
comp</title>
<g id="a_${uniqueid}_node5"><a xlink:href="#2964584636429647" xlink:title="com.watch4net.alerting.operation.comparator.ConstantComparatorOperation">
<polygon fill="#ff7f00" stroke="black" points="626.605,-107.87 513.605,-69.8701 626.605,-31.8701 739.605,-69.8701 626.605,-107.87"/>
<text text-anchor="middle" x="626.605" y="-73.6701" font-family="Times,serif" font-size="14.00" fill="white">ReadReq Crit</text>
<text text-anchor="middle" x="626.605" y="-58.6701" font-family="Times,serif" font-size="14.00" fill="white">comp</text>
</a>
</g>
</g>
<!-- Read Req Case&#45;&gt;ReadReq Crit
comp -->
<g id="${uniqueid}_edge4" class="edge"><title>Read Req Case:e&#45;&gt;ReadReq Crit
comp:w</title>
<path fill="none" stroke="black" d="M457.605,-206.87C519.373,-206.87 455.438,-85.4544 502.476,-71.226"/>
<polygon fill="black" stroke="black" points="503.158,-74.666 512.605,-69.8701 502.229,-67.7278 503.158,-74.666"/>
</g>
<!-- ReadReq_Major
Trap -->
<g id="${uniqueid}_node8" class="node"><title>ReadReq_Major
Trap</title>
<g id="a_${uniqueid}_node8"><a xlink:href="#2964584636492666" xlink:title="com.watch4net.alerting.action.SNMPTrapAction">
<ellipse fill="#4daf4a" stroke="black" cx="896.014" cy="-314.87" rx="92.7622" ry="26.7407"/>
<text text-anchor="middle" x="896.014" y="-318.67" font-family="Times,serif" font-size="14.00" fill="white">ReadReq_Major</text>
<text text-anchor="middle" x="896.014" y="-303.67" font-family="Times,serif" font-size="14.00" fill="white">Trap</text>
</a>
</g>
</g>
<!-- Read Req Maj
Comp&#45;&gt;ReadReq_Major
Trap -->
<g id="${uniqueid}_edge6" class="edge"><title>Read Req Maj
Comp:se&#45;&gt;ReadReq_Major
Trap:w</title>
<path fill="none" stroke="black" d="M656.605,-314.87C699.804,-271.671 733.519,-310.145 791.67,-314.482"/>
<polygon fill="black" stroke="black" points="791.89,-317.993 802.014,-314.87 792.152,-310.998 791.89,-317.993"/>
<text text-anchor="middle" x="641.105" y="-303.67" font-family="Times,serif" font-size="14.00">true</text>
</g>
<!-- ReadReq_Major_
Clear -->
<g id="${uniqueid}_node9" class="node"><title>ReadReq_Major_
Clear</title>
<g id="a_${uniqueid}_node9"><a xlink:href="#1426746676188" xlink:title="com.watch4net.alerting.action.SNMPTrapAction">
<ellipse fill="#4daf4a" stroke="black" cx="896.014" cy="-386.87" rx="97.6615" ry="26.7407"/>
<text text-anchor="middle" x="896.014" y="-390.67" font-family="Times,serif" font-size="14.00" fill="white">ReadReq_Major_</text>
<text text-anchor="middle" x="896.014" y="-375.67" font-family="Times,serif" font-size="14.00" fill="white">Clear</text>
</a>
</g>
</g>
<!-- Read Req Maj
Comp&#45;&gt;ReadReq_Major_
Clear -->
<g id="${uniqueid}_edge5" class="edge"><title>Read Req Maj
Comp:ne&#45;&gt;ReadReq_Major_
Clear:w</title>
<path fill="none" stroke="black" d="M654.605,-372.87C657.451,-375.716 652.654,-379.133 655.605,-381.87 699.194,-422.294 730.541,-390.76 786.963,-387.19"/>
<polygon fill="black" stroke="black" points="787.131,-390.686 797.014,-386.87 786.908,-383.69 787.131,-390.686"/>
<text text-anchor="middle" x="637.605" y="-376.67" font-family="Times,serif" font-size="14.00">false</text>
</g>
<!-- ReadReq_Minor
Trap -->
<g id="${uniqueid}_node10" class="node"><title>ReadReq_Minor
Trap</title>
<g id="a_${uniqueid}_node10"><a xlink:href="#2964584636540965" xlink:title="com.watch4net.alerting.action.SNMPTrapAction">
<ellipse fill="#4daf4a" stroke="black" cx="896.014" cy="-170.87" rx="92.7622" ry="26.7407"/>
<text text-anchor="middle" x="896.014" y="-174.67" font-family="Times,serif" font-size="14.00" fill="white">ReadReq_Minor</text>
<text text-anchor="middle" x="896.014" y="-159.67" font-family="Times,serif" font-size="14.00" fill="white">Trap</text>
</a>
</g>
</g>
<!-- Read Req Minor
Comp&#45;&gt;ReadReq_Minor
Trap -->
<g id="${uniqueid}_edge8" class="edge"><title>Read Req Minor
Comp:se&#45;&gt;ReadReq_Minor
Trap:w</title>
<path fill="none" stroke="black" d="M657.605,-176.87C700.544,-133.932 733.944,-166.812 791.733,-170.537"/>
<polygon fill="black" stroke="black" points="791.906,-174.044 802.014,-170.87 792.133,-167.048 791.906,-174.044"/>
<text text-anchor="middle" x="642.105" y="-165.67" font-family="Times,serif" font-size="14.00">true</text>
</g>
<!-- ReadReq_Minor_
Clear -->
<g id="${uniqueid}_node11" class="node"><title>ReadReq_Minor_
Clear</title>
<g id="a_${uniqueid}_node11"><a xlink:href="#1426746741133" xlink:title="com.watch4net.alerting.action.SNMPTrapAction">
<ellipse fill="#4daf4a" stroke="black" cx="896.014" cy="-242.87" rx="98.0761" ry="26.7407"/>
<text text-anchor="middle" x="896.014" y="-246.67" font-family="Times,serif" font-size="14.00" fill="white">ReadReq_Minor_</text>
<text text-anchor="middle" x="896.014" y="-231.67" font-family="Times,serif" font-size="14.00" fill="white">Clear</text>
</a>
</g>
</g>
<!-- Read Req Minor
Comp&#45;&gt;ReadReq_Minor_
Clear -->
<g id="${uniqueid}_edge7" class="edge"><title>Read Req Minor
Comp:ne&#45;&gt;ReadReq_Minor_
Clear:w</title>
<path fill="none" stroke="black" d="M655.605,-236.87C658.139,-239.404 653.919,-242.499 656.605,-244.87 690.924,-275.166 713.844,-246.092 759.605,-244.87 772.218,-244.533 777.636,-243.558 786.767,-243.106"/>
<polygon fill="black" stroke="black" points="787.097,-246.599 797.014,-242.87 786.936,-239.601 787.097,-246.599"/>
<text text-anchor="middle" x="638.605" y="-240.67" font-family="Times,serif" font-size="14.00">false</text>
</g>
<!-- ReadReq_
Critical_Clear -->
<g id="${uniqueid}_node6" class="node"><title>ReadReq_
Critical_Clear</title>
<g id="a_${uniqueid}_node6"><a xlink:href="#1426746623378" xlink:title="com.watch4net.alerting.action.SNMPTrapAction">
<ellipse fill="#4daf4a" stroke="black" cx="896.014" cy="-98.8701" rx="82.9636" ry="26.7407"/>
<text text-anchor="middle" x="896.014" y="-102.67" font-family="Times,serif" font-size="14.00" fill="white">ReadReq_</text>
<text text-anchor="middle" x="896.014" y="-87.6701" font-family="Times,serif" font-size="14.00" fill="white">Critical_Clear</text>
</a>
</g>
</g>
<!-- ReadReq Crit
comp&#45;&gt;ReadReq_
Critical_Clear -->
<g id="${uniqueid}_edge9" class="edge"><title>ReadReq Crit
comp:ne&#45;&gt;ReadReq_
Critical_Clear:w</title>
<path fill="none" stroke="black" d="M654.605,-98.8701C657.451,-101.716 652.606,-105.186 655.605,-107.87 704.854,-151.95 738.796,-104.238 801.669,-99.2783"/>
<polygon fill="black" stroke="black" points="802.16,-102.762 812.014,-98.8701 801.884,-95.7672 802.16,-102.762"/>
<text text-anchor="middle" x="637.605" y="-102.67" font-family="Times,serif" font-size="14.00">false</text>
</g>
<!-- ReadReq_Critical
Trap -->
<g id="${uniqueid}_node7" class="node"><title>ReadReq_Critical
Trap</title>
<g id="a_${uniqueid}_node7"><a xlink:href="#2964584636450620" xlink:title="com.watch4net.alerting.action.SNMPTrapAction">
<ellipse fill="#4daf4a" stroke="black" cx="896.014" cy="-26.8701" rx="100.318" ry="26.7407"/>
<text text-anchor="middle" x="896.014" y="-30.6701" font-family="Times,serif" font-size="14.00" fill="white">ReadReq_Critical</text>
<text text-anchor="middle" x="896.014" y="-15.6701" font-family="Times,serif" font-size="14.00" fill="white">Trap</text>
</a>
</g>
</g>
<!-- ReadReq Crit
comp&#45;&gt;ReadReq_Critical
Trap -->
<g id="${uniqueid}_edge10" class="edge"><title>ReadReq Crit
comp:se&#45;&gt;ReadReq_Critical
Trap:w</title>
<path fill="none" stroke="black" d="M656.605,-40.8701C698.023,0.547662 729.741,-23.7192 785.327,-26.6011"/>
<polygon fill="black" stroke="black" points="785.517,-30.1072 795.605,-26.8701 785.7,-23.1096 785.517,-30.1072"/>
<text text-anchor="middle" x="641.105" y="-29.6701" font-family="Times,serif" font-size="14.00">true</text>
</g>
<!-- Roundoff&#45;&gt;Read Req Case -->
<g id="${uniqueid}_edge11" class="edge"><title>Roundoff:e&#45;&gt;Read Req Case:w</title>
<path fill="none" stroke="black" d="M296.605,-206.87C308.605,-206.87 313.855,-206.87 322.48,-206.87"/>
<polygon fill="black" stroke="black" points="322.605,-210.37 332.605,-206.87 322.605,-203.37 322.605,-210.37"/>
</g>
</g>
</svg>
