<?xml version="1.0" encoding="UTF-8" standalone="no"?>
<!DOCTYPE svg PUBLIC "-//W3C//DTD SVG 1.1//EN"
 "http://www.w3.org/Graphics/SVG/1.1/DTD/svg11.dtd">
<!-- Generated by graphviz version 2.38.0 (20140413.2041)
 -->
<!-- Title: EMC VPLEX Alert Definitions/VPLEX&#45;Devices/Service Status Pages: 1 -->
<svg width="653pt" height="440pt"
 viewBox="0.00 0.00 652.84 439.87" xmlns="http://www.w3.org/2000/svg" xmlns:xlink="http://www.w3.org/1999/xlink">
<g id="${uniqueid}" class="graph" transform="scale(1 1) rotate(0) translate(4 435.87)">
<title>EMC VPLEX Alert Definitions/VPLEX&#45;Devices/Service Status</title>
<polygon fill="white" stroke="none" points="-4,4 -4,-435.87 648.845,-435.87 648.845,4 -4,4"/>
<!-- critical -->
<g id="${uniqueid}_node1" class="node"><title>critical</title>
<g id="a_${uniqueid}_node1"><a xlink:href="#498005142546976-80936060704388" xlink:title="com.watch4net.alerting.operation.comparator.ConstantComparatorOperation">
<polygon fill="#ff7f00" stroke="black" points="367.023,-374 304.518,-356 367.023,-338 429.529,-356 367.023,-374"/>
<text text-anchor="middle" x="367.023" y="-352.3" font-family="Times,serif" font-size="14.00" fill="white">critical</text>
</a>
</g>
</g>
<!-- critical&#45;clear&#45;
trap -->
<g id="${uniqueid}_node2" class="node"><title>critical&#45;clear&#45;
trap</title>
<g id="a_${uniqueid}_node2"><a xlink:href="#498005142580200-80936073365936" xlink:title="com.watch4net.alerting.action.SNMPTrapAction">
<ellipse fill="#4daf4a" stroke="black" cx="558.402" cy="-405" rx="79.8062" ry="26.7407"/>
<text text-anchor="middle" x="558.402" y="-408.8" font-family="Times,serif" font-size="14.00" fill="white">critical&#45;clear&#45;</text>
<text text-anchor="middle" x="558.402" y="-393.8" font-family="Times,serif" font-size="14.00" fill="white">trap</text>
</a>
</g>
</g>
<!-- critical&#45;&gt;critical&#45;clear&#45;
trap -->
<g id="${uniqueid}_edge1" class="edge"><title>critical:ne&#45;&gt;critical&#45;clear&#45;
trap:w</title>
<path fill="none" stroke="black" d="M380.023,-370C381.319,-371.296 379.771,-372.662 381.023,-374 409.368,-404.286 429.12,-405.078 467.286,-405.016"/>
<polygon fill="black" stroke="black" points="467.408,-408.516 477.402,-405 467.397,-401.516 467.408,-408.516"/>
<text text-anchor="middle" x="363.023" y="-373.8" font-family="Times,serif" font-size="14.00">false</text>
</g>
<!-- critical&#45;trap -->
<g id="${uniqueid}_node3" class="node"><title>critical&#45;trap</title>
<g id="a_${uniqueid}_node3"><a xlink:href="#498005142564658-80936073433422" xlink:title="com.watch4net.alerting.action.SNMPTrapAction">
<ellipse fill="#4daf4a" stroke="black" cx="558.402" cy="-342" rx="66.0889" ry="18"/>
<text text-anchor="middle" x="558.402" y="-338.3" font-family="Times,serif" font-size="14.00" fill="white">critical&#45;trap</text>
</a>
</g>
</g>
<!-- critical&#45;&gt;critical&#45;trap -->
<g id="${uniqueid}_edge2" class="edge"><title>critical:se&#45;&gt;critical&#45;trap:w</title>
<path fill="none" stroke="black" d="M382.023,-342C413.622,-310.401 438.413,-337.433 480.293,-341.505"/>
<polygon fill="black" stroke="black" points="480.243,-345.007 490.402,-342 480.586,-338.015 480.243,-345.007"/>
<text text-anchor="middle" x="366.523" y="-330.8" font-family="Times,serif" font-size="14.00">true</text>
</g>
<!-- info -->
<g id="${uniqueid}_node4" class="node"><title>info</title>
<g id="a_${uniqueid}_node4"><a xlink:href="#498005142657131-80936061047101" xlink:title="com.watch4net.alerting.operation.comparator.ConstantComparatorOperation">
<polygon fill="#ff7f00" stroke="black" points="367.023,-265 326.637,-247 367.023,-229 407.409,-247 367.023,-265"/>
<text text-anchor="middle" x="367.023" y="-243.3" font-family="Times,serif" font-size="14.00" fill="white">info</text>
</a>
</g>
</g>
<!-- info&#45;clear&#45;trap -->
<g id="${uniqueid}_node5" class="node"><title>info&#45;clear&#45;trap</title>
<g id="a_${uniqueid}_node5"><a xlink:href="#498005142689490-80936073830527" xlink:title="com.watch4net.alerting.action.SNMPTrapAction">
<ellipse fill="#4daf4a" stroke="black" cx="558.402" cy="-288" rx="77.1866" ry="18"/>
<text text-anchor="middle" x="558.402" y="-284.3" font-family="Times,serif" font-size="14.00" fill="white">info&#45;clear&#45;trap</text>
</a>
</g>
</g>
<!-- info&#45;&gt;info&#45;clear&#45;trap -->
<g id="${uniqueid}_edge3" class="edge"><title>info:ne&#45;&gt;info&#45;clear&#45;trap:w</title>
<path fill="none" stroke="black" d="M379.023,-260C380.626,-261.602 378.445,-263.374 380.023,-265 409.129,-294.993 430.5,-289.233 469.18,-288.15"/>
<polygon fill="black" stroke="black" points="469.455,-291.646 479.402,-288 469.352,-284.647 469.455,-291.646"/>
<text text-anchor="middle" x="396.023" y="-263.8" font-family="Times,serif" font-size="14.00">false</text>
</g>
<!-- info&#45;trap -->
<g id="${uniqueid}_node6" class="node"><title>info&#45;trap</title>
<g id="a_${uniqueid}_node6"><a xlink:href="#498005142670155-80936073903878" xlink:title="com.watch4net.alerting.action.SNMPTrapAction">
<ellipse fill="#4daf4a" stroke="black" cx="558.402" cy="-234" rx="50.8918" ry="18"/>
<text text-anchor="middle" x="558.402" y="-230.3" font-family="Times,serif" font-size="14.00" fill="white">info&#45;trap</text>
</a>
</g>
</g>
<!-- info&#45;&gt;info&#45;trap -->
<g id="${uniqueid}_edge4" class="edge"><title>info:se&#45;&gt;info&#45;trap:w</title>
<path fill="none" stroke="black" d="M381.023,-234C417.963,-197.06 446.861,-229.382 496.244,-233.567"/>
<polygon fill="black" stroke="black" points="496.262,-237.071 506.402,-234 496.561,-230.077 496.262,-237.071"/>
<text text-anchor="middle" x="396.523" y="-222.8" font-family="Times,serif" font-size="14.00">true</text>
</g>
<!-- major -->
<g id="${uniqueid}_node7" class="node"><title>major</title>
<g id="a_${uniqueid}_node7"><a xlink:href="#498005142588864-80936060817587" xlink:title="com.watch4net.alerting.operation.comparator.ConstantComparatorOperation">
<polygon fill="#ff7f00" stroke="black" points="367.023,-184 313.9,-166 367.023,-148 420.146,-166 367.023,-184"/>
<text text-anchor="middle" x="367.023" y="-162.3" font-family="Times,serif" font-size="14.00" fill="white">major</text>
</a>
</g>
</g>
<!-- major&#45;clear&#45;trap -->
<g id="${uniqueid}_node8" class="node"><title>major&#45;clear&#45;trap</title>
<g id="a_${uniqueid}_node8"><a xlink:href="#498005142612055-80936073494493" xlink:title="com.watch4net.alerting.action.SNMPTrapAction">
<ellipse fill="#4daf4a" stroke="black" cx="558.402" cy="-180" rx="86.3847" ry="18"/>
<text text-anchor="middle" x="558.402" y="-176.3" font-family="Times,serif" font-size="14.00" fill="white">major&#45;clear&#45;trap</text>
</a>
</g>
</g>
<!-- major&#45;&gt;major&#45;clear&#45;trap -->
<g id="${uniqueid}_edge5" class="edge"><title>major:ne&#45;&gt;major&#45;clear&#45;trap:w</title>
<path fill="none" stroke="black" d="M380.023,-180C381.319,-181.296 379.579,-182.872 381.023,-184 386.252,-188.083 439.009,-183.005 461.784,-180.865"/>
<polygon fill="black" stroke="black" points="462.293,-184.335 471.96,-180 461.699,-177.36 462.293,-184.335"/>
<text text-anchor="middle" x="363.023" y="-183.8" font-family="Times,serif" font-size="14.00">false</text>
</g>
<!-- major&#45;trap -->
<g id="${uniqueid}_node9" class="node"><title>major&#45;trap</title>
<g id="a_${uniqueid}_node9"><a xlink:href="#498005142600826-80936073562852" xlink:title="com.watch4net.alerting.action.SNMPTrapAction">
<ellipse fill="#4daf4a" stroke="black" cx="558.402" cy="-126" rx="59.5901" ry="18"/>
<text text-anchor="middle" x="558.402" y="-122.3" font-family="Times,serif" font-size="14.00" fill="white">major&#45;trap</text>
</a>
</g>
</g>
<!-- major&#45;&gt;major&#45;trap -->
<g id="${uniqueid}_edge6" class="edge"><title>major:se&#45;&gt;major&#45;trap:w</title>
<path fill="none" stroke="black" d="M382.023,-152C416.724,-117.299 441.38,-124.73 487.275,-125.87"/>
<polygon fill="black" stroke="black" points="487.358,-129.371 497.402,-126 487.448,-122.372 487.358,-129.371"/>
<text text-anchor="middle" x="366.523" y="-140.8" font-family="Times,serif" font-size="14.00">true</text>
</g>
<!-- service status -->
<g id="${uniqueid}_node10" class="node"><title>service status</title>
<g id="a_${uniqueid}_node10"><a xlink:href="#498005142492889-80936057463760" xlink:title="com.watch4net.alerting.operation.FilteredEntryPoint">
<ellipse fill="#984ea3" stroke="black" cx="76.0433" cy="-206" rx="76.0865" ry="18"/>
<text text-anchor="middle" x="76.0433" y="-202.3" font-family="Times,serif" font-size="14.00" fill="white">service status</text>
</a>
</g>
</g>
<!-- severity -->
<g id="${uniqueid}_node11" class="node"><title>severity</title>
<g id="a_${uniqueid}_node11"><a xlink:href="#498005142537269-80936060623469" xlink:title="com.watch4net.alerting.operation.CaseOperation">
<polygon fill="#377eb8" stroke="black" points="262.087,-224 188.087,-224 188.087,-188 262.087,-188 262.087,-224"/>
<text text-anchor="middle" x="225.087" y="-202.3" font-family="Times,serif" font-size="14.00" fill="white">severity</text>
</a>
</g>
</g>
<!-- service status&#45;&gt;severity -->
<g id="${uniqueid}_edge7" class="edge"><title>service status:e&#45;&gt;severity:w</title>
<path fill="none" stroke="black" d="M152.087,-206C164.087,-206 169.337,-206 177.962,-206"/>
<polygon fill="black" stroke="black" points="178.087,-209.5 188.087,-206 178.086,-202.5 178.087,-209.5"/>
</g>
<!-- severity&#45;&gt;critical -->
<g id="${uniqueid}_edge8" class="edge"><title>severity:e&#45;&gt;critical:w</title>
<path fill="none" stroke="black" d="M262.087,-206C327.277,-206 244.404,-339.489 292.822,-354.611"/>
<polygon fill="black" stroke="black" points="292.642,-358.119 303.023,-356 293.587,-351.183 292.642,-358.119"/>
</g>
<!-- severity&#45;&gt;info -->
<g id="${uniqueid}_edge9" class="edge"><title>severity:e&#45;&gt;info:w</title>
<path fill="none" stroke="black" d="M262.087,-206C292.02,-206 292.598,-238.237 315.88,-245.541"/>
<polygon fill="black" stroke="black" points="315.627,-249.04 326.023,-247 316.624,-242.112 315.627,-249.04"/>
</g>
<!-- severity&#45;&gt;major -->
<g id="${uniqueid}_edge10" class="edge"><title>severity:e&#45;&gt;major:w</title>
<path fill="none" stroke="black" d="M262.087,-206C286.823,-206 285.404,-176.459 302.784,-168.151"/>
<polygon fill="black" stroke="black" points="303.956,-171.481 313.023,-166 302.517,-164.63 303.956,-171.481"/>
</g>
<!-- warning -->
<g id="${uniqueid}_node13" class="node"><title>warning</title>
<g id="a_${uniqueid}_node13"><a xlink:href="#498005142622295-80936060916417" xlink:title="com.watch4net.alerting.operation.comparator.ConstantComparatorOperation">
<polygon fill="#ff7f00" stroke="black" points="367.023,-76 298.15,-58 367.023,-40 435.897,-58 367.023,-76"/>
<text text-anchor="middle" x="367.023" y="-54.3" font-family="Times,serif" font-size="14.00" fill="white">warning</text>
</a>
</g>
</g>
<!-- severity&#45;&gt;warning -->
<g id="${uniqueid}_edge11" class="edge"><title>severity:e&#45;&gt;warning:w</title>
<path fill="none" stroke="black" d="M262.087,-206C325.948,-206 241.114,-74.2908 288.131,-59.3706"/>
<polygon fill="black" stroke="black" points="288.657,-62.8313 298.087,-58 287.703,-55.8967 288.657,-62.8313"/>
</g>
<!-- warn&#45;clear&#45;trap -->
<g id="${uniqueid}_node12" class="node"><title>warn&#45;clear&#45;trap</title>
<g id="a_${uniqueid}_node12"><a xlink:href="#498005142646555-80936073679146" xlink:title="com.watch4net.alerting.action.SNMPTrapAction">
<ellipse fill="#4daf4a" stroke="black" cx="558.402" cy="-72" rx="83.3857" ry="18"/>
<text text-anchor="middle" x="558.402" y="-68.3" font-family="Times,serif" font-size="14.00" fill="white">warn&#45;clear&#45;trap</text>
</a>
</g>
</g>
<!-- warning&#45;&gt;warn&#45;clear&#45;trap -->
<g id="${uniqueid}_edge12" class="edge"><title>warning:ne&#45;&gt;warn&#45;clear&#45;trap:w</title>
<path fill="none" stroke="black" d="M380.023,-72C381.319,-73.2958 379.579,-74.8723 381.023,-76 400.268,-91.0261 411.578,-77.2987 435.96,-76 448.755,-75.3185 454.096,-73.3358 463.407,-72.4439"/>
<polygon fill="black" stroke="black" points="463.568,-75.9403 473.402,-72 463.257,-68.9472 463.568,-75.9403"/>
<text text-anchor="middle" x="363.023" y="-75.8" font-family="Times,serif" font-size="14.00">false</text>
</g>
<!-- warning&#45;trap -->
<g id="${uniqueid}_node14" class="node"><title>warning&#45;trap</title>
<g id="a_${uniqueid}_node14"><a xlink:href="#498005142635077-80936073624804" xlink:title="com.watch4net.alerting.action.SNMPTrapAction">
<ellipse fill="#4daf4a" stroke="black" cx="558.402" cy="-18" rx="71.4873" ry="18"/>
<text text-anchor="middle" x="558.402" y="-14.3" font-family="Times,serif" font-size="14.00" fill="white">warning&#45;trap</text>
</a>
</g>
</g>
<!-- warning&#45;&gt;warning&#45;trap -->
<g id="${uniqueid}_edge13" class="edge"><title>warning:se&#45;&gt;warning&#45;trap:w</title>
<path fill="none" stroke="black" d="M382.023,-44C413.038,-12.9857 434.625,-17.1125 475.25,-17.8959"/>
<polygon fill="black" stroke="black" points="475.367,-21.3972 485.402,-18 475.439,-14.3975 475.367,-21.3972"/>
<text text-anchor="middle" x="366.523" y="-32.8" font-family="Times,serif" font-size="14.00">true</text>
</g>
</g>
</svg>
