<?xml version="1.0" encoding="UTF-8" standalone="no"?>
<!DOCTYPE svg PUBLIC "-//W3C//DTD SVG 1.1//EN"
 "http://www.w3.org/Graphics/SVG/1.1/DTD/svg11.dtd">
<!-- Generated by graphviz version 2.38.0 (20140413.2041)
 -->
<!-- Title: EMC VMAX Alert Definitions/VMAX&#45;Controller/High Write Throughput Pages: 1 -->
<svg width="926pt" height="441pt"
 viewBox="0.00 0.00 925.87 441.00" xmlns="http://www.w3.org/2000/svg" xmlns:xlink="http://www.w3.org/1999/xlink">
<g id="${uniqueid}" class="graph" transform="scale(1 1) rotate(0) translate(4 437.002)">
<title>EMC VMAX Alert Definitions/VMAX&#45;Controller/High Write Throughput</title>
<polygon fill="white" stroke="none" points="-4,4 -4,-437.002 921.865,-437.002 921.865,4 -4,4"/>
<!-- ControllerHigh
WriteIORate_
Major -->
<g id="${uniqueid}_node1" class="node"><title>ControllerHigh
WriteIORate_
Major</title>
<g id="a_${uniqueid}_node1"><a xlink:href="#2007593236164292" xlink:title="com.watch4net.alerting.operation.comparator.ConstantComparatorOperation">
<polygon fill="#ff7f00" stroke="black" points="529.584,-419.477 404.584,-366.477 529.584,-313.477 654.584,-366.477 529.584,-419.477"/>
<text text-anchor="middle" x="529.584" y="-377.777" font-family="Times,serif" font-size="14.00" fill="white">ControllerHigh</text>
<text text-anchor="middle" x="529.584" y="-362.777" font-family="Times,serif" font-size="14.00" fill="white">WriteIORate_</text>
<text text-anchor="middle" x="529.584" y="-347.777" font-family="Times,serif" font-size="14.00" fill="white">Major</text>
</a>
</g>
</g>
<!-- Controller_High_
Write_IO_Rate_
Major -->
<g id="${uniqueid}_node6" class="node"><title>Controller_High_
Write_IO_Rate_
Major</title>
<g id="a_${uniqueid}_node6"><a xlink:href="#2007593236177200" xlink:title="com.watch4net.alerting.action.SNMPTrapAction">
<ellipse fill="#4daf4a" stroke="black" cx="813.224" cy="-330.477" rx="98.9899" ry="37.4533"/>
<text text-anchor="middle" x="813.224" y="-341.777" font-family="Times,serif" font-size="14.00" fill="white">Controller_High_</text>
<text text-anchor="middle" x="813.224" y="-326.777" font-family="Times,serif" font-size="14.00" fill="white">Write_IO_Rate_</text>
<text text-anchor="middle" x="813.224" y="-311.777" font-family="Times,serif" font-size="14.00" fill="white">Major</text>
</a>
</g>
</g>
<!-- ControllerHigh
WriteIORate_
Major&#45;&gt;Controller_High_
Write_IO_Rate_
Major -->
<g id="${uniqueid}_edge2" class="edge"><title>ControllerHigh
WriteIORate_
Major:se&#45;&gt;Controller_High_
Write_IO_Rate_
Major:w</title>
<path fill="none" stroke="black" d="M568.584,-328.477C611.558,-285.502 645.086,-325.564 702.934,-330.074"/>
<polygon fill="black" stroke="black" points="703.095,-333.583 713.224,-330.477 703.369,-326.588 703.095,-333.583"/>
<text text-anchor="middle" x="553.084" y="-317.277" font-family="Times,serif" font-size="14.00">true</text>
</g>
<!-- SNMP_Clear_Major -->
<g id="${uniqueid}_node10" class="node"><title>SNMP_Clear_Major</title>
<g id="a_${uniqueid}_node10"><a xlink:href="#2007593236189242" xlink:title="com.watch4net.alerting.action.SNMPTrapAction">
<ellipse fill="#4daf4a" stroke="black" cx="813.224" cy="-404.477" rx="103.982" ry="18"/>
<text text-anchor="middle" x="813.224" y="-400.777" font-family="Times,serif" font-size="14.00" fill="white">SNMP_Clear_Major</text>
</a>
</g>
</g>
<!-- ControllerHigh
WriteIORate_
Major&#45;&gt;SNMP_Clear_Major -->
<g id="${uniqueid}_edge1" class="edge"><title>ControllerHigh
WriteIORate_
Major:ne&#45;&gt;SNMP_Clear_Major:w</title>
<path fill="none" stroke="black" d="M566.584,-404.477C568.946,-406.839 565.144,-417.194 567.584,-419.477 595.82,-445.893 616.271,-424.699 654.584,-419.477 675.408,-416.638 681.802,-407.911 698.253,-405.253"/>
<polygon fill="black" stroke="black" points="698.874,-408.716 708.584,-404.477 698.349,-401.736 698.874,-408.716"/>
<text text-anchor="middle" x="549.584" y="-393.277" font-family="Times,serif" font-size="14.00">false</text>
</g>
<!-- ControllerHigh
WriteIORate_Cirt -->
<g id="${uniqueid}_node2" class="node"><title>ControllerHigh
WriteIORate_Cirt</title>
<g id="a_${uniqueid}_node2"><a xlink:href="#2007593236116623" xlink:title="com.watch4net.alerting.operation.comparator.ConstantComparatorOperation">
<polygon fill="#ff7f00" stroke="black" points="529.584,-258.477 386.584,-220.477 529.584,-182.477 672.584,-220.477 529.584,-258.477"/>
<text text-anchor="middle" x="529.584" y="-224.277" font-family="Times,serif" font-size="14.00" fill="white">ControllerHigh</text>
<text text-anchor="middle" x="529.584" y="-209.277" font-family="Times,serif" font-size="14.00" fill="white">WriteIORate_Cirt</text>
</a>
</g>
</g>
<!-- Controller_High_
Write_IO_Rate_
Crit -->
<g id="${uniqueid}_node5" class="node"><title>Controller_High_
Write_IO_Rate_
Crit</title>
<g id="a_${uniqueid}_node5"><a xlink:href="#2007593236136635" xlink:title="com.watch4net.alerting.action.SNMPTrapAction">
<ellipse fill="#4daf4a" stroke="black" cx="813.224" cy="-184.477" rx="98.9899" ry="37.4533"/>
<text text-anchor="middle" x="813.224" y="-195.777" font-family="Times,serif" font-size="14.00" fill="white">Controller_High_</text>
<text text-anchor="middle" x="813.224" y="-180.777" font-family="Times,serif" font-size="14.00" fill="white">Write_IO_Rate_</text>
<text text-anchor="middle" x="813.224" y="-165.777" font-family="Times,serif" font-size="14.00" fill="white">Crit</text>
</a>
</g>
</g>
<!-- ControllerHigh
WriteIORate_Cirt&#45;&gt;Controller_High_
Write_IO_Rate_
Crit -->
<g id="${uniqueid}_edge4" class="edge"><title>ControllerHigh
WriteIORate_Cirt:se&#45;&gt;Controller_High_
Write_IO_Rate_
Crit:w</title>
<path fill="none" stroke="black" d="M560.584,-190.477C606.153,-144.907 641.571,-180.442 703.117,-184.169"/>
<polygon fill="black" stroke="black" points="703.122,-187.671 713.224,-184.477 703.335,-180.674 703.122,-187.671"/>
<text text-anchor="middle" x="545.084" y="-179.277" font-family="Times,serif" font-size="14.00">true</text>
</g>
<!-- SNMP_Clear_Crit -->
<g id="${uniqueid}_node9" class="node"><title>SNMP_Clear_Crit</title>
<g id="a_${uniqueid}_node9"><a xlink:href="#2007593236153262" xlink:title="com.watch4net.alerting.action.SNMPTrapAction">
<ellipse fill="#4daf4a" stroke="black" cx="813.224" cy="-257.477" rx="94.7833" ry="18"/>
<text text-anchor="middle" x="813.224" y="-253.777" font-family="Times,serif" font-size="14.00" fill="white">SNMP_Clear_Crit</text>
</a>
</g>
</g>
<!-- ControllerHigh
WriteIORate_Cirt&#45;&gt;SNMP_Clear_Crit -->
<g id="${uniqueid}_edge3" class="edge"><title>ControllerHigh
WriteIORate_Cirt:ne&#45;&gt;SNMP_Clear_Crit:w</title>
<path fill="none" stroke="black" d="M558.584,-250.477C561.117,-253.01 556.897,-256.105 559.584,-258.477 597.234,-291.714 622.365,-259.039 672.584,-258.477 688.552,-258.298 694.877,-257.759 707.079,-257.556"/>
<polygon fill="black" stroke="black" points="707.252,-261.055 717.224,-257.477 707.197,-254.055 707.252,-261.055"/>
<text text-anchor="middle" x="541.584" y="-254.277" font-family="Times,serif" font-size="14.00">false</text>
</g>
<!-- ControllerWrite
IORate -->
<g id="${uniqueid}_node3" class="node"><title>ControllerWrite
IORate</title>
<g id="a_${uniqueid}_node3"><a xlink:href="#2007593236105829" xlink:title="com.watch4net.alerting.operation.CaseOperation">
<polygon fill="#377eb8" stroke="black" points="350.584,-239.477 220.584,-239.477 220.584,-201.477 350.584,-201.477 350.584,-239.477"/>
<text text-anchor="middle" x="285.584" y="-224.277" font-family="Times,serif" font-size="14.00" fill="white">ControllerWrite</text>
<text text-anchor="middle" x="285.584" y="-209.277" font-family="Times,serif" font-size="14.00" fill="white">IORate</text>
</a>
</g>
</g>
<!-- ControllerWrite
IORate&#45;&gt;ControllerHigh
WriteIORate_
Major -->
<g id="${uniqueid}_edge5" class="edge"><title>ControllerWrite
IORate:e&#45;&gt;ControllerHigh
WriteIORate_
Major:w</title>
<path fill="none" stroke="black" d="M350.584,-220.477C415.841,-220.477 343.395,-350.945 393.59,-365.214"/>
<polygon fill="black" stroke="black" points="393.224,-368.696 403.584,-366.477 394.101,-361.751 393.224,-368.696"/>
</g>
<!-- ControllerWrite
IORate&#45;&gt;ControllerHigh
WriteIORate_Cirt -->
<g id="${uniqueid}_edge6" class="edge"><title>ControllerWrite
IORate:e&#45;&gt;ControllerHigh
WriteIORate_Cirt:w</title>
<path fill="none" stroke="black" d="M350.584,-220.477C362.584,-220.477 367.834,-220.477 376.459,-220.477"/>
<polygon fill="black" stroke="black" points="376.584,-223.977 386.584,-220.477 376.584,-216.977 376.584,-223.977"/>
</g>
<!-- Controller_High
WriteIORate_
Minor -->
<g id="${uniqueid}_node4" class="node"><title>Controller_High
WriteIORate_
Minor</title>
<g id="a_${uniqueid}_node4"><a xlink:href="#2007593236200888" xlink:title="com.watch4net.alerting.operation.comparator.ConstantComparatorOperation">
<polygon fill="#ff7f00" stroke="black" points="529.584,-128.477 396.584,-75.4767 529.584,-22.4767 662.584,-75.4767 529.584,-128.477"/>
<text text-anchor="middle" x="529.584" y="-86.7767" font-family="Times,serif" font-size="14.00" fill="white">Controller_High</text>
<text text-anchor="middle" x="529.584" y="-71.7767" font-family="Times,serif" font-size="14.00" fill="white">WriteIORate_</text>
<text text-anchor="middle" x="529.584" y="-56.7767" font-family="Times,serif" font-size="14.00" fill="white">Minor</text>
</a>
</g>
</g>
<!-- ControllerWrite
IORate&#45;&gt;Controller_High
WriteIORate_
Minor -->
<g id="${uniqueid}_edge7" class="edge"><title>ControllerWrite
IORate:e&#45;&gt;Controller_High
WriteIORate_
Minor:w</title>
<path fill="none" stroke="black" d="M350.584,-220.477C414.238,-220.477 337.792,-91.4373 385.576,-76.8195"/>
<polygon fill="black" stroke="black" points="386.138,-80.2755 395.584,-75.4767 385.207,-73.3377 386.138,-80.2755"/>
</g>
<!-- Controller_High_
Write_IO_Rate_
Minor -->
<g id="${uniqueid}_node7" class="node"><title>Controller_High_
Write_IO_Rate_
Minor</title>
<g id="a_${uniqueid}_node7"><a xlink:href="#2007593236213522" xlink:title="com.watch4net.alerting.action.SNMPTrapAction">
<ellipse fill="#4daf4a" stroke="black" cx="813.224" cy="-37.4767" rx="98.9899" ry="37.4533"/>
<text text-anchor="middle" x="813.224" y="-48.7767" font-family="Times,serif" font-size="14.00" fill="white">Controller_High_</text>
<text text-anchor="middle" x="813.224" y="-33.7767" font-family="Times,serif" font-size="14.00" fill="white">Write_IO_Rate_</text>
<text text-anchor="middle" x="813.224" y="-18.7767" font-family="Times,serif" font-size="14.00" fill="white">Minor</text>
</a>
</g>
</g>
<!-- Controller_High
WriteIORate_
Minor&#45;&gt;Controller_High_
Write_IO_Rate_
Minor -->
<g id="${uniqueid}_edge9" class="edge"><title>Controller_High
WriteIORate_
Minor:se&#45;&gt;Controller_High_
Write_IO_Rate_
Minor:w</title>
<path fill="none" stroke="black" d="M568.584,-37.4767C611.554,5.49365 645.091,-32.7768 702.935,-37.0911"/>
<polygon fill="black" stroke="black" points="703.1,-40.5997 713.224,-37.4767 703.362,-33.6046 703.1,-40.5997"/>
<text text-anchor="middle" x="553.084" y="-26.2767" font-family="Times,serif" font-size="14.00">true</text>
</g>
<!-- SNMP_Clear_Minor -->
<g id="${uniqueid}_node11" class="node"><title>SNMP_Clear_Minor</title>
<g id="a_${uniqueid}_node11"><a xlink:href="#2007593236225907" xlink:title="com.watch4net.alerting.action.SNMPTrapAction">
<ellipse fill="#4daf4a" stroke="black" cx="813.224" cy="-111.477" rx="104.782" ry="18"/>
<text text-anchor="middle" x="813.224" y="-107.777" font-family="Times,serif" font-size="14.00" fill="white">SNMP_Clear_Minor</text>
</a>
</g>
</g>
<!-- Controller_High
WriteIORate_
Minor&#45;&gt;SNMP_Clear_Minor -->
<g id="${uniqueid}_edge8" class="edge"><title>Controller_High
WriteIORate_
Minor:ne&#45;&gt;SNMP_Clear_Minor:w</title>
<path fill="none" stroke="black" d="M566.584,-113.477C568.946,-115.839 565.144,-126.194 567.584,-128.477 598.416,-157.322 621.021,-135.911 662.584,-128.477 680.184,-125.329 685.196,-115.906 698.46,-112.621"/>
<polygon fill="black" stroke="black" points="699.04,-116.078 708.584,-111.477 698.254,-109.122 699.04,-116.078"/>
<text text-anchor="middle" x="549.584" y="-102.277" font-family="Times,serif" font-size="14.00">false</text>
</g>
<!-- HighWriteIORate -->
<g id="${uniqueid}_node8" class="node"><title>HighWriteIORate</title>
<g id="a_${uniqueid}_node8"><a xlink:href="#2007593236056617" xlink:title="com.watch4net.alerting.operation.FilteredEntryPoint">
<ellipse fill="#984ea3" stroke="black" cx="92.2918" cy="-220.477" rx="92.0841" ry="18"/>
<text text-anchor="middle" x="92.2918" y="-216.777" font-family="Times,serif" font-size="14.00" fill="white">HighWriteIORate</text>
</a>
</g>
</g>
<!-- HighWriteIORate&#45;&gt;ControllerWrite
IORate -->
<g id="${uniqueid}_edge10" class="edge"><title>HighWriteIORate:e&#45;&gt;ControllerWrite
IORate:w</title>
<path fill="none" stroke="black" d="M184.584,-220.477C196.584,-220.477 201.834,-220.477 210.459,-220.477"/>
<polygon fill="black" stroke="black" points="210.584,-223.977 220.584,-220.477 210.584,-216.977 210.584,-223.977"/>
</g>
</g>
</svg>
