<?xml version="1.0" encoding="UTF-8" standalone="no"?>
<!DOCTYPE svg PUBLIC "-//W3C//DTD SVG 1.1//EN"
 "http://www.w3.org/Graphics/SVG/1.1/DTD/svg11.dtd">
<!-- Generated by graphviz version 2.38.0 (20140413.2041)
 -->
<!-- Title: HP 3PAR Alert Definitions/3PAR&#45;Disks/High Read Bandwidth Pages: 1 -->
<svg width="909pt" height="422pt"
 viewBox="0.00 0.00 909.32 421.74" xmlns="http://www.w3.org/2000/svg" xmlns:xlink="http://www.w3.org/1999/xlink">
<g id="${uniqueid}" class="graph" transform="scale(1 1) rotate(0) translate(4 417.74)">
<title>HP 3PAR Alert Definitions/3PAR&#45;Disks/High Read Bandwidth</title>
<polygon fill="white" stroke="none" points="-4,4 -4,-417.74 905.323,-417.74 905.323,4 -4,4"/>
<!-- Case Generator -->
<g id="${uniqueid}_node1" class="node"><title>Case Generator</title>
<g id="a_${uniqueid}_node1"><a xlink:href="#374785926692911" xlink:title="com.watch4net.alerting.operation.CaseOperation">
<polygon fill="#377eb8" stroke="black" points="361.576,-224.87 232.576,-224.87 232.576,-188.87 361.576,-188.87 361.576,-224.87"/>
<text text-anchor="middle" x="297.076" y="-203.17" font-family="Times,serif" font-size="14.00" fill="white">Case Generator</text>
</a>
</g>
</g>
<!-- ReadBandwidth_
CRIT -->
<g id="${uniqueid}_node3" class="node"><title>ReadBandwidth_
CRIT</title>
<g id="a_${uniqueid}_node3"><a xlink:href="#374785926699788" xlink:title="com.watch4net.alerting.operation.comparator.ConstantComparatorOperation">
<polygon fill="#ff7f00" stroke="black" points="534.576,-382.87 397.576,-344.87 534.576,-306.87 671.576,-344.87 534.576,-382.87"/>
<text text-anchor="middle" x="534.576" y="-348.67" font-family="Times,serif" font-size="14.00" fill="white">ReadBandwidth_</text>
<text text-anchor="middle" x="534.576" y="-333.67" font-family="Times,serif" font-size="14.00" fill="white">CRIT</text>
</a>
</g>
</g>
<!-- Case Generator&#45;&gt;ReadBandwidth_
CRIT -->
<g id="${uniqueid}_edge1" class="edge"><title>Case Generator:e&#45;&gt;ReadBandwidth_
CRIT:w</title>
<path fill="none" stroke="black" d="M361.576,-206.87C421,-206.87 344.934,-328.159 387.422,-343.32"/>
<polygon fill="black" stroke="black" points="387.162,-346.821 397.576,-344.87 388.218,-339.901 387.162,-346.821"/>
</g>
<!-- ReadBandwidth_
Major -->
<g id="${uniqueid}_node6" class="node"><title>ReadBandwidth_
Major</title>
<g id="a_${uniqueid}_node6"><a xlink:href="#374785926736534" xlink:title="com.watch4net.alerting.operation.comparator.ConstantComparatorOperation">
<polygon fill="#ff7f00" stroke="black" points="534.576,-244.87 397.576,-206.87 534.576,-168.87 671.576,-206.87 534.576,-244.87"/>
<text text-anchor="middle" x="534.576" y="-210.67" font-family="Times,serif" font-size="14.00" fill="white">ReadBandwidth_</text>
<text text-anchor="middle" x="534.576" y="-195.67" font-family="Times,serif" font-size="14.00" fill="white">Major</text>
</a>
</g>
</g>
<!-- Case Generator&#45;&gt;ReadBandwidth_
Major -->
<g id="${uniqueid}_edge2" class="edge"><title>Case Generator:e&#45;&gt;ReadBandwidth_
Major:w</title>
<path fill="none" stroke="black" d="M361.576,-206.87C373.576,-206.87 378.826,-206.87 387.451,-206.87"/>
<polygon fill="black" stroke="black" points="387.576,-210.37 397.576,-206.87 387.576,-203.37 387.576,-210.37"/>
</g>
<!-- ReadBandwidth_
Minor -->
<g id="${uniqueid}_node9" class="node"><title>ReadBandwidth_
Minor</title>
<g id="a_${uniqueid}_node9"><a xlink:href="#374785926761042" xlink:title="com.watch4net.alerting.operation.comparator.ConstantComparatorOperation">
<polygon fill="#ff7f00" stroke="black" points="534.576,-106.87 397.576,-68.8701 534.576,-30.8701 671.576,-68.8701 534.576,-106.87"/>
<text text-anchor="middle" x="534.576" y="-72.6701" font-family="Times,serif" font-size="14.00" fill="white">ReadBandwidth_</text>
<text text-anchor="middle" x="534.576" y="-57.6701" font-family="Times,serif" font-size="14.00" fill="white">Minor</text>
</a>
</g>
</g>
<!-- Case Generator&#45;&gt;ReadBandwidth_
Minor -->
<g id="${uniqueid}_edge3" class="edge"><title>Case Generator:e&#45;&gt;ReadBandwidth_
Minor:w</title>
<path fill="none" stroke="black" d="M361.576,-206.87C421,-206.87 344.934,-85.581 387.422,-70.4199"/>
<polygon fill="black" stroke="black" points="388.218,-73.839 397.576,-68.8701 387.162,-66.9191 388.218,-73.839"/>
</g>
<!-- HighRead
Bandwidth Entry -->
<g id="${uniqueid}_node2" class="node"><title>HighRead
Bandwidth Entry</title>
<g id="a_${uniqueid}_node2"><a xlink:href="#374785926618183" xlink:title="com.watch4net.alerting.operation.FilteredEntryPoint">
<ellipse fill="#984ea3" stroke="black" cx="98.2878" cy="-206.87" rx="98.0761" ry="26.7407"/>
<text text-anchor="middle" x="98.2878" y="-210.67" font-family="Times,serif" font-size="14.00" fill="white">HighRead</text>
<text text-anchor="middle" x="98.2878" y="-195.67" font-family="Times,serif" font-size="14.00" fill="white">Bandwidth Entry</text>
</a>
</g>
</g>
<!-- HighRead
Bandwidth Entry&#45;&gt;Case Generator -->
<g id="${uniqueid}_edge4" class="edge"><title>HighRead
Bandwidth Entry:e&#45;&gt;Case Generator:w</title>
<path fill="none" stroke="black" d="M196.576,-206.87C208.576,-206.87 213.826,-206.87 222.451,-206.87"/>
<polygon fill="black" stroke="black" points="222.576,-210.37 232.576,-206.87 222.576,-203.37 222.576,-210.37"/>
</g>
<!-- ReadBandwidth_
CRIT clear trap -->
<g id="${uniqueid}_node4" class="node"><title>ReadBandwidth_
CRIT clear trap</title>
<g id="a_${uniqueid}_node4"><a xlink:href="#374785926713140" xlink:title="com.watch4net.alerting.action.SNMPTrapAction">
<ellipse fill="#4daf4a" stroke="black" cx="804.449" cy="-386.87" rx="96.7474" ry="26.7407"/>
<text text-anchor="middle" x="804.449" y="-390.67" font-family="Times,serif" font-size="14.00" fill="white">ReadBandwidth_</text>
<text text-anchor="middle" x="804.449" y="-375.67" font-family="Times,serif" font-size="14.00" fill="white">CRIT clear trap</text>
</a>
</g>
</g>
<!-- ReadBandwidth_
CRIT&#45;&gt;ReadBandwidth_
CRIT clear trap -->
<g id="${uniqueid}_edge5" class="edge"><title>ReadBandwidth_
CRIT:ne&#45;&gt;ReadBandwidth_
CRIT clear trap:w</title>
<path fill="none" stroke="black" d="M563.576,-374.87C566.109,-377.404 561.923,-380.461 564.576,-382.87 609.073,-423.273 640.413,-390.864 697.417,-387.198"/>
<polygon fill="black" stroke="black" points="697.694,-390.691 707.576,-386.87 697.468,-383.695 697.694,-390.691"/>
<text text-anchor="middle" x="546.576" y="-378.67" font-family="Times,serif" font-size="14.00">false</text>
</g>
<!-- ReadBandwidth_
CRIT trap -->
<g id="${uniqueid}_node5" class="node"><title>ReadBandwidth_
CRIT trap</title>
<g id="a_${uniqueid}_node5"><a xlink:href="#374785926729397" xlink:title="com.watch4net.alerting.action.SNMPTrapAction">
<ellipse fill="#4daf4a" stroke="black" cx="804.449" cy="-314.87" rx="96.7474" ry="26.7407"/>
<text text-anchor="middle" x="804.449" y="-318.67" font-family="Times,serif" font-size="14.00" fill="white">ReadBandwidth_</text>
<text text-anchor="middle" x="804.449" y="-303.67" font-family="Times,serif" font-size="14.00" fill="white">CRIT trap</text>
</a>
</g>
</g>
<!-- ReadBandwidth_
CRIT&#45;&gt;ReadBandwidth_
CRIT trap -->
<g id="${uniqueid}_edge6" class="edge"><title>ReadBandwidth_
CRIT:se&#45;&gt;ReadBandwidth_
CRIT trap:w</title>
<path fill="none" stroke="black" d="M565.576,-314.87C607.761,-272.684 640.686,-310.256 697.474,-314.492"/>
<polygon fill="black" stroke="black" points="697.452,-317.993 707.576,-314.87 697.714,-310.998 697.452,-317.993"/>
<text text-anchor="middle" x="550.076" y="-303.67" font-family="Times,serif" font-size="14.00">true</text>
</g>
<!-- ReadBandwidth_
Major clear trap -->
<g id="${uniqueid}_node7" class="node"><title>ReadBandwidth_
Major clear trap</title>
<g id="a_${uniqueid}_node7"><a xlink:href="#374785926750765" xlink:title="com.watch4net.alerting.action.SNMPTrapAction">
<ellipse fill="#4daf4a" stroke="black" cx="804.449" cy="-242.87" rx="96.7474" ry="26.7407"/>
<text text-anchor="middle" x="804.449" y="-246.67" font-family="Times,serif" font-size="14.00" fill="white">ReadBandwidth_</text>
<text text-anchor="middle" x="804.449" y="-231.67" font-family="Times,serif" font-size="14.00" fill="white">Major clear trap</text>
</a>
</g>
</g>
<!-- ReadBandwidth_
Major&#45;&gt;ReadBandwidth_
Major clear trap -->
<g id="${uniqueid}_edge7" class="edge"><title>ReadBandwidth_
Major:ne&#45;&gt;ReadBandwidth_
Major clear trap:w</title>
<path fill="none" stroke="black" d="M563.576,-236.87C566.109,-239.404 561.889,-242.499 564.576,-244.87 600.227,-276.342 624.038,-246.19 671.576,-244.87 683.59,-244.537 688.819,-243.578 697.443,-243.12"/>
<polygon fill="black" stroke="black" points="697.665,-246.616 707.576,-242.87 697.492,-239.618 697.665,-246.616"/>
<text text-anchor="middle" x="546.576" y="-240.67" font-family="Times,serif" font-size="14.00">false</text>
</g>
<!-- ReadBandwidth_
Major trap -->
<g id="${uniqueid}_node8" class="node"><title>ReadBandwidth_
Major trap</title>
<g id="a_${uniqueid}_node8"><a xlink:href="#374785926743499" xlink:title="com.watch4net.alerting.action.SNMPTrapAction">
<ellipse fill="#4daf4a" stroke="black" cx="804.449" cy="-170.87" rx="96.7474" ry="26.7407"/>
<text text-anchor="middle" x="804.449" y="-174.67" font-family="Times,serif" font-size="14.00" fill="white">ReadBandwidth_</text>
<text text-anchor="middle" x="804.449" y="-159.67" font-family="Times,serif" font-size="14.00" fill="white">Major trap</text>
</a>
</g>
</g>
<!-- ReadBandwidth_
Major&#45;&gt;ReadBandwidth_
Major trap -->
<g id="${uniqueid}_edge8" class="edge"><title>ReadBandwidth_
Major:se&#45;&gt;ReadBandwidth_
Major trap:w</title>
<path fill="none" stroke="black" d="M565.576,-176.87C607.799,-134.647 640.64,-166.89 697.466,-170.543"/>
<polygon fill="black" stroke="black" points="697.468,-174.045 707.576,-170.87 697.694,-167.049 697.468,-174.045"/>
<text text-anchor="middle" x="550.076" y="-165.67" font-family="Times,serif" font-size="14.00">true</text>
</g>
<!-- ReadBandwidth_
Minor clear trap -->
<g id="${uniqueid}_node10" class="node"><title>ReadBandwidth_
Minor clear trap</title>
<g id="a_${uniqueid}_node10"><a xlink:href="#374785926776285" xlink:title="com.watch4net.alerting.action.SNMPTrapAction">
<ellipse fill="#4daf4a" stroke="black" cx="804.449" cy="-98.8701" rx="96.7474" ry="26.7407"/>
<text text-anchor="middle" x="804.449" y="-102.67" font-family="Times,serif" font-size="14.00" fill="white">ReadBandwidth_</text>
<text text-anchor="middle" x="804.449" y="-87.6701" font-family="Times,serif" font-size="14.00" fill="white">Minor clear trap</text>
</a>
</g>
</g>
<!-- ReadBandwidth_
Minor&#45;&gt;ReadBandwidth_
Minor clear trap -->
<g id="${uniqueid}_edge9" class="edge"><title>ReadBandwidth_
Minor:ne&#45;&gt;ReadBandwidth_
Minor clear trap:w</title>
<path fill="none" stroke="black" d="M563.576,-98.8701C566.109,-101.404 561.889,-104.499 564.576,-106.87 600.227,-138.342 624.304,-112.059 671.576,-106.87 683.922,-105.515 688.818,-101.619 697.597,-99.812"/>
<polygon fill="black" stroke="black" points="697.949,-103.294 707.576,-98.8701 697.291,-96.3255 697.949,-103.294"/>
<text text-anchor="middle" x="546.576" y="-102.67" font-family="Times,serif" font-size="14.00">false</text>
</g>
<!-- ReadBandwidth_
Minor trap -->
<g id="${uniqueid}_node11" class="node"><title>ReadBandwidth_
Minor trap</title>
<g id="a_${uniqueid}_node11"><a xlink:href="#374785926767762" xlink:title="com.watch4net.alerting.action.SNMPTrapAction">
<ellipse fill="#4daf4a" stroke="black" cx="804.449" cy="-26.8701" rx="96.7474" ry="26.7407"/>
<text text-anchor="middle" x="804.449" y="-30.6701" font-family="Times,serif" font-size="14.00" fill="white">ReadBandwidth_</text>
<text text-anchor="middle" x="804.449" y="-15.6701" font-family="Times,serif" font-size="14.00" fill="white">Minor trap</text>
</a>
</g>
</g>
<!-- ReadBandwidth_
Minor&#45;&gt;ReadBandwidth_
Minor trap -->
<g id="${uniqueid}_edge10" class="edge"><title>ReadBandwidth_
Minor:se&#45;&gt;ReadBandwidth_
Minor trap:w</title>
<path fill="none" stroke="black" d="M565.576,-38.8701C607.912,3.4661 640.502,-23.5162 697.442,-26.594"/>
<polygon fill="black" stroke="black" points="697.484,-30.0963 707.576,-26.8701 697.675,-23.0989 697.484,-30.0963"/>
<text text-anchor="middle" x="550.076" y="-27.6701" font-family="Times,serif" font-size="14.00">true</text>
</g>
</g>
</svg>
