<?xml version="1.0" encoding="UTF-8" standalone="no"?>
<!DOCTYPE svg PUBLIC "-//W3C//DTD SVG 1.1//EN"
 "http://www.w3.org/Graphics/SVG/1.1/DTD/svg11.dtd">
<!-- Generated by graphviz version 2.38.0 (20140413.2041)
 -->
<!-- Title: IBMDS5k Alert Definitions/IBMDS5k&#45;Disk/Write Bandwidth Pages: 1 -->
<svg width="1009pt" height="422pt"
 viewBox="0.00 0.00 1008.84 421.74" xmlns="http://www.w3.org/2000/svg" xmlns:xlink="http://www.w3.org/1999/xlink">
<g id="${uniqueid}" class="graph" transform="scale(1 1) rotate(0) translate(4 417.74)">
<title>IBMDS5k Alert Definitions/IBMDS5k&#45;Disk/Write Bandwidth</title>
<polygon fill="white" stroke="none" points="-4,4 -4,-417.74 1004.84,-417.74 1004.84,4 -4,4"/>
<!-- Disk write b/w
entry -->
<g id="${uniqueid}_node1" class="node"><title>Disk write b/w
entry</title>
<g id="a_${uniqueid}_node1"><a xlink:href="#2453576050859229" xlink:title="com.watch4net.alerting.operation.FilteredEntryPoint">
<ellipse fill="#984ea3" stroke="black" cx="85.5599" cy="-206.87" rx="85.6199" ry="26.7407"/>
<text text-anchor="middle" x="85.5599" y="-210.67" font-family="Times,serif" font-size="14.00" fill="white">Disk write b/w</text>
<text text-anchor="middle" x="85.5599" y="-195.67" font-family="Times,serif" font-size="14.00" fill="white">entry</text>
</a>
</g>
</g>
<!-- Roundoff -->
<g id="${uniqueid}_node2" class="node"><title>Roundoff</title>
<g id="a_${uniqueid}_node2"><a xlink:href="#1441797592934" xlink:title="com.watch4net.alerting.operation.math.ConstantMathOperation">
<polygon fill="#377eb8" stroke="black" points="288.12,-224.87 207.12,-224.87 207.12,-188.87 288.12,-188.87 288.12,-224.87"/>
<text text-anchor="middle" x="247.62" y="-203.17" font-family="Times,serif" font-size="14.00" fill="white">Roundoff</text>
</a>
</g>
</g>
<!-- Disk write b/w
entry&#45;&gt;Roundoff -->
<g id="${uniqueid}_edge1" class="edge"><title>Disk write b/w
entry:e&#45;&gt;Roundoff:w</title>
<path fill="none" stroke="black" d="M171.12,-206.87C183.12,-206.87 188.37,-206.87 196.995,-206.87"/>
<polygon fill="black" stroke="black" points="197.12,-210.37 207.12,-206.87 197.12,-203.37 197.12,-210.37"/>
</g>
<!-- Write b/w Case -->
<g id="${uniqueid}_node7" class="node"><title>Write b/w Case</title>
<g id="a_${uniqueid}_node7"><a xlink:href="#2453576050910498" xlink:title="com.watch4net.alerting.operation.CaseOperation">
<polygon fill="#377eb8" stroke="black" points="450.12,-224.87 324.12,-224.87 324.12,-188.87 450.12,-188.87 450.12,-224.87"/>
<text text-anchor="middle" x="387.12" y="-203.17" font-family="Times,serif" font-size="14.00" fill="white">Write b/w Case</text>
</a>
</g>
</g>
<!-- Roundoff&#45;&gt;Write b/w Case -->
<g id="${uniqueid}_edge2" class="edge"><title>Roundoff:e&#45;&gt;Write b/w Case:w</title>
<path fill="none" stroke="black" d="M288.12,-206.87C300.12,-206.87 305.37,-206.87 313.995,-206.87"/>
<polygon fill="black" stroke="black" points="314.12,-210.37 324.12,-206.87 314.12,-203.37 314.12,-210.37"/>
</g>
<!-- Write B/W_
Critical Trap -->
<g id="${uniqueid}_node3" class="node"><title>Write B/W_
Critical Trap</title>
<g id="a_${uniqueid}_node3"><a xlink:href="#2453576050937320" xlink:title="com.watch4net.alerting.action.SNMPTrapAction">
<ellipse fill="#4daf4a" stroke="black" cx="895.479" cy="-314.87" rx="76.2353" ry="26.7407"/>
<text text-anchor="middle" x="895.479" y="-318.67" font-family="Times,serif" font-size="14.00" fill="white">Write B/W_</text>
<text text-anchor="middle" x="895.479" y="-303.67" font-family="Times,serif" font-size="14.00" fill="white">Critical Trap</text>
</a>
</g>
</g>
<!-- Write B/W_
Critical_Clear -->
<g id="${uniqueid}_node4" class="node"><title>Write B/W_
Critical_Clear</title>
<g id="a_${uniqueid}_node4"><a xlink:href="#1426747683592" xlink:title="com.watch4net.alerting.action.SNMPTrapAction">
<ellipse fill="#4daf4a" stroke="black" cx="895.479" cy="-386.87" rx="82.9636" ry="26.7407"/>
<text text-anchor="middle" x="895.479" y="-390.67" font-family="Times,serif" font-size="14.00" fill="white">Write B/W_</text>
<text text-anchor="middle" x="895.479" y="-375.67" font-family="Times,serif" font-size="14.00" fill="white">Critical_Clear</text>
</a>
</g>
</g>
<!-- Write B/W_Major
Trap -->
<g id="${uniqueid}_node5" class="node"><title>Write B/W_Major
Trap</title>
<g id="a_${uniqueid}_node5"><a xlink:href="#2453576050973696" xlink:title="com.watch4net.alerting.action.SNMPTrapAction">
<ellipse fill="#4daf4a" stroke="black" cx="895.479" cy="-170.87" rx="99.9045" ry="26.7407"/>
<text text-anchor="middle" x="895.479" y="-174.67" font-family="Times,serif" font-size="14.00" fill="white">Write B/W_Major</text>
<text text-anchor="middle" x="895.479" y="-159.67" font-family="Times,serif" font-size="14.00" fill="white">Trap</text>
</a>
</g>
</g>
<!-- Write B/W_Major_
Clear -->
<g id="${uniqueid}_node6" class="node"><title>Write B/W_Major_
Clear</title>
<g id="a_${uniqueid}_node6"><a xlink:href="#1426747733054" xlink:title="com.watch4net.alerting.action.SNMPTrapAction">
<ellipse fill="#4daf4a" stroke="black" cx="895.479" cy="-242.87" rx="105.218" ry="26.7407"/>
<text text-anchor="middle" x="895.479" y="-246.67" font-family="Times,serif" font-size="14.00" fill="white">Write B/W_Major_</text>
<text text-anchor="middle" x="895.479" y="-231.67" font-family="Times,serif" font-size="14.00" fill="white">Clear</text>
</a>
</g>
</g>
<!-- Write b/w Crit
comp -->
<g id="${uniqueid}_node8" class="node"><title>Write b/w Crit
comp</title>
<g id="a_${uniqueid}_node8"><a xlink:href="#2453576050919362" xlink:title="com.watch4net.alerting.operation.comparator.ConstantComparatorOperation">
<polygon fill="#ff7f00" stroke="black" points="620.12,-381.87 501.12,-343.87 620.12,-305.87 739.12,-343.87 620.12,-381.87"/>
<text text-anchor="middle" x="620.12" y="-347.67" font-family="Times,serif" font-size="14.00" fill="white">Write b/w Crit</text>
<text text-anchor="middle" x="620.12" y="-332.67" font-family="Times,serif" font-size="14.00" fill="white">comp</text>
</a>
</g>
</g>
<!-- Write b/w Case&#45;&gt;Write b/w Crit
comp -->
<g id="${uniqueid}_edge3" class="edge"><title>Write b/w Case:e&#45;&gt;Write b/w Crit
comp:w</title>
<path fill="none" stroke="black" d="M450.12,-206.87C511.139,-206.87 444.139,-328.286 490.156,-342.514"/>
<polygon fill="black" stroke="black" points="489.739,-345.99 500.12,-343.87 490.683,-339.054 489.739,-345.99"/>
</g>
<!-- Write b/w Maj
Comp -->
<g id="${uniqueid}_node9" class="node"><title>Write b/w Maj
Comp</title>
<g id="a_${uniqueid}_node9"><a xlink:href="#2453576050959410" xlink:title="com.watch4net.alerting.operation.comparator.ConstantComparatorOperation">
<polygon fill="#ff7f00" stroke="black" points="620.12,-244.87 501.12,-206.87 620.12,-168.87 739.12,-206.87 620.12,-244.87"/>
<text text-anchor="middle" x="620.12" y="-210.67" font-family="Times,serif" font-size="14.00" fill="white">Write b/w Maj</text>
<text text-anchor="middle" x="620.12" y="-195.67" font-family="Times,serif" font-size="14.00" fill="white">Comp</text>
</a>
</g>
</g>
<!-- Write b/w Case&#45;&gt;Write b/w Maj
Comp -->
<g id="${uniqueid}_edge4" class="edge"><title>Write b/w Case:e&#45;&gt;Write b/w Maj
Comp:w</title>
<path fill="none" stroke="black" d="M450.12,-206.87C468.523,-206.87 475.496,-206.87 489.969,-206.87"/>
<polygon fill="black" stroke="black" points="490.12,-210.37 500.12,-206.87 490.12,-203.37 490.12,-210.37"/>
</g>
<!-- Write b/w Minor
Comp -->
<g id="${uniqueid}_node10" class="node"><title>Write b/w Minor
Comp</title>
<g id="a_${uniqueid}_node10"><a xlink:href="#2453576050989919" xlink:title="com.watch4net.alerting.operation.comparator.ConstantComparatorOperation">
<polygon fill="#ff7f00" stroke="black" points="620.12,-106.87 486.12,-68.8701 620.12,-30.8701 754.12,-68.8701 620.12,-106.87"/>
<text text-anchor="middle" x="620.12" y="-72.6701" font-family="Times,serif" font-size="14.00" fill="white">Write b/w Minor</text>
<text text-anchor="middle" x="620.12" y="-57.6701" font-family="Times,serif" font-size="14.00" fill="white">Comp</text>
</a>
</g>
</g>
<!-- Write b/w Case&#45;&gt;Write b/w Minor
Comp -->
<g id="${uniqueid}_edge5" class="edge"><title>Write b/w Case:e&#45;&gt;Write b/w Minor
Comp:w</title>
<path fill="none" stroke="black" d="M450.12,-206.87C509.544,-206.87 433.478,-85.581 475.966,-70.4199"/>
<polygon fill="black" stroke="black" points="476.762,-73.839 486.12,-68.8701 475.706,-66.9191 476.762,-73.839"/>
</g>
<!-- Write b/w Crit
comp&#45;&gt;Write B/W_
Critical Trap -->
<g id="${uniqueid}_edge7" class="edge"><title>Write b/w Crit
comp:se&#45;&gt;Write B/W_
Critical Trap:w</title>
<path fill="none" stroke="black" d="M650.12,-314.87C700.25,-264.74 739.284,-310.17 807.238,-314.54"/>
<polygon fill="black" stroke="black" points="807.371,-318.046 817.479,-314.87 807.597,-311.049 807.371,-318.046"/>
<text text-anchor="middle" x="634.62" y="-303.67" font-family="Times,serif" font-size="14.00">true</text>
</g>
<!-- Write b/w Crit
comp&#45;&gt;Write B/W_
Critical_Clear -->
<g id="${uniqueid}_edge6" class="edge"><title>Write b/w Crit
comp:ne&#45;&gt;Write B/W_
Critical_Clear:w</title>
<path fill="none" stroke="black" d="M648.12,-372.87C650.966,-375.716 646.163,-379.14 649.12,-381.87 699.576,-428.449 735.622,-390.942 801.148,-387.169"/>
<polygon fill="black" stroke="black" points="801.584,-390.658 811.479,-386.87 801.382,-383.661 801.584,-390.658"/>
<text text-anchor="middle" x="631.12" y="-376.67" font-family="Times,serif" font-size="14.00">false</text>
</g>
<!-- Write b/w Maj
Comp&#45;&gt;Write B/W_Major
Trap -->
<g id="${uniqueid}_edge9" class="edge"><title>Write b/w Maj
Comp:se&#45;&gt;Write B/W_Major
Trap:w</title>
<path fill="none" stroke="black" d="M650.12,-177.87C693.057,-134.933 726.416,-166.919 784.199,-170.545"/>
<polygon fill="black" stroke="black" points="784.373,-174.053 794.479,-170.87 784.594,-167.056 784.373,-174.053"/>
<text text-anchor="middle" x="634.62" y="-166.67" font-family="Times,serif" font-size="14.00">true</text>
</g>
<!-- Write b/w Maj
Comp&#45;&gt;Write B/W_Major_
Clear -->
<g id="${uniqueid}_edge8" class="edge"><title>Write b/w Maj
Comp:ne&#45;&gt;Write B/W_Major_
Clear:w</title>
<path fill="none" stroke="black" d="M648.12,-235.87C650.966,-238.716 646.121,-242.186 649.12,-244.87 678.925,-271.547 699.128,-245.654 739.12,-244.87 757.901,-244.502 764.995,-243.372 779.761,-242.994"/>
<polygon fill="black" stroke="black" points="780.163,-246.49 790.12,-242.87 780.079,-239.49 780.163,-246.49"/>
<text text-anchor="middle" x="631.12" y="-239.67" font-family="Times,serif" font-size="14.00">false</text>
</g>
<!-- WriteB/W_Minor
Trap -->
<g id="${uniqueid}_node11" class="node"><title>WriteB/W_Minor
Trap</title>
<g id="a_${uniqueid}_node11"><a xlink:href="#2453576051003264" xlink:title="com.watch4net.alerting.action.SNMPTrapAction">
<ellipse fill="#4daf4a" stroke="black" cx="895.479" cy="-26.8701" rx="96.7474" ry="26.7407"/>
<text text-anchor="middle" x="895.479" y="-30.6701" font-family="Times,serif" font-size="14.00" fill="white">WriteB/W_Minor</text>
<text text-anchor="middle" x="895.479" y="-15.6701" font-family="Times,serif" font-size="14.00" fill="white">Trap</text>
</a>
</g>
</g>
<!-- Write b/w Minor
Comp&#45;&gt;WriteB/W_Minor
Trap -->
<g id="${uniqueid}_edge11" class="edge"><title>Write b/w Minor
Comp:se&#45;&gt;WriteB/W_Minor
Trap:w</title>
<path fill="none" stroke="black" d="M651.12,-38.8701C694.837,4.84674 728.496,-23.4916 787.4,-26.6019"/>
<polygon fill="black" stroke="black" points="787.389,-30.1028 797.479,-26.8701 787.575,-23.1053 787.389,-30.1028"/>
<text text-anchor="middle" x="635.62" y="-27.6701" font-family="Times,serif" font-size="14.00">true</text>
</g>
<!-- WriteB/W_Minor_
Clear -->
<g id="${uniqueid}_node12" class="node"><title>WriteB/W_Minor_
Clear</title>
<g id="a_${uniqueid}_node12"><a xlink:href="#1426747787317" xlink:title="com.watch4net.alerting.action.SNMPTrapAction">
<ellipse fill="#4daf4a" stroke="black" cx="895.479" cy="-98.8701" rx="102.561" ry="26.7407"/>
<text text-anchor="middle" x="895.479" y="-102.67" font-family="Times,serif" font-size="14.00" fill="white">WriteB/W_Minor_</text>
<text text-anchor="middle" x="895.479" y="-87.6701" font-family="Times,serif" font-size="14.00" fill="white">Clear</text>
</a>
</g>
</g>
<!-- Write b/w Minor
Comp&#45;&gt;WriteB/W_Minor_
Clear -->
<g id="${uniqueid}_edge10" class="edge"><title>Write b/w Minor
Comp:ne&#45;&gt;WriteB/W_Minor_
Clear:w</title>
<path fill="none" stroke="black" d="M649.12,-98.8701C651.654,-101.404 647.434,-104.499 650.12,-106.87 684.772,-137.46 708.154,-111.736 754.12,-106.87 767.048,-105.501 772.126,-101.539 781.416,-99.7569"/>
<polygon fill="black" stroke="black" points="781.825,-103.235 791.479,-98.8701 781.21,-96.2615 781.825,-103.235"/>
<text text-anchor="middle" x="632.12" y="-102.67" font-family="Times,serif" font-size="14.00">false</text>
</g>
</g>
</svg>
