<?xml version="1.0" encoding="UTF-8" standalone="no"?>
<!DOCTYPE svg PUBLIC "-//W3C//DTD SVG 1.1//EN"
 "http://www.w3.org/Graphics/SVG/1.1/DTD/svg11.dtd">
<!-- Generated by graphviz version 2.38.0 (20140413.2041)
 -->
<!-- Title: Examples/Sustained Average Comparator Pages: 1 -->
<svg width="873pt" height="98pt"
 viewBox="0.00 0.00 872.60 98.00" xmlns="http://www.w3.org/2000/svg" xmlns:xlink="http://www.w3.org/1999/xlink">
<g id="${uniqueid}" class="graph" transform="scale(1 1) rotate(0) translate(4 94)">
<title>Examples/Sustained Average Comparator</title>
<polygon fill="white" stroke="none" points="-4,4 -4,-94 868.603,-94 868.603,4 -4,4"/>
<!-- 15 mins
Sustained
Average -->
<g id="${uniqueid}_node1" class="node"><title>15 mins
Sustained
Average</title>
<g id="a_${uniqueid}_node1"><a xlink:href="#1261157435831" xlink:title="com.watch4net.alerting.operation.window.HistoryOperation">
<polygon fill="#377eb8" stroke="black" points="466.285,-71.5 379.285,-71.5 379.285,-18.5 466.285,-18.5 466.285,-71.5"/>
<text text-anchor="middle" x="422.785" y="-56.3" font-family="Times,serif" font-size="14.00" fill="white">15 mins</text>
<text text-anchor="middle" x="422.785" y="-41.3" font-family="Times,serif" font-size="14.00" fill="white">Sustained</text>
<text text-anchor="middle" x="422.785" y="-26.3" font-family="Times,serif" font-size="14.00" fill="white">Average</text>
</a>
</g>
</g>
<!-- Over 90% -->
<g id="${uniqueid}_node6" class="node"><title>Over 90%</title>
<g id="a_${uniqueid}_node6"><a xlink:href="#88056294834984" xlink:title="com.watch4net.alerting.operation.comparator.ConstantComparatorOperation">
<polygon fill="#ff7f00" stroke="black" points="582.252,-63 502.318,-45 582.252,-27 662.185,-45 582.252,-63"/>
<text text-anchor="middle" x="582.252" y="-41.3" font-family="Times,serif" font-size="14.00" fill="white">Over 90%</text>
</a>
</g>
</g>
<!-- 15 mins
Sustained
Average&#45;&gt;Over 90% -->
<g id="${uniqueid}_edge1" class="edge"><title>15 mins
Sustained
Average:e&#45;&gt;Over 90%:w</title>
<path fill="none" stroke="black" d="M466.285,-45C478.285,-45 483.535,-45 492.16,-45"/>
<polygon fill="black" stroke="black" points="492.285,-48.5001 502.285,-45 492.285,-41.5001 492.285,-48.5001"/>
<text text-anchor="middle" x="490.285" y="-33.8" font-family="Times,serif" font-size="14.00">output</text>
</g>
<!-- 15 mins Average -->
<g id="${uniqueid}_node2" class="node"><title>15 mins Average</title>
<g id="a_${uniqueid}_node2"><a xlink:href="#88056294827984" xlink:title="com.watch4net.alerting.operation.window.HistoryOperation">
<polygon fill="#377eb8" stroke="black" points="343.285,-63 206.285,-63 206.285,-27 343.285,-27 343.285,-63"/>
<text text-anchor="middle" x="274.785" y="-41.3" font-family="Times,serif" font-size="14.00" fill="white">15 mins Average</text>
</a>
</g>
</g>
<!-- 15 mins Average&#45;&gt;15 mins
Sustained
Average -->
<g id="${uniqueid}_edge2" class="edge"><title>15 mins Average:e&#45;&gt;15 mins
Sustained
Average:w</title>
<path fill="none" stroke="black" d="M343.285,-45C355.285,-45 360.535,-45 369.16,-45"/>
<polygon fill="black" stroke="black" points="369.285,-48.5001 379.285,-45 369.285,-41.5001 369.285,-48.5001"/>
<text text-anchor="middle" x="367.285" y="-33.8" font-family="Times,serif" font-size="14.00">output</text>
</g>
<!-- CustomVariable -->
<g id="${uniqueid}_node3" class="node"><title>CustomVariable</title>
<g id="a_${uniqueid}_node3"><a xlink:href="#88056294815984" xlink:title="com.watch4net.alerting.operation.FilteredEntryPoint">
<ellipse fill="#984ea3" stroke="black" cx="85.1424" cy="-45" rx="85.2851" ry="18"/>
<text text-anchor="middle" x="85.1424" y="-41.3" font-family="Times,serif" font-size="14.00" fill="white">CustomVariable</text>
</a>
</g>
</g>
<!-- CustomVariable&#45;&gt;15 mins Average -->
<g id="${uniqueid}_edge3" class="edge"><title>CustomVariable:e&#45;&gt;15 mins Average:w</title>
<path fill="none" stroke="black" d="M170.285,-45C182.285,-45 187.535,-45 196.16,-45"/>
<polygon fill="black" stroke="black" points="196.285,-48.5001 206.285,-45 196.285,-41.5001 196.285,-48.5001"/>
</g>
<!-- Log Alert Clear -->
<g id="${uniqueid}_node4" class="node"><title>Log Alert Clear</title>
<g id="a_${uniqueid}_node4"><a xlink:href="#88056294841984" xlink:title="com.watch4net.alerting.action.LogAction">
<ellipse fill="#4daf4a" stroke="black" cx="781.411" cy="-72" rx="83.3857" ry="18"/>
<text text-anchor="middle" x="781.411" y="-68.3" font-family="Times,serif" font-size="14.00" fill="white">Log Alert Clear</text>
</a>
</g>
</g>
<!-- Log Alert Set -->
<g id="${uniqueid}_node5" class="node"><title>Log Alert Set</title>
<g id="a_${uniqueid}_node5"><a xlink:href="#88056294848984" xlink:title="com.watch4net.alerting.action.LogAction">
<ellipse fill="#4daf4a" stroke="black" cx="781.411" cy="-18" rx="72.5877" ry="18"/>
<text text-anchor="middle" x="781.411" y="-14.3" font-family="Times,serif" font-size="14.00" fill="white">Log Alert Set</text>
</a>
</g>
</g>
<!-- Over 90%&#45;&gt;Log Alert Clear -->
<g id="${uniqueid}_edge4" class="edge"><title>Over 90%:ne&#45;&gt;Log Alert Clear:w</title>
<path fill="none" stroke="black" d="M596.252,-60C597.245,-60.9938 596.149,-62.1284 597.252,-63 629.832,-88.7576 649.862,-74.6733 688.089,-72.3154"/>
<polygon fill="black" stroke="black" points="688.332,-75.8096 698.218,-72 688.114,-68.813 688.332,-75.8096"/>
<text text-anchor="middle" x="579.252" y="-63.8" font-family="Times,serif" font-size="14.00">false</text>
</g>
<!-- Over 90%&#45;&gt;Log Alert Set -->
<g id="${uniqueid}_edge5" class="edge"><title>Over 90%:se&#45;&gt;Log Alert Set:w</title>
<path fill="none" stroke="black" d="M598.252,-30C630.27,2.01808 654.823,-15.0441 697.177,-17.6773"/>
<polygon fill="black" stroke="black" points="697.305,-21.183 707.411,-18 697.526,-14.1865 697.305,-21.183"/>
<text text-anchor="middle" x="582.752" y="-18.8" font-family="Times,serif" font-size="14.00">true</text>
</g>
</g>
</svg>
