<?xml version="1.0" encoding="UTF-8" standalone="no"?>
<!DOCTYPE svg PUBLIC "-//W3C//DTD SVG 1.1//EN"
 "http://www.w3.org/Graphics/SVG/1.1/DTD/svg11.dtd">
<!-- Generated by graphviz version 2.38.0 (20140413.2041)
 -->
<!-- Title: EMC VMAX Alert Definitions/VMAX&#45;Devices/High Read Bandwidth Pages: 1 -->
<svg width="899pt" height="372pt"
 viewBox="0.00 0.00 899.48 371.63" xmlns="http://www.w3.org/2000/svg" xmlns:xlink="http://www.w3.org/1999/xlink">
<g id="${uniqueid}" class="graph" transform="scale(1 1) rotate(0) translate(4 367.625)">
<title>EMC VMAX Alert Definitions/VMAX&#45;Devices/High Read Bandwidth</title>
<polygon fill="white" stroke="none" points="-4,4 -4,-367.625 895.482,-367.625 895.482,4 -4,4"/>
<!-- DiskRead
Throughput_Crit -->
<g id="${uniqueid}_node1" class="node"><title>DiskRead
Throughput_Crit</title>
<g id="a_${uniqueid}_node1"><a xlink:href="#2034410981888943" xlink:title="com.watch4net.alerting.action.SNMPTrapAction">
<ellipse fill="#4daf4a" stroke="black" cx="784.709" cy="-26.8701" rx="96.7474" ry="26.7407"/>
<text text-anchor="middle" x="784.709" y="-30.6701" font-family="Times,serif" font-size="14.00" fill="white">DiskRead</text>
<text text-anchor="middle" x="784.709" y="-15.6701" font-family="Times,serif" font-size="14.00" fill="white">Throughput_Crit</text>
</a>
</g>
</g>
<!-- DiskRead
Throughput_Major -->
<g id="${uniqueid}_node2" class="node"><title>DiskRead
Throughput_Major</title>
<g id="a_${uniqueid}_node2"><a xlink:href="#2034410981912716" xlink:title="com.watch4net.alerting.operation.comparator.ConstantComparatorOperation">
<polygon fill="#ff7f00" stroke="black" points="489.936,-346.87 338.936,-308.87 489.936,-270.87 640.936,-308.87 489.936,-346.87"/>
<text text-anchor="middle" x="489.936" y="-312.67" font-family="Times,serif" font-size="14.00" fill="white">DiskRead</text>
<text text-anchor="middle" x="489.936" y="-297.67" font-family="Times,serif" font-size="14.00" fill="white">Throughput_Major</text>
</a>
</g>
</g>
<!-- Diskread
Throughput_Major -->
<g id="${uniqueid}_node5" class="node"><title>Diskread
Throughput_Major</title>
<g id="a_${uniqueid}_node5"><a xlink:href="#2034410981923051" xlink:title="com.watch4net.alerting.action.SNMPTrapAction">
<ellipse fill="#4daf4a" stroke="black" cx="784.709" cy="-278.87" rx="106.547" ry="26.7407"/>
<text text-anchor="middle" x="784.709" y="-282.67" font-family="Times,serif" font-size="14.00" fill="white">Diskread</text>
<text text-anchor="middle" x="784.709" y="-267.67" font-family="Times,serif" font-size="14.00" fill="white">Throughput_Major</text>
</a>
</g>
</g>
<!-- DiskRead
Throughput_Major&#45;&gt;Diskread
Throughput_Major -->
<g id="${uniqueid}_edge2" class="edge"><title>DiskRead
Throughput_Major:se&#45;&gt;Diskread
Throughput_Major:w</title>
<path fill="none" stroke="black" d="M520.936,-278.87C567.867,-231.939 604.432,-274.287 667.938,-278.534"/>
<polygon fill="black" stroke="black" points="667.824,-282.032 677.936,-278.87 668.059,-275.036 667.824,-282.032"/>
<text text-anchor="middle" x="505.436" y="-267.67" font-family="Times,serif" font-size="14.00">true</text>
</g>
<!-- SNMP_Clear_Major -->
<g id="${uniqueid}_node11" class="node"><title>SNMP_Clear_Major</title>
<g id="a_${uniqueid}_node11"><a xlink:href="#2034410981933509" xlink:title="com.watch4net.alerting.action.SNMPTrapAction">
<ellipse fill="#4daf4a" stroke="black" cx="784.709" cy="-341.87" rx="103.982" ry="18"/>
<text text-anchor="middle" x="784.709" y="-338.17" font-family="Times,serif" font-size="14.00" fill="white">SNMP_Clear_Major</text>
</a>
</g>
</g>
<!-- DiskRead
Throughput_Major&#45;&gt;SNMP_Clear_Major -->
<g id="${uniqueid}_edge1" class="edge"><title>DiskRead
Throughput_Major:ne&#45;&gt;SNMP_Clear_Major:w</title>
<path fill="none" stroke="black" d="M518.936,-338.87C521.47,-341.404 517.25,-344.499 519.936,-346.87 560.252,-382.46 587.269,-350.316 640.936,-346.87 654.347,-346.009 659.813,-343.489 669.641,-342.391"/>
<polygon fill="black" stroke="black" points="669.903,-345.882 679.709,-341.87 669.542,-338.892 669.903,-345.882"/>
<text text-anchor="middle" x="501.936" y="-342.67" font-family="Times,serif" font-size="14.00">false</text>
</g>
<!-- DiskRead
Throughput_Minor -->
<g id="${uniqueid}_node3" class="node"><title>DiskRead
Throughput_Minor</title>
<g id="a_${uniqueid}_node3"><a xlink:href="#2034410981943550" xlink:title="com.watch4net.alerting.operation.comparator.ConstantComparatorOperation">
<polygon fill="#ff7f00" stroke="black" points="489.936,-221.87 337.936,-183.87 489.936,-145.87 641.936,-183.87 489.936,-221.87"/>
<text text-anchor="middle" x="489.936" y="-187.67" font-family="Times,serif" font-size="14.00" fill="white">DiskRead</text>
<text text-anchor="middle" x="489.936" y="-172.67" font-family="Times,serif" font-size="14.00" fill="white">Throughput_Minor</text>
</a>
</g>
</g>
<!-- Diskreadthroughp
ut_Minor -->
<g id="${uniqueid}_node6" class="node"><title>Diskreadthroughp
ut_Minor</title>
<g id="a_${uniqueid}_node6"><a xlink:href="#2034410981954086" xlink:title="com.watch4net.alerting.action.SNMPTrapAction">
<ellipse fill="#4daf4a" stroke="black" cx="784.709" cy="-152.87" rx="103.889" ry="26.7407"/>
<text text-anchor="middle" x="784.709" y="-156.67" font-family="Times,serif" font-size="14.00" fill="white">Diskreadthroughp</text>
<text text-anchor="middle" x="784.709" y="-141.67" font-family="Times,serif" font-size="14.00" fill="white">ut_Minor</text>
</a>
</g>
</g>
<!-- DiskRead
Throughput_Minor&#45;&gt;Diskreadthroughp
ut_Minor -->
<g id="${uniqueid}_edge4" class="edge"><title>DiskRead
Throughput_Minor:se&#45;&gt;Diskreadthroughp
ut_Minor:w</title>
<path fill="none" stroke="black" d="M521.936,-152.87C569.098,-105.708 605.843,-148.264 669.662,-152.533"/>
<polygon fill="black" stroke="black" points="669.597,-156.032 679.709,-152.87 669.832,-149.036 669.597,-156.032"/>
<text text-anchor="middle" x="506.436" y="-141.67" font-family="Times,serif" font-size="14.00">true</text>
</g>
<!-- SNMP&#45;Clear_Minor -->
<g id="${uniqueid}_node9" class="node"><title>SNMP&#45;Clear_Minor</title>
<g id="a_${uniqueid}_node9"><a xlink:href="#2034410981965009" xlink:title="com.watch4net.alerting.action.SNMPTrapAction">
<ellipse fill="#4daf4a" stroke="black" cx="784.709" cy="-215.87" rx="102.082" ry="18"/>
<text text-anchor="middle" x="784.709" y="-212.17" font-family="Times,serif" font-size="14.00" fill="white">SNMP&#45;Clear_Minor</text>
</a>
</g>
</g>
<!-- DiskRead
Throughput_Minor&#45;&gt;SNMP&#45;Clear_Minor -->
<g id="${uniqueid}_edge3" class="edge"><title>DiskRead
Throughput_Minor:ne&#45;&gt;SNMP&#45;Clear_Minor:w</title>
<path fill="none" stroke="black" d="M519.936,-214.87C522.158,-217.092 518.562,-219.811 520.936,-221.87 561.563,-257.105 588.309,-225.892 641.936,-221.87 655.863,-220.825 661.394,-217.751 671.671,-216.456"/>
<polygon fill="black" stroke="black" points="671.93,-219.947 681.709,-215.87 671.522,-212.959 671.93,-219.947"/>
<text text-anchor="middle" x="502.936" y="-218.67" font-family="Times,serif" font-size="14.00">false</text>
</g>
<!-- DiskThroughput
Case -->
<g id="${uniqueid}_node4" class="node"><title>DiskThroughput
Case</title>
<g id="a_${uniqueid}_node4"><a xlink:href="#2034410981864020" xlink:title="com.watch4net.alerting.operation.CaseOperation">
<polygon fill="#377eb8" stroke="black" points="301.936,-202.87 168.936,-202.87 168.936,-164.87 301.936,-164.87 301.936,-202.87"/>
<text text-anchor="middle" x="235.436" y="-187.67" font-family="Times,serif" font-size="14.00" fill="white">DiskThroughput</text>
<text text-anchor="middle" x="235.436" y="-172.67" font-family="Times,serif" font-size="14.00" fill="white">Case</text>
</a>
</g>
</g>
<!-- DiskThroughput
Case&#45;&gt;DiskRead
Throughput_Major -->
<g id="${uniqueid}_edge5" class="edge"><title>DiskThroughput
Case:e&#45;&gt;DiskRead
Throughput_Major:w</title>
<path fill="none" stroke="black" d="M301.936,-183.87C355.685,-183.87 290.641,-291.91 327.684,-307.103"/>
<polygon fill="black" stroke="black" points="327.487,-310.621 337.936,-308.87 328.676,-303.722 327.487,-310.621"/>
</g>
<!-- DiskThroughput
Case&#45;&gt;DiskRead
Throughput_Minor -->
<g id="${uniqueid}_edge6" class="edge"><title>DiskThroughput
Case:e&#45;&gt;DiskRead
Throughput_Minor:w</title>
<path fill="none" stroke="black" d="M301.936,-183.87C313.936,-183.87 319.186,-183.87 327.811,-183.87"/>
<polygon fill="black" stroke="black" points="327.936,-187.37 337.936,-183.87 327.936,-180.37 327.936,-187.37"/>
</g>
<!-- ReadThroughput_
Crit -->
<g id="${uniqueid}_node8" class="node"><title>ReadThroughput_
Crit</title>
<g id="a_${uniqueid}_node8"><a xlink:href="#2034410981872596" xlink:title="com.watch4net.alerting.operation.comparator.ConstantComparatorOperation">
<polygon fill="#ff7f00" stroke="black" points="489.936,-97.8701 345.936,-59.8701 489.936,-21.8701 633.936,-59.8701 489.936,-97.8701"/>
<text text-anchor="middle" x="489.936" y="-63.6701" font-family="Times,serif" font-size="14.00" fill="white">ReadThroughput_</text>
<text text-anchor="middle" x="489.936" y="-48.6701" font-family="Times,serif" font-size="14.00" fill="white">Crit</text>
</a>
</g>
</g>
<!-- DiskThroughput
Case&#45;&gt;ReadThroughput_
Crit -->
<g id="${uniqueid}_edge7" class="edge"><title>DiskThroughput
Case:e&#45;&gt;ReadThroughput_
Crit:w</title>
<path fill="none" stroke="black" d="M301.936,-183.87C356.393,-183.87 295.806,-75.792 334.984,-61.4379"/>
<polygon fill="black" stroke="black" points="335.603,-64.8837 344.936,-59.8701 334.513,-57.969 335.603,-64.8837"/>
</g>
<!-- HighRead
Bandwidth -->
<g id="${uniqueid}_node7" class="node"><title>HighRead
Bandwidth</title>
<g id="a_${uniqueid}_node7"><a xlink:href="#2034410981820926" xlink:title="com.watch4net.alerting.operation.FilteredEntryPoint">
<ellipse fill="#984ea3" stroke="black" cx="66.468" cy="-183.87" rx="66.4361" ry="26.7407"/>
<text text-anchor="middle" x="66.468" y="-187.67" font-family="Times,serif" font-size="14.00" fill="white">HighRead</text>
<text text-anchor="middle" x="66.468" y="-172.67" font-family="Times,serif" font-size="14.00" fill="white">Bandwidth</text>
</a>
</g>
</g>
<!-- HighRead
Bandwidth&#45;&gt;DiskThroughput
Case -->
<g id="${uniqueid}_edge8" class="edge"><title>HighRead
Bandwidth:e&#45;&gt;DiskThroughput
Case:w</title>
<path fill="none" stroke="black" d="M132.936,-183.87C144.936,-183.87 150.186,-183.87 158.811,-183.87"/>
<polygon fill="black" stroke="black" points="158.936,-187.37 168.936,-183.87 158.936,-180.37 158.936,-187.37"/>
</g>
<!-- ReadThroughput_
Crit&#45;&gt;DiskRead
Throughput_Crit -->
<g id="${uniqueid}_edge10" class="edge"><title>ReadThroughput_
Crit:se&#45;&gt;DiskRead
Throughput_Crit:w</title>
<path fill="none" stroke="black" d="M520.936,-29.8701C570.6,19.7935 609.246,-22.4888 676.564,-26.5618"/>
<polygon fill="black" stroke="black" points="676.607,-30.0647 686.709,-26.8701 676.82,-23.0679 676.607,-30.0647"/>
<text text-anchor="middle" x="505.436" y="-18.6701" font-family="Times,serif" font-size="14.00">true</text>
</g>
<!-- SNMP_Clear_Crit -->
<g id="${uniqueid}_node10" class="node"><title>SNMP_Clear_Crit</title>
<g id="a_${uniqueid}_node10"><a xlink:href="#2034410981903800" xlink:title="com.watch4net.alerting.action.SNMPTrapAction">
<ellipse fill="#4daf4a" stroke="black" cx="784.709" cy="-89.8701" rx="94.7833" ry="18"/>
<text text-anchor="middle" x="784.709" y="-86.1701" font-family="Times,serif" font-size="14.00" fill="white">SNMP_Clear_Crit</text>
</a>
</g>
</g>
<!-- ReadThroughput_
Crit&#45;&gt;SNMP_Clear_Crit -->
<g id="${uniqueid}_edge9" class="edge"><title>ReadThroughput_
Crit:ne&#45;&gt;SNMP_Clear_Crit:w</title>
<path fill="none" stroke="black" d="M518.936,-89.8701C521.47,-92.4038 517.25,-95.4987 519.936,-97.8701 557.92,-131.401 583.403,-101.541 633.936,-97.8701 654.639,-96.3661 661.885,-91.7048 678.422,-90.2848"/>
<polygon fill="black" stroke="black" points="678.858,-93.7701 688.709,-89.8701 678.576,-86.7758 678.858,-93.7701"/>
<text text-anchor="middle" x="501.936" y="-93.6701" font-family="Times,serif" font-size="14.00">false</text>
</g>
</g>
</svg>
