<?xml version="1.0" encoding="UTF-8" standalone="no"?>
<!DOCTYPE svg PUBLIC "-//W3C//DTD SVG 1.1//EN"
 "http://www.w3.org/Graphics/SVG/1.1/DTD/svg11.dtd">
<!-- Generated by graphviz version 2.38.0 (20140413.2041)
 -->
<!-- Title: IBMDS5k Alert Definitions/IBMDS5k&#45;Lun/Write Requests Pages: 1 -->
<svg width="1007pt" height="422pt"
 viewBox="0.00 0.00 1006.94 421.74" xmlns="http://www.w3.org/2000/svg" xmlns:xlink="http://www.w3.org/1999/xlink">
<g id="${uniqueid}" class="graph" transform="scale(1 1) rotate(0) translate(4 417.74)">
<title>IBMDS5k Alert Definitions/IBMDS5k&#45;Lun/Write Requests</title>
<polygon fill="white" stroke="none" points="-4,4 -4,-417.74 1002.94,-417.74 1002.94,4 -4,4"/>
<!-- LUN write req
entry -->
<g id="${uniqueid}_node1" class="node"><title>LUN write req
entry</title>
<g id="a_${uniqueid}_node1"><a xlink:href="#2452026957462866" xlink:title="com.watch4net.alerting.operation.FilteredEntryPoint">
<ellipse fill="#984ea3" stroke="black" cx="84.8528" cy="-206.87" rx="84.7059" ry="26.7407"/>
<text text-anchor="middle" x="84.8528" y="-210.67" font-family="Times,serif" font-size="14.00" fill="white">LUN write req</text>
<text text-anchor="middle" x="84.8528" y="-195.67" font-family="Times,serif" font-size="14.00" fill="white">entry</text>
</a>
</g>
</g>
<!-- Roundoff -->
<g id="${uniqueid}_node2" class="node"><title>Roundoff</title>
<g id="a_${uniqueid}_node2"><a xlink:href="#1441797796058" xlink:title="com.watch4net.alerting.operation.math.ConstantMathOperation">
<polygon fill="#377eb8" stroke="black" points="286.706,-224.87 205.706,-224.87 205.706,-188.87 286.706,-188.87 286.706,-224.87"/>
<text text-anchor="middle" x="246.206" y="-203.17" font-family="Times,serif" font-size="14.00" fill="white">Roundoff</text>
</a>
</g>
</g>
<!-- LUN write req
entry&#45;&gt;Roundoff -->
<g id="${uniqueid}_edge1" class="edge"><title>LUN write req
entry:e&#45;&gt;Roundoff:w</title>
<path fill="none" stroke="black" d="M169.706,-206.87C181.706,-206.87 186.956,-206.87 195.581,-206.87"/>
<polygon fill="black" stroke="black" points="195.706,-210.37 205.706,-206.87 195.706,-203.37 195.706,-210.37"/>
</g>
<!-- Write Req Case -->
<g id="${uniqueid}_node3" class="node"><title>Write Req Case</title>
<g id="a_${uniqueid}_node3"><a xlink:href="#2452026957508603" xlink:title="com.watch4net.alerting.operation.CaseOperation">
<polygon fill="#377eb8" stroke="black" points="450.706,-224.87 322.706,-224.87 322.706,-188.87 450.706,-188.87 450.706,-224.87"/>
<text text-anchor="middle" x="386.706" y="-203.17" font-family="Times,serif" font-size="14.00" fill="white">Write Req Case</text>
</a>
</g>
</g>
<!-- Roundoff&#45;&gt;Write Req Case -->
<g id="${uniqueid}_edge2" class="edge"><title>Roundoff:e&#45;&gt;Write Req Case:w</title>
<path fill="none" stroke="black" d="M286.706,-206.87C298.706,-206.87 303.956,-206.87 312.581,-206.87"/>
<polygon fill="black" stroke="black" points="312.706,-210.37 322.706,-206.87 312.706,-203.37 312.706,-210.37"/>
</g>
<!-- Write Req Maj
Comp -->
<g id="${uniqueid}_node4" class="node"><title>Write Req Maj
Comp</title>
<g id="a_${uniqueid}_node4"><a xlink:href="#2452026957553202" xlink:title="com.watch4net.alerting.operation.comparator.ConstantComparatorOperation">
<polygon fill="#ff7f00" stroke="black" points="623.706,-381.87 502.706,-343.87 623.706,-305.87 744.706,-343.87 623.706,-381.87"/>
<text text-anchor="middle" x="623.706" y="-347.67" font-family="Times,serif" font-size="14.00" fill="white">Write Req Maj</text>
<text text-anchor="middle" x="623.706" y="-332.67" font-family="Times,serif" font-size="14.00" fill="white">Comp</text>
</a>
</g>
</g>
<!-- Write Req Case&#45;&gt;Write Req Maj
Comp -->
<g id="${uniqueid}_edge3" class="edge"><title>Write Req Case:e&#45;&gt;Write Req Maj
Comp:w</title>
<path fill="none" stroke="black" d="M450.706,-206.87C511.87,-206.87 445.492,-328.286 491.709,-342.514"/>
<polygon fill="black" stroke="black" points="491.326,-345.994 501.706,-343.87 492.267,-339.058 491.326,-345.994"/>
</g>
<!-- Write Req Minor
Comp -->
<g id="${uniqueid}_node5" class="node"><title>Write Req Minor
Comp</title>
<g id="a_${uniqueid}_node5"><a xlink:href="#2452026957581037" xlink:title="com.watch4net.alerting.operation.comparator.ConstantComparatorOperation">
<polygon fill="#ff7f00" stroke="black" points="623.706,-244.87 486.706,-206.87 623.706,-168.87 760.706,-206.87 623.706,-244.87"/>
<text text-anchor="middle" x="623.706" y="-210.67" font-family="Times,serif" font-size="14.00" fill="white">Write Req Minor</text>
<text text-anchor="middle" x="623.706" y="-195.67" font-family="Times,serif" font-size="14.00" fill="white">Comp</text>
</a>
</g>
</g>
<!-- Write Req Case&#45;&gt;Write Req Minor
Comp -->
<g id="${uniqueid}_edge4" class="edge"><title>Write Req Case:e&#45;&gt;Write Req Minor
Comp:w</title>
<path fill="none" stroke="black" d="M450.706,-206.87C462.706,-206.87 467.956,-206.87 476.581,-206.87"/>
<polygon fill="black" stroke="black" points="476.706,-210.37 486.706,-206.87 476.706,-203.37 476.706,-210.37"/>
</g>
<!-- WriteReq Crit
comp -->
<g id="${uniqueid}_node6" class="node"><title>WriteReq Crit
comp</title>
<g id="a_${uniqueid}_node6"><a xlink:href="#2452026957517191" xlink:title="com.watch4net.alerting.operation.comparator.ConstantComparatorOperation">
<polygon fill="#ff7f00" stroke="black" points="623.706,-107.87 506.706,-69.8701 623.706,-31.8701 740.706,-69.8701 623.706,-107.87"/>
<text text-anchor="middle" x="623.706" y="-73.6701" font-family="Times,serif" font-size="14.00" fill="white">WriteReq Crit</text>
<text text-anchor="middle" x="623.706" y="-58.6701" font-family="Times,serif" font-size="14.00" fill="white">comp</text>
</a>
</g>
</g>
<!-- Write Req Case&#45;&gt;WriteReq Crit
comp -->
<g id="${uniqueid}_edge5" class="edge"><title>Write Req Case:e&#45;&gt;WriteReq Crit
comp:w</title>
<path fill="none" stroke="black" d="M450.706,-206.87C512.474,-206.87 448.539,-85.4544 495.576,-71.226"/>
<polygon fill="black" stroke="black" points="496.258,-74.666 505.706,-69.8701 495.33,-67.7278 496.258,-74.666"/>
</g>
<!-- WriteReq_Major
Trap -->
<g id="${uniqueid}_node9" class="node"><title>WriteReq_Major
Trap</title>
<g id="a_${uniqueid}_node9"><a xlink:href="#2452026957564598" xlink:title="com.watch4net.alerting.action.SNMPTrapAction">
<ellipse fill="#4daf4a" stroke="black" cx="897.822" cy="-314.87" rx="94.5053" ry="26.7407"/>
<text text-anchor="middle" x="897.822" y="-318.67" font-family="Times,serif" font-size="14.00" fill="white">WriteReq_Major</text>
<text text-anchor="middle" x="897.822" y="-303.67" font-family="Times,serif" font-size="14.00" fill="white">Trap</text>
</a>
</g>
</g>
<!-- Write Req Maj
Comp&#45;&gt;WriteReq_Major
Trap -->
<g id="${uniqueid}_edge7" class="edge"><title>Write Req Maj
Comp:se&#45;&gt;WriteReq_Major
Trap:w</title>
<path fill="none" stroke="black" d="M653.706,-314.87C697.799,-270.776 732.193,-310.22 791.653,-314.502"/>
<polygon fill="black" stroke="black" points="791.702,-318.006 801.822,-314.87 791.955,-311.011 791.702,-318.006"/>
<text text-anchor="middle" x="638.206" y="-303.67" font-family="Times,serif" font-size="14.00">true</text>
</g>
<!-- WriteReq_Major_
Clear -->
<g id="${uniqueid}_node10" class="node"><title>WriteReq_Major_
Clear</title>
<g id="a_${uniqueid}_node10"><a xlink:href="#1426752999254" xlink:title="com.watch4net.alerting.action.SNMPTrapAction">
<ellipse fill="#4daf4a" stroke="black" cx="897.822" cy="-386.87" rx="100.318" ry="26.7407"/>
<text text-anchor="middle" x="897.822" y="-390.67" font-family="Times,serif" font-size="14.00" fill="white">WriteReq_Major_</text>
<text text-anchor="middle" x="897.822" y="-375.67" font-family="Times,serif" font-size="14.00" fill="white">Clear</text>
</a>
</g>
</g>
<!-- Write Req Maj
Comp&#45;&gt;WriteReq_Major_
Clear -->
<g id="${uniqueid}_edge6" class="edge"><title>Write Req Maj
Comp:ne&#45;&gt;WriteReq_Major_
Clear:w</title>
<path fill="none" stroke="black" d="M651.706,-372.87C654.551,-375.716 649.754,-379.134 652.706,-381.87 697.106,-423.02 729.017,-390.839 786.47,-387.196"/>
<polygon fill="black" stroke="black" points="786.822,-390.687 796.706,-386.87 786.599,-383.69 786.822,-390.687"/>
<text text-anchor="middle" x="634.706" y="-376.67" font-family="Times,serif" font-size="14.00">false</text>
</g>
<!-- WriteReq_Minor
Trap -->
<g id="${uniqueid}_node11" class="node"><title>WriteReq_Minor
Trap</title>
<g id="a_${uniqueid}_node11"><a xlink:href="#2452026957593904" xlink:title="com.watch4net.alerting.action.SNMPTrapAction">
<ellipse fill="#4daf4a" stroke="black" cx="897.822" cy="-170.87" rx="95.4188" ry="26.7407"/>
<text text-anchor="middle" x="897.822" y="-174.67" font-family="Times,serif" font-size="14.00" fill="white">WriteReq_Minor</text>
<text text-anchor="middle" x="897.822" y="-159.67" font-family="Times,serif" font-size="14.00" fill="white">Trap</text>
</a>
</g>
</g>
<!-- Write Req Minor
Comp&#45;&gt;WriteReq_Minor
Trap -->
<g id="${uniqueid}_edge9" class="edge"><title>Write Req Minor
Comp:se&#45;&gt;WriteReq_Minor
Trap:w</title>
<path fill="none" stroke="black" d="M654.706,-176.87C698.241,-133.335 732.088,-166.895 790.782,-170.555"/>
<polygon fill="black" stroke="black" points="790.717,-174.055 800.822,-170.87 790.937,-167.058 790.717,-174.055"/>
<text text-anchor="middle" x="639.206" y="-165.67" font-family="Times,serif" font-size="14.00">true</text>
</g>
<!-- WriteReq_Minor_
Clear -->
<g id="${uniqueid}_node12" class="node"><title>WriteReq_Minor_
Clear</title>
<g id="a_${uniqueid}_node12"><a xlink:href="#1426753042867" xlink:title="com.watch4net.alerting.action.SNMPTrapAction">
<ellipse fill="#4daf4a" stroke="black" cx="897.822" cy="-242.87" rx="101.233" ry="26.7407"/>
<text text-anchor="middle" x="897.822" y="-246.67" font-family="Times,serif" font-size="14.00" fill="white">WriteReq_Minor_</text>
<text text-anchor="middle" x="897.822" y="-231.67" font-family="Times,serif" font-size="14.00" fill="white">Clear</text>
</a>
</g>
</g>
<!-- Write Req Minor
Comp&#45;&gt;WriteReq_Minor_
Clear -->
<g id="${uniqueid}_edge8" class="edge"><title>Write Req Minor
Comp:ne&#45;&gt;WriteReq_Minor_
Clear:w</title>
<path fill="none" stroke="black" d="M652.706,-236.87C655.239,-239.404 651.019,-242.499 653.706,-244.87 689.357,-276.342 713.168,-246.19 760.706,-244.87 772.72,-244.537 777.949,-243.578 786.573,-243.12"/>
<polygon fill="black" stroke="black" points="786.795,-246.616 796.706,-242.87 786.622,-239.618 786.795,-246.616"/>
<text text-anchor="middle" x="635.706" y="-240.67" font-family="Times,serif" font-size="14.00">false</text>
</g>
<!-- WriteReq_
Critical Trap -->
<g id="${uniqueid}_node7" class="node"><title>WriteReq_
Critical Trap</title>
<g id="a_${uniqueid}_node7"><a xlink:href="#2452026957534018" xlink:title="com.watch4net.alerting.action.SNMPTrapAction">
<ellipse fill="#4daf4a" stroke="black" cx="897.822" cy="-26.8701" rx="76.2353" ry="26.7407"/>
<text text-anchor="middle" x="897.822" y="-30.6701" font-family="Times,serif" font-size="14.00" fill="white">WriteReq_</text>
<text text-anchor="middle" x="897.822" y="-15.6701" font-family="Times,serif" font-size="14.00" fill="white">Critical Trap</text>
</a>
</g>
</g>
<!-- WriteReq Crit
comp&#45;&gt;WriteReq_
Critical Trap -->
<g id="${uniqueid}_edge11" class="edge"><title>WriteReq Crit
comp:se&#45;&gt;WriteReq_
Critical Trap:w</title>
<path fill="none" stroke="black" d="M653.706,-40.8701C703.64,9.06452 741.987,-23.4704 809.625,-26.6303"/>
<polygon fill="black" stroke="black" points="809.742,-30.1339 819.822,-26.8701 809.907,-23.1359 809.742,-30.1339"/>
<text text-anchor="middle" x="638.206" y="-29.6701" font-family="Times,serif" font-size="14.00">true</text>
</g>
<!-- WriteReq_
Critical_Clear -->
<g id="${uniqueid}_node8" class="node"><title>WriteReq_
Critical_Clear</title>
<g id="a_${uniqueid}_node8"><a xlink:href="#1426752862536" xlink:title="com.watch4net.alerting.action.SNMPTrapAction">
<ellipse fill="#4daf4a" stroke="black" cx="897.822" cy="-98.8701" rx="82.9636" ry="26.7407"/>
<text text-anchor="middle" x="897.822" y="-102.67" font-family="Times,serif" font-size="14.00" fill="white">WriteReq_</text>
<text text-anchor="middle" x="897.822" y="-87.6701" font-family="Times,serif" font-size="14.00" fill="white">Critical_Clear</text>
</a>
</g>
</g>
<!-- WriteReq Crit
comp&#45;&gt;WriteReq_
Critical_Clear -->
<g id="${uniqueid}_edge10" class="edge"><title>WriteReq Crit
comp:ne&#45;&gt;WriteReq_
Critical_Clear:w</title>
<path fill="none" stroke="black" d="M651.706,-98.8701C654.551,-101.716 649.707,-105.186 652.706,-107.87 703.536,-153.365 738.55,-104.17 803.566,-99.2577"/>
<polygon fill="black" stroke="black" points="803.961,-102.745 813.822,-98.8701 803.697,-95.7504 803.961,-102.745"/>
<text text-anchor="middle" x="634.706" y="-102.67" font-family="Times,serif" font-size="14.00">false</text>
</g>
</g>
</svg>
