<?xml version="1.0" encoding="UTF-8" standalone="no"?>
<!DOCTYPE svg PUBLIC "-//W3C//DTD SVG 1.1//EN"
 "http://www.w3.org/Graphics/SVG/1.1/DTD/svg11.dtd">
<!-- Generated by graphviz version 2.38.0 (20140413.2041)
 -->
<!-- Title: EMC M&amp;R Health/Database metric count Pages: 1 -->
<svg width="831pt" height="406pt"
 viewBox="0.00 0.00 830.80 405.87" xmlns="http://www.w3.org/2000/svg" xmlns:xlink="http://www.w3.org/1999/xlink">
<g id="${uniqueid}" class="graph" transform="scale(1 1) rotate(0) translate(4 401.87)">
<title>EMC M&amp;R Health/Database metric count</title>
<polygon fill="white" stroke="none" points="-4,4 -4,-401.87 826.802,-401.87 826.802,4 -4,4"/>
<!-- Above 1.5M -->
<g id="${uniqueid}_node1" class="node"><title>Above 1.5M</title>
<g id="a_${uniqueid}_node1"><a xlink:href="#1405619369774" xlink:title="com.watch4net.alerting.operation.comparator.ConstantComparatorOperation">
<polygon fill="#ff7f00" stroke="black" points="524.155,-253 439.53,-235 524.155,-217 608.78,-235 524.155,-253"/>
<text text-anchor="middle" x="524.155" y="-231.3" font-family="Times,serif" font-size="14.00" fill="white">Above 1.5M</text>
</a>
</g>
</g>
<!-- Action
CLEARMajor -->
<g id="${uniqueid}_node4" class="node"><title>Action
CLEARMajor</title>
<g id="a_${uniqueid}_node4"><a xlink:href="#1405619834133" xlink:title="com.watch4net.alerting.action.SNMPTrapAction">
<ellipse fill="#4daf4a" stroke="black" cx="733.76" cy="-371" rx="65.1077" ry="26.7407"/>
<text text-anchor="middle" x="733.76" y="-374.8" font-family="Times,serif" font-size="14.00" fill="white">Action</text>
<text text-anchor="middle" x="733.76" y="-359.8" font-family="Times,serif" font-size="14.00" fill="white">CLEARMajor</text>
</a>
</g>
</g>
<!-- Above 1.5M&#45;&gt;Action
CLEARMajor -->
<g id="${uniqueid}_edge1" class="edge"><title>Above 1.5M:ne&#45;&gt;Action
CLEARMajor:w</title>
<path fill="none" stroke="black" d="M538.155,-250C539.149,-250.994 538.391,-251.821 539.155,-253 579.45,-315.171 589.326,-366.222 657.713,-370.683"/>
<polygon fill="black" stroke="black" points="657.655,-374.183 667.76,-371 657.875,-367.187 657.655,-374.183"/>
<text text-anchor="middle" x="519.155" y="-253.8" font-family="Times,serif" font-size="14.00">false</text>
</g>
<!-- Action SETMajor -->
<g id="${uniqueid}_node8" class="node"><title>Action SETMajor</title>
<g id="a_${uniqueid}_node8"><a xlink:href="#1405619666705" xlink:title="com.watch4net.alerting.action.SNMPTrapAction">
<ellipse fill="#4daf4a" stroke="black" cx="733.76" cy="-308" rx="83.6854" ry="18"/>
<text text-anchor="middle" x="733.76" y="-304.3" font-family="Times,serif" font-size="14.00" fill="white">Action SETMajor</text>
</a>
</g>
</g>
<!-- Above 1.5M&#45;&gt;Action SETMajor -->
<g id="${uniqueid}_edge3" class="edge"><title>Above 1.5M:se&#45;&gt;Action SETMajor:w</title>
<path fill="none" stroke="black" d="M540.155,-220C581.596,-178.559 586.213,-293.619 638.758,-306.786"/>
<polygon fill="black" stroke="black" points="638.411,-310.27 648.76,-308 639.254,-303.321 638.411,-310.27"/>
<text text-anchor="middle" x="524.655" y="-208.8" font-family="Times,serif" font-size="14.00">true</text>
</g>
<!-- Custom post&#45;
filter -->
<g id="${uniqueid}_node10" class="node"><title>Custom post&#45;
filter</title>
<g id="a_${uniqueid}_node10"><a xlink:href="#1436290926462" xlink:title="1435689668905">
<polygon fill="#e41a1c" stroke="black" points="787.26,-200 680.26,-200 680.26,-162 787.26,-162 787.26,-200"/>
<text text-anchor="middle" x="733.76" y="-184.8" font-family="Times,serif" font-size="14.00" fill="white">Custom post&#45;</text>
<text text-anchor="middle" x="733.76" y="-169.8" font-family="Times,serif" font-size="14.00" fill="white">filter</text>
</a>
</g>
</g>
<!-- Above 1.5M&#45;&gt;Custom post&#45;
filter -->
<g id="${uniqueid}_edge2" class="edge"><title>Above 1.5M:ne&#45;&gt;Custom post&#45;
filter:sw</title>
<path fill="none" stroke="black" d="M538.155,-250C539.149,-250.994 538.015,-252.178 539.155,-253 564.236,-271.077 580.91,-266.511 608.718,-253 651.538,-232.195 646.391,-142.002 673.626,-155.712"/>
<polygon fill="black" stroke="black" points="671.708,-158.653 681.76,-162 675.989,-153.115 671.708,-158.653"/>
<text text-anchor="middle" x="610.26" y="-150.8" font-family="Times,serif" font-size="14.00">1435689620024|entry</text>
</g>
<!-- Above 1.5M&#45;&gt;Custom post&#45;
filter -->
<g id="${uniqueid}_edge4" class="edge"><title>Above 1.5M:se&#45;&gt;Custom post&#45;
filter:nw</title>
<path fill="none" stroke="black" d="M540.155,-220C549.764,-210.391 639.36,-210.74 670.215,-203.776"/>
<polygon fill="black" stroke="black" points="671.749,-206.933 679.76,-200 669.174,-200.424 671.749,-206.933"/>
<text text-anchor="middle" x="751.26" y="-203.8" font-family="Times,serif" font-size="14.00">1435689616003|entry</text>
</g>
<!-- Above 1M -->
<g id="${uniqueid}_node2" class="node"><title>Above 1M</title>
<g id="a_${uniqueid}_node2"><a xlink:href="#1405619384840" xlink:title="com.watch4net.alerting.operation.comparator.ConstantComparatorOperation">
<polygon fill="#ff7f00" stroke="black" points="524.155,-199 453.604,-181 524.155,-163 594.706,-181 524.155,-199"/>
<text text-anchor="middle" x="524.155" y="-177.3" font-family="Times,serif" font-size="14.00" fill="white">Above 1M</text>
</a>
</g>
</g>
<!-- Action
CLEARMinor -->
<g id="${uniqueid}_node5" class="node"><title>Action
CLEARMinor</title>
<g id="a_${uniqueid}_node5"><a xlink:href="#1405619904412" xlink:title="com.watch4net.alerting.action.SNMPTrapAction">
<ellipse fill="#4daf4a" stroke="black" cx="733.76" cy="-245" rx="65.1077" ry="26.7407"/>
<text text-anchor="middle" x="733.76" y="-248.8" font-family="Times,serif" font-size="14.00" fill="white">Action</text>
<text text-anchor="middle" x="733.76" y="-233.8" font-family="Times,serif" font-size="14.00" fill="white">CLEARMinor</text>
</a>
</g>
</g>
<!-- Above 1M&#45;&gt;Action
CLEARMinor -->
<g id="${uniqueid}_edge5" class="edge"><title>Above 1M:ne&#45;&gt;Action
CLEARMinor:w</title>
<path fill="none" stroke="black" d="M537.155,-195C538.451,-196.296 536.785,-197.783 538.155,-199 561.791,-219.997 578.948,-197.358 608.718,-208 634.347,-217.162 636.612,-238.801 657.809,-243.907"/>
<polygon fill="black" stroke="black" points="657.437,-247.387 667.76,-245 658.202,-240.429 657.437,-247.387"/>
<text text-anchor="middle" x="518.155" y="-198.8" font-family="Times,serif" font-size="14.00">false</text>
</g>
<!-- Action SETMinor -->
<g id="${uniqueid}_node9" class="node"><title>Action SETMinor</title>
<g id="a_${uniqueid}_node9"><a xlink:href="#1405619858617" xlink:title="com.watch4net.alerting.action.SNMPTrapAction">
<ellipse fill="#4daf4a" stroke="black" cx="733.76" cy="-126" rx="83.6854" ry="18"/>
<text text-anchor="middle" x="733.76" y="-122.3" font-family="Times,serif" font-size="14.00" fill="white">Action SETMinor</text>
</a>
</g>
</g>
<!-- Above 1M&#45;&gt;Action SETMinor -->
<g id="${uniqueid}_edge7" class="edge"><title>Above 1M:se&#45;&gt;Action SETMinor:w</title>
<path fill="none" stroke="black" d="M539.155,-167C561.395,-144.76 579.718,-166.175 608.718,-154 624.986,-147.17 626.917,-132.954 638.716,-127.864"/>
<polygon fill="black" stroke="black" points="639.566,-131.266 648.76,-126 638.289,-124.383 639.566,-131.266"/>
<text text-anchor="middle" x="523.655" y="-155.8" font-family="Times,serif" font-size="14.00">true</text>
</g>
<!-- Above 1M&#45;&gt;Custom post&#45;
filter -->
<g id="${uniqueid}_edge6" class="edge"><title>Above 1M:ne&#45;&gt;Custom post&#45;
filter:sw</title>
<path fill="none" stroke="black" d="M537.155,-195C538.451,-196.296 536.711,-197.872 538.155,-199 558.044,-214.529 570.223,-204.126 594.93,-199 632.154,-191.277 648.861,-142.803 673.743,-155.859"/>
<polygon fill="black" stroke="black" points="671.693,-158.698 681.76,-162 675.95,-153.14 671.693,-158.698"/>
</g>
<!-- Above 1M&#45;&gt;Custom post&#45;
filter -->
<g id="${uniqueid}_edge8" class="edge"><title>Above 1M:se&#45;&gt;Custom post&#45;
filter:nw</title>
<path fill="none" stroke="black" d="M539.155,-167C559.456,-146.699 637.788,-207.284 670.329,-204.045"/>
<polygon fill="black" stroke="black" points="671.949,-207.158 679.76,-200 669.19,-200.725 671.949,-207.158"/>
</g>
<!-- Above 500k -->
<g id="${uniqueid}_node3" class="node"><title>Above 500k</title>
<g id="a_${uniqueid}_node3"><a xlink:href="#1405619403197" xlink:title="com.watch4net.alerting.operation.comparator.ConstantComparatorOperation">
<polygon fill="#ff7f00" stroke="black" points="524.155,-145 439.53,-127 524.155,-109 608.78,-127 524.155,-145"/>
<text text-anchor="middle" x="524.155" y="-123.3" font-family="Times,serif" font-size="14.00" fill="white">Above 500k</text>
</a>
</g>
</g>
<!-- Action CLEARInfo -->
<g id="${uniqueid}_node6" class="node"><title>Action CLEARInfo</title>
<g id="a_${uniqueid}_node6"><a xlink:href="#1405620027695" xlink:title="com.watch4net.alerting.action.SNMPTrapAction">
<ellipse fill="#4daf4a" stroke="black" cx="733.76" cy="-72" rx="89.0842" ry="18"/>
<text text-anchor="middle" x="733.76" y="-68.3" font-family="Times,serif" font-size="14.00" fill="white">Action CLEARInfo</text>
</a>
</g>
</g>
<!-- Above 500k&#45;&gt;Action CLEARInfo -->
<g id="${uniqueid}_edge9" class="edge"><title>Above 500k:ne&#45;&gt;Action CLEARInfo:w</title>
<path fill="none" stroke="black" d="M538.155,-142C539.149,-142.994 538.015,-144.178 539.155,-145 551.696,-154.039 595.591,-153.163 608.718,-145 635.958,-128.061 614.752,-83.7646 634.819,-73.946"/>
<polygon fill="black" stroke="black" points="635.581,-77.3633 644.718,-72 634.23,-70.4948 635.581,-77.3633"/>
<text text-anchor="middle" x="519.155" y="-145.8" font-family="Times,serif" font-size="14.00">false</text>
</g>
<!-- Action SETInfo -->
<g id="${uniqueid}_node7" class="node"><title>Action SETInfo</title>
<g id="a_${uniqueid}_node7"><a xlink:href="#1405619936013" xlink:title="com.watch4net.alerting.action.SNMPTrapAction">
<ellipse fill="#4daf4a" stroke="black" cx="733.76" cy="-18" rx="79.0865" ry="18"/>
<text text-anchor="middle" x="733.76" y="-14.3" font-family="Times,serif" font-size="14.00" fill="white">Action SETInfo</text>
</a>
</g>
</g>
<!-- Above 500k&#45;&gt;Action SETInfo -->
<g id="${uniqueid}_edge11" class="edge"><title>Above 500k:se&#45;&gt;Action SETInfo:w</title>
<path fill="none" stroke="black" d="M540.155,-112C583.732,-68.4231 587.29,-23.2339 642.62,-18.4217"/>
<polygon fill="black" stroke="black" points="642.914,-21.9125 652.76,-18 642.623,-14.9186 642.914,-21.9125"/>
<text text-anchor="middle" x="524.655" y="-100.8" font-family="Times,serif" font-size="14.00">true</text>
</g>
<!-- Above 500k&#45;&gt;Custom post&#45;
filter -->
<g id="${uniqueid}_edge10" class="edge"><title>Above 500k:ne&#45;&gt;Custom post&#45;
filter:sw</title>
<path fill="none" stroke="black" d="M538.155,-142C539.149,-142.994 538.066,-144.112 539.155,-145 549.882,-153.742 640.76,-151.621 672.069,-158.262"/>
<polygon fill="black" stroke="black" points="671.17,-161.667 681.76,-162 673.689,-155.136 671.17,-161.667"/>
</g>
<!-- Above 500k&#45;&gt;Custom post&#45;
filter -->
<g id="${uniqueid}_edge12" class="edge"><title>Above 500k:se&#45;&gt;Custom post&#45;
filter:nw</title>
<path fill="none" stroke="black" d="M540.155,-112C589.283,-62.8724 624.069,-232.319 671.684,-206.244"/>
<polygon fill="black" stroke="black" points="673.989,-208.886 679.76,-200 669.708,-203.348 673.989,-208.886"/>
</g>
<!-- Custom pre&#45;
filter -->
<g id="${uniqueid}_node11" class="node"><title>Custom pre&#45;
filter</title>
<g id="a_${uniqueid}_node11"><a xlink:href="#1436290914907" xlink:title="1435689654812">
<polygon fill="#e41a1c" stroke="black" points="215.593,-200 116.593,-200 116.593,-162 215.593,-162 215.593,-200"/>
<text text-anchor="middle" x="166.093" y="-184.8" font-family="Times,serif" font-size="14.00" fill="white">Custom pre&#45;</text>
<text text-anchor="middle" x="166.093" y="-169.8" font-family="Times,serif" font-size="14.00" fill="white">filter</text>
</a>
</g>
</g>
<!-- Refine -->
<g id="${uniqueid}_node13" class="node"><title>Refine</title>
<g id="a_${uniqueid}_node13"><a xlink:href="#1428413956441" xlink:title="com.watch4net.alerting.operation.RefineFilterOperation">
<polygon fill="#377eb8" stroke="black" points="313.593,-199 251.593,-199 251.593,-163 313.593,-163 313.593,-199"/>
<text text-anchor="middle" x="282.593" y="-177.3" font-family="Times,serif" font-size="14.00" fill="white">Refine</text>
</a>
</g>
</g>
<!-- Custom pre&#45;
filter&#45;&gt;Refine -->
<g id="${uniqueid}_edge13" class="edge"><title>Custom pre&#45;
filter:e&#45;&gt;Refine:w</title>
<path fill="none" stroke="black" d="M215.593,-181C227.593,-181 232.843,-181 241.468,-181"/>
<polygon fill="black" stroke="black" points="241.593,-184.5 251.593,-181 241.593,-177.5 241.593,-184.5"/>
</g>
<!-- Filter -->
<g id="${uniqueid}_node12" class="node"><title>Filter</title>
<g id="a_${uniqueid}_node12"><a xlink:href="#1405619053323" xlink:title="com.watch4net.alerting.operation.FilteredEntryPoint">
<ellipse fill="#984ea3" stroke="black" cx="40.2964" cy="-181" rx="40.0939" ry="18"/>
<text text-anchor="middle" x="40.2964" y="-177.3" font-family="Times,serif" font-size="14.00" fill="white">Filter</text>
</a>
</g>
</g>
<!-- Filter&#45;&gt;Custom pre&#45;
filter -->
<g id="${uniqueid}_edge14" class="edge"><title>Filter:e&#45;&gt;Custom pre&#45;
filter:w</title>
<path fill="none" stroke="black" d="M80.5928,-181C92.5928,-181 97.8428,-181 106.468,-181"/>
<polygon fill="black" stroke="black" points="106.593,-184.5 116.593,-181 106.593,-177.5 106.593,-184.5"/>
</g>
<!-- case -->
<g id="${uniqueid}_node14" class="node"><title>case</title>
<g id="a_${uniqueid}_node14"><a xlink:href="#1405619338615" xlink:title="com.watch4net.alerting.operation.CaseOperation">
<polygon fill="#377eb8" stroke="black" points="403.593,-199 349.593,-199 349.593,-163 403.593,-163 403.593,-199"/>
<text text-anchor="middle" x="376.593" y="-177.3" font-family="Times,serif" font-size="14.00" fill="white">case</text>
</a>
</g>
</g>
<!-- Refine&#45;&gt;case -->
<g id="${uniqueid}_edge15" class="edge"><title>Refine:e&#45;&gt;case:w</title>
<path fill="none" stroke="black" d="M313.593,-181C325.593,-181 330.843,-181 339.468,-181"/>
<polygon fill="black" stroke="black" points="339.593,-184.5 349.593,-181 339.593,-177.5 339.593,-184.5"/>
</g>
<!-- case&#45;&gt;Above 1.5M -->
<g id="${uniqueid}_edge16" class="edge"><title>case:e&#45;&gt;Above 1.5M:w</title>
<path fill="none" stroke="black" d="M403.593,-181C428.156,-181 416.074,-220.159 429.758,-231.784"/>
<polygon fill="black" stroke="black" points="429,-235.218 439.593,-235 431.176,-228.565 429,-235.218"/>
</g>
<!-- case&#45;&gt;Above 1M -->
<g id="${uniqueid}_edge17" class="edge"><title>case:e&#45;&gt;Above 1M:w</title>
<path fill="none" stroke="black" d="M403.593,-181C421.298,-181 428.11,-181 441.901,-181"/>
<polygon fill="black" stroke="black" points="442.155,-184.5 452.155,-181 442.155,-177.5 442.155,-184.5"/>
</g>
<!-- case&#45;&gt;Above 500k -->
<g id="${uniqueid}_edge18" class="edge"><title>case:e&#45;&gt;Above 500k:w</title>
<path fill="none" stroke="black" d="M403.593,-181C428.156,-181 416.074,-141.841 429.758,-130.216"/>
<polygon fill="black" stroke="black" points="431.176,-133.435 439.593,-127 429,-126.782 431.176,-133.435"/>
</g>
</g>
</svg>
