<?xml version="1.0" encoding="UTF-8" standalone="no"?>
<!DOCTYPE svg PUBLIC "-//W3C//DTD SVG 1.1//EN"
 "http://www.w3.org/Graphics/SVG/1.1/DTD/svg11.dtd">
<!-- Generated by graphviz version 2.38.0 (20140413.2041)
 -->
<!-- Title: EMC Centera Alert Definitions/Centera&#45;Node/Utilization Pages: 1 -->
<svg width="1238pt" height="586pt"
 viewBox="0.00 0.00 1237.95 585.74" xmlns="http://www.w3.org/2000/svg" xmlns:xlink="http://www.w3.org/1999/xlink">
<g id="${uniqueid}" class="graph" transform="scale(1 1) rotate(0) translate(4 581.74)">
<title>EMC Centera Alert Definitions/Centera&#45;Node/Utilization</title>
<polygon fill="white" stroke="none" points="-4,4 -4,-581.74 1233.95,-581.74 1233.95,4 -4,4"/>
<!-- NodeCapacity
entry -->
<g id="${uniqueid}_node1" class="node"><title>NodeCapacity
entry</title>
<g id="a_${uniqueid}_node1"><a xlink:href="#353199926829965" xlink:title="com.watch4net.alerting.operation.FilteredEntryPoint">
<ellipse fill="#984ea3" stroke="black" cx="109.602" cy="-334.87" rx="84.2917" ry="26.7407"/>
<text text-anchor="middle" x="109.602" y="-338.67" font-family="Times,serif" font-size="14.00" fill="white">NodeCapacity</text>
<text text-anchor="middle" x="109.602" y="-323.67" font-family="Times,serif" font-size="14.00" fill="white">entry</text>
</a>
</g>
</g>
<!-- Ratio -->
<g id="${uniqueid}_node17" class="node"><title>Ratio</title>
<g id="a_${uniqueid}_node17"><a xlink:href="#353199926611346" xlink:title="com.watch4net.alerting.operation.arithmetic.DataArithmeticOperation">
<polygon fill="#377eb8" stroke="black" points="309.203,-316.87 255.203,-316.87 255.203,-280.87 309.203,-280.87 309.203,-316.87"/>
<text text-anchor="middle" x="282.203" y="-295.17" font-family="Times,serif" font-size="14.00" fill="white">Ratio</text>
</a>
</g>
</g>
<!-- NodeCapacity
entry&#45;&gt;Ratio -->
<g id="${uniqueid}_edge1" class="edge"><title>NodeCapacity
entry:e&#45;&gt;Ratio:w</title>
<path fill="none" stroke="black" d="M194.602,-334.87C222.136,-334.87 223.883,-307.061 245.172,-300.326"/>
<polygon fill="black" stroke="black" points="245.81,-303.77 255.203,-298.87 244.804,-296.843 245.81,-303.77"/>
</g>
<!-- NodeUsedCapacity
entry -->
<g id="${uniqueid}_node2" class="node"><title>NodeUsedCapacity
entry</title>
<g id="a_${uniqueid}_node2"><a xlink:href="#353199926565239" xlink:title="com.watch4net.alerting.operation.FilteredEntryPoint">
<ellipse fill="#984ea3" stroke="black" cx="109.602" cy="-262.87" rx="109.703" ry="26.7407"/>
<text text-anchor="middle" x="109.602" y="-266.67" font-family="Times,serif" font-size="14.00" fill="white">NodeUsedCapacity</text>
<text text-anchor="middle" x="109.602" y="-251.67" font-family="Times,serif" font-size="14.00" fill="white">entry</text>
</a>
</g>
</g>
<!-- NodeUsedCapacity
entry&#45;&gt;Ratio -->
<g id="${uniqueid}_edge2" class="edge"><title>NodeUsedCapacity
entry:e&#45;&gt;Ratio:w</title>
<path fill="none" stroke="black" d="M219.203,-262.87C237.588,-262.87 234.925,-286.636 245.417,-295.548"/>
<polygon fill="black" stroke="black" points="244.609,-298.969 255.203,-298.87 246.859,-292.341 244.609,-298.969"/>
</g>
<!-- NodeUtilization
Info check -->
<g id="${uniqueid}_node3" class="node"><title>NodeUtilization
Info check</title>
<g id="a_${uniqueid}_node3"><a xlink:href="#353199926734679" xlink:title="com.watch4net.alerting.operation.comparator.ConstantComparatorOperation">
<polygon fill="#ff7f00" stroke="black" points="871.203,-546.87 742.203,-508.87 871.203,-470.87 1000.2,-508.87 871.203,-546.87"/>
<text text-anchor="middle" x="871.203" y="-512.67" font-family="Times,serif" font-size="14.00" fill="white">NodeUtilization</text>
<text text-anchor="middle" x="871.203" y="-497.67" font-family="Times,serif" font-size="14.00" fill="white">Info check</text>
</a>
</g>
</g>
<!-- NodeUtilization_
INFOClearTrap -->
<g id="${uniqueid}_node10" class="node"><title>NodeUtilization_
INFOClearTrap</title>
<g id="a_${uniqueid}_node10"><a xlink:href="#353199926763210" xlink:title="com.watch4net.alerting.action.SNMPTrapAction">
<ellipse fill="#4daf4a" stroke="black" cx="1133.08" cy="-550.87" rx="96.7474" ry="26.7407"/>
<text text-anchor="middle" x="1133.08" y="-554.67" font-family="Times,serif" font-size="14.00" fill="white">NodeUtilization_</text>
<text text-anchor="middle" x="1133.08" y="-539.67" font-family="Times,serif" font-size="14.00" fill="white">INFOClearTrap</text>
</a>
</g>
</g>
<!-- NodeUtilization
Info check&#45;&gt;NodeUtilization_
INFOClearTrap -->
<g id="${uniqueid}_edge3" class="edge"><title>NodeUtilization
Info check:ne&#45;&gt;NodeUtilization_
INFOClearTrap:w</title>
<path fill="none" stroke="black" d="M900.203,-538.87C902.737,-541.404 898.552,-544.459 901.203,-546.87 943.008,-584.891 972.547,-554.871 1025.95,-551.222"/>
<polygon fill="black" stroke="black" points="1026.33,-554.711 1036.2,-550.87 1026.09,-547.715 1026.33,-554.711"/>
<text text-anchor="middle" x="883.203" y="-542.67" font-family="Times,serif" font-size="14.00">false</text>
</g>
<!-- NodeUtilization_
INFOTrap -->
<g id="${uniqueid}_node11" class="node"><title>NodeUtilization_
INFOTrap</title>
<g id="a_${uniqueid}_node11"><a xlink:href="#353199926747017" xlink:title="com.watch4net.alerting.action.SNMPTrapAction">
<ellipse fill="#4daf4a" stroke="black" cx="1133.08" cy="-478.87" rx="96.7474" ry="26.7407"/>
<text text-anchor="middle" x="1133.08" y="-482.67" font-family="Times,serif" font-size="14.00" fill="white">NodeUtilization_</text>
<text text-anchor="middle" x="1133.08" y="-467.67" font-family="Times,serif" font-size="14.00" fill="white">INFOTrap</text>
</a>
</g>
</g>
<!-- NodeUtilization
Info check&#45;&gt;NodeUtilization_
INFOTrap -->
<g id="${uniqueid}_edge4" class="edge"><title>NodeUtilization
Info check:se&#45;&gt;NodeUtilization_
INFOTrap:w</title>
<path fill="none" stroke="black" d="M902.203,-478.87C941.848,-439.225 972.825,-474.224 1026.01,-478.462"/>
<polygon fill="black" stroke="black" points="1026.07,-481.967 1036.2,-478.87 1026.35,-474.973 1026.07,-481.967"/>
<text text-anchor="middle" x="886.703" y="-467.67" font-family="Times,serif" font-size="14.00">true</text>
</g>
<!-- NodeUtilization
Major check -->
<g id="${uniqueid}_node4" class="node"><title>NodeUtilization
Major check</title>
<g id="a_${uniqueid}_node4"><a xlink:href="#353199926649656" xlink:title="com.watch4net.alerting.operation.comparator.ConstantComparatorOperation">
<polygon fill="#ff7f00" stroke="black" points="871.203,-402.87 742.203,-364.87 871.203,-326.87 1000.2,-364.87 871.203,-402.87"/>
<text text-anchor="middle" x="871.203" y="-368.67" font-family="Times,serif" font-size="14.00" fill="white">NodeUtilization</text>
<text text-anchor="middle" x="871.203" y="-353.67" font-family="Times,serif" font-size="14.00" fill="white">Major check</text>
</a>
</g>
</g>
<!-- NodeUtilization_
MajorClearTrap -->
<g id="${uniqueid}_node12" class="node"><title>NodeUtilization_
MajorClearTrap</title>
<g id="a_${uniqueid}_node12"><a xlink:href="#353199926682885" xlink:title="com.watch4net.alerting.action.SNMPTrapAction">
<ellipse fill="#4daf4a" stroke="black" cx="1133.08" cy="-406.87" rx="96.7474" ry="26.7407"/>
<text text-anchor="middle" x="1133.08" y="-410.67" font-family="Times,serif" font-size="14.00" fill="white">NodeUtilization_</text>
<text text-anchor="middle" x="1133.08" y="-395.67" font-family="Times,serif" font-size="14.00" fill="white">MajorClearTrap</text>
</a>
</g>
</g>
<!-- NodeUtilization
Major check&#45;&gt;NodeUtilization_
MajorClearTrap -->
<g id="${uniqueid}_edge5" class="edge"><title>NodeUtilization
Major check:ne&#45;&gt;NodeUtilization_
MajorClearTrap:w</title>
<path fill="none" stroke="black" d="M900.203,-394.87C902.737,-397.404 898.552,-400.459 901.203,-402.87 943.008,-440.891 972.547,-410.871 1025.95,-407.222"/>
<polygon fill="black" stroke="black" points="1026.33,-410.711 1036.2,-406.87 1026.09,-403.715 1026.33,-410.711"/>
<text text-anchor="middle" x="883.203" y="-398.67" font-family="Times,serif" font-size="14.00">false</text>
</g>
<!-- NodeUtilization_
MajorTrap -->
<g id="${uniqueid}_node13" class="node"><title>NodeUtilization_
MajorTrap</title>
<g id="a_${uniqueid}_node13"><a xlink:href="#353199926661255" xlink:title="com.watch4net.alerting.action.SNMPTrapAction">
<ellipse fill="#4daf4a" stroke="black" cx="1133.08" cy="-334.87" rx="96.7474" ry="26.7407"/>
<text text-anchor="middle" x="1133.08" y="-338.67" font-family="Times,serif" font-size="14.00" fill="white">NodeUtilization_</text>
<text text-anchor="middle" x="1133.08" y="-323.67" font-family="Times,serif" font-size="14.00" fill="white">MajorTrap</text>
</a>
</g>
</g>
<!-- NodeUtilization
Major check&#45;&gt;NodeUtilization_
MajorTrap -->
<g id="${uniqueid}_edge6" class="edge"><title>NodeUtilization
Major check:se&#45;&gt;NodeUtilization_
MajorTrap:w</title>
<path fill="none" stroke="black" d="M902.203,-334.87C941.848,-295.225 972.825,-330.224 1026.01,-334.462"/>
<polygon fill="black" stroke="black" points="1026.07,-337.967 1036.2,-334.87 1026.35,-330.973 1026.07,-337.967"/>
<text text-anchor="middle" x="886.703" y="-323.67" font-family="Times,serif" font-size="14.00">true</text>
</g>
<!-- NodeUtilization
Minor check -->
<g id="${uniqueid}_node5" class="node"><title>NodeUtilization
Minor check</title>
<g id="a_${uniqueid}_node5"><a xlink:href="#353199926696440" xlink:title="com.watch4net.alerting.operation.comparator.ConstantComparatorOperation">
<polygon fill="#ff7f00" stroke="black" points="871.203,-270.87 742.203,-232.87 871.203,-194.87 1000.2,-232.87 871.203,-270.87"/>
<text text-anchor="middle" x="871.203" y="-236.67" font-family="Times,serif" font-size="14.00" fill="white">NodeUtilization</text>
<text text-anchor="middle" x="871.203" y="-221.67" font-family="Times,serif" font-size="14.00" fill="white">Minor check</text>
</a>
</g>
</g>
<!-- NodeUtilization_
MinorClearTrap -->
<g id="${uniqueid}_node14" class="node"><title>NodeUtilization_
MinorClearTrap</title>
<g id="a_${uniqueid}_node14"><a xlink:href="#353199926720733" xlink:title="com.watch4net.alerting.action.SNMPTrapAction">
<ellipse fill="#4daf4a" stroke="black" cx="1133.08" cy="-262.87" rx="96.7474" ry="26.7407"/>
<text text-anchor="middle" x="1133.08" y="-266.67" font-family="Times,serif" font-size="14.00" fill="white">NodeUtilization_</text>
<text text-anchor="middle" x="1133.08" y="-251.67" font-family="Times,serif" font-size="14.00" fill="white">MinorClearTrap</text>
</a>
</g>
</g>
<!-- NodeUtilization
Minor check&#45;&gt;NodeUtilization_
MinorClearTrap -->
<g id="${uniqueid}_edge7" class="edge"><title>NodeUtilization
Minor check:ne&#45;&gt;NodeUtilization_
MinorClearTrap:w</title>
<path fill="none" stroke="black" d="M900.203,-262.87C902.737,-265.404 898.517,-268.499 901.203,-270.87 934.189,-299.989 956.466,-275.671 1000.2,-270.87 1012.55,-269.515 1017.44,-265.619 1026.22,-263.812"/>
<polygon fill="black" stroke="black" points="1026.58,-267.294 1036.2,-262.87 1025.92,-260.325 1026.58,-267.294"/>
<text text-anchor="middle" x="883.203" y="-266.67" font-family="Times,serif" font-size="14.00">false</text>
</g>
<!-- NodeUtilization_
MinorTrap -->
<g id="${uniqueid}_node15" class="node"><title>NodeUtilization_
MinorTrap</title>
<g id="a_${uniqueid}_node15"><a xlink:href="#353199926707089" xlink:title="com.watch4net.alerting.action.SNMPTrapAction">
<ellipse fill="#4daf4a" stroke="black" cx="1133.08" cy="-190.87" rx="96.7474" ry="26.7407"/>
<text text-anchor="middle" x="1133.08" y="-194.67" font-family="Times,serif" font-size="14.00" fill="white">NodeUtilization_</text>
<text text-anchor="middle" x="1133.08" y="-179.67" font-family="Times,serif" font-size="14.00" fill="white">MinorTrap</text>
</a>
</g>
</g>
<!-- NodeUtilization
Minor check&#45;&gt;NodeUtilization_
MinorTrap -->
<g id="${uniqueid}_edge8" class="edge"><title>NodeUtilization
Minor check:se&#45;&gt;NodeUtilization_
MinorTrap:w</title>
<path fill="none" stroke="black" d="M902.203,-202.87C942.006,-163.067 972.632,-187.571 1025.97,-190.579"/>
<polygon fill="black" stroke="black" points="1026.11,-194.084 1036.2,-190.87 1026.31,-187.087 1026.11,-194.084"/>
<text text-anchor="middle" x="886.703" y="-191.67" font-family="Times,serif" font-size="14.00">true</text>
</g>
<!-- NodeUtilization
case -->
<g id="${uniqueid}_node6" class="node"><title>NodeUtilization
case</title>
<g id="a_${uniqueid}_node6"><a xlink:href="#353199926641600" xlink:title="com.watch4net.alerting.operation.CaseOperation">
<polygon fill="#377eb8" stroke="black" points="706.203,-317.87 577.203,-317.87 577.203,-279.87 706.203,-279.87 706.203,-317.87"/>
<text text-anchor="middle" x="641.703" y="-302.67" font-family="Times,serif" font-size="14.00" fill="white">NodeUtilization</text>
<text text-anchor="middle" x="641.703" y="-287.67" font-family="Times,serif" font-size="14.00" fill="white">case</text>
</a>
</g>
</g>
<!-- NodeUtilization
case&#45;&gt;NodeUtilization
Info check -->
<g id="${uniqueid}_edge9" class="edge"><title>NodeUtilization
case:e&#45;&gt;NodeUtilization
Info check:w</title>
<path fill="none" stroke="black" d="M706.203,-298.87C797.199,-298.87 659.113,-492.784 732.212,-507.934"/>
<polygon fill="black" stroke="black" points="731.92,-511.422 742.203,-508.87 732.573,-504.452 731.92,-511.422"/>
</g>
<!-- NodeUtilization
case&#45;&gt;NodeUtilization
Major check -->
<g id="${uniqueid}_edge10" class="edge"><title>NodeUtilization
case:e&#45;&gt;NodeUtilization
Major check:w</title>
<path fill="none" stroke="black" d="M706.203,-298.87C735.44,-298.87 715.493,-349.401 732.433,-362.034"/>
<polygon fill="black" stroke="black" points="731.624,-365.444 742.203,-364.87 733.575,-358.721 731.624,-365.444"/>
</g>
<!-- NodeUtilization
case&#45;&gt;NodeUtilization
Minor check -->
<g id="${uniqueid}_edge11" class="edge"><title>NodeUtilization
case:e&#45;&gt;NodeUtilization
Minor check:w</title>
<path fill="none" stroke="black" d="M706.203,-298.87C735.44,-298.87 715.493,-248.339 732.433,-235.706"/>
<polygon fill="black" stroke="black" points="733.575,-239.019 742.203,-232.87 731.624,-232.297 733.575,-239.019"/>
</g>
<!-- NodeUtilization
critical check -->
<g id="${uniqueid}_node7" class="node"><title>NodeUtilization
critical check</title>
<g id="a_${uniqueid}_node7"><a xlink:href="#353199926780098" xlink:title="com.watch4net.alerting.operation.comparator.ConstantComparatorOperation">
<polygon fill="#ff7f00" stroke="black" points="871.203,-116.87 742.203,-78.8701 871.203,-40.8701 1000.2,-78.8701 871.203,-116.87"/>
<text text-anchor="middle" x="871.203" y="-82.6701" font-family="Times,serif" font-size="14.00" fill="white">NodeUtilization</text>
<text text-anchor="middle" x="871.203" y="-67.6701" font-family="Times,serif" font-size="14.00" fill="white">critical check</text>
</a>
</g>
</g>
<!-- NodeUtilization
case&#45;&gt;NodeUtilization
critical check -->
<g id="${uniqueid}_edge12" class="edge"><title>NodeUtilization
case:e&#45;&gt;NodeUtilization
critical check:w</title>
<path fill="none" stroke="black" d="M706.203,-298.87C801.605,-298.87 654.8,-94.8952 732.225,-79.7565"/>
<polygon fill="black" stroke="black" points="732.552,-83.2413 742.203,-78.8701 731.933,-76.2688 732.552,-83.2413"/>
</g>
<!-- NodeUtilization_
CriticalClear
Trap -->
<g id="${uniqueid}_node8" class="node"><title>NodeUtilization_
CriticalClear
Trap</title>
<g id="a_${uniqueid}_node8"><a xlink:href="#353199926806732" xlink:title="com.watch4net.alerting.action.SNMPTrapAction">
<ellipse fill="#4daf4a" stroke="black" cx="1133.08" cy="-108.87" rx="96.7474" ry="37.4533"/>
<text text-anchor="middle" x="1133.08" y="-120.17" font-family="Times,serif" font-size="14.00" fill="white">NodeUtilization_</text>
<text text-anchor="middle" x="1133.08" y="-105.17" font-family="Times,serif" font-size="14.00" fill="white">CriticalClear</text>
<text text-anchor="middle" x="1133.08" y="-90.1701" font-family="Times,serif" font-size="14.00" fill="white">Trap</text>
</a>
</g>
</g>
<!-- NodeUtilization
critical check&#45;&gt;NodeUtilization_
CriticalClear
Trap -->
<g id="${uniqueid}_edge13" class="edge"><title>NodeUtilization
critical check:ne&#45;&gt;NodeUtilization_
CriticalClear
Trap:w</title>
<path fill="none" stroke="black" d="M900.203,-108.87C902.737,-111.404 898.517,-114.499 901.203,-116.87 934.189,-145.989 956.466,-121.671 1000.2,-116.87 1012.55,-115.515 1017.44,-111.619 1026.22,-109.812"/>
<polygon fill="black" stroke="black" points="1026.58,-113.294 1036.2,-108.87 1025.92,-106.325 1026.58,-113.294"/>
<text text-anchor="middle" x="883.203" y="-112.67" font-family="Times,serif" font-size="14.00">false</text>
</g>
<!-- NodeUtilization_
CriticalTrap -->
<g id="${uniqueid}_node9" class="node"><title>NodeUtilization_
CriticalTrap</title>
<g id="a_${uniqueid}_node9"><a xlink:href="#353199926791845" xlink:title="com.watch4net.alerting.action.SNMPTrapAction">
<ellipse fill="#4daf4a" stroke="black" cx="1133.08" cy="-26.8701" rx="96.7474" ry="26.7407"/>
<text text-anchor="middle" x="1133.08" y="-30.6701" font-family="Times,serif" font-size="14.00" fill="white">NodeUtilization_</text>
<text text-anchor="middle" x="1133.08" y="-15.6701" font-family="Times,serif" font-size="14.00" fill="white">CriticalTrap</text>
</a>
</g>
</g>
<!-- NodeUtilization
critical check&#45;&gt;NodeUtilization_
CriticalTrap -->
<g id="${uniqueid}_edge14" class="edge"><title>NodeUtilization
critical check:se&#45;&gt;NodeUtilization_
CriticalTrap:w</title>
<path fill="none" stroke="black" d="M902.203,-48.8701C942.378,-8.69468 972.181,-24.6646 1025.89,-26.674"/>
<polygon fill="black" stroke="black" points="1026.14,-30.1793 1036.2,-26.8701 1026.27,-23.1806 1026.14,-30.1793"/>
<text text-anchor="middle" x="886.703" y="-37.6701" font-family="Times,serif" font-size="14.00">true</text>
</g>
<!-- Percentage -->
<g id="${uniqueid}_node16" class="node"><title>Percentage</title>
<g id="a_${uniqueid}_node16"><a xlink:href="#353199926629734" xlink:title="com.watch4net.alerting.operation.arithmetic.ConstantArithmeticOperation">
<polygon fill="#377eb8" stroke="black" points="443.203,-316.87 345.203,-316.87 345.203,-280.87 443.203,-280.87 443.203,-316.87"/>
<text text-anchor="middle" x="394.203" y="-295.17" font-family="Times,serif" font-size="14.00" fill="white">Percentage</text>
</a>
</g>
</g>
<!-- Round -->
<g id="${uniqueid}_node18" class="node"><title>Round</title>
<g id="a_${uniqueid}_node18"><a xlink:href="#1441777028019" xlink:title="com.watch4net.alerting.operation.math.ConstantMathOperation">
<polygon fill="#377eb8" stroke="black" points="541.203,-316.87 479.203,-316.87 479.203,-280.87 541.203,-280.87 541.203,-316.87"/>
<text text-anchor="middle" x="510.203" y="-295.17" font-family="Times,serif" font-size="14.00" fill="white">Round</text>
</a>
</g>
</g>
<!-- Percentage&#45;&gt;Round -->
<g id="${uniqueid}_edge15" class="edge"><title>Percentage:e&#45;&gt;Round:w</title>
<path fill="none" stroke="black" d="M443.203,-298.87C455.203,-298.87 460.453,-298.87 469.078,-298.87"/>
<polygon fill="black" stroke="black" points="469.203,-302.37 479.203,-298.87 469.203,-295.37 469.203,-302.37"/>
</g>
<!-- Ratio&#45;&gt;Percentage -->
<g id="${uniqueid}_edge16" class="edge"><title>Ratio:e&#45;&gt;Percentage:w</title>
<path fill="none" stroke="black" d="M309.203,-298.87C321.203,-298.87 326.453,-298.87 335.078,-298.87"/>
<polygon fill="black" stroke="black" points="335.203,-302.37 345.203,-298.87 335.203,-295.37 335.203,-302.37"/>
</g>
<!-- Round&#45;&gt;NodeUtilization
case -->
<g id="${uniqueid}_edge17" class="edge"><title>Round:e&#45;&gt;NodeUtilization
case:w</title>
<path fill="none" stroke="black" d="M541.203,-298.87C553.203,-298.87 558.453,-298.87 567.078,-298.87"/>
<polygon fill="black" stroke="black" points="567.203,-302.37 577.203,-298.87 567.203,-295.37 567.203,-302.37"/>
</g>
</g>
</svg>
