<?xml version="1.0" encoding="UTF-8" standalone="no"?>
<!DOCTYPE svg PUBLIC "-//W3C//DTD SVG 1.1//EN"
 "http://www.w3.org/Graphics/SVG/1.1/DTD/svg11.dtd">
<!-- Generated by graphviz version 2.38.0 (20140413.2041)
 -->
<!-- Title: EMC VMAX Alert Definitions/VMAX&#45;Disk/High Read Throughput Pages: 1 -->
<svg width="942pt" height="374pt"
 viewBox="0.00 0.00 942.06 374.41" xmlns="http://www.w3.org/2000/svg" xmlns:xlink="http://www.w3.org/1999/xlink">
<g id="${uniqueid}" class="graph" transform="scale(1 1) rotate(0) translate(4 370.406)">
<title>EMC VMAX Alert Definitions/VMAX&#45;Disk/High Read Throughput</title>
<polygon fill="white" stroke="none" points="-4,4 -4,-370.406 938.065,-370.406 938.065,4 -4,4"/>
<!-- DiskHighRead
IORate_Cirt -->
<g id="${uniqueid}_node1" class="node"><title>DiskHighRead
IORate_Cirt</title>
<g id="a_${uniqueid}_node1"><a xlink:href="#2081322952841456" xlink:title="com.watch4net.alerting.operation.comparator.ConstantComparatorOperation">
<polygon fill="#ff7f00" stroke="black" points="542.783,-345.87 422.783,-307.87 542.783,-269.87 662.783,-307.87 542.783,-345.87"/>
<text text-anchor="middle" x="542.783" y="-311.67" font-family="Times,serif" font-size="14.00" fill="white">DiskHighRead</text>
<text text-anchor="middle" x="542.783" y="-296.67" font-family="Times,serif" font-size="14.00" fill="white">IORate_Cirt</text>
</a>
</g>
</g>
<!-- High_Read_IO_
Rate_Crit -->
<g id="${uniqueid}_node6" class="node"><title>High_Read_IO_
Rate_Crit</title>
<g id="a_${uniqueid}_node6"><a xlink:href="#2081322952857139" xlink:title="com.watch4net.alerting.action.SNMPTrapAction">
<ellipse fill="#4daf4a" stroke="black" cx="829.424" cy="-278.87" rx="90.5193" ry="26.7407"/>
<text text-anchor="middle" x="829.424" y="-282.67" font-family="Times,serif" font-size="14.00" fill="white">High_Read_IO_</text>
<text text-anchor="middle" x="829.424" y="-267.67" font-family="Times,serif" font-size="14.00" fill="white">Rate_Crit</text>
</a>
</g>
</g>
<!-- DiskHighRead
IORate_Cirt&#45;&gt;High_Read_IO_
Rate_Crit -->
<g id="${uniqueid}_edge2" class="edge"><title>DiskHighRead
IORate_Cirt:se&#45;&gt;High_Read_IO_
Rate_Crit:w</title>
<path fill="none" stroke="black" d="M572.783,-278.87C622.099,-229.554 660.5,-274.247 727.35,-278.545"/>
<polygon fill="black" stroke="black" points="727.316,-282.046 737.424,-278.87 727.542,-275.049 727.316,-282.046"/>
<text text-anchor="middle" x="557.283" y="-267.67" font-family="Times,serif" font-size="14.00">true</text>
</g>
<!-- SNMP_Clear_Crit -->
<g id="${uniqueid}_node9" class="node"><title>SNMP_Clear_Crit</title>
<g id="a_${uniqueid}_node9"><a xlink:href="#2081322952871090" xlink:title="com.watch4net.alerting.action.SNMPTrapAction">
<ellipse fill="#4daf4a" stroke="black" cx="829.424" cy="-341.87" rx="94.7833" ry="18"/>
<text text-anchor="middle" x="829.424" y="-338.17" font-family="Times,serif" font-size="14.00" fill="white">SNMP_Clear_Crit</text>
</a>
</g>
</g>
<!-- DiskHighRead
IORate_Cirt&#45;&gt;SNMP_Clear_Crit -->
<g id="${uniqueid}_edge1" class="edge"><title>DiskHighRead
IORate_Cirt:ne&#45;&gt;SNMP_Clear_Crit:w</title>
<path fill="none" stroke="black" d="M570.783,-336.87C573.629,-339.716 568.784,-343.186 571.783,-345.87 622.715,-391.456 657.982,-346.703 723.146,-342.224"/>
<polygon fill="black" stroke="black" points="723.55,-345.712 733.424,-341.87 723.309,-338.716 723.55,-345.712"/>
<text text-anchor="middle" x="553.783" y="-340.67" font-family="Times,serif" font-size="14.00">false</text>
</g>
<!-- DiskReadIORate -->
<g id="${uniqueid}_node2" class="node"><title>DiskReadIORate</title>
<g id="a_${uniqueid}_node2"><a xlink:href="#2081322952832589" xlink:title="com.watch4net.alerting.operation.CaseOperation">
<polygon fill="#377eb8" stroke="black" points="360.783,-201.87 225.783,-201.87 225.783,-165.87 360.783,-165.87 360.783,-201.87"/>
<text text-anchor="middle" x="293.283" y="-180.17" font-family="Times,serif" font-size="14.00" fill="white">DiskReadIORate</text>
</a>
</g>
</g>
<!-- DiskReadIORate&#45;&gt;DiskHighRead
IORate_Cirt -->
<g id="${uniqueid}_edge3" class="edge"><title>DiskReadIORate:e&#45;&gt;DiskHighRead
IORate_Cirt:w</title>
<path fill="none" stroke="black" d="M360.783,-183.87C418.363,-183.87 367.613,-292.854 411.651,-306.477"/>
<polygon fill="black" stroke="black" points="411.4,-309.976 421.783,-307.87 412.353,-303.041 411.4,-309.976"/>
</g>
<!-- HighReadIORate_
Major -->
<g id="${uniqueid}_node3" class="node"><title>HighReadIORate_
Major</title>
<g id="a_${uniqueid}_node3"><a xlink:href="#2081322952879989" xlink:title="com.watch4net.alerting.operation.comparator.ConstantComparatorOperation">
<polygon fill="#ff7f00" stroke="black" points="542.783,-221.87 396.783,-183.87 542.783,-145.87 688.783,-183.87 542.783,-221.87"/>
<text text-anchor="middle" x="542.783" y="-187.67" font-family="Times,serif" font-size="14.00" fill="white">HighReadIORate_</text>
<text text-anchor="middle" x="542.783" y="-172.67" font-family="Times,serif" font-size="14.00" fill="white">Major</text>
</a>
</g>
</g>
<!-- DiskReadIORate&#45;&gt;HighReadIORate_
Major -->
<g id="${uniqueid}_edge4" class="edge"><title>DiskReadIORate:e&#45;&gt;HighReadIORate_
Major:w</title>
<path fill="none" stroke="black" d="M360.783,-183.87C372.783,-183.87 378.033,-183.87 386.658,-183.87"/>
<polygon fill="black" stroke="black" points="386.783,-187.37 396.783,-183.87 386.783,-180.37 386.783,-187.37"/>
</g>
<!-- HighReadIORate_
Minor -->
<g id="${uniqueid}_node4" class="node"><title>HighReadIORate_
Minor</title>
<g id="a_${uniqueid}_node4"><a xlink:href="#2081322952911762" xlink:title="com.watch4net.alerting.operation.comparator.ConstantComparatorOperation">
<polygon fill="#ff7f00" stroke="black" points="542.783,-97.8701 396.783,-59.8701 542.783,-21.8701 688.783,-59.8701 542.783,-97.8701"/>
<text text-anchor="middle" x="542.783" y="-63.6701" font-family="Times,serif" font-size="14.00" fill="white">HighReadIORate_</text>
<text text-anchor="middle" x="542.783" y="-48.6701" font-family="Times,serif" font-size="14.00" fill="white">Minor</text>
</a>
</g>
</g>
<!-- DiskReadIORate&#45;&gt;HighReadIORate_
Minor -->
<g id="${uniqueid}_edge5" class="edge"><title>DiskReadIORate:e&#45;&gt;HighReadIORate_
Minor:w</title>
<path fill="none" stroke="black" d="M360.783,-183.87C414.135,-183.87 349.801,-76.6945 386.603,-61.623"/>
<polygon fill="black" stroke="black" points="387.522,-65.0163 396.783,-59.8701 386.334,-58.1178 387.522,-65.0163"/>
</g>
<!-- High_Read_IO_
Rate_Major -->
<g id="${uniqueid}_node7" class="node"><title>High_Read_IO_
Rate_Major</title>
<g id="a_${uniqueid}_node7"><a xlink:href="#2081322952891705" xlink:title="com.watch4net.alerting.action.SNMPTrapAction">
<ellipse fill="#4daf4a" stroke="black" cx="829.424" cy="-152.87" rx="90.5193" ry="26.7407"/>
<text text-anchor="middle" x="829.424" y="-156.67" font-family="Times,serif" font-size="14.00" fill="white">High_Read_IO_</text>
<text text-anchor="middle" x="829.424" y="-141.67" font-family="Times,serif" font-size="14.00" fill="white">Rate_Major</text>
</a>
</g>
</g>
<!-- HighReadIORate_
Major&#45;&gt;High_Read_IO_
Rate_Major -->
<g id="${uniqueid}_edge7" class="edge"><title>HighReadIORate_
Major:se&#45;&gt;High_Read_IO_
Rate_Major:w</title>
<path fill="none" stroke="black" d="M573.783,-153.87C622.801,-104.852 660.966,-148.366 727.411,-152.553"/>
<polygon fill="black" stroke="black" points="727.318,-156.052 737.424,-152.87 727.54,-149.056 727.318,-156.052"/>
<text text-anchor="middle" x="558.283" y="-142.67" font-family="Times,serif" font-size="14.00">true</text>
</g>
<!-- SNMP_Clear_Major -->
<g id="${uniqueid}_node10" class="node"><title>SNMP_Clear_Major</title>
<g id="a_${uniqueid}_node10"><a xlink:href="#2081322952901871" xlink:title="com.watch4net.alerting.action.SNMPTrapAction">
<ellipse fill="#4daf4a" stroke="black" cx="829.424" cy="-215.87" rx="103.982" ry="18"/>
<text text-anchor="middle" x="829.424" y="-212.17" font-family="Times,serif" font-size="14.00" fill="white">SNMP_Clear_Major</text>
</a>
</g>
</g>
<!-- HighReadIORate_
Major&#45;&gt;SNMP_Clear_Major -->
<g id="${uniqueid}_edge6" class="edge"><title>HighReadIORate_
Major:ne&#45;&gt;SNMP_Clear_Major:w</title>
<path fill="none" stroke="black" d="M571.783,-213.87C574.317,-216.404 570.097,-219.499 572.783,-221.87 611.433,-255.99 637.403,-226.122 688.783,-221.87 700.907,-220.867 705.971,-217.993 714.588,-216.619"/>
<polygon fill="black" stroke="black" points="715.067,-220.094 724.783,-215.87 714.553,-213.113 715.067,-220.094"/>
<text text-anchor="middle" x="554.783" y="-217.67" font-family="Times,serif" font-size="14.00">false</text>
</g>
<!-- High_Read_IO_
Rate_Minor -->
<g id="${uniqueid}_node8" class="node"><title>High_Read_IO_
Rate_Minor</title>
<g id="a_${uniqueid}_node8"><a xlink:href="#2081322952922987" xlink:title="com.watch4net.alerting.action.SNMPTrapAction">
<ellipse fill="#4daf4a" stroke="black" cx="829.424" cy="-26.8701" rx="90.5193" ry="26.7407"/>
<text text-anchor="middle" x="829.424" y="-30.6701" font-family="Times,serif" font-size="14.00" fill="white">High_Read_IO_</text>
<text text-anchor="middle" x="829.424" y="-15.6701" font-family="Times,serif" font-size="14.00" fill="white">Rate_Minor</text>
</a>
</g>
</g>
<!-- HighReadIORate_
Minor&#45;&gt;High_Read_IO_
Rate_Minor -->
<g id="${uniqueid}_edge9" class="edge"><title>HighReadIORate_
Minor:se&#45;&gt;High_Read_IO_
Rate_Minor:w</title>
<path fill="none" stroke="black" d="M573.783,-29.8701C622.808,19.1548 660.956,-22.5486 727.409,-26.5661"/>
<polygon fill="black" stroke="black" points="727.322,-30.0649 737.424,-26.8701 727.535,-23.0681 727.322,-30.0649"/>
<text text-anchor="middle" x="558.283" y="-18.6701" font-family="Times,serif" font-size="14.00">true</text>
</g>
<!-- SNMP_Clear_Minor -->
<g id="${uniqueid}_node11" class="node"><title>SNMP_Clear_Minor</title>
<g id="a_${uniqueid}_node11"><a xlink:href="#2081322952933411" xlink:title="com.watch4net.alerting.action.SNMPTrapAction">
<ellipse fill="#4daf4a" stroke="black" cx="829.424" cy="-89.8701" rx="104.782" ry="18"/>
<text text-anchor="middle" x="829.424" y="-86.1701" font-family="Times,serif" font-size="14.00" fill="white">SNMP_Clear_Minor</text>
</a>
</g>
</g>
<!-- HighReadIORate_
Minor&#45;&gt;SNMP_Clear_Minor -->
<g id="${uniqueid}_edge8" class="edge"><title>HighReadIORate_
Minor:ne&#45;&gt;SNMP_Clear_Minor:w</title>
<path fill="none" stroke="black" d="M571.783,-89.8701C574.317,-92.4038 570.097,-95.4987 572.783,-97.8701 611.433,-131.99 637.535,-103.496 688.783,-97.8701 701.13,-96.5147 706.025,-92.6193 714.805,-90.812"/>
<polygon fill="black" stroke="black" points="715.156,-94.2945 724.783,-89.8701 714.498,-87.3255 715.156,-94.2945"/>
<text text-anchor="middle" x="554.783" y="-93.6701" font-family="Times,serif" font-size="14.00">false</text>
</g>
<!-- HighReadsIORate -->
<g id="${uniqueid}_node5" class="node"><title>HighReadsIORate</title>
<g id="a_${uniqueid}_node5"><a xlink:href="#2081322952791070" xlink:title="com.watch4net.alerting.operation.FilteredEntryPoint">
<ellipse fill="#984ea3" stroke="black" cx="94.8916" cy="-183.87" rx="94.7833" ry="18"/>
<text text-anchor="middle" x="94.8916" y="-180.17" font-family="Times,serif" font-size="14.00" fill="white">HighReadsIORate</text>
</a>
</g>
</g>
<!-- HighReadsIORate&#45;&gt;DiskReadIORate -->
<g id="${uniqueid}_edge10" class="edge"><title>HighReadsIORate:e&#45;&gt;DiskReadIORate:w</title>
<path fill="none" stroke="black" d="M189.783,-183.87C201.783,-183.87 207.033,-183.87 215.658,-183.87"/>
<polygon fill="black" stroke="black" points="215.783,-187.37 225.783,-183.87 215.783,-180.37 215.783,-187.37"/>
</g>
</g>
</svg>
