<?xml version="1.0" encoding="UTF-8" standalone="no"?>
<!DOCTYPE svg PUBLIC "-//W3C//DTD SVG 1.1//EN"
 "http://www.w3.org/Graphics/SVG/1.1/DTD/svg11.dtd">
<!-- Generated by graphviz version 2.38.0 (20140413.2041)
 -->
<!-- Title: NetApp Filer Alert Definitions/NetApp&#45;LUN/Write Bandwidth Pages: 1 -->
<svg width="934pt" height="272pt"
 viewBox="0.00 0.00 934.28 272.00" xmlns="http://www.w3.org/2000/svg" xmlns:xlink="http://www.w3.org/1999/xlink">
<g id="${uniqueid}" class="graph" transform="scale(1 1) rotate(0) translate(4 268)">
<title>NetApp Filer Alert Definitions/NetApp&#45;LUN/Write Bandwidth</title>
<polygon fill="white" stroke="none" points="-4,4 -4,-268 930.281,-268 930.281,4 -4,4"/>
<!-- LUN Write B/W
CRIT check -->
<g id="${uniqueid}_node1" class="node"><title>LUN Write B/W
CRIT check</title>
<g id="a_${uniqueid}_node1"><a xlink:href="#202256794227359" xlink:title="com.watch4net.alerting.operation.comparator.ConstantComparatorOperation">
<polygon fill="#ff7f00" stroke="black" points="543.019,-264 415.019,-226 543.019,-188 671.019,-226 543.019,-264"/>
<text text-anchor="middle" x="543.019" y="-229.8" font-family="Times,serif" font-size="14.00" fill="white">LUN Write B/W</text>
<text text-anchor="middle" x="543.019" y="-214.8" font-family="Times,serif" font-size="14.00" fill="white">CRIT check</text>
</a>
</g>
</g>
<!-- LUN WriteB/W_
CRIT trap -->
<g id="${uniqueid}_node6" class="node"><title>LUN WriteB/W_
CRIT trap</title>
<g id="a_${uniqueid}_node6"><a xlink:href="#202256794238195" xlink:title="com.watch4net.alerting.action.SNMPTrapAction">
<ellipse fill="#4daf4a" stroke="black" cx="833.65" cy="-226" rx="92.7622" ry="26.7407"/>
<text text-anchor="middle" x="833.65" y="-229.8" font-family="Times,serif" font-size="14.00" fill="white">LUN WriteB/W_</text>
<text text-anchor="middle" x="833.65" y="-214.8" font-family="Times,serif" font-size="14.00" fill="white">CRIT trap</text>
</a>
</g>
</g>
<!-- LUN Write B/W
CRIT check&#45;&gt;LUN WriteB/W_
CRIT trap -->
<g id="${uniqueid}_edge1" class="edge"><title>LUN Write B/W
CRIT check:e&#45;&gt;LUN WriteB/W_
CRIT trap:w</title>
<path fill="none" stroke="black" d="M672.019,-226C698.972,-226 708.159,-226 730.809,-226"/>
<polygon fill="black" stroke="black" points="731.019,-229.5 741.019,-226 731.019,-222.5 731.019,-229.5"/>
<text text-anchor="middle" x="687.519" y="-214.8" font-family="Times,serif" font-size="14.00">true</text>
</g>
<!-- LUN Write B/W
Entry -->
<g id="${uniqueid}_node2" class="node"><title>LUN Write B/W
Entry</title>
<g id="a_${uniqueid}_node2"><a xlink:href="#202256794186907" xlink:title="com.watch4net.alerting.operation.FilteredEntryPoint">
<ellipse fill="#984ea3" stroke="black" cx="90.5097" cy="-132" rx="90.5193" ry="26.7407"/>
<text text-anchor="middle" x="90.5097" y="-135.8" font-family="Times,serif" font-size="14.00" fill="white">LUN Write B/W</text>
<text text-anchor="middle" x="90.5097" y="-120.8" font-family="Times,serif" font-size="14.00" fill="white">Entry</text>
</a>
</g>
</g>
<!-- LUN Write B/W
case -->
<g id="${uniqueid}_node4" class="node"><title>LUN Write B/W
case</title>
<g id="a_${uniqueid}_node4"><a xlink:href="#202256794222182" xlink:title="com.watch4net.alerting.operation.CaseOperation">
<polygon fill="#377eb8" stroke="black" points="345.019,-151 217.019,-151 217.019,-113 345.019,-113 345.019,-151"/>
<text text-anchor="middle" x="281.019" y="-135.8" font-family="Times,serif" font-size="14.00" fill="white">LUN Write B/W</text>
<text text-anchor="middle" x="281.019" y="-120.8" font-family="Times,serif" font-size="14.00" fill="white">case</text>
</a>
</g>
</g>
<!-- LUN Write B/W
Entry&#45;&gt;LUN Write B/W
case -->
<g id="${uniqueid}_edge2" class="edge"><title>LUN Write B/W
Entry:e&#45;&gt;LUN Write B/W
case:w</title>
<path fill="none" stroke="black" d="M181.019,-132C193.019,-132 198.269,-132 206.894,-132"/>
<polygon fill="black" stroke="black" points="207.019,-135.5 217.019,-132 207.019,-128.5 207.019,-135.5"/>
</g>
<!-- LUN Write B/W
MAJ check -->
<g id="${uniqueid}_node3" class="node"><title>LUN Write B/W
MAJ check</title>
<g id="a_${uniqueid}_node3"><a xlink:href="#202256794257635" xlink:title="com.watch4net.alerting.operation.comparator.ConstantComparatorOperation">
<polygon fill="#ff7f00" stroke="black" points="543.019,-170 415.019,-132 543.019,-94 671.019,-132 543.019,-170"/>
<text text-anchor="middle" x="543.019" y="-135.8" font-family="Times,serif" font-size="14.00" fill="white">LUN Write B/W</text>
<text text-anchor="middle" x="543.019" y="-120.8" font-family="Times,serif" font-size="14.00" fill="white">MAJ check</text>
</a>
</g>
</g>
<!-- LUN WriteB/W_
Major trap -->
<g id="${uniqueid}_node7" class="node"><title>LUN WriteB/W_
Major trap</title>
<g id="a_${uniqueid}_node7"><a xlink:href="#202256794270051" xlink:title="com.watch4net.alerting.action.SNMPTrapAction">
<ellipse fill="#4daf4a" stroke="black" cx="833.65" cy="-132" rx="92.7622" ry="26.7407"/>
<text text-anchor="middle" x="833.65" y="-135.8" font-family="Times,serif" font-size="14.00" fill="white">LUN WriteB/W_</text>
<text text-anchor="middle" x="833.65" y="-120.8" font-family="Times,serif" font-size="14.00" fill="white">Major trap</text>
</a>
</g>
</g>
<!-- LUN Write B/W
MAJ check&#45;&gt;LUN WriteB/W_
Major trap -->
<g id="${uniqueid}_edge3" class="edge"><title>LUN Write B/W
MAJ check:e&#45;&gt;LUN WriteB/W_
Major trap:w</title>
<path fill="none" stroke="black" d="M672.019,-132C698.972,-132 708.159,-132 730.809,-132"/>
<polygon fill="black" stroke="black" points="731.019,-135.5 741.019,-132 731.019,-128.5 731.019,-135.5"/>
<text text-anchor="middle" x="687.519" y="-120.8" font-family="Times,serif" font-size="14.00">true</text>
</g>
<!-- LUN Write B/W
case&#45;&gt;LUN Write B/W
CRIT check -->
<g id="${uniqueid}_edge4" class="edge"><title>LUN Write B/W
case:e&#45;&gt;LUN Write B/W
CRIT check:w</title>
<path fill="none" stroke="black" d="M345.019,-132C392.998,-132 366.861,-212.565 403.838,-224.523"/>
<polygon fill="black" stroke="black" points="403.62,-228.028 414.019,-226 404.625,-221.101 403.62,-228.028"/>
</g>
<!-- LUN Write B/W
case&#45;&gt;LUN Write B/W
MAJ check -->
<g id="${uniqueid}_edge5" class="edge"><title>LUN Write B/W
case:e&#45;&gt;LUN Write B/W
MAJ check:w</title>
<path fill="none" stroke="black" d="M345.019,-132C371.972,-132 381.159,-132 403.809,-132"/>
<polygon fill="black" stroke="black" points="404.019,-135.5 414.019,-132 404.019,-128.5 404.019,-135.5"/>
</g>
<!-- LUN WriteB/W MIN
check -->
<g id="${uniqueid}_node5" class="node"><title>LUN WriteB/W MIN
check</title>
<g id="a_${uniqueid}_node5"><a xlink:href="#202256794282511" xlink:title="com.watch4net.alerting.operation.comparator.ConstantComparatorOperation">
<polygon fill="#ff7f00" stroke="black" points="543.019,-76 381.019,-38 543.019,-7.10543e-15 705.019,-38 543.019,-76"/>
<text text-anchor="middle" x="543.019" y="-41.8" font-family="Times,serif" font-size="14.00" fill="white">LUN WriteB/W MIN</text>
<text text-anchor="middle" x="543.019" y="-26.8" font-family="Times,serif" font-size="14.00" fill="white">check</text>
</a>
</g>
</g>
<!-- LUN Write B/W
case&#45;&gt;LUN WriteB/W MIN
check -->
<g id="${uniqueid}_edge6" class="edge"><title>LUN Write B/W
case:e&#45;&gt;LUN WriteB/W MIN
check:w</title>
<path fill="none" stroke="black" d="M345.019,-132C385.737,-132 345.098,-54.1319 371.197,-40.1399"/>
<polygon fill="black" stroke="black" points="371.994,-43.5486 381.019,-38 370.503,-36.709 371.994,-43.5486"/>
</g>
<!-- LUN WriteB/W_
Minor trap -->
<g id="${uniqueid}_node8" class="node"><title>LUN WriteB/W_
Minor trap</title>
<g id="a_${uniqueid}_node8"><a xlink:href="#202256794292689" xlink:title="com.watch4net.alerting.action.SNMPTrapAction">
<ellipse fill="#4daf4a" stroke="black" cx="833.65" cy="-38" rx="92.7622" ry="26.7407"/>
<text text-anchor="middle" x="833.65" y="-41.8" font-family="Times,serif" font-size="14.00" fill="white">LUN WriteB/W_</text>
<text text-anchor="middle" x="833.65" y="-26.8" font-family="Times,serif" font-size="14.00" fill="white">Minor trap</text>
</a>
</g>
</g>
<!-- LUN WriteB/W MIN
check&#45;&gt;LUN WriteB/W_
Minor trap -->
<g id="${uniqueid}_edge7" class="edge"><title>LUN WriteB/W MIN
check:e&#45;&gt;LUN WriteB/W_
Minor trap:w</title>
<path fill="none" stroke="black" d="M705.019,-38C717.019,-38 722.269,-38 730.894,-38"/>
<polygon fill="black" stroke="black" points="731.019,-41.5001 741.019,-38 731.019,-34.5001 731.019,-41.5001"/>
<text text-anchor="middle" x="720.519" y="-26.8" font-family="Times,serif" font-size="14.00">true</text>
</g>
</g>
</svg>
