<?xml version="1.0" encoding="UTF-8" standalone="no"?>
<!DOCTYPE svg PUBLIC "-//W3C//DTD SVG 1.1//EN"
 "http://www.w3.org/Graphics/SVG/1.1/DTD/svg11.dtd">
<!-- Generated by graphviz version 2.38.0 (20140413.2041)
 -->
<!-- Title: EMC VMAX Alert Definitions/VMAX&#45;Devices/High IO Rate Pages: 1 -->
<svg width="858pt" height="372pt"
 viewBox="0.00 0.00 857.87 372.22" xmlns="http://www.w3.org/2000/svg" xmlns:xlink="http://www.w3.org/1999/xlink">
<g id="${uniqueid}" class="graph" transform="scale(1 1) rotate(0) translate(4 368.223)">
<title>EMC VMAX Alert Definitions/VMAX&#45;Devices/High IO Rate</title>
<polygon fill="white" stroke="none" points="-4,4 -4,-368.223 853.87,-368.223 853.87,4 -4,4"/>
<!-- HighIORate -->
<g id="${uniqueid}_node1" class="node"><title>HighIORate</title>
<g id="a_${uniqueid}_node1"><a xlink:href="#178776103590357" xlink:title="com.watch4net.alerting.operation.FilteredEntryPoint">
<ellipse fill="#984ea3" stroke="black" cx="66.2941" cy="-183.87" rx="66.0889" ry="18"/>
<text text-anchor="middle" x="66.2941" y="-180.17" font-family="Times,serif" font-size="14.00" fill="white">HighIORate</text>
</a>
</g>
</g>
<!-- LUNIORate -->
<g id="${uniqueid}_node2" class="node"><title>LUNIORate</title>
<g id="a_${uniqueid}_node2"><a xlink:href="#178776103768449" xlink:title="com.watch4net.alerting.operation.CaseOperation">
<polygon fill="#377eb8" stroke="black" points="268.588,-201.87 168.588,-201.87 168.588,-165.87 268.588,-165.87 268.588,-201.87"/>
<text text-anchor="middle" x="218.588" y="-180.17" font-family="Times,serif" font-size="14.00" fill="white">LUNIORate</text>
</a>
</g>
</g>
<!-- HighIORate&#45;&gt;LUNIORate -->
<g id="${uniqueid}_edge1" class="edge"><title>HighIORate:e&#45;&gt;LUNIORate:w</title>
<path fill="none" stroke="black" d="M132.588,-183.87C144.588,-183.87 149.838,-183.87 158.463,-183.87"/>
<polygon fill="black" stroke="black" points="158.588,-187.37 168.588,-183.87 158.588,-180.37 158.588,-187.37"/>
</g>
<!-- LUN_HighIORate_
Crit -->
<g id="${uniqueid}_node3" class="node"><title>LUN_HighIORate_
Crit</title>
<g id="a_${uniqueid}_node3"><a xlink:href="#178776103788096" xlink:title="com.watch4net.alerting.operation.comparator.ConstantComparatorOperation">
<polygon fill="#ff7f00" stroke="black" points="454.588,-347.87 304.588,-309.87 454.588,-271.87 604.588,-309.87 454.588,-347.87"/>
<text text-anchor="middle" x="454.588" y="-313.67" font-family="Times,serif" font-size="14.00" fill="white">LUN_HighIORate_</text>
<text text-anchor="middle" x="454.588" y="-298.67" font-family="Times,serif" font-size="14.00" fill="white">Crit</text>
</a>
</g>
</g>
<!-- LUNIORate&#45;&gt;LUN_HighIORate_
Crit -->
<g id="${uniqueid}_edge2" class="edge"><title>LUNIORate:e&#45;&gt;LUN_HighIORate_
Crit:w</title>
<path fill="none" stroke="black" d="M268.588,-183.87C322.734,-183.87 256.979,-292.774 294.264,-308.089"/>
<polygon fill="black" stroke="black" points="294.139,-311.619 304.588,-309.87 295.329,-304.721 294.139,-311.619"/>
</g>
<!-- LUN_HighIORate_
Major -->
<g id="${uniqueid}_node4" class="node"><title>LUN_HighIORate_
Major</title>
<g id="a_${uniqueid}_node4"><a xlink:href="#178776103862107" xlink:title="com.watch4net.alerting.operation.comparator.ConstantComparatorOperation">
<polygon fill="#ff7f00" stroke="black" points="454.588,-221.87 304.588,-183.87 454.588,-145.87 604.588,-183.87 454.588,-221.87"/>
<text text-anchor="middle" x="454.588" y="-187.67" font-family="Times,serif" font-size="14.00" fill="white">LUN_HighIORate_</text>
<text text-anchor="middle" x="454.588" y="-172.67" font-family="Times,serif" font-size="14.00" fill="white">Major</text>
</a>
</g>
</g>
<!-- LUNIORate&#45;&gt;LUN_HighIORate_
Major -->
<g id="${uniqueid}_edge3" class="edge"><title>LUNIORate:e&#45;&gt;LUN_HighIORate_
Major:w</title>
<path fill="none" stroke="black" d="M268.588,-183.87C280.588,-183.87 285.838,-183.87 294.463,-183.87"/>
<polygon fill="black" stroke="black" points="294.588,-187.37 304.588,-183.87 294.588,-180.37 294.588,-187.37"/>
</g>
<!-- LUN_HighIORate_
Minor -->
<g id="${uniqueid}_node5" class="node"><title>LUN_HighIORate_
Minor</title>
<g id="a_${uniqueid}_node5"><a xlink:href="#178776103924980" xlink:title="com.watch4net.alerting.operation.comparator.ConstantComparatorOperation">
<polygon fill="#ff7f00" stroke="black" points="454.588,-96.8701 304.588,-58.8701 454.588,-20.8701 604.588,-58.8701 454.588,-96.8701"/>
<text text-anchor="middle" x="454.588" y="-62.6701" font-family="Times,serif" font-size="14.00" fill="white">LUN_HighIORate_</text>
<text text-anchor="middle" x="454.588" y="-47.6701" font-family="Times,serif" font-size="14.00" fill="white">Minor</text>
</a>
</g>
</g>
<!-- LUNIORate&#45;&gt;LUN_HighIORate_
Minor -->
<g id="${uniqueid}_edge4" class="edge"><title>LUNIORate:e&#45;&gt;LUN_HighIORate_
Minor:w</title>
<path fill="none" stroke="black" d="M268.588,-183.87C322.337,-183.87 257.293,-75.8302 294.336,-60.6371"/>
<polygon fill="black" stroke="black" points="295.328,-64.0178 304.588,-58.8701 294.139,-57.1195 295.328,-64.0178"/>
</g>
<!-- LUN_High_IO_
Rate_Crit -->
<g id="${uniqueid}_node6" class="node"><title>LUN_High_IO_
Rate_Crit</title>
<g id="a_${uniqueid}_node6"><a xlink:href="#178776103817449" xlink:title="com.watch4net.alerting.action.SNMPTrapAction">
<ellipse fill="#4daf4a" stroke="black" cx="745.229" cy="-278.87" rx="88.2768" ry="26.7407"/>
<text text-anchor="middle" x="745.229" y="-282.67" font-family="Times,serif" font-size="14.00" fill="white">LUN_High_IO_</text>
<text text-anchor="middle" x="745.229" y="-267.67" font-family="Times,serif" font-size="14.00" fill="white">Rate_Crit</text>
</a>
</g>
</g>
<!-- LUN_HighIORate_
Crit&#45;&gt;LUN_High_IO_
Rate_Crit -->
<g id="${uniqueid}_edge6" class="edge"><title>LUN_HighIORate_
Crit:se&#45;&gt;LUN_High_IO_
Rate_Crit:w</title>
<path fill="none" stroke="black" d="M486.588,-278.87C537.103,-228.356 576.436,-274.134 644.91,-278.537"/>
<polygon fill="black" stroke="black" points="645.121,-282.046 655.229,-278.87 645.347,-275.049 645.121,-282.046"/>
<text text-anchor="middle" x="471.088" y="-267.67" font-family="Times,serif" font-size="14.00">true</text>
</g>
<!-- SNMP_Clear_Crit -->
<g id="${uniqueid}_node9" class="node"><title>SNMP_Clear_Crit</title>
<g id="a_${uniqueid}_node9"><a xlink:href="#178776103844161" xlink:title="com.watch4net.alerting.action.SNMPTrapAction">
<ellipse fill="#4daf4a" stroke="black" cx="745.229" cy="-341.87" rx="94.7833" ry="18"/>
<text text-anchor="middle" x="745.229" y="-338.17" font-family="Times,serif" font-size="14.00" fill="white">SNMP_Clear_Crit</text>
</a>
</g>
</g>
<!-- LUN_HighIORate_
Crit&#45;&gt;SNMP_Clear_Crit -->
<g id="${uniqueid}_edge5" class="edge"><title>LUN_HighIORate_
Crit:ne&#45;&gt;SNMP_Clear_Crit:w</title>
<path fill="none" stroke="black" d="M484.588,-340.87C486.81,-343.092 483.214,-345.811 485.588,-347.87 525.543,-382.523 551.817,-351.401 604.588,-347.87 620.661,-346.795 626.81,-343.565 639.03,-342.344"/>
<polygon fill="black" stroke="black" points="639.402,-345.831 649.229,-341.87 639.077,-338.838 639.402,-345.831"/>
<text text-anchor="middle" x="467.588" y="-344.67" font-family="Times,serif" font-size="14.00">false</text>
</g>
<!-- LUN_High_IO_
Rate_Major -->
<g id="${uniqueid}_node7" class="node"><title>LUN_High_IO_
Rate_Major</title>
<g id="a_${uniqueid}_node7"><a xlink:href="#178776103883456" xlink:title="com.watch4net.alerting.action.SNMPTrapAction">
<ellipse fill="#4daf4a" stroke="black" cx="745.229" cy="-152.87" rx="88.2768" ry="26.7407"/>
<text text-anchor="middle" x="745.229" y="-156.67" font-family="Times,serif" font-size="14.00" fill="white">LUN_High_IO_</text>
<text text-anchor="middle" x="745.229" y="-141.67" font-family="Times,serif" font-size="14.00" fill="white">Rate_Major</text>
</a>
</g>
</g>
<!-- LUN_HighIORate_
Major&#45;&gt;LUN_High_IO_
Rate_Major -->
<g id="${uniqueid}_edge8" class="edge"><title>LUN_HighIORate_
Major:se&#45;&gt;LUN_High_IO_
Rate_Major:w</title>
<path fill="none" stroke="black" d="M486.588,-152.87C537.103,-102.356 576.436,-148.134 644.91,-152.537"/>
<polygon fill="black" stroke="black" points="645.121,-156.046 655.229,-152.87 645.347,-149.049 645.121,-156.046"/>
<text text-anchor="middle" x="471.088" y="-141.67" font-family="Times,serif" font-size="14.00">true</text>
</g>
<!-- SNMP_Clear_Major -->
<g id="${uniqueid}_node10" class="node"><title>SNMP_Clear_Major</title>
<g id="a_${uniqueid}_node10"><a xlink:href="#178776103906494" xlink:title="com.watch4net.alerting.action.SNMPTrapAction">
<ellipse fill="#4daf4a" stroke="black" cx="745.229" cy="-215.87" rx="103.982" ry="18"/>
<text text-anchor="middle" x="745.229" y="-212.17" font-family="Times,serif" font-size="14.00" fill="white">SNMP_Clear_Major</text>
</a>
</g>
</g>
<!-- LUN_HighIORate_
Major&#45;&gt;SNMP_Clear_Major -->
<g id="${uniqueid}_edge7" class="edge"><title>LUN_HighIORate_
Major:ne&#45;&gt;SNMP_Clear_Major:w</title>
<path fill="none" stroke="black" d="M484.588,-214.87C486.81,-217.092 483.214,-219.811 485.588,-221.87 525.543,-256.523 551.88,-226.232 604.588,-221.87 616.712,-220.867 621.776,-217.993 630.393,-216.619"/>
<polygon fill="black" stroke="black" points="630.872,-220.094 640.588,-215.87 630.359,-213.113 630.872,-220.094"/>
<text text-anchor="middle" x="467.588" y="-218.67" font-family="Times,serif" font-size="14.00">false</text>
</g>
<!-- LUN_High_IO_
Rate_Minor -->
<g id="${uniqueid}_node8" class="node"><title>LUN_High_IO_
Rate_Minor</title>
<g id="a_${uniqueid}_node8"><a xlink:href="#178776103945780" xlink:title="com.watch4net.alerting.action.SNMPTrapAction">
<ellipse fill="#4daf4a" stroke="black" cx="745.229" cy="-26.8701" rx="88.2768" ry="26.7407"/>
<text text-anchor="middle" x="745.229" y="-30.6701" font-family="Times,serif" font-size="14.00" fill="white">LUN_High_IO_</text>
<text text-anchor="middle" x="745.229" y="-15.6701" font-family="Times,serif" font-size="14.00" fill="white">Rate_Minor</text>
</a>
</g>
</g>
<!-- LUN_HighIORate_
Minor&#45;&gt;LUN_High_IO_
Rate_Minor -->
<g id="${uniqueid}_edge10" class="edge"><title>LUN_HighIORate_
Minor:se&#45;&gt;LUN_High_IO_
Rate_Minor:w</title>
<path fill="none" stroke="black" d="M486.588,-27.8701C537.103,22.6452 576.435,-22.2258 644.91,-26.5435"/>
<polygon fill="black" stroke="black" points="645.123,-30.0519 655.229,-26.8701 645.345,-23.0554 645.123,-30.0519"/>
<text text-anchor="middle" x="471.088" y="-16.6701" font-family="Times,serif" font-size="14.00">true</text>
</g>
<!-- SNMP_Clear_Minor -->
<g id="${uniqueid}_node11" class="node"><title>SNMP_Clear_Minor</title>
<g id="a_${uniqueid}_node11"><a xlink:href="#178776103970056" xlink:title="com.watch4net.alerting.action.SNMPTrapAction">
<ellipse fill="#4daf4a" stroke="black" cx="745.229" cy="-89.8701" rx="104.782" ry="18"/>
<text text-anchor="middle" x="745.229" y="-86.1701" font-family="Times,serif" font-size="14.00" fill="white">SNMP_Clear_Minor</text>
</a>
</g>
</g>
<!-- LUN_HighIORate_
Minor&#45;&gt;SNMP_Clear_Minor -->
<g id="${uniqueid}_edge9" class="edge"><title>LUN_HighIORate_
Minor:ne&#45;&gt;SNMP_Clear_Minor:w</title>
<path fill="none" stroke="black" d="M484.588,-89.8701C486.81,-92.0923 483.214,-94.811 485.588,-96.8701 525.543,-131.523 551.943,-101.941 604.588,-96.8701 616.757,-95.698 621.754,-92.3465 630.368,-90.744"/>
<polygon fill="black" stroke="black" points="630.923,-94.2095 640.588,-89.8701 630.326,-87.235 630.923,-94.2095"/>
<text text-anchor="middle" x="467.588" y="-93.6701" font-family="Times,serif" font-size="14.00">false</text>
</g>
</g>
</svg>
