<?xml version="1.0" encoding="UTF-8" standalone="no"?>
<!DOCTYPE svg PUBLIC "-//W3C//DTD SVG 1.1//EN"
 "http://www.w3.org/Graphics/SVG/1.1/DTD/svg11.dtd">
<!-- Generated by graphviz version 2.38.0 (20140413.2041)
 -->
<!-- Title: EMC VPLEX Alert Definitions/VPLEX&#45;Devices/Health Pages: 1 -->
<svg width="663pt" height="566pt"
 viewBox="0.00 0.00 662.84 565.74" xmlns="http://www.w3.org/2000/svg" xmlns:xlink="http://www.w3.org/1999/xlink">
<g id="${uniqueid}" class="graph" transform="scale(1 1) rotate(0) translate(4 561.74)">
<title>EMC VPLEX Alert Definitions/VPLEX&#45;Devices/Health</title>
<polygon fill="white" stroke="none" points="-4,4 -4,-561.74 658.837,-561.74 658.837,4 -4,4"/>
<!--  health major
clear trap -->
<g id="${uniqueid}_node1" class="node"><title> health major
clear trap</title>
<g id="a_${uniqueid}_node1"><a xlink:href="#498267081397202-80936072512378" xlink:title="com.watch4net.alerting.action.SNMPTrapAction">
<ellipse fill="#4daf4a" stroke="black" cx="566.449" cy="-242.87" rx="79.3924" ry="26.7407"/>
<text text-anchor="middle" x="566.449" y="-246.67" font-family="Times,serif" font-size="14.00" fill="white"> health major</text>
<text text-anchor="middle" x="566.449" y="-231.67" font-family="Times,serif" font-size="14.00" fill="white">clear trap</text>
</a>
</g>
</g>
<!-- Critical -->
<g id="${uniqueid}_node2" class="node"><title>Critical</title>
<g id="a_${uniqueid}_node2"><a xlink:href="#498267081341340-80936059874253" xlink:title="com.watch4net.alerting.operation.comparator.ConstantComparatorOperation">
<polygon fill="#ff7f00" stroke="black" points="337.276,-490.87 272.255,-472.87 337.276,-454.87 402.298,-472.87 337.276,-490.87"/>
<text text-anchor="middle" x="337.276" y="-469.17" font-family="Times,serif" font-size="14.00" fill="white">Critical</text>
</a>
</g>
</g>
<!-- health critical
alert trap -->
<g id="${uniqueid}_node8" class="node"><title>health critical
alert trap</title>
<g id="a_${uniqueid}_node8"><a xlink:href="#498267081376565-80936072454728" xlink:title="com.watch4net.alerting.action.SNMPTrapAction">
<ellipse fill="#4daf4a" stroke="black" cx="566.449" cy="-458.87" rx="82.9636" ry="26.7407"/>
<text text-anchor="middle" x="566.449" y="-462.67" font-family="Times,serif" font-size="14.00" fill="white">health critical</text>
<text text-anchor="middle" x="566.449" y="-447.67" font-family="Times,serif" font-size="14.00" fill="white">alert trap</text>
</a>
</g>
</g>
<!-- Critical&#45;&gt;health critical
alert trap -->
<g id="${uniqueid}_edge2" class="edge"><title>Critical:se&#45;&gt;health critical
alert trap:w</title>
<path fill="none" stroke="black" d="M352.276,-458.87C390.709,-420.438 420.756,-454.216 472.223,-458.447"/>
<polygon fill="black" stroke="black" points="472.313,-461.954 482.449,-458.87 472.602,-454.96 472.313,-461.954"/>
<text text-anchor="middle" x="336.776" y="-447.67" font-family="Times,serif" font-size="14.00">true</text>
</g>
<!-- health critical
clear trap -->
<g id="${uniqueid}_node9" class="node"><title>health critical
clear trap</title>
<g id="a_${uniqueid}_node9"><a xlink:href="#498267081359996-80936072383206" xlink:title="com.watch4net.alerting.action.SNMPTrapAction">
<ellipse fill="#4daf4a" stroke="black" cx="566.449" cy="-530.87" rx="82.9636" ry="26.7407"/>
<text text-anchor="middle" x="566.449" y="-534.67" font-family="Times,serif" font-size="14.00" fill="white">health critical</text>
<text text-anchor="middle" x="566.449" y="-519.67" font-family="Times,serif" font-size="14.00" fill="white">clear trap</text>
</a>
</g>
</g>
<!-- Critical&#45;&gt;health critical
clear trap -->
<g id="${uniqueid}_edge1" class="edge"><title>Critical:ne&#45;&gt;health critical
clear trap:w</title>
<path fill="none" stroke="black" d="M350.276,-486.87C351.572,-488.166 350.014,-489.542 351.276,-490.87 390.883,-532.55 418.257,-531.189 472.398,-530.901"/>
<polygon fill="black" stroke="black" points="472.459,-534.401 482.449,-530.87 472.438,-527.401 472.459,-534.401"/>
<text text-anchor="middle" x="333.276" y="-490.67" font-family="Times,serif" font-size="14.00">false</text>
</g>
<!-- Health -->
<g id="${uniqueid}_node3" class="node"><title>Health</title>
<g id="a_${uniqueid}_node3"><a xlink:href="#498267081284985-80936057431652" xlink:title="com.watch4net.alerting.operation.FilteredEntryPoint">
<ellipse fill="#984ea3" stroke="black" cx="42.2463" cy="-278.87" rx="42.4939" ry="18"/>
<text text-anchor="middle" x="42.2463" y="-275.17" font-family="Times,serif" font-size="14.00" fill="white">Health</text>
</a>
</g>
</g>
<!-- Severity -->
<g id="${uniqueid}_node6" class="node"><title>Severity</title>
<g id="a_${uniqueid}_node6"><a xlink:href="#498267081330706-80936059770413" xlink:title="com.watch4net.alerting.operation.CaseOperation">
<polygon fill="#377eb8" stroke="black" points="196.493,-296.87 120.493,-296.87 120.493,-260.87 196.493,-260.87 196.493,-296.87"/>
<text text-anchor="middle" x="158.493" y="-275.17" font-family="Times,serif" font-size="14.00" fill="white">Severity</text>
</a>
</g>
</g>
<!-- Health&#45;&gt;Severity -->
<g id="${uniqueid}_edge3" class="edge"><title>Health:e&#45;&gt;Severity:w</title>
<path fill="none" stroke="black" d="M84.4925,-278.87C96.4925,-278.87 101.743,-278.87 110.368,-278.87"/>
<polygon fill="black" stroke="black" points="110.493,-282.37 120.493,-278.87 110.492,-275.37 110.493,-282.37"/>
</g>
<!-- Informational -->
<g id="${uniqueid}_node4" class="node"><title>Informational</title>
<g id="a_${uniqueid}_node4"><a xlink:href="#498267081457537-80936060190478" xlink:title="com.watch4net.alerting.operation.comparator.ConstantComparatorOperation">
<polygon fill="#ff7f00" stroke="black" points="337.276,-347.87 232.708,-329.87 337.276,-311.87 441.845,-329.87 337.276,-347.87"/>
<text text-anchor="middle" x="337.276" y="-326.17" font-family="Times,serif" font-size="14.00" fill="white">Informational</text>
</a>
</g>
</g>
<!-- health info
alert trap -->
<g id="${uniqueid}_node10" class="node"><title>health info
alert trap</title>
<g id="a_${uniqueid}_node10"><a xlink:href="#498267081489877-80936072874973" xlink:title="com.watch4net.alerting.action.SNMPTrapAction">
<ellipse fill="#4daf4a" stroke="black" cx="566.449" cy="-314.87" rx="65.5227" ry="26.7407"/>
<text text-anchor="middle" x="566.449" y="-318.67" font-family="Times,serif" font-size="14.00" fill="white">health info</text>
<text text-anchor="middle" x="566.449" y="-303.67" font-family="Times,serif" font-size="14.00" fill="white">alert trap</text>
</a>
</g>
</g>
<!-- Informational&#45;&gt;health info
alert trap -->
<g id="${uniqueid}_edge5" class="edge"><title>Informational:se&#45;&gt;health info
alert trap:w</title>
<path fill="none" stroke="black" d="M353.276,-314.87C396.791,-271.355 430.734,-310.281 489.413,-314.507"/>
<polygon fill="black" stroke="black" points="489.329,-318.006 499.449,-314.87 489.582,-311.011 489.329,-318.006"/>
<text text-anchor="middle" x="337.776" y="-303.67" font-family="Times,serif" font-size="14.00">true</text>
</g>
<!-- health info
clear trap -->
<g id="${uniqueid}_node11" class="node"><title>health info
clear trap</title>
<g id="a_${uniqueid}_node11"><a xlink:href="#498267081469465-80936072807812" xlink:title="com.watch4net.alerting.action.SNMPTrapAction">
<ellipse fill="#4daf4a" stroke="black" cx="566.449" cy="-386.87" rx="65.5227" ry="26.7407"/>
<text text-anchor="middle" x="566.449" y="-390.67" font-family="Times,serif" font-size="14.00" fill="white">health info</text>
<text text-anchor="middle" x="566.449" y="-375.67" font-family="Times,serif" font-size="14.00" fill="white">clear trap</text>
</a>
</g>
</g>
<!-- Informational&#45;&gt;health info
clear trap -->
<g id="${uniqueid}_edge4" class="edge"><title>Informational:ne&#45;&gt;health info
clear trap:w</title>
<path fill="none" stroke="black" d="M351.276,-344.87C352.27,-345.864 351.252,-346.908 352.276,-347.87 399.096,-391.842 428.667,-387.476 489.423,-386.919"/>
<polygon fill="black" stroke="black" points="489.466,-390.419 499.449,-386.87 489.432,-383.419 489.466,-390.419"/>
<text text-anchor="middle" x="334.276" y="-348.67" font-family="Times,serif" font-size="14.00">false</text>
</g>
<!-- Major -->
<g id="${uniqueid}_node5" class="node"><title>Major</title>
<g id="a_${uniqueid}_node5"><a xlink:href="#498267081385444-80936060000393" xlink:title="com.watch4net.alerting.operation.comparator.ConstantComparatorOperation">
<polygon fill="#ff7f00" stroke="black" points="337.276,-246.87 282.815,-228.87 337.276,-210.87 391.738,-228.87 337.276,-246.87"/>
<text text-anchor="middle" x="337.276" y="-225.17" font-family="Times,serif" font-size="14.00" fill="white">Major</text>
</a>
</g>
</g>
<!-- Major&#45;&gt; health major
clear trap -->
<g id="${uniqueid}_edge6" class="edge"><title>Major:ne&#45;&gt; health major
clear trap:w</title>
<path fill="none" stroke="black" d="M350.276,-242.87C351.572,-244.166 349.832,-245.742 351.276,-246.87 365.37,-257.874 373.631,-247.25 391.507,-246.87 429.697,-246.057 441.644,-243.388 475.331,-242.936"/>
<polygon fill="black" stroke="black" points="475.472,-246.435 485.449,-242.87 475.426,-239.435 475.472,-246.435"/>
<text text-anchor="middle" x="333.276" y="-246.67" font-family="Times,serif" font-size="14.00">false</text>
</g>
<!-- health major
alert trap -->
<g id="${uniqueid}_node12" class="node"><title>health major
alert trap</title>
<g id="a_${uniqueid}_node12"><a xlink:href="#498267081409971-80936072568753" xlink:title="com.watch4net.alerting.action.SNMPTrapAction">
<ellipse fill="#4daf4a" stroke="black" cx="566.449" cy="-170.87" rx="75.8212" ry="26.7407"/>
<text text-anchor="middle" x="566.449" y="-174.67" font-family="Times,serif" font-size="14.00" fill="white">health major</text>
<text text-anchor="middle" x="566.449" y="-159.67" font-family="Times,serif" font-size="14.00" fill="white">alert trap</text>
</a>
</g>
</g>
<!-- Major&#45;&gt;health major
alert trap -->
<g id="${uniqueid}_edge7" class="edge"><title>Major:se&#45;&gt;health major
alert trap:w</title>
<path fill="none" stroke="black" d="M352.276,-214.87C395.073,-172.073 422.323,-170.87 479.26,-170.866"/>
<polygon fill="black" stroke="black" points="479.447,-174.366 489.449,-170.87 479.45,-167.366 479.447,-174.366"/>
<text text-anchor="middle" x="336.776" y="-203.67" font-family="Times,serif" font-size="14.00">true</text>
</g>
<!-- Severity&#45;&gt;Critical -->
<g id="${uniqueid}_edge8" class="edge"><title>Severity:e&#45;&gt;Critical:w</title>
<path fill="none" stroke="black" d="M196.493,-278.87C239.086,-278.87 227.437,-443.742 261.555,-469.503"/>
<polygon fill="black" stroke="black" points="260.682,-472.904 271.276,-472.87 262.973,-466.29 260.682,-472.904"/>
</g>
<!-- Severity&#45;&gt;Informational -->
<g id="${uniqueid}_edge9" class="edge"><title>Severity:e&#45;&gt;Informational:w</title>
<path fill="none" stroke="black" d="M196.493,-278.87C220.119,-278.87 209.493,-315.853 222.951,-326.833"/>
<polygon fill="black" stroke="black" points="221.902,-330.172 232.493,-329.87 224.025,-323.501 221.902,-330.172"/>
</g>
<!-- Severity&#45;&gt;Major -->
<g id="${uniqueid}_edge10" class="edge"><title>Severity:e&#45;&gt;Major:w</title>
<path fill="none" stroke="black" d="M196.493,-278.87C237.002,-278.87 238.239,-236.737 272.306,-229.824"/>
<polygon fill="black" stroke="black" points="272.655,-233.307 282.276,-228.87 271.988,-226.339 272.655,-233.307"/>
</g>
<!-- Warning -->
<g id="${uniqueid}_node7" class="node"><title>Warning</title>
<g id="a_${uniqueid}_node7"><a xlink:href="#498267081421352-80936060093965" xlink:title="com.watch4net.alerting.operation.comparator.ConstantComparatorOperation">
<polygon fill="#ff7f00" stroke="black" points="337.276,-102.87 266.726,-84.8701 337.276,-66.8701 407.827,-84.8701 337.276,-102.87"/>
<text text-anchor="middle" x="337.276" y="-81.1701" font-family="Times,serif" font-size="14.00" fill="white">Warning</text>
</a>
</g>
</g>
<!-- Severity&#45;&gt;Warning -->
<g id="${uniqueid}_edge11" class="edge"><title>Severity:e&#45;&gt;Warning:w</title>
<path fill="none" stroke="black" d="M196.493,-278.87C238.66,-278.87 222.665,-113.998 255.744,-88.2373"/>
<polygon fill="black" stroke="black" points="257.013,-91.5009 265.276,-84.8701 254.682,-84.9006 257.013,-91.5009"/>
</g>
<!-- health warning
alert trap -->
<g id="${uniqueid}_node13" class="node"><title>health warning
alert trap</title>
<g id="a_${uniqueid}_node13"><a xlink:href="#498267081446229-80936072735643" xlink:title="com.watch4net.alerting.action.SNMPTrapAction">
<ellipse fill="#4daf4a" stroke="black" cx="566.449" cy="-26.8701" rx="88.2768" ry="26.7407"/>
<text text-anchor="middle" x="566.449" y="-30.6701" font-family="Times,serif" font-size="14.00" fill="white">health warning</text>
<text text-anchor="middle" x="566.449" y="-15.6701" font-family="Times,serif" font-size="14.00" fill="white">alert trap</text>
</a>
</g>
</g>
<!-- Warning&#45;&gt;health warning
alert trap -->
<g id="${uniqueid}_edge13" class="edge"><title>Warning:se&#45;&gt;health warning
alert trap:w</title>
<path fill="none" stroke="black" d="M352.276,-70.8701C391.701,-31.4451 415.884,-27.2551 467.995,-26.8995"/>
<polygon fill="black" stroke="black" points="468.071,-30.3994 478.06,-26.8701 468.05,-23.3994 468.071,-30.3994"/>
<text text-anchor="middle" x="336.776" y="-59.6701" font-family="Times,serif" font-size="14.00">true</text>
</g>
<!-- health warning
clear trap -->
<g id="${uniqueid}_node14" class="node"><title>health warning
clear trap</title>
<g id="a_${uniqueid}_node14"><a xlink:href="#498267081433723-80936072639164" xlink:title="com.watch4net.alerting.action.SNMPTrapAction">
<ellipse fill="#4daf4a" stroke="black" cx="566.449" cy="-98.8701" rx="88.2768" ry="26.7407"/>
<text text-anchor="middle" x="566.449" y="-102.67" font-family="Times,serif" font-size="14.00" fill="white">health warning</text>
<text text-anchor="middle" x="566.449" y="-87.6701" font-family="Times,serif" font-size="14.00" fill="white">clear trap</text>
</a>
</g>
</g>
<!-- Warning&#45;&gt;health warning
clear trap -->
<g id="${uniqueid}_edge12" class="edge"><title>Warning:ne&#45;&gt;health warning
clear trap:w</title>
<path fill="none" stroke="black" d="M350.276,-98.8701C351.572,-100.166 349.832,-101.742 351.276,-102.87 357.147,-107.454 438.459,-101.579 467.773,-99.5279"/>
<polygon fill="black" stroke="black" points="468.304,-103.001 478.06,-98.8701 467.857,-96.0154 468.304,-103.001"/>
<text text-anchor="middle" x="333.276" y="-102.67" font-family="Times,serif" font-size="14.00">false</text>
</g>
</g>
</svg>
