<?xml version="1.0" encoding="UTF-8" standalone="no"?>
<!DOCTYPE svg PUBLIC "-//W3C//DTD SVG 1.1//EN"
 "http://www.w3.org/Graphics/SVG/1.1/DTD/svg11.dtd">
<!-- Generated by graphviz version 2.38.0 (20140413.2041)
 -->
<!-- Title: IBM&#45;XIV Alert Definitions/XIV&#45;Storage Pool/Utilization Pages: 1 -->
<svg width="1067pt" height="586pt"
 viewBox="0.00 0.00 1066.72 585.74" xmlns="http://www.w3.org/2000/svg" xmlns:xlink="http://www.w3.org/1999/xlink">
<g id="${uniqueid}" class="graph" transform="scale(1 1) rotate(0) translate(4 581.74)">
<title>IBM&#45;XIV Alert Definitions/XIV&#45;Storage Pool/Utilization</title>
<polygon fill="white" stroke="none" points="-4,4 -4,-581.74 1062.72,-581.74 1062.72,4 -4,4"/>
<!-- Capacity entry -->
<g id="${uniqueid}_node1" class="node"><title>Capacity entry</title>
<g id="a_${uniqueid}_node1"><a xlink:href="#1413371327297" xlink:title="com.watch4net.alerting.operation.FilteredEntryPoint">
<ellipse fill="#984ea3" stroke="black" cx="82.0244" cy="-325.87" rx="79.8859" ry="18"/>
<text text-anchor="middle" x="82.0244" y="-322.17" font-family="Times,serif" font-size="14.00" fill="white">Capacity entry</text>
</a>
</g>
</g>
<!-- Ratio -->
<g id="${uniqueid}_node3" class="node"><title>Ratio</title>
<g id="a_${uniqueid}_node3"><a xlink:href="#1413371436877" xlink:title="com.watch4net.alerting.operation.arithmetic.DataArithmeticOperation">
<polygon fill="#377eb8" stroke="black" points="254.049,-311.87 200.049,-311.87 200.049,-275.87 254.049,-275.87 254.049,-311.87"/>
<text text-anchor="middle" x="227.049" y="-290.17" font-family="Times,serif" font-size="14.00" fill="white">Ratio</text>
</a>
</g>
</g>
<!-- Capacity entry&#45;&gt;Ratio -->
<g id="${uniqueid}_edge1" class="edge"><title>Capacity entry:e&#45;&gt;Ratio:w</title>
<path fill="none" stroke="black" d="M163.024,-325.87C180.696,-325.87 179.735,-304.745 190.419,-296.823"/>
<polygon fill="black" stroke="black" points="191.514,-300.148 200.049,-293.87 189.462,-293.456 191.514,-300.148"/>
</g>
<!-- Percentage -->
<g id="${uniqueid}_node2" class="node"><title>Percentage</title>
<g id="a_${uniqueid}_node2"><a xlink:href="#1413371591781" xlink:title="com.watch4net.alerting.operation.arithmetic.ConstantArithmeticOperation">
<polygon fill="#377eb8" stroke="black" points="388.049,-311.87 290.049,-311.87 290.049,-275.87 388.049,-275.87 388.049,-311.87"/>
<text text-anchor="middle" x="339.049" y="-290.17" font-family="Times,serif" font-size="14.00" fill="white">Percentage</text>
</a>
</g>
</g>
<!-- Utilization case -->
<g id="${uniqueid}_node9" class="node"><title>Utilization case</title>
<g id="a_${uniqueid}_node9"><a xlink:href="#1416299454803" xlink:title="com.watch4net.alerting.operation.CaseOperation">
<polygon fill="#377eb8" stroke="black" points="552.049,-311.87 424.049,-311.87 424.049,-275.87 552.049,-275.87 552.049,-311.87"/>
<text text-anchor="middle" x="488.049" y="-290.17" font-family="Times,serif" font-size="14.00" fill="white">Utilization case</text>
</a>
</g>
</g>
<!-- Percentage&#45;&gt;Utilization case -->
<g id="${uniqueid}_edge2" class="edge"><title>Percentage:e&#45;&gt;Utilization case:w</title>
<path fill="none" stroke="black" d="M388.049,-293.87C400.049,-293.87 405.299,-293.87 413.924,-293.87"/>
<polygon fill="black" stroke="black" points="414.049,-297.37 424.049,-293.87 414.049,-290.37 414.049,-297.37"/>
</g>
<!-- Ratio&#45;&gt;Percentage -->
<g id="${uniqueid}_edge3" class="edge"><title>Ratio:e&#45;&gt;Percentage:w</title>
<path fill="none" stroke="black" d="M254.049,-293.87C266.049,-293.87 271.299,-293.87 279.924,-293.87"/>
<polygon fill="black" stroke="black" points="280.049,-297.37 290.049,-293.87 280.049,-290.37 280.049,-297.37"/>
</g>
<!-- UsedCapacity
entry -->
<g id="${uniqueid}_node4" class="node"><title>UsedCapacity
entry</title>
<g id="a_${uniqueid}_node4"><a xlink:href="#693105329869151" xlink:title="com.watch4net.alerting.operation.FilteredEntryPoint">
<ellipse fill="#984ea3" stroke="black" cx="82.0244" cy="-262.87" rx="82.0488" ry="26.7407"/>
<text text-anchor="middle" x="82.0244" y="-266.67" font-family="Times,serif" font-size="14.00" fill="white">UsedCapacity</text>
<text text-anchor="middle" x="82.0244" y="-251.67" font-family="Times,serif" font-size="14.00" fill="white">entry</text>
</a>
</g>
</g>
<!-- UsedCapacity
entry&#45;&gt;Ratio -->
<g id="${uniqueid}_edge4" class="edge"><title>UsedCapacity
entry:e&#45;&gt;Ratio:w</title>
<path fill="none" stroke="black" d="M164.049,-262.87C181.039,-262.87 180.324,-282.943 190.399,-290.784"/>
<polygon fill="black" stroke="black" points="189.458,-294.158 200.049,-293.87 191.59,-287.491 189.458,-294.158"/>
</g>
<!-- Utilization
Major check -->
<g id="${uniqueid}_node5" class="node"><title>Utilization
Major check</title>
<g id="a_${uniqueid}_node5"><a xlink:href="#1413373683446" xlink:title="com.watch4net.alerting.operation.comparator.ConstantComparatorOperation">
<polygon fill="#ff7f00" stroke="black" points="712.049,-544.87 605.049,-506.87 712.049,-468.87 819.049,-506.87 712.049,-544.87"/>
<text text-anchor="middle" x="712.049" y="-510.67" font-family="Times,serif" font-size="14.00" fill="white">Utilization</text>
<text text-anchor="middle" x="712.049" y="-495.67" font-family="Times,serif" font-size="14.00" fill="white">Major check</text>
</a>
</g>
</g>
<!-- Utilization_
MajorClearTrap -->
<g id="${uniqueid}_node14" class="node"><title>Utilization_
MajorClearTrap</title>
<g id="a_${uniqueid}_node14"><a xlink:href="#1425931582358" xlink:title="com.watch4net.alerting.action.SNMPTrapAction">
<ellipse fill="#4daf4a" stroke="black" cx="965.387" cy="-550.87" rx="92.7622" ry="26.7407"/>
<text text-anchor="middle" x="965.387" y="-554.67" font-family="Times,serif" font-size="14.00" fill="white">Utilization_</text>
<text text-anchor="middle" x="965.387" y="-539.67" font-family="Times,serif" font-size="14.00" fill="white">MajorClearTrap</text>
</a>
</g>
</g>
<!-- Utilization
Major check&#45;&gt;Utilization_
MajorClearTrap -->
<g id="${uniqueid}_edge5" class="edge"><title>Utilization
Major check:ne&#45;&gt;Utilization_
MajorClearTrap:w</title>
<path fill="none" stroke="black" d="M739.049,-534.87C740.628,-536.449 738.427,-543.334 740.049,-544.87 780.188,-582.889 809.69,-554.643 862.007,-551.202"/>
<polygon fill="black" stroke="black" points="862.17,-554.699 872.049,-550.87 861.938,-547.703 862.17,-554.699"/>
<text text-anchor="middle" x="722.049" y="-538.67" font-family="Times,serif" font-size="14.00">false</text>
</g>
<!-- Utilization_
MajorTrap -->
<g id="${uniqueid}_node15" class="node"><title>Utilization_
MajorTrap</title>
<g id="a_${uniqueid}_node15"><a xlink:href="#1413373971599" xlink:title="com.watch4net.alerting.action.SNMPTrapAction">
<ellipse fill="#4daf4a" stroke="black" cx="965.387" cy="-478.87" rx="69.0935" ry="26.7407"/>
<text text-anchor="middle" x="965.387" y="-482.67" font-family="Times,serif" font-size="14.00" fill="white">Utilization_</text>
<text text-anchor="middle" x="965.387" y="-467.67" font-family="Times,serif" font-size="14.00" fill="white">MajorTrap</text>
</a>
</g>
</g>
<!-- Utilization
Major check&#45;&gt;Utilization_
MajorTrap -->
<g id="${uniqueid}_edge6" class="edge"><title>Utilization
Major check:se&#45;&gt;Utilization_
MajorTrap:w</title>
<path fill="none" stroke="black" d="M741.049,-478.87C786.791,-433.128 822.45,-474.224 884.24,-478.516"/>
<polygon fill="black" stroke="black" points="884.271,-482.019 894.387,-478.87 884.515,-475.024 884.271,-482.019"/>
<text text-anchor="middle" x="725.549" y="-467.67" font-family="Times,serif" font-size="14.00">true</text>
</g>
<!-- Utilization
Minor check -->
<g id="${uniqueid}_node6" class="node"><title>Utilization
Minor check</title>
<g id="a_${uniqueid}_node6"><a xlink:href="#1413373903453" xlink:title="com.watch4net.alerting.operation.comparator.ConstantComparatorOperation">
<polygon fill="#ff7f00" stroke="black" points="712.049,-400.87 605.049,-362.87 712.049,-324.87 819.049,-362.87 712.049,-400.87"/>
<text text-anchor="middle" x="712.049" y="-366.67" font-family="Times,serif" font-size="14.00" fill="white">Utilization</text>
<text text-anchor="middle" x="712.049" y="-351.67" font-family="Times,serif" font-size="14.00" fill="white">Minor check</text>
</a>
</g>
</g>
<!-- Utilization_
MinorClearTrap -->
<g id="${uniqueid}_node16" class="node"><title>Utilization_
MinorClearTrap</title>
<g id="a_${uniqueid}_node16"><a xlink:href="#1425931610305" xlink:title="com.watch4net.alerting.action.SNMPTrapAction">
<ellipse fill="#4daf4a" stroke="black" cx="965.387" cy="-406.87" rx="93.1765" ry="26.7407"/>
<text text-anchor="middle" x="965.387" y="-410.67" font-family="Times,serif" font-size="14.00" fill="white">Utilization_</text>
<text text-anchor="middle" x="965.387" y="-395.67" font-family="Times,serif" font-size="14.00" fill="white">MinorClearTrap</text>
</a>
</g>
</g>
<!-- Utilization
Minor check&#45;&gt;Utilization_
MinorClearTrap -->
<g id="${uniqueid}_edge7" class="edge"><title>Utilization
Minor check:ne&#45;&gt;Utilization_
MinorClearTrap:w</title>
<path fill="none" stroke="black" d="M739.049,-390.87C740.628,-392.449 738.427,-399.334 740.049,-400.87 780.188,-438.889 809.69,-410.643 862.007,-407.202"/>
<polygon fill="black" stroke="black" points="862.17,-410.699 872.049,-406.87 861.938,-403.703 862.17,-410.699"/>
<text text-anchor="middle" x="722.049" y="-394.67" font-family="Times,serif" font-size="14.00">false</text>
</g>
<!-- Utilization_
MinorTrap -->
<g id="${uniqueid}_node17" class="node"><title>Utilization_
MinorTrap</title>
<g id="a_${uniqueid}_node17"><a xlink:href="#1413374091910" xlink:title="com.watch4net.alerting.action.SNMPTrapAction">
<ellipse fill="#4daf4a" stroke="black" cx="965.387" cy="-334.87" rx="69.0935" ry="26.7407"/>
<text text-anchor="middle" x="965.387" y="-338.67" font-family="Times,serif" font-size="14.00" fill="white">Utilization_</text>
<text text-anchor="middle" x="965.387" y="-323.67" font-family="Times,serif" font-size="14.00" fill="white">MinorTrap</text>
</a>
</g>
</g>
<!-- Utilization
Minor check&#45;&gt;Utilization_
MinorTrap -->
<g id="${uniqueid}_edge8" class="edge"><title>Utilization
Minor check:se&#45;&gt;Utilization_
MinorTrap:w</title>
<path fill="none" stroke="black" d="M741.049,-334.87C786.791,-289.128 822.45,-330.224 884.24,-334.516"/>
<polygon fill="black" stroke="black" points="884.271,-338.019 894.387,-334.87 884.515,-331.024 884.271,-338.019"/>
<text text-anchor="middle" x="725.549" y="-323.67" font-family="Times,serif" font-size="14.00">true</text>
</g>
<!-- Utilization
critical comp -->
<g id="${uniqueid}_node7" class="node"><title>Utilization
critical comp</title>
<g id="a_${uniqueid}_node7"><a xlink:href="#1413371746309" xlink:title="com.watch4net.alerting.operation.comparator.ConstantComparatorOperation">
<polygon fill="#ff7f00" stroke="black" points="712.049,-262.87 601.049,-224.87 712.049,-186.87 823.049,-224.87 712.049,-262.87"/>
<text text-anchor="middle" x="712.049" y="-228.67" font-family="Times,serif" font-size="14.00" fill="white">Utilization</text>
<text text-anchor="middle" x="712.049" y="-213.67" font-family="Times,serif" font-size="14.00" fill="white">critical comp</text>
</a>
</g>
</g>
<!-- Utilization_
CriticalClear
Trap -->
<g id="${uniqueid}_node10" class="node"><title>Utilization_
CriticalClear
Trap</title>
<g id="a_${uniqueid}_node10"><a xlink:href="#1425931552330" xlink:title="com.watch4net.alerting.action.SNMPTrapAction">
<ellipse fill="#4daf4a" stroke="black" cx="965.387" cy="-252.87" rx="77.5641" ry="37.4533"/>
<text text-anchor="middle" x="965.387" y="-264.17" font-family="Times,serif" font-size="14.00" fill="white">Utilization_</text>
<text text-anchor="middle" x="965.387" y="-249.17" font-family="Times,serif" font-size="14.00" fill="white">CriticalClear</text>
<text text-anchor="middle" x="965.387" y="-234.17" font-family="Times,serif" font-size="14.00" fill="white">Trap</text>
</a>
</g>
</g>
<!-- Utilization
critical comp&#45;&gt;Utilization_
CriticalClear
Trap -->
<g id="${uniqueid}_edge9" class="edge"><title>Utilization
critical comp:ne&#45;&gt;Utilization_
CriticalClear
Trap:w</title>
<path fill="none" stroke="black" d="M739.049,-252.87C740.628,-254.449 738.393,-261.371 740.049,-262.87 767.4,-287.623 786.273,-265.755 823.049,-262.87 847.798,-260.928 855.866,-254.781 876.372,-253.229"/>
<polygon fill="black" stroke="black" points="876.519,-256.726 886.387,-252.87 876.268,-249.73 876.519,-256.726"/>
<text text-anchor="middle" x="722.049" y="-256.67" font-family="Times,serif" font-size="14.00">false</text>
</g>
<!-- Utilization_
CriticalTrap -->
<g id="${uniqueid}_node11" class="node"><title>Utilization_
CriticalTrap</title>
<g id="a_${uniqueid}_node11"><a xlink:href="#1413373787571" xlink:title="com.watch4net.alerting.action.SNMPTrapAction">
<ellipse fill="#4daf4a" stroke="black" cx="965.387" cy="-170.87" rx="73.5782" ry="26.7407"/>
<text text-anchor="middle" x="965.387" y="-174.67" font-family="Times,serif" font-size="14.00" fill="white">Utilization_</text>
<text text-anchor="middle" x="965.387" y="-159.67" font-family="Times,serif" font-size="14.00" fill="white">CriticalTrap</text>
</a>
</g>
</g>
<!-- Utilization
critical comp&#45;&gt;Utilization_
CriticalTrap -->
<g id="${uniqueid}_edge10" class="edge"><title>Utilization
critical comp:se&#45;&gt;Utilization_
CriticalTrap:w</title>
<path fill="none" stroke="black" d="M741.049,-196.87C786.268,-151.651 819.495,-168.851 880.373,-170.715"/>
<polygon fill="black" stroke="black" points="880.334,-174.214 890.387,-170.87 880.442,-167.215 880.334,-174.214"/>
<text text-anchor="middle" x="725.549" y="-185.67" font-family="Times,serif" font-size="14.00">true</text>
</g>
<!-- Utilization Info
check -->
<g id="${uniqueid}_node8" class="node"><title>Utilization Info
check</title>
<g id="a_${uniqueid}_node8"><a xlink:href="#1413374043503" xlink:title="com.watch4net.alerting.operation.comparator.ConstantComparatorOperation">
<polygon fill="#ff7f00" stroke="black" points="712.049,-107.87 588.049,-69.8701 712.049,-31.8701 836.049,-69.8701 712.049,-107.87"/>
<text text-anchor="middle" x="712.049" y="-73.6701" font-family="Times,serif" font-size="14.00" fill="white">Utilization Info</text>
<text text-anchor="middle" x="712.049" y="-58.6701" font-family="Times,serif" font-size="14.00" fill="white">check</text>
</a>
</g>
</g>
<!-- Utilization_
INFOClearTrap -->
<g id="${uniqueid}_node12" class="node"><title>Utilization_
INFOClearTrap</title>
<g id="a_${uniqueid}_node12"><a xlink:href="#1425931643044" xlink:title="com.watch4net.alerting.action.SNMPTrapAction">
<ellipse fill="#4daf4a" stroke="black" cx="965.387" cy="-98.8701" rx="90.5193" ry="26.7407"/>
<text text-anchor="middle" x="965.387" y="-102.67" font-family="Times,serif" font-size="14.00" fill="white">Utilization_</text>
<text text-anchor="middle" x="965.387" y="-87.6701" font-family="Times,serif" font-size="14.00" fill="white">INFOClearTrap</text>
</a>
</g>
</g>
<!-- Utilization Info
check&#45;&gt;Utilization_
INFOClearTrap -->
<g id="${uniqueid}_edge11" class="edge"><title>Utilization Info
check:ne&#45;&gt;Utilization_
INFOClearTrap:w</title>
<path fill="none" stroke="black" d="M740.049,-98.8701C742.895,-101.716 738.05,-105.186 741.049,-107.87 772.51,-136.029 794.121,-112.852 836.049,-107.87 849.027,-106.328 854.013,-101.872 863.298,-99.8674"/>
<polygon fill="black" stroke="black" points="863.78,-103.337 873.387,-98.8701 863.091,-96.3709 863.78,-103.337"/>
<text text-anchor="middle" x="723.049" y="-102.67" font-family="Times,serif" font-size="14.00">false</text>
</g>
<!-- Utilization_
INFOTrap -->
<g id="${uniqueid}_node13" class="node"><title>Utilization_
INFOTrap</title>
<g id="a_${uniqueid}_node13"><a xlink:href="#1413528782504" xlink:title="com.watch4net.alerting.action.SNMPTrapAction">
<ellipse fill="#4daf4a" stroke="black" cx="965.387" cy="-26.8701" rx="69.0935" ry="26.7407"/>
<text text-anchor="middle" x="965.387" y="-30.6701" font-family="Times,serif" font-size="14.00" fill="white">Utilization_</text>
<text text-anchor="middle" x="965.387" y="-15.6701" font-family="Times,serif" font-size="14.00" fill="white">INFOTrap</text>
</a>
</g>
</g>
<!-- Utilization Info
check&#45;&gt;Utilization_
INFOTrap -->
<g id="${uniqueid}_edge12" class="edge"><title>Utilization Info
check:se&#45;&gt;Utilization_
INFOTrap:w</title>
<path fill="none" stroke="black" d="M742.049,-40.8701C787.684,4.76552 822.682,-23.621 884.269,-26.6217"/>
<polygon fill="black" stroke="black" points="884.304,-30.1235 894.387,-26.8701 884.476,-23.1256 884.304,-30.1235"/>
<text text-anchor="middle" x="726.549" y="-29.6701" font-family="Times,serif" font-size="14.00">true</text>
</g>
<!-- Utilization case&#45;&gt;Utilization
Major check -->
<g id="${uniqueid}_edge13" class="edge"><title>Utilization case:e&#45;&gt;Utilization
Major check:w</title>
<path fill="none" stroke="black" d="M552.049,-293.87C645.689,-293.87 517.399,-490.554 593.701,-505.92"/>
<polygon fill="black" stroke="black" points="593.771,-509.441 604.049,-506.87 594.411,-502.471 593.771,-509.441"/>
</g>
<!-- Utilization case&#45;&gt;Utilization
Minor check -->
<g id="${uniqueid}_edge14" class="edge"><title>Utilization case:e&#45;&gt;Utilization
Minor check:w</title>
<path fill="none" stroke="black" d="M552.049,-293.87C586.549,-293.87 570.034,-349.566 594.172,-360.879"/>
<polygon fill="black" stroke="black" points="593.554,-364.325 604.049,-362.87 594.937,-357.463 593.554,-364.325"/>
</g>
<!-- Utilization case&#45;&gt;Utilization
critical comp -->
<g id="${uniqueid}_edge15" class="edge"><title>Utilization case:e&#45;&gt;Utilization
critical comp:w</title>
<path fill="none" stroke="black" d="M552.049,-293.87C585.466,-293.87 567.614,-238.657 590.217,-227.011"/>
<polygon fill="black" stroke="black" points="591.022,-230.417 600.049,-224.87 589.533,-223.578 591.022,-230.417"/>
</g>
<!-- Utilization case&#45;&gt;Utilization Info
check -->
<g id="${uniqueid}_edge16" class="edge"><title>Utilization case:e&#45;&gt;Utilization Info
check:w</title>
<path fill="none" stroke="black" d="M552.049,-293.87C649.14,-293.87 499.144,-86.1866 577.897,-70.7726"/>
<polygon fill="black" stroke="black" points="578.398,-74.2419 588.049,-69.8701 577.778,-67.2694 578.398,-74.2419"/>
</g>
</g>
</svg>
