<?xml version="1.0" encoding="UTF-8" standalone="no"?>
<!DOCTYPE svg PUBLIC "-//W3C//DTD SVG 1.1//EN"
 "http://www.w3.org/Graphics/SVG/1.1/DTD/svg11.dtd">
<!-- Generated by graphviz version 2.38.0 (20140413.2041)
 -->
<!-- Title: IBMDS5k Alert Definitions/IBMDS5k&#45;Disk/Read Requests Pages: 1 -->
<svg width="986pt" height="422pt"
 viewBox="0.00 0.00 986.04 421.74" xmlns="http://www.w3.org/2000/svg" xmlns:xlink="http://www.w3.org/1999/xlink">
<g id="${uniqueid}" class="graph" transform="scale(1 1) rotate(0) translate(4 417.74)">
<title>IBMDS5k Alert Definitions/IBMDS5k&#45;Disk/Read Requests</title>
<polygon fill="white" stroke="none" points="-4,4 -4,-417.74 982.039,-417.74 982.039,4 -4,4"/>
<!-- Disk read req
entry -->
<g id="${uniqueid}_node1" class="node"><title>Disk read req
entry</title>
<g id="a_${uniqueid}_node1"><a xlink:href="#2453563524673241" xlink:title="com.watch4net.alerting.operation.FilteredEntryPoint">
<ellipse fill="#984ea3" stroke="black" cx="80.6102" cy="-206.87" rx="80.7205" ry="26.7407"/>
<text text-anchor="middle" x="80.6102" y="-210.67" font-family="Times,serif" font-size="14.00" fill="white">Disk read req</text>
<text text-anchor="middle" x="80.6102" y="-195.67" font-family="Times,serif" font-size="14.00" fill="white">entry</text>
</a>
</g>
</g>
<!-- Roundoff -->
<g id="${uniqueid}_node12" class="node"><title>Roundoff</title>
<g id="a_${uniqueid}_node12"><a xlink:href="#1441797558521" xlink:title="com.watch4net.alerting.operation.math.ConstantMathOperation">
<polygon fill="#377eb8" stroke="black" points="278.22,-224.87 197.22,-224.87 197.22,-188.87 278.22,-188.87 278.22,-224.87"/>
<text text-anchor="middle" x="237.72" y="-203.17" font-family="Times,serif" font-size="14.00" fill="white">Roundoff</text>
</a>
</g>
</g>
<!-- Disk read req
entry&#45;&gt;Roundoff -->
<g id="${uniqueid}_edge1" class="edge"><title>Disk read req
entry:e&#45;&gt;Roundoff:w</title>
<path fill="none" stroke="black" d="M161.22,-206.87C173.22,-206.87 178.47,-206.87 187.095,-206.87"/>
<polygon fill="black" stroke="black" points="187.22,-210.37 197.22,-206.87 187.22,-203.37 187.22,-210.37"/>
</g>
<!-- Read Req Case -->
<g id="${uniqueid}_node2" class="node"><title>Read Req Case</title>
<g id="a_${uniqueid}_node2"><a xlink:href="#2453563524713898" xlink:title="com.watch4net.alerting.operation.CaseOperation">
<polygon fill="#377eb8" stroke="black" points="439.22,-224.87 314.22,-224.87 314.22,-188.87 439.22,-188.87 439.22,-224.87"/>
<text text-anchor="middle" x="376.72" y="-203.17" font-family="Times,serif" font-size="14.00" fill="white">Read Req Case</text>
</a>
</g>
</g>
<!-- Read Req Maj
Comp -->
<g id="${uniqueid}_node3" class="node"><title>Read Req Maj
Comp</title>
<g id="a_${uniqueid}_node3"><a xlink:href="#2453563524744846" xlink:title="com.watch4net.alerting.operation.comparator.ConstantComparatorOperation">
<polygon fill="#ff7f00" stroke="black" points="608.22,-381.87 491.22,-343.87 608.22,-305.87 725.22,-343.87 608.22,-381.87"/>
<text text-anchor="middle" x="608.22" y="-347.67" font-family="Times,serif" font-size="14.00" fill="white">Read Req Maj</text>
<text text-anchor="middle" x="608.22" y="-332.67" font-family="Times,serif" font-size="14.00" fill="white">Comp</text>
</a>
</g>
</g>
<!-- Read Req Case&#45;&gt;Read Req Maj
Comp -->
<g id="${uniqueid}_edge2" class="edge"><title>Read Req Case:e&#45;&gt;Read Req Maj
Comp:w</title>
<path fill="none" stroke="black" d="M439.22,-206.87C500.384,-206.87 434.006,-328.286 480.224,-342.514"/>
<polygon fill="black" stroke="black" points="479.841,-345.994 490.22,-343.87 480.782,-339.058 479.841,-345.994"/>
</g>
<!-- Read Req Minor
Comp -->
<g id="${uniqueid}_node4" class="node"><title>Read Req Minor
Comp</title>
<g id="a_${uniqueid}_node4"><a xlink:href="#2453563524788099" xlink:title="com.watch4net.alerting.operation.comparator.ConstantComparatorOperation">
<polygon fill="#ff7f00" stroke="black" points="608.22,-244.87 475.22,-206.87 608.22,-168.87 741.22,-206.87 608.22,-244.87"/>
<text text-anchor="middle" x="608.22" y="-210.67" font-family="Times,serif" font-size="14.00" fill="white">Read Req Minor</text>
<text text-anchor="middle" x="608.22" y="-195.67" font-family="Times,serif" font-size="14.00" fill="white">Comp</text>
</a>
</g>
</g>
<!-- Read Req Case&#45;&gt;Read Req Minor
Comp -->
<g id="${uniqueid}_edge3" class="edge"><title>Read Req Case:e&#45;&gt;Read Req Minor
Comp:w</title>
<path fill="none" stroke="black" d="M439.22,-206.87C451.22,-206.87 456.47,-206.87 465.095,-206.87"/>
<polygon fill="black" stroke="black" points="465.22,-210.37 475.22,-206.87 465.22,-203.37 465.22,-210.37"/>
</g>
<!-- ReadReq Crit
comp -->
<g id="${uniqueid}_node5" class="node"><title>ReadReq Crit
comp</title>
<g id="a_${uniqueid}_node5"><a xlink:href="#2453563524719677" xlink:title="com.watch4net.alerting.operation.comparator.ConstantComparatorOperation">
<polygon fill="#ff7f00" stroke="black" points="608.22,-107.87 495.22,-69.8701 608.22,-31.8701 721.22,-69.8701 608.22,-107.87"/>
<text text-anchor="middle" x="608.22" y="-73.6701" font-family="Times,serif" font-size="14.00" fill="white">ReadReq Crit</text>
<text text-anchor="middle" x="608.22" y="-58.6701" font-family="Times,serif" font-size="14.00" fill="white">comp</text>
</a>
</g>
</g>
<!-- Read Req Case&#45;&gt;ReadReq Crit
comp -->
<g id="${uniqueid}_edge4" class="edge"><title>Read Req Case:e&#45;&gt;ReadReq Crit
comp:w</title>
<path fill="none" stroke="black" d="M439.22,-206.87C500.988,-206.87 437.054,-85.4544 484.091,-71.226"/>
<polygon fill="black" stroke="black" points="484.773,-74.666 494.22,-69.8701 483.844,-67.7278 484.773,-74.666"/>
</g>
<!-- ReadReq_Major
Trap -->
<g id="${uniqueid}_node8" class="node"><title>ReadReq_Major
Trap</title>
<g id="a_${uniqueid}_node8"><a xlink:href="#2453563524751477" xlink:title="com.watch4net.alerting.action.SNMPTrapAction">
<ellipse fill="#4daf4a" stroke="black" cx="877.63" cy="-314.87" rx="92.7622" ry="26.7407"/>
<text text-anchor="middle" x="877.63" y="-318.67" font-family="Times,serif" font-size="14.00" fill="white">ReadReq_Major</text>
<text text-anchor="middle" x="877.63" y="-303.67" font-family="Times,serif" font-size="14.00" fill="white">Trap</text>
</a>
</g>
</g>
<!-- Read Req Maj
Comp&#45;&gt;ReadReq_Major
Trap -->
<g id="${uniqueid}_edge6" class="edge"><title>Read Req Maj
Comp:se&#45;&gt;ReadReq_Major
Trap:w</title>
<path fill="none" stroke="black" d="M638.22,-314.87C681.419,-271.671 715.134,-310.145 773.285,-314.482"/>
<polygon fill="black" stroke="black" points="773.505,-317.993 783.63,-314.87 773.768,-310.998 773.505,-317.993"/>
<text text-anchor="middle" x="622.72" y="-303.67" font-family="Times,serif" font-size="14.00">true</text>
</g>
<!-- ReadReq_Major_
Clear -->
<g id="${uniqueid}_node9" class="node"><title>ReadReq_Major_
Clear</title>
<g id="a_${uniqueid}_node9"><a xlink:href="#1426747565136" xlink:title="com.watch4net.alerting.action.SNMPTrapAction">
<ellipse fill="#4daf4a" stroke="black" cx="877.63" cy="-386.87" rx="97.6615" ry="26.7407"/>
<text text-anchor="middle" x="877.63" y="-390.67" font-family="Times,serif" font-size="14.00" fill="white">ReadReq_Major_</text>
<text text-anchor="middle" x="877.63" y="-375.67" font-family="Times,serif" font-size="14.00" fill="white">Clear</text>
</a>
</g>
</g>
<!-- Read Req Maj
Comp&#45;&gt;ReadReq_Major_
Clear -->
<g id="${uniqueid}_edge5" class="edge"><title>Read Req Maj
Comp:ne&#45;&gt;ReadReq_Major_
Clear:w</title>
<path fill="none" stroke="black" d="M636.22,-372.87C639.066,-375.716 634.269,-379.133 637.22,-381.87 680.81,-422.294 712.156,-390.76 768.578,-387.19"/>
<polygon fill="black" stroke="black" points="768.746,-390.686 778.63,-386.87 768.523,-383.69 768.746,-390.686"/>
<text text-anchor="middle" x="619.22" y="-376.67" font-family="Times,serif" font-size="14.00">false</text>
</g>
<!-- ReadReq_Minor
Trap -->
<g id="${uniqueid}_node10" class="node"><title>ReadReq_Minor
Trap</title>
<g id="a_${uniqueid}_node10"><a xlink:href="#2453563524796012" xlink:title="com.watch4net.alerting.action.SNMPTrapAction">
<ellipse fill="#4daf4a" stroke="black" cx="877.63" cy="-170.87" rx="92.7622" ry="26.7407"/>
<text text-anchor="middle" x="877.63" y="-174.67" font-family="Times,serif" font-size="14.00" fill="white">ReadReq_Minor</text>
<text text-anchor="middle" x="877.63" y="-159.67" font-family="Times,serif" font-size="14.00" fill="white">Trap</text>
</a>
</g>
</g>
<!-- Read Req Minor
Comp&#45;&gt;ReadReq_Minor
Trap -->
<g id="${uniqueid}_edge8" class="edge"><title>Read Req Minor
Comp:se&#45;&gt;ReadReq_Minor
Trap:w</title>
<path fill="none" stroke="black" d="M639.22,-176.87C682.159,-133.932 715.56,-166.812 773.349,-170.537"/>
<polygon fill="black" stroke="black" points="773.521,-174.044 783.63,-170.87 773.748,-167.048 773.521,-174.044"/>
<text text-anchor="middle" x="623.72" y="-165.67" font-family="Times,serif" font-size="14.00">true</text>
</g>
<!-- ReadReq_Minor_
Clear -->
<g id="${uniqueid}_node11" class="node"><title>ReadReq_Minor_
Clear</title>
<g id="a_${uniqueid}_node11"><a xlink:href="#1426747611117" xlink:title="com.watch4net.alerting.action.SNMPTrapAction">
<ellipse fill="#4daf4a" stroke="black" cx="877.63" cy="-242.87" rx="98.0761" ry="26.7407"/>
<text text-anchor="middle" x="877.63" y="-246.67" font-family="Times,serif" font-size="14.00" fill="white">ReadReq_Minor_</text>
<text text-anchor="middle" x="877.63" y="-231.67" font-family="Times,serif" font-size="14.00" fill="white">Clear</text>
</a>
</g>
</g>
<!-- Read Req Minor
Comp&#45;&gt;ReadReq_Minor_
Clear -->
<g id="${uniqueid}_edge7" class="edge"><title>Read Req Minor
Comp:ne&#45;&gt;ReadReq_Minor_
Clear:w</title>
<path fill="none" stroke="black" d="M637.22,-236.87C639.754,-239.404 635.534,-242.499 638.22,-244.87 672.539,-275.166 695.459,-246.092 741.22,-244.87 753.833,-244.533 759.251,-243.558 768.382,-243.106"/>
<polygon fill="black" stroke="black" points="768.713,-246.599 778.63,-242.87 768.552,-239.601 768.713,-246.599"/>
<text text-anchor="middle" x="620.22" y="-240.67" font-family="Times,serif" font-size="14.00">false</text>
</g>
<!-- ReadReq_
Critical_Clear -->
<g id="${uniqueid}_node6" class="node"><title>ReadReq_
Critical_Clear</title>
<g id="a_${uniqueid}_node6"><a xlink:href="#1426747519136" xlink:title="com.watch4net.alerting.action.SNMPTrapAction">
<ellipse fill="#4daf4a" stroke="black" cx="877.63" cy="-98.8701" rx="82.9636" ry="26.7407"/>
<text text-anchor="middle" x="877.63" y="-102.67" font-family="Times,serif" font-size="14.00" fill="white">ReadReq_</text>
<text text-anchor="middle" x="877.63" y="-87.6701" font-family="Times,serif" font-size="14.00" fill="white">Critical_Clear</text>
</a>
</g>
</g>
<!-- ReadReq Crit
comp&#45;&gt;ReadReq_
Critical_Clear -->
<g id="${uniqueid}_edge9" class="edge"><title>ReadReq Crit
comp:ne&#45;&gt;ReadReq_
Critical_Clear:w</title>
<path fill="none" stroke="black" d="M636.22,-98.8701C639.066,-101.716 634.221,-105.186 637.22,-107.87 686.469,-151.95 720.411,-104.238 783.284,-99.2783"/>
<polygon fill="black" stroke="black" points="783.775,-102.762 793.63,-98.8701 783.499,-95.7672 783.775,-102.762"/>
<text text-anchor="middle" x="619.22" y="-102.67" font-family="Times,serif" font-size="14.00">false</text>
</g>
<!-- ReadReq_Critical
Trap -->
<g id="${uniqueid}_node7" class="node"><title>ReadReq_Critical
Trap</title>
<g id="a_${uniqueid}_node7"><a xlink:href="#2453563524731978" xlink:title="com.watch4net.alerting.action.SNMPTrapAction">
<ellipse fill="#4daf4a" stroke="black" cx="877.63" cy="-26.8701" rx="100.318" ry="26.7407"/>
<text text-anchor="middle" x="877.63" y="-30.6701" font-family="Times,serif" font-size="14.00" fill="white">ReadReq_Critical</text>
<text text-anchor="middle" x="877.63" y="-15.6701" font-family="Times,serif" font-size="14.00" fill="white">Trap</text>
</a>
</g>
</g>
<!-- ReadReq Crit
comp&#45;&gt;ReadReq_Critical
Trap -->
<g id="${uniqueid}_edge10" class="edge"><title>ReadReq Crit
comp:se&#45;&gt;ReadReq_Critical
Trap:w</title>
<path fill="none" stroke="black" d="M638.22,-40.8701C679.638,0.547662 711.356,-23.7192 766.943,-26.6011"/>
<polygon fill="black" stroke="black" points="767.132,-30.1072 777.22,-26.8701 767.315,-23.1096 767.132,-30.1072"/>
<text text-anchor="middle" x="622.72" y="-29.6701" font-family="Times,serif" font-size="14.00">true</text>
</g>
<!-- Roundoff&#45;&gt;Read Req Case -->
<g id="${uniqueid}_edge11" class="edge"><title>Roundoff:e&#45;&gt;Read Req Case:w</title>
<path fill="none" stroke="black" d="M278.22,-206.87C290.22,-206.87 295.47,-206.87 304.095,-206.87"/>
<polygon fill="black" stroke="black" points="304.22,-210.37 314.22,-206.87 304.22,-203.37 304.22,-210.37"/>
</g>
</g>
</svg>
