<?xml version="1.0" encoding="UTF-8" standalone="no"?>
<!DOCTYPE svg PUBLIC "-//W3C//DTD SVG 1.1//EN"
 "http://www.w3.org/Graphics/SVG/1.1/DTD/svg11.dtd">
<!-- Generated by graphviz version 2.38.0 (20140413.2041)
 -->
<!-- Title: EMC VMAX Alert Definitions/VMAX&#45;Devices/High Write Percent Pages: 1 -->
<svg width="918pt" height="244pt"
 viewBox="0.00 0.00 917.87 243.77" xmlns="http://www.w3.org/2000/svg" xmlns:xlink="http://www.w3.org/1999/xlink">
<g id="${uniqueid}" class="graph" transform="scale(1 1) rotate(0) translate(4 239.773)">
<title>EMC VMAX Alert Definitions/VMAX&#45;Devices/High Write Percent</title>
<polygon fill="white" stroke="none" points="-4,4 -4,-239.773 913.865,-239.773 913.865,4 -4,4"/>
<!-- HighWriteIORate -->
<g id="${uniqueid}_node1" class="node"><title>HighWriteIORate</title>
<g id="a_${uniqueid}_node1"><a xlink:href="#2074297882127361" xlink:title="com.watch4net.alerting.operation.FilteredEntryPoint">
<ellipse fill="#984ea3" stroke="black" cx="92.2918" cy="-121.87" rx="92.0841" ry="18"/>
<text text-anchor="middle" x="92.2918" y="-118.17" font-family="Times,serif" font-size="14.00" fill="white">HighWriteIORate</text>
</a>
</g>
</g>
<!-- LUNWriteIORate -->
<g id="${uniqueid}_node4" class="node"><title>LUNWriteIORate</title>
<g id="a_${uniqueid}_node4"><a xlink:href="#2074297882171459" xlink:title="com.watch4net.alerting.operation.CaseOperation">
<polygon fill="#377eb8" stroke="black" points="360.584,-139.87 220.584,-139.87 220.584,-103.87 360.584,-103.87 360.584,-139.87"/>
<text text-anchor="middle" x="290.584" y="-118.17" font-family="Times,serif" font-size="14.00" fill="white">LUNWriteIORate</text>
</a>
</g>
</g>
<!-- HighWriteIORate&#45;&gt;LUNWriteIORate -->
<g id="${uniqueid}_edge1" class="edge"><title>HighWriteIORate:e&#45;&gt;LUNWriteIORate:w</title>
<path fill="none" stroke="black" d="M184.584,-121.87C196.584,-121.87 201.834,-121.87 210.459,-121.87"/>
<polygon fill="black" stroke="black" points="210.584,-125.37 220.584,-121.87 210.584,-118.37 210.584,-125.37"/>
</g>
<!-- LUNHighWrite
Percent_Critical -->
<g id="${uniqueid}_node2" class="node"><title>LUNHighWrite
Percent_Critical</title>
<g id="a_${uniqueid}_node2"><a xlink:href="#2074297882180933" xlink:title="com.watch4net.alerting.operation.comparator.ConstantComparatorOperation">
<polygon fill="#ff7f00" stroke="black" points="530.584,-220.87 396.584,-182.87 530.584,-144.87 664.584,-182.87 530.584,-220.87"/>
<text text-anchor="middle" x="530.584" y="-186.67" font-family="Times,serif" font-size="14.00" fill="white">LUNHighWrite</text>
<text text-anchor="middle" x="530.584" y="-171.67" font-family="Times,serif" font-size="14.00" fill="white">Percent_Critical</text>
</a>
</g>
</g>
<!-- LUN_High_Write_
Percentage_Crit -->
<g id="${uniqueid}_node6" class="node"><title>LUN_High_Write_
Percentage_Crit</title>
<g id="a_${uniqueid}_node6"><a xlink:href="#2074297882198769" xlink:title="com.watch4net.alerting.action.SNMPTrapAction">
<ellipse fill="#4daf4a" stroke="black" cx="805.224" cy="-152.87" rx="103.889" ry="26.7407"/>
<text text-anchor="middle" x="805.224" y="-156.67" font-family="Times,serif" font-size="14.00" fill="white">LUN_High_Write_</text>
<text text-anchor="middle" x="805.224" y="-141.67" font-family="Times,serif" font-size="14.00" fill="white">Percentage_Crit</text>
</a>
</g>
</g>
<!-- LUNHighWrite
Percent_Critical&#45;&gt;LUN_High_Write_
Percentage_Crit -->
<g id="${uniqueid}_edge3" class="edge"><title>LUNHighWrite
Percent_Critical:se&#45;&gt;LUN_High_Write_
Percentage_Crit:w</title>
<path fill="none" stroke="black" d="M561.584,-152.87C602.793,-111.661 634.974,-148.202 690.351,-152.473"/>
<polygon fill="black" stroke="black" points="690.456,-155.98 700.584,-152.87 690.727,-148.985 690.456,-155.98"/>
<text text-anchor="middle" x="546.084" y="-141.67" font-family="Times,serif" font-size="14.00">true</text>
</g>
<!-- SNMP_Clear_Crit -->
<g id="${uniqueid}_node7" class="node"><title>SNMP_Clear_Crit</title>
<g id="a_${uniqueid}_node7"><a xlink:href="#2074297882213973" xlink:title="com.watch4net.alerting.action.SNMPTrapAction">
<ellipse fill="#4daf4a" stroke="black" cx="805.224" cy="-215.87" rx="94.7833" ry="18"/>
<text text-anchor="middle" x="805.224" y="-212.17" font-family="Times,serif" font-size="14.00" fill="white">SNMP_Clear_Crit</text>
</a>
</g>
</g>
<!-- LUNHighWrite
Percent_Critical&#45;&gt;SNMP_Clear_Crit -->
<g id="${uniqueid}_edge2" class="edge"><title>LUNHighWrite
Percent_Critical:ne&#45;&gt;SNMP_Clear_Crit:w</title>
<path fill="none" stroke="black" d="M559.584,-212.87C562.117,-215.404 557.897,-218.499 560.584,-220.87 595.235,-251.46 618.433,-223.447 664.584,-220.87 680.624,-219.975 686.828,-217.283 699.042,-216.265"/>
<polygon fill="black" stroke="black" points="699.368,-219.755 709.224,-215.87 699.096,-212.761 699.368,-219.755"/>
<text text-anchor="middle" x="542.584" y="-216.67" font-family="Times,serif" font-size="14.00">false</text>
</g>
<!-- LUNHighWrite
Percent_Minor -->
<g id="${uniqueid}_node3" class="node"><title>LUNHighWrite
Percent_Minor</title>
<g id="a_${uniqueid}_node3"><a xlink:href="#2074297882224762" xlink:title="com.watch4net.alerting.operation.comparator.ConstantComparatorOperation">
<polygon fill="#ff7f00" stroke="black" points="530.584,-98.8701 405.584,-60.8701 530.584,-22.8701 655.584,-60.8701 530.584,-98.8701"/>
<text text-anchor="middle" x="530.584" y="-64.6701" font-family="Times,serif" font-size="14.00" fill="white">LUNHighWrite</text>
<text text-anchor="middle" x="530.584" y="-49.6701" font-family="Times,serif" font-size="14.00" fill="white">Percent_Minor</text>
</a>
</g>
</g>
<!-- LUN_High_Write_
Percent_Minor -->
<g id="${uniqueid}_node5" class="node"><title>LUN_High_Write_
Percent_Minor</title>
<g id="a_${uniqueid}_node5"><a xlink:href="#2074297882236637" xlink:title="com.watch4net.alerting.action.SNMPTrapAction">
<ellipse fill="#4daf4a" stroke="black" cx="805.224" cy="-26.8701" rx="103.889" ry="26.7407"/>
<text text-anchor="middle" x="805.224" y="-30.6701" font-family="Times,serif" font-size="14.00" fill="white">LUN_High_Write_</text>
<text text-anchor="middle" x="805.224" y="-15.6701" font-family="Times,serif" font-size="14.00" fill="white">Percent_Minor</text>
</a>
</g>
</g>
<!-- LUNHighWrite
Percent_Minor&#45;&gt;LUN_High_Write_
Percent_Minor -->
<g id="${uniqueid}_edge5" class="edge"><title>LUNHighWrite
Percent_Minor:se&#45;&gt;LUN_High_Write_
Percent_Minor:w</title>
<path fill="none" stroke="black" d="M560.584,-31.8701C602.116,9.6621 634.47,-22.7156 690.272,-26.5166"/>
<polygon fill="black" stroke="black" points="690.47,-30.0254 700.584,-26.8701 690.709,-23.0295 690.47,-30.0254"/>
<text text-anchor="middle" x="545.084" y="-20.6701" font-family="Times,serif" font-size="14.00">true</text>
</g>
<!-- SNMP_Clear_Minor -->
<g id="${uniqueid}_node8" class="node"><title>SNMP_Clear_Minor</title>
<g id="a_${uniqueid}_node8"><a xlink:href="#2074297882247084" xlink:title="com.watch4net.alerting.action.SNMPTrapAction">
<ellipse fill="#4daf4a" stroke="black" cx="805.224" cy="-89.8701" rx="104.782" ry="18"/>
<text text-anchor="middle" x="805.224" y="-86.1701" font-family="Times,serif" font-size="14.00" fill="white">SNMP_Clear_Minor</text>
</a>
</g>
</g>
<!-- LUNHighWrite
Percent_Minor&#45;&gt;SNMP_Clear_Minor -->
<g id="${uniqueid}_edge4" class="edge"><title>LUNHighWrite
Percent_Minor:ne&#45;&gt;SNMP_Clear_Minor:w</title>
<path fill="none" stroke="black" d="M558.584,-89.8701C561.429,-92.7159 556.585,-96.186 559.584,-98.8701 591.376,-127.325 613.125,-103.074 655.584,-98.8701 672.075,-97.2371 678.01,-92.3163 690.596,-90.5284"/>
<polygon fill="black" stroke="black" points="690.836,-94.0203 700.584,-89.8701 690.375,-87.0355 690.836,-94.0203"/>
<text text-anchor="middle" x="541.584" y="-93.6701" font-family="Times,serif" font-size="14.00">false</text>
</g>
<!-- LUNWriteIORate&#45;&gt;LUNHighWrite
Percent_Critical -->
<g id="${uniqueid}_edge6" class="edge"><title>LUNWriteIORate:e&#45;&gt;LUNHighWrite
Percent_Critical:w</title>
<path fill="none" stroke="black" d="M360.584,-121.87C387.883,-121.87 371.234,-167.743 386.859,-179.928"/>
<polygon fill="black" stroke="black" points="385.999,-183.324 396.584,-182.87 388.026,-176.624 385.999,-183.324"/>
</g>
<!-- LUNWriteIORate&#45;&gt;LUNHighWrite
Percent_Minor -->
<g id="${uniqueid}_edge7" class="edge"><title>LUNWriteIORate:e&#45;&gt;LUNHighWrite
Percent_Minor:w</title>
<path fill="none" stroke="black" d="M360.584,-121.87C389.964,-121.87 375.866,-74.749 394.716,-63.3369"/>
<polygon fill="black" stroke="black" points="395.731,-66.6909 404.584,-60.8701 394.033,-59.8999 395.731,-66.6909"/>
</g>
</g>
</svg>
