<?xml version="1.0" encoding="UTF-8" standalone="no"?>
<!DOCTYPE svg PUBLIC "-//W3C//DTD SVG 1.1//EN"
 "http://www.w3.org/Graphics/SVG/1.1/DTD/svg11.dtd">
<!-- Generated by graphviz version 2.38.0 (20140413.2041)
 -->
<!-- Title: EMC ECS Alert Definitions/Namespace Quota Notification Pages: 1 -->
<svg width="1194pt" height="278pt"
 viewBox="0.00 0.00 1193.52 277.74" xmlns="http://www.w3.org/2000/svg" xmlns:xlink="http://www.w3.org/1999/xlink">
<g id="${uniqueid}" class="graph" transform="scale(1 1) rotate(0) translate(4 273.74)">
<title>EMC ECS Alert Definitions/Namespace Quota Notification</title>
<polygon fill="white" stroke="none" points="-4,4 -4,-273.74 1189.52,-273.74 1189.52,4 -4,4"/>
<!-- Case -->
<g id="${uniqueid}_node1" class="node"><title>Case</title>
<g id="a_${uniqueid}_node1"><a xlink:href="#4852962973226319" xlink:title="com.watch4net.alerting.operation.CaseOperation">
<polygon fill="#377eb8" stroke="black" points="657.088,-152.87 603.088,-152.87 603.088,-116.87 657.088,-116.87 657.088,-152.87"/>
<text text-anchor="middle" x="630.088" y="-131.17" font-family="Times,serif" font-size="14.00" fill="white">Case</text>
</a>
</g>
</g>
<!-- Namespace_Quota_
Critical -->
<g id="${uniqueid}_node4" class="node"><title>Namespace_Quota_
Critical</title>
<g id="a_${uniqueid}_node4"><a xlink:href="#4852962973231520" xlink:title="com.watch4net.alerting.operation.comparator.ConstantComparatorOperation">
<polygon fill="#ff7f00" stroke="black" points="830.088,-238.87 693.088,-200.87 830.088,-162.87 967.088,-200.87 830.088,-238.87"/>
<text text-anchor="middle" x="830.088" y="-204.67" font-family="Times,serif" font-size="14.00" fill="white">Namespace_Quota_</text>
<text text-anchor="middle" x="830.088" y="-189.67" font-family="Times,serif" font-size="14.00" fill="white">Critical</text>
</a>
</g>
</g>
<!-- Case&#45;&gt;Namespace_Quota_
Critical -->
<g id="${uniqueid}_edge1" class="edge"><title>Case:e&#45;&gt;Namespace_Quota_
Critical:w</title>
<path fill="none" stroke="black" d="M657.088,-134.87C686.324,-134.87 666.377,-185.401 683.318,-198.034"/>
<polygon fill="black" stroke="black" points="682.508,-201.444 693.088,-200.87 684.46,-194.721 682.508,-201.444"/>
</g>
<!-- Namespace_Quota_
Warning -->
<g id="${uniqueid}_node5" class="node"><title>Namespace_Quota_
Warning</title>
<g id="a_${uniqueid}_node5"><a xlink:href="#4852962973286898" xlink:title="com.watch4net.alerting.operation.comparator.ConstantComparatorOperation">
<polygon fill="#ff7f00" stroke="black" points="830.088,-106.87 693.088,-68.8701 830.088,-30.8701 967.088,-68.8701 830.088,-106.87"/>
<text text-anchor="middle" x="830.088" y="-72.6701" font-family="Times,serif" font-size="14.00" fill="white">Namespace_Quota_</text>
<text text-anchor="middle" x="830.088" y="-57.6701" font-family="Times,serif" font-size="14.00" fill="white">Warning</text>
</a>
</g>
</g>
<!-- Case&#45;&gt;Namespace_Quota_
Warning -->
<g id="${uniqueid}_edge2" class="edge"><title>Case:e&#45;&gt;Namespace_Quota_
Warning:w</title>
<path fill="none" stroke="black" d="M657.088,-134.87C686.324,-134.87 666.377,-84.3388 683.318,-71.706"/>
<polygon fill="black" stroke="black" points="684.46,-75.0191 693.088,-68.8701 682.508,-68.2966 684.46,-75.0191"/>
</g>
<!-- Clear Namespace
Critical -->
<g id="${uniqueid}_node2" class="node"><title>Clear Namespace
Critical</title>
<g id="a_${uniqueid}_node2"><a xlink:href="#1430516070616" xlink:title="com.watch4net.alerting.action.SNMPTrapAction">
<ellipse fill="#4daf4a" stroke="black" cx="1094.3" cy="-242.87" rx="91.4341" ry="26.7407"/>
<text text-anchor="middle" x="1094.3" y="-246.67" font-family="Times,serif" font-size="14.00" fill="white">Clear Namespace</text>
<text text-anchor="middle" x="1094.3" y="-231.67" font-family="Times,serif" font-size="14.00" fill="white">Critical</text>
</a>
</g>
</g>
<!-- Clear Namespace
Warning -->
<g id="${uniqueid}_node3" class="node"><title>Clear Namespace
Warning</title>
<g id="a_${uniqueid}_node3"><a xlink:href="#1431554338738" xlink:title="com.watch4net.alerting.action.SNMPTrapAction">
<ellipse fill="#4daf4a" stroke="black" cx="1094.3" cy="-98.8701" rx="91.4341" ry="26.7407"/>
<text text-anchor="middle" x="1094.3" y="-102.67" font-family="Times,serif" font-size="14.00" fill="white">Clear Namespace</text>
<text text-anchor="middle" x="1094.3" y="-87.6701" font-family="Times,serif" font-size="14.00" fill="white">Warning</text>
</a>
</g>
</g>
<!-- Namespace_Quota_
Critical&#45;&gt;Clear Namespace
Critical -->
<g id="${uniqueid}_edge3" class="edge"><title>Namespace_Quota_
Critical:ne&#45;&gt;Clear Namespace
Critical:w</title>
<path fill="none" stroke="black" d="M859.088,-230.87C861.621,-233.404 857.435,-236.461 860.088,-238.87 904.585,-279.273 935.925,-246.864 992.929,-243.198"/>
<polygon fill="black" stroke="black" points="993.206,-246.691 1003.09,-242.87 992.98,-239.695 993.206,-246.691"/>
<text text-anchor="middle" x="840.088" y="-234.67" font-family="Times,serif" font-size="14.00">false</text>
</g>
<!-- Set Namespace
Critical -->
<g id="${uniqueid}_node8" class="node"><title>Set Namespace
Critical</title>
<g id="a_${uniqueid}_node8"><a xlink:href="#4852962973237943" xlink:title="com.watch4net.alerting.action.SNMPTrapAction">
<ellipse fill="#4daf4a" stroke="black" cx="1094.3" cy="-170.87" rx="80.7205" ry="26.7407"/>
<text text-anchor="middle" x="1094.3" y="-174.67" font-family="Times,serif" font-size="14.00" fill="white">Set Namespace</text>
<text text-anchor="middle" x="1094.3" y="-159.67" font-family="Times,serif" font-size="14.00" fill="white">Critical</text>
</a>
</g>
</g>
<!-- Namespace_Quota_
Critical&#45;&gt;Set Namespace
Critical -->
<g id="${uniqueid}_edge4" class="edge"><title>Namespace_Quota_
Critical:se&#45;&gt;Set Namespace
Critical:w</title>
<path fill="none" stroke="black" d="M861.088,-170.87C906.197,-125.76 941.363,-166.289 1002.3,-170.521"/>
<polygon fill="black" stroke="black" points="1002.19,-174.019 1012.3,-170.87 1002.43,-167.024 1002.19,-174.019"/>
<text text-anchor="middle" x="845.588" y="-159.67" font-family="Times,serif" font-size="14.00">true</text>
</g>
<!-- Namespace_Quota_
Warning&#45;&gt;Clear Namespace
Warning -->
<g id="${uniqueid}_edge5" class="edge"><title>Namespace_Quota_
Warning:ne&#45;&gt;Clear Namespace
Warning:w</title>
<path fill="none" stroke="black" d="M859.088,-98.8701C861.621,-101.404 857.401,-104.499 860.088,-106.87 895.739,-138.342 919.816,-112.059 967.088,-106.87 979.434,-105.515 984.33,-101.619 993.109,-99.812"/>
<polygon fill="black" stroke="black" points="993.461,-103.294 1003.09,-98.8701 992.803,-96.3255 993.461,-103.294"/>
<text text-anchor="middle" x="840.088" y="-102.67" font-family="Times,serif" font-size="14.00">false</text>
</g>
<!-- Set Namespace
Warning -->
<g id="${uniqueid}_node9" class="node"><title>Set Namespace
Warning</title>
<g id="a_${uniqueid}_node9"><a xlink:href="#4852962973301634" xlink:title="com.watch4net.alerting.action.SNMPTrapAction">
<ellipse fill="#4daf4a" stroke="black" cx="1094.3" cy="-26.8701" rx="80.7205" ry="26.7407"/>
<text text-anchor="middle" x="1094.3" y="-30.6701" font-family="Times,serif" font-size="14.00" fill="white">Set Namespace</text>
<text text-anchor="middle" x="1094.3" y="-15.6701" font-family="Times,serif" font-size="14.00" fill="white">Warning</text>
</a>
</g>
</g>
<!-- Namespace_Quota_
Warning&#45;&gt;Set Namespace
Warning -->
<g id="${uniqueid}_edge6" class="edge"><title>Namespace_Quota_
Warning:se&#45;&gt;Set Namespace
Warning:w</title>
<path fill="none" stroke="black" d="M861.088,-38.8701C906.339,6.38133 941.187,-23.462 1002.27,-26.6097"/>
<polygon fill="black" stroke="black" points="1002.22,-30.1094 1012.3,-26.8701 1002.4,-23.1117 1002.22,-30.1094"/>
<text text-anchor="middle" x="845.588" y="-27.6701" font-family="Times,serif" font-size="14.00">true</text>
</g>
<!-- Quota -->
<g id="${uniqueid}_node6" class="node"><title>Quota</title>
<g id="a_${uniqueid}_node6"><a xlink:href="#4852962973387861" xlink:title="com.watch4net.alerting.operation.FilteredEntryPoint">
<ellipse fill="#984ea3" stroke="black" cx="69.5438" cy="-161.87" rx="35.194" ry="18"/>
<text text-anchor="middle" x="69.5438" y="-158.17" font-family="Times,serif" font-size="14.00" fill="white">Quota</text>
</a>
</g>
</g>
<!-- Used Fraction -->
<g id="${uniqueid}_node10" class="node"><title>Used Fraction</title>
<g id="a_${uniqueid}_node10"><a xlink:href="#4852962973179192" xlink:title="com.watch4net.alerting.operation.arithmetic.DataArithmeticOperation">
<polygon fill="#377eb8" stroke="black" points="289.088,-152.87 175.088,-152.87 175.088,-116.87 289.088,-116.87 289.088,-152.87"/>
<text text-anchor="middle" x="232.088" y="-131.17" font-family="Times,serif" font-size="14.00" fill="white">Used Fraction</text>
</a>
</g>
</g>
<!-- Quota&#45;&gt;Used Fraction -->
<g id="${uniqueid}_edge7" class="edge"><title>Quota:e&#45;&gt;Used Fraction:w</title>
<path fill="none" stroke="black" d="M105.544,-161.87C134.944,-161.87 140.815,-140.641 164.885,-135.831"/>
<polygon fill="black" stroke="black" points="165.46,-139.292 175.088,-134.87 164.803,-132.323 165.46,-139.292"/>
</g>
<!-- Rounding -->
<g id="${uniqueid}_node7" class="node"><title>Rounding</title>
<g id="a_${uniqueid}_node7"><a xlink:href="#1430775662958" xlink:title="com.watch4net.alerting.operation.math.ConstantMathOperation">
<polygon fill="#377eb8" stroke="black" points="567.088,-152.87 490.088,-152.87 490.088,-116.87 567.088,-116.87 567.088,-152.87"/>
<text text-anchor="middle" x="528.588" y="-131.17" font-family="Times,serif" font-size="14.00" fill="white">Rounding</text>
</a>
</g>
</g>
<!-- Rounding&#45;&gt;Case -->
<g id="${uniqueid}_edge8" class="edge"><title>Rounding:e&#45;&gt;Case:w</title>
<path fill="none" stroke="black" d="M567.088,-134.87C579.088,-134.87 584.338,-134.87 592.963,-134.87"/>
<polygon fill="black" stroke="black" points="593.088,-138.37 603.088,-134.87 593.088,-131.37 593.088,-138.37"/>
</g>
<!-- Used Percentage -->
<g id="${uniqueid}_node11" class="node"><title>Used Percentage</title>
<g id="a_${uniqueid}_node11"><a xlink:href="#4852962973218895" xlink:title="com.watch4net.alerting.operation.arithmetic.ConstantArithmeticOperation">
<polygon fill="#377eb8" stroke="black" points="454.088,-152.87 325.088,-152.87 325.088,-116.87 454.088,-116.87 454.088,-152.87"/>
<text text-anchor="middle" x="389.588" y="-131.17" font-family="Times,serif" font-size="14.00" fill="white">Used Percentage</text>
</a>
</g>
</g>
<!-- Used Fraction&#45;&gt;Used Percentage -->
<g id="${uniqueid}_edge9" class="edge"><title>Used Fraction:e&#45;&gt;Used Percentage:w</title>
<path fill="none" stroke="black" d="M289.088,-134.87C301.088,-134.87 306.338,-134.87 314.963,-134.87"/>
<polygon fill="black" stroke="black" points="315.088,-138.37 325.088,-134.87 315.088,-131.37 315.088,-138.37"/>
</g>
<!-- Used Percentage&#45;&gt;Rounding -->
<g id="${uniqueid}_edge10" class="edge"><title>Used Percentage:e&#45;&gt;Rounding:w</title>
<path fill="none" stroke="black" d="M454.088,-134.87C466.088,-134.87 471.338,-134.87 479.963,-134.87"/>
<polygon fill="black" stroke="black" points="480.088,-138.37 490.088,-134.87 480.088,-131.37 480.088,-138.37"/>
</g>
<!-- UsedCapacity -->
<g id="${uniqueid}_node12" class="node"><title>UsedCapacity</title>
<g id="a_${uniqueid}_node12"><a xlink:href="#4852962972961806" xlink:title="com.watch4net.alerting.operation.FilteredEntryPoint">
<ellipse fill="#984ea3" stroke="black" cx="69.5438" cy="-107.87" rx="69.5877" ry="18"/>
<text text-anchor="middle" x="69.5438" y="-104.17" font-family="Times,serif" font-size="14.00" fill="white">UsedCapacity</text>
</a>
</g>
</g>
<!-- UsedCapacity&#45;&gt;Used Fraction -->
<g id="${uniqueid}_edge11" class="edge"><title>UsedCapacity:e&#45;&gt;Used Fraction:w</title>
<path fill="none" stroke="black" d="M139.088,-107.87C155.025,-107.87 155.722,-125.015 165.469,-131.981"/>
<polygon fill="black" stroke="black" points="164.503,-135.345 175.088,-134.87 166.517,-128.641 164.503,-135.345"/>
</g>
</g>
</svg>
