<?xml version="1.0" encoding="UTF-8" standalone="no"?>
<!DOCTYPE svg PUBLIC "-//W3C//DTD SVG 1.1//EN"
 "http://www.w3.org/Graphics/SVG/1.1/DTD/svg11.dtd">
<!-- Generated by graphviz version 2.38.0 (20140413.2041)
 -->
<!-- Title: IBMDS8k Alert Definitions/IBMDS8k&#45;Rank/Write Bandwidth Pages: 1 -->
<svg width="1014pt" height="422pt"
 viewBox="0.00 0.00 1014.49 421.74" xmlns="http://www.w3.org/2000/svg" xmlns:xlink="http://www.w3.org/1999/xlink">
<g id="${uniqueid}" class="graph" transform="scale(1 1) rotate(0) translate(4 417.74)">
<title>IBMDS8k Alert Definitions/IBMDS8k&#45;Rank/Write Bandwidth</title>
<polygon fill="white" stroke="none" points="-4,4 -4,-417.74 1010.49,-417.74 1010.49,4 -4,4"/>
<!-- Rank write b/w
entry -->
<g id="${uniqueid}_node1" class="node"><title>Rank write b/w
entry</title>
<g id="a_${uniqueid}_node1"><a xlink:href="#1284930155567814" xlink:title="com.watch4net.alerting.operation.FilteredEntryPoint">
<ellipse fill="#984ea3" stroke="black" cx="88.3883" cy="-206.87" rx="88.2768" ry="26.7407"/>
<text text-anchor="middle" x="88.3883" y="-210.67" font-family="Times,serif" font-size="14.00" fill="white">Rank write b/w</text>
<text text-anchor="middle" x="88.3883" y="-195.67" font-family="Times,serif" font-size="14.00" fill="white">entry</text>
</a>
</g>
</g>
<!-- Roundoff -->
<g id="${uniqueid}_node2" class="node"><title>Roundoff</title>
<g id="a_${uniqueid}_node2"><a xlink:href="#1441789851059" xlink:title="com.watch4net.alerting.operation.math.ConstantMathOperation">
<polygon fill="#377eb8" stroke="black" points="293.777,-224.87 212.777,-224.87 212.777,-188.87 293.777,-188.87 293.777,-224.87"/>
<text text-anchor="middle" x="253.277" y="-203.17" font-family="Times,serif" font-size="14.00" fill="white">Roundoff</text>
</a>
</g>
</g>
<!-- Rank write b/w
entry&#45;&gt;Roundoff -->
<g id="${uniqueid}_edge1" class="edge"><title>Rank write b/w
entry:e&#45;&gt;Roundoff:w</title>
<path fill="none" stroke="black" d="M176.777,-206.87C188.777,-206.87 194.027,-206.87 202.652,-206.87"/>
<polygon fill="black" stroke="black" points="202.777,-210.37 212.777,-206.87 202.777,-203.37 202.777,-210.37"/>
</g>
<!-- Write b/w Case -->
<g id="${uniqueid}_node7" class="node"><title>Write b/w Case</title>
<g id="a_${uniqueid}_node7"><a xlink:href="#1284930155699824" xlink:title="com.watch4net.alerting.operation.CaseOperation">
<polygon fill="#377eb8" stroke="black" points="455.777,-224.87 329.777,-224.87 329.777,-188.87 455.777,-188.87 455.777,-224.87"/>
<text text-anchor="middle" x="392.777" y="-203.17" font-family="Times,serif" font-size="14.00" fill="white">Write b/w Case</text>
</a>
</g>
</g>
<!-- Roundoff&#45;&gt;Write b/w Case -->
<g id="${uniqueid}_edge2" class="edge"><title>Roundoff:e&#45;&gt;Write b/w Case:w</title>
<path fill="none" stroke="black" d="M293.777,-206.87C305.777,-206.87 311.027,-206.87 319.652,-206.87"/>
<polygon fill="black" stroke="black" points="319.777,-210.37 329.777,-206.87 319.777,-203.37 319.777,-210.37"/>
</g>
<!-- Write B/W_
Critical Trap -->
<g id="${uniqueid}_node3" class="node"><title>Write B/W_
Critical Trap</title>
<g id="a_${uniqueid}_node3"><a xlink:href="#1284930155733128" xlink:title="com.watch4net.alerting.action.SNMPTrapAction">
<ellipse fill="#4daf4a" stroke="black" cx="901.136" cy="-314.87" rx="76.2353" ry="26.7407"/>
<text text-anchor="middle" x="901.136" y="-318.67" font-family="Times,serif" font-size="14.00" fill="white">Write B/W_</text>
<text text-anchor="middle" x="901.136" y="-303.67" font-family="Times,serif" font-size="14.00" fill="white">Critical Trap</text>
</a>
</g>
</g>
<!-- Write B/W_
Critical_Clear -->
<g id="${uniqueid}_node4" class="node"><title>Write B/W_
Critical_Clear</title>
<g id="a_${uniqueid}_node4"><a xlink:href="#1284930155756183" xlink:title="com.watch4net.alerting.action.SNMPTrapAction">
<ellipse fill="#4daf4a" stroke="black" cx="901.136" cy="-386.87" rx="82.9636" ry="26.7407"/>
<text text-anchor="middle" x="901.136" y="-390.67" font-family="Times,serif" font-size="14.00" fill="white">Write B/W_</text>
<text text-anchor="middle" x="901.136" y="-375.67" font-family="Times,serif" font-size="14.00" fill="white">Critical_Clear</text>
</a>
</g>
</g>
<!-- Write B/W_Major
Trap -->
<g id="${uniqueid}_node5" class="node"><title>Write B/W_Major
Trap</title>
<g id="a_${uniqueid}_node5"><a xlink:href="#1284930155781339" xlink:title="com.watch4net.alerting.action.SNMPTrapAction">
<ellipse fill="#4daf4a" stroke="black" cx="901.136" cy="-170.87" rx="99.9045" ry="26.7407"/>
<text text-anchor="middle" x="901.136" y="-174.67" font-family="Times,serif" font-size="14.00" fill="white">Write B/W_Major</text>
<text text-anchor="middle" x="901.136" y="-159.67" font-family="Times,serif" font-size="14.00" fill="white">Trap</text>
</a>
</g>
</g>
<!-- Write B/W_Major_
Clear -->
<g id="${uniqueid}_node6" class="node"><title>Write B/W_Major_
Clear</title>
<g id="a_${uniqueid}_node6"><a xlink:href="#1284930155796659" xlink:title="com.watch4net.alerting.action.SNMPTrapAction">
<ellipse fill="#4daf4a" stroke="black" cx="901.136" cy="-242.87" rx="105.218" ry="26.7407"/>
<text text-anchor="middle" x="901.136" y="-246.67" font-family="Times,serif" font-size="14.00" fill="white">Write B/W_Major_</text>
<text text-anchor="middle" x="901.136" y="-231.67" font-family="Times,serif" font-size="14.00" fill="white">Clear</text>
</a>
</g>
</g>
<!-- Write b/w Crit
comp -->
<g id="${uniqueid}_node8" class="node"><title>Write b/w Crit
comp</title>
<g id="a_${uniqueid}_node8"><a xlink:href="#1284930155713997" xlink:title="com.watch4net.alerting.operation.comparator.ConstantComparatorOperation">
<polygon fill="#ff7f00" stroke="black" points="625.777,-381.87 506.777,-343.87 625.777,-305.87 744.777,-343.87 625.777,-381.87"/>
<text text-anchor="middle" x="625.777" y="-347.67" font-family="Times,serif" font-size="14.00" fill="white">Write b/w Crit</text>
<text text-anchor="middle" x="625.777" y="-332.67" font-family="Times,serif" font-size="14.00" fill="white">comp</text>
</a>
</g>
</g>
<!-- Write b/w Case&#45;&gt;Write b/w Crit
comp -->
<g id="${uniqueid}_edge3" class="edge"><title>Write b/w Case:e&#45;&gt;Write b/w Crit
comp:w</title>
<path fill="none" stroke="black" d="M455.777,-206.87C516.796,-206.87 449.796,-328.286 495.813,-342.514"/>
<polygon fill="black" stroke="black" points="495.396,-345.99 505.777,-343.87 496.34,-339.054 495.396,-345.99"/>
</g>
<!-- Write b/w Maj
Comp -->
<g id="${uniqueid}_node9" class="node"><title>Write b/w Maj
Comp</title>
<g id="a_${uniqueid}_node9"><a xlink:href="#1284930155767433" xlink:title="com.watch4net.alerting.operation.comparator.ConstantComparatorOperation">
<polygon fill="#ff7f00" stroke="black" points="625.777,-244.87 506.777,-206.87 625.777,-168.87 744.777,-206.87 625.777,-244.87"/>
<text text-anchor="middle" x="625.777" y="-210.67" font-family="Times,serif" font-size="14.00" fill="white">Write b/w Maj</text>
<text text-anchor="middle" x="625.777" y="-195.67" font-family="Times,serif" font-size="14.00" fill="white">Comp</text>
</a>
</g>
</g>
<!-- Write b/w Case&#45;&gt;Write b/w Maj
Comp -->
<g id="${uniqueid}_edge4" class="edge"><title>Write b/w Case:e&#45;&gt;Write b/w Maj
Comp:w</title>
<path fill="none" stroke="black" d="M455.777,-206.87C474.179,-206.87 481.152,-206.87 495.626,-206.87"/>
<polygon fill="black" stroke="black" points="495.777,-210.37 505.777,-206.87 495.777,-203.37 495.777,-210.37"/>
</g>
<!-- Write b/w Minor
Comp -->
<g id="${uniqueid}_node10" class="node"><title>Write b/w Minor
Comp</title>
<g id="a_${uniqueid}_node10"><a xlink:href="#1284930155812237" xlink:title="com.watch4net.alerting.operation.comparator.ConstantComparatorOperation">
<polygon fill="#ff7f00" stroke="black" points="625.777,-106.87 491.777,-68.8701 625.777,-30.8701 759.777,-68.8701 625.777,-106.87"/>
<text text-anchor="middle" x="625.777" y="-72.6701" font-family="Times,serif" font-size="14.00" fill="white">Write b/w Minor</text>
<text text-anchor="middle" x="625.777" y="-57.6701" font-family="Times,serif" font-size="14.00" fill="white">Comp</text>
</a>
</g>
</g>
<!-- Write b/w Case&#45;&gt;Write b/w Minor
Comp -->
<g id="${uniqueid}_edge5" class="edge"><title>Write b/w Case:e&#45;&gt;Write b/w Minor
Comp:w</title>
<path fill="none" stroke="black" d="M455.777,-206.87C515.201,-206.87 439.135,-85.581 481.623,-70.4199"/>
<polygon fill="black" stroke="black" points="482.419,-73.839 491.777,-68.8701 481.363,-66.9191 482.419,-73.839"/>
</g>
<!-- Write b/w Crit
comp&#45;&gt;Write B/W_
Critical Trap -->
<g id="${uniqueid}_edge7" class="edge"><title>Write b/w Crit
comp:se&#45;&gt;Write B/W_
Critical Trap:w</title>
<path fill="none" stroke="black" d="M655.777,-314.87C705.907,-264.74 744.941,-310.17 812.895,-314.54"/>
<polygon fill="black" stroke="black" points="813.028,-318.046 823.136,-314.87 813.254,-311.049 813.028,-318.046"/>
<text text-anchor="middle" x="640.277" y="-303.67" font-family="Times,serif" font-size="14.00">true</text>
</g>
<!-- Write b/w Crit
comp&#45;&gt;Write B/W_
Critical_Clear -->
<g id="${uniqueid}_edge6" class="edge"><title>Write b/w Crit
comp:ne&#45;&gt;Write B/W_
Critical_Clear:w</title>
<path fill="none" stroke="black" d="M653.777,-372.87C656.623,-375.716 651.82,-379.14 654.777,-381.87 705.233,-428.449 741.279,-390.942 806.805,-387.169"/>
<polygon fill="black" stroke="black" points="807.241,-390.658 817.136,-386.87 807.039,-383.661 807.241,-390.658"/>
<text text-anchor="middle" x="636.777" y="-376.67" font-family="Times,serif" font-size="14.00">false</text>
</g>
<!-- Write b/w Maj
Comp&#45;&gt;Write B/W_Major
Trap -->
<g id="${uniqueid}_edge9" class="edge"><title>Write b/w Maj
Comp:se&#45;&gt;Write B/W_Major
Trap:w</title>
<path fill="none" stroke="black" d="M655.777,-177.87C698.714,-134.933 732.073,-166.919 789.855,-170.545"/>
<polygon fill="black" stroke="black" points="790.03,-174.053 800.136,-170.87 790.251,-167.056 790.03,-174.053"/>
<text text-anchor="middle" x="640.277" y="-166.67" font-family="Times,serif" font-size="14.00">true</text>
</g>
<!-- Write b/w Maj
Comp&#45;&gt;Write B/W_Major_
Clear -->
<g id="${uniqueid}_edge8" class="edge"><title>Write b/w Maj
Comp:ne&#45;&gt;Write B/W_Major_
Clear:w</title>
<path fill="none" stroke="black" d="M653.777,-235.87C656.623,-238.716 651.778,-242.186 654.777,-244.87 684.582,-271.547 704.784,-245.654 744.777,-244.87 763.558,-244.502 770.652,-243.372 785.418,-242.994"/>
<polygon fill="black" stroke="black" points="785.819,-246.49 795.777,-242.87 785.735,-239.49 785.819,-246.49"/>
<text text-anchor="middle" x="636.777" y="-239.67" font-family="Times,serif" font-size="14.00">false</text>
</g>
<!-- WriteB/W_Minor
Trap -->
<g id="${uniqueid}_node11" class="node"><title>WriteB/W_Minor
Trap</title>
<g id="a_${uniqueid}_node11"><a xlink:href="#1284930155826122" xlink:title="com.watch4net.alerting.action.SNMPTrapAction">
<ellipse fill="#4daf4a" stroke="black" cx="901.136" cy="-26.8701" rx="96.7474" ry="26.7407"/>
<text text-anchor="middle" x="901.136" y="-30.6701" font-family="Times,serif" font-size="14.00" fill="white">WriteB/W_Minor</text>
<text text-anchor="middle" x="901.136" y="-15.6701" font-family="Times,serif" font-size="14.00" fill="white">Trap</text>
</a>
</g>
</g>
<!-- Write b/w Minor
Comp&#45;&gt;WriteB/W_Minor
Trap -->
<g id="${uniqueid}_edge11" class="edge"><title>Write b/w Minor
Comp:se&#45;&gt;WriteB/W_Minor
Trap:w</title>
<path fill="none" stroke="black" d="M656.777,-38.8701C700.493,4.84674 734.152,-23.4916 793.057,-26.6019"/>
<polygon fill="black" stroke="black" points="793.046,-30.1028 803.136,-26.8701 793.232,-23.1053 793.046,-30.1028"/>
<text text-anchor="middle" x="641.277" y="-27.6701" font-family="Times,serif" font-size="14.00">true</text>
</g>
<!-- WriteB/W_Minor_
Clear -->
<g id="${uniqueid}_node12" class="node"><title>WriteB/W_Minor_
Clear</title>
<g id="a_${uniqueid}_node12"><a xlink:href="#1284930155841379" xlink:title="com.watch4net.alerting.action.SNMPTrapAction">
<ellipse fill="#4daf4a" stroke="black" cx="901.136" cy="-98.8701" rx="102.561" ry="26.7407"/>
<text text-anchor="middle" x="901.136" y="-102.67" font-family="Times,serif" font-size="14.00" fill="white">WriteB/W_Minor_</text>
<text text-anchor="middle" x="901.136" y="-87.6701" font-family="Times,serif" font-size="14.00" fill="white">Clear</text>
</a>
</g>
</g>
<!-- Write b/w Minor
Comp&#45;&gt;WriteB/W_Minor_
Clear -->
<g id="${uniqueid}_edge10" class="edge"><title>Write b/w Minor
Comp:ne&#45;&gt;WriteB/W_Minor_
Clear:w</title>
<path fill="none" stroke="black" d="M654.777,-98.8701C657.31,-101.404 653.09,-104.499 655.777,-106.87 690.428,-137.46 713.811,-111.736 759.777,-106.87 772.705,-105.501 777.782,-101.539 787.073,-99.7569"/>
<polygon fill="black" stroke="black" points="787.482,-103.235 797.136,-98.8701 786.867,-96.2615 787.482,-103.235"/>
<text text-anchor="middle" x="637.777" y="-102.67" font-family="Times,serif" font-size="14.00">false</text>
</g>
</g>
</svg>
