<?xml version="1.0" encoding="UTF-8" standalone="no"?>
<!DOCTYPE svg PUBLIC "-//W3C//DTD SVG 1.1//EN"
 "http://www.w3.org/Graphics/SVG/1.1/DTD/svg11.dtd">
<!-- Generated by graphviz version 2.38.0 (20140413.2041)
 -->
<!-- Title: EMC ECS Alert Definitions/Degraded Replication Group Link Notification Pages: 1 -->
<svg width="543pt" height="134pt"
 viewBox="0.00 0.00 543.07 133.74" xmlns="http://www.w3.org/2000/svg" xmlns:xlink="http://www.w3.org/1999/xlink">
<g id="${uniqueid}" class="graph" transform="scale(1 1) rotate(0) translate(4 129.74)">
<title>EMC ECS Alert Definitions/Degraded Replication Group Link Notification</title>
<polygon fill="white" stroke="none" points="-4,4 -4,-129.74 539.071,-129.74 539.071,4 -4,4"/>
<!-- Availability -->
<g id="${uniqueid}_node1" class="node"><title>Availability</title>
<g id="a_${uniqueid}_node1"><a xlink:href="#14431441915447432" xlink:title="com.watch4net.alerting.operation.FilteredEntryPoint">
<ellipse fill="#984ea3" stroke="black" cx="69.5438" cy="-62.8701" rx="69.5877" ry="18"/>
<text text-anchor="middle" x="69.5438" y="-59.1701" font-family="Times,serif" font-size="14.00" fill="white">Availability</text>
</a>
</g>
</g>
<!-- Bad Link -->
<g id="${uniqueid}_node2" class="node"><title>Bad Link</title>
<g id="a_${uniqueid}_node2"><a xlink:href="#14431441915982539" xlink:title="com.watch4net.alerting.operation.comparator.ConstantComparatorOperation">
<polygon fill="#ff7f00" stroke="black" points="245.863,-80.8701 175.312,-62.8701 245.863,-44.8701 316.414,-62.8701 245.863,-80.8701"/>
<text text-anchor="middle" x="245.863" y="-59.1701" font-family="Times,serif" font-size="14.00" fill="white">Bad Link</text>
</a>
</g>
</g>
<!-- Availability&#45;&gt;Bad Link -->
<g id="${uniqueid}_edge1" class="edge"><title>Availability:e&#45;&gt;Bad Link:w</title>
<path fill="none" stroke="black" d="M139.088,-62.8701C151.088,-62.8701 156.338,-62.8701 164.963,-62.8701"/>
<polygon fill="black" stroke="black" points="165.088,-66.3702 175.088,-62.8701 165.088,-59.3702 165.088,-66.3702"/>
</g>
<!-- Clear Repl Link
Critical -->
<g id="${uniqueid}_node3" class="node"><title>Clear Repl Link
Critical</title>
<g id="a_${uniqueid}_node3"><a xlink:href="#1430515917942" xlink:title="com.watch4net.alerting.action.SNMPTrapAction">
<ellipse fill="#4daf4a" stroke="black" cx="443.855" cy="-98.8701" rx="91.4341" ry="26.7407"/>
<text text-anchor="middle" x="443.855" y="-102.67" font-family="Times,serif" font-size="14.00" fill="white">Clear Repl Link</text>
<text text-anchor="middle" x="443.855" y="-87.6701" font-family="Times,serif" font-size="14.00" fill="white">Critical</text>
</a>
</g>
</g>
<!-- Bad Link&#45;&gt;Clear Repl Link
Critical -->
<g id="${uniqueid}_edge2" class="edge"><title>Bad Link:ne&#45;&gt;Clear Repl Link
Critical:w</title>
<path fill="none" stroke="black" d="M258.863,-76.8701C260.159,-78.1658 258.533,-79.6093 259.863,-80.8701 287.725,-107.284 307.073,-100.449 342.27,-99.0793"/>
<polygon fill="black" stroke="black" points="342.711,-102.571 352.638,-98.8701 342.569,-95.5727 342.711,-102.571"/>
<text text-anchor="middle" x="239.863" y="-80.6701" font-family="Times,serif" font-size="14.00">false</text>
</g>
<!-- Set Repl Link
Critical -->
<g id="${uniqueid}_node4" class="node"><title>Set Repl Link
Critical</title>
<g id="a_${uniqueid}_node4"><a xlink:href="#14431441916076888" xlink:title="com.watch4net.alerting.action.SNMPTrapAction">
<ellipse fill="#4daf4a" stroke="black" cx="443.855" cy="-26.8701" rx="80.7205" ry="26.7407"/>
<text text-anchor="middle" x="443.855" y="-30.6701" font-family="Times,serif" font-size="14.00" fill="white">Set Repl Link</text>
<text text-anchor="middle" x="443.855" y="-15.6701" font-family="Times,serif" font-size="14.00" fill="white">Critical</text>
</a>
</g>
</g>
<!-- Bad Link&#45;&gt;Set Repl Link
Critical -->
<g id="${uniqueid}_edge3" class="edge"><title>Bad Link:se&#45;&gt;Set Repl Link
Critical:w</title>
<path fill="none" stroke="black" d="M260.863,-48.8701C290.871,-18.8613 312.421,-25.5223 351.749,-26.7112"/>
<polygon fill="black" stroke="black" points="351.801,-30.2124 361.855,-26.8701 351.911,-23.2132 351.801,-30.2124"/>
<text text-anchor="middle" x="245.363" y="-37.6701" font-family="Times,serif" font-size="14.00">true</text>
</g>
</g>
</svg>
