<?xml version="1.0" encoding="UTF-8" standalone="no"?>
<!DOCTYPE svg PUBLIC "-//W3C//DTD SVG 1.1//EN"
 "http://www.w3.org/Graphics/SVG/1.1/DTD/svg11.dtd">
<!-- Generated by graphviz version 2.38.0 (20140413.2041)
 -->
<!-- Title: EMC VMAX Alert Definitions/VMAX&#45;Disk/High Write Response Time Pages: 1 -->
<svg width="1098pt" height="422pt"
 viewBox="0.00 0.00 1097.53 422.00" xmlns="http://www.w3.org/2000/svg" xmlns:xlink="http://www.w3.org/1999/xlink">
<g id="${uniqueid}" class="graph" transform="scale(1 1) rotate(0) translate(4 418)">
<title>EMC VMAX Alert Definitions/VMAX&#45;Disk/High Write Response Time</title>
<polygon fill="white" stroke="none" points="-4,4 -4,-418 1093.53,-418 1093.53,4 -4,4"/>
<!-- Bronze lvl chk -->
<g id="${uniqueid}_node1" class="node"><title>Bronze lvl chk</title>
<g id="a_${uniqueid}_node1"><a xlink:href="#2319979417097508" xlink:title="com.watch4net.alerting.operation.comparator.StringComparatorOperation">
<polygon fill="#ff7f00" stroke="black" points="511.451,-349 402.191,-331 511.451,-313 620.71,-331 511.451,-349"/>
<text text-anchor="middle" x="511.451" y="-327.3" font-family="Times,serif" font-size="14.00" fill="white">Bronze lvl chk</text>
</a>
</g>
</g>
<!-- Bronze_Maj_Chk -->
<g id="${uniqueid}_node3" class="node"><title>Bronze_Maj_Chk</title>
<g id="a_${uniqueid}_node3"><a xlink:href="#2319979417113028" xlink:title="com.watch4net.alerting.operation.comparator.ConstantComparatorOperation">
<polygon fill="#ff7f00" stroke="black" points="798.381,-376 670.855,-358 798.381,-340 925.907,-358 798.381,-376"/>
<text text-anchor="middle" x="798.381" y="-354.3" font-family="Times,serif" font-size="14.00" fill="white">Bronze_Maj_Chk</text>
</a>
</g>
</g>
<!-- Bronze lvl chk&#45;&gt;Bronze_Maj_Chk -->
<g id="${uniqueid}_edge1" class="edge"><title>Bronze lvl chk:e&#45;&gt;Bronze_Maj_Chk:w</title>
<path fill="none" stroke="black" d="M621.451,-331C642.486,-331 645.279,-350.222 660.613,-356.228"/>
<polygon fill="black" stroke="black" points="660.161,-359.703 670.618,-358 661.381,-352.81 660.161,-359.703"/>
<text text-anchor="middle" x="636.951" y="-319.8" font-family="Times,serif" font-size="14.00">true</text>
</g>
<!-- Bronze_Clr -->
<g id="${uniqueid}_node2" class="node"><title>Bronze_Clr</title>
<g id="a_${uniqueid}_node2"><a xlink:href="#2319979417142489" xlink:title="com.watch4net.alerting.action.SNMPTrapAction">
<ellipse fill="#4daf4a" stroke="black" cx="1025.84" cy="-396" rx="63.0888" ry="18"/>
<text text-anchor="middle" x="1025.84" y="-392.3" font-family="Times,serif" font-size="14.00" fill="white">Bronze_Clr</text>
</a>
</g>
</g>
<!-- Bronze_Maj_Chk&#45;&gt;Bronze_Clr -->
<g id="${uniqueid}_edge2" class="edge"><title>Bronze_Maj_Chk:ne&#45;&gt;Bronze_Clr:w</title>
<path fill="none" stroke="black" d="M813.381,-374C814.083,-374.703 813.572,-375.422 814.381,-376 865.442,-412.518 892.89,-397.798 951.972,-396.144"/>
<polygon fill="black" stroke="black" points="952.194,-399.641 962.144,-396 952.095,-392.642 952.194,-399.641"/>
<text text-anchor="middle" x="796.381" y="-377.8" font-family="Times,serif" font-size="14.00">false</text>
</g>
<!-- Bronze_Set -->
<g id="${uniqueid}_node4" class="node"><title>Bronze_Set</title>
<g id="a_${uniqueid}_node4"><a xlink:href="#2319979417127167" xlink:title="com.watch4net.alerting.action.SNMPTrapAction">
<ellipse fill="#4daf4a" stroke="black" cx="1025.84" cy="-342" rx="63.8893" ry="18"/>
<text text-anchor="middle" x="1025.84" y="-338.3" font-family="Times,serif" font-size="14.00" fill="white">Bronze_Set</text>
</a>
</g>
</g>
<!-- Bronze_Maj_Chk&#45;&gt;Bronze_Set -->
<g id="${uniqueid}_edge3" class="edge"><title>Bronze_Maj_Chk:se&#45;&gt;Bronze_Set:w</title>
<path fill="none" stroke="black" d="M815.381,-342C859.072,-298.309 893.151,-337.392 952.067,-341.635"/>
<polygon fill="black" stroke="black" points="952.024,-345.136 962.144,-342 952.277,-338.141 952.024,-345.136"/>
<text text-anchor="middle" x="799.881" y="-330.8" font-family="Times,serif" font-size="14.00">true</text>
</g>
<!-- Case for service
level -->
<g id="${uniqueid}_node5" class="node"><title>Case for service
level</title>
<g id="a_${uniqueid}_node5"><a xlink:href="#2319979416801842" xlink:title="com.watch4net.alerting.operation.CaseOperation">
<polygon fill="#377eb8" stroke="black" points="352.284,-242 219.284,-242 219.284,-204 352.284,-204 352.284,-242"/>
<text text-anchor="middle" x="285.784" y="-226.8" font-family="Times,serif" font-size="14.00" fill="white">Case for service</text>
<text text-anchor="middle" x="285.784" y="-211.8" font-family="Times,serif" font-size="14.00" fill="white">level</text>
</a>
</g>
</g>
<!-- Case for service
level&#45;&gt;Bronze lvl chk -->
<g id="${uniqueid}_edge4" class="edge"><title>Case for service
level:e&#45;&gt;Bronze lvl chk:w</title>
<path fill="none" stroke="black" d="M352.284,-223C401.109,-223 356.469,-315.564 391.421,-329.304"/>
<polygon fill="black" stroke="black" points="391.007,-332.783 401.451,-331 392.175,-325.881 391.007,-332.783"/>
</g>
<!-- Gold lvl chk -->
<g id="${uniqueid}_node6" class="node"><title>Gold lvl chk</title>
<g id="a_${uniqueid}_node6"><a xlink:href="#2319979416905489" xlink:title="com.watch4net.alerting.operation.comparator.StringComparatorOperation">
<polygon fill="#ff7f00" stroke="black" points="511.451,-260 417.942,-242 511.451,-224 604.96,-242 511.451,-260"/>
<text text-anchor="middle" x="511.451" y="-238.3" font-family="Times,serif" font-size="14.00" fill="white">Gold lvl chk</text>
</a>
</g>
</g>
<!-- Case for service
level&#45;&gt;Gold lvl chk -->
<g id="${uniqueid}_edge5" class="edge"><title>Case for service
level:e&#45;&gt;Gold lvl chk:w</title>
<path fill="none" stroke="black" d="M352.284,-223C378.309,-223 385.146,-237.547 406.374,-241.184"/>
<polygon fill="black" stroke="black" points="406.201,-244.681 416.451,-242 406.766,-237.704 406.201,-244.681"/>
</g>
<!-- Platinum lvl chk -->
<g id="${uniqueid}_node14" class="node"><title>Platinum lvl chk</title>
<g id="a_${uniqueid}_node14"><a xlink:href="#2319979416816902" xlink:title="com.watch4net.alerting.operation.comparator.StringComparatorOperation">
<polygon fill="#ff7f00" stroke="black" points="511.451,-198 388.116,-180 511.451,-162 634.785,-180 511.451,-198"/>
<text text-anchor="middle" x="511.451" y="-176.3" font-family="Times,serif" font-size="14.00" fill="white">Platinum lvl chk</text>
</a>
</g>
</g>
<!-- Case for service
level&#45;&gt;Platinum lvl chk -->
<g id="${uniqueid}_edge6" class="edge"><title>Case for service
level:e&#45;&gt;Platinum lvl chk:w</title>
<path fill="none" stroke="black" d="M352.284,-223C372.924,-223 366.974,-193.511 378.475,-183.374"/>
<polygon fill="black" stroke="black" points="379.966,-186.562 388.284,-180 377.689,-179.943 379.966,-186.562"/>
</g>
<!-- Silver lvl chk -->
<g id="${uniqueid}_node15" class="node"><title>Silver lvl chk</title>
<g id="a_${uniqueid}_node15"><a xlink:href="#2319979416965964" xlink:title="com.watch4net.alerting.operation.comparator.StringComparatorOperation">
<polygon fill="#ff7f00" stroke="black" points="511.451,-117 410.236,-99 511.451,-81 612.666,-99 511.451,-117"/>
<text text-anchor="middle" x="511.451" y="-95.3" font-family="Times,serif" font-size="14.00" fill="white">Silver lvl chk</text>
</a>
</g>
</g>
<!-- Case for service
level&#45;&gt;Silver lvl chk -->
<g id="${uniqueid}_edge7" class="edge"><title>Case for service
level:e&#45;&gt;Silver lvl chk:w</title>
<path fill="none" stroke="black" d="M352.284,-223C409.177,-223 356.303,-114.016 399.475,-100.393"/>
<polygon fill="black" stroke="black" points="400.031,-103.849 409.451,-99 399.063,-96.9162 400.031,-103.849"/>
</g>
<!-- Gold_Maj_Chk -->
<g id="${uniqueid}_node8" class="node"><title>Gold_Maj_Chk</title>
<g id="a_${uniqueid}_node8"><a xlink:href="#2319979416922835" xlink:title="com.watch4net.alerting.operation.comparator.ConstantComparatorOperation">
<polygon fill="#ff7f00" stroke="black" points="798.381,-268 686.106,-250 798.381,-232 910.655,-250 798.381,-268"/>
<text text-anchor="middle" x="798.381" y="-246.3" font-family="Times,serif" font-size="14.00" fill="white">Gold_Maj_Chk</text>
</a>
</g>
</g>
<!-- Gold lvl chk&#45;&gt;Gold_Maj_Chk -->
<g id="${uniqueid}_edge8" class="edge"><title>Gold lvl chk:e&#45;&gt;Gold_Maj_Chk:w</title>
<path fill="none" stroke="black" d="M606.451,-242C637.992,-242 648.048,-248.401 675.057,-249.752"/>
<polygon fill="black" stroke="black" points="675.299,-253.259 685.381,-250 675.468,-246.261 675.299,-253.259"/>
<text text-anchor="middle" x="621.951" y="-230.8" font-family="Times,serif" font-size="14.00">true</text>
</g>
<!-- Gold_Clr -->
<g id="${uniqueid}_node7" class="node"><title>Gold_Clr</title>
<g id="a_${uniqueid}_node7"><a xlink:href="#2319979416949858" xlink:title="com.watch4net.alerting.action.SNMPTrapAction">
<ellipse fill="#4daf4a" stroke="black" cx="1025.84" cy="-288" rx="51.9908" ry="18"/>
<text text-anchor="middle" x="1025.84" y="-284.3" font-family="Times,serif" font-size="14.00" fill="white">Gold_Clr</text>
</a>
</g>
</g>
<!-- Gold_Maj_Chk&#45;&gt;Gold_Clr -->
<g id="${uniqueid}_edge9" class="edge"><title>Gold_Maj_Chk:ne&#45;&gt;Gold_Clr:w</title>
<path fill="none" stroke="black" d="M813.381,-266C814.083,-266.703 813.57,-267.426 814.381,-268 869.475,-307.03 898.9,-289.906 962.728,-288.141"/>
<polygon fill="black" stroke="black" points="962.888,-291.639 972.838,-288 962.79,-284.64 962.888,-291.639"/>
<text text-anchor="middle" x="796.381" y="-269.8" font-family="Times,serif" font-size="14.00">false</text>
</g>
<!-- Gold_Set -->
<g id="${uniqueid}_node9" class="node"><title>Gold_Set</title>
<g id="a_${uniqueid}_node9"><a xlink:href="#2319979416936518" xlink:title="com.watch4net.alerting.action.SNMPTrapAction">
<ellipse fill="#4daf4a" stroke="black" cx="1025.84" cy="-234" rx="51.9908" ry="18"/>
<text text-anchor="middle" x="1025.84" y="-230.3" font-family="Times,serif" font-size="14.00" fill="white">Gold_Set</text>
</a>
</g>
</g>
<!-- Gold_Maj_Chk&#45;&gt;Gold_Set -->
<g id="${uniqueid}_edge10" class="edge"><title>Gold_Maj_Chk:se&#45;&gt;Gold_Set:w</title>
<path fill="none" stroke="black" d="M815.381,-234C862.449,-186.932 899.119,-229.404 962.811,-233.663"/>
<polygon fill="black" stroke="black" points="962.726,-237.162 972.838,-234 962.961,-230.166 962.726,-237.162"/>
<text text-anchor="middle" x="799.881" y="-222.8" font-family="Times,serif" font-size="14.00">true</text>
</g>
<!-- High_WRT_Filter -->
<g id="${uniqueid}_node10" class="node"><title>High_WRT_Filter</title>
<g id="a_${uniqueid}_node10"><a xlink:href="#2319979416739874" xlink:title="com.watch4net.alerting.operation.FilteredEntryPoint">
<ellipse fill="#984ea3" stroke="black" cx="91.6419" cy="-223" rx="91.784" ry="18"/>
<text text-anchor="middle" x="91.6419" y="-219.3" font-family="Times,serif" font-size="14.00" fill="white">High_WRT_Filter</text>
</a>
</g>
</g>
<!-- High_WRT_Filter&#45;&gt;Case for service
level -->
<g id="${uniqueid}_edge11" class="edge"><title>High_WRT_Filter:e&#45;&gt;Case for service
level:w</title>
<path fill="none" stroke="black" d="M183.284,-223C195.284,-223 200.534,-223 209.159,-223"/>
<polygon fill="black" stroke="black" points="209.284,-226.5 219.284,-223 209.284,-219.5 209.284,-226.5"/>
</g>
<!-- Plat_Clr -->
<g id="${uniqueid}_node11" class="node"><title>Plat_Clr</title>
<g id="a_${uniqueid}_node11"><a xlink:href="#2319979416870367" xlink:title="com.watch4net.alerting.action.SNMPTrapAction">
<ellipse fill="#4daf4a" stroke="black" cx="1025.84" cy="-180" rx="48.9926" ry="18"/>
<text text-anchor="middle" x="1025.84" y="-176.3" font-family="Times,serif" font-size="14.00" fill="white">Plat_Clr</text>
</a>
</g>
</g>
<!-- Plat_Maj_Chk -->
<g id="${uniqueid}_node12" class="node"><title>Plat_Maj_Chk</title>
<g id="a_${uniqueid}_node12"><a xlink:href="#2319979416838664" xlink:title="com.watch4net.alerting.operation.comparator.ConstantComparatorOperation">
<polygon fill="#ff7f00" stroke="black" points="798.381,-182 690.798,-164 798.381,-146 905.964,-164 798.381,-182"/>
<text text-anchor="middle" x="798.381" y="-160.3" font-family="Times,serif" font-size="14.00" fill="white">Plat_Maj_Chk</text>
</a>
</g>
</g>
<!-- Plat_Maj_Chk&#45;&gt;Plat_Clr -->
<g id="${uniqueid}_edge12" class="edge"><title>Plat_Maj_Chk:ne&#45;&gt;Plat_Clr:w</title>
<path fill="none" stroke="black" d="M813.381,-180C814.083,-180.703 813.535,-181.478 814.381,-182 848.99,-203.389 865.241,-182.582 905.922,-182 933.363,-181.608 942.616,-180.349 965.796,-180.06"/>
<polygon fill="black" stroke="black" points="965.859,-183.56 975.838,-180 965.817,-176.56 965.859,-183.56"/>
<text text-anchor="middle" x="796.381" y="-183.8" font-family="Times,serif" font-size="14.00">false</text>
</g>
<!-- Plat_Set -->
<g id="${uniqueid}_node13" class="node"><title>Plat_Set</title>
<g id="a_${uniqueid}_node13"><a xlink:href="#2319979416853068" xlink:title="com.watch4net.alerting.action.SNMPTrapAction">
<ellipse fill="#4daf4a" stroke="black" cx="1025.84" cy="-126" rx="49.2915" ry="18"/>
<text text-anchor="middle" x="1025.84" y="-122.3" font-family="Times,serif" font-size="14.00" fill="white">Plat_Set</text>
</a>
</g>
</g>
<!-- Plat_Maj_Chk&#45;&gt;Plat_Set -->
<g id="${uniqueid}_edge13" class="edge"><title>Plat_Maj_Chk:se&#45;&gt;Plat_Set:w</title>
<path fill="none" stroke="black" d="M815.381,-148C863.498,-99.8828 899.62,-123.397 964.597,-125.808"/>
<polygon fill="black" stroke="black" points="964.774,-129.312 974.838,-126 964.905,-122.313 964.774,-129.312"/>
<text text-anchor="middle" x="799.881" y="-136.8" font-family="Times,serif" font-size="14.00">true</text>
</g>
<!-- Platinum lvl chk&#45;&gt;Plat_Maj_Chk -->
<g id="${uniqueid}_edge14" class="edge"><title>Platinum lvl chk:e&#45;&gt;Plat_Maj_Chk:w</title>
<path fill="none" stroke="black" d="M634.618,-180C656.211,-180 662.352,-168.397 679.358,-164.953"/>
<polygon fill="black" stroke="black" points="679.757,-168.431 689.381,-164 679.094,-161.462 679.757,-168.431"/>
<text text-anchor="middle" x="650.118" y="-168.8" font-family="Times,serif" font-size="14.00">true</text>
</g>
<!-- Silver_Maj_Chk -->
<g id="${uniqueid}_node17" class="node"><title>Silver_Maj_Chk</title>
<g id="a_${uniqueid}_node17"><a xlink:href="#2319979417005343" xlink:title="com.watch4net.alerting.operation.comparator.ConstantComparatorOperation">
<polygon fill="#ff7f00" stroke="black" points="798.381,-74 678.9,-56 798.381,-38 917.862,-56 798.381,-74"/>
<text text-anchor="middle" x="798.381" y="-52.3" font-family="Times,serif" font-size="14.00" fill="white">Silver_Maj_Chk</text>
</a>
</g>
</g>
<!-- Silver lvl chk&#45;&gt;Silver_Maj_Chk -->
<g id="${uniqueid}_edge15" class="edge"><title>Silver lvl chk:e&#45;&gt;Silver_Maj_Chk:w</title>
<path fill="none" stroke="black" d="M613.451,-99C643.948,-99 643.671,-64.8918 667.436,-57.4307"/>
<polygon fill="black" stroke="black" points="667.981,-60.8884 677.381,-56 666.984,-53.9597 667.981,-60.8884"/>
<text text-anchor="middle" x="628.951" y="-87.8" font-family="Times,serif" font-size="14.00">true</text>
</g>
<!-- Silver_Clr -->
<g id="${uniqueid}_node16" class="node"><title>Silver_Clr</title>
<g id="a_${uniqueid}_node16"><a xlink:href="#2319979417081604" xlink:title="com.watch4net.alerting.action.SNMPTrapAction">
<ellipse fill="#4daf4a" stroke="black" cx="1025.84" cy="-72" rx="57.3905" ry="18"/>
<text text-anchor="middle" x="1025.84" y="-68.3" font-family="Times,serif" font-size="14.00" fill="white">Silver_Clr</text>
</a>
</g>
</g>
<!-- Silver_Maj_Chk&#45;&gt;Silver_Clr -->
<g id="${uniqueid}_edge16" class="edge"><title>Silver_Maj_Chk:ne&#45;&gt;Silver_Clr:w</title>
<path fill="none" stroke="black" d="M813.381,-72C814.083,-72.7027 813.535,-73.4775 814.381,-74 853.507,-98.1814 871.885,-74.92 917.871,-74 936.273,-73.6319 943.222,-72.5019 957.689,-72.1243"/>
<polygon fill="black" stroke="black" points="957.882,-75.6223 967.838,-72 957.796,-68.6228 957.882,-75.6223"/>
<text text-anchor="middle" x="796.381" y="-75.8" font-family="Times,serif" font-size="14.00">false</text>
</g>
<!-- Silver_Set -->
<g id="${uniqueid}_node18" class="node"><title>Silver_Set</title>
<g id="a_${uniqueid}_node18"><a xlink:href="#2319979417050252" xlink:title="com.watch4net.alerting.action.SNMPTrapAction">
<ellipse fill="#4daf4a" stroke="black" cx="1025.84" cy="-18" rx="57.6901" ry="18"/>
<text text-anchor="middle" x="1025.84" y="-14.3" font-family="Times,serif" font-size="14.00" fill="white">Silver_Set</text>
</a>
</g>
</g>
<!-- Silver_Maj_Chk&#45;&gt;Silver_Set -->
<g id="${uniqueid}_edge17" class="edge"><title>Silver_Maj_Chk:se&#45;&gt;Silver_Set:w</title>
<path fill="none" stroke="black" d="M815.381,-40C861.036,5.65546 895.195,-15.5408 956.722,-17.8112"/>
<polygon fill="black" stroke="black" points="956.774,-21.3127 966.838,-18 956.905,-14.3139 956.774,-21.3127"/>
<text text-anchor="middle" x="799.881" y="-28.8" font-family="Times,serif" font-size="14.00">true</text>
</g>
</g>
</svg>
