<?xml version="1.0" encoding="UTF-8" standalone="no"?>
<!DOCTYPE svg PUBLIC "-//W3C//DTD SVG 1.1//EN"
 "http://www.w3.org/Graphics/SVG/1.1/DTD/svg11.dtd">
<!-- Generated by graphviz version 2.38.0 (20140413.2041)
 -->
<!-- Title: EMC VMAX Alert Definitions/VMAX&#45;Array/High Write Bandwidth Pages: 1 -->
<svg width="1007pt" height="462pt"
 viewBox="0.00 0.00 1006.85 462.35" xmlns="http://www.w3.org/2000/svg" xmlns:xlink="http://www.w3.org/1999/xlink">
<g id="${uniqueid}" class="graph" transform="scale(1 1) rotate(0) translate(4 458.347)">
<title>EMC VMAX Alert Definitions/VMAX&#45;Array/High Write Bandwidth</title>
<polygon fill="white" stroke="none" points="-4,4 -4,-458.347 1002.85,-458.347 1002.85,4 -4,4"/>
<!-- Comparator Write
Throughput_CRIT -->
<g id="${uniqueid}_node1" class="node"><title>Comparator Write
Throughput_CRIT</title>
<g id="a_${uniqueid}_node1"><a xlink:href="#98174113350046" xlink:title="com.watch4net.alerting.operation.comparator.ConstantComparatorOperation">
<polygon fill="#ff7f00" stroke="black" points="569.747,-402.87 422.747,-364.87 569.747,-326.87 716.747,-364.87 569.747,-402.87"/>
<text text-anchor="middle" x="569.747" y="-368.67" font-family="Times,serif" font-size="14.00" fill="white">Comparator Write</text>
<text text-anchor="middle" x="569.747" y="-353.67" font-family="Times,serif" font-size="14.00" fill="white">Throughput_CRIT</text>
</a>
</g>
</g>
<!-- SNMP_Write
Throughput_CRIT_
Clear -->
<g id="${uniqueid}_node6" class="node"><title>SNMP_Write
Throughput_CRIT_
Clear</title>
<g id="a_${uniqueid}_node6"><a xlink:href="#98174113389995" xlink:title="com.watch4net.alerting.action.SNMPTrapAction">
<ellipse fill="#4daf4a" stroke="black" cx="884.299" cy="-416.87" rx="107.46" ry="37.4533"/>
<text text-anchor="middle" x="884.299" y="-428.17" font-family="Times,serif" font-size="14.00" fill="white">SNMP_Write</text>
<text text-anchor="middle" x="884.299" y="-413.17" font-family="Times,serif" font-size="14.00" fill="white">Throughput_CRIT_</text>
<text text-anchor="middle" x="884.299" y="-398.17" font-family="Times,serif" font-size="14.00" fill="white">Clear</text>
</a>
</g>
</g>
<!-- Comparator Write
Throughput_CRIT&#45;&gt;SNMP_Write
Throughput_CRIT_
Clear -->
<g id="${uniqueid}_edge1" class="edge"><title>Comparator Write
Throughput_CRIT:ne&#45;&gt;SNMP_Write
Throughput_CRIT_
Clear:w</title>
<path fill="none" stroke="black" d="M598.747,-394.87C601.281,-397.404 597.157,-400.394 599.747,-402.87 653.777,-454.533 693.338,-420.282 764.973,-417.101"/>
<polygon fill="black" stroke="black" points="765.379,-420.593 775.299,-416.87 765.223,-413.594 765.379,-420.593"/>
<text text-anchor="middle" x="581.747" y="-398.67" font-family="Times,serif" font-size="14.00">false</text>
</g>
<!-- WriteThroughput_
Crit -->
<g id="${uniqueid}_node9" class="node"><title>WriteThroughput_
Crit</title>
<g id="a_${uniqueid}_node9"><a xlink:href="#98174113371429" xlink:title="com.watch4net.alerting.action.SNMPTrapAction">
<ellipse fill="#4daf4a" stroke="black" cx="884.299" cy="-334.87" rx="104.804" ry="26.7407"/>
<text text-anchor="middle" x="884.299" y="-338.67" font-family="Times,serif" font-size="14.00" fill="white">WriteThroughput_</text>
<text text-anchor="middle" x="884.299" y="-323.67" font-family="Times,serif" font-size="14.00" fill="white">Crit</text>
</a>
</g>
</g>
<!-- Comparator Write
Throughput_CRIT&#45;&gt;WriteThroughput_
Crit -->
<g id="${uniqueid}_edge2" class="edge"><title>Comparator Write
Throughput_CRIT:se&#45;&gt;WriteThroughput_
Crit:w</title>
<path fill="none" stroke="black" d="M600.747,-334.87C654.04,-281.578 695.512,-330.082 767.878,-334.547"/>
<polygon fill="black" stroke="black" points="768.195,-338.059 778.299,-334.87 768.412,-331.062 768.195,-338.059"/>
<text text-anchor="middle" x="585.247" y="-323.67" font-family="Times,serif" font-size="14.00">true</text>
</g>
<!-- Comparator Write
Throughput_MINOR -->
<g id="${uniqueid}_node2" class="node"><title>Comparator Write
Throughput_MINOR</title>
<g id="a_${uniqueid}_node2"><a xlink:href="#98174113439352" xlink:title="com.watch4net.alerting.operation.comparator.ConstantComparatorOperation">
<polygon fill="#ff7f00" stroke="black" points="569.747,-249.87 405.747,-211.87 569.747,-173.87 733.747,-211.87 569.747,-249.87"/>
<text text-anchor="middle" x="569.747" y="-215.67" font-family="Times,serif" font-size="14.00" fill="white">Comparator Write</text>
<text text-anchor="middle" x="569.747" y="-200.67" font-family="Times,serif" font-size="14.00" fill="white">Throughput_MINOR</text>
</a>
</g>
</g>
<!-- SNMP_Write
Throughput_
Minor_Clear -->
<g id="${uniqueid}_node5" class="node"><title>SNMP_Write
Throughput_
Minor_Clear</title>
<g id="a_${uniqueid}_node5"><a xlink:href="#98174113453935" xlink:title="com.watch4net.alerting.action.SNMPTrapAction">
<ellipse fill="#4daf4a" stroke="black" cx="884.299" cy="-252.87" rx="77.5641" ry="37.4533"/>
<text text-anchor="middle" x="884.299" y="-264.17" font-family="Times,serif" font-size="14.00" fill="white">SNMP_Write</text>
<text text-anchor="middle" x="884.299" y="-249.17" font-family="Times,serif" font-size="14.00" fill="white">Throughput_</text>
<text text-anchor="middle" x="884.299" y="-234.17" font-family="Times,serif" font-size="14.00" fill="white">Minor_Clear</text>
</a>
</g>
</g>
<!-- Comparator Write
Throughput_MINOR&#45;&gt;SNMP_Write
Throughput_
Minor_Clear -->
<g id="${uniqueid}_edge3" class="edge"><title>Comparator Write
Throughput_MINOR:ne&#45;&gt;SNMP_Write
Throughput_
Minor_Clear:w</title>
<path fill="none" stroke="black" d="M599.747,-242.87C601.969,-245.092 598.388,-247.794 600.747,-249.87 666.396,-307.656 710.887,-257.048 795.104,-253.109"/>
<polygon fill="black" stroke="black" points="795.383,-256.603 805.299,-252.87 795.219,-249.605 795.383,-256.603"/>
<text text-anchor="middle" x="582.747" y="-246.67" font-family="Times,serif" font-size="14.00">false</text>
</g>
<!-- WriteThroughput_
Minor -->
<g id="${uniqueid}_node11" class="node"><title>WriteThroughput_
Minor</title>
<g id="a_${uniqueid}_node11"><a xlink:href="#98174113468025" xlink:title="com.watch4net.alerting.action.SNMPTrapAction">
<ellipse fill="#4daf4a" stroke="black" cx="884.299" cy="-170.87" rx="104.804" ry="26.7407"/>
<text text-anchor="middle" x="884.299" y="-174.67" font-family="Times,serif" font-size="14.00" fill="white">WriteThroughput_</text>
<text text-anchor="middle" x="884.299" y="-159.67" font-family="Times,serif" font-size="14.00" fill="white">Minor</text>
</a>
</g>
</g>
<!-- Comparator Write
Throughput_MINOR&#45;&gt;WriteThroughput_
Minor -->
<g id="${uniqueid}_edge4" class="edge"><title>Comparator Write
Throughput_MINOR:se&#45;&gt;WriteThroughput_
Minor:w</title>
<path fill="none" stroke="black" d="M601.747,-180.87C654.824,-127.793 695.871,-166.98 767.922,-170.607"/>
<polygon fill="black" stroke="black" points="768.213,-174.116 778.299,-170.87 768.39,-167.118 768.213,-174.116"/>
<text text-anchor="middle" x="586.247" y="-169.67" font-family="Times,serif" font-size="14.00">true</text>
</g>
<!-- Comparator Write
Throughput_Major -->
<g id="${uniqueid}_node3" class="node"><title>Comparator Write
Throughput_Major</title>
<g id="a_${uniqueid}_node3"><a xlink:href="#98174113400447" xlink:title="com.watch4net.alerting.operation.comparator.ConstantComparatorOperation">
<polygon fill="#ff7f00" stroke="black" points="569.747,-106.87 418.747,-68.8701 569.747,-30.8701 720.747,-68.8701 569.747,-106.87"/>
<text text-anchor="middle" x="569.747" y="-72.6701" font-family="Times,serif" font-size="14.00" fill="white">Comparator Write</text>
<text text-anchor="middle" x="569.747" y="-57.6701" font-family="Times,serif" font-size="14.00" fill="white">Throughput_Major</text>
</a>
</g>
</g>
<!-- SNMP_Throughput_
Major_Clear -->
<g id="${uniqueid}_node4" class="node"><title>SNMP_Throughput_
Major_Clear</title>
<g id="a_${uniqueid}_node4"><a xlink:href="#98174113413971" xlink:title="com.watch4net.alerting.action.SNMPTrapAction">
<ellipse fill="#4daf4a" stroke="black" cx="884.299" cy="-98.8701" rx="114.603" ry="26.7407"/>
<text text-anchor="middle" x="884.299" y="-102.67" font-family="Times,serif" font-size="14.00" fill="white">SNMP_Throughput_</text>
<text text-anchor="middle" x="884.299" y="-87.6701" font-family="Times,serif" font-size="14.00" fill="white">Major_Clear</text>
</a>
</g>
</g>
<!-- Comparator Write
Throughput_Major&#45;&gt;SNMP_Throughput_
Major_Clear -->
<g id="${uniqueid}_edge5" class="edge"><title>Comparator Write
Throughput_Major:ne&#45;&gt;SNMP_Throughput_
Major_Clear:w</title>
<path fill="none" stroke="black" d="M598.747,-98.8701C601.281,-101.404 597.061,-104.499 599.747,-106.87 640.063,-142.46 667.145,-111.217 720.747,-106.87 738.961,-105.393 745.479,-100.876 759.714,-99.3669"/>
<polygon fill="black" stroke="black" points="759.933,-102.86 769.747,-98.8701 759.586,-95.869 759.933,-102.86"/>
<text text-anchor="middle" x="581.747" y="-102.67" font-family="Times,serif" font-size="14.00">false</text>
</g>
<!-- WriteThroughput_
Major -->
<g id="${uniqueid}_node10" class="node"><title>WriteThroughput_
Major</title>
<g id="a_${uniqueid}_node10"><a xlink:href="#98174113427717" xlink:title="com.watch4net.alerting.action.SNMPTrapAction">
<ellipse fill="#4daf4a" stroke="black" cx="884.299" cy="-26.8701" rx="104.804" ry="26.7407"/>
<text text-anchor="middle" x="884.299" y="-30.6701" font-family="Times,serif" font-size="14.00" fill="white">WriteThroughput_</text>
<text text-anchor="middle" x="884.299" y="-15.6701" font-family="Times,serif" font-size="14.00" fill="white">Major</text>
</a>
</g>
</g>
<!-- Comparator Write
Throughput_Major&#45;&gt;WriteThroughput_
Major -->
<g id="${uniqueid}_edge6" class="edge"><title>Comparator Write
Throughput_Major:se&#45;&gt;WriteThroughput_
Major:w</title>
<path fill="none" stroke="black" d="M600.747,-38.8701C654.161,14.5439 695.358,-23.1251 767.857,-26.6172"/>
<polygon fill="black" stroke="black" points="768.217,-30.1268 778.299,-26.8701 768.386,-23.1289 768.217,-30.1268"/>
<text text-anchor="middle" x="585.247" y="-27.6701" font-family="Times,serif" font-size="14.00">true</text>
</g>
<!-- Write bandwidth
of Array filter -->
<g id="${uniqueid}_node7" class="node"><title>Write bandwidth
of Array filter</title>
<g id="a_${uniqueid}_node7"><a xlink:href="#98174113295421" xlink:title="com.watch4net.alerting.operation.FilteredEntryPoint">
<ellipse fill="#984ea3" stroke="black" cx="96.8736" cy="-211.87" rx="96.7474" ry="26.7407"/>
<text text-anchor="middle" x="96.8736" y="-215.67" font-family="Times,serif" font-size="14.00" fill="white">Write bandwidth</text>
<text text-anchor="middle" x="96.8736" y="-200.67" font-family="Times,serif" font-size="14.00" fill="white">of Array filter</text>
</a>
</g>
</g>
<!-- WriteThroughput
Case -->
<g id="${uniqueid}_node8" class="node"><title>WriteThroughput
Case</title>
<g id="a_${uniqueid}_node8"><a xlink:href="#98174113338810" xlink:title="com.watch4net.alerting.operation.CaseOperation">
<polygon fill="#377eb8" stroke="black" points="369.747,-230.87 229.747,-230.87 229.747,-192.87 369.747,-192.87 369.747,-230.87"/>
<text text-anchor="middle" x="299.747" y="-215.67" font-family="Times,serif" font-size="14.00" fill="white">WriteThroughput</text>
<text text-anchor="middle" x="299.747" y="-200.67" font-family="Times,serif" font-size="14.00" fill="white">Case</text>
</a>
</g>
</g>
<!-- Write bandwidth
of Array filter&#45;&gt;WriteThroughput
Case -->
<g id="${uniqueid}_edge7" class="edge"><title>Write bandwidth
of Array filter:e&#45;&gt;WriteThroughput
Case:w</title>
<path fill="none" stroke="black" d="M193.747,-211.87C205.747,-211.87 210.997,-211.87 219.622,-211.87"/>
<polygon fill="black" stroke="black" points="219.747,-215.37 229.747,-211.87 219.747,-208.37 219.747,-215.37"/>
</g>
<!-- WriteThroughput
Case&#45;&gt;Comparator Write
Throughput_CRIT -->
<g id="${uniqueid}_edge8" class="edge"><title>WriteThroughput
Case:e&#45;&gt;Comparator Write
Throughput_CRIT:w</title>
<path fill="none" stroke="black" d="M369.747,-211.87C437.78,-211.87 359.138,-349.159 411.701,-363.638"/>
<polygon fill="black" stroke="black" points="411.396,-367.127 421.747,-364.87 412.247,-360.179 411.396,-367.127"/>
</g>
<!-- WriteThroughput
Case&#45;&gt;Comparator Write
Throughput_MINOR -->
<g id="${uniqueid}_edge9" class="edge"><title>WriteThroughput
Case:e&#45;&gt;Comparator Write
Throughput_MINOR:w</title>
<path fill="none" stroke="black" d="M369.747,-211.87C381.747,-211.87 386.997,-211.87 395.622,-211.87"/>
<polygon fill="black" stroke="black" points="395.747,-215.37 405.747,-211.87 395.747,-208.37 395.747,-215.37"/>
</g>
<!-- WriteThroughput
Case&#45;&gt;Comparator Write
Throughput_Major -->
<g id="${uniqueid}_edge10" class="edge"><title>WriteThroughput
Case:e&#45;&gt;Comparator Write
Throughput_Major:w</title>
<path fill="none" stroke="black" d="M369.747,-211.87C432.99,-211.87 359.967,-84.6105 407.774,-70.1944"/>
<polygon fill="black" stroke="black" points="408.295,-73.656 417.747,-68.8701 407.374,-66.7169 408.295,-73.656"/>
</g>
</g>
</svg>
