<?xml version="1.0" encoding="UTF-8" standalone="no"?>
<!DOCTYPE svg PUBLIC "-//W3C//DTD SVG 1.1//EN"
 "http://www.w3.org/Graphics/SVG/1.1/DTD/svg11.dtd">
<!-- Generated by graphviz version 2.38.0 (20140413.2041)
 -->
<!-- Title: EMC VMAX Alert Definitions/VMAX&#45;Controller/High Write Percent Pages: 1 -->
<svg width="890pt" height="296pt"
 viewBox="0.00 0.00 889.87 295.52" xmlns="http://www.w3.org/2000/svg" xmlns:xlink="http://www.w3.org/1999/xlink">
<g id="${uniqueid}" class="graph" transform="scale(1 1) rotate(0) translate(4 291.518)">
<title>EMC VMAX Alert Definitions/VMAX&#45;Controller/High Write Percent</title>
<polygon fill="white" stroke="none" points="-4,4 -4,-291.518 885.865,-291.518 885.865,4 -4,4"/>
<!-- ControllerHigh
WritePercent_
Major -->
<g id="${uniqueid}_node1" class="node"><title>ControllerHigh
WritePercent_
Major</title>
<g id="a_${uniqueid}_node1"><a xlink:href="#2007796353903589" xlink:title="com.watch4net.alerting.operation.comparator.ConstantComparatorOperation">
<polygon fill="#ff7f00" stroke="black" points="511.584,-273.477 386.584,-220.477 511.584,-167.477 636.584,-220.477 511.584,-273.477"/>
<text text-anchor="middle" x="511.584" y="-231.777" font-family="Times,serif" font-size="14.00" fill="white">ControllerHigh</text>
<text text-anchor="middle" x="511.584" y="-216.777" font-family="Times,serif" font-size="14.00" fill="white">WritePercent_</text>
<text text-anchor="middle" x="511.584" y="-201.777" font-family="Times,serif" font-size="14.00" fill="white">Major</text>
</a>
</g>
</g>
<!-- Controller_High_
Write_IO_Rate_
Major -->
<g id="${uniqueid}_node4" class="node"><title>Controller_High_
Write_IO_Rate_
Major</title>
<g id="a_${uniqueid}_node4"><a xlink:href="#2007796353932897" xlink:title="com.watch4net.alerting.action.SNMPTrapAction">
<ellipse fill="#4daf4a" stroke="black" cx="777.224" cy="-184.477" rx="98.9899" ry="37.4533"/>
<text text-anchor="middle" x="777.224" y="-195.777" font-family="Times,serif" font-size="14.00" fill="white">Controller_High_</text>
<text text-anchor="middle" x="777.224" y="-180.777" font-family="Times,serif" font-size="14.00" fill="white">Write_IO_Rate_</text>
<text text-anchor="middle" x="777.224" y="-165.777" font-family="Times,serif" font-size="14.00" fill="white">Major</text>
</a>
</g>
</g>
<!-- ControllerHigh
WritePercent_
Major&#45;&gt;Controller_High_
Write_IO_Rate_
Major -->
<g id="${uniqueid}_edge2" class="edge"><title>ControllerHigh
WritePercent_
Major:se&#45;&gt;Controller_High_
Write_IO_Rate_
Major:w</title>
<path fill="none" stroke="black" d="M550.584,-182.477C587.9,-145.16 617.078,-179.57 666.963,-184.017"/>
<polygon fill="black" stroke="black" points="667.078,-187.525 677.224,-184.477 667.391,-180.532 667.078,-187.525"/>
<text text-anchor="middle" x="535.084" y="-171.277" font-family="Times,serif" font-size="14.00">true</text>
</g>
<!-- SNMP_Clear_Major -->
<g id="${uniqueid}_node7" class="node"><title>SNMP_Clear_Major</title>
<g id="a_${uniqueid}_node7"><a xlink:href="#2007796353920167" xlink:title="com.watch4net.alerting.action.SNMPTrapAction">
<ellipse fill="#4daf4a" stroke="black" cx="777.224" cy="-258.477" rx="103.982" ry="18"/>
<text text-anchor="middle" x="777.224" y="-254.777" font-family="Times,serif" font-size="14.00" fill="white">SNMP_Clear_Major</text>
</a>
</g>
</g>
<!-- ControllerHigh
WritePercent_
Major&#45;&gt;SNMP_Clear_Major -->
<g id="${uniqueid}_edge1" class="edge"><title>ControllerHigh
WritePercent_
Major:ne&#45;&gt;SNMP_Clear_Major:w</title>
<path fill="none" stroke="black" d="M548.584,-258.477C550.946,-260.839 547.144,-271.194 549.584,-273.477 577.82,-299.893 598.668,-281.06 636.584,-273.477 649.597,-270.874 653.626,-263.464 662.578,-260.133"/>
<polygon fill="black" stroke="black" points="663.29,-263.563 672.584,-258.477 662.146,-256.657 663.29,-263.563"/>
<text text-anchor="middle" x="531.584" y="-262.277" font-family="Times,serif" font-size="14.00">false</text>
</g>
<!-- ControllerHigh
Writepercent_
Minor -->
<g id="${uniqueid}_node2" class="node"><title>ControllerHigh
Writepercent_
Minor</title>
<g id="a_${uniqueid}_node2"><a xlink:href="#2007796353941893" xlink:title="com.watch4net.alerting.operation.comparator.ConstantComparatorOperation">
<polygon fill="#ff7f00" stroke="black" points="511.584,-128.477 386.584,-75.4767 511.584,-22.4767 636.584,-75.4767 511.584,-128.477"/>
<text text-anchor="middle" x="511.584" y="-86.7767" font-family="Times,serif" font-size="14.00" fill="white">ControllerHigh</text>
<text text-anchor="middle" x="511.584" y="-71.7767" font-family="Times,serif" font-size="14.00" fill="white">Writepercent_</text>
<text text-anchor="middle" x="511.584" y="-56.7767" font-family="Times,serif" font-size="14.00" fill="white">Minor</text>
</a>
</g>
</g>
<!-- Controller_High_
Write_IO_Rate_
Minor -->
<g id="${uniqueid}_node5" class="node"><title>Controller_High_
Write_IO_Rate_
Minor</title>
<g id="a_${uniqueid}_node5"><a xlink:href="#2007796353963148" xlink:title="com.watch4net.alerting.action.SNMPTrapAction">
<ellipse fill="#4daf4a" stroke="black" cx="777.224" cy="-37.4767" rx="98.9899" ry="37.4533"/>
<text text-anchor="middle" x="777.224" y="-48.7767" font-family="Times,serif" font-size="14.00" fill="white">Controller_High_</text>
<text text-anchor="middle" x="777.224" y="-33.7767" font-family="Times,serif" font-size="14.00" fill="white">Write_IO_Rate_</text>
<text text-anchor="middle" x="777.224" y="-18.7767" font-family="Times,serif" font-size="14.00" fill="white">Minor</text>
</a>
</g>
</g>
<!-- ControllerHigh
Writepercent_
Minor&#45;&gt;Controller_High_
Write_IO_Rate_
Minor -->
<g id="${uniqueid}_edge4" class="edge"><title>ControllerHigh
Writepercent_
Minor:se&#45;&gt;Controller_High_
Write_IO_Rate_
Minor:w</title>
<path fill="none" stroke="black" d="M550.584,-37.4767C587.896,-0.164781 617.084,-32.8127 666.964,-37.0394"/>
<polygon fill="black" stroke="black" points="667.084,-40.5476 677.224,-37.4767 667.382,-33.554 667.084,-40.5476"/>
<text text-anchor="middle" x="535.084" y="-26.2767" font-family="Times,serif" font-size="14.00">true</text>
</g>
<!-- SNMP_Clear_Minor -->
<g id="${uniqueid}_node8" class="node"><title>SNMP_Clear_Minor</title>
<g id="a_${uniqueid}_node8"><a xlink:href="#2007796353952997" xlink:title="com.watch4net.alerting.action.SNMPTrapAction">
<ellipse fill="#4daf4a" stroke="black" cx="777.224" cy="-111.477" rx="104.782" ry="18"/>
<text text-anchor="middle" x="777.224" y="-107.777" font-family="Times,serif" font-size="14.00" fill="white">SNMP_Clear_Minor</text>
</a>
</g>
</g>
<!-- ControllerHigh
Writepercent_
Minor&#45;&gt;SNMP_Clear_Minor -->
<g id="${uniqueid}_edge3" class="edge"><title>ControllerHigh
Writepercent_
Minor:ne&#45;&gt;SNMP_Clear_Minor:w</title>
<path fill="none" stroke="black" d="M548.584,-113.477C550.946,-115.839 547.144,-126.194 549.584,-128.477 577.82,-154.893 598.854,-136.937 636.584,-128.477 649.937,-125.482 653.585,-116.95 662.739,-113.238"/>
<polygon fill="black" stroke="black" points="663.356,-116.683 672.584,-111.477 662.123,-109.793 663.356,-116.683"/>
<text text-anchor="middle" x="531.584" y="-102.277" font-family="Times,serif" font-size="14.00">false</text>
</g>
<!-- ControllerWrite
Percent -->
<g id="${uniqueid}_node3" class="node"><title>ControllerWrite
Percent</title>
<g id="a_${uniqueid}_node3"><a xlink:href="#2007796353894264" xlink:title="com.watch4net.alerting.operation.CaseOperation">
<polygon fill="#377eb8" stroke="black" points="350.584,-165.477 220.584,-165.477 220.584,-127.477 350.584,-127.477 350.584,-165.477"/>
<text text-anchor="middle" x="285.584" y="-150.277" font-family="Times,serif" font-size="14.00" fill="white">ControllerWrite</text>
<text text-anchor="middle" x="285.584" y="-135.277" font-family="Times,serif" font-size="14.00" fill="white">Percent</text>
</a>
</g>
</g>
<!-- ControllerWrite
Percent&#45;&gt;ControllerHigh
WritePercent_
Major -->
<g id="${uniqueid}_edge5" class="edge"><title>ControllerWrite
Percent:e&#45;&gt;ControllerHigh
WritePercent_
Major:w</title>
<path fill="none" stroke="black" d="M350.584,-146.477C383.015,-146.477 357.48,-204.661 376.778,-217.843"/>
<polygon fill="black" stroke="black" points="376.018,-221.263 386.584,-220.477 377.834,-214.502 376.018,-221.263"/>
</g>
<!-- ControllerWrite
Percent&#45;&gt;ControllerHigh
Writepercent_
Minor -->
<g id="${uniqueid}_edge6" class="edge"><title>ControllerWrite
Percent:e&#45;&gt;ControllerHigh
Writepercent_
Minor:w</title>
<path fill="none" stroke="black" d="M350.584,-146.477C381.818,-146.477 358.387,-91.1422 376.809,-78.1732"/>
<polygon fill="black" stroke="black" points="377.875,-81.5102 386.584,-75.4767 376.013,-74.7623 377.875,-81.5102"/>
</g>
<!-- HighWriteIORate -->
<g id="${uniqueid}_node6" class="node"><title>HighWriteIORate</title>
<g id="a_${uniqueid}_node6"><a xlink:href="#2007796353851108" xlink:title="com.watch4net.alerting.operation.FilteredEntryPoint">
<ellipse fill="#984ea3" stroke="black" cx="92.2918" cy="-146.477" rx="92.0841" ry="18"/>
<text text-anchor="middle" x="92.2918" y="-142.777" font-family="Times,serif" font-size="14.00" fill="white">HighWriteIORate</text>
</a>
</g>
</g>
<!-- HighWriteIORate&#45;&gt;ControllerWrite
Percent -->
<g id="${uniqueid}_edge7" class="edge"><title>HighWriteIORate:e&#45;&gt;ControllerWrite
Percent:w</title>
<path fill="none" stroke="black" d="M184.584,-146.477C196.584,-146.477 201.834,-146.477 210.459,-146.477"/>
<polygon fill="black" stroke="black" points="210.584,-149.977 220.584,-146.477 210.584,-142.977 210.584,-149.977"/>
</g>
</g>
</svg>
