<?xml version="1.0" encoding="UTF-8" standalone="no"?>
<!DOCTYPE svg PUBLIC "-//W3C//DTD SVG 1.1//EN"
 "http://www.w3.org/Graphics/SVG/1.1/DTD/svg11.dtd">
<!-- Generated by graphviz version 2.38.0 (20140413.2041)
 -->
<!-- Title: Cisco UCS/C&#45;Series Overall Health status Pages: 1 -->
<svg width="487pt" height="116pt"
 viewBox="0.00 0.00 487.00 115.87" xmlns="http://www.w3.org/2000/svg" xmlns:xlink="http://www.w3.org/1999/xlink">
<g id="${uniqueid}" class="graph" transform="scale(1 1) rotate(0) translate(4 111.87)">
<title>Cisco UCS/C&#45;Series Overall Health status</title>
<polygon fill="white" stroke="none" points="-4,4 -4,-111.87 483.004,-111.87 483.004,4 -4,4"/>
<!-- Action
CLEARMajor -->
<g id="${uniqueid}_node1" class="node"><title>Action
CLEARMajor</title>
<g id="a_${uniqueid}_node1"><a xlink:href="#1413386880020" xlink:title="com.watch4net.alerting.action.SNMPTrapAction">
<ellipse fill="#4daf4a" stroke="black" cx="395.161" cy="-81" rx="65.1077" ry="26.7407"/>
<text text-anchor="middle" x="395.161" y="-84.8" font-family="Times,serif" font-size="14.00" fill="white">Action</text>
<text text-anchor="middle" x="395.161" y="-69.8" font-family="Times,serif" font-size="14.00" fill="white">CLEARMajor</text>
</a>
</g>
</g>
<!-- Action SETMajor -->
<g id="${uniqueid}_node2" class="node"><title>Action SETMajor</title>
<g id="a_${uniqueid}_node2"><a xlink:href="#1413386682477" xlink:title="com.watch4net.alerting.action.SNMPTrapAction">
<ellipse fill="#4daf4a" stroke="black" cx="395.161" cy="-18" rx="83.6854" ry="18"/>
<text text-anchor="middle" x="395.161" y="-14.3" font-family="Times,serif" font-size="14.00" fill="white">Action SETMajor</text>
</a>
</g>
</g>
<!-- Comparator -->
<g id="${uniqueid}_node3" class="node"><title>Comparator</title>
<g id="a_${uniqueid}_node3"><a xlink:href="#1210975487958250" xlink:title="com.watch4net.alerting.operation.comparator.ConstantComparatorOperation">
<polygon fill="#ff7f00" stroke="black" points="190.756,-67 106.131,-49 190.756,-31 275.381,-49 190.756,-67"/>
<text text-anchor="middle" x="190.756" y="-45.3" font-family="Times,serif" font-size="14.00" fill="white">Comparator</text>
</a>
</g>
</g>
<!-- Comparator&#45;&gt;Action
CLEARMajor -->
<g id="${uniqueid}_edge1" class="edge"><title>Comparator:ne&#45;&gt;Action
CLEARMajor:w</title>
<path fill="none" stroke="black" d="M204.756,-64C205.75,-64.9938 204.664,-66.1152 205.756,-67 245.962,-99.5796 270.729,-83.3771 319.15,-81.2246"/>
<polygon fill="black" stroke="black" points="319.242,-84.7235 329.161,-81 319.085,-77.7252 319.242,-84.7235"/>
<text text-anchor="middle" x="185.756" y="-67.8" font-family="Times,serif" font-size="14.00">false</text>
</g>
<!-- Comparator&#45;&gt;Action SETMajor -->
<g id="${uniqueid}_edge2" class="edge"><title>Comparator:se&#45;&gt;Action SETMajor:w</title>
<path fill="none" stroke="black" d="M206.756,-34C237.532,-3.22398 260.648,-15.7185 301.213,-17.7427"/>
<polygon fill="black" stroke="black" points="301.233,-21.2443 311.319,-18 301.411,-14.2465 301.233,-21.2443"/>
<text text-anchor="middle" x="191.256" y="-22.8" font-family="Times,serif" font-size="14.00">true</text>
</g>
<!-- Entry -->
<g id="${uniqueid}_node4" class="node"><title>Entry</title>
<g id="a_${uniqueid}_node4"><a xlink:href="#1210975487808250" xlink:title="com.watch4net.alerting.operation.FilteredEntryPoint">
<ellipse fill="#984ea3" stroke="black" cx="35.0969" cy="-49" rx="35.194" ry="18"/>
<text text-anchor="middle" x="35.0969" y="-45.3" font-family="Times,serif" font-size="14.00" fill="white">Entry</text>
</a>
</g>
</g>
<!-- Entry&#45;&gt;Comparator -->
<g id="${uniqueid}_edge3" class="edge"><title>Entry:e&#45;&gt;Comparator:w</title>
<path fill="none" stroke="black" d="M70.1938,-49C82.1938,-49 87.4438,-49 96.0688,-49"/>
<polygon fill="black" stroke="black" points="96.1938,-52.5001 106.194,-49 96.1937,-45.5001 96.1938,-52.5001"/>
</g>
</g>
</svg>
