<?xml version="1.0" encoding="UTF-8" standalone="no"?>
<!DOCTYPE svg PUBLIC "-//W3C//DTD SVG 1.1//EN"
 "http://www.w3.org/Graphics/SVG/1.1/DTD/svg11.dtd">
<!-- Generated by graphviz version 2.38.0 (20140413.2041)
 -->
<!-- Title: EMC M&amp;R Health/Component Availability Pages: 1 -->
<svg width="940pt" height="172pt"
 viewBox="0.00 0.00 940.44 171.87" xmlns="http://www.w3.org/2000/svg" xmlns:xlink="http://www.w3.org/1999/xlink">
<g id="${uniqueid}" class="graph" transform="scale(1 1) rotate(0) translate(4 167.87)">
<title>EMC M&amp;R Health/Component Availability</title>
<polygon fill="white" stroke="none" points="-4,4 -4,-167.87 936.435,-167.87 936.435,4 -4,4"/>
<!-- Action Clear
Major -->
<g id="${uniqueid}_node1" class="node"><title>Action Clear
Major</title>
<g id="a_${uniqueid}_node1"><a xlink:href="#afe30dcf-3dc0-48b7-b9ac-c73cf3a27230" xlink:title="com.watch4net.alerting.action.SNMPTrapAction">
<ellipse fill="#4daf4a" stroke="black" cx="841.435" cy="-137" rx="75.8212" ry="26.7407"/>
<text text-anchor="middle" x="841.435" y="-140.8" font-family="Times,serif" font-size="14.00" fill="white">Action Clear</text>
<text text-anchor="middle" x="841.435" y="-125.8" font-family="Times,serif" font-size="14.00" fill="white">Major</text>
</a>
</g>
</g>
<!-- Action SETMajor -->
<g id="${uniqueid}_node2" class="node"><title>Action SETMajor</title>
<g id="a_${uniqueid}_node2"><a xlink:href="#5c854a28-84dd-4c4f-bf31-ba29a942abd2" xlink:title="com.watch4net.alerting.action.SNMPTrapAction">
<ellipse fill="#4daf4a" stroke="black" cx="841.435" cy="-18" rx="83.6854" ry="18"/>
<text text-anchor="middle" x="841.435" y="-14.3" font-family="Times,serif" font-size="14.00" fill="white">Action SETMajor</text>
</a>
</g>
</g>
<!-- Availability
check -->
<g id="${uniqueid}_node3" class="node"><title>Availability
check</title>
<g id="a_${uniqueid}_node3"><a xlink:href="#ad254e8f-2319-491b-9264-ce59cd5f0036" xlink:title="com.watch4net.alerting.operation.comparator.ConstantComparatorOperation">
<polygon fill="#ff7f00" stroke="black" points="614.593,-115 507.593,-77 614.593,-39 721.593,-77 614.593,-115"/>
<text text-anchor="middle" x="614.593" y="-80.8" font-family="Times,serif" font-size="14.00" fill="white">Availability</text>
<text text-anchor="middle" x="614.593" y="-65.8" font-family="Times,serif" font-size="14.00" fill="white">check</text>
</a>
</g>
</g>
<!-- Availability
check&#45;&gt;Action Clear
Major -->
<g id="${uniqueid}_edge1" class="edge"><title>Availability
check:ne&#45;&gt;Action Clear
Major:w</title>
<path fill="none" stroke="black" d="M641.593,-105C643.172,-106.579 641.077,-113.36 642.593,-115 677.603,-152.89 705.693,-139.072 754.409,-137.197"/>
<polygon fill="black" stroke="black" points="754.506,-140.696 764.435,-137 754.369,-133.697 754.506,-140.696"/>
<text text-anchor="middle" x="622.593" y="-108.8" font-family="Times,serif" font-size="14.00">false</text>
</g>
<!-- Availability
check&#45;&gt;Action SETMajor -->
<g id="${uniqueid}_edge3" class="edge"><title>Availability
check:se&#45;&gt;Action SETMajor:w</title>
<path fill="none" stroke="black" d="M643.593,-49C678.255,-14.3378 701.794,-17.3769 747.493,-17.9334"/>
<polygon fill="black" stroke="black" points="747.57,-21.4339 757.593,-18 747.616,-14.434 747.57,-21.4339"/>
<text text-anchor="middle" x="628.093" y="-37.8" font-family="Times,serif" font-size="14.00">true</text>
</g>
<!-- Custom post&#45;
filter -->
<g id="${uniqueid}_node4" class="node"><title>Custom post&#45;
filter</title>
<g id="a_${uniqueid}_node4"><a xlink:href="#1436288942326" xlink:title="1435689668905">
<polygon fill="#e41a1c" stroke="black" points="894.935,-92 787.935,-92 787.935,-54 894.935,-54 894.935,-92"/>
<text text-anchor="middle" x="841.435" y="-76.8" font-family="Times,serif" font-size="14.00" fill="white">Custom post&#45;</text>
<text text-anchor="middle" x="841.435" y="-61.8" font-family="Times,serif" font-size="14.00" fill="white">filter</text>
</a>
</g>
</g>
<!-- Availability
check&#45;&gt;Custom post&#45;
filter -->
<g id="${uniqueid}_edge2" class="edge"><title>Availability
check:ne&#45;&gt;Custom post&#45;
filter:sw</title>
<path fill="none" stroke="black" d="M641.593,-105C643.172,-106.579 640.937,-113.501 642.593,-115 668.626,-138.56 688.88,-127.753 721.593,-115 755.387,-101.825 760.065,-40.4666 781.199,-48.1935"/>
<polygon fill="black" stroke="black" points="779.246,-51.0986 789.435,-54 783.279,-45.3774 779.246,-51.0986"/>
<text text-anchor="middle" x="860.935" y="-42.8" font-family="Times,serif" font-size="14.00">1435689620024|entry</text>
</g>
<!-- Availability
check&#45;&gt;Custom post&#45;
filter -->
<g id="${uniqueid}_edge4" class="edge"><title>Availability
check:se&#45;&gt;Custom post&#45;
filter:nw</title>
<path fill="none" stroke="black" d="M643.593,-49C664.788,-27.805 744.964,-98.4463 778.139,-95.9056"/>
<polygon fill="black" stroke="black" points="779.572,-99.1003 787.435,-92 776.86,-92.6467 779.572,-99.1003"/>
<text text-anchor="middle" x="858.935" y="-95.8" font-family="Times,serif" font-size="14.00">1435689616003|entry</text>
</g>
<!-- Custom pre&#45;
filter -->
<g id="${uniqueid}_node5" class="node"><title>Custom pre&#45;
filter</title>
<g id="a_${uniqueid}_node5"><a xlink:href="#1436288934300" xlink:title="1435689654812">
<polygon fill="#e41a1c" stroke="black" points="215.593,-96 116.593,-96 116.593,-58 215.593,-58 215.593,-96"/>
<text text-anchor="middle" x="166.093" y="-80.8" font-family="Times,serif" font-size="14.00" fill="white">Custom pre&#45;</text>
<text text-anchor="middle" x="166.093" y="-65.8" font-family="Times,serif" font-size="14.00" fill="white">filter</text>
</a>
</g>
</g>
<!-- Refine -->
<g id="${uniqueid}_node7" class="node"><title>Refine</title>
<g id="a_${uniqueid}_node7"><a xlink:href="#1428002369759" xlink:title="com.watch4net.alerting.operation.RefineFilterOperation">
<polygon fill="#377eb8" stroke="black" points="313.593,-95 251.593,-95 251.593,-59 313.593,-59 313.593,-95"/>
<text text-anchor="middle" x="282.593" y="-73.3" font-family="Times,serif" font-size="14.00" fill="white">Refine</text>
</a>
</g>
</g>
<!-- Custom pre&#45;
filter&#45;&gt;Refine -->
<g id="${uniqueid}_edge5" class="edge"><title>Custom pre&#45;
filter:e&#45;&gt;Refine:w</title>
<path fill="none" stroke="black" d="M215.593,-77C227.593,-77 232.843,-77 241.468,-77"/>
<polygon fill="black" stroke="black" points="241.593,-80.5001 251.593,-77 241.593,-73.5001 241.593,-80.5001"/>
</g>
<!-- Filter -->
<g id="${uniqueid}_node6" class="node"><title>Filter</title>
<g id="a_${uniqueid}_node6"><a xlink:href="#740f2b97-dcc6-4de0-9ca2-2c1ef95d6d03" xlink:title="com.watch4net.alerting.operation.FilteredEntryPoint">
<ellipse fill="#984ea3" stroke="black" cx="40.2964" cy="-77" rx="40.0939" ry="18"/>
<text text-anchor="middle" x="40.2964" y="-73.3" font-family="Times,serif" font-size="14.00" fill="white">Filter</text>
</a>
</g>
</g>
<!-- Filter&#45;&gt;Custom pre&#45;
filter -->
<g id="${uniqueid}_edge6" class="edge"><title>Filter:e&#45;&gt;Custom pre&#45;
filter:w</title>
<path fill="none" stroke="black" d="M80.5928,-77C92.5928,-77 97.8428,-77 106.468,-77"/>
<polygon fill="black" stroke="black" points="106.593,-80.5001 116.593,-77 106.593,-73.5001 106.593,-80.5001"/>
</g>
<!-- Wait for 2
polling cycles -->
<g id="${uniqueid}_node8" class="node"><title>Wait for 2
polling cycles</title>
<g id="a_${uniqueid}_node8"><a xlink:href="#d342a3d9-a523-458f-858e-7e62fa52bc93" xlink:title="com.watch4net.alerting.operation.window.HistoryOperation">
<polygon fill="#377eb8" stroke="black" points="471.593,-96 349.593,-96 349.593,-58 471.593,-58 471.593,-96"/>
<text text-anchor="middle" x="410.593" y="-80.8" font-family="Times,serif" font-size="14.00" fill="white">Wait for 2</text>
<text text-anchor="middle" x="410.593" y="-65.8" font-family="Times,serif" font-size="14.00" fill="white">polling cycles</text>
</a>
</g>
</g>
<!-- Refine&#45;&gt;Wait for 2
polling cycles -->
<g id="${uniqueid}_edge7" class="edge"><title>Refine:e&#45;&gt;Wait for 2
polling cycles:w</title>
<path fill="none" stroke="black" d="M313.593,-77C325.593,-77 330.843,-77 339.468,-77"/>
<polygon fill="black" stroke="black" points="339.593,-80.5001 349.593,-77 339.593,-73.5001 339.593,-80.5001"/>
</g>
<!-- Wait for 2
polling cycles&#45;&gt;Availability
check -->
<g id="${uniqueid}_edge8" class="edge"><title>Wait for 2
polling cycles:e&#45;&gt;Availability
check:w</title>
<path fill="none" stroke="black" d="M471.593,-77C483.593,-77 488.843,-77 497.468,-77"/>
<polygon fill="black" stroke="black" points="497.593,-80.5001 507.593,-77 497.593,-73.5001 497.593,-80.5001"/>
<text text-anchor="middle" x="494.593" y="-77.05" font-family="Times,serif" font-size="14.00">output</text>
</g>
</g>
</svg>
