<?xml version="1.0" encoding="UTF-8" standalone="no"?>
<!DOCTYPE svg PUBLIC "-//W3C//DTD SVG 1.1//EN"
 "http://www.w3.org/Graphics/SVG/1.1/DTD/svg11.dtd">
<!-- Generated by graphviz version 2.38.0 (20140413.2041)
 -->
<!-- Title: EMC ViPR Alert Definitions/Tenant Quota Capacity Pages: 1 -->
<svg width="1176pt" height="272pt"
 viewBox="0.00 0.00 1176.11 272.00" xmlns="http://www.w3.org/2000/svg" xmlns:xlink="http://www.w3.org/1999/xlink">
<g id="${uniqueid}" class="graph" transform="scale(1 1) rotate(0) translate(4 268)">
<title>EMC ViPR Alert Definitions/Tenant Quota Capacity</title>
<polygon fill="white" stroke="none" points="-4,4 -4,-268 1172.11,-268 1172.11,4 -4,4"/>
<!-- Critical Notify -->
<g id="${uniqueid}_node1" class="node"><title>Critical Notify</title>
<g id="a_${uniqueid}_node1"><a xlink:href="#1415897927291" xlink:title="com.watch4net.alerting.action.SNMPTrapAction">
<ellipse fill="#4daf4a" stroke="black" cx="1084.27" cy="-132" rx="83.6854" ry="18"/>
<text text-anchor="middle" x="1084.27" y="-128.3" font-family="Times,serif" font-size="14.00" fill="white">Critical Notify</text>
</a>
</g>
</g>
<!-- Info Notify -->
<g id="${uniqueid}_node2" class="node"><title>Info Notify</title>
<g id="a_${uniqueid}_node2"><a xlink:href="#1415898240314" xlink:title="com.watch4net.alerting.action.SNMPTrapAction">
<ellipse fill="#4daf4a" stroke="black" cx="1084.27" cy="-38" rx="64.189" ry="18"/>
<text text-anchor="middle" x="1084.27" y="-34.3" font-family="Times,serif" font-size="14.00" fill="white">Info Notify</text>
</a>
</g>
</g>
<!-- Quota -->
<g id="${uniqueid}_node3" class="node"><title>Quota</title>
<g id="a_${uniqueid}_node3"><a xlink:href="#1415893824430" xlink:title="com.watch4net.alerting.operation.FilteredEntryPoint">
<ellipse fill="#984ea3" stroke="black" cx="91.2168" cy="-166" rx="35.194" ry="18"/>
<text text-anchor="middle" x="91.2168" y="-162.3" font-family="Times,serif" font-size="14.00" fill="white">Quota</text>
</a>
</g>
</g>
<!-- Quota Not 0 -->
<g id="${uniqueid}_node4" class="node"><title>Quota Not 0</title>
<g id="a_${uniqueid}_node4"><a xlink:href="#1417534749315" xlink:title="com.watch4net.alerting.operation.comparator.ConstantComparatorOperation">
<polygon fill="#ff7f00" stroke="black" points="309.43,-179 218.437,-161 309.43,-143 400.423,-161 309.43,-179"/>
<text text-anchor="middle" x="309.43" y="-157.3" font-family="Times,serif" font-size="14.00" fill="white">Quota Not 0</text>
</a>
</g>
</g>
<!-- Quota&#45;&gt;Quota Not 0 -->
<g id="${uniqueid}_edge1" class="edge"><title>Quota:e&#45;&gt;Quota Not 0:w</title>
<path fill="none" stroke="black" d="M127.217,-166C164.171,-166 175.786,-161.858 208.186,-161.114"/>
<polygon fill="black" stroke="black" points="208.473,-164.611 218.434,-161 208.395,-157.611 208.473,-164.611"/>
</g>
<!-- divison -->
<g id="${uniqueid}_node12" class="node"><title>divison</title>
<g id="a_${uniqueid}_node12"><a xlink:href="#1415897755907" xlink:title="com.watch4net.alerting.operation.arithmetic.DataArithmeticOperation">
<polygon fill="#377eb8" stroke="black" points="505.427,-150 436.427,-150 436.427,-114 505.427,-114 505.427,-150"/>
<text text-anchor="middle" x="470.927" y="-128.3" font-family="Times,serif" font-size="14.00" fill="white">divison</text>
</a>
</g>
</g>
<!-- Quota Not 0&#45;&gt;divison -->
<g id="${uniqueid}_edge2" class="edge"><title>Quota Not 0:e&#45;&gt;divison:w</title>
<path fill="none" stroke="black" d="M400.427,-161C416.799,-161 416.892,-142.585 426.65,-135.104"/>
<polygon fill="black" stroke="black" points="427.954,-138.362 436.427,-132 425.836,-131.69 427.954,-138.362"/>
<text text-anchor="middle" x="415.927" y="-149.8" font-family="Times,serif" font-size="14.00">true</text>
</g>
<!-- Requested Block
Capacity -->
<g id="${uniqueid}_node5" class="node"><title>Requested Block
Capacity</title>
<g id="a_${uniqueid}_node5"><a xlink:href="#1415893698787" xlink:title="com.watch4net.alerting.operation.FilteredEntryPoint">
<ellipse fill="#984ea3" stroke="black" cx="91.2168" cy="-103" rx="91.4341" ry="26.7407"/>
<text text-anchor="middle" x="91.2168" y="-106.8" font-family="Times,serif" font-size="14.00" fill="white">Requested Block</text>
<text text-anchor="middle" x="91.2168" y="-91.8" font-family="Times,serif" font-size="14.00" fill="white">Capacity</text>
</a>
</g>
</g>
<!-- sum -->
<g id="${uniqueid}_node14" class="node"><title>sum</title>
<g id="a_${uniqueid}_node14"><a xlink:href="#1441037408776" xlink:title="com.watch4net.alerting.operation.arithmetic.DataArithmeticOperation">
<polygon fill="#377eb8" stroke="black" points="336.43,-121 282.43,-121 282.43,-85 336.43,-85 336.43,-121"/>
<text text-anchor="middle" x="309.43" y="-99.3" font-family="Times,serif" font-size="14.00" fill="white">sum</text>
</a>
</g>
</g>
<!-- Requested Block
Capacity&#45;&gt;sum -->
<g id="${uniqueid}_edge3" class="edge"><title>Requested Block
Capacity:e&#45;&gt;sum:w</title>
<path fill="none" stroke="black" d="M182.434,-103C222.823,-103 235.405,-103 271.232,-103"/>
<polygon fill="black" stroke="black" points="271.43,-106.5 281.43,-103 271.43,-99.5001 271.43,-106.5"/>
</g>
<!-- Requested File
Capacity -->
<g id="${uniqueid}_node6" class="node"><title>Requested File
Capacity</title>
<g id="a_${uniqueid}_node6"><a xlink:href="#1441037296525" xlink:title="com.watch4net.alerting.operation.FilteredEntryPoint">
<ellipse fill="#984ea3" stroke="black" cx="91.2168" cy="-31" rx="86.0347" ry="26.7407"/>
<text text-anchor="middle" x="91.2168" y="-34.8" font-family="Times,serif" font-size="14.00" fill="white">Requested File</text>
<text text-anchor="middle" x="91.2168" y="-19.8" font-family="Times,serif" font-size="14.00" fill="white">Capacity</text>
</a>
</g>
</g>
<!-- Requested File
Capacity&#45;&gt;sum -->
<g id="${uniqueid}_edge4" class="edge"><title>Requested File
Capacity:e&#45;&gt;sum:w</title>
<path fill="none" stroke="black" d="M179.217,-31C231.203,-31 226.745,-94.0179 271.455,-102.141"/>
<polygon fill="black" stroke="black" points="271.167,-105.629 281.43,-103 271.767,-98.6551 271.167,-105.629"/>
</g>
<!-- Tenant Quota
Warning -->
<g id="${uniqueid}_node7" class="node"><title>Tenant Quota
Warning</title>
<g id="a_${uniqueid}_node7"><a xlink:href="#1415897863778" xlink:title="com.watch4net.alerting.operation.comparator.ConstantComparatorOperation">
<polygon fill="#ff7f00" stroke="black" points="850.427,-264 743.427,-226 850.427,-188 957.427,-226 850.427,-264"/>
<text text-anchor="middle" x="850.427" y="-229.8" font-family="Times,serif" font-size="14.00" fill="white">Tenant Quota</text>
<text text-anchor="middle" x="850.427" y="-214.8" font-family="Times,serif" font-size="14.00" fill="white">Warning</text>
</a>
</g>
</g>
<!-- Warning Notify -->
<g id="${uniqueid}_node10" class="node"><title>Warning Notify</title>
<g id="a_${uniqueid}_node10"><a xlink:href="#1415898169662" xlink:title="com.watch4net.alerting.action.SNMPTrapAction">
<ellipse fill="#4daf4a" stroke="black" cx="1084.27" cy="-226" rx="79.0865" ry="18"/>
<text text-anchor="middle" x="1084.27" y="-222.3" font-family="Times,serif" font-size="14.00" fill="white">Warning Notify</text>
</a>
</g>
</g>
<!-- Tenant Quota
Warning&#45;&gt;Warning Notify -->
<g id="${uniqueid}_edge5" class="edge"><title>Tenant Quota
Warning:e&#45;&gt;Warning Notify:w</title>
<path fill="none" stroke="black" d="M958.427,-226C974.464,-226 980.823,-226 993.079,-226"/>
<polygon fill="black" stroke="black" points="993.269,-229.5 1003.27,-226 993.269,-222.5 993.269,-229.5"/>
<text text-anchor="middle" x="973.927" y="-214.8" font-family="Times,serif" font-size="14.00">true</text>
</g>
<!-- Tenant_Quota_
Critical -->
<g id="${uniqueid}_node8" class="node"><title>Tenant_Quota_
Critical</title>
<g id="a_${uniqueid}_node8"><a xlink:href="#1415897849019" xlink:title="com.watch4net.alerting.operation.comparator.ConstantComparatorOperation">
<polygon fill="#ff7f00" stroke="black" points="850.427,-170 736.427,-132 850.427,-94 964.427,-132 850.427,-170"/>
<text text-anchor="middle" x="850.427" y="-135.8" font-family="Times,serif" font-size="14.00" fill="white">Tenant_Quota_</text>
<text text-anchor="middle" x="850.427" y="-120.8" font-family="Times,serif" font-size="14.00" fill="white">Critical</text>
</a>
</g>
</g>
<!-- Tenant_Quota_
Critical&#45;&gt;Critical Notify -->
<g id="${uniqueid}_edge6" class="edge"><title>Tenant_Quota_
Critical:e&#45;&gt;Critical Notify:w</title>
<path fill="none" stroke="black" d="M964.427,-132C976.427,-132 981.677,-132 990.302,-132"/>
<polygon fill="black" stroke="black" points="990.427,-135.5 1000.43,-132 990.427,-128.5 990.427,-135.5"/>
<text text-anchor="middle" x="979.927" y="-120.8" font-family="Times,serif" font-size="14.00">true</text>
</g>
<!-- Tenant_Quota_
Info -->
<g id="${uniqueid}_node9" class="node"><title>Tenant_Quota_
Info</title>
<g id="a_${uniqueid}_node9"><a xlink:href="#1415897875207" xlink:title="com.watch4net.alerting.operation.comparator.ConstantComparatorOperation">
<polygon fill="#ff7f00" stroke="black" points="850.427,-76 736.427,-38 850.427,-7.10543e-15 964.427,-38 850.427,-76"/>
<text text-anchor="middle" x="850.427" y="-41.8" font-family="Times,serif" font-size="14.00" fill="white">Tenant_Quota_</text>
<text text-anchor="middle" x="850.427" y="-26.8" font-family="Times,serif" font-size="14.00" fill="white">Info</text>
</a>
</g>
</g>
<!-- Tenant_Quota_
Info&#45;&gt;Info Notify -->
<g id="${uniqueid}_edge7" class="edge"><title>Tenant_Quota_
Info:e&#45;&gt;Info Notify:w</title>
<path fill="none" stroke="black" d="M964.427,-38C984.618,-38 992.032,-38 1008.23,-38"/>
<polygon fill="black" stroke="black" points="1008.27,-41.5001 1018.27,-38 1008.27,-34.5001 1008.27,-41.5001"/>
<text text-anchor="middle" x="979.927" y="-26.8" font-family="Times,serif" font-size="14.00">true</text>
</g>
<!-- case -->
<g id="${uniqueid}_node11" class="node"><title>case</title>
<g id="a_${uniqueid}_node11"><a xlink:href="#1415897820151" xlink:title="com.watch4net.alerting.operation.CaseOperation">
<polygon fill="#377eb8" stroke="black" points="700.427,-150 646.427,-150 646.427,-114 700.427,-114 700.427,-150"/>
<text text-anchor="middle" x="673.427" y="-128.3" font-family="Times,serif" font-size="14.00" fill="white">case</text>
</a>
</g>
</g>
<!-- case&#45;&gt;Tenant Quota
Warning -->
<g id="${uniqueid}_edge8" class="edge"><title>case:e&#45;&gt;Tenant Quota
Warning:w</title>
<path fill="none" stroke="black" d="M700.427,-132C742.253,-132 704.475,-210.538 732.62,-224.037"/>
<polygon fill="black" stroke="black" points="731.934,-227.469 742.427,-226 733.308,-220.605 731.934,-227.469"/>
</g>
<!-- case&#45;&gt;Tenant_Quota_
Critical -->
<g id="${uniqueid}_edge9" class="edge"><title>case:e&#45;&gt;Tenant_Quota_
Critical:w</title>
<path fill="none" stroke="black" d="M700.427,-132C712.427,-132 717.677,-132 726.302,-132"/>
<polygon fill="black" stroke="black" points="726.427,-135.5 736.427,-132 726.427,-128.5 726.427,-135.5"/>
</g>
<!-- case&#45;&gt;Tenant_Quota_
Info -->
<g id="${uniqueid}_edge10" class="edge"><title>case:e&#45;&gt;Tenant_Quota_
Info:w</title>
<path fill="none" stroke="black" d="M700.427,-132C741.144,-132 700.506,-54.1319 726.605,-40.1399"/>
<polygon fill="black" stroke="black" points="727.401,-43.5486 736.427,-38 725.911,-36.709 727.401,-43.5486"/>
</g>
<!-- percent -->
<g id="${uniqueid}_node13" class="node"><title>percent</title>
<g id="a_${uniqueid}_node13"><a xlink:href="#1415897807310" xlink:title="com.watch4net.alerting.operation.arithmetic.ConstantArithmeticOperation">
<polygon fill="#377eb8" stroke="black" points="610.427,-150 541.427,-150 541.427,-114 610.427,-114 610.427,-150"/>
<text text-anchor="middle" x="575.927" y="-128.3" font-family="Times,serif" font-size="14.00" fill="white">percent</text>
</a>
</g>
</g>
<!-- divison&#45;&gt;percent -->
<g id="${uniqueid}_edge11" class="edge"><title>divison:e&#45;&gt;percent:w</title>
<path fill="none" stroke="black" d="M505.427,-132C517.427,-132 522.677,-132 531.302,-132"/>
<polygon fill="black" stroke="black" points="531.427,-135.5 541.427,-132 531.427,-128.5 531.427,-135.5"/>
</g>
<!-- percent&#45;&gt;case -->
<g id="${uniqueid}_edge12" class="edge"><title>percent:e&#45;&gt;case:w</title>
<path fill="none" stroke="black" d="M610.427,-132C622.427,-132 627.677,-132 636.302,-132"/>
<polygon fill="black" stroke="black" points="636.427,-135.5 646.427,-132 636.427,-128.5 636.427,-135.5"/>
</g>
<!-- sum&#45;&gt;divison -->
<g id="${uniqueid}_edge13" class="edge"><title>sum:e&#45;&gt;divison:w</title>
<path fill="none" stroke="black" d="M337.43,-103C379.696,-103 389.203,-127.646 426.35,-131.497"/>
<polygon fill="black" stroke="black" points="426.264,-134.997 436.427,-132 426.614,-128.005 426.264,-134.997"/>
</g>
</g>
</svg>
