<?xml version="1.0" encoding="UTF-8" standalone="no"?>
<!DOCTYPE svg PUBLIC "-//W3C//DTD SVG 1.1//EN"
 "http://www.w3.org/Graphics/SVG/1.1/DTD/svg11.dtd">
<!-- Generated by graphviz version 2.38.0 (20140413.2041)
 -->
<!-- Title: EMC VPLEX Alert Definitions/VPLEX&#45;Storage Volumes/IO Status Pages: 1 -->
<svg width="586pt" height="116pt"
 viewBox="0.00 0.00 586.00 115.87" xmlns="http://www.w3.org/2000/svg" xmlns:xlink="http://www.w3.org/1999/xlink">
<g id="${uniqueid}" class="graph" transform="scale(1 1) rotate(0) translate(4 111.87)">
<title>EMC VPLEX Alert Definitions/VPLEX&#45;Storage Volumes/IO Status</title>
<polygon fill="white" stroke="none" points="-4,4 -4,-111.87 582.002,-111.87 582.002,4 -4,4"/>
<!-- IO Status -->
<g id="${uniqueid}_node1" class="node"><title>IO Status</title>
<g id="a_${uniqueid}_node1"><a xlink:href="#491807030391076-80936057607455" xlink:title="com.watch4net.alerting.operation.FilteredEntryPoint">
<ellipse fill="#984ea3" stroke="black" cx="54.5952" cy="-49" rx="54.6905" ry="18"/>
<text text-anchor="middle" x="54.5952" y="-45.3" font-family="Times,serif" font-size="14.00" fill="white">IO Status</text>
</a>
</g>
</g>
<!-- Severity -->
<g id="${uniqueid}_node2" class="node"><title>Severity</title>
<g id="a_${uniqueid}_node2"><a xlink:href="#491807030430118-80936063391418" xlink:title="com.watch4net.alerting.operation.CaseOperation">
<polygon fill="#377eb8" stroke="black" points="221.19,-67 145.19,-67 145.19,-31 221.19,-31 221.19,-67"/>
<text text-anchor="middle" x="183.19" y="-45.3" font-family="Times,serif" font-size="14.00" fill="white">Severity</text>
</a>
</g>
</g>
<!-- IO Status&#45;&gt;Severity -->
<g id="${uniqueid}_edge1" class="edge"><title>IO Status:e&#45;&gt;Severity:w</title>
<path fill="none" stroke="black" d="M109.19,-49C121.19,-49 126.44,-49 135.065,-49"/>
<polygon fill="black" stroke="black" points="135.19,-52.5001 145.19,-49 135.19,-45.5001 135.19,-52.5001"/>
</g>
<!-- critical -->
<g id="${uniqueid}_node3" class="node"><title>critical</title>
<g id="a_${uniqueid}_node3"><a xlink:href="#491807030440020-80936063494690" xlink:title="com.watch4net.alerting.operation.comparator.ConstantComparatorOperation">
<polygon fill="#ff7f00" stroke="black" points="319.693,-67 257.188,-49 319.693,-31 382.198,-49 319.693,-67"/>
<text text-anchor="middle" x="319.693" y="-45.3" font-family="Times,serif" font-size="14.00" fill="white">critical</text>
</a>
</g>
</g>
<!-- Severity&#45;&gt;critical -->
<g id="${uniqueid}_edge2" class="edge"><title>Severity:e&#45;&gt;critical:w</title>
<path fill="none" stroke="black" d="M221.19,-49C233.19,-49 238.44,-49 247.065,-49"/>
<polygon fill="black" stroke="black" points="247.19,-52.5001 257.19,-49 247.19,-45.5001 247.19,-52.5001"/>
</g>
<!-- critical&#45;clear&#45;
trap -->
<g id="${uniqueid}_node4" class="node"><title>critical&#45;clear&#45;
trap</title>
<g id="a_${uniqueid}_node4"><a xlink:href="#491807030456985-80936076385000" xlink:title="com.watch4net.alerting.action.SNMPTrapAction">
<ellipse fill="#4daf4a" stroke="black" cx="498.099" cy="-81" rx="79.8063" ry="26.7407"/>
<text text-anchor="middle" x="498.099" y="-84.8" font-family="Times,serif" font-size="14.00" fill="white">critical&#45;clear&#45;</text>
<text text-anchor="middle" x="498.099" y="-69.8" font-family="Times,serif" font-size="14.00" fill="white">trap</text>
</a>
</g>
</g>
<!-- critical&#45;&gt;critical&#45;clear&#45;
trap -->
<g id="${uniqueid}_edge3" class="edge"><title>critical:ne&#45;&gt;critical&#45;clear&#45;
trap:w</title>
<path fill="none" stroke="black" d="M332.693,-63C333.989,-64.2958 332.346,-65.7576 333.693,-67 359.053,-90.3899 376.584,-82.8836 407.982,-81.2707"/>
<polygon fill="black" stroke="black" points="408.292,-84.7638 418.196,-81 408.106,-77.7662 408.292,-84.7638"/>
<text text-anchor="middle" x="315.693" y="-66.8" font-family="Times,serif" font-size="14.00">false</text>
</g>
<!-- io&#45;critical&#45;trap -->
<g id="${uniqueid}_node5" class="node"><title>io&#45;critical&#45;trap</title>
<g id="a_${uniqueid}_node5"><a xlink:href="#491807030472041-80936076445011" xlink:title="com.watch4net.alerting.action.SNMPTrapAction">
<ellipse fill="#4daf4a" stroke="black" cx="498.099" cy="-18" rx="77.1866" ry="18"/>
<text text-anchor="middle" x="498.099" y="-14.3" font-family="Times,serif" font-size="14.00" fill="white">io&#45;critical&#45;trap</text>
</a>
</g>
</g>
<!-- critical&#45;&gt;io&#45;critical&#45;trap -->
<g id="${uniqueid}_edge4" class="edge"><title>critical:se&#45;&gt;io&#45;critical&#45;trap:w</title>
<path fill="none" stroke="black" d="M334.693,-35C359.215,-10.4779 377.184,-16.4402 408.82,-17.7736"/>
<polygon fill="black" stroke="black" points="409.024,-21.2789 419.099,-18 409.178,-14.2806 409.024,-21.2789"/>
<text text-anchor="middle" x="319.193" y="-23.8" font-family="Times,serif" font-size="14.00">true</text>
</g>
</g>
</svg>
