<?xml version="1.0" encoding="UTF-8" standalone="no"?>
<!DOCTYPE svg PUBLIC "-//W3C//DTD SVG 1.1//EN"
 "http://www.w3.org/Graphics/SVG/1.1/DTD/svg11.dtd">
<!-- Generated by graphviz version 2.38.0 (20140413.2041)
 -->
<!-- Title: EMC VPLEX Alert Definitions/VPLEX&#45;Storage Volumes/Operational Status Pages: 1 -->
<svg width="682pt" height="298pt"
 viewBox="0.00 0.00 682.41 298.35" xmlns="http://www.w3.org/2000/svg" xmlns:xlink="http://www.w3.org/1999/xlink">
<g id="${uniqueid}" class="graph" transform="scale(1 1) rotate(0) translate(4 294.347)">
<title>EMC VPLEX Alert Definitions/VPLEX&#45;Storage Volumes/Operational Status</title>
<polygon fill="white" stroke="none" points="-4,4 -4,-294.347 678.415,-294.347 678.415,4 -4,4"/>
<!-- Alert Severity -->
<g id="${uniqueid}_node1" class="node"><title>Alert Severity</title>
<g id="a_${uniqueid}_node1"><a xlink:href="#490794225871685-80936063578737" xlink:title="com.watch4net.alerting.operation.CaseOperation">
<polygon fill="#377eb8" stroke="black" points="294.836,-173.477 178.836,-173.477 178.836,-137.477 294.836,-137.477 294.836,-173.477"/>
<text text-anchor="middle" x="236.836" y="-151.777" font-family="Times,serif" font-size="14.00" fill="white">Alert Severity</text>
</a>
</g>
</g>
<!-- critical -->
<g id="${uniqueid}_node5" class="node"><title>critical</title>
<g id="a_${uniqueid}_node5"><a xlink:href="#490794225882809-80936063674182" xlink:title="com.watch4net.alerting.operation.comparator.ConstantComparatorOperation">
<polygon fill="#ff7f00" stroke="black" points="399.772,-223.477 337.267,-205.477 399.772,-187.477 462.278,-205.477 399.772,-223.477"/>
<text text-anchor="middle" x="399.772" y="-201.777" font-family="Times,serif" font-size="14.00" fill="white">critical</text>
</a>
</g>
</g>
<!-- Alert Severity&#45;&gt;critical -->
<g id="${uniqueid}_edge1" class="edge"><title>Alert Severity:e&#45;&gt;critical:w</title>
<path fill="none" stroke="black" d="M294.836,-155.477C319.517,-155.477 310.799,-192.403 326.087,-202.788"/>
<polygon fill="black" stroke="black" points="325.201,-206.175 335.772,-205.477 327.073,-199.43 325.201,-206.175"/>
</g>
<!-- warning -->
<g id="${uniqueid}_node7" class="node"><title>warning</title>
<g id="a_${uniqueid}_node7"><a xlink:href="#490794225965189-80936063759174" xlink:title="com.watch4net.alerting.operation.comparator.ConstantComparatorOperation">
<polygon fill="#ff7f00" stroke="black" points="399.772,-123.477 330.899,-105.477 399.772,-87.4767 468.646,-105.477 399.772,-123.477"/>
<text text-anchor="middle" x="399.772" y="-101.777" font-family="Times,serif" font-size="14.00" fill="white">warning</text>
</a>
</g>
</g>
<!-- Alert Severity&#45;&gt;warning -->
<g id="${uniqueid}_edge2" class="edge"><title>Alert Severity:e&#45;&gt;warning:w</title>
<path fill="none" stroke="black" d="M294.836,-155.477C317.94,-155.477 308.19,-119.881 321.028,-108.757"/>
<polygon fill="black" stroke="black" points="322.462,-111.968 330.836,-105.477 320.242,-105.33 322.462,-111.968"/>
</g>
<!-- VPLEX&#45;
Availability&#45;
Filter -->
<g id="${uniqueid}_node2" class="node"><title>VPLEX&#45;
Availability&#45;
Filter</title>
<g id="a_${uniqueid}_node2"><a xlink:href="#490794225829186-80936057634505" xlink:title="com.watch4net.alerting.operation.FilteredEntryPoint">
<ellipse fill="#984ea3" stroke="black" cx="71.4178" cy="-155.477" rx="71.3357" ry="37.4533"/>
<text text-anchor="middle" x="71.4178" y="-166.777" font-family="Times,serif" font-size="14.00" fill="white">VPLEX&#45;</text>
<text text-anchor="middle" x="71.4178" y="-151.777" font-family="Times,serif" font-size="14.00" fill="white">Availability&#45;</text>
<text text-anchor="middle" x="71.4178" y="-136.777" font-family="Times,serif" font-size="14.00" fill="white">Filter</text>
</a>
</g>
</g>
<!-- VPLEX&#45;
Availability&#45;
Filter&#45;&gt;Alert Severity -->
<g id="${uniqueid}_edge3" class="edge"><title>VPLEX&#45;
Availability&#45;
Filter:e&#45;&gt;Alert Severity:w</title>
<path fill="none" stroke="black" d="M142.836,-155.477C154.836,-155.477 160.086,-155.477 168.711,-155.477"/>
<polygon fill="black" stroke="black" points="168.836,-158.977 178.836,-155.477 168.836,-151.977 168.836,-158.977"/>
</g>
<!-- availability&#45;
critical&#45;trap -->
<g id="${uniqueid}_node3" class="node"><title>availability&#45;
critical&#45;trap</title>
<g id="a_${uniqueid}_node3"><a xlink:href="#490794225918204-80936076579960" xlink:title="com.watch4net.alerting.action.SNMPTrapAction">
<ellipse fill="#4daf4a" stroke="black" cx="589.562" cy="-191.477" rx="72.25" ry="26.7407"/>
<text text-anchor="middle" x="589.562" y="-195.277" font-family="Times,serif" font-size="14.00" fill="white">availability&#45;</text>
<text text-anchor="middle" x="589.562" y="-180.277" font-family="Times,serif" font-size="14.00" fill="white">critical&#45;trap</text>
</a>
</g>
</g>
<!-- availability&#45;
warning&#45;alert&#45;
trap -->
<g id="${uniqueid}_node4" class="node"><title>availability&#45;
warning&#45;alert&#45;
trap</title>
<g id="a_${uniqueid}_node4"><a xlink:href="#490794225978307-80936076645813" xlink:title="com.watch4net.alerting.action.SNMPTrapAction">
<ellipse fill="#4daf4a" stroke="black" cx="589.562" cy="-37.4767" rx="83.3772" ry="37.4533"/>
<text text-anchor="middle" x="589.562" y="-48.7767" font-family="Times,serif" font-size="14.00" fill="white">availability&#45;</text>
<text text-anchor="middle" x="589.562" y="-33.7767" font-family="Times,serif" font-size="14.00" fill="white">warning&#45;alert&#45;</text>
<text text-anchor="middle" x="589.562" y="-18.7767" font-family="Times,serif" font-size="14.00" fill="white">trap</text>
</a>
</g>
</g>
<!-- critical&#45;&gt;availability&#45;
critical&#45;trap -->
<g id="${uniqueid}_edge5" class="edge"><title>critical:se&#45;&gt;availability&#45;
critical&#45;trap:w</title>
<path fill="none" stroke="black" d="M414.772,-191.477C444.263,-161.986 467.439,-186.869 506.324,-190.937"/>
<polygon fill="black" stroke="black" points="506.391,-194.445 516.562,-191.477 506.76,-187.455 506.391,-194.445"/>
<text text-anchor="middle" x="399.272" y="-180.277" font-family="Times,serif" font-size="14.00">true</text>
</g>
<!-- critical&#45;clear&#45;
trap -->
<g id="${uniqueid}_node6" class="node"><title>critical&#45;clear&#45;
trap</title>
<g id="a_${uniqueid}_node6"><a xlink:href="#490794225901965-80936076503577" xlink:title="com.watch4net.alerting.action.SNMPTrapAction">
<ellipse fill="#4daf4a" stroke="black" cx="589.562" cy="-263.477" rx="79.8062" ry="26.7407"/>
<text text-anchor="middle" x="589.562" y="-267.277" font-family="Times,serif" font-size="14.00" fill="white">critical&#45;clear&#45;</text>
<text text-anchor="middle" x="589.562" y="-252.277" font-family="Times,serif" font-size="14.00" fill="white">trap</text>
</a>
</g>
</g>
<!-- critical&#45;&gt;critical&#45;clear&#45;
trap -->
<g id="${uniqueid}_edge4" class="edge"><title>critical:ne&#45;&gt;critical&#45;clear&#45;
trap:w</title>
<path fill="none" stroke="black" d="M412.772,-219.477C414.068,-220.772 412.58,-222.085 413.772,-223.477 441.193,-255.493 459.754,-262.473 498.311,-263.369"/>
<polygon fill="black" stroke="black" points="498.526,-266.871 508.562,-263.477 498.599,-259.871 498.526,-266.871"/>
<text text-anchor="middle" x="395.772" y="-223.277" font-family="Times,serif" font-size="14.00">false</text>
</g>
<!-- warning&#45;&gt;availability&#45;
warning&#45;alert&#45;
trap -->
<g id="${uniqueid}_edge7" class="edge"><title>warning:se&#45;&gt;availability&#45;
warning&#45;alert&#45;
trap:w</title>
<path fill="none" stroke="black" d="M414.772,-91.4767C445.165,-61.0845 456.331,-40.8358 494.418,-37.8574"/>
<polygon fill="black" stroke="black" points="494.845,-41.3441 504.709,-37.4767 494.587,-34.3489 494.845,-41.3441"/>
<text text-anchor="middle" x="399.272" y="-80.2767" font-family="Times,serif" font-size="14.00">true</text>
</g>
<!-- warning&#45;clear&#45;
trap -->
<g id="${uniqueid}_node8" class="node"><title>warning&#45;clear&#45;
trap</title>
<g id="a_${uniqueid}_node8"><a xlink:href="#490794225990282-80936076703752" xlink:title="com.watch4net.alerting.action.SNMPTrapAction">
<ellipse fill="#4daf4a" stroke="black" cx="589.562" cy="-119.477" rx="84.7059" ry="26.7407"/>
<text text-anchor="middle" x="589.562" y="-123.277" font-family="Times,serif" font-size="14.00" fill="white">warning&#45;clear&#45;</text>
<text text-anchor="middle" x="589.562" y="-108.277" font-family="Times,serif" font-size="14.00" fill="white">trap</text>
</a>
</g>
</g>
<!-- warning&#45;&gt;warning&#45;clear&#45;
trap -->
<g id="${uniqueid}_edge6" class="edge"><title>warning:ne&#45;&gt;warning&#45;clear&#45;
trap:w</title>
<path fill="none" stroke="black" d="M412.772,-119.477C414.068,-120.772 412.328,-122.349 413.772,-123.477 433.017,-138.503 444.33,-124.827 468.709,-123.477 480.765,-122.809 485.931,-120.893 494.553,-119.976"/>
<polygon fill="black" stroke="black" points="494.893,-123.464 504.709,-119.477 494.549,-116.473 494.893,-123.464"/>
<text text-anchor="middle" x="395.772" y="-123.277" font-family="Times,serif" font-size="14.00">false</text>
</g>
</g>
</svg>
