<?xml version="1.0" encoding="UTF-8" standalone="no"?>
<!DOCTYPE svg PUBLIC "-//W3C//DTD SVG 1.1//EN"
 "http://www.w3.org/Graphics/SVG/1.1/DTD/svg11.dtd">
<!-- Generated by graphviz version 2.38.0 (20140413.2041)
 -->
<!-- Title: EMC XtremIO Alert Definitions/Cluster/High UnalignedIO Percentage Pages: 1 -->
<svg width="1584pt" height="240pt"
 viewBox="0.00 0.00 1584.39 239.87" xmlns="http://www.w3.org/2000/svg" xmlns:xlink="http://www.w3.org/1999/xlink">
<g id="${uniqueid}" class="graph" transform="scale(1 1) rotate(0) translate(4 235.87)">
<title>EMC XtremIO Alert Definitions/Cluster/High UnalignedIO Percentage</title>
<polygon fill="white" stroke="none" points="-4,4 -4,-235.87 1580.39,-235.87 1580.39,4 -4,4"/>
<!-- Percent -->
<g id="${uniqueid}_node1" class="node"><title>Percent</title>
<g id="a_${uniqueid}_node1"><a xlink:href="#953839187403029" xlink:title="com.watch4net.alerting.operation.arithmetic.ConstantArithmeticOperation">
<polygon fill="#377eb8" stroke="black" points="355.088,-93.8701 283.088,-93.8701 283.088,-57.8701 355.088,-57.8701 355.088,-93.8701"/>
<text text-anchor="middle" x="319.088" y="-72.1701" font-family="Times,serif" font-size="14.00" fill="white">Percent</text>
</a>
</g>
</g>
<!-- UnalignedIO_CRIT
Threshold check -->
<g id="${uniqueid}_node8" class="node"><title>UnalignedIO_CRIT
Threshold check</title>
<g id="a_${uniqueid}_node8"><a xlink:href="#953839187407676" xlink:title="com.watch4net.alerting.operation.comparator.ConstantComparatorOperation">
<polygon fill="#ff7f00" stroke="black" points="542.088,-113.87 391.088,-75.8701 542.088,-37.8701 693.088,-75.8701 542.088,-113.87"/>
<text text-anchor="middle" x="542.088" y="-79.6701" font-family="Times,serif" font-size="14.00" fill="white">UnalignedIO_CRIT</text>
<text text-anchor="middle" x="542.088" y="-64.6701" font-family="Times,serif" font-size="14.00" fill="white">Threshold check</text>
</a>
</g>
</g>
<!-- Percent&#45;&gt;UnalignedIO_CRIT
Threshold check -->
<g id="${uniqueid}_edge1" class="edge"><title>Percent:e&#45;&gt;UnalignedIO_CRIT
Threshold check:w</title>
<path fill="none" stroke="black" d="M355.088,-75.8701C367.088,-75.8701 372.338,-75.8701 380.963,-75.8701"/>
<polygon fill="black" stroke="black" points="381.088,-79.3702 391.088,-75.8701 381.088,-72.3702 381.088,-79.3702"/>
</g>
<!-- TotalIO -->
<g id="${uniqueid}_node2" class="node"><title>TotalIO</title>
<g id="a_${uniqueid}_node2"><a xlink:href="#953839187446453" xlink:title="com.watch4net.alerting.operation.FilteredEntryPoint">
<ellipse fill="#984ea3" stroke="black" cx="69.5438" cy="-102.87" rx="44.6926" ry="18"/>
<text text-anchor="middle" x="69.5438" y="-99.1701" font-family="Times,serif" font-size="14.00" fill="white">TotalIO</text>
</a>
</g>
</g>
<!-- division -->
<g id="${uniqueid}_node10" class="node"><title>division</title>
<g id="a_${uniqueid}_node10"><a xlink:href="#953839187392685" xlink:title="com.watch4net.alerting.operation.arithmetic.DataArithmeticOperation">
<polygon fill="#377eb8" stroke="black" points="247.088,-93.8701 175.088,-93.8701 175.088,-57.8701 247.088,-57.8701 247.088,-93.8701"/>
<text text-anchor="middle" x="211.088" y="-72.1701" font-family="Times,serif" font-size="14.00" fill="white">division</text>
</a>
</g>
</g>
<!-- TotalIO&#45;&gt;division -->
<g id="${uniqueid}_edge2" class="edge"><title>TotalIO:e&#45;&gt;division:w</title>
<path fill="none" stroke="black" d="M115.544,-102.87C140.856,-102.87 145.203,-82.3823 165.11,-77.1004"/>
<polygon fill="black" stroke="black" points="165.591,-80.5676 175.088,-75.8701 164.734,-73.6202 165.591,-80.5676"/>
</g>
<!-- UnalignedIO -->
<g id="${uniqueid}_node3" class="node"><title>UnalignedIO</title>
<g id="a_${uniqueid}_node3"><a xlink:href="#953839187366563" xlink:title="com.watch4net.alerting.operation.FilteredEntryPoint">
<ellipse fill="#984ea3" stroke="black" cx="69.5438" cy="-48.8701" rx="69.5877" ry="18"/>
<text text-anchor="middle" x="69.5438" y="-45.1701" font-family="Times,serif" font-size="14.00" fill="white">UnalignedIO</text>
</a>
</g>
</g>
<!-- UnalignedIO&#45;&gt;division -->
<g id="${uniqueid}_edge3" class="edge"><title>UnalignedIO:e&#45;&gt;division:w</title>
<path fill="none" stroke="black" d="M139.088,-48.8701C155.025,-48.8701 155.722,-66.0153 165.469,-72.9806"/>
<polygon fill="black" stroke="black" points="164.503,-76.3451 175.088,-75.8701 166.517,-69.641 164.503,-76.3451"/>
</g>
<!-- UnalignedIO_
MAJOR Threshold
trap -->
<g id="${uniqueid}_node4" class="node"><title>UnalignedIO_
MAJOR Threshold
trap</title>
<g id="a_${uniqueid}_node4"><a xlink:href="#953839187432075" xlink:title="com.watch4net.alerting.action.SNMPTrapAction">
<ellipse fill="#4daf4a" stroke="black" cx="1183.09" cy="-70.8701" rx="103.476" ry="37.4533"/>
<text text-anchor="middle" x="1183.09" y="-82.1701" font-family="Times,serif" font-size="14.00" fill="white">UnalignedIO_</text>
<text text-anchor="middle" x="1183.09" y="-67.1701" font-family="Times,serif" font-size="14.00" fill="white">MAJOR Threshold</text>
<text text-anchor="middle" x="1183.09" y="-52.1701" font-family="Times,serif" font-size="14.00" fill="white">trap</text>
</a>
</g>
</g>
<!-- UnalignedIO_
MINOR Threshold
check -->
<g id="${uniqueid}_node5" class="node"><title>UnalignedIO_
MINOR Threshold
check</title>
<g id="a_${uniqueid}_node5"><a xlink:href="#953839187416566" xlink:title="com.watch4net.alerting.operation.comparator.ConstantComparatorOperation">
<polygon fill="#ff7f00" stroke="black" points="1183.09,-231.87 1035.09,-178.87 1183.09,-125.87 1331.09,-178.87 1183.09,-231.87"/>
<text text-anchor="middle" x="1183.09" y="-190.17" font-family="Times,serif" font-size="14.00" fill="white">UnalignedIO_</text>
<text text-anchor="middle" x="1183.09" y="-175.17" font-family="Times,serif" font-size="14.00" fill="white">MINOR Threshold</text>
<text text-anchor="middle" x="1183.09" y="-160.17" font-family="Times,serif" font-size="14.00" fill="white">check</text>
</a>
</g>
</g>
<!-- UnalignedIO_
MINOR Threshold
trap -->
<g id="${uniqueid}_node6" class="node"><title>UnalignedIO_
MINOR Threshold
trap</title>
<g id="a_${uniqueid}_node6"><a xlink:href="#953839187421071" xlink:title="com.watch4net.alerting.action.SNMPTrapAction">
<ellipse fill="#4daf4a" stroke="black" cx="1471.74" cy="-178.87" rx="104.804" ry="37.4533"/>
<text text-anchor="middle" x="1471.74" y="-190.17" font-family="Times,serif" font-size="14.00" fill="white">UnalignedIO_</text>
<text text-anchor="middle" x="1471.74" y="-175.17" font-family="Times,serif" font-size="14.00" fill="white">MINOR Threshold</text>
<text text-anchor="middle" x="1471.74" y="-160.17" font-family="Times,serif" font-size="14.00" fill="white">trap</text>
</a>
</g>
</g>
<!-- UnalignedIO_
MINOR Threshold
check&#45;&gt;UnalignedIO_
MINOR Threshold
trap -->
<g id="${uniqueid}_edge4" class="edge"><title>UnalignedIO_
MINOR Threshold
check:e&#45;&gt;UnalignedIO_
MINOR Threshold
trap:w</title>
<path fill="none" stroke="black" d="M1331.09,-178.87C1343.09,-178.87 1348.34,-178.87 1356.96,-178.87"/>
<polygon fill="black" stroke="black" points="1357.09,-182.37 1367.09,-178.87 1357.09,-175.37 1357.09,-182.37"/>
<text text-anchor="middle" x="1346.59" y="-167.67" font-family="Times,serif" font-size="14.00">true</text>
</g>
<!-- UnalignedIO_
Major Threshold
check -->
<g id="${uniqueid}_node7" class="node"><title>UnalignedIO_
Major Threshold
check</title>
<g id="a_${uniqueid}_node7"><a xlink:href="#953839187412037" xlink:title="com.watch4net.alerting.operation.comparator.ConstantComparatorOperation">
<polygon fill="#ff7f00" stroke="black" points="864.088,-177.87 729.088,-124.87 864.088,-71.8701 999.088,-124.87 864.088,-177.87"/>
<text text-anchor="middle" x="864.088" y="-136.17" font-family="Times,serif" font-size="14.00" fill="white">UnalignedIO_</text>
<text text-anchor="middle" x="864.088" y="-121.17" font-family="Times,serif" font-size="14.00" fill="white">Major Threshold</text>
<text text-anchor="middle" x="864.088" y="-106.17" font-family="Times,serif" font-size="14.00" fill="white">check</text>
</a>
</g>
</g>
<!-- UnalignedIO_
Major Threshold
check&#45;&gt;UnalignedIO_
MAJOR Threshold
trap -->
<g id="${uniqueid}_edge6" class="edge"><title>UnalignedIO_
Major Threshold
check:se&#45;&gt;UnalignedIO_
MAJOR Threshold
trap:w</title>
<path fill="none" stroke="black" d="M903.088,-86.8701C928.742,-61.2156 1023.69,-69.3064 1068.97,-70.6879"/>
<polygon fill="black" stroke="black" points="1069.03,-74.1894 1079.09,-70.8701 1069.15,-67.1905 1069.03,-74.1894"/>
<text text-anchor="middle" x="887.588" y="-75.6701" font-family="Times,serif" font-size="14.00">true</text>
</g>
<!-- UnalignedIO_
Major Threshold
check&#45;&gt;UnalignedIO_
MINOR Threshold
check -->
<g id="${uniqueid}_edge5" class="edge"><title>UnalignedIO_
Major Threshold
check:ne&#45;&gt;UnalignedIO_
MINOR Threshold
check:w</title>
<path fill="none" stroke="black" d="M901.088,-162.87C903.45,-165.232 899.657,-175.579 902.088,-177.87 942.582,-216.041 972.315,-183.229 1024.98,-179.253"/>
<polygon fill="black" stroke="black" points="1025.23,-182.747 1035.09,-178.87 1024.96,-175.752 1025.23,-182.747"/>
<text text-anchor="middle" x="884.088" y="-151.67" font-family="Times,serif" font-size="14.00">false</text>
</g>
<!-- UnalignedIO_CRIT
Threshold check&#45;&gt;UnalignedIO_
Major Threshold
check -->
<g id="${uniqueid}_edge7" class="edge"><title>UnalignedIO_CRIT
Threshold check:ne&#45;&gt;UnalignedIO_
Major Threshold
check:w</title>
<path fill="none" stroke="black" d="M571.088,-105.87C573.621,-108.404 569.486,-111.406 572.088,-113.87 620.396,-159.619 655.563,-128.29 719.077,-125.121"/>
<polygon fill="black" stroke="black" points="719.179,-128.62 729.088,-124.87 719.003,-121.622 719.179,-128.62"/>
<text text-anchor="middle" x="554.088" y="-109.67" font-family="Times,serif" font-size="14.00">false</text>
</g>
<!-- UnalignedIO_CRIT
Threshold trap -->
<g id="${uniqueid}_node9" class="node"><title>UnalignedIO_CRIT
Threshold trap</title>
<g id="a_${uniqueid}_node9"><a xlink:href="#953839187438328" xlink:title="com.watch4net.alerting.action.SNMPTrapAction">
<ellipse fill="#4daf4a" stroke="black" cx="864.088" cy="-26.8701" rx="106.547" ry="26.7407"/>
<text text-anchor="middle" x="864.088" y="-30.6701" font-family="Times,serif" font-size="14.00" fill="white">UnalignedIO_CRIT</text>
<text text-anchor="middle" x="864.088" y="-15.6701" font-family="Times,serif" font-size="14.00" fill="white">Threshold trap</text>
</a>
</g>
</g>
<!-- UnalignedIO_CRIT
Threshold check&#45;&gt;UnalignedIO_CRIT
Threshold trap -->
<g id="${uniqueid}_edge8" class="edge"><title>UnalignedIO_CRIT
Threshold check:se&#45;&gt;UnalignedIO_CRIT
Threshold trap:w</title>
<path fill="none" stroke="black" d="M573.088,-45.8701C628.424,9.46596 670.56,-23.7124 745.755,-26.6658"/>
<polygon fill="black" stroke="black" points="746.02,-30.1716 756.088,-26.8701 746.159,-23.173 746.02,-30.1716"/>
<text text-anchor="middle" x="557.588" y="-34.6701" font-family="Times,serif" font-size="14.00">true</text>
</g>
<!-- division&#45;&gt;Percent -->
<g id="${uniqueid}_edge9" class="edge"><title>division:e&#45;&gt;Percent:w</title>
<path fill="none" stroke="black" d="M247.088,-75.8701C259.088,-75.8701 264.338,-75.8701 272.963,-75.8701"/>
<polygon fill="black" stroke="black" points="273.088,-79.3702 283.088,-75.8701 273.088,-72.3702 273.088,-79.3702"/>
</g>
</g>
</svg>
