<?xml version="1.0" encoding="UTF-8" standalone="no"?>
<!DOCTYPE svg PUBLIC "-//W3C//DTD SVG 1.1//EN"
 "http://www.w3.org/Graphics/SVG/1.1/DTD/svg11.dtd">
<!-- Generated by graphviz version 2.38.0 (20140413.2041)
 -->
<!-- Title: Examples/Simple Comparator Pages: 1 -->
<svg width="586pt" height="98pt"
 viewBox="0.00 0.00 585.70 98.00" xmlns="http://www.w3.org/2000/svg" xmlns:xlink="http://www.w3.org/1999/xlink">
<g id="${uniqueid}" class="graph" transform="scale(1 1) rotate(0) translate(4 94)">
<title>Examples/Simple Comparator</title>
<polygon fill="white" stroke="none" points="-4,4 -4,-94 581.703,-94 581.703,4 -4,4"/>
<!-- CustomVariable -->
<g id="${uniqueid}_node1" class="node"><title>CustomVariable</title>
<g id="a_${uniqueid}_node1"><a xlink:href="#85601342685984" xlink:title="com.watch4net.alerting.operation.FilteredEntryPoint">
<ellipse fill="#984ea3" stroke="black" cx="85.1424" cy="-45" rx="85.2851" ry="18"/>
<text text-anchor="middle" x="85.1424" y="-41.3" font-family="Times,serif" font-size="14.00" fill="white">CustomVariable</text>
</a>
</g>
</g>
<!-- Over 90% -->
<g id="${uniqueid}_node4" class="node"><title>Over 90%</title>
<g id="a_${uniqueid}_node4"><a xlink:href="#85601342697984" xlink:title="com.watch4net.alerting.operation.comparator.ConstantComparatorOperation">
<polygon fill="#ff7f00" stroke="black" points="286.252,-63 206.318,-45 286.252,-27 366.185,-45 286.252,-63"/>
<text text-anchor="middle" x="286.252" y="-41.3" font-family="Times,serif" font-size="14.00" fill="white">Over 90%</text>
</a>
</g>
</g>
<!-- CustomVariable&#45;&gt;Over 90% -->
<g id="${uniqueid}_edge1" class="edge"><title>CustomVariable:e&#45;&gt;Over 90%:w</title>
<path fill="none" stroke="black" d="M170.285,-45C182.285,-45 187.535,-45 196.16,-45"/>
<polygon fill="black" stroke="black" points="196.285,-48.5001 206.285,-45 196.285,-41.5001 196.285,-48.5001"/>
</g>
<!-- Log Alarm Clear -->
<g id="${uniqueid}_node2" class="node"><title>Log Alarm Clear</title>
<g id="a_${uniqueid}_node2"><a xlink:href="#1261153869592" xlink:title="com.watch4net.alerting.action.LogAction">
<ellipse fill="#4daf4a" stroke="black" cx="489.96" cy="-72" rx="87.9851" ry="18"/>
<text text-anchor="middle" x="489.96" y="-68.3" font-family="Times,serif" font-size="14.00" fill="white">Log Alarm Clear</text>
</a>
</g>
</g>
<!-- Log Alarm Set -->
<g id="${uniqueid}_node3" class="node"><title>Log Alarm Set</title>
<g id="a_${uniqueid}_node3"><a xlink:href="#85601342704984" xlink:title="com.watch4net.alerting.action.LogAction">
<ellipse fill="#4daf4a" stroke="black" cx="489.96" cy="-18" rx="77.1866" ry="18"/>
<text text-anchor="middle" x="489.96" y="-14.3" font-family="Times,serif" font-size="14.00" fill="white">Log Alarm Set</text>
</a>
</g>
</g>
<!-- Over 90%&#45;&gt;Log Alarm Clear -->
<g id="${uniqueid}_edge2" class="edge"><title>Over 90%:ne&#45;&gt;Log Alarm Clear:w</title>
<path fill="none" stroke="black" d="M300.252,-60C301.245,-60.9938 300.149,-62.1284 301.252,-63 333.832,-88.7576 353.862,-74.6733 392.089,-72.3154"/>
<polygon fill="black" stroke="black" points="392.332,-75.8096 402.218,-72 392.114,-68.813 392.332,-75.8096"/>
<text text-anchor="middle" x="283.252" y="-63.8" font-family="Times,serif" font-size="14.00">false</text>
</g>
<!-- Over 90%&#45;&gt;Log Alarm Set -->
<g id="${uniqueid}_edge3" class="edge"><title>Over 90%:se&#45;&gt;Log Alarm Set:w</title>
<path fill="none" stroke="black" d="M302.252,-30C334.139,1.88755 358.588,-15.063 400.769,-17.6794"/>
<polygon fill="black" stroke="black" points="400.855,-21.1837 410.96,-18 401.076,-14.1872 400.855,-21.1837"/>
<text text-anchor="middle" x="286.752" y="-18.8" font-family="Times,serif" font-size="14.00">true</text>
</g>
</g>
</svg>
