<?xml version="1.0" encoding="UTF-8" standalone="no"?>
<!DOCTYPE svg PUBLIC "-//W3C//DTD SVG 1.1//EN"
 "http://www.w3.org/Graphics/SVG/1.1/DTD/svg11.dtd">
<!-- Generated by graphviz version 2.38.0 (20140413.2041)
 -->
<!-- Title: IBM&#45;XIV Alert Definitions/XIV&#45;Devices/Write Bandwidth Pages: 1 -->
<svg width="893pt" height="422pt"
 viewBox="0.00 0.00 893.25 421.74" xmlns="http://www.w3.org/2000/svg" xmlns:xlink="http://www.w3.org/1999/xlink">
<g id="${uniqueid}" class="graph" transform="scale(1 1) rotate(0) translate(4 417.74)">
<title>IBM&#45;XIV Alert Definitions/XIV&#45;Devices/Write Bandwidth</title>
<polygon fill="white" stroke="none" points="-4,4 -4,-417.74 889.252,-417.74 889.252,4 -4,4"/>
<!-- LUN write b/w
entry -->
<g id="${uniqueid}_node1" class="node"><title>LUN write b/w
entry</title>
<g id="a_${uniqueid}_node1"><a xlink:href="#15347895455309" xlink:title="com.watch4net.alerting.operation.FilteredEntryPoint">
<ellipse fill="#984ea3" stroke="black" cx="86.267" cy="-206.87" rx="86.0347" ry="26.7407"/>
<text text-anchor="middle" x="86.267" y="-210.67" font-family="Times,serif" font-size="14.00" fill="white">LUN write b/w</text>
<text text-anchor="middle" x="86.267" y="-195.67" font-family="Times,serif" font-size="14.00" fill="white">entry</text>
</a>
</g>
</g>
<!-- Write b/w Case -->
<g id="${uniqueid}_node6" class="node"><title>Write b/w Case</title>
<g id="a_${uniqueid}_node6"><a xlink:href="#15347895494069" xlink:title="com.watch4net.alerting.operation.CaseOperation">
<polygon fill="#377eb8" stroke="black" points="334.534,-224.87 208.534,-224.87 208.534,-188.87 334.534,-188.87 334.534,-224.87"/>
<text text-anchor="middle" x="271.534" y="-203.17" font-family="Times,serif" font-size="14.00" fill="white">Write b/w Case</text>
</a>
</g>
</g>
<!-- LUN write b/w
entry&#45;&gt;Write b/w Case -->
<g id="${uniqueid}_edge1" class="edge"><title>LUN write b/w
entry:e&#45;&gt;Write b/w Case:w</title>
<path fill="none" stroke="black" d="M172.534,-206.87C184.534,-206.87 189.784,-206.87 198.409,-206.87"/>
<polygon fill="black" stroke="black" points="198.534,-210.37 208.534,-206.87 198.534,-203.37 198.534,-210.37"/>
</g>
<!-- Write B/W_
Critical Trap -->
<g id="${uniqueid}_node2" class="node"><title>Write B/W_
Critical Trap</title>
<g id="a_${uniqueid}_node2"><a xlink:href="#15347895509832" xlink:title="com.watch4net.alerting.action.SNMPTrapAction">
<ellipse fill="#4daf4a" stroke="black" cx="779.893" cy="-314.87" rx="76.2353" ry="26.7407"/>
<text text-anchor="middle" x="779.893" y="-318.67" font-family="Times,serif" font-size="14.00" fill="white">Write B/W_</text>
<text text-anchor="middle" x="779.893" y="-303.67" font-family="Times,serif" font-size="14.00" fill="white">Critical Trap</text>
</a>
</g>
</g>
<!-- Write B/W_
Critical_Clear -->
<g id="${uniqueid}_node3" class="node"><title>Write B/W_
Critical_Clear</title>
<g id="a_${uniqueid}_node3"><a xlink:href="#1425931354159" xlink:title="com.watch4net.alerting.action.SNMPTrapAction">
<ellipse fill="#4daf4a" stroke="black" cx="779.893" cy="-386.87" rx="82.9636" ry="26.7407"/>
<text text-anchor="middle" x="779.893" y="-390.67" font-family="Times,serif" font-size="14.00" fill="white">Write B/W_</text>
<text text-anchor="middle" x="779.893" y="-375.67" font-family="Times,serif" font-size="14.00" fill="white">Critical_Clear</text>
</a>
</g>
</g>
<!-- Write B/W_Major
Trap -->
<g id="${uniqueid}_node4" class="node"><title>Write B/W_Major
Trap</title>
<g id="a_${uniqueid}_node4"><a xlink:href="#15347895530043" xlink:title="com.watch4net.alerting.action.SNMPTrapAction">
<ellipse fill="#4daf4a" stroke="black" cx="779.893" cy="-170.87" rx="99.9045" ry="26.7407"/>
<text text-anchor="middle" x="779.893" y="-174.67" font-family="Times,serif" font-size="14.00" fill="white">Write B/W_Major</text>
<text text-anchor="middle" x="779.893" y="-159.67" font-family="Times,serif" font-size="14.00" fill="white">Trap</text>
</a>
</g>
</g>
<!-- Write B/W_Major_
Clear -->
<g id="${uniqueid}_node5" class="node"><title>Write B/W_Major_
Clear</title>
<g id="a_${uniqueid}_node5"><a xlink:href="#1425931383330" xlink:title="com.watch4net.alerting.action.SNMPTrapAction">
<ellipse fill="#4daf4a" stroke="black" cx="779.893" cy="-242.87" rx="105.218" ry="26.7407"/>
<text text-anchor="middle" x="779.893" y="-246.67" font-family="Times,serif" font-size="14.00" fill="white">Write B/W_Major_</text>
<text text-anchor="middle" x="779.893" y="-231.67" font-family="Times,serif" font-size="14.00" fill="white">Clear</text>
</a>
</g>
</g>
<!-- Write b/w Crit
comp -->
<g id="${uniqueid}_node7" class="node"><title>Write b/w Crit
comp</title>
<g id="a_${uniqueid}_node7"><a xlink:href="#15347895499037" xlink:title="com.watch4net.alerting.operation.comparator.ConstantComparatorOperation">
<polygon fill="#ff7f00" stroke="black" points="504.534,-381.87 385.534,-343.87 504.534,-305.87 623.534,-343.87 504.534,-381.87"/>
<text text-anchor="middle" x="504.534" y="-347.67" font-family="Times,serif" font-size="14.00" fill="white">Write b/w Crit</text>
<text text-anchor="middle" x="504.534" y="-332.67" font-family="Times,serif" font-size="14.00" fill="white">comp</text>
</a>
</g>
</g>
<!-- Write b/w Case&#45;&gt;Write b/w Crit
comp -->
<g id="${uniqueid}_edge2" class="edge"><title>Write b/w Case:e&#45;&gt;Write b/w Crit
comp:w</title>
<path fill="none" stroke="black" d="M334.534,-206.87C395.553,-206.87 328.553,-328.286 374.57,-342.514"/>
<polygon fill="black" stroke="black" points="374.153,-345.99 384.534,-343.87 375.097,-339.054 374.153,-345.99"/>
</g>
<!-- Write b/w Maj
Comp -->
<g id="${uniqueid}_node8" class="node"><title>Write b/w Maj
Comp</title>
<g id="a_${uniqueid}_node8"><a xlink:href="#15347895523106" xlink:title="com.watch4net.alerting.operation.comparator.ConstantComparatorOperation">
<polygon fill="#ff7f00" stroke="black" points="504.534,-244.87 385.534,-206.87 504.534,-168.87 623.534,-206.87 504.534,-244.87"/>
<text text-anchor="middle" x="504.534" y="-210.67" font-family="Times,serif" font-size="14.00" fill="white">Write b/w Maj</text>
<text text-anchor="middle" x="504.534" y="-195.67" font-family="Times,serif" font-size="14.00" fill="white">Comp</text>
</a>
</g>
</g>
<!-- Write b/w Case&#45;&gt;Write b/w Maj
Comp -->
<g id="${uniqueid}_edge3" class="edge"><title>Write b/w Case:e&#45;&gt;Write b/w Maj
Comp:w</title>
<path fill="none" stroke="black" d="M334.534,-206.87C352.937,-206.87 359.91,-206.87 374.384,-206.87"/>
<polygon fill="black" stroke="black" points="374.534,-210.37 384.534,-206.87 374.534,-203.37 374.534,-210.37"/>
</g>
<!-- Write b/w Minor
Comp -->
<g id="${uniqueid}_node9" class="node"><title>Write b/w Minor
Comp</title>
<g id="a_${uniqueid}_node9"><a xlink:href="#15347895538430" xlink:title="com.watch4net.alerting.operation.comparator.ConstantComparatorOperation">
<polygon fill="#ff7f00" stroke="black" points="504.534,-106.87 370.534,-68.8701 504.534,-30.8701 638.534,-68.8701 504.534,-106.87"/>
<text text-anchor="middle" x="504.534" y="-72.6701" font-family="Times,serif" font-size="14.00" fill="white">Write b/w Minor</text>
<text text-anchor="middle" x="504.534" y="-57.6701" font-family="Times,serif" font-size="14.00" fill="white">Comp</text>
</a>
</g>
</g>
<!-- Write b/w Case&#45;&gt;Write b/w Minor
Comp -->
<g id="${uniqueid}_edge4" class="edge"><title>Write b/w Case:e&#45;&gt;Write b/w Minor
Comp:w</title>
<path fill="none" stroke="black" d="M334.534,-206.87C393.958,-206.87 317.892,-85.581 360.38,-70.4199"/>
<polygon fill="black" stroke="black" points="361.177,-73.839 370.534,-68.8701 360.12,-66.9191 361.177,-73.839"/>
</g>
<!-- Write b/w Crit
comp&#45;&gt;Write B/W_
Critical Trap -->
<g id="${uniqueid}_edge6" class="edge"><title>Write b/w Crit
comp:se&#45;&gt;Write B/W_
Critical Trap:w</title>
<path fill="none" stroke="black" d="M534.534,-314.87C584.664,-264.74 623.699,-310.17 691.652,-314.54"/>
<polygon fill="black" stroke="black" points="691.785,-318.046 701.893,-314.87 692.011,-311.049 691.785,-318.046"/>
<text text-anchor="middle" x="519.034" y="-303.67" font-family="Times,serif" font-size="14.00">true</text>
</g>
<!-- Write b/w Crit
comp&#45;&gt;Write B/W_
Critical_Clear -->
<g id="${uniqueid}_edge5" class="edge"><title>Write b/w Crit
comp:ne&#45;&gt;Write B/W_
Critical_Clear:w</title>
<path fill="none" stroke="black" d="M532.534,-372.87C535.38,-375.716 530.577,-379.14 533.534,-381.87 583.99,-428.449 620.036,-390.942 685.563,-387.169"/>
<polygon fill="black" stroke="black" points="685.998,-390.658 695.893,-386.87 685.796,-383.661 685.998,-390.658"/>
<text text-anchor="middle" x="515.534" y="-376.67" font-family="Times,serif" font-size="14.00">false</text>
</g>
<!-- Write b/w Maj
Comp&#45;&gt;Write B/W_Major
Trap -->
<g id="${uniqueid}_edge8" class="edge"><title>Write b/w Maj
Comp:se&#45;&gt;Write B/W_Major
Trap:w</title>
<path fill="none" stroke="black" d="M534.534,-177.87C577.471,-134.933 610.83,-166.919 668.613,-170.545"/>
<polygon fill="black" stroke="black" points="668.787,-174.053 678.893,-170.87 669.008,-167.056 668.787,-174.053"/>
<text text-anchor="middle" x="519.034" y="-166.67" font-family="Times,serif" font-size="14.00">true</text>
</g>
<!-- Write b/w Maj
Comp&#45;&gt;Write B/W_Major_
Clear -->
<g id="${uniqueid}_edge7" class="edge"><title>Write b/w Maj
Comp:ne&#45;&gt;Write B/W_Major_
Clear:w</title>
<path fill="none" stroke="black" d="M532.534,-235.87C535.38,-238.716 530.535,-242.186 533.534,-244.87 563.339,-271.547 583.542,-245.654 623.534,-244.87 642.316,-244.502 649.409,-243.372 664.175,-242.994"/>
<polygon fill="black" stroke="black" points="664.577,-246.49 674.534,-242.87 664.493,-239.49 664.577,-246.49"/>
<text text-anchor="middle" x="515.534" y="-239.67" font-family="Times,serif" font-size="14.00">false</text>
</g>
<!-- WriteB/W_Minor
Trap -->
<g id="${uniqueid}_node10" class="node"><title>WriteB/W_Minor
Trap</title>
<g id="a_${uniqueid}_node10"><a xlink:href="#15347895544809" xlink:title="com.watch4net.alerting.action.SNMPTrapAction">
<ellipse fill="#4daf4a" stroke="black" cx="779.893" cy="-26.8701" rx="96.7474" ry="26.7407"/>
<text text-anchor="middle" x="779.893" y="-30.6701" font-family="Times,serif" font-size="14.00" fill="white">WriteB/W_Minor</text>
<text text-anchor="middle" x="779.893" y="-15.6701" font-family="Times,serif" font-size="14.00" fill="white">Trap</text>
</a>
</g>
</g>
<!-- Write b/w Minor
Comp&#45;&gt;WriteB/W_Minor
Trap -->
<g id="${uniqueid}_edge10" class="edge"><title>Write b/w Minor
Comp:se&#45;&gt;WriteB/W_Minor
Trap:w</title>
<path fill="none" stroke="black" d="M535.534,-38.8701C579.251,4.84674 612.91,-23.4916 671.814,-26.6019"/>
<polygon fill="black" stroke="black" points="671.803,-30.1028 681.893,-26.8701 671.99,-23.1053 671.803,-30.1028"/>
<text text-anchor="middle" x="520.034" y="-27.6701" font-family="Times,serif" font-size="14.00">true</text>
</g>
<!-- WriteB/W_Minor_
Clear -->
<g id="${uniqueid}_node11" class="node"><title>WriteB/W_Minor_
Clear</title>
<g id="a_${uniqueid}_node11"><a xlink:href="#1425931400662" xlink:title="com.watch4net.alerting.action.SNMPTrapAction">
<ellipse fill="#4daf4a" stroke="black" cx="779.893" cy="-98.8701" rx="102.561" ry="26.7407"/>
<text text-anchor="middle" x="779.893" y="-102.67" font-family="Times,serif" font-size="14.00" fill="white">WriteB/W_Minor_</text>
<text text-anchor="middle" x="779.893" y="-87.6701" font-family="Times,serif" font-size="14.00" fill="white">Clear</text>
</a>
</g>
</g>
<!-- Write b/w Minor
Comp&#45;&gt;WriteB/W_Minor_
Clear -->
<g id="${uniqueid}_edge9" class="edge"><title>Write b/w Minor
Comp:ne&#45;&gt;WriteB/W_Minor_
Clear:w</title>
<path fill="none" stroke="black" d="M533.534,-98.8701C536.068,-101.404 531.848,-104.499 534.534,-106.87 569.186,-137.46 592.569,-111.736 638.534,-106.87 651.462,-105.501 656.54,-101.539 665.83,-99.7569"/>
<polygon fill="black" stroke="black" points="666.239,-103.235 675.893,-98.8701 665.624,-96.2615 666.239,-103.235"/>
<text text-anchor="middle" x="516.534" y="-102.67" font-family="Times,serif" font-size="14.00">false</text>
</g>
</g>
</svg>
