<?xml version="1.0" encoding="UTF-8" standalone="no"?>
<!DOCTYPE svg PUBLIC "-//W3C//DTD SVG 1.1//EN"
 "http://www.w3.org/Graphics/SVG/1.1/DTD/svg11.dtd">
<!-- Generated by graphviz version 2.38.0 (20140413.2041)
 -->
<!-- Title: IBM&#45;XIV Alert Definitions/XIV&#45;Devices/Read Requests Pages: 1 -->
<svg width="799pt" height="422pt"
 viewBox="0.00 0.00 799.45 421.74" xmlns="http://www.w3.org/2000/svg" xmlns:xlink="http://www.w3.org/1999/xlink">
<g id="${uniqueid}" class="graph" transform="scale(1 1) rotate(0) translate(4 417.74)">
<title>IBM&#45;XIV Alert Definitions/XIV&#45;Devices/Read Requests</title>
<polygon fill="white" stroke="none" points="-4,4 -4,-417.74 795.453,-417.74 795.453,4 -4,4"/>
<!-- Case -->
<g id="${uniqueid}_node1" class="node"><title>Case</title>
<g id="a_${uniqueid}_node1"><a xlink:href="#1435780918625" xlink:title="com.watch4net.alerting.operation.CaseOperation">
<polygon fill="#377eb8" stroke="black" points="252.635,-224.87 198.635,-224.87 198.635,-188.87 252.635,-188.87 252.635,-224.87"/>
<text text-anchor="middle" x="225.635" y="-203.17" font-family="Times,serif" font-size="14.00" fill="white">Case</text>
</a>
</g>
</g>
<!-- Read Req Maj
Comp -->
<g id="${uniqueid}_node3" class="node"><title>Read Req Maj
Comp</title>
<g id="a_${uniqueid}_node3"><a xlink:href="#13546663312428" xlink:title="com.watch4net.alerting.operation.comparator.ConstantComparatorOperation">
<polygon fill="#ff7f00" stroke="black" points="421.635,-381.87 304.635,-343.87 421.635,-305.87 538.635,-343.87 421.635,-381.87"/>
<text text-anchor="middle" x="421.635" y="-347.67" font-family="Times,serif" font-size="14.00" fill="white">Read Req Maj</text>
<text text-anchor="middle" x="421.635" y="-332.67" font-family="Times,serif" font-size="14.00" fill="white">Comp</text>
</a>
</g>
</g>
<!-- Case&#45;&gt;Read Req Maj
Comp -->
<g id="${uniqueid}_edge1" class="edge"><title>Case:e&#45;&gt;Read Req Maj
Comp:w</title>
<path fill="none" stroke="black" d="M252.635,-206.87C313.799,-206.87 247.42,-328.286 293.638,-342.514"/>
<polygon fill="black" stroke="black" points="293.255,-345.994 303.635,-343.87 294.196,-339.058 293.255,-345.994"/>
</g>
<!-- Read Req Minor
Comp -->
<g id="${uniqueid}_node4" class="node"><title>Read Req Minor
Comp</title>
<g id="a_${uniqueid}_node4"><a xlink:href="#13546663321348" xlink:title="com.watch4net.alerting.operation.comparator.ConstantComparatorOperation">
<polygon fill="#ff7f00" stroke="black" points="421.635,-244.87 288.635,-206.87 421.635,-168.87 554.635,-206.87 421.635,-244.87"/>
<text text-anchor="middle" x="421.635" y="-210.67" font-family="Times,serif" font-size="14.00" fill="white">Read Req Minor</text>
<text text-anchor="middle" x="421.635" y="-195.67" font-family="Times,serif" font-size="14.00" fill="white">Comp</text>
</a>
</g>
</g>
<!-- Case&#45;&gt;Read Req Minor
Comp -->
<g id="${uniqueid}_edge2" class="edge"><title>Case:e&#45;&gt;Read Req Minor
Comp:w</title>
<path fill="none" stroke="black" d="M252.635,-206.87C264.635,-206.87 269.885,-206.87 278.51,-206.87"/>
<polygon fill="black" stroke="black" points="278.635,-210.37 288.635,-206.87 278.635,-203.37 278.635,-210.37"/>
</g>
<!-- ReadReq Crit
comp -->
<g id="${uniqueid}_node5" class="node"><title>ReadReq Crit
comp</title>
<g id="a_${uniqueid}_node5"><a xlink:href="#13546663303711" xlink:title="com.watch4net.alerting.operation.comparator.ConstantComparatorOperation">
<polygon fill="#ff7f00" stroke="black" points="421.635,-107.87 308.635,-69.8701 421.635,-31.8701 534.635,-69.8701 421.635,-107.87"/>
<text text-anchor="middle" x="421.635" y="-73.6701" font-family="Times,serif" font-size="14.00" fill="white">ReadReq Crit</text>
<text text-anchor="middle" x="421.635" y="-58.6701" font-family="Times,serif" font-size="14.00" fill="white">comp</text>
</a>
</g>
</g>
<!-- Case&#45;&gt;ReadReq Crit
comp -->
<g id="${uniqueid}_edge3" class="edge"><title>Case:e&#45;&gt;ReadReq Crit
comp:w</title>
<path fill="none" stroke="black" d="M252.635,-206.87C314.402,-206.87 250.468,-85.4544 297.505,-71.226"/>
<polygon fill="black" stroke="black" points="298.187,-74.666 307.635,-69.8701 297.259,-67.7278 298.187,-74.666"/>
</g>
<!-- LUN read req
entry -->
<g id="${uniqueid}_node2" class="node"><title>LUN read req
entry</title>
<g id="a_${uniqueid}_node2"><a xlink:href="#13546663052292" xlink:title="com.watch4net.alerting.operation.FilteredEntryPoint">
<ellipse fill="#984ea3" stroke="black" cx="81.3173" cy="-206.87" rx="81.135" ry="26.7407"/>
<text text-anchor="middle" x="81.3173" y="-210.67" font-family="Times,serif" font-size="14.00" fill="white">LUN read req</text>
<text text-anchor="middle" x="81.3173" y="-195.67" font-family="Times,serif" font-size="14.00" fill="white">entry</text>
</a>
</g>
</g>
<!-- LUN read req
entry&#45;&gt;Case -->
<g id="${uniqueid}_edge4" class="edge"><title>LUN read req
entry:e&#45;&gt;Case:w</title>
<path fill="none" stroke="black" d="M162.635,-206.87C174.635,-206.87 179.885,-206.87 188.51,-206.87"/>
<polygon fill="black" stroke="black" points="188.635,-210.37 198.635,-206.87 188.635,-203.37 188.635,-210.37"/>
</g>
<!-- ReadReq_Major
Trap -->
<g id="${uniqueid}_node8" class="node"><title>ReadReq_Major
Trap</title>
<g id="a_${uniqueid}_node8"><a xlink:href="#13546663437651" xlink:title="com.watch4net.alerting.action.SNMPTrapAction">
<ellipse fill="#4daf4a" stroke="black" cx="691.044" cy="-314.87" rx="92.7622" ry="26.7407"/>
<text text-anchor="middle" x="691.044" y="-318.67" font-family="Times,serif" font-size="14.00" fill="white">ReadReq_Major</text>
<text text-anchor="middle" x="691.044" y="-303.67" font-family="Times,serif" font-size="14.00" fill="white">Trap</text>
</a>
</g>
</g>
<!-- Read Req Maj
Comp&#45;&gt;ReadReq_Major
Trap -->
<g id="${uniqueid}_edge6" class="edge"><title>Read Req Maj
Comp:se&#45;&gt;ReadReq_Major
Trap:w</title>
<path fill="none" stroke="black" d="M451.635,-314.87C494.833,-271.671 528.548,-310.145 586.699,-314.482"/>
<polygon fill="black" stroke="black" points="586.92,-317.993 597.044,-314.87 587.182,-310.998 586.92,-317.993"/>
<text text-anchor="middle" x="436.135" y="-303.67" font-family="Times,serif" font-size="14.00">true</text>
</g>
<!-- ReadReq_Major_
Clear -->
<g id="${uniqueid}_node9" class="node"><title>ReadReq_Major_
Clear</title>
<g id="a_${uniqueid}_node9"><a xlink:href="#1425929484357" xlink:title="com.watch4net.alerting.action.SNMPTrapAction">
<ellipse fill="#4daf4a" stroke="black" cx="691.044" cy="-386.87" rx="97.6615" ry="26.7407"/>
<text text-anchor="middle" x="691.044" y="-390.67" font-family="Times,serif" font-size="14.00" fill="white">ReadReq_Major_</text>
<text text-anchor="middle" x="691.044" y="-375.67" font-family="Times,serif" font-size="14.00" fill="white">Clear</text>
</a>
</g>
</g>
<!-- Read Req Maj
Comp&#45;&gt;ReadReq_Major_
Clear -->
<g id="${uniqueid}_edge5" class="edge"><title>Read Req Maj
Comp:ne&#45;&gt;ReadReq_Major_
Clear:w</title>
<path fill="none" stroke="black" d="M449.635,-372.87C452.48,-375.716 447.684,-379.133 450.635,-381.87 494.224,-422.294 525.57,-390.76 581.992,-387.19"/>
<polygon fill="black" stroke="black" points="582.16,-390.686 592.044,-386.87 581.938,-383.69 582.16,-390.686"/>
<text text-anchor="middle" x="432.635" y="-376.67" font-family="Times,serif" font-size="14.00">false</text>
</g>
<!-- ReadReq_Minor
Trap -->
<g id="${uniqueid}_node10" class="node"><title>ReadReq_Minor
Trap</title>
<g id="a_${uniqueid}_node10"><a xlink:href="#13546663421692" xlink:title="com.watch4net.alerting.action.SNMPTrapAction">
<ellipse fill="#4daf4a" stroke="black" cx="691.044" cy="-170.87" rx="92.7622" ry="26.7407"/>
<text text-anchor="middle" x="691.044" y="-174.67" font-family="Times,serif" font-size="14.00" fill="white">ReadReq_Minor</text>
<text text-anchor="middle" x="691.044" y="-159.67" font-family="Times,serif" font-size="14.00" fill="white">Trap</text>
</a>
</g>
</g>
<!-- Read Req Minor
Comp&#45;&gt;ReadReq_Minor
Trap -->
<g id="${uniqueid}_edge8" class="edge"><title>Read Req Minor
Comp:se&#45;&gt;ReadReq_Minor
Trap:w</title>
<path fill="none" stroke="black" d="M452.635,-176.87C495.573,-133.932 528.974,-166.812 586.763,-170.537"/>
<polygon fill="black" stroke="black" points="586.936,-174.044 597.044,-170.87 587.162,-167.048 586.936,-174.044"/>
<text text-anchor="middle" x="437.135" y="-165.67" font-family="Times,serif" font-size="14.00">true</text>
</g>
<!-- ReadReq_Minor_
Clear -->
<g id="${uniqueid}_node11" class="node"><title>ReadReq_Minor_
Clear</title>
<g id="a_${uniqueid}_node11"><a xlink:href="#1425929518122" xlink:title="com.watch4net.alerting.action.SNMPTrapAction">
<ellipse fill="#4daf4a" stroke="black" cx="691.044" cy="-242.87" rx="98.0761" ry="26.7407"/>
<text text-anchor="middle" x="691.044" y="-246.67" font-family="Times,serif" font-size="14.00" fill="white">ReadReq_Minor_</text>
<text text-anchor="middle" x="691.044" y="-231.67" font-family="Times,serif" font-size="14.00" fill="white">Clear</text>
</a>
</g>
</g>
<!-- Read Req Minor
Comp&#45;&gt;ReadReq_Minor_
Clear -->
<g id="${uniqueid}_edge7" class="edge"><title>Read Req Minor
Comp:ne&#45;&gt;ReadReq_Minor_
Clear:w</title>
<path fill="none" stroke="black" d="M450.635,-236.87C453.168,-239.404 448.948,-242.499 451.635,-244.87 485.953,-275.166 508.873,-246.092 554.635,-244.87 567.248,-244.533 572.666,-243.558 581.796,-243.106"/>
<polygon fill="black" stroke="black" points="582.127,-246.599 592.044,-242.87 581.966,-239.601 582.127,-246.599"/>
<text text-anchor="middle" x="433.635" y="-240.67" font-family="Times,serif" font-size="14.00">false</text>
</g>
<!-- ReadReq_
Critical_Clear -->
<g id="${uniqueid}_node6" class="node"><title>ReadReq_
Critical_Clear</title>
<g id="a_${uniqueid}_node6"><a xlink:href="#1425929454225" xlink:title="com.watch4net.alerting.action.SNMPTrapAction">
<ellipse fill="#4daf4a" stroke="black" cx="691.044" cy="-98.8701" rx="82.9636" ry="26.7407"/>
<text text-anchor="middle" x="691.044" y="-102.67" font-family="Times,serif" font-size="14.00" fill="white">ReadReq_</text>
<text text-anchor="middle" x="691.044" y="-87.6701" font-family="Times,serif" font-size="14.00" fill="white">Critical_Clear</text>
</a>
</g>
</g>
<!-- ReadReq Crit
comp&#45;&gt;ReadReq_
Critical_Clear -->
<g id="${uniqueid}_edge9" class="edge"><title>ReadReq Crit
comp:ne&#45;&gt;ReadReq_
Critical_Clear:w</title>
<path fill="none" stroke="black" d="M449.635,-98.8701C452.48,-101.716 447.636,-105.186 450.635,-107.87 499.883,-151.95 533.826,-104.238 596.698,-99.2783"/>
<polygon fill="black" stroke="black" points="597.19,-102.762 607.044,-98.8701 596.913,-95.7672 597.19,-102.762"/>
<text text-anchor="middle" x="432.635" y="-102.67" font-family="Times,serif" font-size="14.00">false</text>
</g>
<!-- ReadReq_Critical
Trap -->
<g id="${uniqueid}_node7" class="node"><title>ReadReq_Critical
Trap</title>
<g id="a_${uniqueid}_node7"><a xlink:href="#13546663453027" xlink:title="com.watch4net.alerting.action.SNMPTrapAction">
<ellipse fill="#4daf4a" stroke="black" cx="691.044" cy="-26.8701" rx="100.318" ry="26.7407"/>
<text text-anchor="middle" x="691.044" y="-30.6701" font-family="Times,serif" font-size="14.00" fill="white">ReadReq_Critical</text>
<text text-anchor="middle" x="691.044" y="-15.6701" font-family="Times,serif" font-size="14.00" fill="white">Trap</text>
</a>
</g>
</g>
<!-- ReadReq Crit
comp&#45;&gt;ReadReq_Critical
Trap -->
<g id="${uniqueid}_edge10" class="edge"><title>ReadReq Crit
comp:se&#45;&gt;ReadReq_Critical
Trap:w</title>
<path fill="none" stroke="black" d="M451.635,-40.8701C493.052,0.547662 524.77,-23.7192 580.357,-26.6011"/>
<polygon fill="black" stroke="black" points="580.546,-30.1072 590.635,-26.8701 580.73,-23.1096 580.546,-30.1072"/>
<text text-anchor="middle" x="436.135" y="-29.6701" font-family="Times,serif" font-size="14.00">true</text>
</g>
</g>
</svg>
