<?xml version="1.0" encoding="UTF-8" standalone="no"?>
<!DOCTYPE svg PUBLIC "-//W3C//DTD SVG 1.1//EN"
 "http://www.w3.org/Graphics/SVG/1.1/DTD/svg11.dtd">
<!-- Generated by graphviz version 2.38.0 (20140413.2041)
 -->
<!-- Title: EMC VMAX Alert Definitions/VMAX&#45;Array/Low Hit Percent Pages: 1 -->
<svg width="896pt" height="370pt"
 viewBox="0.00 0.00 896.49 369.76" xmlns="http://www.w3.org/2000/svg" xmlns:xlink="http://www.w3.org/1999/xlink">
<g id="${uniqueid}" class="graph" transform="scale(1 1) rotate(0) translate(4 365.764)">
<title>EMC VMAX Alert Definitions/VMAX&#45;Array/Low Hit Percent</title>
<polygon fill="white" stroke="none" points="-4,4 -4,-365.764 892.495,-365.764 892.495,4 -4,4"/>
<!-- ArrayLowHit
Percent_Critical -->
<g id="${uniqueid}_node1" class="node"><title>ArrayLowHit
Percent_Critical</title>
<g id="a_${uniqueid}_node1"><a xlink:href="#2000529166904340" xlink:title="com.watch4net.alerting.operation.comparator.ConstantComparatorOperation">
<polygon fill="#ff7f00" stroke="black" points="507.777,-346.87 373.777,-308.87 507.777,-270.87 641.777,-308.87 507.777,-346.87"/>
<text text-anchor="middle" x="507.777" y="-312.67" font-family="Times,serif" font-size="14.00" fill="white">ArrayLowHit</text>
<text text-anchor="middle" x="507.777" y="-297.67" font-family="Times,serif" font-size="14.00" fill="white">Percent_Critical</text>
</a>
</g>
</g>
<!-- Array_Low_Hit_
Percentage_Crit -->
<g id="${uniqueid}_node5" class="node"><title>Array_Low_Hit_
Percentage_Crit</title>
<g id="a_${uniqueid}_node5"><a xlink:href="#2000529166927104" xlink:title="com.watch4net.alerting.action.SNMPTrapAction">
<ellipse fill="#4daf4a" stroke="black" cx="783.136" cy="-278.87" rx="94.5053" ry="26.7407"/>
<text text-anchor="middle" x="783.136" y="-282.67" font-family="Times,serif" font-size="14.00" fill="white">Array_Low_Hit_</text>
<text text-anchor="middle" x="783.136" y="-267.67" font-family="Times,serif" font-size="14.00" fill="white">Percentage_Crit</text>
</a>
</g>
</g>
<!-- ArrayLowHit
Percent_Critical&#45;&gt;Array_Low_Hit_
Percentage_Crit -->
<g id="${uniqueid}_edge2" class="edge"><title>ArrayLowHit
Percent_Critical:se&#45;&gt;Array_Low_Hit_
Percentage_Crit:w</title>
<path fill="none" stroke="black" d="M538.777,-278.87C582.943,-234.704 617.393,-274.212 676.95,-278.502"/>
<polygon fill="black" stroke="black" points="677.016,-282.006 687.136,-278.87 677.269,-275.011 677.016,-282.006"/>
<text text-anchor="middle" x="523.277" y="-267.67" font-family="Times,serif" font-size="14.00">true</text>
</g>
<!-- SNMP_Clear_Crit -->
<g id="${uniqueid}_node9" class="node"><title>SNMP_Clear_Crit</title>
<g id="a_${uniqueid}_node9"><a xlink:href="#2000529166948667" xlink:title="com.watch4net.alerting.action.SNMPTrapAction">
<ellipse fill="#4daf4a" stroke="black" cx="783.136" cy="-341.87" rx="94.7833" ry="18"/>
<text text-anchor="middle" x="783.136" y="-338.17" font-family="Times,serif" font-size="14.00" fill="white">SNMP_Clear_Crit</text>
</a>
</g>
</g>
<!-- ArrayLowHit
Percent_Critical&#45;&gt;SNMP_Clear_Crit -->
<g id="${uniqueid}_edge1" class="edge"><title>ArrayLowHit
Percent_Critical:ne&#45;&gt;SNMP_Clear_Crit:w</title>
<path fill="none" stroke="black" d="M536.777,-338.87C539.31,-341.404 535.09,-344.499 537.777,-346.87 572.428,-377.46 595.624,-349.406 641.777,-346.87 658.072,-345.975 664.38,-343.283 676.79,-342.265"/>
<polygon fill="black" stroke="black" points="677.277,-345.749 687.136,-341.87 677.009,-338.754 677.277,-345.749"/>
<text text-anchor="middle" x="519.777" y="-342.67" font-family="Times,serif" font-size="14.00">false</text>
</g>
<!-- ArrayLowHit
Percent_Major -->
<g id="${uniqueid}_node2" class="node"><title>ArrayLowHit
Percent_Major</title>
<g id="a_${uniqueid}_node2"><a xlink:href="#2000529166959895" xlink:title="com.watch4net.alerting.operation.comparator.ConstantComparatorOperation">
<polygon fill="#ff7f00" stroke="black" points="507.777,-221.87 385.777,-183.87 507.777,-145.87 629.777,-183.87 507.777,-221.87"/>
<text text-anchor="middle" x="507.777" y="-187.67" font-family="Times,serif" font-size="14.00" fill="white">ArrayLowHit</text>
<text text-anchor="middle" x="507.777" y="-172.67" font-family="Times,serif" font-size="14.00" fill="white">Percent_Major</text>
</a>
</g>
</g>
<!-- Array_Low_Hit_
Percent_Major -->
<g id="${uniqueid}_node4" class="node"><title>Array_Low_Hit_
Percent_Major</title>
<g id="a_${uniqueid}_node4"><a xlink:href="#2000529166973044" xlink:title="com.watch4net.alerting.action.SNMPTrapAction">
<ellipse fill="#4daf4a" stroke="black" cx="783.136" cy="-152.87" rx="94.0904" ry="26.7407"/>
<text text-anchor="middle" x="783.136" y="-156.67" font-family="Times,serif" font-size="14.00" fill="white">Array_Low_Hit_</text>
<text text-anchor="middle" x="783.136" y="-141.67" font-family="Times,serif" font-size="14.00" fill="white">Percent_Major</text>
</a>
</g>
</g>
<!-- ArrayLowHit
Percent_Major&#45;&gt;Array_Low_Hit_
Percent_Major -->
<g id="${uniqueid}_edge4" class="edge"><title>ArrayLowHit
Percent_Major:se&#45;&gt;Array_Low_Hit_
Percent_Major:w</title>
<path fill="none" stroke="black" d="M537.777,-154.87C582.542,-110.105 617.448,-148.354 677.811,-152.513"/>
<polygon fill="black" stroke="black" points="678.02,-156.022 688.136,-152.87 678.263,-149.026 678.02,-156.022"/>
<text text-anchor="middle" x="522.277" y="-143.67" font-family="Times,serif" font-size="14.00">true</text>
</g>
<!-- SNMP_Clear_Major -->
<g id="${uniqueid}_node10" class="node"><title>SNMP_Clear_Major</title>
<g id="a_${uniqueid}_node10"><a xlink:href="#2000529166985642" xlink:title="com.watch4net.alerting.action.SNMPTrapAction">
<ellipse fill="#4daf4a" stroke="black" cx="783.136" cy="-215.87" rx="103.982" ry="18"/>
<text text-anchor="middle" x="783.136" y="-212.17" font-family="Times,serif" font-size="14.00" fill="white">SNMP_Clear_Major</text>
</a>
</g>
</g>
<!-- ArrayLowHit
Percent_Major&#45;&gt;SNMP_Clear_Major -->
<g id="${uniqueid}_edge3" class="edge"><title>ArrayLowHit
Percent_Major:ne&#45;&gt;SNMP_Clear_Major:w</title>
<path fill="none" stroke="black" d="M535.777,-212.87C538.623,-215.716 533.778,-219.186 536.777,-221.87 567.575,-249.436 588.522,-224.42 629.777,-221.87 647.509,-220.774 654.117,-217.439 667.874,-216.275"/>
<polygon fill="black" stroke="black" points="668.282,-219.762 678.136,-215.87 668.005,-212.768 668.282,-219.762"/>
<text text-anchor="middle" x="518.777" y="-216.67" font-family="Times,serif" font-size="14.00">false</text>
</g>
<!-- Array_LowHit
Percent_Minor -->
<g id="${uniqueid}_node3" class="node"><title>Array_LowHit
Percent_Minor</title>
<g id="a_${uniqueid}_node3"><a xlink:href="#2000529166997559" xlink:title="com.watch4net.alerting.operation.comparator.ConstantComparatorOperation">
<polygon fill="#ff7f00" stroke="black" points="507.777,-98.8701 384.777,-60.8701 507.777,-22.8701 630.777,-60.8701 507.777,-98.8701"/>
<text text-anchor="middle" x="507.777" y="-64.6701" font-family="Times,serif" font-size="14.00" fill="white">Array_LowHit</text>
<text text-anchor="middle" x="507.777" y="-49.6701" font-family="Times,serif" font-size="14.00" fill="white">Percent_Minor</text>
</a>
</g>
</g>
<!-- Array_Low_Hit_
Percentage_Minor -->
<g id="${uniqueid}_node6" class="node"><title>Array_Low_Hit_
Percentage_Minor</title>
<g id="a_${uniqueid}_node6"><a xlink:href="#2000529167009225" xlink:title="com.watch4net.alerting.action.SNMPTrapAction">
<ellipse fill="#4daf4a" stroke="black" cx="783.136" cy="-26.8701" rx="105.218" ry="26.7407"/>
<text text-anchor="middle" x="783.136" y="-30.6701" font-family="Times,serif" font-size="14.00" fill="white">Array_Low_Hit_</text>
<text text-anchor="middle" x="783.136" y="-15.6701" font-family="Times,serif" font-size="14.00" fill="white">Percentage_Minor</text>
</a>
</g>
</g>
<!-- Array_LowHit
Percent_Minor&#45;&gt;Array_Low_Hit_
Percentage_Minor -->
<g id="${uniqueid}_edge6" class="edge"><title>Array_LowHit
Percent_Minor:se&#45;&gt;Array_Low_Hit_
Percentage_Minor:w</title>
<path fill="none" stroke="black" d="M537.777,-31.8701C579.309,9.6621 611.663,-22.7156 667.465,-26.5166"/>
<polygon fill="black" stroke="black" points="667.663,-30.0254 677.777,-26.8701 667.902,-23.0295 667.663,-30.0254"/>
<text text-anchor="middle" x="522.277" y="-20.6701" font-family="Times,serif" font-size="14.00">true</text>
</g>
<!-- SNMP_Clear_Minor -->
<g id="${uniqueid}_node11" class="node"><title>SNMP_Clear_Minor</title>
<g id="a_${uniqueid}_node11"><a xlink:href="#2000529167020285" xlink:title="com.watch4net.alerting.action.SNMPTrapAction">
<ellipse fill="#4daf4a" stroke="black" cx="783.136" cy="-89.8701" rx="104.782" ry="18"/>
<text text-anchor="middle" x="783.136" y="-86.1701" font-family="Times,serif" font-size="14.00" fill="white">SNMP_Clear_Minor</text>
</a>
</g>
</g>
<!-- Array_LowHit
Percent_Minor&#45;&gt;SNMP_Clear_Minor -->
<g id="${uniqueid}_edge5" class="edge"><title>Array_LowHit
Percent_Minor:ne&#45;&gt;SNMP_Clear_Minor:w</title>
<path fill="none" stroke="black" d="M535.777,-89.8701C538.623,-92.7159 533.778,-96.186 536.777,-98.8701 567.906,-126.733 589.186,-102.816 630.777,-98.8701 648.145,-97.2221 654.334,-92.2216 667.737,-90.4778"/>
<polygon fill="black" stroke="black" points="668.006,-93.968 677.777,-89.8701 667.583,-86.9807 668.006,-93.968"/>
<text text-anchor="middle" x="518.777" y="-93.6701" font-family="Times,serif" font-size="14.00">false</text>
</g>
<!-- LowHitPercent -->
<g id="${uniqueid}_node7" class="node"><title>LowHitPercent</title>
<g id="a_${uniqueid}_node7"><a xlink:href="#2000529166893929" xlink:title="com.watch4net.alerting.operation.CaseOperation">
<polygon fill="#377eb8" stroke="black" points="337.777,-201.87 212.777,-201.87 212.777,-165.87 337.777,-165.87 337.777,-201.87"/>
<text text-anchor="middle" x="275.277" y="-180.17" font-family="Times,serif" font-size="14.00" fill="white">LowHitPercent</text>
</a>
</g>
</g>
<!-- LowHitPercent&#45;&gt;ArrayLowHit
Percent_Critical -->
<g id="${uniqueid}_edge7" class="edge"><title>LowHitPercent:e&#45;&gt;ArrayLowHit
Percent_Critical:w</title>
<path fill="none" stroke="black" d="M337.777,-183.87C391.525,-183.87 326.481,-291.91 363.525,-307.103"/>
<polygon fill="black" stroke="black" points="363.327,-310.621 373.777,-308.87 364.517,-303.722 363.327,-310.621"/>
</g>
<!-- LowHitPercent&#45;&gt;ArrayLowHit
Percent_Major -->
<g id="${uniqueid}_edge8" class="edge"><title>LowHitPercent:e&#45;&gt;ArrayLowHit
Percent_Major:w</title>
<path fill="none" stroke="black" d="M337.777,-183.87C354.749,-183.87 361.379,-183.87 374.472,-183.87"/>
<polygon fill="black" stroke="black" points="374.777,-187.37 384.777,-183.87 374.777,-180.37 374.777,-187.37"/>
</g>
<!-- LowHitPercent&#45;&gt;Array_LowHit
Percent_Minor -->
<g id="${uniqueid}_edge9" class="edge"><title>LowHitPercent:e&#45;&gt;Array_LowHit
Percent_Minor:w</title>
<path fill="none" stroke="black" d="M337.777,-183.87C392.265,-183.87 334.237,-76.6636 373.782,-62.4252"/>
<polygon fill="black" stroke="black" points="374.434,-65.866 383.777,-60.8701 373.357,-58.9492 374.434,-65.866"/>
</g>
<!-- LowHitPercent
Filter -->
<g id="${uniqueid}_node8" class="node"><title>LowHitPercent
Filter</title>
<g id="a_${uniqueid}_node8"><a xlink:href="#2000529166846279" xlink:title="com.watch4net.alerting.operation.FilteredEntryPoint">
<ellipse fill="#984ea3" stroke="black" cx="88.3883" cy="-183.87" rx="88.2768" ry="26.7407"/>
<text text-anchor="middle" x="88.3883" y="-187.67" font-family="Times,serif" font-size="14.00" fill="white">LowHitPercent</text>
<text text-anchor="middle" x="88.3883" y="-172.67" font-family="Times,serif" font-size="14.00" fill="white">Filter</text>
</a>
</g>
</g>
<!-- LowHitPercent
Filter&#45;&gt;LowHitPercent -->
<g id="${uniqueid}_edge10" class="edge"><title>LowHitPercent
Filter:e&#45;&gt;LowHitPercent:w</title>
<path fill="none" stroke="black" d="M176.777,-183.87C188.777,-183.87 194.027,-183.87 202.652,-183.87"/>
<polygon fill="black" stroke="black" points="202.777,-187.37 212.777,-183.87 202.777,-180.37 202.777,-187.37"/>
</g>
</g>
</svg>
