<?xml version="1.0" encoding="UTF-8" standalone="no"?>
<!DOCTYPE svg PUBLIC "-//W3C//DTD SVG 1.1//EN"
 "http://www.w3.org/Graphics/SVG/1.1/DTD/svg11.dtd">
<!-- Generated by graphviz version 2.38.0 (20140413.2041)
 -->
<!-- Title: EMC ECS Alert Definitions/Degraded Node Notification Pages: 1 -->
<svg width="625pt" height="260pt"
 viewBox="0.00 0.00 625.38 259.87" xmlns="http://www.w3.org/2000/svg" xmlns:xlink="http://www.w3.org/1999/xlink">
<g id="${uniqueid}" class="graph" transform="scale(1 1) rotate(0) translate(4 255.87)">
<title>EMC ECS Alert Definitions/Degraded Node Notification</title>
<polygon fill="white" stroke="none" points="-4,4 -4,-255.87 621.377,-255.87 621.377,4 -4,4"/>
<!-- Bad Node -->
<g id="${uniqueid}_node1" class="node"><title>Bad Node</title>
<g id="a_${uniqueid}_node1"><a xlink:href="#4856716127662522" xlink:title="com.watch4net.alerting.operation.comparator.ConstantComparatorOperation">
<polygon fill="#ff7f00" stroke="black" points="304.943,-185 234.392,-167 304.943,-149 375.494,-167 304.943,-185"/>
<text text-anchor="middle" x="304.943" y="-163.3" font-family="Times,serif" font-size="14.00" fill="white">Bad Node</text>
</a>
</g>
</g>
<!-- Clear Node
Critical -->
<g id="${uniqueid}_node3" class="node"><title>Clear Node
Critical</title>
<g id="a_${uniqueid}_node3"><a xlink:href="#1430515780839" xlink:title="com.watch4net.alerting.action.SNMPTrapAction">
<ellipse fill="#4daf4a" stroke="black" cx="528.335" cy="-225" rx="65.1077" ry="26.7407"/>
<text text-anchor="middle" x="528.335" y="-228.8" font-family="Times,serif" font-size="14.00" fill="white">Clear Node</text>
<text text-anchor="middle" x="528.335" y="-213.8" font-family="Times,serif" font-size="14.00" fill="white">Critical</text>
</a>
</g>
</g>
<!-- Bad Node&#45;&gt;Clear Node
Critical -->
<g id="${uniqueid}_edge1" class="edge"><title>Bad Node:ne&#45;&gt;Clear Node
Critical:w</title>
<path fill="none" stroke="black" d="M317.943,-181C319.238,-182.296 317.665,-183.687 318.943,-185 362.656,-229.913 392.852,-225.629 452.153,-225.053"/>
<polygon fill="black" stroke="black" points="452.353,-228.552 462.335,-225 452.317,-221.552 452.353,-228.552"/>
<text text-anchor="middle" x="298.943" y="-184.8" font-family="Times,serif" font-size="14.00">false</text>
</g>
<!-- Set Node
Critical -->
<g id="${uniqueid}_node6" class="node"><title>Set Node
Critical</title>
<g id="a_${uniqueid}_node6"><a xlink:href="#4856716127672661" xlink:title="com.watch4net.alerting.action.SNMPTrapAction">
<ellipse fill="#4daf4a" stroke="black" cx="528.335" cy="-153" rx="54.3945" ry="26.7407"/>
<text text-anchor="middle" x="528.335" y="-156.8" font-family="Times,serif" font-size="14.00" fill="white">Set Node</text>
<text text-anchor="middle" x="528.335" y="-141.8" font-family="Times,serif" font-size="14.00" fill="white">Critical</text>
</a>
</g>
</g>
<!-- Bad Node&#45;&gt;Set Node
Critical -->
<g id="${uniqueid}_edge2" class="edge"><title>Bad Node:se&#45;&gt;Set Node
Critical:w</title>
<path fill="none" stroke="black" d="M319.943,-153C365.403,-107.54 400.842,-148.383 462.25,-152.648"/>
<polygon fill="black" stroke="black" points="462.219,-156.149 472.335,-153 462.463,-149.153 462.219,-156.149"/>
<text text-anchor="middle" x="304.443" y="-141.8" font-family="Times,serif" font-size="14.00">true</text>
</g>
<!-- Case -->
<g id="${uniqueid}_node2" class="node"><title>Case</title>
<g id="a_${uniqueid}_node2"><a xlink:href="#4856716127657347" xlink:title="com.watch4net.alerting.operation.CaseOperation">
<polygon fill="#377eb8" stroke="black" points="170.593,-134 116.593,-134 116.593,-98 170.593,-98 170.593,-134"/>
<text text-anchor="middle" x="143.593" y="-112.3" font-family="Times,serif" font-size="14.00" fill="white">Case</text>
</a>
</g>
</g>
<!-- Case&#45;&gt;Bad Node -->
<g id="${uniqueid}_edge3" class="edge"><title>Case:e&#45;&gt;Bad Node:w</title>
<path fill="none" stroke="black" d="M170.593,-116C202.618,-116 198.592,-156.809 223.013,-165.418"/>
<polygon fill="black" stroke="black" points="222.516,-168.883 232.943,-167 223.618,-161.97 222.516,-168.883"/>
</g>
<!-- Suspect Node -->
<g id="${uniqueid}_node8" class="node"><title>Suspect Node</title>
<g id="a_${uniqueid}_node8"><a xlink:href="#4856716127684033" xlink:title="com.watch4net.alerting.operation.comparator.ConstantComparatorOperation">
<polygon fill="#ff7f00" stroke="black" points="304.943,-84 206.743,-66 304.943,-48 403.143,-66 304.943,-84"/>
<text text-anchor="middle" x="304.943" y="-62.3" font-family="Times,serif" font-size="14.00" fill="white">Suspect Node</text>
</a>
</g>
</g>
<!-- Case&#45;&gt;Suspect Node -->
<g id="${uniqueid}_edge4" class="edge"><title>Case:e&#45;&gt;Suspect Node:w</title>
<path fill="none" stroke="black" d="M170.593,-116C193.697,-116 183.948,-80.4043 196.785,-69.2806"/>
<polygon fill="black" stroke="black" points="198.22,-72.4915 206.593,-66 195.999,-65.853 198.22,-72.4915"/>
</g>
<!-- Clear Node
Warning -->
<g id="${uniqueid}_node4" class="node"><title>Clear Node
Warning</title>
<g id="a_${uniqueid}_node4"><a xlink:href="#1431553617671" xlink:title="com.watch4net.alerting.action.SNMPTrapAction">
<ellipse fill="#4daf4a" stroke="black" cx="528.335" cy="-81" rx="65.1077" ry="26.7407"/>
<text text-anchor="middle" x="528.335" y="-84.8" font-family="Times,serif" font-size="14.00" fill="white">Clear Node</text>
<text text-anchor="middle" x="528.335" y="-69.8" font-family="Times,serif" font-size="14.00" fill="white">Warning</text>
</a>
</g>
</g>
<!-- Health -->
<g id="${uniqueid}_node5" class="node"><title>Health</title>
<g id="a_${uniqueid}_node5"><a xlink:href="#4856716127614740" xlink:title="com.watch4net.alerting.operation.FilteredEntryPoint">
<ellipse fill="#984ea3" stroke="black" cx="40.2964" cy="-116" rx="40.0939" ry="18"/>
<text text-anchor="middle" x="40.2964" y="-112.3" font-family="Times,serif" font-size="14.00" fill="white">Health</text>
</a>
</g>
</g>
<!-- Health&#45;&gt;Case -->
<g id="${uniqueid}_edge5" class="edge"><title>Health:e&#45;&gt;Case:w</title>
<path fill="none" stroke="black" d="M80.5928,-116C92.5928,-116 97.8428,-116 106.468,-116"/>
<polygon fill="black" stroke="black" points="106.593,-119.5 116.593,-116 106.593,-112.5 106.593,-119.5"/>
</g>
<!-- Set Node Warning -->
<g id="${uniqueid}_node7" class="node"><title>Set Node Warning</title>
<g id="a_${uniqueid}_node7"><a xlink:href="#4856716127689839" xlink:title="com.watch4net.alerting.action.SNMPTrapAction">
<ellipse fill="#4daf4a" stroke="black" cx="528.335" cy="-18" rx="89.0842" ry="18"/>
<text text-anchor="middle" x="528.335" y="-14.3" font-family="Times,serif" font-size="14.00" fill="white">Set Node Warning</text>
</a>
</g>
</g>
<!-- Suspect Node&#45;&gt;Clear Node
Warning -->
<g id="${uniqueid}_edge6" class="edge"><title>Suspect Node:ne&#45;&gt;Clear Node
Warning:w</title>
<path fill="none" stroke="black" d="M318.943,-81C319.936,-81.9938 318.803,-83.1782 319.943,-84 349.995,-105.66 366.26,-84.9402 403.293,-84 425.865,-83.4269 433.841,-81.6232 452.313,-81.1273"/>
<polygon fill="black" stroke="black" points="452.38,-84.6268 462.335,-81 452.291,-77.6274 452.38,-84.6268"/>
<text text-anchor="middle" x="299.943" y="-84.8" font-family="Times,serif" font-size="14.00">false</text>
</g>
<!-- Suspect Node&#45;&gt;Set Node Warning -->
<g id="${uniqueid}_edge7" class="edge"><title>Suspect Node:se&#45;&gt;Set Node Warning:w</title>
<path fill="none" stroke="black" d="M320.943,-51C357.067,-14.8761 381.391,-17.4602 429.09,-17.9434"/>
<polygon fill="black" stroke="black" points="429.273,-21.4444 439.293,-18 429.312,-14.4445 429.273,-21.4444"/>
<text text-anchor="middle" x="305.443" y="-39.8" font-family="Times,serif" font-size="14.00">true</text>
</g>
</g>
</svg>
