<?xml version="1.0" encoding="UTF-8" standalone="no"?>
<!DOCTYPE svg PUBLIC "-//W3C//DTD SVG 1.1//EN"
 "http://www.w3.org/Graphics/SVG/1.1/DTD/svg11.dtd">
<!-- Generated by graphviz version 2.38.0 (20140413.2041)
 -->
<!-- Title: Brocade FC Switch Alert Definitions/Threshold/Brocade&#45;Switch&#45;Port/Invalid CRC Pages: 1 -->
<svg width="936pt" height="460pt"
 viewBox="0.00 0.00 936.38 460.00" xmlns="http://www.w3.org/2000/svg" xmlns:xlink="http://www.w3.org/1999/xlink">
<g id="${uniqueid}" class="graph" transform="scale(1 1) rotate(0) translate(4 456)">
<title>Brocade FC Switch Alert Definitions/Threshold/Brocade&#45;Switch&#45;Port/Invalid CRC</title>
<polygon fill="white" stroke="none" points="-4,4 -4,-456 932.382,-456 932.382,4 -4,4"/>
<!-- CRCErrors_CRIT
Threshold check -->
<g id="${uniqueid}_node1" class="node"><title>CRCErrors_CRIT
Threshold check</title>
<g id="a_${uniqueid}_node1"><a xlink:href="#1395380752526" xlink:title="com.watch4net.alerting.operation.comparator.ConstantComparatorOperation">
<polygon fill="#ff7f00" stroke="black" points="524.078,-452 384.078,-414 524.078,-376 664.078,-414 524.078,-452"/>
<text text-anchor="middle" x="524.078" y="-417.8" font-family="Times,serif" font-size="14.00" fill="white">CRCErrors_CRIT</text>
<text text-anchor="middle" x="524.078" y="-402.8" font-family="Times,serif" font-size="14.00" fill="white">Threshold check</text>
</a>
</g>
</g>
<!-- Invalid_CRC_6_
CRIT Threshold
check -->
<g id="${uniqueid}_node8" class="node"><title>Invalid_CRC_6_
CRIT Threshold
check</title>
<g id="a_${uniqueid}_node8"><a xlink:href="#1395380752542" xlink:title="com.watch4net.alerting.action.SNMPTrapAction">
<ellipse fill="#4daf4a" stroke="black" cx="823.73" cy="-414" rx="92.7622" ry="37.4533"/>
<text text-anchor="middle" x="823.73" y="-425.3" font-family="Times,serif" font-size="14.00" fill="white">Invalid_CRC_6_</text>
<text text-anchor="middle" x="823.73" y="-410.3" font-family="Times,serif" font-size="14.00" fill="white">CRIT Threshold</text>
<text text-anchor="middle" x="823.73" y="-395.3" font-family="Times,serif" font-size="14.00" fill="white">check</text>
</a>
</g>
</g>
<!-- CRCErrors_CRIT
Threshold check&#45;&gt;Invalid_CRC_6_
CRIT Threshold
check -->
<g id="${uniqueid}_edge1" class="edge"><title>CRCErrors_CRIT
Threshold check:e&#45;&gt;Invalid_CRC_6_
CRIT Threshold
check:w</title>
<path fill="none" stroke="black" d="M665.078,-414C690.108,-414 698.786,-414 719.6,-414"/>
<polygon fill="black" stroke="black" points="719.73,-417.5 729.73,-414 719.73,-410.5 719.73,-417.5"/>
<text text-anchor="middle" x="680.578" y="-402.8" font-family="Times,serif" font-size="14.00">true</text>
</g>
<!-- CRCErrors_FATAL
Threshold check -->
<g id="${uniqueid}_node2" class="node"><title>CRCErrors_FATAL
Threshold check</title>
<g id="a_${uniqueid}_node2"><a xlink:href="#1395380752495" xlink:title="com.watch4net.alerting.operation.comparator.ConstantComparatorOperation">
<polygon fill="#ff7f00" stroke="black" points="524.078,-358 374.078,-320 524.078,-282 674.078,-320 524.078,-358"/>
<text text-anchor="middle" x="524.078" y="-323.8" font-family="Times,serif" font-size="14.00" fill="white">CRCErrors_FATAL</text>
<text text-anchor="middle" x="524.078" y="-308.8" font-family="Times,serif" font-size="14.00" fill="white">Threshold check</text>
</a>
</g>
</g>
<!-- Invalid_CRC_6_
FATAL Threshold
check -->
<g id="${uniqueid}_node9" class="node"><title>Invalid_CRC_6_
FATAL Threshold
check</title>
<g id="a_${uniqueid}_node9"><a xlink:href="#1395380752511" xlink:title="com.watch4net.alerting.action.SNMPTrapAction">
<ellipse fill="#4daf4a" stroke="black" cx="823.73" cy="-320" rx="98.0761" ry="37.4533"/>
<text text-anchor="middle" x="823.73" y="-331.3" font-family="Times,serif" font-size="14.00" fill="white">Invalid_CRC_6_</text>
<text text-anchor="middle" x="823.73" y="-316.3" font-family="Times,serif" font-size="14.00" fill="white">FATAL Threshold</text>
<text text-anchor="middle" x="823.73" y="-301.3" font-family="Times,serif" font-size="14.00" fill="white">check</text>
</a>
</g>
</g>
<!-- CRCErrors_FATAL
Threshold check&#45;&gt;Invalid_CRC_6_
FATAL Threshold
check -->
<g id="${uniqueid}_edge2" class="edge"><title>CRCErrors_FATAL
Threshold check:e&#45;&gt;Invalid_CRC_6_
FATAL Threshold
check:w</title>
<path fill="none" stroke="black" d="M675.078,-320C693.353,-320 700.277,-320 714.65,-320"/>
<polygon fill="black" stroke="black" points="714.73,-323.5 724.73,-320 714.73,-316.5 714.73,-323.5"/>
<text text-anchor="middle" x="690.578" y="-308.8" font-family="Times,serif" font-size="14.00">true</text>
</g>
<!-- CRCErrors_HARM
Threshold check -->
<g id="${uniqueid}_node3" class="node"><title>CRCErrors_HARM
Threshold check</title>
<g id="a_${uniqueid}_node3"><a xlink:href="#1395380752620" xlink:title="com.watch4net.alerting.operation.comparator.ConstantComparatorOperation">
<polygon fill="#ff7f00" stroke="black" points="524.078,-264 372.078,-226 524.078,-188 676.078,-226 524.078,-264"/>
<text text-anchor="middle" x="524.078" y="-229.8" font-family="Times,serif" font-size="14.00" fill="white">CRCErrors_HARM</text>
<text text-anchor="middle" x="524.078" y="-214.8" font-family="Times,serif" font-size="14.00" fill="white">Threshold check</text>
</a>
</g>
</g>
<!-- Invalid_CRC_6_
HARM Threshold
check -->
<g id="${uniqueid}_node10" class="node"><title>Invalid_CRC_6_
HARM Threshold
check</title>
<g id="a_${uniqueid}_node10"><a xlink:href="#1395380752635" xlink:title="com.watch4net.alerting.action.SNMPTrapAction">
<ellipse fill="#4daf4a" stroke="black" cx="823.73" cy="-226" rx="99.9045" ry="37.4533"/>
<text text-anchor="middle" x="823.73" y="-237.3" font-family="Times,serif" font-size="14.00" fill="white">Invalid_CRC_6_</text>
<text text-anchor="middle" x="823.73" y="-222.3" font-family="Times,serif" font-size="14.00" fill="white">HARM Threshold</text>
<text text-anchor="middle" x="823.73" y="-207.3" font-family="Times,serif" font-size="14.00" fill="white">check</text>
</a>
</g>
</g>
<!-- CRCErrors_HARM
Threshold check&#45;&gt;Invalid_CRC_6_
HARM Threshold
check -->
<g id="${uniqueid}_edge3" class="edge"><title>CRCErrors_HARM
Threshold check:e&#45;&gt;Invalid_CRC_6_
HARM Threshold
check:w</title>
<path fill="none" stroke="black" d="M677.078,-226C693.564,-226 700.003,-226 712.721,-226"/>
<polygon fill="black" stroke="black" points="712.73,-229.5 722.73,-226 712.73,-222.5 712.73,-229.5"/>
<text text-anchor="middle" x="692.578" y="-214.8" font-family="Times,serif" font-size="14.00">true</text>
</g>
<!-- CRCErrors_MINOR
Threshold check -->
<g id="${uniqueid}_node4" class="node"><title>CRCErrors_MINOR
Threshold check</title>
<g id="a_${uniqueid}_node4"><a xlink:href="#1395380752589" xlink:title="com.watch4net.alerting.operation.comparator.ConstantComparatorOperation">
<polygon fill="#ff7f00" stroke="black" points="524.078,-170 365.078,-132 524.078,-94 683.078,-132 524.078,-170"/>
<text text-anchor="middle" x="524.078" y="-135.8" font-family="Times,serif" font-size="14.00" fill="white">CRCErrors_MINOR</text>
<text text-anchor="middle" x="524.078" y="-120.8" font-family="Times,serif" font-size="14.00" fill="white">Threshold check</text>
</a>
</g>
</g>
<!-- Invalid_CRC_6_
MINOR Threshold
check -->
<g id="${uniqueid}_node11" class="node"><title>Invalid_CRC_6_
MINOR Threshold
check</title>
<g id="a_${uniqueid}_node11"><a xlink:href="#1395380752604" xlink:title="com.watch4net.alerting.action.SNMPTrapAction">
<ellipse fill="#4daf4a" stroke="black" cx="823.73" cy="-132" rx="104.804" ry="37.4533"/>
<text text-anchor="middle" x="823.73" y="-143.3" font-family="Times,serif" font-size="14.00" fill="white">Invalid_CRC_6_</text>
<text text-anchor="middle" x="823.73" y="-128.3" font-family="Times,serif" font-size="14.00" fill="white">MINOR Threshold</text>
<text text-anchor="middle" x="823.73" y="-113.3" font-family="Times,serif" font-size="14.00" fill="white">check</text>
</a>
</g>
</g>
<!-- CRCErrors_MINOR
Threshold check&#45;&gt;Invalid_CRC_6_
MINOR Threshold
check -->
<g id="${uniqueid}_edge4" class="edge"><title>CRCErrors_MINOR
Threshold check:e&#45;&gt;Invalid_CRC_6_
MINOR Threshold
check:w</title>
<path fill="none" stroke="black" d="M683.078,-132C695.078,-132 700.328,-132 708.953,-132"/>
<polygon fill="black" stroke="black" points="709.078,-135.5 719.078,-132 709.078,-128.5 709.078,-135.5"/>
<text text-anchor="middle" x="698.578" y="-120.8" font-family="Times,serif" font-size="14.00">true</text>
</g>
<!-- CRCErrors_WARN
Threshold check -->
<g id="${uniqueid}_node5" class="node"><title>CRCErrors_WARN
Threshold check</title>
<g id="a_${uniqueid}_node5"><a xlink:href="#1395380752557" xlink:title="com.watch4net.alerting.operation.comparator.ConstantComparatorOperation">
<polygon fill="#ff7f00" stroke="black" points="524.078,-76 372.078,-38 524.078,-7.10543e-15 676.078,-38 524.078,-76"/>
<text text-anchor="middle" x="524.078" y="-41.8" font-family="Times,serif" font-size="14.00" fill="white">CRCErrors_WARN</text>
<text text-anchor="middle" x="524.078" y="-26.8" font-family="Times,serif" font-size="14.00" fill="white">Threshold check</text>
</a>
</g>
</g>
<!-- Invalid_CRC_6_
WARN Threshold
check -->
<g id="${uniqueid}_node12" class="node"><title>Invalid_CRC_6_
WARN Threshold
check</title>
<g id="a_${uniqueid}_node12"><a xlink:href="#1395380752573" xlink:title="com.watch4net.alerting.action.SNMPTrapAction">
<ellipse fill="#4daf4a" stroke="black" cx="823.73" cy="-38" rx="98.9899" ry="37.4533"/>
<text text-anchor="middle" x="823.73" y="-49.3" font-family="Times,serif" font-size="14.00" fill="white">Invalid_CRC_6_</text>
<text text-anchor="middle" x="823.73" y="-34.3" font-family="Times,serif" font-size="14.00" fill="white">WARN Threshold</text>
<text text-anchor="middle" x="823.73" y="-19.3" font-family="Times,serif" font-size="14.00" fill="white">check</text>
</a>
</g>
</g>
<!-- CRCErrors_WARN
Threshold check&#45;&gt;Invalid_CRC_6_
WARN Threshold
check -->
<g id="${uniqueid}_edge5" class="edge"><title>CRCErrors_WARN
Threshold check:e&#45;&gt;Invalid_CRC_6_
WARN Threshold
check:w</title>
<path fill="none" stroke="black" d="M677.078,-38C693.925,-38 700.505,-38 713.502,-38"/>
<polygon fill="black" stroke="black" points="713.73,-41.5001 723.73,-38 713.73,-34.5001 713.73,-41.5001"/>
<text text-anchor="middle" x="692.578" y="-26.8" font-family="Times,serif" font-size="14.00">true</text>
</g>
<!-- Invalid CRC
Entry -->
<g id="${uniqueid}_node6" class="node"><title>Invalid CRC
Entry</title>
<g id="a_${uniqueid}_node6"><a xlink:href="#1395380752479" xlink:title="com.watch4net.alerting.operation.FilteredEntryPoint">
<ellipse fill="#984ea3" stroke="black" cx="73.5391" cy="-226" rx="73.5782" ry="26.7407"/>
<text text-anchor="middle" x="73.5391" y="-229.8" font-family="Times,serif" font-size="14.00" fill="white">Invalid CRC</text>
<text text-anchor="middle" x="73.5391" y="-214.8" font-family="Times,serif" font-size="14.00" fill="white">Entry</text>
</a>
</g>
</g>
<!-- InvalidCRCs Case -->
<g id="${uniqueid}_node7" class="node"><title>InvalidCRCs Case</title>
<g id="a_${uniqueid}_node7"><a xlink:href="#1426507278094" xlink:title="com.watch4net.alerting.operation.CaseOperation">
<polygon fill="#377eb8" stroke="black" points="329.078,-244 183.078,-244 183.078,-208 329.078,-208 329.078,-244"/>
<text text-anchor="middle" x="256.078" y="-222.3" font-family="Times,serif" font-size="14.00" fill="white">InvalidCRCs Case</text>
</a>
</g>
</g>
<!-- Invalid CRC
Entry&#45;&gt;InvalidCRCs Case -->
<g id="${uniqueid}_edge6" class="edge"><title>Invalid CRC
Entry:e&#45;&gt;InvalidCRCs Case:w</title>
<path fill="none" stroke="black" d="M147.078,-226C159.078,-226 164.328,-226 172.953,-226"/>
<polygon fill="black" stroke="black" points="173.078,-229.5 183.078,-226 173.078,-222.5 173.078,-229.5"/>
</g>
<!-- InvalidCRCs Case&#45;&gt;CRCErrors_CRIT
Threshold check -->
<g id="${uniqueid}_edge7" class="edge"><title>InvalidCRCs Case:e&#45;&gt;CRCErrors_CRIT
Threshold check:w</title>
<path fill="none" stroke="black" d="M329.078,-226C412.277,-226 306.063,-398.191 372.985,-412.989"/>
<polygon fill="black" stroke="black" points="372.779,-416.485 383.078,-414 373.477,-409.52 372.779,-416.485"/>
</g>
<!-- InvalidCRCs Case&#45;&gt;CRCErrors_FATAL
Threshold check -->
<g id="${uniqueid}_edge8" class="edge"><title>InvalidCRCs Case:e&#45;&gt;CRCErrors_FATAL
Threshold check:w</title>
<path fill="none" stroke="black" d="M329.078,-226C371.242,-226 334.547,-304.538 363.157,-318.037"/>
<polygon fill="black" stroke="black" points="362.589,-321.492 373.078,-320 363.948,-314.625 362.589,-321.492"/>
</g>
<!-- InvalidCRCs Case&#45;&gt;CRCErrors_HARM
Threshold check -->
<g id="${uniqueid}_edge9" class="edge"><title>InvalidCRCs Case:e&#45;&gt;CRCErrors_HARM
Threshold check:w</title>
<path fill="none" stroke="black" d="M329.078,-226C343.807,-226 349.82,-226 360.872,-226"/>
<polygon fill="black" stroke="black" points="361.078,-229.5 371.078,-226 361.078,-222.5 361.078,-229.5"/>
</g>
<!-- InvalidCRCs Case&#45;&gt;CRCErrors_MINOR
Threshold check -->
<g id="${uniqueid}_edge10" class="edge"><title>InvalidCRCs Case:e&#45;&gt;CRCErrors_MINOR
Threshold check:w</title>
<path fill="none" stroke="black" d="M329.078,-226C369.796,-226 329.157,-148.132 355.256,-134.14"/>
<polygon fill="black" stroke="black" points="356.052,-137.549 365.078,-132 354.562,-130.709 356.052,-137.549"/>
</g>
<!-- InvalidCRCs Case&#45;&gt;CRCErrors_WARN
Threshold check -->
<g id="${uniqueid}_edge11" class="edge"><title>InvalidCRCs Case:e&#45;&gt;CRCErrors_WARN
Threshold check:w</title>
<path fill="none" stroke="black" d="M329.078,-226C410.847,-226 296.64,-54.5112 360.802,-39.1041"/>
<polygon fill="black" stroke="black" points="361.509,-42.5483 371.078,-38 360.762,-35.5883 361.509,-42.5483"/>
</g>
</g>
</svg>
