<?xml version="1.0" encoding="UTF-8" standalone="no"?>
<!DOCTYPE svg PUBLIC "-//W3C//DTD SVG 1.1//EN"
 "http://www.w3.org/Graphics/SVG/1.1/DTD/svg11.dtd">
<!-- Generated by graphviz version 2.38.0 (20140413.2041)
 -->
<!-- Title: VMware vCenter Alert Definitions/ESX/High Swap Out Rate Pages: 1 -->
<svg width="912pt" height="278pt"
 viewBox="0.00 0.00 912.22 277.74" xmlns="http://www.w3.org/2000/svg" xmlns:xlink="http://www.w3.org/1999/xlink">
<g id="${uniqueid}" class="graph" transform="scale(1 1) rotate(0) translate(4 273.74)">
<title>VMware vCenter Alert Definitions/ESX/High Swap Out Rate</title>
<polygon fill="white" stroke="none" points="-4,4 -4,-273.74 908.222,-273.74 908.222,4 -4,4"/>
<!-- ESXHSO_Case
Statement -->
<g id="${uniqueid}_node1" class="node"><title>ESXHSO_Case
Statement</title>
<g id="a_${uniqueid}_node1"><a xlink:href="#1413925500608" xlink:title="com.watch4net.alerting.operation.CaseOperation">
<polygon fill="#377eb8" stroke="black" points="347.505,-153.87 225.505,-153.87 225.505,-115.87 347.505,-115.87 347.505,-153.87"/>
<text text-anchor="middle" x="286.505" y="-138.67" font-family="Times,serif" font-size="14.00" fill="white">ESXHSO_Case</text>
<text text-anchor="middle" x="286.505" y="-123.67" font-family="Times,serif" font-size="14.00" fill="white">Statement</text>
</a>
</g>
</g>
<!-- Swap_Out_Rate_
Check_Critical -->
<g id="${uniqueid}_node5" class="node"><title>Swap_Out_Rate_
Check_Critical</title>
<g id="a_${uniqueid}_node5"><a xlink:href="#2304144973299013" xlink:title="com.watch4net.alerting.operation.comparator.ConstantComparatorOperation">
<polygon fill="#ff7f00" stroke="black" points="520.505,-238.87 383.505,-200.87 520.505,-162.87 657.505,-200.87 520.505,-238.87"/>
<text text-anchor="middle" x="520.505" y="-204.67" font-family="Times,serif" font-size="14.00" fill="white">Swap_Out_Rate_</text>
<text text-anchor="middle" x="520.505" y="-189.67" font-family="Times,serif" font-size="14.00" fill="white">Check_Critical</text>
</a>
</g>
</g>
<!-- ESXHSO_Case
Statement&#45;&gt;Swap_Out_Rate_
Check_Critical -->
<g id="${uniqueid}_edge1" class="edge"><title>ESXHSO_Case
Statement:e&#45;&gt;Swap_Out_Rate_
Check_Critical:w</title>
<path fill="none" stroke="black" d="M347.505,-134.87C376.741,-134.87 356.794,-185.401 373.735,-198.034"/>
<polygon fill="black" stroke="black" points="372.925,-201.444 383.505,-200.87 374.877,-194.721 372.925,-201.444"/>
</g>
<!-- Swap_Out_Rate_
Check_Major -->
<g id="${uniqueid}_node6" class="node"><title>Swap_Out_Rate_
Check_Major</title>
<g id="a_${uniqueid}_node6"><a xlink:href="#2304144973333857" xlink:title="com.watch4net.alerting.operation.comparator.ConstantComparatorOperation">
<polygon fill="#ff7f00" stroke="black" points="520.505,-106.87 383.505,-68.8701 520.505,-30.8701 657.505,-68.8701 520.505,-106.87"/>
<text text-anchor="middle" x="520.505" y="-72.6701" font-family="Times,serif" font-size="14.00" fill="white">Swap_Out_Rate_</text>
<text text-anchor="middle" x="520.505" y="-57.6701" font-family="Times,serif" font-size="14.00" fill="white">Check_Major</text>
</a>
</g>
</g>
<!-- ESXHSO_Case
Statement&#45;&gt;Swap_Out_Rate_
Check_Major -->
<g id="${uniqueid}_edge2" class="edge"><title>ESXHSO_Case
Statement:e&#45;&gt;Swap_Out_Rate_
Check_Major:w</title>
<path fill="none" stroke="black" d="M347.505,-134.87C376.741,-134.87 356.794,-84.3388 373.735,-71.706"/>
<polygon fill="black" stroke="black" points="374.877,-75.0191 383.505,-68.8701 372.925,-68.2966 374.877,-75.0191"/>
</g>
<!-- ESXHSO_Critical_
Clear -->
<g id="${uniqueid}_node2" class="node"><title>ESXHSO_Critical_
Clear</title>
<g id="a_${uniqueid}_node2"><a xlink:href="#2304144973325557" xlink:title="com.watch4net.alerting.action.SNMPTrapAction">
<ellipse fill="#4daf4a" stroke="black" cx="798.864" cy="-242.87" rx="105.218" ry="26.7407"/>
<text text-anchor="middle" x="798.864" y="-246.67" font-family="Times,serif" font-size="14.00" fill="white">ESXHSO_Critical_</text>
<text text-anchor="middle" x="798.864" y="-231.67" font-family="Times,serif" font-size="14.00" fill="white">Clear</text>
</a>
</g>
</g>
<!-- ESXHSO_Major_
Clear -->
<g id="${uniqueid}_node3" class="node"><title>ESXHSO_Major_
Clear</title>
<g id="a_${uniqueid}_node3"><a xlink:href="#2304144973354072" xlink:title="com.watch4net.alerting.action.SNMPTrapAction">
<ellipse fill="#4daf4a" stroke="black" cx="798.864" cy="-98.8701" rx="96.7474" ry="26.7407"/>
<text text-anchor="middle" x="798.864" y="-102.67" font-family="Times,serif" font-size="14.00" fill="white">ESXHSO_Major_</text>
<text text-anchor="middle" x="798.864" y="-87.6701" font-family="Times,serif" font-size="14.00" fill="white">Clear</text>
</a>
</g>
</g>
<!-- ESX_Swap_Out_
Rate_Filter -->
<g id="${uniqueid}_node4" class="node"><title>ESX_Swap_Out_
Rate_Filter</title>
<g id="a_${uniqueid}_node4"><a xlink:href="#2304144973249273" xlink:title="com.watch4net.alerting.operation.FilteredEntryPoint">
<ellipse fill="#984ea3" stroke="black" cx="94.7523" cy="-134.87" rx="94.5053" ry="26.7407"/>
<text text-anchor="middle" x="94.7523" y="-138.67" font-family="Times,serif" font-size="14.00" fill="white">ESX_Swap_Out_</text>
<text text-anchor="middle" x="94.7523" y="-123.67" font-family="Times,serif" font-size="14.00" fill="white">Rate_Filter</text>
</a>
</g>
</g>
<!-- ESX_Swap_Out_
Rate_Filter&#45;&gt;ESXHSO_Case
Statement -->
<g id="${uniqueid}_edge3" class="edge"><title>ESX_Swap_Out_
Rate_Filter:e&#45;&gt;ESXHSO_Case
Statement:w</title>
<path fill="none" stroke="black" d="M189.505,-134.87C201.505,-134.87 206.755,-134.87 215.38,-134.87"/>
<polygon fill="black" stroke="black" points="215.505,-138.37 225.505,-134.87 215.505,-131.37 215.505,-138.37"/>
</g>
<!-- Swap_Out_Rate_
Check_Critical&#45;&gt;ESXHSO_Critical_
Clear -->
<g id="${uniqueid}_edge4" class="edge"><title>Swap_Out_Rate_
Check_Critical:ne&#45;&gt;ESXHSO_Critical_
Clear:w</title>
<path fill="none" stroke="black" d="M549.505,-230.87C552.038,-233.404 547.852,-236.461 550.505,-238.87 595.002,-279.273 626.342,-246.864 683.346,-243.198"/>
<polygon fill="black" stroke="black" points="683.623,-246.691 693.505,-242.87 683.397,-239.695 683.623,-246.691"/>
<text text-anchor="middle" x="532.505" y="-234.67" font-family="Times,serif" font-size="14.00">false</text>
</g>
<!-- Swap_Out_Rate_
Critical -->
<g id="${uniqueid}_node7" class="node"><title>Swap_Out_Rate_
Critical</title>
<g id="a_${uniqueid}_node7"><a xlink:href="#2304144973313120" xlink:title="com.watch4net.alerting.action.SNMPTrapAction">
<ellipse fill="#4daf4a" stroke="black" cx="798.864" cy="-170.87" rx="96.7474" ry="26.7407"/>
<text text-anchor="middle" x="798.864" y="-174.67" font-family="Times,serif" font-size="14.00" fill="white">Swap_Out_Rate_</text>
<text text-anchor="middle" x="798.864" y="-159.67" font-family="Times,serif" font-size="14.00" fill="white">Critical</text>
</a>
</g>
</g>
<!-- Swap_Out_Rate_
Check_Critical&#45;&gt;Swap_Out_Rate_
Critical -->
<g id="${uniqueid}_edge5" class="edge"><title>Swap_Out_Rate_
Check_Critical:se&#45;&gt;Swap_Out_Rate_
Critical:w</title>
<path fill="none" stroke="black" d="M551.505,-170.87C595.968,-126.406 630.651,-166.181 690.609,-170.499"/>
<polygon fill="black" stroke="black" points="690.744,-174.006 700.864,-170.87 690.997,-167.011 690.744,-174.006"/>
<text text-anchor="middle" x="536.005" y="-159.67" font-family="Times,serif" font-size="14.00">true</text>
</g>
<!-- Swap_Out_Rate_
Check_Major&#45;&gt;ESXHSO_Major_
Clear -->
<g id="${uniqueid}_edge6" class="edge"><title>Swap_Out_Rate_
Check_Major:ne&#45;&gt;ESXHSO_Major_
Clear:w</title>
<path fill="none" stroke="black" d="M549.505,-98.8701C552.038,-101.404 547.818,-104.499 550.505,-106.87 586.156,-138.342 610.147,-111.202 657.505,-106.87 673.055,-105.447 678.912,-101.212 690.565,-99.5501"/>
<polygon fill="black" stroke="black" points="691.116,-103.021 700.864,-98.8701 690.655,-96.0367 691.116,-103.021"/>
<text text-anchor="middle" x="532.505" y="-102.67" font-family="Times,serif" font-size="14.00">false</text>
</g>
<!-- Swap_Out_Rate_
Major -->
<g id="${uniqueid}_node8" class="node"><title>Swap_Out_Rate_
Major</title>
<g id="a_${uniqueid}_node8"><a xlink:href="#2304144973343678" xlink:title="com.watch4net.alerting.action.SNMPTrapAction">
<ellipse fill="#4daf4a" stroke="black" cx="798.864" cy="-26.8701" rx="96.7474" ry="26.7407"/>
<text text-anchor="middle" x="798.864" y="-30.6701" font-family="Times,serif" font-size="14.00" fill="white">Swap_Out_Rate_</text>
<text text-anchor="middle" x="798.864" y="-15.6701" font-family="Times,serif" font-size="14.00" fill="white">Major</text>
</a>
</g>
</g>
<!-- Swap_Out_Rate_
Check_Major&#45;&gt;Swap_Out_Rate_
Major -->
<g id="${uniqueid}_edge7" class="edge"><title>Swap_Out_Rate_
Check_Major:se&#45;&gt;Swap_Out_Rate_
Major:w</title>
<path fill="none" stroke="black" d="M551.505,-38.8701C596.112,5.7369 630.474,-23.3977 690.58,-26.5945"/>
<polygon fill="black" stroke="black" points="690.773,-30.1009 700.864,-26.8701 690.961,-23.1034 690.773,-30.1009"/>
<text text-anchor="middle" x="536.005" y="-27.6701" font-family="Times,serif" font-size="14.00">true</text>
</g>
</g>
</svg>
