<?xml version="1.0" encoding="UTF-8" standalone="no"?>
<!DOCTYPE svg PUBLIC "-//W3C//DTD SVG 1.1//EN"
 "http://www.w3.org/Graphics/SVG/1.1/DTD/svg11.dtd">
<!-- Generated by graphviz version 2.38.0 (20140413.2041)
 -->
<!-- Title: Hitachi Device Manager Alert Definitions/HDS&#45;Port/PrimaryConnectorStatusChanged Pages: 1 -->
<svg width="865pt" height="463pt"
 viewBox="0.00 0.00 865.18 463.35" xmlns="http://www.w3.org/2000/svg" xmlns:xlink="http://www.w3.org/1999/xlink">
<g id="${uniqueid}" class="graph" transform="scale(1 1) rotate(0) translate(4 459.347)">
<title>Hitachi Device Manager Alert Definitions/HDS&#45;Port/PrimaryConnectorStatusChanged</title>
<polygon fill="white" stroke="none" points="-4,4 -4,-459.347 861.181,-459.347 861.181,4 -4,4"/>
<!-- Array_Port_
Status_Case -->
<g id="${uniqueid}_node1" class="node"><title>Array_Port_
Status_Case</title>
<g id="a_${uniqueid}_node1"><a xlink:href="#HDS-Port-Primary-Case-1415394925223" xlink:title="com.watch4net.alerting.operation.CaseOperation">
<polygon fill="#377eb8" stroke="black" points="328.747,-225.87 229.747,-225.87 229.747,-187.87 328.747,-187.87 328.747,-225.87"/>
<text text-anchor="middle" x="279.247" y="-210.67" font-family="Times,serif" font-size="14.00" fill="white">Array_Port_</text>
<text text-anchor="middle" x="279.247" y="-195.67" font-family="Times,serif" font-size="14.00" fill="white">Status_Case</text>
</a>
</g>
</g>
<!-- HDS_Port_
Critical_Status_
check -->
<g id="${uniqueid}_node2" class="node"><title>HDS_Port_
Critical_Status_
check</title>
<g id="a_${uniqueid}_node2"><a xlink:href="#HDS-Port-Primary-2382613691100" xlink:title="com.watch4net.alerting.operation.comparator.ConstantComparatorOperation">
<polygon fill="#ff7f00" stroke="black" points="501.747,-416.87 364.747,-363.87 501.747,-310.87 638.747,-363.87 501.747,-416.87"/>
<text text-anchor="middle" x="501.747" y="-375.17" font-family="Times,serif" font-size="14.00" fill="white">HDS_Port_</text>
<text text-anchor="middle" x="501.747" y="-360.17" font-family="Times,serif" font-size="14.00" fill="white">Critical_Status_</text>
<text text-anchor="middle" x="501.747" y="-345.17" font-family="Times,serif" font-size="14.00" fill="white">check</text>
</a>
</g>
</g>
<!-- Array_Port_
Status_Case&#45;&gt;HDS_Port_
Critical_Status_
check -->
<g id="${uniqueid}_edge1" class="edge"><title>Array_Port_
Status_Case:e&#45;&gt;HDS_Port_
Critical_Status_
check:w</title>
<path fill="none" stroke="black" d="M328.747,-206.87C396.421,-206.87 304.346,-347.168 354.548,-362.513"/>
<polygon fill="black" stroke="black" points="354.373,-366.02 364.747,-363.87 355.296,-359.081 354.373,-366.02"/>
</g>
<!-- HDS_Port_Major_
Status_check -->
<g id="${uniqueid}_node5" class="node"><title>HDS_Port_Major_
Status_check</title>
<g id="a_${uniqueid}_node5"><a xlink:href="#HDS-Port-Primary-2382613691200" xlink:title="com.watch4net.alerting.operation.comparator.ConstantComparatorOperation">
<polygon fill="#ff7f00" stroke="black" points="501.747,-244.87 372.747,-206.87 501.747,-168.87 630.747,-206.87 501.747,-244.87"/>
<text text-anchor="middle" x="501.747" y="-210.67" font-family="Times,serif" font-size="14.00" fill="white">HDS_Port_Major_</text>
<text text-anchor="middle" x="501.747" y="-195.67" font-family="Times,serif" font-size="14.00" fill="white">Status_check</text>
</a>
</g>
</g>
<!-- Array_Port_
Status_Case&#45;&gt;HDS_Port_Major_
Status_check -->
<g id="${uniqueid}_edge2" class="edge"><title>Array_Port_
Status_Case:e&#45;&gt;HDS_Port_Major_
Status_check:w</title>
<path fill="none" stroke="black" d="M328.747,-206.87C343.976,-206.87 350.104,-206.87 361.635,-206.87"/>
<polygon fill="black" stroke="black" points="361.747,-210.37 371.747,-206.87 361.747,-203.37 361.747,-210.37"/>
</g>
<!-- HDS_Port_Minor_
Status_check -->
<g id="${uniqueid}_node8" class="node"><title>HDS_Port_Minor_
Status_check</title>
<g id="a_${uniqueid}_node8"><a xlink:href="#HDS-Port-Primary-2382613691300" xlink:title="com.watch4net.alerting.operation.comparator.ConstantComparatorOperation">
<polygon fill="#ff7f00" stroke="black" points="501.747,-106.87 372.747,-68.8701 501.747,-30.8701 630.747,-68.8701 501.747,-106.87"/>
<text text-anchor="middle" x="501.747" y="-72.6701" font-family="Times,serif" font-size="14.00" fill="white">HDS_Port_Minor_</text>
<text text-anchor="middle" x="501.747" y="-57.6701" font-family="Times,serif" font-size="14.00" fill="white">Status_check</text>
</a>
</g>
</g>
<!-- Array_Port_
Status_Case&#45;&gt;HDS_Port_Minor_
Status_check -->
<g id="${uniqueid}_edge3" class="edge"><title>Array_Port_
Status_Case:e&#45;&gt;HDS_Port_Minor_
Status_check:w</title>
<path fill="none" stroke="black" d="M328.747,-206.87C389.099,-206.87 317.308,-85.0751 361.659,-70.3265"/>
<polygon fill="black" stroke="black" points="362.35,-73.763 371.747,-68.8701 361.35,-66.8349 362.35,-73.763"/>
</g>
<!-- HDS_Port_
Critical_alert_
clear -->
<g id="${uniqueid}_node3" class="node"><title>HDS_Port_
Critical_alert_
clear</title>
<g id="a_${uniqueid}_node3"><a xlink:href="#HDS-Port-Primary-2382613691111" xlink:title="com.watch4net.alerting.action.SNMPTrapAction">
<ellipse fill="#4daf4a" stroke="black" cx="765.964" cy="-417.87" rx="91.4341" ry="37.4533"/>
<text text-anchor="middle" x="765.964" y="-429.17" font-family="Times,serif" font-size="14.00" fill="white">HDS_Port_</text>
<text text-anchor="middle" x="765.964" y="-414.17" font-family="Times,serif" font-size="14.00" fill="white">Critical_alert_</text>
<text text-anchor="middle" x="765.964" y="-399.17" font-family="Times,serif" font-size="14.00" fill="white">clear</text>
</a>
</g>
</g>
<!-- HDS_Port_
Critical_Status_
check&#45;&gt;HDS_Port_
Critical_alert_
clear -->
<g id="${uniqueid}_edge4" class="edge"><title>HDS_Port_
Critical_Status_
check:ne&#45;&gt;HDS_Port_
Critical_alert_
clear:w</title>
<path fill="none" stroke="black" d="M539.747,-402.87C541.953,-405.076 538.472,-414.736 540.747,-416.87 581.638,-455.23 611.514,-422.252 664.564,-418.255"/>
<polygon fill="black" stroke="black" points="664.887,-421.746 674.747,-417.87 664.622,-414.751 664.887,-421.746"/>
<text text-anchor="middle" x="520.747" y="-406.67" font-family="Times,serif" font-size="14.00">false</text>
</g>
<!-- HDS_Port_
Critical_alert_
trap -->
<g id="${uniqueid}_node4" class="node"><title>HDS_Port_
Critical_alert_
trap</title>
<g id="a_${uniqueid}_node4"><a xlink:href="#HDS-Port-Primary-2382613691110" xlink:title="com.watch4net.alerting.action.SNMPTrapAction">
<ellipse fill="#4daf4a" stroke="black" cx="765.964" cy="-324.87" rx="91.4341" ry="37.4533"/>
<text text-anchor="middle" x="765.964" y="-336.17" font-family="Times,serif" font-size="14.00" fill="white">HDS_Port_</text>
<text text-anchor="middle" x="765.964" y="-321.17" font-family="Times,serif" font-size="14.00" fill="white">Critical_alert_</text>
<text text-anchor="middle" x="765.964" y="-306.17" font-family="Times,serif" font-size="14.00" fill="white">trap</text>
</a>
</g>
</g>
<!-- HDS_Port_
Critical_Status_
check&#45;&gt;HDS_Port_
Critical_alert_
trap -->
<g id="${uniqueid}_edge5" class="edge"><title>HDS_Port_
Critical_Status_
check:se&#45;&gt;HDS_Port_
Critical_alert_
trap:w</title>
<path fill="none" stroke="black" d="M541.747,-324.87C581.096,-285.521 611.842,-320.259 664.628,-324.465"/>
<polygon fill="black" stroke="black" points="664.615,-327.967 674.747,-324.87 664.895,-320.973 664.615,-327.967"/>
<text text-anchor="middle" x="526.247" y="-313.67" font-family="Times,serif" font-size="14.00">true</text>
</g>
<!-- HDS_Port_Major_
alert_clear -->
<g id="${uniqueid}_node6" class="node"><title>HDS_Port_Major_
alert_clear</title>
<g id="a_${uniqueid}_node6"><a xlink:href="#HDS-Port-Primary-2382613691211" xlink:title="com.watch4net.alerting.action.SNMPTrapAction">
<ellipse fill="#4daf4a" stroke="black" cx="765.964" cy="-242.87" rx="91.4341" ry="26.7407"/>
<text text-anchor="middle" x="765.964" y="-246.67" font-family="Times,serif" font-size="14.00" fill="white">HDS_Port_Major_</text>
<text text-anchor="middle" x="765.964" y="-231.67" font-family="Times,serif" font-size="14.00" fill="white">alert_clear</text>
</a>
</g>
</g>
<!-- HDS_Port_Major_
Status_check&#45;&gt;HDS_Port_Major_
alert_clear -->
<g id="${uniqueid}_edge6" class="edge"><title>HDS_Port_Major_
Status_check:ne&#45;&gt;HDS_Port_Major_
alert_clear:w</title>
<path fill="none" stroke="black" d="M530.747,-236.87C533.281,-239.404 529.061,-242.499 531.747,-244.87 564.733,-273.989 586.759,-245.869 630.747,-244.87 646.496,-244.512 652.714,-243.435 664.743,-243.028"/>
<polygon fill="black" stroke="black" points="664.804,-246.528 674.747,-242.87 664.693,-239.529 664.804,-246.528"/>
<text text-anchor="middle" x="511.747" y="-240.67" font-family="Times,serif" font-size="14.00">false</text>
</g>
<!-- HDS_Port_Major_
alert_trap -->
<g id="${uniqueid}_node7" class="node"><title>HDS_Port_Major_
alert_trap</title>
<g id="a_${uniqueid}_node7"><a xlink:href="#HDS-Port-Primary-2382613691210" xlink:title="com.watch4net.alerting.action.SNMPTrapAction">
<ellipse fill="#4daf4a" stroke="black" cx="765.964" cy="-170.87" rx="91.4341" ry="26.7407"/>
<text text-anchor="middle" x="765.964" y="-174.67" font-family="Times,serif" font-size="14.00" fill="white">HDS_Port_Major_</text>
<text text-anchor="middle" x="765.964" y="-159.67" font-family="Times,serif" font-size="14.00" fill="white">alert_trap</text>
</a>
</g>
</g>
<!-- HDS_Port_Major_
Status_check&#45;&gt;HDS_Port_Major_
alert_trap -->
<g id="${uniqueid}_edge7" class="edge"><title>HDS_Port_Major_
Status_check:se&#45;&gt;HDS_Port_Major_
alert_trap:w</title>
<path fill="none" stroke="black" d="M532.747,-176.87C574.971,-134.647 607.811,-166.89 664.638,-170.543"/>
<polygon fill="black" stroke="black" points="664.639,-174.045 674.747,-170.87 664.866,-167.049 664.639,-174.045"/>
<text text-anchor="middle" x="517.247" y="-165.67" font-family="Times,serif" font-size="14.00">true</text>
</g>
<!-- HDS_Port_Minor_
alert_clear -->
<g id="${uniqueid}_node9" class="node"><title>HDS_Port_Minor_
alert_clear</title>
<g id="a_${uniqueid}_node9"><a xlink:href="#HDS-Port-Primary-2382613691311" xlink:title="com.watch4net.alerting.action.SNMPTrapAction">
<ellipse fill="#4daf4a" stroke="black" cx="765.964" cy="-98.8701" rx="91.4341" ry="26.7407"/>
<text text-anchor="middle" x="765.964" y="-102.67" font-family="Times,serif" font-size="14.00" fill="white">HDS_Port_Minor_</text>
<text text-anchor="middle" x="765.964" y="-87.6701" font-family="Times,serif" font-size="14.00" fill="white">alert_clear</text>
</a>
</g>
</g>
<!-- HDS_Port_Minor_
Status_check&#45;&gt;HDS_Port_Minor_
alert_clear -->
<g id="${uniqueid}_edge8" class="edge"><title>HDS_Port_Minor_
Status_check:ne&#45;&gt;HDS_Port_Minor_
alert_clear:w</title>
<path fill="none" stroke="black" d="M530.747,-98.8701C533.281,-101.404 529.061,-104.499 531.747,-106.87 564.733,-135.989 586.925,-110.822 630.747,-106.87 646.677,-105.434 652.59,-101.129 664.649,-99.502"/>
<polygon fill="black" stroke="black" points="664.985,-102.988 674.747,-98.8701 664.548,-96.0016 664.985,-102.988"/>
<text text-anchor="middle" x="511.747" y="-102.67" font-family="Times,serif" font-size="14.00">false</text>
</g>
<!-- HDS_Port_Minor_
alert_trap -->
<g id="${uniqueid}_node10" class="node"><title>HDS_Port_Minor_
alert_trap</title>
<g id="a_${uniqueid}_node10"><a xlink:href="#HDS-Port-Primary-2382613691310" xlink:title="com.watch4net.alerting.action.SNMPTrapAction">
<ellipse fill="#4daf4a" stroke="black" cx="765.964" cy="-26.8701" rx="91.4341" ry="26.7407"/>
<text text-anchor="middle" x="765.964" y="-30.6701" font-family="Times,serif" font-size="14.00" fill="white">HDS_Port_Minor_</text>
<text text-anchor="middle" x="765.964" y="-15.6701" font-family="Times,serif" font-size="14.00" fill="white">alert_trap</text>
</a>
</g>
</g>
<!-- HDS_Port_Minor_
Status_check&#45;&gt;HDS_Port_Minor_
alert_trap -->
<g id="${uniqueid}_edge9" class="edge"><title>HDS_Port_Minor_
Status_check:se&#45;&gt;HDS_Port_Minor_
alert_trap:w</title>
<path fill="none" stroke="black" d="M532.747,-38.8701C575.083,3.4661 607.673,-23.5162 664.614,-26.594"/>
<polygon fill="black" stroke="black" points="664.656,-30.0963 674.747,-26.8701 664.846,-23.0989 664.656,-30.0963"/>
<text text-anchor="middle" x="517.247" y="-27.6701" font-family="Times,serif" font-size="14.00">true</text>
</g>
<!-- HDS_Port_Status_
Entry -->
<g id="${uniqueid}_node11" class="node"><title>HDS_Port_Status_
Entry</title>
<g id="a_${uniqueid}_node11"><a xlink:href="#HDS-Port-Primary-2382613691000" xlink:title="com.watch4net.alerting.operation.FilteredEntryPoint">
<ellipse fill="#984ea3" stroke="black" cx="96.8736" cy="-206.87" rx="96.7474" ry="26.7407"/>
<text text-anchor="middle" x="96.8736" y="-210.67" font-family="Times,serif" font-size="14.00" fill="white">HDS_Port_Status_</text>
<text text-anchor="middle" x="96.8736" y="-195.67" font-family="Times,serif" font-size="14.00" fill="white">Entry</text>
</a>
</g>
</g>
<!-- HDS_Port_Status_
Entry&#45;&gt;Array_Port_
Status_Case -->
<g id="${uniqueid}_edge10" class="edge"><title>HDS_Port_Status_
Entry:e&#45;&gt;Array_Port_
Status_Case:w</title>
<path fill="none" stroke="black" d="M193.747,-206.87C205.747,-206.87 210.997,-206.87 219.622,-206.87"/>
<polygon fill="black" stroke="black" points="219.747,-210.37 229.747,-206.87 219.747,-203.37 219.747,-210.37"/>
</g>
</g>
</svg>
